M48
;Layer_Color=9474304
;FILE_FORMAT=4:4
METRIC,LZ
T8F00S00C2.4000
%
G90
G05
T08
G00X00383446Y-00041495
M15
G01X00386601Y-00040021
G01X00388485Y-00038485
G01X00393485Y-00033485
G01X00395564Y-00030692
G01X00396754Y-00027419
G01X00397Y-00025
G01X00397Y-00008907
G01X00598942Y-00009049
G01X00602388Y-00008547
G01X00605544Y-00007075
G01X00607436Y-00005535
G01X00612485Y-00000485
G01X00614564Y00002308
G01X00615754Y00005581
G01X00616Y00008
G01X00616Y00608
G01X00615495Y00611446
G01X00614021Y00614601
G01X00612485Y00616485
G01X00607485Y00621485
G01X00604692Y00623564
G01X00601418Y00624754
G01X00599Y00625
G01X00552965Y00625
G01X00553Y00628893
G01X00552525Y00632343
G01X0055108Y00635512
G01X00549485Y00637485
G01X00544485Y00642485
G01X00541692Y00644564
G01X00538418Y00645754
G01X00536Y00646
G01X00444945Y00646
G01X00445Y00654926
G01X00444516Y00658375
G01X00443062Y0066154
G01X00441485Y00663485
G01X00436485Y00668485
G01X00433692Y00670564
G01X00430418Y00671754
G01X00428Y00672
G01X-00179Y00672
G01X-00182446Y00671495
G01X-00185601Y00670021
G01X-00187485Y00668485
G01X-00192485Y00663485
G01X-00194564Y00660692
G01X-00195754Y00657418
G01X-00196Y00655
G01X-00196Y-00025
G01X-00195495Y-00028446
G01X-00194021Y-00031601
G01X-00192485Y-00033485
G01X-00187485Y-00038485
G01X-00184692Y-00040564
G01X-00181419Y-00041754
G01X-00179Y-00042
G01X0038Y-00042
G01X00383446Y-00041495
M16
M17
M30
