M48
;Layer_Color=9474304
;FILE_FORMAT=4:4
METRIC,LZ
;TYPE=PLATED
T1F00S00C0.2000
T2F00S00C2.2000
T3F00S00C2.7000
T4F00S00C3.0000
;TYPE=NON_PLATED
T5F00S00C1.1000
T6F00S00C1.2700
T7F00S00C1.6000
%
T01
X-00124Y0003
X-00096
X-0010575Y000525
X-0011425Y0005175
X-0010575Y000775
X-00127Y00081
X-00123375Y00099375
X-001Y001
X-00099667Y0011
X-00102Y0012
X-00082Y0011815
Y0013085
Y0014355
Y0015625
Y0016895
Y0018165
Y0019435
Y0020705
Y0021975
Y0023245
Y0024515
Y0025785
Y0027055
Y0028325
Y0029595
Y0030865
Y0032135
Y0033405
Y0034675
Y0035945
X-000692
X-0005665
X-0004395
X-0003126
X-0001865
Y0034675
X-0003126
X-0004395
X-0005665
X-000692
Y0033405
X-0005665
X-0004395
X-0003126
X-0001865
Y0032135
X-0003126
X-0004395
Y0030865
X-0003126
X-0001865
Y0029595
X-0003126
X-0004395
Y0028325
X-0003126
X-0001865
Y0027055
X-00030792Y00270082
X-0003126Y0025785
X-0001865
Y0024515
X-0003126
X-0004395
Y0023245
X-0005665
X-000692
Y0021975
X-0005665
Y0020705
X-000692
Y0019435
X-0005665
Y0018165
X-00068375
Y0016895
X-00056
X-000433
Y0015625
Y0014355
Y0013085
Y0011815
X-00056
X-00068375
Y0010545
X-00056
X-00055637Y00093763
X-0004395Y0009275
X-0003126
X-0001865
Y0010545
X-00030375
Y0011815
X-000179
Y0013085
X-00030375
Y0014355
X-000179
X-000052
Y0013085
Y0011815
X000068
Y0010545
Y0009275
X-000059
Y0010545
X000196
Y0009275
X000325
Y0010545
Y0011815
Y0013085
X000202
X00007625
Y0014355
X000202
X000323
Y0015625
X000202
X00007625
Y0016895
X000202
Y0018165
X000323
Y0019435
X000202
X00007625
Y0020705
X000202
Y0021975
X000323
Y0023245
X000202
X00007625
Y0021975
X-000052
X-000179
Y0020705
Y0019435
X-00030375
Y0018165
X-000179
Y0016895
X-00030375
Y0015625
X-000179
X-000052
Y0016895
Y0018165
Y0019435
Y0020705
X-000306
Y0021975
X-0003126Y00232375
X-0001865
X-000052Y0023245
X-000059Y0024515
Y0025785
Y0027055
X000068
Y0028325
X-000059
Y0029595
Y0030865
Y0032135
X000068
Y0033405
Y0034675
Y0035945
X-000059
Y0034675
Y0033405
X000196
Y0032135
Y0030865
Y0029595
Y0028325
Y0027055
X000322
Y0025785
X000195
X000068
Y0024515
X000195
X000325
X00045336Y00243897
X00049441Y0024675
X00048846Y0025945
X00044992Y0025625
X00081Y00254
X00084536Y00250464
Y00267465
X00081Y00271
X00080871Y00229408
X00083396Y00225093
X00080941Y00215593
X00084705Y00212302
X00112Y002125
Y002175
Y002275
Y002325
Y002425
Y002475
X00133924Y00252632
X00132694Y00237589
X00142967Y00241863
X00154661Y0024108
X00166392Y00242293
X00191Y0027
X0017032Y00295634
X00178584Y0031
X00161303
X0017Y00320269
X00208152Y00299337
X00208743Y00359297
X00201993Y00359575
X0019573Y00359498
X00190671Y0035871
X00208118Y00220761
X00208358Y00215329
X00208163Y00210007
X00208486Y00170142
X00208344Y0016511
X002085Y0016
X00187625Y0016
X00147451Y00164099
X00143916Y00167635
X00134924Y00169632
Y00154632
X00144Y0015
X00147535Y00146465
X00146959Y0017921
X00143423Y00182745
X00134924Y00185632
X00137592Y00193585
X00134056Y00197121
X00132929Y00207606
X00132694Y00222547
X00110719Y00207632
X00112Y002025
Y001975
Y00187
Y00182
Y001725
Y001675
Y001575
Y001525
X00051893Y00152436
X00051545Y00147448
X00043598Y00157598
X00047134Y00161311
X0004592Y00166635
X00049455Y00170171
X0003305Y00169
X00044814Y00183528
X00048349Y00187064
X0004655Y0020278
X00050086Y00206315
X00047122Y0021815
X00051134Y0022135
X0003595Y0020705
X00007625Y0018165
X-000433
X-0004395Y0019435
Y0020705
Y0021975
X-0005665Y0024515
X-000692
Y0025785
X-0005665
X-0004395
Y0027055
X-0005665
X-000692
Y0028325
X-0005665
Y0029595
X-000692
Y0030865
X-0005665
Y0032135
X-000692
X000068Y0030865
Y0029595
X000325
Y0030865
Y0032135
Y0033405
Y0034675
Y0035945
X000196
Y0034675
X000325Y0028325
X-00109Y0027
X-001165Y001995
Y001805
X-00109Y0017
X-00096Y0019
X-00068375Y0015625
X-00056
Y0014355
X-00068375
Y0013085
X-00056
X-000433Y0010545
X-0004395Y00079375
Y0006735
X-0003126
Y00079375
X-0001865
Y0006735
X-000059
Y00079375
X000068
Y0006735
X000196
Y00079375
X000325
Y0006735
X00046336Y00083826
X00046259Y00089649
X00046897Y00096049
X00047237Y00102639
X00047Y00108
X00047138Y00115702
X0004727Y0012146
X00047369Y00128271
X0005775Y00131148
X0006275Y00132202
X000196Y0011815
X-00068375Y0009275
X-000692Y0008005
Y0006735
X-0005665
Y00079375
X-00082Y0008005
Y0009275
Y0010545
Y0006735
X00091Y0007
X00110719Y00067632
X00111469Y00080132
X00134674
X00133924Y00067632
X00141Y0007
X00187731Y00069979
X00187844Y00075217
X00209483Y00113129
X00159675Y0003857
X0015149Y00025
X00168538
X00094
X00076072
X000853Y00039822
X00218032Y0005305
X00228032
X00234032Y0004105
X0023863Y0002437
X00237776Y00072146
X00234Y00089
X00247Y0011876
X00252765Y00118653
X00269569Y00113902
X00280924Y00090166
X00276134Y00085192
X00284625Y00080003
X00289921Y00064764
X00312617Y00068913
X00311658Y00081342
X00326Y001
X00318173Y00111859
X0033235Y00127341
X00354Y0012
X00366Y0012
X00354Y001
X00341Y0007
X00391
X00441
X00491
X00541
X00516Y0012
X00466
X00416
X00391Y0017
X00345024Y00181024
Y00199898
X00325Y00245
X00307Y00252947
X00297073Y00232917
X00280481Y00248256
X00291Y0027
X0026975Y0028325
X00274343Y00308885
X00316Y0032
X00366
X00363561Y0032996
X00377781Y00338907
X0037Y0029
X00391Y0027
X00441
X00491
X00541
X00516Y0032
X00466
X00416
Y0022
X00466
X00516
X00541Y0017
X00491
X0028016Y00164256
X0026388Y00168343
X00253114Y00234044
X00249331Y00238846
X00251714Y00243407
X00251387Y00254476
X00245693Y00229824
X00236581Y00346146
X00227558Y00345693
X00223832Y00359397
X00280924Y00042076
X00276134Y00037134
X00284Y00032
X00312617Y00034166
X00291Y0037
X0030888Y00391769
X0030865Y0040465
X00257577Y00412577
X00241021Y00419979
X00240746Y00404254
X00240617Y00392617
X00241Y0037
X0022331Y00444572
X00219635Y00450085
X00216416Y00468586
X00221689Y0047458
X00213312Y00482863
X00241Y0047
X00239207Y00513541
X00234005Y00528995
X00229Y00541
X00218
X00235949Y0056146
X00234322Y00575089
X00226958Y00587021
X00219958
X00277425Y00576425
X00283425Y00571425
X00273118Y00566955
X00290544Y00554133
X00308724Y00560548
X00312058Y00522058
X00323374Y00513177
X00323129Y00501065
X00283546Y00498316
X00279Y00506
X00273382Y00501909
X00273059Y00521159
X00284Y00526
X00278963Y0053151
X00291Y0047
X00341
X00391
X00416Y0042
X00466
X00491Y0047
Y0037
X00541
X00441
X00391
X00341
X00366Y0042
X00391Y0057
X00312143Y00604836
X00290521Y00599765
X00168673Y00595
X00151491Y00595
X0016Y00583
X00133924Y00552632
Y00537632
Y00521441
X00133598Y00509451
X00133896Y00489158
X00133924Y00477632
Y00462632
Y00447632
X00110719
Y00462433
Y00477433
X00110691Y00489158
X00109827Y00509219
X00110719Y00522433
Y00537433
Y00552433
X00091Y0057
X00085Y00577
X00093547Y00595
X00076
X000325Y0056265
Y0054995
Y0053725
Y0052455
X00019853Y00524584
X000196Y0053725
Y0054995
Y0056265
X000068
Y0054995
Y0053725
X-000059
Y0052455
Y0051185
Y0049915
Y0048645
X000068
Y0047375
Y0046105
X-000059
Y0044835
Y0043565
Y0042295
X-00017375
X-000179Y0041025
X-000059
Y0039755
X-000179
X-000306
X-00043232
Y0041025
X-00030375
Y00422282
X-0004395Y0042295
Y0043565
X-0003126
X-0001865
Y0044835
X-0003126
X-0004395
X-0005665
X-000692
Y0046105
X-0005665
X-0004395
X-0003126
X-0001865
Y0047375
X-0003126
X-0004395
Y0048645
X-0003126
X-0001865
Y0049915
X-0003126
X-0004395
X-0005665
X-000692
Y0051185
X-0005665
Y0052455
X-000692
Y0053725
X-0005665
X-0004395
X-0003126
X-0001865
Y0052455
X-0003126
X-0004395
Y0051185
X-0003126
X-0001865
X00006803Y00511853
X00007003Y00524347
X000196Y0051185
Y0049915
Y0048645
Y0047375
Y0046105
X000325
Y0044835
X00019892Y00448439
X00006903Y00448247
X000068Y0043422
Y0042295
Y0041025
Y0039755
Y0038485
Y0037215
X-000059
Y0038485
X-0001865
X-0003126
X-0004395
X-0005665
X-000692
X-00069117Y00395653
X-0005665Y0039755
Y0041025
X-000692
Y0042295
X-0005665
Y0043565
X-000692
X-00082
Y0044835
Y0046105
Y0047375
Y0048645
Y0049915
Y0051185
Y0052455
Y0053725
Y0054995
Y0056265
X-000692
X-0005665
X-00059Y0057
X-0005665Y0054995
X-000692
X-0004395
X-0003126
X-0001865
Y0056265
X-0003126
X-0004395
X-000059
Y0054995
X000068Y0049915
X000325
Y0048645
Y0047375
Y0051185
X00050064Y00500092
X-000059Y0047375
X-0005665
X-000692
Y0048645
X-0005665
X-00096Y0049
X-001165Y004815
X-00116392Y00498609
X-00114339Y0050556
X-00119446Y0052
X-00119636Y0053
X-00109Y0047
X-00082Y0042295
Y0041025
Y0039755
Y0038485
Y0037215
X-000692
X-0005665
X-0004395
X-0003126
X-0001865
X000196
Y0038485
Y0039755
Y0041025
Y0042295
Y0043422
X000325
Y0042295
Y0041025
Y0039755
Y0038485
Y0037215
X00110719Y00382433
X001125Y003875
X001125Y003925
Y003975
Y004025
Y004075
Y004125
Y004175
X001125Y004225
X00146Y00436
X00151078Y00439748
X00157135Y00444196
X00161393Y00451387
Y00420159
X00188Y0042
X00186Y00410305
X00209Y00401
X00210267Y00396102
X00209394Y0039
X00211303Y00385
X002085Y0046
X00187Y00459032
X00186429Y00464032
X0018644Y00471282
X00188Y0044421
X00167193Y00489929
X00162Y0051
X00157Y00515
X00151Y0052
X00187303
X001872Y00515
X00187Y0051
Y00524991
X00187738Y00545
X00188Y0055
X00208918Y00531581
X00209029Y00525066
X00208568Y00514968
X00209525Y00504271
X00133924Y00382632
Y00367632
X-00109Y0037
X-00127Y0039
X-00123375Y00402375
X-00125Y006
X-00096
T02
X-00159Y00015
Y00165
Y00315
X002Y-00005
X00579Y00033
Y00315
Y00583
X0038Y00635
X002
X-00159Y00615
Y00465
T03
X0Y0
X00541Y00025
Y005905
X0Y0063
T04
X0046Y0016
X0058Y0016
Y0046
X0046Y0046
T05
X00175Y0006
Y0036
T06
X-000505Y000432
X-0002Y000431
Y005868
X000105Y005869
T07
X00175Y0026
Y0056
M30
