M48
;Layer_Color=9474304
;FILE_FORMAT=4:4
METRIC,LZ
T4F00S00C2.4000
%
G90
G05
T04
G00X00058446Y-00041495
M15
G01X00061601Y-00040021
G01X00063485Y-00038485
G01X00068485Y-00033485
G01X00070564Y-00030692
G01X00071754Y-00027419
G01X00072Y-00025
G01X00072Y00048084
G01X00159989Y00048
G01X00163435Y00048502
G01X00166591Y00049972
G01X00168485Y00051515
G01X00173485Y00056515
G01X00175564Y00059308
G01X00176754Y00062581
G01X00177Y00065
G01X00177Y00565
G01X00176495Y00568446
G01X00175021Y00571601
G01X00173485Y00573485
G01X00168485Y00578485
G01X00165692Y00580564
G01X00162419Y00581754
G01X0016Y00582
G01X00071916Y00582
G01X00072Y00654986
G01X00071499Y00658432
G01X00070029Y0066159
G01X00068485Y00663485
G01X00063485Y00668485
G01X00060692Y00670564
G01X00057419Y00671754
G01X00055Y00672
G01X-00179Y00672
G01X-00182446Y00671495
G01X-00185601Y00670021
G01X-00187485Y00668485
G01X-00192485Y00663485
G01X-00194564Y00660692
G01X-00195754Y00657418
G01X-00196Y00655
G01X-00196Y-00026
G01X-00195495Y-00029446
G01X-00194021Y-00032601
G01X-00192485Y-00034485
G01X-00188485Y-00038485
G01X-00185692Y-00040564
G01X-00182418Y-00041754
G01X-0018Y-00042
G01X00055Y-00042
G01X00058446Y-00041495
M16
M17
M30
