M48
;Layer_Color=9474304
;FILE_FORMAT=4:4
METRIC,LZ
;TYPE=PLATED
T1F00S00C0.2000
T2F00S00C2.7000
;TYPE=NON_PLATED
T3F00S00C1.2700
%
T01
X-00172Y000091
X-00159
X-00144
X-00131
Y000361
X-00144
X-00159
X-00172
Y000645
X-00159
X-00144
X-00131
Y000915
X-00144
X-00159
X-00172
Y001416
X-00159
X-00144
X-00131
Y001686
X-00144
X-00159
X-00172
Y00197
X-00159
X-00144
X-00131
Y00224
X-00144
X-00159
X-00172
Y002741
X-00159
X-00144
X-00131
Y003011
X-00144
X-00159
X-00172
Y003295
X-00159
X-00144
X-00131
Y003565
X-00144
X-00159
X-00172
X-0007825Y00340648
X-00056382Y00338298
X-00030864Y003383
X-00034Y00334
X-00032855Y00347006
X-00019Y0036115
X-0000575Y0036475
X00006781Y0036115
X-00005543Y00323515
X-0000275Y003025
X00020457Y00303907
X00017257Y00312979
X00042473Y00316859
X0004875Y00302
X0007415Y002935
X0009955Y00288389
X00122Y0032675
X0010885Y003646
X0009497Y00352635
X0006775Y00356135
X00028Y00264
X00010095Y00264509
X00006349Y002683
X-0000875Y00241351
X-00008242Y00236377
X-0003415Y00238854
X-00033328Y0024628
X-00032103Y00261874
X-00035799Y0026527
X-00048305Y00264164
X-00059Y00264
X-00057112Y00287484
X-00059468Y0029226
X-00080169Y00276966
X-00084412Y0030865
X-0008435Y0032135
X-00084162Y00226299
X-0007249Y00212066
X-00068451Y00215014
X-0005955Y00213026
X-00047411Y00214643
X-00042508Y00213661
X-000221Y00213848
X-000171Y00213811
X00004882Y00213882
X00009882Y00213838
X0001507Y00213227
X00017996Y00208908
X0001666Y00201667
X00017965Y00196821
X000424Y0019435
X0004285Y0018165
X00030649Y0016885
X00021214Y00163662
X00017677Y00160127
X0001939Y0015543
X00019Y00137
X00046Y00131
X00072Y0013075
X0007225Y0014475
X000735Y0016075
X00077035Y00164286
X00067386Y00165833
X00063399Y0016885
X00088Y00165
X000915Y0016125
X00116561Y00167328
X00120096Y00163793
X001195Y0014725
X0011925Y00136
X0009955Y00125932
X00097562Y00120812
X-00003808Y00149796
X00005717Y00168731
X-00007734Y00175143
X-0002Y0016885
X-00044Y00163
X-00084311Y0016325
X-0008755Y00167059
X-00078511Y00150201
X-0007715Y0006015
X-0005175Y00059966
X-0002635Y00059885
X-0000095Y00059708
X0002445Y00060091
X-0000875Y00198197
X-0000572Y00202485
X-0005625Y002255
X-00058Y00239
X-00028113Y00276915
X0005575Y0021575
X0006075
X0004975Y00378
X00024507Y0039105
X0000525Y0041075
X-00020175Y00410801
X-0004525Y0041175
X-00049538Y00414323
X-00058204Y00404907
X-0007075Y0041375
X-0008495Y00403487
X-00081442Y00391668
X-000335Y0038925
X-00032875Y00384289
X-00021Y0046115
X-00046
X-00072
X-0008495Y0048194
X-00058576Y00486556
X-00058118Y00492382
X-0007065Y0051185
X-00045Y0051175
X-00032104Y00521813
X-00034Y0053725
X-00031Y0054975
X-00019Y005625
X0000625
X-00006Y0055
X-00007425Y00537085
X00019Y00537
X00030952Y00562801
X0004457Y00549813
X-00057Y0055
X-00058Y00537
X-00084277Y00524596
X-00094Y00519
X-00084397Y00562662
X-000445Y0056275
X-00020154Y00512108
X-00032449Y00478076
X00005Y0046115
X00018Y004555
X0003Y0046115
X00043097Y00441885
X0004205Y00435513
X00071056Y00466813
X0009285Y00453726
X000835Y0036875
X-00131Y004066
X-00144
X-00159
X-00172
Y004336
X-00159
X-00144
X-00131
Y00462
X-00144
X-00159
X-00172
Y00489
X-00159
X-00144
X-00131
Y005391
X-00144
X-00159
X-00172
Y005661
X-00159
X-00144
X-00131
Y005945
X-00144
X-00159
X-00172
Y006215
X-00159
X-00144
X-00131
T02
X0Y0
Y0063
T03
X-0002Y000431
X000105Y005869
M30
