M48
;Layer_Color=9474304
;FILE_FORMAT=4:4
METRIC,LZ
;TYPE=PLATED
T1F00S00C0.2000
T2F00S00C0.7112
T3F00S00C0.8900
T4F00S00C1.0200
T5F00S00C1.6000
;TYPE=NON_PLATED
T6F00S00C3.2500
%
T01
X00031242Y00059944
X00044704
X00045974Y00065532
X00025146Y000762
X00027432Y00099822
X00025654Y00137922
X00035052Y00139192
X00042926Y0014097
X0002564Y0014986
X00025654Y0016764
X00027432Y00182626
Y00197358
Y00213106
Y00226822
X00048006Y00226568
X00058166Y00242062
X00103016Y00245065
X0011557Y002286
X00135636Y00235458
X00124206Y00195072
X00109144Y00201176
X001Y0019
X0008255Y0020352
X0007493Y0020574
X0008763Y0021775
X00094369Y0022224
X0007Y0016
X00056896Y00154432
X0006731Y0013843
X00069918Y00126932
X0006477Y0012446
Y0011916
X000536Y0012127
X00083712Y00109937
X0009779Y0010414
X0010414Y0010668
X00089408Y0008763
Y00060452
X0010033Y0005207
X00131826Y0004572
X0013081Y0006477
X00138176Y00113538
X0014986Y0013589
X0015494Y0014814
X0017145Y0016002
X00156356Y00176739
X00125476Y00165608
X00094234Y00134366
X0017145Y0010922
X00179324Y00094488
X00306324Y00139192
X00324612
Y00159512
X00306324
X00366014
Y00139192
X0034798Y0006477
X00324612Y00245618
X00319786Y00249682
X00297688Y00253815
T02
X0011Y0015
T03
X002286Y0009271
Y0011811
Y0014351
Y0016891
Y0019431
X00254Y0020701
Y0018161
Y0015621
Y0013081
Y0010541
T04
X00184658Y0005461
X00210058
X00206248Y00244856
X00180848
X00155448
X00231648
X003632Y0021716
Y0019176
Y0010796
Y0008256
X00260858Y0005461
X00235458
T05
X00287Y0007241
Y0022731
T06
X003175Y0009271
Y0020701
M30
