G04*
G04 #@! TF.GenerationSoftware,Altium Limited,Altium Designer,21.1.1 (26)*
G04*
G04 Layer_Color=32896*
%FSLAX44Y44*%
%MOMM*%
G71*
G04*
G04 #@! TF.SameCoordinates,63B2E272-0427-4AAB-BE5C-BBC369205028*
G04*
G04*
G04 #@! TF.FilePolarity,Positive*
G04*
G01*
G75*
%ADD114C,0.0000*%
D114*
X406000Y430000D02*
G03*
X420000Y416000I14000J0D01*
G01*
X420000Y444000D02*
G03*
X406000Y430000I0J-14000D01*
G01*
X35000Y529250D02*
G03*
X40000Y534250I0J5000D01*
G01*
X35000Y403750D02*
G03*
X29000Y409750I-6000J0D01*
G01*
X29000Y397750D02*
G03*
X35000Y403750I0J6000D01*
G01*
X40000Y325750D02*
G03*
X35000Y330750I-5000J0D01*
G01*
X40000Y322500D02*
X42500Y320000D01*
X417500D01*
X420000Y322500D01*
Y416000D01*
Y444000D02*
Y537375D01*
X417500Y539875D02*
X420000Y537375D01*
X42500Y539875D02*
X417500D01*
X40000Y537125D02*
X42500Y539875D01*
X40000Y534250D02*
Y537125D01*
X0Y529250D02*
X35000D01*
X0Y409750D02*
Y529250D01*
Y409750D02*
X29000D01*
X0Y397750D02*
X29000D01*
X0Y330750D02*
Y397750D01*
Y330750D02*
X35000D01*
X40000Y322500D02*
Y325750D01*
X451000Y210000D02*
G03*
X437000Y224000I-14000J0D01*
G01*
X437000Y196000D02*
G03*
X451000Y210000I0J14000D01*
G01*
X822000Y110750D02*
G03*
X817000Y105750I0J-5000D01*
G01*
X822000Y236250D02*
G03*
X828000Y230250I6000J0D01*
G01*
X828000Y242250D02*
G03*
X822000Y236250I0J-6000D01*
G01*
X817000Y314250D02*
G03*
X822000Y309250I5000J0D01*
G01*
X817000Y317500D02*
X814500Y320000D01*
X439500D01*
X437000Y317500D01*
Y224000D01*
Y196000D02*
Y102624D01*
X439500Y100124D02*
X437000Y102624D01*
X814500Y100124D02*
X439500D01*
X817000Y102875D02*
X814500Y100124D01*
X817000Y105750D02*
Y102875D01*
X857000Y110750D02*
X822000D01*
X857000Y230250D02*
Y110750D01*
Y230250D02*
X828000D01*
X857000Y242250D02*
X828000D01*
X857000Y309250D02*
Y242250D01*
Y309250D02*
X822000D01*
X817000Y317500D02*
Y314250D01*
X451000Y430000D02*
G03*
X437000Y444000I-14000J0D01*
G01*
X437000Y416000D02*
G03*
X451000Y430000I0J14000D01*
G01*
X822000Y330750D02*
G03*
X817000Y325750I0J-5000D01*
G01*
X822000Y456250D02*
G03*
X828000Y450250I6000J0D01*
G01*
X828000Y462250D02*
G03*
X822000Y456250I0J-6000D01*
G01*
X817000Y534250D02*
G03*
X822000Y529250I5000J0D01*
G01*
X817000Y537500D02*
X814500Y540000D01*
X439500D01*
X437000Y537500D01*
Y444000D01*
Y416000D02*
Y322625D01*
X439500Y320125D02*
X437000Y322625D01*
X814500Y320125D02*
X439500D01*
X817000Y322875D02*
X814500Y320125D01*
X817000Y325750D02*
Y322875D01*
X857000Y330750D02*
X822000D01*
X857000Y450250D02*
Y330750D01*
Y450250D02*
X828000D01*
X857000Y462250D02*
X828000D01*
X857000Y529250D02*
Y462250D01*
Y529250D02*
X822000D01*
X817000Y537500D02*
Y534250D01*
X451000Y650001D02*
G03*
X437000Y664000I-14000J0D01*
G01*
X437000Y636000D02*
G03*
X451000Y650000I0J14000D01*
G01*
X822000Y550750D02*
G03*
X817000Y545750I0J-5000D01*
G01*
X822000Y676250D02*
G03*
X828000Y670250I6000J0D01*
G01*
X828000Y682250D02*
G03*
X822000Y676250I0J-6000D01*
G01*
X817000Y754250D02*
G03*
X822000Y749250I5000J0D01*
G01*
X817000Y757500D02*
X814500Y760000D01*
X439500D01*
X437000Y757500D01*
Y664000D01*
Y636000D02*
Y542625D01*
X439500Y540125D02*
X437000Y542625D01*
X814500Y540125D02*
X439500D01*
X817000Y542875D02*
X814500Y540125D01*
X817000Y545750D02*
Y542875D01*
X857000Y550750D02*
X822000D01*
X857000Y670250D02*
Y550750D01*
Y670250D02*
X828000D01*
X857000Y682250D02*
X828000D01*
X857000Y749250D02*
Y682250D01*
Y749250D02*
X822000D01*
X817000Y757500D02*
Y754250D01*
X406000Y649999D02*
G03*
X420000Y636000I14000J0D01*
G01*
X420000Y664000D02*
G03*
X406000Y650000I0J-14000D01*
G01*
X35000Y749250D02*
G03*
X40000Y754250I0J5000D01*
G01*
X35000Y623750D02*
G03*
X29000Y629750I-6000J0D01*
G01*
X29000Y617750D02*
G03*
X35000Y623750I0J6000D01*
G01*
X40000Y545750D02*
G03*
X35000Y550750I-5000J0D01*
G01*
X40000Y542500D02*
X42500Y540000D01*
X417500D01*
X420000Y542500D01*
Y636000D01*
Y664000D02*
Y757375D01*
X417500Y759875D02*
X420000Y757375D01*
X42500Y759875D02*
X417500D01*
X40000Y757125D02*
X42500Y759875D01*
X40000Y754250D02*
Y757125D01*
X0Y749250D02*
X35000D01*
X0Y629750D02*
Y749250D01*
Y629750D02*
X29000D01*
X0Y617750D02*
X29000D01*
X0Y550750D02*
Y617750D01*
Y550750D02*
X35000D01*
X40000Y542500D02*
Y545750D01*
X406000Y210000D02*
G03*
X420000Y196000I14000J0D01*
G01*
X420000Y224000D02*
G03*
X406000Y210000I0J-14000D01*
G01*
X35000Y309250D02*
G03*
X40000Y314250I0J5000D01*
G01*
X35000Y183750D02*
G03*
X29000Y189750I-6000J0D01*
G01*
X29000Y177750D02*
G03*
X35000Y183750I0J6000D01*
G01*
X40000Y105750D02*
G03*
X35000Y110750I-5000J0D01*
G01*
X40000Y102500D02*
X42500Y100000D01*
X417500D01*
X420000Y102500D01*
Y196000D01*
Y224000D02*
Y317376D01*
X417500Y319876D02*
X420000Y317376D01*
X42500Y319876D02*
X417500D01*
X40000Y317125D02*
X42500Y319876D01*
X40000Y314250D02*
Y317125D01*
X0Y309250D02*
X35000D01*
X0Y189750D02*
Y309250D01*
Y189750D02*
X29000D01*
X0Y177750D02*
X29000D01*
X0Y110750D02*
Y177750D01*
Y110750D02*
X35000D01*
X40000Y102500D02*
Y105750D01*
M02*
