G04*
G04 #@! TF.GenerationSoftware,Altium Limited,Altium Designer,21.1.1 (26)*
G04*
G04 Layer_Color=128*
%FSLAX44Y44*%
%MOMM*%
G71*
G04*
G04 #@! TF.SameCoordinates,63B2E272-0427-4AAB-BE5C-BBC369205028*
G04*
G04*
G04 #@! TF.FilePolarity,Positive*
G04*
G01*
G75*
%ADD11C,1.0000*%
%ADD18R,0.3500X0.2500*%
%ADD19R,0.2500X0.3500*%
%ADD21R,0.5600X0.5200*%
%ADD26R,1.5000X0.3500*%
%ADD73C,0.2100*%
D11*
X750000Y810000D02*
D03*
Y50000D02*
D03*
X100000D02*
D03*
Y810000D02*
D03*
D18*
X761315Y629008D02*
D03*
X766815D02*
D03*
X761315Y637008D02*
D03*
X766815D02*
D03*
X761315Y645008D02*
D03*
X766815D02*
D03*
X761250Y653000D02*
D03*
X766750D02*
D03*
X761315Y661008D02*
D03*
X766815D02*
D03*
X761315Y669008D02*
D03*
X766815D02*
D03*
X761315Y677008D02*
D03*
X766815D02*
D03*
X95685Y670992D02*
D03*
X90185D02*
D03*
X95685Y662992D02*
D03*
X90185D02*
D03*
X95685Y654992D02*
D03*
X90185D02*
D03*
X95750Y647000D02*
D03*
X90250D02*
D03*
X95685Y638992D02*
D03*
X90185D02*
D03*
X95685Y630992D02*
D03*
X90185D02*
D03*
X95685Y622992D02*
D03*
X90185D02*
D03*
D19*
X709000Y622250D02*
D03*
Y627750D02*
D03*
Y635250D02*
D03*
Y640750D02*
D03*
Y661250D02*
D03*
Y666750D02*
D03*
Y648250D02*
D03*
Y653750D02*
D03*
Y674000D02*
D03*
Y679500D02*
D03*
X737000Y676250D02*
D03*
Y681750D02*
D03*
X744000Y676250D02*
D03*
Y681750D02*
D03*
X148000Y677750D02*
D03*
Y672250D02*
D03*
Y664750D02*
D03*
Y659250D02*
D03*
Y638750D02*
D03*
Y633250D02*
D03*
Y651750D02*
D03*
Y646250D02*
D03*
Y626000D02*
D03*
Y620500D02*
D03*
X120000Y623750D02*
D03*
Y618250D02*
D03*
X113000Y623750D02*
D03*
Y618250D02*
D03*
D21*
X729900Y676000D02*
D03*
X722100D02*
D03*
X127100Y624000D02*
D03*
X134900D02*
D03*
D26*
X12500Y520000D02*
D03*
Y515000D02*
D03*
Y510000D02*
D03*
Y505000D02*
D03*
Y500000D02*
D03*
Y495000D02*
D03*
Y490000D02*
D03*
Y485000D02*
D03*
Y480000D02*
D03*
Y475000D02*
D03*
Y470000D02*
D03*
Y465000D02*
D03*
Y460000D02*
D03*
Y455000D02*
D03*
Y450000D02*
D03*
Y445000D02*
D03*
Y440000D02*
D03*
Y435000D02*
D03*
Y430000D02*
D03*
Y425000D02*
D03*
Y420000D02*
D03*
Y415000D02*
D03*
Y390000D02*
D03*
Y385000D02*
D03*
Y380000D02*
D03*
Y375000D02*
D03*
Y370000D02*
D03*
Y365000D02*
D03*
Y360000D02*
D03*
Y355000D02*
D03*
Y350000D02*
D03*
Y345000D02*
D03*
Y340000D02*
D03*
X844500Y120000D02*
D03*
Y125000D02*
D03*
Y130000D02*
D03*
Y135000D02*
D03*
Y140000D02*
D03*
Y145000D02*
D03*
Y150000D02*
D03*
Y155000D02*
D03*
Y160000D02*
D03*
Y165000D02*
D03*
Y170000D02*
D03*
Y175000D02*
D03*
Y180000D02*
D03*
Y185000D02*
D03*
Y190000D02*
D03*
Y195000D02*
D03*
Y200000D02*
D03*
Y205000D02*
D03*
Y210000D02*
D03*
Y215000D02*
D03*
Y220000D02*
D03*
Y225000D02*
D03*
Y250000D02*
D03*
Y255000D02*
D03*
Y260000D02*
D03*
Y265000D02*
D03*
Y270000D02*
D03*
Y275000D02*
D03*
Y280000D02*
D03*
Y285000D02*
D03*
Y290000D02*
D03*
Y295000D02*
D03*
Y300000D02*
D03*
Y340000D02*
D03*
Y345000D02*
D03*
Y350000D02*
D03*
Y355000D02*
D03*
Y360000D02*
D03*
Y365000D02*
D03*
Y370000D02*
D03*
Y375000D02*
D03*
Y380000D02*
D03*
Y385000D02*
D03*
Y390000D02*
D03*
Y395000D02*
D03*
Y400000D02*
D03*
Y405000D02*
D03*
Y410000D02*
D03*
Y415000D02*
D03*
Y420000D02*
D03*
Y425000D02*
D03*
Y430000D02*
D03*
Y435000D02*
D03*
Y440000D02*
D03*
Y445000D02*
D03*
Y470000D02*
D03*
Y475000D02*
D03*
Y480000D02*
D03*
Y485000D02*
D03*
Y490000D02*
D03*
Y495000D02*
D03*
Y500000D02*
D03*
Y505000D02*
D03*
Y510000D02*
D03*
Y515000D02*
D03*
Y520000D02*
D03*
Y560000D02*
D03*
Y565000D02*
D03*
Y570000D02*
D03*
Y575000D02*
D03*
Y580000D02*
D03*
Y585000D02*
D03*
Y590000D02*
D03*
Y595000D02*
D03*
Y600000D02*
D03*
Y605000D02*
D03*
Y610000D02*
D03*
Y615000D02*
D03*
Y620000D02*
D03*
Y625000D02*
D03*
Y630000D02*
D03*
Y635000D02*
D03*
Y640000D02*
D03*
Y645000D02*
D03*
Y650000D02*
D03*
Y655000D02*
D03*
Y660000D02*
D03*
Y665000D02*
D03*
Y690000D02*
D03*
Y695000D02*
D03*
Y700000D02*
D03*
Y705000D02*
D03*
Y710000D02*
D03*
Y715000D02*
D03*
Y720000D02*
D03*
Y725000D02*
D03*
Y730000D02*
D03*
Y735000D02*
D03*
Y740000D02*
D03*
X12500D02*
D03*
Y735000D02*
D03*
Y730000D02*
D03*
Y725000D02*
D03*
Y720000D02*
D03*
Y715000D02*
D03*
Y710000D02*
D03*
Y705000D02*
D03*
Y700000D02*
D03*
Y695000D02*
D03*
Y690000D02*
D03*
Y685000D02*
D03*
Y680000D02*
D03*
Y675000D02*
D03*
Y670000D02*
D03*
Y665000D02*
D03*
Y660000D02*
D03*
Y655000D02*
D03*
Y650000D02*
D03*
Y645000D02*
D03*
Y640000D02*
D03*
Y635000D02*
D03*
Y610000D02*
D03*
Y605000D02*
D03*
Y600000D02*
D03*
Y595000D02*
D03*
Y590000D02*
D03*
Y585000D02*
D03*
Y580000D02*
D03*
Y575000D02*
D03*
Y570000D02*
D03*
Y565000D02*
D03*
Y560000D02*
D03*
Y300000D02*
D03*
Y295000D02*
D03*
Y290000D02*
D03*
Y285000D02*
D03*
Y280000D02*
D03*
Y275000D02*
D03*
Y270000D02*
D03*
Y265000D02*
D03*
Y260000D02*
D03*
Y255000D02*
D03*
Y250000D02*
D03*
Y245000D02*
D03*
Y240000D02*
D03*
Y235000D02*
D03*
Y230000D02*
D03*
Y225000D02*
D03*
Y220000D02*
D03*
Y215000D02*
D03*
Y210000D02*
D03*
Y205000D02*
D03*
Y200000D02*
D03*
Y195000D02*
D03*
Y170000D02*
D03*
Y165000D02*
D03*
Y160000D02*
D03*
Y155000D02*
D03*
Y150000D02*
D03*
Y145000D02*
D03*
Y140000D02*
D03*
Y135000D02*
D03*
Y130000D02*
D03*
Y125000D02*
D03*
Y120000D02*
D03*
D73*
X751000Y665000D02*
D03*
X747000D02*
D03*
X743000D02*
D03*
X739000D02*
D03*
X735000D02*
D03*
X731000D02*
D03*
X727000D02*
D03*
X751000Y661000D02*
D03*
X747000D02*
D03*
X743000D02*
D03*
X739000D02*
D03*
X735000D02*
D03*
X731000D02*
D03*
X727000D02*
D03*
X751000Y657000D02*
D03*
X747000D02*
D03*
X743000D02*
D03*
X739000D02*
D03*
X735000D02*
D03*
X731000D02*
D03*
X727000D02*
D03*
X751000Y653000D02*
D03*
X747000D02*
D03*
X743000D02*
D03*
X739000D02*
D03*
X735000D02*
D03*
X731000D02*
D03*
X727000D02*
D03*
X751000Y649000D02*
D03*
X747000D02*
D03*
X743000D02*
D03*
X739000D02*
D03*
X735000D02*
D03*
X731000D02*
D03*
X727000D02*
D03*
X751000Y645000D02*
D03*
X747000D02*
D03*
X743000D02*
D03*
X739000D02*
D03*
X735000D02*
D03*
X731000D02*
D03*
X727000D02*
D03*
X751000Y641000D02*
D03*
X747000D02*
D03*
X743000D02*
D03*
X739000D02*
D03*
X735000D02*
D03*
X731000D02*
D03*
X727000D02*
D03*
X106000Y635000D02*
D03*
X110000D02*
D03*
X114000D02*
D03*
X118000D02*
D03*
X122000D02*
D03*
X126000D02*
D03*
X130000D02*
D03*
X106000Y639000D02*
D03*
X110000D02*
D03*
X114000D02*
D03*
X118000D02*
D03*
X122000D02*
D03*
X126000D02*
D03*
X130000D02*
D03*
X106000Y643000D02*
D03*
X110000D02*
D03*
X114000D02*
D03*
X118000D02*
D03*
X122000D02*
D03*
X126000D02*
D03*
X130000D02*
D03*
X106000Y647000D02*
D03*
X110000D02*
D03*
X114000D02*
D03*
X118000D02*
D03*
X122000D02*
D03*
X126000D02*
D03*
X130000D02*
D03*
X106000Y651000D02*
D03*
X110000D02*
D03*
X114000D02*
D03*
X118000D02*
D03*
X122000D02*
D03*
X126000D02*
D03*
X130000D02*
D03*
X106000Y655000D02*
D03*
X110000D02*
D03*
X114000D02*
D03*
X118000D02*
D03*
X122000D02*
D03*
X126000D02*
D03*
X130000D02*
D03*
X106000Y659000D02*
D03*
X110000D02*
D03*
X114000D02*
D03*
X118000D02*
D03*
X122000D02*
D03*
X126000D02*
D03*
X130000D02*
D03*
M02*
