G04*
G04 #@! TF.GenerationSoftware,Altium Limited,Altium Designer,21.1.1 (26)*
G04*
G04 Layer_Physical_Order=3*
G04 Layer_Color=128*
%FSLAX44Y44*%
%MOMM*%
G71*
G04*
G04 #@! TF.SameCoordinates,63B2E272-0427-4AAB-BE5C-BBC369205028*
G04*
G04*
G04 #@! TF.FilePolarity,Negative*
G04*
G01*
G75*
%ADD27C,0.1500*%
%ADD28C,0.3000*%
%ADD61C,1.0160*%
%ADD67C,4.2160*%
%ADD68C,0.7080*%
%ADD70C,0.6580*%
%ADD71R,2.0000X2.0000*%
%ADD72C,3.2080*%
D27*
X408335Y497500D02*
X407502Y498333D01*
Y499999D01*
X408335Y500832D01*
X409168D01*
X410001Y499999D01*
Y499166D01*
Y499999D01*
X410834Y500832D01*
X411667D01*
X412500Y499999D01*
Y498333D01*
X411667Y497500D01*
X448665Y142500D02*
X449498Y141667D01*
Y140001D01*
X448665Y139168D01*
X447832D01*
X446999Y140001D01*
Y140834D01*
Y140001D01*
X446166Y139168D01*
X445333D01*
X444500Y140001D01*
Y141667D01*
X445333Y142500D01*
X448665Y362500D02*
X449498Y361667D01*
Y360001D01*
X448665Y359168D01*
X447832D01*
X446999Y360001D01*
Y360834D01*
Y360001D01*
X446166Y359168D01*
X445333D01*
X444500Y360001D01*
Y361667D01*
X445333Y362500D01*
X448665Y582500D02*
X449498Y581667D01*
Y580001D01*
X448665Y579168D01*
X447832D01*
X446999Y580001D01*
Y580834D01*
Y580001D01*
X446166Y579168D01*
X445333D01*
X444500Y580001D01*
Y581667D01*
X445333Y582500D01*
X408335Y717500D02*
X407502Y718333D01*
Y719999D01*
X408335Y720832D01*
X409168D01*
X410001Y719999D01*
Y719166D01*
Y719999D01*
X410834Y720832D01*
X411667D01*
X412500Y719999D01*
Y718333D01*
X411667Y717500D01*
X408335Y277500D02*
X407502Y278333D01*
Y279999D01*
X408335Y280832D01*
X409168D01*
X410001Y279999D01*
Y279166D01*
Y279999D01*
X410834Y280832D01*
X411667D01*
X412500Y279999D01*
Y278333D01*
X411667Y277500D01*
D28*
X160500Y444500D02*
X162000Y443000D01*
X157744Y447256D02*
X162000Y443000D01*
X157744Y447256D02*
Y454369D01*
X163193Y459818D01*
X181000D01*
X186000Y454818D01*
Y449125D02*
Y454818D01*
X179875Y443000D02*
X186000Y449125D01*
X162000Y443000D02*
X179875D01*
X823000Y233000D02*
X820000Y236000D01*
X775000D01*
X767000Y228000D01*
Y198000D01*
X773000Y192000D02*
X767000Y198000D01*
X853000Y192000D02*
X773000D01*
X769000Y170900D02*
X761000D01*
X754620Y164520D01*
Y117380D01*
X760000Y112000D02*
X754620Y117380D01*
X773000Y112000D02*
X760000D01*
X778000Y117000D02*
X773000Y112000D01*
X778000Y167000D02*
Y117000D01*
Y167000D02*
X774100Y170900D01*
X769000D01*
X827000Y420000D02*
Y415162D01*
X824310Y412472D01*
X818258D01*
X814009Y416721D01*
Y427847D02*
Y416721D01*
Y427847D02*
X800686Y441170D01*
X756995D01*
X753892Y444273D01*
Y485619D02*
Y444273D01*
X758272Y490000D02*
X753892Y485619D01*
X764500Y490000D02*
X758272D01*
X768547Y485953D02*
X764500Y490000D01*
X768547Y485953D02*
Y466413D01*
X784974Y449985D02*
X768547Y466413D01*
X807015Y449985D02*
X784974D01*
X827000Y430000D02*
X807015Y449985D01*
X827000Y430000D02*
Y420000D01*
X808000Y672437D02*
G03*
X829437Y651000I21437J0D01*
G01*
X792298Y698002D02*
X792295Y698000D01*
X808000Y682300D02*
X792298Y698002D01*
X792295Y698000D02*
X741250D01*
X808000Y682300D02*
Y672437D01*
X830000Y651000D02*
X829437D01*
X830000D02*
Y550000D01*
X728000Y638000D02*
Y540000D01*
X733976Y643976D02*
X728000Y638000D01*
X733976Y660529D02*
Y643976D01*
Y660529D02*
X714000Y680505D01*
Y698000D02*
Y680505D01*
X702000Y756000D02*
Y710000D01*
X714000Y698000D02*
X702000Y710000D01*
X741250Y698000D02*
X714000D01*
X49000Y627563D02*
G03*
X27563Y649000I-21437J0D01*
G01*
X64703Y601997D02*
X64705Y602000D01*
X49000Y617700D02*
X64703Y601997D01*
X64705Y602000D02*
X115750D01*
X49000Y617700D02*
Y627563D01*
X27000Y649000D02*
X27563D01*
X27000D02*
Y750000D01*
X129000Y662000D02*
Y760000D01*
X123024Y656024D02*
X129000Y662000D01*
X123024Y639471D02*
Y656024D01*
Y639471D02*
X143000Y619495D01*
Y602000D02*
Y619495D01*
X155000Y544000D02*
Y590000D01*
X143000Y602000D02*
X155000Y590000D01*
X115750Y602000D02*
X143000D01*
D61*
X0Y0D02*
X857000D01*
X857000Y860000D02*
X857000Y0D01*
X0Y860000D02*
X857000Y860000D01*
X0Y0D02*
Y860000D01*
X406000Y430000D02*
G03*
X420000Y416000I14000J-0D01*
G01*
X420000Y444000D02*
G03*
X406000Y430000I0J-14000D01*
G01*
X35000Y529250D02*
G03*
X40000Y534250I0J5000D01*
G01*
X35000Y403750D02*
G03*
X29000Y409750I-6000J0D01*
G01*
X29000Y397750D02*
G03*
X35000Y403750I0J6000D01*
G01*
X40000Y325750D02*
G03*
X35000Y330750I-5000J0D01*
G01*
X40000Y322500D02*
X42500Y320000D01*
X417500D01*
X420000Y322500D01*
Y416000D01*
Y444000D02*
Y537375D01*
X417500Y539875D02*
X420000Y537375D01*
X42500Y539875D02*
X417500D01*
X40000Y537125D02*
X42500Y539875D01*
X40000Y534250D02*
Y537125D01*
X0Y529250D02*
X35000D01*
X0Y409750D02*
Y529250D01*
Y409750D02*
X29000D01*
X0Y397750D02*
X29000D01*
X0Y330750D02*
Y397750D01*
Y330750D02*
X35000D01*
X40000Y322500D02*
Y325750D01*
X451000Y210000D02*
G03*
X437000Y224000I-14000J0D01*
G01*
X437000Y196000D02*
G03*
X451000Y210000I0J14000D01*
G01*
X822000Y110750D02*
G03*
X817000Y105750I0J-5000D01*
G01*
X822000Y236250D02*
G03*
X828000Y230250I6000J0D01*
G01*
X828000Y242250D02*
G03*
X822000Y236250I0J-6000D01*
G01*
X817000Y314250D02*
G03*
X822000Y309250I5000J0D01*
G01*
X817000Y317500D02*
X814500Y320000D01*
X439500D01*
X437000Y317500D01*
Y224000D01*
Y196000D02*
Y102624D01*
X439500Y100124D02*
X437000Y102624D01*
X814500Y100124D02*
X439500D01*
X817000Y102875D02*
X814500Y100124D01*
X817000Y105750D02*
Y102875D01*
X857000Y110750D02*
X822000D01*
X857000Y230250D02*
Y110750D01*
Y230250D02*
X828000D01*
X857000Y242250D02*
X828000D01*
X857000Y309250D02*
Y242250D01*
Y309250D02*
X822000D01*
X817000Y317500D02*
Y314250D01*
X451000Y430000D02*
G03*
X437000Y444000I-14000J0D01*
G01*
X437000Y416000D02*
G03*
X451000Y430000I0J14000D01*
G01*
X822000Y330750D02*
G03*
X817000Y325750I0J-5000D01*
G01*
X822000Y456250D02*
G03*
X828000Y450250I6000J0D01*
G01*
X828000Y462250D02*
G03*
X822000Y456250I0J-6000D01*
G01*
X817000Y534250D02*
G03*
X822000Y529250I5000J0D01*
G01*
X817000Y537500D02*
X814500Y540000D01*
X439500D01*
X437000Y537500D01*
Y444000D01*
Y416000D02*
Y322625D01*
X439500Y320125D02*
X437000Y322625D01*
X814500Y320125D02*
X439500D01*
X817000Y322875D02*
X814500Y320125D01*
X817000Y325750D02*
Y322875D01*
X857000Y330750D02*
X822000D01*
X857000Y450250D02*
Y330750D01*
Y450250D02*
X828000D01*
X857000Y462250D02*
X828000D01*
X857000Y529250D02*
Y462250D01*
Y529250D02*
X822000D01*
X817000Y537500D02*
Y534250D01*
X451000Y650000D02*
G03*
X437000Y664000I-14000J0D01*
G01*
X437000Y636000D02*
G03*
X451000Y650000I0J14000D01*
G01*
X822000Y550750D02*
G03*
X817000Y545750I0J-5000D01*
G01*
X822000Y676250D02*
G03*
X828000Y670250I6000J0D01*
G01*
X828000Y682250D02*
G03*
X822000Y676250I0J-6000D01*
G01*
X817000Y754250D02*
G03*
X822000Y749250I5000J0D01*
G01*
X817000Y757500D02*
X814500Y760000D01*
X439500D01*
X437000Y757500D01*
Y664000D01*
Y636000D02*
Y542625D01*
X439500Y540125D02*
X437000Y542625D01*
X814500Y540125D02*
X439500D01*
X817000Y542875D02*
X814500Y540125D01*
X817000Y545750D02*
Y542875D01*
X857000Y550750D02*
X822000D01*
X857000Y670250D02*
Y550750D01*
Y670250D02*
X828000D01*
X857000Y682250D02*
X828000D01*
X857000Y749250D02*
Y682250D01*
Y749250D02*
X822000D01*
X817000Y757500D02*
Y754250D01*
X406000Y650000D02*
G03*
X420000Y636000I14000J-0D01*
G01*
X420000Y664000D02*
G03*
X406000Y650000I0J-14000D01*
G01*
X35000Y749250D02*
G03*
X40000Y754250I0J5000D01*
G01*
X35000Y623750D02*
G03*
X29000Y629750I-6000J0D01*
G01*
X29000Y617750D02*
G03*
X35000Y623750I0J6000D01*
G01*
X40000Y545750D02*
G03*
X35000Y550750I-5000J0D01*
G01*
X40000Y542500D02*
X42500Y540000D01*
X417500D01*
X420000Y542500D01*
Y636000D01*
Y664000D02*
Y757375D01*
X417500Y759875D02*
X420000Y757375D01*
X42500Y759875D02*
X417500D01*
X40000Y757125D02*
X42500Y759875D01*
X40000Y754250D02*
Y757125D01*
X0Y749250D02*
X35000D01*
X0Y629750D02*
Y749250D01*
Y629750D02*
X29000D01*
X0Y617750D02*
X29000D01*
X0Y550750D02*
Y617750D01*
Y550750D02*
X35000D01*
X40000Y542500D02*
Y545750D01*
X406000Y210000D02*
G03*
X420000Y196000I14000J-0D01*
G01*
X420000Y224000D02*
G03*
X406000Y210000I0J-14000D01*
G01*
X35000Y309250D02*
G03*
X40000Y314250I0J5000D01*
G01*
X35000Y183750D02*
G03*
X29000Y189750I-6000J0D01*
G01*
X29000Y177750D02*
G03*
X35000Y183750I0J6000D01*
G01*
X40000Y105750D02*
G03*
X35000Y110750I-5000J0D01*
G01*
X40000Y102500D02*
X42500Y100000D01*
X417500D01*
X420000Y102500D01*
Y196000D01*
Y224000D02*
Y317376D01*
X417500Y319876D02*
X420000Y317376D01*
X42500Y319876D02*
X417500D01*
X40000Y317125D02*
X42500Y319876D01*
X40000Y314250D02*
Y317125D01*
X0Y309250D02*
X35000D01*
X0Y189750D02*
Y309250D01*
Y189750D02*
X29000D01*
X0Y177750D02*
X29000D01*
X0Y110750D02*
Y177750D01*
Y110750D02*
X35000D01*
X40000Y102500D02*
Y105750D01*
D67*
X800000Y810000D02*
D03*
Y50000D02*
D03*
X50000D02*
D03*
Y810000D02*
D03*
D68*
X391000Y500000D02*
D03*
X366000Y450000D02*
D03*
X391000Y400000D02*
D03*
X366000Y350000D02*
D03*
X341000Y500000D02*
D03*
X316000Y450000D02*
D03*
X341000Y400000D02*
D03*
X316000Y350000D02*
D03*
X291000Y500000D02*
D03*
X266000Y450000D02*
D03*
X291000Y400000D02*
D03*
X266000Y350000D02*
D03*
X241000Y500000D02*
D03*
X216000Y350000D02*
D03*
X191000Y500000D02*
D03*
X33699Y391494D02*
D03*
X29729Y367869D02*
D03*
X32345Y372474D02*
D03*
X29589Y377427D02*
D03*
X33077Y382485D02*
D03*
X29729Y387577D02*
D03*
X27046Y442611D02*
D03*
X33158Y438577D02*
D03*
X26414Y426506D02*
D03*
X24728Y352307D02*
D03*
X26000Y357197D02*
D03*
X112536Y486536D02*
D03*
X27000Y487500D02*
D03*
X108569Y483491D02*
D03*
X27000Y482500D02*
D03*
X34000Y518000D02*
D03*
X29000D02*
D03*
X78535Y508536D02*
D03*
X74822Y505187D02*
D03*
X26445Y502500D02*
D03*
Y497500D02*
D03*
X94536Y498536D02*
D03*
X91000Y495000D02*
D03*
X140136Y456109D02*
D03*
X161000Y375000D02*
D03*
X201814Y354356D02*
D03*
X194204Y348919D02*
D03*
X177220Y342388D02*
D03*
X185993Y336063D02*
D03*
X136000Y495000D02*
D03*
X166000Y496000D02*
D03*
X157000D02*
D03*
X249557Y467827D02*
D03*
X249943Y357333D02*
D03*
X201793Y467863D02*
D03*
X246218Y443806D02*
D03*
X167000Y388000D02*
D03*
X178000Y479632D02*
D03*
X186147Y475774D02*
D03*
X194000Y471916D02*
D03*
X80147Y399920D02*
D03*
X92502Y404647D02*
D03*
X134941Y396061D02*
D03*
X165972Y399655D02*
D03*
X135181Y414328D02*
D03*
X163500Y414457D02*
D03*
X33962Y452915D02*
D03*
X28592Y472101D02*
D03*
X230000Y451383D02*
D03*
X190000D02*
D03*
X214142D02*
D03*
X205858D02*
D03*
X252115Y381908D02*
D03*
X198000Y374858D02*
D03*
X190000D02*
D03*
X234030Y355908D02*
D03*
X218033Y356279D02*
D03*
X226059Y356160D02*
D03*
X237858Y374002D02*
D03*
X32922Y422610D02*
D03*
X225810Y472866D02*
D03*
X217931Y468517D02*
D03*
X234004Y468454D02*
D03*
X33658Y468242D02*
D03*
X166000Y436000D02*
D03*
X30000Y362370D02*
D03*
X27758Y457086D02*
D03*
X230000Y374002D02*
D03*
X210000Y388000D02*
D03*
X230000Y422002D02*
D03*
X772145Y159078D02*
D03*
X787768Y163995D02*
D03*
X793178Y118028D02*
D03*
X833313Y132010D02*
D03*
X830000Y147000D02*
D03*
X466000Y140000D02*
D03*
X491000Y190000D02*
D03*
X466000Y240000D02*
D03*
X491000Y290000D02*
D03*
X516000Y140000D02*
D03*
X541000Y190000D02*
D03*
X516000Y240000D02*
D03*
X541000Y290000D02*
D03*
X566000Y140000D02*
D03*
X591000Y190000D02*
D03*
X566000Y240000D02*
D03*
X591000Y290000D02*
D03*
X641000Y190000D02*
D03*
X616000Y240000D02*
D03*
X666000Y140000D02*
D03*
X691000Y190000D02*
D03*
X666000Y240000D02*
D03*
X691000Y290000D02*
D03*
X716000Y140000D02*
D03*
Y240000D02*
D03*
X791000Y290000D02*
D03*
X833000Y142000D02*
D03*
X740881Y182425D02*
D03*
X736793Y191872D02*
D03*
X782091Y211276D02*
D03*
X763000Y213000D02*
D03*
X807267Y176043D02*
D03*
X816787Y177361D02*
D03*
X746558Y162680D02*
D03*
X833000Y137000D02*
D03*
X765553Y172721D02*
D03*
X803039Y195642D02*
D03*
X763206Y222659D02*
D03*
X763814Y232519D02*
D03*
X815000Y278000D02*
D03*
X764000Y243000D02*
D03*
Y253000D02*
D03*
X825000Y282000D02*
D03*
X803000Y139000D02*
D03*
X466000Y360000D02*
D03*
X616000D02*
D03*
X691000Y410000D02*
D03*
X741000Y510000D02*
D03*
X466000Y460000D02*
D03*
X541000Y410000D02*
D03*
X666000Y360000D02*
D03*
X766000Y460000D02*
D03*
X816000Y360000D02*
D03*
X541000Y510000D02*
D03*
X741000Y410000D02*
D03*
X491000D02*
D03*
X666000Y460000D02*
D03*
X491000Y510000D02*
D03*
X766000Y360000D02*
D03*
X716000Y460000D02*
D03*
X691000Y510000D02*
D03*
X566000Y360000D02*
D03*
X716000D02*
D03*
X591000Y510000D02*
D03*
X516000Y360000D02*
D03*
Y460000D02*
D03*
X641000Y510000D02*
D03*
X794418Y456361D02*
D03*
X790729Y477524D02*
D03*
X799429Y482640D02*
D03*
X812509Y502500D02*
D03*
X757210Y438694D02*
D03*
X756878Y421491D02*
D03*
X582000Y434000D02*
D03*
Y468000D02*
D03*
X783043Y426549D02*
D03*
X787000Y388000D02*
D03*
X760143Y387097D02*
D03*
X754052Y393608D02*
D03*
X747000Y402500D02*
D03*
X782771Y433165D02*
D03*
X774457Y478336D02*
D03*
X774500Y467500D02*
D03*
X805642Y472500D02*
D03*
X466000Y580000D02*
D03*
X491000Y630000D02*
D03*
X516000Y580000D02*
D03*
X541000Y730000D02*
D03*
X566000Y580000D02*
D03*
X591000Y730000D02*
D03*
X616000Y580000D02*
D03*
X666000D02*
D03*
X691000Y730000D02*
D03*
X716000Y580000D02*
D03*
X791000Y730000D02*
D03*
X726500Y717000D02*
D03*
X719000D02*
D03*
X734000D02*
D03*
X391000Y720000D02*
D03*
X366000Y670000D02*
D03*
X341000Y720000D02*
D03*
X316000Y570000D02*
D03*
X291000Y720000D02*
D03*
X266000Y570000D02*
D03*
X241000Y720000D02*
D03*
X191000D02*
D03*
X166000Y570000D02*
D03*
X141000Y720000D02*
D03*
X66000Y570000D02*
D03*
X130500Y583000D02*
D03*
X138000D02*
D03*
X123000D02*
D03*
X31000Y299000D02*
D03*
X28000Y293000D02*
D03*
X189918Y241773D02*
D03*
X190000Y233000D02*
D03*
X157000D02*
D03*
X159000Y242000D02*
D03*
X44000Y229000D02*
D03*
X191000Y138000D02*
D03*
X170000Y168000D02*
D03*
X171000Y182000D02*
D03*
X56000Y143000D02*
D03*
X83000Y157000D02*
D03*
X106261Y167957D02*
D03*
X96000Y265000D02*
D03*
X85000Y213000D02*
D03*
X241000Y280000D02*
D03*
X64000Y188000D02*
D03*
X25000Y227000D02*
D03*
X26000Y133000D02*
D03*
X25000Y197000D02*
D03*
Y288000D02*
D03*
Y302000D02*
D03*
Y258000D02*
D03*
Y272000D02*
D03*
Y243000D02*
D03*
X391000Y280000D02*
D03*
X366000Y230000D02*
D03*
X391000Y180000D02*
D03*
X366000Y130000D02*
D03*
X341000Y280000D02*
D03*
X316000Y230000D02*
D03*
X341000Y180000D02*
D03*
X316000Y130000D02*
D03*
X291000Y280000D02*
D03*
Y180000D02*
D03*
X266000Y130000D02*
D03*
X216000D02*
D03*
X141000Y280000D02*
D03*
X66000Y230000D02*
D03*
X91000Y180000D02*
D03*
X66000Y130000D02*
D03*
X41000Y180000D02*
D03*
X120000Y268000D02*
D03*
X26713Y282992D02*
D03*
X74569Y288414D02*
D03*
X52253Y237694D02*
D03*
X27488Y237519D02*
D03*
X27000Y253000D02*
D03*
X146000Y207000D02*
D03*
X268000Y210000D02*
D03*
Y202000D02*
D03*
Y226000D02*
D03*
X27000Y278000D02*
D03*
X268128Y217961D02*
D03*
X45770Y152103D02*
D03*
X51911Y157147D02*
D03*
X35744Y147533D02*
D03*
X268000Y186000D02*
D03*
Y194000D02*
D03*
X30000Y143000D02*
D03*
X239877Y142738D02*
D03*
D70*
X775808Y676007D02*
D03*
X771140Y676525D02*
D03*
X786687Y667052D02*
D03*
X832500Y617500D02*
D03*
X696161Y548554D02*
D03*
X749245Y574714D02*
D03*
X832000Y605000D02*
D03*
X746096Y625146D02*
D03*
X775337Y648116D02*
D03*
X800582Y627335D02*
D03*
X803780Y619140D02*
D03*
X807204Y605980D02*
D03*
X810715Y597061D02*
D03*
X833500Y727500D02*
D03*
X812505Y729847D02*
D03*
X801619Y725848D02*
D03*
X766737Y674523D02*
D03*
X724113Y616895D02*
D03*
X621803Y686283D02*
D03*
X730875Y649029D02*
D03*
X574000Y645000D02*
D03*
X713755Y627245D02*
D03*
X730875Y645045D02*
D03*
X570000Y645000D02*
D03*
X716406Y624594D02*
D03*
X630000Y645000D02*
D03*
X634000D02*
D03*
X832500Y648556D02*
D03*
X832583Y557469D02*
D03*
X561874Y682006D02*
D03*
X602039Y682049D02*
D03*
X733000Y692000D02*
D03*
X531850Y681103D02*
D03*
X749749Y687888D02*
D03*
X756562Y687574D02*
D03*
X815014Y627805D02*
D03*
X829734Y595796D02*
D03*
X826542Y601427D02*
D03*
X794675Y640540D02*
D03*
X803401Y614213D02*
D03*
X818517Y573876D02*
D03*
X822256Y578172D02*
D03*
X774231Y640632D02*
D03*
X751000Y641000D02*
D03*
X832500Y632500D02*
D03*
X743000Y661000D02*
D03*
X755889Y680989D02*
D03*
X732000Y617000D02*
D03*
X733430Y631951D02*
D03*
X832551Y587526D02*
D03*
X832784Y572683D02*
D03*
X747025Y660959D02*
D03*
X739125Y645000D02*
D03*
X731000Y653000D02*
D03*
X747000Y657000D02*
D03*
Y653000D02*
D03*
X739000Y661000D02*
D03*
X714000Y649000D02*
D03*
X489920Y653045D02*
D03*
X832789Y743750D02*
D03*
X832178Y662500D02*
D03*
X743000Y645000D02*
D03*
X747000D02*
D03*
X515196Y656281D02*
D03*
X510720Y651726D02*
D03*
X520000Y645000D02*
D03*
X524000D02*
D03*
X619477Y590715D02*
D03*
X624822Y591097D02*
D03*
X709250Y568250D02*
D03*
X709250Y561750D02*
D03*
X785000Y555000D02*
D03*
X767000Y568000D02*
D03*
Y562000D02*
D03*
X735000Y661000D02*
D03*
X731000D02*
D03*
X584000Y655351D02*
D03*
X580000D02*
D03*
X731000Y657000D02*
D03*
X713101Y664880D02*
D03*
X554000Y645000D02*
D03*
X550000D02*
D03*
X714000Y653000D02*
D03*
X738967Y656967D02*
D03*
X739000Y653000D02*
D03*
X735000Y657000D02*
D03*
X743000Y657000D02*
D03*
X730000Y681000D02*
D03*
X743000Y649000D02*
D03*
X747000D02*
D03*
X81192Y623993D02*
D03*
X85860Y623475D02*
D03*
X70313Y632948D02*
D03*
X24500Y682500D02*
D03*
X160839Y751446D02*
D03*
X107755Y725286D02*
D03*
X25000Y695000D02*
D03*
X110904Y674854D02*
D03*
X81663Y651884D02*
D03*
X56418Y672665D02*
D03*
X53220Y680860D02*
D03*
X49796Y694020D02*
D03*
X46284Y702939D02*
D03*
X23500Y572500D02*
D03*
X44495Y570153D02*
D03*
X55381Y574152D02*
D03*
X90263Y625477D02*
D03*
X132887Y683105D02*
D03*
X235197Y613717D02*
D03*
X126125Y650971D02*
D03*
X283000Y655000D02*
D03*
X143245Y672755D02*
D03*
X126125Y654955D02*
D03*
X287000Y655000D02*
D03*
X140594Y675406D02*
D03*
X227000Y655000D02*
D03*
X223000D02*
D03*
X24500Y651444D02*
D03*
X24417Y742531D02*
D03*
X295126Y617994D02*
D03*
X254961Y617951D02*
D03*
X124000Y608000D02*
D03*
X325150Y618897D02*
D03*
X107251Y612112D02*
D03*
X100437Y612426D02*
D03*
X41986Y672195D02*
D03*
X27266Y704204D02*
D03*
X30458Y698574D02*
D03*
X62325Y659460D02*
D03*
X53599Y685787D02*
D03*
X38483Y726124D02*
D03*
X34743Y721828D02*
D03*
X82769Y659368D02*
D03*
X106000Y659000D02*
D03*
X24500Y667500D02*
D03*
X114000Y639000D02*
D03*
X101111Y619011D02*
D03*
X125000Y683000D02*
D03*
X123570Y668048D02*
D03*
X24448Y712474D02*
D03*
X24216Y727317D02*
D03*
X109975Y639041D02*
D03*
X117875Y655000D02*
D03*
X126000Y647000D02*
D03*
X110000Y643000D02*
D03*
Y647000D02*
D03*
X118000Y639000D02*
D03*
X143000Y651000D02*
D03*
X367080Y646955D02*
D03*
X24211Y556250D02*
D03*
X24822Y637500D02*
D03*
X114000Y655000D02*
D03*
X110000D02*
D03*
X341804Y643719D02*
D03*
X346279Y648274D02*
D03*
X337000Y655000D02*
D03*
X333000D02*
D03*
X237523Y709285D02*
D03*
X232178Y708903D02*
D03*
X147750Y731750D02*
D03*
X147750Y738250D02*
D03*
X72000Y745000D02*
D03*
X90000Y732000D02*
D03*
Y738000D02*
D03*
X122000Y639000D02*
D03*
X126000D02*
D03*
X273000Y644649D02*
D03*
X277000D02*
D03*
X126000Y643000D02*
D03*
X143899Y635120D02*
D03*
X303000Y655000D02*
D03*
X307000D02*
D03*
X143000Y647000D02*
D03*
X118033Y643033D02*
D03*
X118000Y647000D02*
D03*
X122000Y643000D02*
D03*
X114000Y643000D02*
D03*
X127000Y619000D02*
D03*
X114000Y651000D02*
D03*
X110000D02*
D03*
D71*
X739000Y653000D02*
D03*
X118000Y647000D02*
D03*
D72*
X627000Y290000D02*
D03*
Y130000D02*
D03*
M02*
