G04*
G04 #@! TF.GenerationSoftware,Altium Limited,Altium Designer,21.1.1 (26)*
G04*
G04 Layer_Color=32896*
%FSLAX44Y44*%
%MOMM*%
G71*
G04*
G04 #@! TF.SameCoordinates,63B2E272-0427-4AAB-BE5C-BBC369205028*
G04*
G04*
G04 #@! TF.FilePolarity,Positive*
G04*
G01*
G75*
%ADD74C,0.2540*%
%ADD111C,1.0000*%
%ADD112C,1.6000*%
%ADD113C,1.6000*%
D74*
X907378Y677407D02*
X904839Y679946D01*
X899761D01*
X897222Y677407D01*
Y667250D01*
X899761Y664711D01*
X904839D01*
X907378Y667250D01*
X914996Y674868D02*
X920074D01*
X922613Y672329D01*
Y664711D01*
X914996D01*
X912457Y667250D01*
X914996Y669790D01*
X922613D01*
X927692Y674868D02*
Y664711D01*
Y669790D01*
X930231Y672329D01*
X932770Y674868D01*
X935309D01*
X953083Y679946D02*
Y664711D01*
X945466D01*
X942927Y667250D01*
Y672329D01*
X945466Y674868D01*
X953083D01*
X973397Y679946D02*
Y664711D01*
Y669790D01*
X983554Y679946D01*
X975936Y672329D01*
X983554Y664711D01*
X996249D02*
X991171D01*
X988632Y667250D01*
Y672329D01*
X991171Y674868D01*
X996249D01*
X998789Y672329D01*
Y669790D01*
X988632D01*
X1003867Y674868D02*
Y667250D01*
X1006406Y664711D01*
X1014024D01*
Y662172D01*
X1011485Y659633D01*
X1008945D01*
X1014024Y664711D02*
Y674868D01*
X1041955Y664711D02*
X1034337Y672329D01*
X1041955Y679946D01*
X1049572Y664711D02*
X1054651D01*
X1052112D01*
Y679946D01*
X1049572Y677407D01*
X1062268Y664711D02*
Y667250D01*
X1064807D01*
Y664711D01*
X1062268D01*
X1085121Y679946D02*
X1080042Y677407D01*
X1074964Y672329D01*
Y667250D01*
X1077503Y664711D01*
X1082582D01*
X1085121Y667250D01*
Y669790D01*
X1082582Y672329D01*
X1074964D01*
X1090199Y664711D02*
Y674868D01*
X1092738D01*
X1095277Y672329D01*
Y664711D01*
Y672329D01*
X1097817Y674868D01*
X1100356Y672329D01*
Y664711D01*
X1105434D02*
Y674868D01*
X1107973D01*
X1110513Y672329D01*
Y664711D01*
Y672329D01*
X1113052Y674868D01*
X1115591Y672329D01*
Y664711D01*
X867540Y807618D02*
Y822853D01*
X875157D01*
X877697Y820314D01*
Y815236D01*
X875157Y812697D01*
X867540D01*
X872618D02*
X877697Y807618D01*
X885314D02*
X890393D01*
X892932Y810157D01*
Y815236D01*
X890393Y817775D01*
X885314D01*
X882775Y815236D01*
Y810157D01*
X885314Y807618D01*
X898010Y817775D02*
Y810157D01*
X900549Y807618D01*
X908167D01*
Y817775D01*
X915784Y820314D02*
Y817775D01*
X913245D01*
X918324D01*
X915784D01*
Y810157D01*
X918324Y807618D01*
X933559D02*
X928480D01*
X925941Y810157D01*
Y815236D01*
X928480Y817775D01*
X933559D01*
X936098Y815236D01*
Y812697D01*
X925941D01*
X958950Y820314D02*
Y817775D01*
X956411D01*
X961490D01*
X958950D01*
Y810157D01*
X961490Y807618D01*
X971646D02*
X976725D01*
X979264Y810157D01*
Y815236D01*
X976725Y817775D01*
X971646D01*
X969107Y815236D01*
Y810157D01*
X971646Y807618D01*
X986881D02*
X991960D01*
X994499Y810157D01*
Y815236D01*
X991960Y817775D01*
X986881D01*
X984342Y815236D01*
Y810157D01*
X986881Y807618D01*
X999577D02*
X1004656D01*
X1002116D01*
Y822853D01*
X999577D01*
X1027508Y802540D02*
Y817775D01*
X1035126D01*
X1037665Y815236D01*
Y810157D01*
X1035126Y807618D01*
X1027508D01*
X1045283Y817775D02*
X1050361D01*
X1052900Y815236D01*
Y807618D01*
X1045283D01*
X1042743Y810157D01*
X1045283Y812697D01*
X1052900D01*
X1060518Y820314D02*
Y817775D01*
X1057978D01*
X1063057D01*
X1060518D01*
Y810157D01*
X1063057Y807618D01*
X1070674Y822853D02*
Y807618D01*
Y815236D01*
X1073213Y817775D01*
X1078292D01*
X1080831Y815236D01*
Y807618D01*
X1101144D02*
X1106223D01*
X1103684D01*
Y822853D01*
X1101144Y820314D01*
X1113840Y807618D02*
Y810157D01*
X1116379D01*
Y807618D01*
X1113840D01*
X1136693Y822853D02*
X1131615Y820314D01*
X1126536Y815236D01*
Y810157D01*
X1129075Y807618D01*
X1134154D01*
X1136693Y810157D01*
Y812697D01*
X1134154Y815236D01*
X1126536D01*
X1141771Y807618D02*
Y817775D01*
X1144310D01*
X1146850Y815236D01*
Y807618D01*
Y815236D01*
X1149389Y817775D01*
X1151928Y815236D01*
Y807618D01*
X1157006D02*
Y817775D01*
X1159546D01*
X1162085Y815236D01*
Y807618D01*
Y815236D01*
X1164624Y817775D01*
X1167163Y815236D01*
Y807618D01*
D111*
X29000Y182750D02*
G03*
X30000Y183750I0J1000D01*
G01*
D02*
G03*
X29000Y184750I-1000J0D01*
G01*
X30000Y403750D02*
G03*
X29000Y404750I-1000J0D01*
G01*
X29000Y402750D02*
G03*
X30000Y403750I0J1000D01*
G01*
Y623750D02*
G03*
X29000Y624750I-1000J0D01*
G01*
X29000Y622750D02*
G03*
X30000Y623750I0J1000D01*
G01*
X828000Y237250D02*
G03*
X827000Y236250I0J-1000D01*
G01*
D02*
G03*
X828000Y235250I1000J0D01*
G01*
X828000Y457250D02*
G03*
X827000Y456250I0J-1000D01*
G01*
D02*
G03*
X828000Y455250I1000J0D01*
G01*
X828000Y677250D02*
G03*
X827000Y676250I0J-1000D01*
G01*
D02*
G03*
X828000Y675250I1000J0D01*
G01*
X0Y184750D02*
X29000D01*
X0Y182750D02*
X29000D01*
X0Y404750D02*
X29000D01*
X0Y402750D02*
X29000D01*
X0Y622750D02*
X29000D01*
X0Y624750D02*
X29000D01*
X828000Y235250D02*
X857000D01*
X828000Y237250D02*
X857000D01*
X828000Y455250D02*
X857000D01*
X828000Y457250D02*
X857000D01*
X828000Y677250D02*
X857000D01*
X828000Y675250D02*
X857000D01*
D112*
X-8000Y110750D02*
G03*
X0Y102750I8000J0D01*
G01*
X-8000Y110750D02*
G03*
X0Y102750I8000J0D01*
G01*
X-5292Y183750D02*
G03*
X-8000Y177750I5292J-6000D01*
G01*
Y189750D02*
G03*
X-5292Y183750I8000J0D01*
G01*
D02*
G03*
X-8000Y177750I5292J-6000D01*
G01*
Y189750D02*
G03*
X-5292Y183750I8000J0D01*
G01*
X32000Y102500D02*
G03*
X34343Y96843I8000J0D01*
G01*
X36832Y94354D02*
G03*
X42500Y92000I5668J5646D01*
G01*
X0Y317250D02*
G03*
X-8000Y309250I0J-8000D01*
G01*
X0Y317250D02*
G03*
X-8000Y309250I0J-8000D01*
G01*
Y330750D02*
G03*
X0Y322750I8000J0D01*
G01*
X-8000Y330750D02*
G03*
X0Y322750I8000J0D01*
G01*
X-5292Y403750D02*
G03*
X-8000Y397750I5292J-6000D01*
G01*
X-5292Y403750D02*
G03*
X-8000Y397750I5292J-6000D01*
G01*
Y409750D02*
G03*
X-5292Y403750I8000J0D01*
G01*
X-8000Y409750D02*
G03*
X-5292Y403750I8000J0D01*
G01*
X32000Y322500D02*
G03*
X32465Y319813I8000J0D01*
G01*
X32000Y102500D02*
G03*
X34354Y96832I8000J0D01*
G01*
X36843Y94343D02*
G03*
X42500Y92000I5657J5657D01*
G01*
X417500D02*
G03*
X423157Y94343I0J8000D01*
G01*
X417500Y92000D02*
G03*
X423168Y94354I0J8000D01*
G01*
X425646Y96832D02*
G03*
X428000Y102500I-5646J5668D01*
G01*
X425657Y96843D02*
G03*
X428000Y102500I-5657J5657D01*
G01*
X429000Y102624D02*
G03*
X431354Y96956I8000J0D01*
G01*
X428000Y196000D02*
G03*
X420000Y204000I-8000J0D01*
G01*
X420000Y216000D02*
G03*
X414000Y210000I0J-6000D01*
G01*
Y210000D02*
G03*
X420000Y204000I5999J-0D01*
G01*
X428000Y196000D02*
G03*
X420000Y204000I-8000J0D01*
G01*
X437000Y204000D02*
G03*
X429000Y196000I0J-8000D01*
G01*
X420000Y216000D02*
G03*
X428000Y224000I0J8000D01*
G01*
X420000Y216000D02*
G03*
X428000Y224000I0J8000D01*
G01*
X32465Y319813D02*
G03*
X32001Y317250I7535J-2688D01*
G01*
X32000Y322500D02*
G03*
X32465Y319813I8000J0D01*
G01*
D02*
G03*
X32001Y317250I7535J-2688D01*
G01*
X427579Y319938D02*
G03*
X428000Y322500I-7579J2562D01*
G01*
Y317376D02*
G03*
X427579Y319938I-8000J0D01*
G01*
D02*
G03*
X428000Y322500I-7579J2562D01*
G01*
Y317376D02*
G03*
X427579Y319938I-8000J0D01*
G01*
X0Y537250D02*
G03*
X-8000Y529250I0J-8000D01*
G01*
Y550750D02*
G03*
X0Y542750I8000J0D01*
G01*
Y537250D02*
G03*
X-8000Y529250I0J-8000D01*
G01*
Y550750D02*
G03*
X0Y542750I8000J0D01*
G01*
X32465Y539813D02*
G03*
X32001Y537250I7535J-2688D01*
G01*
X32000Y542500D02*
G03*
X32465Y539813I8000J0D01*
G01*
X-5292Y623750D02*
G03*
X-8000Y617750I5292J-6000D01*
G01*
Y629750D02*
G03*
X-5292Y623750I8000J0D01*
G01*
D02*
G03*
X-8000Y617750I5292J-6000D01*
G01*
Y629750D02*
G03*
X-5292Y623750I8000J0D01*
G01*
X0Y757250D02*
G03*
X-8000Y749250I0J-8000D01*
G01*
X0Y757250D02*
G03*
X-8000Y749250I0J-8000D01*
G01*
X34080Y762506D02*
G03*
X32001Y757250I5920J-5381D01*
G01*
X42500Y767876D02*
G03*
X36580Y765257I0J-8000D01*
G01*
X34080Y762506D02*
G03*
X32001Y757250I5920J-5381D01*
G01*
X32000Y542500D02*
G03*
X32465Y539813I8000J0D01*
G01*
D02*
G03*
X32001Y537250I7535J-2688D01*
G01*
X428000Y416000D02*
G03*
X420000Y424000I-8000J0D01*
G01*
X420000Y436000D02*
G03*
X414000Y430000I0J-6000D01*
G01*
Y430000D02*
G03*
X420000Y424000I5999J-0D01*
G01*
X420000Y436000D02*
G03*
X428000Y444000I0J8000D01*
G01*
Y416000D02*
G03*
X420000Y424000I-8000J0D01*
G01*
X420000Y436000D02*
G03*
X428000Y444000I0J8000D01*
G01*
X427579Y539938D02*
G03*
X428000Y542500I-7579J2562D01*
G01*
Y537375D02*
G03*
X427579Y539938I-8000J0D01*
G01*
D02*
G03*
X428000Y542500I-7579J2562D01*
G01*
Y537375D02*
G03*
X427579Y539938I-8000J0D01*
G01*
X42500Y767876D02*
G03*
X36580Y765257I0J-8000D01*
G01*
X423157Y765533D02*
G03*
X417500Y767876I-5657J-5657D01*
G01*
X428000Y757375D02*
G03*
X425646Y763044I-8000J0D01*
G01*
X420000Y656000D02*
G03*
X414000Y650000I0J-6000D01*
G01*
Y650000D02*
G03*
X420000Y644000I5999J-0D01*
G01*
X428000Y636000D02*
G03*
X420000Y644000I-8000J0D01*
G01*
X428000Y636000D02*
G03*
X420000Y644000I-8000J0D01*
G01*
X423168Y765521D02*
G03*
X417500Y767876I-5668J-5646D01*
G01*
X420000Y656000D02*
G03*
X428000Y664000I0J8000D01*
G01*
X420000Y656000D02*
G03*
X428000Y664000I0J8000D01*
G01*
Y757375D02*
G03*
X425657Y763033I-8000J0D01*
G01*
X433832Y94478D02*
G03*
X439500Y92124I5668J5646D01*
G01*
X437000Y204000D02*
G03*
X429000Y196000I0J-8000D01*
G01*
Y102624D02*
G03*
X431343Y96967I8000J0D01*
G01*
X433843Y94467D02*
G03*
X439500Y92124I5657J5657D01*
G01*
X437000Y204000D02*
G03*
X443000Y210000I0J6000D01*
G01*
Y210000D02*
G03*
X437000Y216000I-5999J0D01*
G01*
X429000Y224000D02*
G03*
X437000Y216000I8000J0D01*
G01*
X814500Y92124D02*
G03*
X820420Y94743I0J8000D01*
G01*
X814500Y92124D02*
G03*
X820420Y94743I0J8000D01*
G01*
X429421Y320062D02*
G03*
X429000Y317500I7579J-2562D01*
G01*
Y322625D02*
G03*
X429421Y320062I8000J0D01*
G01*
D02*
G03*
X429000Y317500I7579J-2562D01*
G01*
Y322625D02*
G03*
X429421Y320062I8000J0D01*
G01*
X437000Y424000D02*
G03*
X429000Y416000I0J-8000D01*
G01*
X437000Y424000D02*
G03*
X443000Y430000I0J6000D01*
G01*
X437000Y424000D02*
G03*
X429000Y416000I0J-8000D01*
G01*
Y444000D02*
G03*
X437000Y436000I8000J0D01*
G01*
X443000Y430000D02*
G03*
X437000Y436000I-5999J0D01*
G01*
X822920Y97494D02*
G03*
X824999Y102750I-5920J5381D01*
G01*
X822920Y97494D02*
G03*
X824999Y102750I-5920J5381D01*
G01*
X865000Y230250D02*
G03*
X862292Y236250I-8000J0D01*
G01*
X857000Y102750D02*
G03*
X865000Y110750I0J8000D01*
G01*
X857000Y102750D02*
G03*
X865000Y110750I0J8000D01*
G01*
Y230250D02*
G03*
X862292Y236250I-8000J0D01*
G01*
Y236250D02*
G03*
X865000Y242250I-5292J6000D01*
G01*
X862292Y236250D02*
G03*
X865000Y242250I-5292J6000D01*
G01*
X824535Y320187D02*
G03*
X824999Y322750I-7535J2688D01*
G01*
X825000Y317500D02*
G03*
X824535Y320187I-8000J0D01*
G01*
D02*
G03*
X824999Y322750I-7535J2688D01*
G01*
X825000Y317500D02*
G03*
X824535Y320187I-8000J0D01*
G01*
X865000Y309250D02*
G03*
X857000Y317250I-8000J0D01*
G01*
X865000Y309250D02*
G03*
X857000Y317250I-8000J0D01*
G01*
Y322750D02*
G03*
X865000Y330750I0J8000D01*
G01*
X857000Y322750D02*
G03*
X865000Y330750I0J8000D01*
G01*
X429421Y540062D02*
G03*
X429000Y537500I7579J-2562D01*
G01*
Y542625D02*
G03*
X429421Y540062I8000J0D01*
G01*
D02*
G03*
X429000Y537500I7579J-2562D01*
G01*
Y542625D02*
G03*
X429421Y540062I8000J0D01*
G01*
X824535Y540187D02*
G03*
X824999Y542750I-7535J2688D01*
G01*
X437000Y644000D02*
G03*
X429000Y636000I0J-8000D01*
G01*
X437000Y644000D02*
G03*
X443000Y650000I0J6000D01*
G01*
Y650001D02*
G03*
X437000Y656000I-5999J0D01*
G01*
X437000Y644000D02*
G03*
X429000Y636000I0J-8000D01*
G01*
Y664000D02*
G03*
X437000Y656000I8000J0D01*
G01*
X431343Y763157D02*
G03*
X429000Y757500I5657J-5657D01*
G01*
X439500Y768000D02*
G03*
X433832Y765646I0J-8000D01*
G01*
X431354Y763168D02*
G03*
X429000Y757500I5646J-5668D01*
G01*
X439500Y768000D02*
G03*
X433843Y765657I0J-8000D01*
G01*
X443000Y650000D02*
G03*
X443000Y650001I-5999J0D01*
G01*
X820157Y765657D02*
G03*
X814500Y768000I-5657J-5657D01*
G01*
X820168Y765646D02*
G03*
X814500Y768000I-5668J-5646D01*
G01*
X825000Y757500D02*
G03*
X822646Y763168I-8000J0D01*
G01*
X825000Y757500D02*
G03*
X822657Y763157I-8000J0D01*
G01*
X824535Y540187D02*
G03*
X824999Y542750I-7535J2688D01*
G01*
X825000Y537500D02*
G03*
X824535Y540187I-8000J0D01*
G01*
X825000Y537500D02*
G03*
X824535Y540187I-8000J0D01*
G01*
X865000Y450250D02*
G03*
X862292Y456250I-8000J0D01*
G01*
Y456250D02*
G03*
X865000Y462250I-5292J6000D01*
G01*
Y450250D02*
G03*
X862292Y456250I-8000J0D01*
G01*
Y456250D02*
G03*
X865000Y462250I-5292J6000D01*
G01*
Y529250D02*
G03*
X857000Y537250I-8000J0D01*
G01*
X865000Y529250D02*
G03*
X857000Y537250I-8000J0D01*
G01*
Y542750D02*
G03*
X865000Y550750I0J8000D01*
G01*
X857000Y542750D02*
G03*
X865000Y550750I0J8000D01*
G01*
Y670250D02*
G03*
X862292Y676250I-8000J0D01*
G01*
X865000Y670250D02*
G03*
X862292Y676250I-8000J0D01*
G01*
Y676250D02*
G03*
X865000Y682250I-5292J6000D01*
G01*
Y749250D02*
G03*
X857000Y757250I-8000J0D01*
G01*
X862292Y676250D02*
G03*
X865000Y682250I-5292J6000D01*
G01*
Y749250D02*
G03*
X857000Y757250I-8000J0D01*
G01*
X0Y102750D02*
X32000D01*
Y102500D02*
Y102750D01*
X36832Y94354D02*
X36843Y94343D01*
X34354Y96832D02*
X36832Y94354D01*
X34343Y96843D02*
X34354Y96832D01*
X0Y317250D02*
X32001D01*
X0Y322750D02*
X32000D01*
Y322500D02*
Y322750D01*
X423157Y94343D02*
X423168Y94354D01*
X425646Y96832D01*
X425657Y96843D01*
X428000Y102500D02*
Y196000D01*
X429000Y102624D02*
Y196000D01*
X428000Y224000D02*
Y317376D01*
Y322500D02*
Y416000D01*
X0Y542750D02*
X32000D01*
X0Y537250D02*
X32001D01*
X32000Y542500D02*
Y542750D01*
X0Y757250D02*
X32001D01*
X34080Y762506D02*
X36580Y765257D01*
X428000Y444000D02*
Y537375D01*
Y542500D02*
Y636000D01*
X425646Y763044D02*
X425657Y763033D01*
X423168Y765521D02*
X425646Y763044D01*
X423157Y765533D02*
X423168Y765521D01*
X428000Y664000D02*
Y757375D01*
X433832Y94478D02*
X433843Y94467D01*
X431354Y96956D02*
X433832Y94478D01*
X431343Y96967D02*
X431354Y96956D01*
X429000Y224000D02*
Y317500D01*
Y322625D02*
Y416000D01*
Y444000D02*
Y537500D01*
X820420Y94743D02*
X822920Y97494D01*
X824999Y102750D02*
X857000D01*
X825000Y317250D02*
X857000D01*
X824999Y322750D02*
X857000D01*
X825000Y317250D02*
Y317500D01*
Y537250D02*
Y537500D01*
X429000Y542625D02*
Y636000D01*
Y664000D02*
Y757500D01*
X431343Y763157D02*
X431354Y763168D01*
X433832Y765646D01*
X433843Y765657D01*
X822646Y763168D02*
X822657Y763157D01*
X820168Y765646D02*
X822646Y763168D01*
X820157Y765657D02*
X820168Y765646D01*
X825000Y537250D02*
X857000D01*
X824999Y542750D02*
X857000D01*
X825000Y757250D02*
Y757500D01*
Y757250D02*
X857000D01*
D113*
X414000Y210000D02*
D03*
X420000Y204000D02*
D03*
X414000Y210000D02*
D03*
X420000Y204000D02*
D03*
X414000Y430000D02*
D03*
X420000Y424000D02*
D03*
X414000Y430000D02*
D03*
X420000Y424000D02*
D03*
X414000Y650000D02*
D03*
Y650000D02*
D03*
X420000Y644000D02*
D03*
D03*
X437000Y216000D02*
D03*
D03*
X443000Y210000D02*
D03*
D03*
Y210000D02*
D03*
X437000Y436000D02*
D03*
D03*
X443000Y430000D02*
D03*
D03*
Y430000D02*
D03*
X437000Y656000D02*
D03*
X443000Y650000D02*
D03*
X437000Y656000D02*
D03*
X443000Y650000D02*
D03*
M02*
