G04*
G04 #@! TF.GenerationSoftware,Altium Limited,Altium Designer,21.1.1 (26)*
G04*
G04 Layer_Color=65535*
%FSLAX44Y44*%
%MOMM*%
G71*
G04*
G04 #@! TF.SameCoordinates,63B2E272-0427-4AAB-BE5C-BBC369205028*
G04*
G04*
G04 #@! TF.FilePolarity,Positive*
G04*
G01*
G75*
%ADD14C,0.2000*%
%ADD27C,0.1500*%
%ADD36C,0.2500*%
%ADD74C,0.2540*%
G36*
X514746Y852760D02*
Y852342D01*
Y851925D01*
Y851507D01*
Y851089D01*
Y850671D01*
Y850253D01*
Y849835D01*
X508059D01*
Y849417D01*
Y848999D01*
Y848581D01*
Y848163D01*
Y847745D01*
Y847327D01*
Y846909D01*
Y846492D01*
X504716D01*
Y846909D01*
Y847327D01*
Y847745D01*
Y848163D01*
Y848581D01*
Y848999D01*
Y849417D01*
Y849835D01*
Y850253D01*
Y850671D01*
Y851089D01*
Y851507D01*
Y851925D01*
Y852342D01*
Y852760D01*
Y853178D01*
X514746D01*
Y852760D01*
D02*
G37*
G36*
X491343D02*
Y852342D01*
Y851925D01*
Y851507D01*
Y851089D01*
Y850671D01*
Y850253D01*
Y849835D01*
Y849417D01*
Y848999D01*
Y848581D01*
Y848163D01*
Y847745D01*
Y847327D01*
Y846909D01*
Y846492D01*
X487999D01*
Y846909D01*
Y847327D01*
Y847745D01*
Y848163D01*
Y848581D01*
Y848999D01*
Y849417D01*
Y849835D01*
X484656D01*
Y850253D01*
Y850671D01*
Y851089D01*
Y851507D01*
Y851925D01*
Y852342D01*
Y852760D01*
Y853178D01*
X491343D01*
Y852760D01*
D02*
G37*
G36*
X514746Y846074D02*
Y845656D01*
Y845238D01*
Y844820D01*
Y844402D01*
Y843984D01*
Y843566D01*
Y843148D01*
X511402D01*
Y843566D01*
Y843984D01*
Y844402D01*
Y844820D01*
Y845238D01*
Y845656D01*
Y846074D01*
Y846492D01*
X514746D01*
Y846074D01*
D02*
G37*
G36*
X494686Y842730D02*
Y842312D01*
Y841895D01*
Y841477D01*
Y841059D01*
Y840641D01*
Y840223D01*
Y839805D01*
X491343D01*
Y840223D01*
Y840641D01*
Y841059D01*
Y841477D01*
Y841895D01*
Y842312D01*
Y842730D01*
Y843148D01*
X494686D01*
Y842730D01*
D02*
G37*
G36*
X514746Y839387D02*
Y838969D01*
Y838551D01*
Y838133D01*
Y837715D01*
Y837298D01*
Y836880D01*
Y836462D01*
X511402D01*
Y836880D01*
Y837298D01*
Y837715D01*
Y838133D01*
Y838551D01*
Y838969D01*
Y839387D01*
Y839805D01*
X514746D01*
Y839387D01*
D02*
G37*
G36*
X501372Y849417D02*
Y848999D01*
Y848581D01*
Y848163D01*
Y847745D01*
Y847327D01*
Y846909D01*
Y846492D01*
Y846074D01*
Y845656D01*
Y845238D01*
Y844820D01*
Y844402D01*
Y843984D01*
Y843566D01*
Y843148D01*
X504716D01*
Y842730D01*
Y842312D01*
Y841895D01*
Y841477D01*
Y841059D01*
Y840641D01*
Y840223D01*
Y839805D01*
Y839387D01*
Y838969D01*
Y838551D01*
Y838133D01*
Y837715D01*
Y837298D01*
Y836880D01*
Y836462D01*
X501372D01*
Y836880D01*
Y837298D01*
Y837715D01*
Y838133D01*
Y838551D01*
Y838969D01*
Y839387D01*
Y839805D01*
X498029D01*
Y840223D01*
Y840641D01*
Y841059D01*
Y841477D01*
Y841895D01*
Y842312D01*
Y842730D01*
Y843148D01*
Y843566D01*
Y843984D01*
Y844402D01*
Y844820D01*
Y845238D01*
Y845656D01*
Y846074D01*
Y846492D01*
Y846909D01*
Y847327D01*
Y847745D01*
Y848163D01*
Y848581D01*
Y848999D01*
Y849417D01*
Y849835D01*
X501372D01*
Y849417D01*
D02*
G37*
G36*
X280343Y835441D02*
X277880D01*
Y837719D01*
X280343D01*
Y835441D01*
D02*
G37*
G36*
X223497Y837941D02*
X223701Y837923D01*
X223941Y837904D01*
X224200Y837886D01*
X224478Y837830D01*
X225071Y837719D01*
X225682Y837534D01*
X225996Y837423D01*
X226293Y837293D01*
X226570Y837145D01*
X226830Y836960D01*
X226848Y836941D01*
X226885Y836923D01*
X226959Y836849D01*
X227052Y836775D01*
X227163Y836682D01*
X227274Y836552D01*
X227404Y836404D01*
X227552Y836237D01*
X227700Y836052D01*
X227848Y835849D01*
X227996Y835627D01*
X228126Y835367D01*
X228274Y835108D01*
X228385Y834830D01*
X228496Y834516D01*
X228570Y834201D01*
X225996Y833719D01*
Y833738D01*
X225978Y833756D01*
X225941Y833867D01*
X225867Y834034D01*
X225756Y834256D01*
X225626Y834497D01*
X225441Y834738D01*
X225219Y834978D01*
X224960Y835201D01*
X224923Y835219D01*
X224830Y835293D01*
X224663Y835386D01*
X224460Y835478D01*
X224182Y835590D01*
X223867Y835664D01*
X223515Y835738D01*
X223108Y835756D01*
X222941D01*
X222830Y835738D01*
X222682Y835719D01*
X222515Y835701D01*
X222330Y835664D01*
X222127Y835627D01*
X221701Y835497D01*
X221479Y835404D01*
X221256Y835293D01*
X221034Y835164D01*
X220812Y835034D01*
X220608Y834849D01*
X220404Y834664D01*
X220386Y834645D01*
X220368Y834608D01*
X220312Y834553D01*
X220256Y834460D01*
X220182Y834349D01*
X220090Y834219D01*
X219997Y834053D01*
X219923Y833867D01*
X219830Y833645D01*
X219738Y833404D01*
X219645Y833145D01*
X219571Y832868D01*
X219516Y832553D01*
X219460Y832201D01*
X219442Y831849D01*
X219423Y831460D01*
Y831442D01*
Y831368D01*
Y831238D01*
X219442Y831090D01*
X219460Y830886D01*
X219479Y830683D01*
X219516Y830423D01*
X219553Y830164D01*
X219664Y829609D01*
X219849Y829035D01*
X219960Y828757D01*
X220090Y828498D01*
X220256Y828238D01*
X220423Y828016D01*
X220441Y827998D01*
X220479Y827961D01*
X220534Y827905D01*
X220608Y827831D01*
X220719Y827757D01*
X220830Y827646D01*
X220979Y827553D01*
X221145Y827442D01*
X221330Y827331D01*
X221516Y827238D01*
X221978Y827053D01*
X222238Y826979D01*
X222497Y826924D01*
X222793Y826887D01*
X223089Y826868D01*
X223238D01*
X223386Y826887D01*
X223608Y826905D01*
X223849Y826942D01*
X224126Y826998D01*
X224423Y827072D01*
X224719Y827183D01*
X224737D01*
X224756Y827201D01*
X224848Y827238D01*
X225015Y827312D01*
X225200Y827405D01*
X225422Y827516D01*
X225663Y827646D01*
X225904Y827794D01*
X226126Y827961D01*
Y829609D01*
X223164D01*
Y831775D01*
X228737D01*
Y826627D01*
X228700Y826590D01*
X228644Y826553D01*
X228589Y826498D01*
X228496Y826424D01*
X228404Y826350D01*
X228144Y826164D01*
X227793Y825961D01*
X227385Y825720D01*
X226922Y825479D01*
X226367Y825257D01*
X226348D01*
X226293Y825239D01*
X226219Y825202D01*
X226108Y825165D01*
X225959Y825128D01*
X225793Y825072D01*
X225608Y825016D01*
X225404Y824961D01*
X224941Y824850D01*
X224404Y824757D01*
X223849Y824683D01*
X223256Y824665D01*
X223052D01*
X222923Y824683D01*
X222738D01*
X222534Y824702D01*
X222312Y824739D01*
X222052Y824776D01*
X221516Y824868D01*
X220923Y825016D01*
X220312Y825220D01*
X220034Y825350D01*
X219738Y825498D01*
X219719Y825516D01*
X219682Y825535D01*
X219590Y825591D01*
X219497Y825665D01*
X219368Y825739D01*
X219238Y825850D01*
X219071Y825979D01*
X218905Y826127D01*
X218534Y826461D01*
X218164Y826887D01*
X217812Y827368D01*
X217497Y827924D01*
Y827942D01*
X217460Y827998D01*
X217423Y828090D01*
X217386Y828201D01*
X217331Y828350D01*
X217257Y828516D01*
X217201Y828720D01*
X217127Y828942D01*
X217053Y829183D01*
X216998Y829461D01*
X216868Y830034D01*
X216794Y830664D01*
X216757Y831349D01*
Y831368D01*
Y831442D01*
Y831553D01*
X216775Y831683D01*
Y831868D01*
X216794Y832071D01*
X216831Y832293D01*
X216868Y832553D01*
X216960Y833090D01*
X217109Y833701D01*
X217312Y834312D01*
X217442Y834608D01*
X217590Y834904D01*
X217609Y834923D01*
X217627Y834978D01*
X217683Y835052D01*
X217738Y835164D01*
X217831Y835293D01*
X217942Y835441D01*
X218071Y835608D01*
X218201Y835793D01*
X218368Y835978D01*
X218553Y836182D01*
X218757Y836386D01*
X218979Y836589D01*
X219219Y836775D01*
X219460Y836978D01*
X220034Y837311D01*
X220053D01*
X220090Y837348D01*
X220164Y837367D01*
X220256Y837423D01*
X220386Y837460D01*
X220516Y837515D01*
X220701Y837571D01*
X220886Y837645D01*
X221090Y837700D01*
X221330Y837756D01*
X221590Y837812D01*
X221849Y837867D01*
X222441Y837941D01*
X223108Y837960D01*
X223330D01*
X223497Y837941D01*
D02*
G37*
G36*
X383962Y824905D02*
X381684D01*
Y826257D01*
X381666Y826220D01*
X381591Y826127D01*
X381462Y825979D01*
X381295Y825813D01*
X381110Y825628D01*
X380869Y825424D01*
X380610Y825239D01*
X380332Y825072D01*
X380295Y825053D01*
X380203Y825016D01*
X380036Y824961D01*
X379851Y824887D01*
X379610Y824813D01*
X379333Y824757D01*
X379055Y824720D01*
X378759Y824702D01*
X378610D01*
X378499Y824720D01*
X378351Y824739D01*
X378203Y824776D01*
X378018Y824813D01*
X377814Y824868D01*
X377610Y824924D01*
X377388Y825016D01*
X377166Y825109D01*
X376925Y825239D01*
X376703Y825387D01*
X376462Y825554D01*
X376240Y825757D01*
X376018Y825979D01*
X375999Y825998D01*
X375962Y826035D01*
X375907Y826109D01*
X375851Y826220D01*
X375759Y826350D01*
X375666Y826516D01*
X375555Y826702D01*
X375462Y826924D01*
X375351Y827164D01*
X375240Y827424D01*
X375148Y827720D01*
X375074Y828035D01*
X375000Y828387D01*
X374944Y828757D01*
X374907Y829146D01*
X374888Y829572D01*
Y829590D01*
Y829683D01*
Y829794D01*
X374907Y829960D01*
X374925Y830164D01*
X374944Y830386D01*
X374981Y830646D01*
X375018Y830905D01*
X375148Y831497D01*
X375240Y831794D01*
X375351Y832090D01*
X375481Y832386D01*
X375629Y832664D01*
X375796Y832923D01*
X375981Y833164D01*
X375999Y833182D01*
X376036Y833219D01*
X376092Y833275D01*
X376185Y833367D01*
X376296Y833460D01*
X376425Y833553D01*
X376573Y833664D01*
X376759Y833793D01*
X376944Y833904D01*
X377166Y834016D01*
X377629Y834219D01*
X377907Y834293D01*
X378185Y834349D01*
X378481Y834386D01*
X378796Y834404D01*
X378944D01*
X379055Y834386D01*
X379184Y834367D01*
X379351Y834330D01*
X379518Y834293D01*
X379721Y834238D01*
X379925Y834182D01*
X380147Y834090D01*
X380369Y833979D01*
X380592Y833867D01*
X380832Y833701D01*
X381054Y833534D01*
X381277Y833331D01*
X381499Y833108D01*
Y837719D01*
X383962D01*
Y824905D01*
D02*
G37*
G36*
X308358Y834386D02*
X308562Y834349D01*
X308821Y834293D01*
X309099Y834201D01*
X309377Y834090D01*
X309673Y833923D01*
X308895Y831794D01*
X308877Y831812D01*
X308784Y831849D01*
X308673Y831923D01*
X308525Y831997D01*
X308340Y832071D01*
X308155Y832145D01*
X307951Y832182D01*
X307747Y832201D01*
X307673D01*
X307562Y832182D01*
X307451Y832164D01*
X307321Y832127D01*
X307173Y832071D01*
X307025Y831997D01*
X306877Y831905D01*
X306859Y831886D01*
X306821Y831849D01*
X306747Y831775D01*
X306673Y831664D01*
X306581Y831534D01*
X306488Y831349D01*
X306396Y831127D01*
X306322Y830868D01*
Y830831D01*
X306303Y830775D01*
X306285Y830720D01*
Y830627D01*
X306266Y830516D01*
X306248Y830368D01*
X306229Y830201D01*
X306210Y830016D01*
X306192Y829775D01*
X306173Y829535D01*
Y829238D01*
X306155Y828923D01*
X306136Y828572D01*
Y828183D01*
Y827757D01*
Y824905D01*
X303674D01*
Y834201D01*
X305951D01*
Y832886D01*
X305970Y832905D01*
X306044Y833016D01*
X306155Y833182D01*
X306303Y833386D01*
X306451Y833590D01*
X306636Y833793D01*
X306803Y833979D01*
X306988Y834108D01*
X307007Y834127D01*
X307062Y834164D01*
X307173Y834201D01*
X307303Y834256D01*
X307451Y834312D01*
X307636Y834367D01*
X307821Y834386D01*
X308044Y834404D01*
X308192D01*
X308358Y834386D01*
D02*
G37*
G36*
X275510D02*
X275714Y834349D01*
X275973Y834293D01*
X276251Y834201D01*
X276528Y834090D01*
X276825Y833923D01*
X276047Y831794D01*
X276028Y831812D01*
X275936Y831849D01*
X275825Y831923D01*
X275677Y831997D01*
X275491Y832071D01*
X275306Y832145D01*
X275103Y832182D01*
X274899Y832201D01*
X274825D01*
X274714Y832182D01*
X274603Y832164D01*
X274473Y832127D01*
X274325Y832071D01*
X274177Y831997D01*
X274029Y831905D01*
X274010Y831886D01*
X273973Y831849D01*
X273899Y831775D01*
X273825Y831664D01*
X273732Y831534D01*
X273640Y831349D01*
X273547Y831127D01*
X273473Y830868D01*
Y830831D01*
X273455Y830775D01*
X273436Y830720D01*
Y830627D01*
X273417Y830516D01*
X273399Y830368D01*
X273381Y830201D01*
X273362Y830016D01*
X273344Y829775D01*
X273325Y829535D01*
Y829238D01*
X273306Y828923D01*
X273288Y828572D01*
Y828183D01*
Y827757D01*
Y824905D01*
X270825D01*
Y834201D01*
X273103D01*
Y832886D01*
X273121Y832905D01*
X273195Y833016D01*
X273306Y833182D01*
X273455Y833386D01*
X273603Y833590D01*
X273788Y833793D01*
X273955Y833979D01*
X274140Y834108D01*
X274158Y834127D01*
X274214Y834164D01*
X274325Y834201D01*
X274454Y834256D01*
X274603Y834312D01*
X274788Y834367D01*
X274973Y834386D01*
X275195Y834404D01*
X275343D01*
X275510Y834386D01*
D02*
G37*
G36*
X288268D02*
X288398Y834367D01*
X288564Y834330D01*
X288749Y834293D01*
X288934Y834238D01*
X289157Y834182D01*
X289360Y834090D01*
X289601Y833997D01*
X289823Y833867D01*
X290064Y833719D01*
X290286Y833553D01*
X290508Y833349D01*
X290731Y833127D01*
X290749Y833108D01*
X290786Y833071D01*
X290842Y832997D01*
X290916Y832886D01*
X290990Y832775D01*
X291082Y832608D01*
X291194Y832423D01*
X291305Y832219D01*
X291397Y831979D01*
X291508Y831720D01*
X291601Y831423D01*
X291693Y831108D01*
X291749Y830757D01*
X291805Y830405D01*
X291842Y829997D01*
X291860Y829590D01*
Y829572D01*
Y829498D01*
Y829368D01*
X291842Y829201D01*
X291823Y829016D01*
X291805Y828794D01*
X291768Y828535D01*
X291712Y828275D01*
X291582Y827683D01*
X291490Y827387D01*
X291379Y827090D01*
X291249Y826794D01*
X291082Y826516D01*
X290916Y826239D01*
X290712Y825979D01*
X290693Y825961D01*
X290657Y825924D01*
X290601Y825868D01*
X290508Y825776D01*
X290397Y825683D01*
X290268Y825572D01*
X290119Y825461D01*
X289953Y825350D01*
X289749Y825220D01*
X289545Y825109D01*
X289083Y824905D01*
X288823Y824813D01*
X288546Y824757D01*
X288268Y824720D01*
X287972Y824702D01*
X287842D01*
X287694Y824720D01*
X287509Y824739D01*
X287286Y824776D01*
X287046Y824831D01*
X286805Y824905D01*
X286564Y824998D01*
X286546Y825016D01*
X286453Y825053D01*
X286342Y825146D01*
X286175Y825257D01*
X285972Y825387D01*
X285768Y825572D01*
X285527Y825794D01*
X285268Y826053D01*
Y821350D01*
X282806D01*
Y834201D01*
X285102D01*
Y832831D01*
X285120Y832868D01*
X285176Y832942D01*
X285287Y833071D01*
X285416Y833238D01*
X285583Y833423D01*
X285805Y833608D01*
X286027Y833793D01*
X286305Y833960D01*
X286342Y833979D01*
X286435Y834034D01*
X286601Y834108D01*
X286805Y834182D01*
X287046Y834256D01*
X287342Y834330D01*
X287657Y834386D01*
X287990Y834404D01*
X288138D01*
X288268Y834386D01*
D02*
G37*
G36*
X541492Y852760D02*
Y852342D01*
Y851925D01*
Y851507D01*
Y851089D01*
Y850671D01*
Y850253D01*
Y849835D01*
Y849417D01*
Y848999D01*
Y848581D01*
Y848163D01*
Y847745D01*
Y847327D01*
Y846909D01*
Y846492D01*
Y846074D01*
Y845656D01*
Y845238D01*
Y844820D01*
Y844402D01*
Y843984D01*
Y843566D01*
Y843148D01*
Y842730D01*
Y842312D01*
Y841895D01*
Y841477D01*
Y841059D01*
Y840641D01*
Y840223D01*
Y839805D01*
Y839387D01*
Y838969D01*
Y838551D01*
Y838133D01*
Y837715D01*
Y837298D01*
Y836880D01*
Y836462D01*
Y836044D01*
Y835626D01*
Y835208D01*
Y834790D01*
Y834372D01*
Y833954D01*
Y833536D01*
Y833118D01*
Y832701D01*
Y832283D01*
Y831865D01*
Y831447D01*
Y831029D01*
Y830611D01*
Y830193D01*
Y829775D01*
X518089D01*
Y830193D01*
Y830611D01*
Y831029D01*
Y831447D01*
Y831865D01*
Y832283D01*
Y832701D01*
Y833118D01*
Y833536D01*
Y833954D01*
Y834372D01*
Y834790D01*
Y835208D01*
Y835626D01*
Y836044D01*
Y836462D01*
Y836880D01*
Y837298D01*
Y837715D01*
Y838133D01*
Y838551D01*
Y838969D01*
Y839387D01*
Y839805D01*
Y840223D01*
Y840641D01*
Y841059D01*
Y841477D01*
Y841895D01*
Y842312D01*
Y842730D01*
Y843148D01*
Y843566D01*
Y843984D01*
Y844402D01*
Y844820D01*
Y845238D01*
Y845656D01*
Y846074D01*
Y846492D01*
Y846909D01*
Y847327D01*
Y847745D01*
Y848163D01*
Y848581D01*
Y848999D01*
Y849417D01*
Y849835D01*
Y850253D01*
Y850671D01*
Y851089D01*
Y851507D01*
Y851925D01*
Y852342D01*
Y852760D01*
Y853178D01*
X541492D01*
Y852760D01*
D02*
G37*
G36*
X508059Y832701D02*
Y832283D01*
Y831865D01*
Y831447D01*
Y831029D01*
Y830611D01*
Y830193D01*
Y829775D01*
X504716D01*
Y830193D01*
Y830611D01*
Y831029D01*
Y831447D01*
Y831865D01*
Y832283D01*
Y832701D01*
Y833118D01*
X508059D01*
Y832701D01*
D02*
G37*
G36*
X481312Y852760D02*
Y852342D01*
Y851925D01*
Y851507D01*
Y851089D01*
Y850671D01*
Y850253D01*
Y849835D01*
Y849417D01*
Y848999D01*
Y848581D01*
Y848163D01*
Y847745D01*
Y847327D01*
Y846909D01*
Y846492D01*
Y846074D01*
Y845656D01*
Y845238D01*
Y844820D01*
Y844402D01*
Y843984D01*
Y843566D01*
Y843148D01*
Y842730D01*
Y842312D01*
Y841895D01*
Y841477D01*
Y841059D01*
Y840641D01*
Y840223D01*
Y839805D01*
Y839387D01*
Y838969D01*
Y838551D01*
Y838133D01*
Y837715D01*
Y837298D01*
Y836880D01*
Y836462D01*
Y836044D01*
Y835626D01*
Y835208D01*
Y834790D01*
Y834372D01*
Y833954D01*
Y833536D01*
Y833118D01*
Y832701D01*
Y832283D01*
Y831865D01*
Y831447D01*
Y831029D01*
Y830611D01*
Y830193D01*
Y829775D01*
X457909D01*
Y830193D01*
Y830611D01*
Y831029D01*
Y831447D01*
Y831865D01*
Y832283D01*
Y832701D01*
Y833118D01*
Y833536D01*
Y833954D01*
Y834372D01*
Y834790D01*
Y835208D01*
Y835626D01*
Y836044D01*
Y836462D01*
Y836880D01*
Y837298D01*
Y837715D01*
Y838133D01*
Y838551D01*
Y838969D01*
Y839387D01*
Y839805D01*
Y840223D01*
Y840641D01*
Y841059D01*
Y841477D01*
Y841895D01*
Y842312D01*
Y842730D01*
Y843148D01*
Y843566D01*
Y843984D01*
Y844402D01*
Y844820D01*
Y845238D01*
Y845656D01*
Y846074D01*
Y846492D01*
Y846909D01*
Y847327D01*
Y847745D01*
Y848163D01*
Y848581D01*
Y848999D01*
Y849417D01*
Y849835D01*
Y850253D01*
Y850671D01*
Y851089D01*
Y851507D01*
Y851925D01*
Y852342D01*
Y852760D01*
Y853178D01*
X481312D01*
Y852760D01*
D02*
G37*
G36*
X369500Y834386D02*
X369648D01*
X370019Y834349D01*
X370407Y834312D01*
X370815Y834238D01*
X371204Y834127D01*
X371370Y834071D01*
X371537Y833997D01*
X371555D01*
X371574Y833979D01*
X371667Y833923D01*
X371815Y833849D01*
X371981Y833738D01*
X372185Y833590D01*
X372370Y833423D01*
X372537Y833219D01*
X372685Y833016D01*
X372704Y832979D01*
X372741Y832905D01*
X372796Y832738D01*
X372815Y832645D01*
X372852Y832516D01*
X372889Y832386D01*
X372907Y832219D01*
X372944Y832034D01*
X372963Y831831D01*
X372981Y831608D01*
X373000Y831368D01*
X373018Y831108D01*
Y830812D01*
X372981Y827942D01*
Y827924D01*
Y827887D01*
Y827831D01*
Y827738D01*
Y827516D01*
X373000Y827257D01*
Y826961D01*
X373037Y826665D01*
X373055Y826368D01*
X373092Y826127D01*
Y826109D01*
X373111Y826035D01*
X373148Y825905D01*
X373185Y825757D01*
X373259Y825572D01*
X373333Y825368D01*
X373426Y825146D01*
X373537Y824905D01*
X371111D01*
Y824924D01*
X371093Y824942D01*
X371074Y825016D01*
X371037Y825091D01*
X371000Y825183D01*
X370963Y825313D01*
X370926Y825461D01*
X370870Y825628D01*
Y825646D01*
X370852Y825665D01*
X370833Y825739D01*
X370796Y825831D01*
X370778Y825905D01*
X370741Y825887D01*
X370667Y825813D01*
X370537Y825702D01*
X370370Y825572D01*
X370167Y825424D01*
X369945Y825257D01*
X369685Y825128D01*
X369426Y824998D01*
X369389Y824979D01*
X369296Y824961D01*
X369148Y824905D01*
X368963Y824850D01*
X368741Y824794D01*
X368482Y824757D01*
X368186Y824720D01*
X367889Y824702D01*
X367760D01*
X367649Y824720D01*
X367537D01*
X367389Y824739D01*
X367075Y824794D01*
X366704Y824887D01*
X366334Y825016D01*
X365964Y825202D01*
X365630Y825461D01*
Y825479D01*
X365593Y825498D01*
X365501Y825609D01*
X365371Y825776D01*
X365223Y825998D01*
X365075Y826276D01*
X364945Y826609D01*
X364852Y826998D01*
X364834Y827202D01*
X364815Y827424D01*
Y827461D01*
Y827553D01*
X364834Y827701D01*
X364871Y827887D01*
X364908Y828109D01*
X364964Y828331D01*
X365056Y828572D01*
X365186Y828812D01*
X365204Y828849D01*
X365260Y828923D01*
X365334Y829035D01*
X365464Y829164D01*
X365593Y829312D01*
X365778Y829479D01*
X365982Y829627D01*
X366223Y829757D01*
X366260Y829775D01*
X366352Y829812D01*
X366501Y829868D01*
X366723Y829960D01*
X367000Y830053D01*
X367334Y830146D01*
X367741Y830238D01*
X368186Y830331D01*
X368204D01*
X368260Y830349D01*
X368352Y830368D01*
X368463Y830386D01*
X368611Y830405D01*
X368778Y830442D01*
X369148Y830535D01*
X369537Y830627D01*
X369945Y830720D01*
X370296Y830831D01*
X370463Y830886D01*
X370593Y830942D01*
Y831182D01*
Y831220D01*
Y831294D01*
X370574Y831423D01*
X370556Y831590D01*
X370500Y831757D01*
X370444Y831923D01*
X370352Y832071D01*
X370222Y832201D01*
X370204Y832219D01*
X370148Y832256D01*
X370056Y832293D01*
X369926Y832368D01*
X369741Y832423D01*
X369519Y832460D01*
X369241Y832497D01*
X368908Y832516D01*
X368797D01*
X368685Y832497D01*
X368537Y832479D01*
X368371Y832442D01*
X368186Y832405D01*
X368019Y832331D01*
X367871Y832238D01*
X367852Y832219D01*
X367815Y832182D01*
X367741Y832127D01*
X367667Y832034D01*
X367556Y831905D01*
X367463Y831738D01*
X367371Y831553D01*
X367278Y831331D01*
X365075Y831738D01*
Y831757D01*
X365093Y831794D01*
X365112Y831868D01*
X365149Y831960D01*
X365186Y832071D01*
X365241Y832201D01*
X365371Y832497D01*
X365556Y832812D01*
X365778Y833145D01*
X366038Y833460D01*
X366352Y833738D01*
X366371D01*
X366389Y833775D01*
X366445Y833793D01*
X366519Y833849D01*
X366630Y833886D01*
X366741Y833941D01*
X366889Y834016D01*
X367038Y834071D01*
X367223Y834127D01*
X367426Y834201D01*
X367649Y834256D01*
X367908Y834293D01*
X368167Y834349D01*
X368463Y834367D01*
X368759Y834404D01*
X369371D01*
X369500Y834386D01*
D02*
G37*
G36*
X347595Y837700D02*
X347965Y837682D01*
X348336Y837663D01*
X348688Y837626D01*
X349002Y837589D01*
X349039D01*
X349132Y837571D01*
X349262Y837534D01*
X349447Y837478D01*
X349650Y837404D01*
X349873Y837311D01*
X350113Y837200D01*
X350336Y837052D01*
X350354Y837034D01*
X350428Y836978D01*
X350539Y836886D01*
X350687Y836775D01*
X350835Y836608D01*
X351002Y836423D01*
X351169Y836219D01*
X351317Y835978D01*
X351335Y835941D01*
X351372Y835867D01*
X351446Y835719D01*
X351521Y835534D01*
X351595Y835312D01*
X351669Y835071D01*
X351706Y834775D01*
X351724Y834479D01*
Y834460D01*
Y834442D01*
Y834330D01*
X351706Y834164D01*
X351669Y833941D01*
X351595Y833682D01*
X351521Y833404D01*
X351391Y833127D01*
X351224Y832831D01*
X351206Y832794D01*
X351132Y832701D01*
X351021Y832571D01*
X350891Y832405D01*
X350706Y832238D01*
X350484Y832034D01*
X350224Y831868D01*
X349928Y831701D01*
X349947D01*
X349984Y831683D01*
X350039Y831664D01*
X350113Y831646D01*
X350336Y831553D01*
X350595Y831423D01*
X350872Y831275D01*
X351187Y831071D01*
X351465Y830831D01*
X351724Y830535D01*
X351743Y830497D01*
X351817Y830386D01*
X351928Y830220D01*
X352039Y829997D01*
X352150Y829701D01*
X352261Y829386D01*
X352335Y829016D01*
X352354Y828609D01*
Y828590D01*
Y828572D01*
Y828461D01*
X352335Y828294D01*
X352298Y828072D01*
X352261Y827812D01*
X352187Y827516D01*
X352076Y827220D01*
X351946Y826905D01*
X351928Y826868D01*
X351872Y826776D01*
X351780Y826628D01*
X351650Y826442D01*
X351502Y826220D01*
X351298Y826016D01*
X351095Y825794D01*
X350835Y825591D01*
X350798Y825572D01*
X350706Y825517D01*
X350558Y825424D01*
X350354Y825331D01*
X350095Y825220D01*
X349799Y825128D01*
X349465Y825035D01*
X349095Y824979D01*
X349021D01*
X348947Y824961D01*
X348762D01*
X348632Y824942D01*
X348280D01*
X348058Y824924D01*
X347503D01*
X347188Y824905D01*
X341633D01*
Y837719D01*
X347262D01*
X347595Y837700D01*
D02*
G37*
G36*
X334096Y824905D02*
X331634D01*
Y837719D01*
X334096D01*
Y824905D01*
D02*
G37*
G36*
X325708Y834386D02*
X325857D01*
X326227Y834349D01*
X326616Y834312D01*
X327023Y834238D01*
X327412Y834127D01*
X327579Y834071D01*
X327745Y833997D01*
X327764D01*
X327782Y833979D01*
X327875Y833923D01*
X328023Y833849D01*
X328190Y833738D01*
X328393Y833590D01*
X328578Y833423D01*
X328745Y833219D01*
X328893Y833016D01*
X328912Y832979D01*
X328949Y832905D01*
X329004Y832738D01*
X329023Y832645D01*
X329060Y832516D01*
X329097Y832386D01*
X329115Y832219D01*
X329152Y832034D01*
X329171Y831831D01*
X329189Y831608D01*
X329208Y831368D01*
X329227Y831108D01*
Y830812D01*
X329189Y827942D01*
Y827924D01*
Y827887D01*
Y827831D01*
Y827738D01*
Y827516D01*
X329208Y827257D01*
Y826961D01*
X329245Y826665D01*
X329264Y826368D01*
X329301Y826127D01*
Y826109D01*
X329319Y826035D01*
X329356Y825905D01*
X329393Y825757D01*
X329467Y825572D01*
X329541Y825368D01*
X329634Y825146D01*
X329745Y824905D01*
X327319D01*
Y824924D01*
X327301Y824942D01*
X327282Y825016D01*
X327245Y825091D01*
X327208Y825183D01*
X327171Y825313D01*
X327134Y825461D01*
X327079Y825628D01*
Y825646D01*
X327060Y825665D01*
X327042Y825739D01*
X327005Y825831D01*
X326986Y825905D01*
X326949Y825887D01*
X326875Y825813D01*
X326745Y825702D01*
X326579Y825572D01*
X326375Y825424D01*
X326153Y825257D01*
X325894Y825128D01*
X325634Y824998D01*
X325597Y824979D01*
X325505Y824961D01*
X325357Y824905D01*
X325171Y824850D01*
X324949Y824794D01*
X324690Y824757D01*
X324394Y824720D01*
X324098Y824702D01*
X323968D01*
X323857Y824720D01*
X323746D01*
X323597Y824739D01*
X323283Y824794D01*
X322912Y824887D01*
X322542Y825016D01*
X322172Y825202D01*
X321838Y825461D01*
Y825479D01*
X321801Y825498D01*
X321709Y825609D01*
X321579Y825776D01*
X321431Y825998D01*
X321283Y826276D01*
X321153Y826609D01*
X321061Y826998D01*
X321042Y827202D01*
X321024Y827424D01*
Y827461D01*
Y827553D01*
X321042Y827701D01*
X321079Y827887D01*
X321116Y828109D01*
X321172Y828331D01*
X321264Y828572D01*
X321394Y828812D01*
X321413Y828849D01*
X321468Y828923D01*
X321542Y829035D01*
X321672Y829164D01*
X321801Y829312D01*
X321987Y829479D01*
X322190Y829627D01*
X322431Y829757D01*
X322468Y829775D01*
X322561Y829812D01*
X322709Y829868D01*
X322931Y829960D01*
X323209Y830053D01*
X323542Y830146D01*
X323949Y830238D01*
X324394Y830331D01*
X324412D01*
X324468Y830349D01*
X324560Y830368D01*
X324672Y830386D01*
X324820Y830405D01*
X324986Y830442D01*
X325357Y830535D01*
X325745Y830627D01*
X326153Y830720D01*
X326505Y830831D01*
X326671Y830886D01*
X326801Y830942D01*
Y831182D01*
Y831220D01*
Y831294D01*
X326782Y831423D01*
X326764Y831590D01*
X326708Y831757D01*
X326653Y831923D01*
X326560Y832071D01*
X326431Y832201D01*
X326412Y832219D01*
X326357Y832256D01*
X326264Y832293D01*
X326134Y832368D01*
X325949Y832423D01*
X325727Y832460D01*
X325449Y832497D01*
X325116Y832516D01*
X325005D01*
X324894Y832497D01*
X324746Y832479D01*
X324579Y832442D01*
X324394Y832405D01*
X324227Y832331D01*
X324079Y832238D01*
X324060Y832219D01*
X324023Y832182D01*
X323949Y832127D01*
X323875Y832034D01*
X323764Y831905D01*
X323672Y831738D01*
X323579Y831553D01*
X323486Y831331D01*
X321283Y831738D01*
Y831757D01*
X321301Y831794D01*
X321320Y831868D01*
X321357Y831960D01*
X321394Y832071D01*
X321450Y832201D01*
X321579Y832497D01*
X321764Y832812D01*
X321987Y833145D01*
X322246Y833460D01*
X322561Y833738D01*
X322579D01*
X322598Y833775D01*
X322653Y833793D01*
X322727Y833849D01*
X322838Y833886D01*
X322949Y833941D01*
X323098Y834016D01*
X323246Y834071D01*
X323431Y834127D01*
X323635Y834201D01*
X323857Y834256D01*
X324116Y834293D01*
X324375Y834349D01*
X324672Y834367D01*
X324968Y834404D01*
X325579D01*
X325708Y834386D01*
D02*
G37*
G36*
X313173Y832979D02*
X313191Y832997D01*
X313228Y833034D01*
X313302Y833108D01*
X313376Y833201D01*
X313506Y833312D01*
X313636Y833423D01*
X313802Y833553D01*
X313969Y833701D01*
X314173Y833830D01*
X314395Y833960D01*
X314876Y834182D01*
X315135Y834275D01*
X315413Y834349D01*
X315709Y834386D01*
X316006Y834404D01*
X316154D01*
X316320Y834386D01*
X316524Y834367D01*
X316765Y834330D01*
X317006Y834256D01*
X317283Y834182D01*
X317543Y834071D01*
X317580Y834053D01*
X317654Y834016D01*
X317783Y833941D01*
X317931Y833849D01*
X318098Y833738D01*
X318265Y833608D01*
X318431Y833442D01*
X318580Y833275D01*
X318598Y833256D01*
X318635Y833182D01*
X318691Y833090D01*
X318765Y832960D01*
X318857Y832794D01*
X318931Y832608D01*
X319005Y832405D01*
X319061Y832182D01*
Y832164D01*
X319079Y832071D01*
X319098Y831923D01*
X319135Y831738D01*
X319153Y831479D01*
X319172Y831164D01*
X319191Y830794D01*
Y830349D01*
Y824905D01*
X316728D01*
Y829794D01*
Y829812D01*
Y829849D01*
Y829923D01*
Y830034D01*
Y830146D01*
Y830275D01*
X316709Y830572D01*
X316691Y830886D01*
X316672Y831201D01*
X316635Y831460D01*
X316598Y831553D01*
X316580Y831646D01*
Y831664D01*
X316543Y831720D01*
X316506Y831775D01*
X316469Y831868D01*
X316302Y832071D01*
X316209Y832182D01*
X316080Y832275D01*
X316061Y832293D01*
X316024Y832312D01*
X315932Y832349D01*
X315839Y832405D01*
X315709Y832442D01*
X315561Y832479D01*
X315376Y832497D01*
X315191Y832516D01*
X315080D01*
X314969Y832497D01*
X314821Y832479D01*
X314654Y832442D01*
X314469Y832386D01*
X314284Y832312D01*
X314098Y832201D01*
X314080Y832182D01*
X314024Y832145D01*
X313932Y832071D01*
X313839Y831979D01*
X313710Y831849D01*
X313599Y831701D01*
X313487Y831516D01*
X313395Y831312D01*
Y831294D01*
X313358Y831201D01*
X313321Y831071D01*
X313284Y830868D01*
X313247Y830627D01*
X313210Y830312D01*
X313191Y829960D01*
X313173Y829553D01*
Y824905D01*
X310710D01*
Y837719D01*
X313173D01*
Y832979D01*
D02*
G37*
G36*
X280343Y824905D02*
X277880D01*
Y834201D01*
X280343D01*
Y824905D01*
D02*
G37*
G36*
X253975Y837700D02*
X254457D01*
X254975Y837663D01*
X255494Y837626D01*
X255716Y837608D01*
X255938Y837589D01*
X256123Y837552D01*
X256271Y837515D01*
X256290D01*
X256327Y837497D01*
X256382Y837478D01*
X256456Y837460D01*
X256660Y837367D01*
X256919Y837256D01*
X257197Y837089D01*
X257512Y836867D01*
X257808Y836589D01*
X258104Y836256D01*
Y836238D01*
X258141Y836219D01*
X258178Y836163D01*
X258215Y836089D01*
X258290Y835978D01*
X258345Y835867D01*
X258419Y835738D01*
X258493Y835590D01*
X258623Y835219D01*
X258752Y834812D01*
X258827Y834312D01*
X258864Y833775D01*
Y833756D01*
Y833719D01*
Y833664D01*
Y833571D01*
X258845Y833479D01*
Y833349D01*
X258808Y833090D01*
X258752Y832775D01*
X258678Y832423D01*
X258567Y832090D01*
X258419Y831775D01*
X258401Y831738D01*
X258345Y831646D01*
X258252Y831497D01*
X258123Y831312D01*
X257975Y831127D01*
X257771Y830905D01*
X257567Y830701D01*
X257327Y830516D01*
X257290Y830497D01*
X257215Y830442D01*
X257086Y830368D01*
X256919Y830275D01*
X256716Y830164D01*
X256493Y830071D01*
X256253Y829979D01*
X255993Y829905D01*
X255956D01*
X255901Y829886D01*
X255827D01*
X255734Y829868D01*
X255605Y829849D01*
X255475Y829831D01*
X255308D01*
X255142Y829812D01*
X254938Y829794D01*
X254716Y829775D01*
X254475Y829757D01*
X254216D01*
X253938Y829738D01*
X251642D01*
Y824905D01*
X249050D01*
Y837719D01*
X253771D01*
X253975Y837700D01*
D02*
G37*
G36*
X242680Y824905D02*
X239884D01*
X238773Y827812D01*
X233625D01*
X232570Y824905D01*
X229830D01*
X234792Y837719D01*
X237532D01*
X242680Y824905D01*
D02*
G37*
G36*
X210202Y837700D02*
X210683D01*
X211202Y837663D01*
X211720Y837626D01*
X211942Y837608D01*
X212165Y837589D01*
X212350Y837552D01*
X212498Y837515D01*
X212516D01*
X212554Y837497D01*
X212609Y837478D01*
X212683Y837460D01*
X212887Y837367D01*
X213146Y837256D01*
X213424Y837089D01*
X213738Y836867D01*
X214035Y836589D01*
X214331Y836256D01*
Y836237D01*
X214368Y836219D01*
X214405Y836163D01*
X214442Y836089D01*
X214516Y835978D01*
X214572Y835867D01*
X214646Y835738D01*
X214720Y835590D01*
X214849Y835219D01*
X214979Y834812D01*
X215053Y834312D01*
X215090Y833775D01*
Y833756D01*
Y833719D01*
Y833664D01*
Y833571D01*
X215072Y833479D01*
Y833349D01*
X215035Y833090D01*
X214979Y832775D01*
X214905Y832423D01*
X214794Y832090D01*
X214646Y831775D01*
X214627Y831738D01*
X214572Y831645D01*
X214479Y831497D01*
X214350Y831312D01*
X214202Y831127D01*
X213998Y830905D01*
X213794Y830701D01*
X213553Y830516D01*
X213516Y830497D01*
X213442Y830442D01*
X213313Y830368D01*
X213146Y830275D01*
X212942Y830164D01*
X212720Y830071D01*
X212479Y829979D01*
X212220Y829905D01*
X212183D01*
X212128Y829886D01*
X212054D01*
X211961Y829868D01*
X211831Y829849D01*
X211702Y829831D01*
X211535D01*
X211368Y829812D01*
X211165Y829794D01*
X210942Y829775D01*
X210702Y829757D01*
X210443D01*
X210165Y829738D01*
X207869D01*
Y824905D01*
X205276D01*
Y837719D01*
X209998D01*
X210202Y837700D01*
D02*
G37*
G36*
X203129Y835552D02*
X196926D01*
Y832516D01*
X202277D01*
Y830349D01*
X196926D01*
Y824905D01*
X194333D01*
Y837719D01*
X203129D01*
Y835552D01*
D02*
G37*
G36*
X359094Y834386D02*
X359279Y834367D01*
X359483Y834330D01*
X359723Y834293D01*
X359964Y834238D01*
X360242Y834164D01*
X360520Y834071D01*
X360797Y833960D01*
X361094Y833830D01*
X361390Y833664D01*
X361668Y833479D01*
X361945Y833275D01*
X362205Y833034D01*
X362223Y833016D01*
X362260Y832979D01*
X362334Y832886D01*
X362408Y832794D01*
X362519Y832645D01*
X362631Y832497D01*
X362760Y832293D01*
X362890Y832090D01*
X363001Y831849D01*
X363130Y831590D01*
X363242Y831294D01*
X363353Y830997D01*
X363427Y830664D01*
X363501Y830331D01*
X363538Y829960D01*
X363556Y829572D01*
Y829553D01*
Y829479D01*
Y829368D01*
X363538Y829220D01*
X363519Y829035D01*
X363482Y828831D01*
X363445Y828590D01*
X363390Y828350D01*
X363316Y828072D01*
X363223Y827794D01*
X363112Y827498D01*
X362982Y827202D01*
X362816Y826905D01*
X362631Y826628D01*
X362427Y826350D01*
X362186Y826072D01*
X362168Y826053D01*
X362131Y826016D01*
X362057Y825942D01*
X361945Y825850D01*
X361816Y825757D01*
X361649Y825646D01*
X361464Y825517D01*
X361260Y825387D01*
X361020Y825257D01*
X360760Y825128D01*
X360483Y825016D01*
X360168Y824924D01*
X359853Y824831D01*
X359501Y824757D01*
X359149Y824720D01*
X358760Y824702D01*
X358631D01*
X358538Y824720D01*
X358427D01*
X358298Y824739D01*
X357983Y824776D01*
X357594Y824850D01*
X357187Y824942D01*
X356761Y825091D01*
X356316Y825276D01*
X356298D01*
X356261Y825294D01*
X356205Y825331D01*
X356131Y825387D01*
X355928Y825517D01*
X355668Y825702D01*
X355391Y825942D01*
X355094Y826239D01*
X354817Y826572D01*
X354557Y826961D01*
Y826979D01*
X354539Y827016D01*
X354502Y827072D01*
X354465Y827164D01*
X354428Y827275D01*
X354372Y827405D01*
X354317Y827553D01*
X354261Y827720D01*
X354206Y827905D01*
X354150Y828109D01*
X354057Y828572D01*
X353983Y829109D01*
X353965Y829683D01*
Y829701D01*
Y829738D01*
Y829812D01*
X353983Y829886D01*
Y829997D01*
X354002Y830127D01*
X354039Y830442D01*
X354113Y830794D01*
X354224Y831182D01*
X354354Y831608D01*
X354557Y832034D01*
Y832053D01*
X354594Y832090D01*
X354613Y832145D01*
X354668Y832219D01*
X354817Y832423D01*
X355002Y832682D01*
X355242Y832960D01*
X355539Y833256D01*
X355872Y833534D01*
X356261Y833793D01*
X356279D01*
X356316Y833812D01*
X356372Y833849D01*
X356465Y833886D01*
X356557Y833941D01*
X356687Y833979D01*
X356835Y834034D01*
X356983Y834108D01*
X357353Y834219D01*
X357779Y834312D01*
X358242Y834386D01*
X358742Y834404D01*
X358946D01*
X359094Y834386D01*
D02*
G37*
G36*
X297693D02*
X297859Y834367D01*
X298063Y834330D01*
X298285Y834293D01*
X298526Y834238D01*
X298785Y834164D01*
X299044Y834071D01*
X299322Y833960D01*
X299600Y833812D01*
X299859Y833664D01*
X300119Y833479D01*
X300378Y833256D01*
X300600Y833016D01*
X300618Y832997D01*
X300655Y832960D01*
X300711Y832868D01*
X300785Y832756D01*
X300878Y832608D01*
X300970Y832442D01*
X301081Y832219D01*
X301192Y831979D01*
X301304Y831701D01*
X301415Y831386D01*
X301507Y831053D01*
X301600Y830664D01*
X301674Y830257D01*
X301729Y829812D01*
X301766Y829349D01*
Y828831D01*
X295619D01*
Y828812D01*
Y828775D01*
Y828720D01*
X295637Y828646D01*
X295656Y828461D01*
X295693Y828201D01*
X295767Y827942D01*
X295878Y827646D01*
X296008Y827368D01*
X296193Y827127D01*
X296211Y827109D01*
X296304Y827035D01*
X296415Y826942D01*
X296582Y826831D01*
X296786Y826720D01*
X297045Y826628D01*
X297323Y826553D01*
X297619Y826535D01*
X297711D01*
X297822Y826553D01*
X297952Y826572D01*
X298100Y826609D01*
X298267Y826665D01*
X298433Y826739D01*
X298582Y826850D01*
X298600Y826868D01*
X298656Y826905D01*
X298730Y826979D01*
X298804Y827090D01*
X298915Y827238D01*
X299007Y827405D01*
X299100Y827627D01*
X299193Y827868D01*
X301637Y827461D01*
Y827442D01*
X301618Y827405D01*
X301581Y827331D01*
X301544Y827238D01*
X301489Y827127D01*
X301433Y826998D01*
X301266Y826702D01*
X301063Y826368D01*
X300804Y826016D01*
X300489Y825702D01*
X300137Y825405D01*
X300119D01*
X300100Y825368D01*
X300026Y825350D01*
X299952Y825294D01*
X299859Y825239D01*
X299730Y825183D01*
X299600Y825128D01*
X299433Y825053D01*
X299063Y824924D01*
X298637Y824813D01*
X298137Y824739D01*
X297600Y824702D01*
X297489D01*
X297378Y824720D01*
X297211D01*
X297008Y824757D01*
X296767Y824794D01*
X296508Y824831D01*
X296248Y824905D01*
X295952Y824979D01*
X295656Y825091D01*
X295360Y825220D01*
X295063Y825368D01*
X294767Y825554D01*
X294489Y825757D01*
X294249Y825998D01*
X294008Y826276D01*
X293990Y826294D01*
X293971Y826331D01*
X293934Y826405D01*
X293860Y826498D01*
X293804Y826628D01*
X293730Y826776D01*
X293638Y826942D01*
X293564Y827146D01*
X293471Y827368D01*
X293397Y827609D01*
X293304Y827868D01*
X293249Y828164D01*
X293193Y828461D01*
X293138Y828775D01*
X293119Y829127D01*
X293101Y829479D01*
Y829498D01*
Y829572D01*
Y829701D01*
X293119Y829868D01*
X293138Y830053D01*
X293156Y830275D01*
X293193Y830516D01*
X293249Y830794D01*
X293397Y831368D01*
X293489Y831664D01*
X293601Y831979D01*
X293749Y832275D01*
X293915Y832553D01*
X294101Y832831D01*
X294304Y833090D01*
X294323Y833108D01*
X294360Y833145D01*
X294434Y833219D01*
X294527Y833293D01*
X294638Y833386D01*
X294786Y833497D01*
X294952Y833627D01*
X295138Y833756D01*
X295341Y833867D01*
X295582Y833997D01*
X295823Y834108D01*
X296100Y834201D01*
X296378Y834275D01*
X296693Y834349D01*
X297008Y834386D01*
X297341Y834404D01*
X297545D01*
X297693Y834386D01*
D02*
G37*
G36*
X264844D02*
X265011Y834367D01*
X265215Y834330D01*
X265437Y834293D01*
X265678Y834238D01*
X265937Y834164D01*
X266196Y834071D01*
X266474Y833960D01*
X266752Y833812D01*
X267011Y833664D01*
X267270Y833479D01*
X267529Y833256D01*
X267752Y833016D01*
X267770Y832997D01*
X267807Y832960D01*
X267863Y832868D01*
X267937Y832756D01*
X268029Y832608D01*
X268122Y832442D01*
X268233Y832219D01*
X268344Y831979D01*
X268455Y831701D01*
X268566Y831386D01*
X268659Y831053D01*
X268751Y830664D01*
X268825Y830257D01*
X268881Y829812D01*
X268918Y829349D01*
Y828831D01*
X262771D01*
Y828812D01*
Y828775D01*
Y828720D01*
X262789Y828646D01*
X262808Y828461D01*
X262845Y828201D01*
X262919Y827942D01*
X263030Y827646D01*
X263159Y827368D01*
X263344Y827127D01*
X263363Y827109D01*
X263456Y827035D01*
X263567Y826942D01*
X263733Y826831D01*
X263937Y826720D01*
X264196Y826628D01*
X264474Y826553D01*
X264770Y826535D01*
X264863D01*
X264974Y826553D01*
X265104Y826572D01*
X265252Y826609D01*
X265418Y826665D01*
X265585Y826739D01*
X265733Y826850D01*
X265752Y826868D01*
X265807Y826905D01*
X265881Y826979D01*
X265955Y827090D01*
X266066Y827238D01*
X266159Y827405D01*
X266252Y827627D01*
X266344Y827868D01*
X268788Y827461D01*
Y827442D01*
X268770Y827405D01*
X268733Y827331D01*
X268696Y827238D01*
X268640Y827127D01*
X268585Y826998D01*
X268418Y826702D01*
X268214Y826368D01*
X267955Y826016D01*
X267640Y825702D01*
X267288Y825405D01*
X267270D01*
X267251Y825368D01*
X267177Y825350D01*
X267103Y825294D01*
X267011Y825239D01*
X266881Y825183D01*
X266752Y825128D01*
X266585Y825053D01*
X266215Y824924D01*
X265789Y824813D01*
X265289Y824739D01*
X264752Y824702D01*
X264641D01*
X264530Y824720D01*
X264363D01*
X264159Y824757D01*
X263918Y824794D01*
X263659Y824831D01*
X263400Y824905D01*
X263104Y824979D01*
X262808Y825091D01*
X262511Y825220D01*
X262215Y825368D01*
X261919Y825554D01*
X261641Y825757D01*
X261400Y825998D01*
X261159Y826276D01*
X261141Y826294D01*
X261122Y826331D01*
X261085Y826405D01*
X261011Y826498D01*
X260956Y826628D01*
X260882Y826776D01*
X260789Y826942D01*
X260715Y827146D01*
X260623Y827368D01*
X260548Y827609D01*
X260456Y827868D01*
X260400Y828164D01*
X260345Y828461D01*
X260289Y828775D01*
X260271Y829127D01*
X260252Y829479D01*
Y829498D01*
Y829572D01*
Y829701D01*
X260271Y829868D01*
X260289Y830053D01*
X260308Y830275D01*
X260345Y830516D01*
X260400Y830794D01*
X260548Y831368D01*
X260641Y831664D01*
X260752Y831979D01*
X260900Y832275D01*
X261067Y832553D01*
X261252Y832831D01*
X261456Y833090D01*
X261474Y833108D01*
X261511Y833145D01*
X261585Y833219D01*
X261678Y833293D01*
X261789Y833386D01*
X261937Y833497D01*
X262104Y833627D01*
X262289Y833756D01*
X262493Y833867D01*
X262733Y833997D01*
X262974Y834108D01*
X263252Y834201D01*
X263530Y834275D01*
X263845Y834349D01*
X264159Y834386D01*
X264492Y834404D01*
X264696D01*
X264844Y834386D01*
D02*
G37*
G36*
X541492Y826014D02*
Y825596D01*
Y825178D01*
Y824760D01*
Y824342D01*
Y823924D01*
Y823506D01*
Y823089D01*
X538149D01*
Y823506D01*
Y823924D01*
Y824342D01*
Y824760D01*
Y825178D01*
Y825596D01*
Y826014D01*
Y826432D01*
X541492D01*
Y826014D01*
D02*
G37*
G36*
X538149Y822671D02*
Y822253D01*
Y821835D01*
Y821417D01*
Y820999D01*
Y820581D01*
Y820163D01*
Y819745D01*
X534805D01*
Y820163D01*
Y820581D01*
Y820999D01*
Y821417D01*
Y821835D01*
Y822253D01*
Y822671D01*
Y823089D01*
X538149D01*
Y822671D01*
D02*
G37*
G36*
X266400Y816510D02*
X263937D01*
Y818788D01*
X266400D01*
Y816510D01*
D02*
G37*
G36*
X521432Y819327D02*
Y818909D01*
Y818492D01*
Y818074D01*
Y817656D01*
Y817238D01*
Y816820D01*
Y816402D01*
X514746D01*
Y816820D01*
Y817238D01*
Y817656D01*
Y818074D01*
Y818492D01*
Y818909D01*
Y819327D01*
Y819745D01*
X521432D01*
Y819327D01*
D02*
G37*
G36*
X511402Y822671D02*
Y822253D01*
Y821835D01*
Y821417D01*
Y820999D01*
Y820581D01*
Y820163D01*
Y819745D01*
Y819327D01*
Y818909D01*
Y818492D01*
Y818074D01*
Y817656D01*
Y817238D01*
Y816820D01*
Y816402D01*
X508059D01*
Y816820D01*
Y817238D01*
Y817656D01*
Y818074D01*
Y818492D01*
Y818909D01*
Y819327D01*
Y819745D01*
Y820163D01*
Y820581D01*
Y820999D01*
Y821417D01*
Y821835D01*
Y822253D01*
Y822671D01*
Y823089D01*
X511402D01*
Y822671D01*
D02*
G37*
G36*
X487999Y842730D02*
Y842312D01*
Y841895D01*
Y841477D01*
Y841059D01*
Y840641D01*
Y840223D01*
Y839805D01*
X491343D01*
Y839387D01*
Y838969D01*
Y838551D01*
Y838133D01*
Y837715D01*
Y837298D01*
Y836880D01*
Y836462D01*
X494686D01*
Y836044D01*
Y835626D01*
Y835208D01*
Y834790D01*
Y834372D01*
Y833954D01*
Y833536D01*
Y833118D01*
Y832701D01*
Y832283D01*
Y831865D01*
Y831447D01*
Y831029D01*
Y830611D01*
Y830193D01*
Y829775D01*
Y829357D01*
Y828939D01*
Y828521D01*
Y828103D01*
Y827685D01*
Y827268D01*
Y826850D01*
Y826432D01*
X498029D01*
Y826850D01*
Y827268D01*
Y827685D01*
Y828103D01*
Y828521D01*
Y828939D01*
Y829357D01*
Y829775D01*
Y830193D01*
Y830611D01*
Y831029D01*
Y831447D01*
Y831865D01*
Y832283D01*
Y832701D01*
Y833118D01*
X501372D01*
Y832701D01*
Y832283D01*
Y831865D01*
Y831447D01*
Y831029D01*
Y830611D01*
Y830193D01*
Y829775D01*
Y829357D01*
Y828939D01*
Y828521D01*
Y828103D01*
Y827685D01*
Y827268D01*
Y826850D01*
Y826432D01*
Y826014D01*
Y825596D01*
Y825178D01*
Y824760D01*
Y824342D01*
Y823924D01*
Y823506D01*
Y823089D01*
X498029D01*
Y822671D01*
Y822253D01*
Y821835D01*
Y821417D01*
Y820999D01*
Y820581D01*
Y820163D01*
Y819745D01*
X504716D01*
Y819327D01*
Y818909D01*
Y818492D01*
Y818074D01*
Y817656D01*
Y817238D01*
Y816820D01*
Y816402D01*
X498029D01*
Y816820D01*
Y817238D01*
Y817656D01*
Y818074D01*
Y818492D01*
Y818909D01*
Y819327D01*
Y819745D01*
X487999D01*
Y820163D01*
Y820581D01*
Y820999D01*
Y821417D01*
Y821835D01*
Y822253D01*
Y822671D01*
Y823089D01*
X477969D01*
Y823506D01*
Y823924D01*
Y824342D01*
Y824760D01*
Y825178D01*
Y825596D01*
Y826014D01*
Y826432D01*
X484656D01*
Y826850D01*
Y827268D01*
Y827685D01*
Y828103D01*
Y828521D01*
Y828939D01*
Y829357D01*
Y829775D01*
Y830193D01*
Y830611D01*
Y831029D01*
Y831447D01*
Y831865D01*
Y832283D01*
Y832701D01*
Y833118D01*
Y833536D01*
Y833954D01*
Y834372D01*
Y834790D01*
Y835208D01*
Y835626D01*
Y836044D01*
Y836462D01*
Y836880D01*
Y837298D01*
Y837715D01*
Y838133D01*
Y838551D01*
Y838969D01*
Y839387D01*
Y839805D01*
Y840223D01*
Y840641D01*
Y841059D01*
Y841477D01*
Y841895D01*
Y842312D01*
Y842730D01*
Y843148D01*
X487999D01*
Y842730D01*
D02*
G37*
G36*
X261567Y815454D02*
X261771Y815417D01*
X262030Y815362D01*
X262308Y815269D01*
X262585Y815158D01*
X262882Y814992D01*
X262104Y812862D01*
X262085Y812881D01*
X261993Y812918D01*
X261882Y812992D01*
X261734Y813066D01*
X261548Y813140D01*
X261363Y813214D01*
X261159Y813251D01*
X260956Y813270D01*
X260882D01*
X260771Y813251D01*
X260660Y813232D01*
X260530Y813195D01*
X260382Y813140D01*
X260234Y813066D01*
X260086Y812973D01*
X260067Y812955D01*
X260030Y812918D01*
X259956Y812844D01*
X259882Y812733D01*
X259789Y812603D01*
X259697Y812418D01*
X259604Y812196D01*
X259530Y811936D01*
Y811899D01*
X259512Y811844D01*
X259493Y811788D01*
Y811696D01*
X259475Y811585D01*
X259456Y811436D01*
X259438Y811270D01*
X259419Y811085D01*
X259401Y810844D01*
X259382Y810603D01*
Y810307D01*
X259363Y809992D01*
X259345Y809640D01*
Y809251D01*
Y808826D01*
Y805974D01*
X256882D01*
Y815269D01*
X259160D01*
Y813955D01*
X259178Y813973D01*
X259252Y814084D01*
X259363Y814251D01*
X259512Y814455D01*
X259660Y814658D01*
X259845Y814862D01*
X260012Y815047D01*
X260197Y815177D01*
X260215Y815195D01*
X260271Y815232D01*
X260382Y815269D01*
X260511Y815325D01*
X260660Y815380D01*
X260845Y815436D01*
X261030Y815454D01*
X261252Y815473D01*
X261400D01*
X261567Y815454D01*
D02*
G37*
G36*
X227459Y805974D02*
X224867D01*
Y811584D01*
X219812D01*
Y805974D01*
X217220D01*
Y818788D01*
X219812D01*
Y813751D01*
X224867D01*
Y818788D01*
X227459D01*
Y805974D01*
D02*
G37*
G36*
X474626Y826014D02*
Y825596D01*
Y825178D01*
Y824760D01*
Y824342D01*
Y823924D01*
Y823506D01*
Y823089D01*
X477969D01*
Y822671D01*
Y822253D01*
Y821835D01*
Y821417D01*
Y820999D01*
Y820581D01*
Y820163D01*
Y819745D01*
X484656D01*
Y819327D01*
Y818909D01*
Y818492D01*
Y818074D01*
Y817656D01*
Y817238D01*
Y816820D01*
Y816402D01*
X487999D01*
Y815984D01*
Y815566D01*
Y815148D01*
Y814730D01*
Y814312D01*
Y813894D01*
Y813476D01*
Y813059D01*
X484656D01*
Y813476D01*
Y813894D01*
Y814312D01*
Y814730D01*
Y815148D01*
Y815566D01*
Y815984D01*
Y816402D01*
X477969D01*
Y816820D01*
Y817238D01*
Y817656D01*
Y818074D01*
Y818492D01*
Y818909D01*
Y819327D01*
Y819745D01*
X474626D01*
Y820163D01*
Y820581D01*
Y820999D01*
Y821417D01*
Y821835D01*
Y822253D01*
Y822671D01*
Y823089D01*
X471283D01*
Y823506D01*
Y823924D01*
Y824342D01*
Y824760D01*
Y825178D01*
Y825596D01*
Y826014D01*
Y826432D01*
X474626D01*
Y826014D01*
D02*
G37*
G36*
X273140Y815454D02*
X273288D01*
X273455Y815436D01*
X273640Y815417D01*
X273843Y815380D01*
X274269Y815288D01*
X274714Y815158D01*
X275158Y814973D01*
X275565Y814732D01*
X275584D01*
X275602Y814695D01*
X275658Y814658D01*
X275732Y814603D01*
X275899Y814436D01*
X276121Y814195D01*
X276362Y813881D01*
X276602Y813510D01*
X276825Y813066D01*
X277010Y812547D01*
X274584Y812103D01*
Y812140D01*
X274566Y812214D01*
X274529Y812344D01*
X274473Y812510D01*
X274380Y812677D01*
X274288Y812862D01*
X274158Y813029D01*
X274010Y813177D01*
X273992Y813195D01*
X273936Y813232D01*
X273843Y813288D01*
X273714Y813362D01*
X273547Y813436D01*
X273362Y813492D01*
X273140Y813529D01*
X272899Y813547D01*
X272862D01*
X272751Y813529D01*
X272584Y813510D01*
X272362Y813473D01*
X272140Y813381D01*
X271899Y813270D01*
X271658Y813121D01*
X271436Y812899D01*
X271418Y812862D01*
X271362Y812770D01*
X271270Y812622D01*
X271177Y812399D01*
X271066Y812103D01*
X271029Y811936D01*
X270992Y811751D01*
X270955Y811529D01*
X270918Y811307D01*
X270899Y811048D01*
Y810788D01*
Y810770D01*
Y810714D01*
Y810622D01*
X270918Y810511D01*
Y810381D01*
X270936Y810233D01*
X270973Y809863D01*
X271029Y809474D01*
X271140Y809085D01*
X271270Y808733D01*
X271362Y808585D01*
X271455Y808437D01*
X271473Y808400D01*
X271566Y808326D01*
X271677Y808233D01*
X271844Y808103D01*
X272066Y807974D01*
X272306Y807881D01*
X272603Y807807D01*
X272936Y807770D01*
X273047D01*
X273177Y807789D01*
X273344Y807826D01*
X273529Y807863D01*
X273714Y807937D01*
X273899Y808029D01*
X274084Y808159D01*
X274103Y808177D01*
X274158Y808233D01*
X274232Y808326D01*
X274343Y808474D01*
X274454Y808659D01*
X274547Y808900D01*
X274658Y809196D01*
X274732Y809529D01*
X277139Y809122D01*
Y809103D01*
X277121Y809048D01*
X277102Y808955D01*
X277065Y808844D01*
X277010Y808715D01*
X276954Y808548D01*
X276806Y808177D01*
X276621Y807770D01*
X276362Y807363D01*
X276047Y806955D01*
X275862Y806770D01*
X275677Y806604D01*
X275658D01*
X275621Y806567D01*
X275565Y806529D01*
X275491Y806474D01*
X275380Y806418D01*
X275251Y806344D01*
X275103Y806270D01*
X274917Y806196D01*
X274732Y806104D01*
X274510Y806030D01*
X274288Y805956D01*
X274029Y805900D01*
X273751Y805844D01*
X273455Y805807D01*
X273158Y805789D01*
X272825Y805770D01*
X272621D01*
X272492Y805789D01*
X272325Y805807D01*
X272121Y805844D01*
X271899Y805881D01*
X271658Y805937D01*
X271399Y805993D01*
X271140Y806085D01*
X270862Y806178D01*
X270603Y806307D01*
X270325Y806456D01*
X270066Y806622D01*
X269825Y806826D01*
X269585Y807048D01*
X269566Y807066D01*
X269529Y807104D01*
X269473Y807178D01*
X269399Y807289D01*
X269307Y807418D01*
X269196Y807567D01*
X269103Y807752D01*
X268992Y807974D01*
X268862Y808214D01*
X268770Y808474D01*
X268659Y808770D01*
X268566Y809085D01*
X268492Y809437D01*
X268437Y809788D01*
X268400Y810196D01*
X268381Y810603D01*
Y810622D01*
Y810696D01*
Y810825D01*
X268400Y810974D01*
X268418Y811177D01*
X268437Y811399D01*
X268474Y811640D01*
X268529Y811918D01*
X268677Y812492D01*
X268770Y812788D01*
X268881Y813084D01*
X269029Y813381D01*
X269196Y813658D01*
X269381Y813918D01*
X269585Y814177D01*
X269603Y814195D01*
X269640Y814232D01*
X269714Y814288D01*
X269807Y814381D01*
X269936Y814473D01*
X270084Y814584D01*
X270251Y814714D01*
X270455Y814825D01*
X270677Y814955D01*
X270918Y815066D01*
X271196Y815177D01*
X271492Y815269D01*
X271788Y815362D01*
X272140Y815417D01*
X272492Y815454D01*
X272862Y815473D01*
X273029D01*
X273140Y815454D01*
D02*
G37*
G36*
X254457Y805974D02*
X252179D01*
Y807363D01*
X252160Y807326D01*
X252086Y807233D01*
X251975Y807104D01*
X251809Y806937D01*
X251623Y806733D01*
X251383Y806548D01*
X251124Y806344D01*
X250827Y806178D01*
X250790Y806159D01*
X250679Y806122D01*
X250513Y806048D01*
X250290Y805974D01*
X250031Y805900D01*
X249735Y805826D01*
X249420Y805789D01*
X249087Y805770D01*
X248920D01*
X248753Y805789D01*
X248531Y805826D01*
X248253Y805863D01*
X247976Y805937D01*
X247680Y806048D01*
X247402Y806178D01*
X247365Y806196D01*
X247291Y806252D01*
X247143Y806344D01*
X246994Y806474D01*
X246809Y806641D01*
X246642Y806826D01*
X246476Y807066D01*
X246328Y807326D01*
X246309Y807363D01*
X246272Y807455D01*
X246217Y807622D01*
X246161Y807863D01*
X246106Y808159D01*
X246050Y808511D01*
X246013Y808918D01*
X245994Y809381D01*
Y815269D01*
X248457D01*
Y810992D01*
Y810974D01*
Y810899D01*
Y810807D01*
Y810677D01*
Y810529D01*
Y810362D01*
X248476Y809974D01*
X248494Y809548D01*
X248513Y809159D01*
X248531Y808992D01*
X248550Y808826D01*
X248568Y808696D01*
X248587Y808603D01*
Y808585D01*
X248605Y808529D01*
X248642Y808455D01*
X248698Y808344D01*
X248753Y808233D01*
X248846Y808122D01*
X248939Y808011D01*
X249068Y807900D01*
X249087Y807881D01*
X249142Y807863D01*
X249216Y807826D01*
X249327Y807789D01*
X249457Y807733D01*
X249624Y807696D01*
X249790Y807678D01*
X249994Y807659D01*
X250105D01*
X250216Y807678D01*
X250364Y807696D01*
X250550Y807733D01*
X250735Y807807D01*
X250938Y807881D01*
X251124Y807992D01*
X251142Y808011D01*
X251198Y808048D01*
X251290Y808122D01*
X251401Y808233D01*
X251512Y808363D01*
X251623Y808492D01*
X251735Y808659D01*
X251809Y808844D01*
Y808863D01*
X251846Y808955D01*
Y809029D01*
X251864Y809122D01*
X251883Y809214D01*
X251901Y809344D01*
X251920Y809511D01*
X251938Y809677D01*
X251957Y809881D01*
Y810122D01*
X251975Y810381D01*
X251994Y810677D01*
Y810992D01*
Y811344D01*
Y815269D01*
X254457D01*
Y805974D01*
D02*
G37*
G36*
X514746Y832701D02*
Y832283D01*
Y831865D01*
Y831447D01*
Y831029D01*
Y830611D01*
Y830193D01*
Y829775D01*
Y829357D01*
Y828939D01*
Y828521D01*
Y828103D01*
Y827685D01*
Y827268D01*
Y826850D01*
Y826432D01*
X531462D01*
Y826014D01*
Y825596D01*
Y825178D01*
Y824760D01*
Y824342D01*
Y823924D01*
Y823506D01*
Y823089D01*
Y822671D01*
Y822253D01*
Y821835D01*
Y821417D01*
Y820999D01*
Y820581D01*
Y820163D01*
Y819745D01*
X534805D01*
Y819327D01*
Y818909D01*
Y818492D01*
Y818074D01*
Y817656D01*
Y817238D01*
Y816820D01*
Y816402D01*
X538149D01*
Y815984D01*
Y815566D01*
Y815148D01*
Y814730D01*
Y814312D01*
Y813894D01*
Y813476D01*
Y813059D01*
X541492D01*
Y812641D01*
Y812223D01*
Y811805D01*
Y811387D01*
Y810969D01*
Y810551D01*
Y810133D01*
Y809715D01*
X538149D01*
Y809297D01*
Y808879D01*
Y808462D01*
Y808044D01*
Y807626D01*
Y807208D01*
Y806790D01*
Y806372D01*
X534805D01*
Y806790D01*
Y807208D01*
Y807626D01*
Y808044D01*
Y808462D01*
Y808879D01*
Y809297D01*
Y809715D01*
X528119D01*
Y810133D01*
Y810551D01*
Y810969D01*
Y811387D01*
Y811805D01*
Y812223D01*
Y812641D01*
Y813059D01*
X531462D01*
Y813476D01*
Y813894D01*
Y814312D01*
Y814730D01*
Y815148D01*
Y815566D01*
Y815984D01*
Y816402D01*
X524776D01*
Y816820D01*
Y817238D01*
Y817656D01*
Y818074D01*
Y818492D01*
Y818909D01*
Y819327D01*
Y819745D01*
Y820163D01*
Y820581D01*
Y820999D01*
Y821417D01*
Y821835D01*
Y822253D01*
Y822671D01*
Y823089D01*
X511402D01*
Y823506D01*
Y823924D01*
Y824342D01*
Y824760D01*
Y825178D01*
Y825596D01*
Y826014D01*
Y826432D01*
Y826850D01*
Y827268D01*
Y827685D01*
Y828103D01*
Y828521D01*
Y828939D01*
Y829357D01*
Y829775D01*
Y830193D01*
Y830611D01*
Y831029D01*
Y831447D01*
Y831865D01*
Y832283D01*
Y832701D01*
Y833118D01*
X514746D01*
Y832701D01*
D02*
G37*
G36*
X281324Y814047D02*
X281343Y814066D01*
X281380Y814103D01*
X281454Y814177D01*
X281528Y814269D01*
X281657Y814381D01*
X281787Y814492D01*
X281954Y814621D01*
X282120Y814769D01*
X282324Y814899D01*
X282546Y815029D01*
X283028Y815251D01*
X283287Y815343D01*
X283565Y815417D01*
X283861Y815454D01*
X284157Y815473D01*
X284305D01*
X284472Y815454D01*
X284676Y815436D01*
X284916Y815399D01*
X285157Y815325D01*
X285435Y815251D01*
X285694Y815140D01*
X285731Y815121D01*
X285805Y815084D01*
X285935Y815010D01*
X286083Y814918D01*
X286250Y814806D01*
X286416Y814677D01*
X286583Y814510D01*
X286731Y814343D01*
X286749Y814325D01*
X286786Y814251D01*
X286842Y814158D01*
X286916Y814029D01*
X287009Y813862D01*
X287083Y813677D01*
X287157Y813473D01*
X287212Y813251D01*
Y813232D01*
X287231Y813140D01*
X287249Y812992D01*
X287286Y812807D01*
X287305Y812547D01*
X287323Y812233D01*
X287342Y811862D01*
Y811418D01*
Y805974D01*
X284879D01*
Y810862D01*
Y810881D01*
Y810918D01*
Y810992D01*
Y811103D01*
Y811214D01*
Y811344D01*
X284861Y811640D01*
X284842Y811955D01*
X284824Y812270D01*
X284787Y812529D01*
X284750Y812622D01*
X284731Y812714D01*
Y812733D01*
X284694Y812788D01*
X284657Y812844D01*
X284620Y812936D01*
X284453Y813140D01*
X284361Y813251D01*
X284231Y813344D01*
X284213Y813362D01*
X284176Y813381D01*
X284083Y813418D01*
X283990Y813473D01*
X283861Y813510D01*
X283713Y813547D01*
X283528Y813566D01*
X283342Y813584D01*
X283231D01*
X283120Y813566D01*
X282972Y813547D01*
X282806Y813510D01*
X282620Y813455D01*
X282435Y813381D01*
X282250Y813270D01*
X282231Y813251D01*
X282176Y813214D01*
X282083Y813140D01*
X281991Y813047D01*
X281861Y812918D01*
X281750Y812770D01*
X281639Y812585D01*
X281546Y812381D01*
Y812362D01*
X281509Y812270D01*
X281472Y812140D01*
X281435Y811936D01*
X281398Y811696D01*
X281361Y811381D01*
X281343Y811029D01*
X281324Y810622D01*
Y805974D01*
X278861D01*
Y818788D01*
X281324D01*
Y814047D01*
D02*
G37*
G36*
X266400Y805974D02*
X263937D01*
Y815269D01*
X266400D01*
Y805974D01*
D02*
G37*
G36*
X244143Y816769D02*
X237125Y808140D01*
X244421D01*
Y805974D01*
X233996D01*
Y808307D01*
X240754Y816621D01*
X234773D01*
Y818788D01*
X244143D01*
Y816769D01*
D02*
G37*
G36*
X215535Y816621D02*
X211757D01*
Y805974D01*
X209165D01*
Y816621D01*
X205369D01*
Y818788D01*
X215535D01*
Y816621D01*
D02*
G37*
G36*
X203832D02*
X196926D01*
Y813788D01*
X203351D01*
Y811622D01*
X196926D01*
Y808140D01*
X204073D01*
Y805974D01*
X194333D01*
Y818788D01*
X203832D01*
Y816621D01*
D02*
G37*
G36*
X481312Y805954D02*
Y805536D01*
Y805118D01*
Y804700D01*
Y804282D01*
Y803865D01*
Y803447D01*
Y803029D01*
X477969D01*
Y803447D01*
Y803865D01*
Y804282D01*
Y804700D01*
Y805118D01*
Y805536D01*
Y805954D01*
Y806372D01*
X481312D01*
Y805954D01*
D02*
G37*
G36*
X281176Y790320D02*
X278584D01*
Y795931D01*
X273529D01*
Y790320D01*
X270936D01*
Y803134D01*
X273529D01*
Y798097D01*
X278584D01*
Y803134D01*
X281176D01*
Y790320D01*
D02*
G37*
G36*
X228126Y795690D02*
Y790320D01*
X225534D01*
Y795708D01*
X220849Y803133D01*
X223867D01*
X226885Y798060D01*
X229830Y803133D01*
X232811D01*
X228126Y795690D01*
D02*
G37*
G36*
X474626Y799268D02*
Y798850D01*
Y798432D01*
Y798014D01*
Y797596D01*
Y797178D01*
Y796760D01*
Y796342D01*
X471283D01*
Y796760D01*
Y797178D01*
Y797596D01*
Y798014D01*
Y798432D01*
Y798850D01*
Y799268D01*
Y799685D01*
X474626D01*
Y799268D01*
D02*
G37*
G36*
X467939D02*
Y798850D01*
Y798432D01*
Y798014D01*
Y797596D01*
Y797178D01*
Y796760D01*
Y796342D01*
X457909D01*
Y796760D01*
Y797178D01*
Y797596D01*
Y798014D01*
Y798432D01*
Y798850D01*
Y799268D01*
Y799685D01*
X467939D01*
Y799268D01*
D02*
G37*
G36*
X206628Y790320D02*
X204240D01*
X204221Y800393D01*
X201703Y790320D01*
X199203D01*
X196685Y800393D01*
Y790320D01*
X194296D01*
Y803133D01*
X198166D01*
X200462Y794375D01*
X202740Y803133D01*
X206628D01*
Y790320D01*
D02*
G37*
G36*
X379240Y790320D02*
X376777D01*
Y799597D01*
X376759Y799578D01*
X376722Y799541D01*
X376648Y799486D01*
X376536Y799393D01*
X376407Y799282D01*
X376259Y799171D01*
X376074Y799041D01*
X375870Y798893D01*
X375648Y798745D01*
X375407Y798597D01*
X375148Y798430D01*
X374870Y798282D01*
X374277Y798005D01*
X373611Y797745D01*
Y799967D01*
X373629D01*
X373648Y799986D01*
X373703Y800004D01*
X373778Y800023D01*
X373963Y800115D01*
X374222Y800227D01*
X374537Y800375D01*
X374888Y800578D01*
X375277Y800837D01*
X375685Y801134D01*
X375703Y801152D01*
X375740Y801171D01*
X375796Y801226D01*
X375870Y801300D01*
X376074Y801486D01*
X376296Y801726D01*
X376555Y802023D01*
X376814Y802393D01*
X377055Y802782D01*
X377240Y803208D01*
X379240D01*
Y790320D01*
D02*
G37*
G36*
X367537Y803189D02*
X367704Y803171D01*
X367889Y803152D01*
X368093Y803115D01*
X368315Y803078D01*
X368797Y802948D01*
X369278Y802763D01*
X369537Y802652D01*
X369759Y802523D01*
X370000Y802356D01*
X370204Y802171D01*
X370222Y802152D01*
X370259Y802134D01*
X370296Y802060D01*
X370370Y801985D01*
X370463Y801893D01*
X370556Y801763D01*
X370648Y801634D01*
X370759Y801467D01*
X370945Y801097D01*
X371130Y800671D01*
X371204Y800430D01*
X371241Y800171D01*
X371278Y799893D01*
X371296Y799615D01*
Y799578D01*
Y799467D01*
X371278Y799301D01*
X371259Y799097D01*
X371222Y798838D01*
X371167Y798560D01*
X371093Y798264D01*
X370981Y797967D01*
X370963Y797930D01*
X370926Y797838D01*
X370852Y797671D01*
X370741Y797467D01*
X370611Y797227D01*
X370444Y796949D01*
X370241Y796653D01*
X370000Y796338D01*
X369982Y796320D01*
X369907Y796227D01*
X369796Y796097D01*
X369630Y795912D01*
X369408Y795690D01*
X369130Y795394D01*
X368797Y795079D01*
X368389Y794690D01*
X368371Y794671D01*
X368334Y794653D01*
X368278Y794597D01*
X368204Y794523D01*
X368000Y794338D01*
X367760Y794116D01*
X367519Y793875D01*
X367278Y793635D01*
X367056Y793431D01*
X366982Y793338D01*
X366908Y793264D01*
X366889Y793246D01*
X366852Y793209D01*
X366797Y793135D01*
X366723Y793042D01*
X366556Y792838D01*
X366408Y792598D01*
X371296D01*
Y790320D01*
X362686D01*
Y790339D01*
Y790376D01*
X362705Y790450D01*
X362723Y790542D01*
X362742Y790653D01*
X362760Y790783D01*
X362834Y791116D01*
X362945Y791487D01*
X363093Y791894D01*
X363279Y792338D01*
X363519Y792764D01*
Y792783D01*
X363556Y792820D01*
X363593Y792894D01*
X363667Y792968D01*
X363741Y793098D01*
X363853Y793227D01*
X363982Y793394D01*
X364130Y793579D01*
X364297Y793801D01*
X364501Y794023D01*
X364723Y794283D01*
X364982Y794560D01*
X365260Y794838D01*
X365575Y795153D01*
X365908Y795486D01*
X366278Y795838D01*
X366297Y795856D01*
X366352Y795912D01*
X366426Y795986D01*
X366538Y796097D01*
X366686Y796208D01*
X366834Y796357D01*
X367167Y796690D01*
X367500Y797042D01*
X367834Y797393D01*
X367982Y797542D01*
X368130Y797708D01*
X368241Y797838D01*
X368315Y797949D01*
X368334Y797986D01*
X368389Y798079D01*
X368482Y798227D01*
X368574Y798430D01*
X368667Y798653D01*
X368759Y798912D01*
X368815Y799171D01*
X368834Y799449D01*
Y799467D01*
Y799486D01*
Y799578D01*
X368815Y799745D01*
X368778Y799930D01*
X368722Y800134D01*
X368648Y800338D01*
X368537Y800541D01*
X368389Y800726D01*
X368371Y800745D01*
X368315Y800800D01*
X368204Y800874D01*
X368074Y800949D01*
X367889Y801023D01*
X367686Y801097D01*
X367445Y801152D01*
X367167Y801171D01*
X367038D01*
X366889Y801152D01*
X366723Y801115D01*
X366519Y801060D01*
X366315Y800967D01*
X366112Y800856D01*
X365927Y800708D01*
X365908Y800689D01*
X365852Y800615D01*
X365778Y800504D01*
X365704Y800338D01*
X365612Y800134D01*
X365538Y799856D01*
X365464Y799541D01*
X365426Y799171D01*
X362982Y799412D01*
Y799430D01*
X363001Y799504D01*
Y799597D01*
X363038Y799745D01*
X363056Y799912D01*
X363112Y800097D01*
X363167Y800301D01*
X363223Y800541D01*
X363408Y801004D01*
X363630Y801486D01*
X363778Y801726D01*
X363945Y801948D01*
X364130Y802134D01*
X364334Y802319D01*
X364353Y802337D01*
X364390Y802356D01*
X364445Y802393D01*
X364538Y802467D01*
X364649Y802523D01*
X364797Y802597D01*
X364945Y802689D01*
X365130Y802763D01*
X365334Y802856D01*
X365556Y802930D01*
X366038Y803078D01*
X366612Y803171D01*
X366908Y803189D01*
X367223Y803208D01*
X367408D01*
X367537Y803189D01*
D02*
G37*
G36*
X347614D02*
X347780Y803171D01*
X347965Y803152D01*
X348169Y803115D01*
X348391Y803078D01*
X348873Y802948D01*
X349354Y802763D01*
X349613Y802652D01*
X349836Y802523D01*
X350076Y802356D01*
X350280Y802171D01*
X350299Y802152D01*
X350336Y802134D01*
X350373Y802060D01*
X350447Y801985D01*
X350539Y801893D01*
X350632Y801763D01*
X350724Y801634D01*
X350835Y801467D01*
X351021Y801097D01*
X351206Y800671D01*
X351280Y800430D01*
X351317Y800171D01*
X351354Y799893D01*
X351372Y799615D01*
Y799578D01*
Y799467D01*
X351354Y799301D01*
X351335Y799097D01*
X351298Y798838D01*
X351243Y798560D01*
X351169Y798264D01*
X351058Y797967D01*
X351039Y797930D01*
X351002Y797838D01*
X350928Y797671D01*
X350817Y797467D01*
X350687Y797227D01*
X350521Y796949D01*
X350317Y796653D01*
X350076Y796338D01*
X350058Y796320D01*
X349984Y796227D01*
X349873Y796097D01*
X349706Y795912D01*
X349484Y795690D01*
X349206Y795394D01*
X348873Y795079D01*
X348465Y794690D01*
X348447Y794671D01*
X348410Y794653D01*
X348354Y794597D01*
X348280Y794523D01*
X348077Y794338D01*
X347836Y794116D01*
X347595Y793875D01*
X347354Y793635D01*
X347132Y793431D01*
X347058Y793338D01*
X346984Y793264D01*
X346965Y793246D01*
X346928Y793209D01*
X346873Y793135D01*
X346799Y793042D01*
X346632Y792838D01*
X346484Y792598D01*
X351372D01*
Y790320D01*
X342762D01*
Y790339D01*
Y790376D01*
X342781Y790450D01*
X342799Y790542D01*
X342818Y790653D01*
X342836Y790783D01*
X342910Y791116D01*
X343021Y791487D01*
X343170Y791894D01*
X343355Y792338D01*
X343596Y792764D01*
Y792783D01*
X343633Y792820D01*
X343670Y792894D01*
X343744Y792968D01*
X343818Y793098D01*
X343929Y793227D01*
X344058Y793394D01*
X344207Y793579D01*
X344373Y793801D01*
X344577Y794023D01*
X344799Y794283D01*
X345058Y794560D01*
X345336Y794838D01*
X345651Y795153D01*
X345984Y795486D01*
X346354Y795838D01*
X346373Y795856D01*
X346428Y795912D01*
X346503Y795986D01*
X346614Y796097D01*
X346762Y796208D01*
X346910Y796357D01*
X347243Y796690D01*
X347576Y797042D01*
X347910Y797393D01*
X348058Y797542D01*
X348206Y797708D01*
X348317Y797838D01*
X348391Y797949D01*
X348410Y797986D01*
X348465Y798079D01*
X348558Y798227D01*
X348651Y798430D01*
X348743Y798653D01*
X348836Y798912D01*
X348891Y799171D01*
X348910Y799449D01*
Y799467D01*
Y799486D01*
Y799578D01*
X348891Y799745D01*
X348854Y799930D01*
X348799Y800134D01*
X348725Y800338D01*
X348614Y800541D01*
X348465Y800726D01*
X348447Y800745D01*
X348391Y800800D01*
X348280Y800874D01*
X348150Y800949D01*
X347965Y801023D01*
X347762Y801097D01*
X347521Y801152D01*
X347243Y801171D01*
X347114D01*
X346965Y801152D01*
X346799Y801115D01*
X346595Y801060D01*
X346391Y800967D01*
X346188Y800856D01*
X346003Y800708D01*
X345984Y800689D01*
X345928Y800615D01*
X345854Y800504D01*
X345780Y800338D01*
X345688Y800134D01*
X345614Y799856D01*
X345540Y799541D01*
X345503Y799171D01*
X343059Y799412D01*
Y799430D01*
X343077Y799504D01*
Y799597D01*
X343114Y799745D01*
X343133Y799912D01*
X343188Y800097D01*
X343244Y800301D01*
X343299Y800541D01*
X343484Y801004D01*
X343707Y801486D01*
X343855Y801726D01*
X344021Y801948D01*
X344207Y802134D01*
X344410Y802319D01*
X344429Y802337D01*
X344466Y802356D01*
X344521Y802393D01*
X344614Y802467D01*
X344725Y802523D01*
X344873Y802597D01*
X345021Y802689D01*
X345206Y802763D01*
X345410Y802856D01*
X345632Y802930D01*
X346114Y803078D01*
X346688Y803171D01*
X346984Y803189D01*
X347299Y803208D01*
X347484D01*
X347614Y803189D01*
D02*
G37*
G36*
X341077Y790320D02*
X338615D01*
Y792783D01*
X341077D01*
Y790320D01*
D02*
G37*
G36*
X332671Y803189D02*
X332837Y803171D01*
X333022Y803152D01*
X333226Y803115D01*
X333448Y803078D01*
X333930Y802948D01*
X334411Y802763D01*
X334670Y802652D01*
X334893Y802523D01*
X335133Y802356D01*
X335337Y802171D01*
X335356Y802152D01*
X335393Y802134D01*
X335430Y802060D01*
X335504Y801985D01*
X335596Y801893D01*
X335689Y801763D01*
X335781Y801634D01*
X335892Y801467D01*
X336078Y801097D01*
X336263Y800671D01*
X336337Y800430D01*
X336374Y800171D01*
X336411Y799893D01*
X336429Y799615D01*
Y799578D01*
Y799467D01*
X336411Y799301D01*
X336393Y799097D01*
X336356Y798838D01*
X336300Y798560D01*
X336226Y798264D01*
X336115Y797967D01*
X336096Y797930D01*
X336059Y797838D01*
X335985Y797671D01*
X335874Y797467D01*
X335744Y797227D01*
X335578Y796949D01*
X335374Y796653D01*
X335133Y796338D01*
X335115Y796320D01*
X335041Y796227D01*
X334930Y796097D01*
X334763Y795912D01*
X334541Y795690D01*
X334263Y795394D01*
X333930Y795079D01*
X333522Y794690D01*
X333504Y794671D01*
X333467Y794653D01*
X333411Y794597D01*
X333337Y794523D01*
X333134Y794338D01*
X332893Y794116D01*
X332652Y793875D01*
X332411Y793635D01*
X332189Y793431D01*
X332115Y793338D01*
X332041Y793264D01*
X332023Y793246D01*
X331986Y793209D01*
X331930Y793135D01*
X331856Y793042D01*
X331689Y792838D01*
X331541Y792598D01*
X336429D01*
Y790320D01*
X327819D01*
Y790339D01*
Y790376D01*
X327838Y790450D01*
X327856Y790542D01*
X327875Y790653D01*
X327893Y790783D01*
X327967Y791116D01*
X328078Y791487D01*
X328227Y791894D01*
X328412Y792338D01*
X328653Y792764D01*
Y792783D01*
X328690Y792820D01*
X328727Y792894D01*
X328801Y792968D01*
X328875Y793098D01*
X328986Y793227D01*
X329115Y793394D01*
X329264Y793579D01*
X329430Y793801D01*
X329634Y794023D01*
X329856Y794283D01*
X330115Y794560D01*
X330393Y794838D01*
X330708Y795153D01*
X331041Y795486D01*
X331412Y795838D01*
X331430Y795856D01*
X331486Y795912D01*
X331560Y795986D01*
X331671Y796097D01*
X331819Y796208D01*
X331967Y796357D01*
X332300Y796690D01*
X332634Y797042D01*
X332967Y797393D01*
X333115Y797542D01*
X333263Y797708D01*
X333374Y797838D01*
X333448Y797949D01*
X333467Y797986D01*
X333522Y798079D01*
X333615Y798227D01*
X333708Y798430D01*
X333800Y798653D01*
X333893Y798912D01*
X333948Y799171D01*
X333967Y799449D01*
Y799467D01*
Y799486D01*
Y799578D01*
X333948Y799745D01*
X333911Y799930D01*
X333856Y800134D01*
X333782Y800338D01*
X333671Y800541D01*
X333522Y800726D01*
X333504Y800745D01*
X333448Y800800D01*
X333337Y800874D01*
X333208Y800949D01*
X333022Y801023D01*
X332819Y801097D01*
X332578Y801152D01*
X332300Y801171D01*
X332171D01*
X332023Y801152D01*
X331856Y801115D01*
X331652Y801060D01*
X331449Y800967D01*
X331245Y800856D01*
X331060Y800708D01*
X331041Y800689D01*
X330986Y800615D01*
X330912Y800504D01*
X330838Y800338D01*
X330745Y800134D01*
X330671Y799856D01*
X330597Y799541D01*
X330560Y799171D01*
X328116Y799412D01*
Y799430D01*
X328134Y799504D01*
Y799597D01*
X328171Y799745D01*
X328190Y799912D01*
X328245Y800097D01*
X328301Y800301D01*
X328356Y800541D01*
X328541Y801004D01*
X328764Y801486D01*
X328912Y801726D01*
X329078Y801948D01*
X329264Y802134D01*
X329467Y802319D01*
X329486Y802337D01*
X329523Y802356D01*
X329578Y802393D01*
X329671Y802467D01*
X329782Y802523D01*
X329930Y802597D01*
X330078Y802689D01*
X330263Y802763D01*
X330467Y802856D01*
X330689Y802930D01*
X331171Y803078D01*
X331745Y803171D01*
X332041Y803189D01*
X332356Y803208D01*
X332541D01*
X332671Y803189D01*
D02*
G37*
G36*
X263918Y803115D02*
X264400D01*
X264918Y803078D01*
X265437Y803041D01*
X265659Y803023D01*
X265881Y803004D01*
X266066Y802967D01*
X266215Y802930D01*
X266233D01*
X266270Y802911D01*
X266326Y802893D01*
X266400Y802874D01*
X266603Y802782D01*
X266863Y802671D01*
X267140Y802504D01*
X267455Y802282D01*
X267752Y802004D01*
X268048Y801671D01*
Y801652D01*
X268085Y801634D01*
X268122Y801578D01*
X268159Y801504D01*
X268233Y801393D01*
X268288Y801282D01*
X268363Y801152D01*
X268437Y801004D01*
X268566Y800634D01*
X268696Y800227D01*
X268770Y799726D01*
X268807Y799190D01*
Y799171D01*
Y799134D01*
Y799078D01*
Y798986D01*
X268788Y798893D01*
Y798764D01*
X268751Y798504D01*
X268696Y798190D01*
X268622Y797838D01*
X268511Y797505D01*
X268363Y797190D01*
X268344Y797153D01*
X268288Y797060D01*
X268196Y796912D01*
X268066Y796727D01*
X267918Y796542D01*
X267714Y796320D01*
X267511Y796116D01*
X267270Y795931D01*
X267233Y795912D01*
X267159Y795856D01*
X267029Y795782D01*
X266863Y795690D01*
X266659Y795579D01*
X266437Y795486D01*
X266196Y795394D01*
X265937Y795320D01*
X265900D01*
X265844Y795301D01*
X265770D01*
X265678Y795283D01*
X265548Y795264D01*
X265418Y795246D01*
X265252D01*
X265085Y795227D01*
X264881Y795209D01*
X264659Y795190D01*
X264419Y795171D01*
X264159D01*
X263881Y795153D01*
X261585D01*
Y790320D01*
X258993D01*
Y803134D01*
X263715D01*
X263918Y803115D01*
D02*
G37*
G36*
X252012Y803115D02*
X252216D01*
X252420Y803096D01*
X252660D01*
X253142Y803041D01*
X253642Y802985D01*
X254105Y802893D01*
X254308Y802837D01*
X254494Y802782D01*
X254512D01*
X254531Y802763D01*
X254642Y802708D01*
X254808Y802615D01*
X255031Y802504D01*
X255271Y802319D01*
X255512Y802115D01*
X255753Y801856D01*
X255975Y801541D01*
Y801523D01*
X255993Y801504D01*
X256031Y801449D01*
X256068Y801393D01*
X256160Y801208D01*
X256271Y800967D01*
X256364Y800671D01*
X256456Y800338D01*
X256530Y799949D01*
X256549Y799541D01*
Y799523D01*
Y799486D01*
Y799393D01*
X256530Y799301D01*
Y799171D01*
X256512Y799041D01*
X256438Y798708D01*
X256345Y798319D01*
X256197Y797930D01*
X255975Y797523D01*
X255845Y797338D01*
X255697Y797153D01*
X255679Y797134D01*
X255660Y797116D01*
X255605Y797060D01*
X255530Y797005D01*
X255456Y796930D01*
X255345Y796838D01*
X255216Y796745D01*
X255068Y796653D01*
X254901Y796542D01*
X254697Y796449D01*
X254494Y796357D01*
X254271Y796264D01*
X254012Y796171D01*
X253753Y796097D01*
X253475Y796023D01*
X253160Y795968D01*
X253179D01*
X253197Y795949D01*
X253309Y795875D01*
X253457Y795782D01*
X253642Y795653D01*
X253864Y795486D01*
X254086Y795320D01*
X254327Y795116D01*
X254531Y794894D01*
X254549Y794875D01*
X254642Y794783D01*
X254753Y794634D01*
X254919Y794412D01*
X255142Y794135D01*
X255253Y793949D01*
X255382Y793764D01*
X255530Y793560D01*
X255679Y793338D01*
X255845Y793079D01*
X256012Y792820D01*
X257586Y790320D01*
X254475Y790320D01*
X252623Y793098D01*
X252605Y793116D01*
X252586Y793172D01*
X252531Y793246D01*
X252457Y793338D01*
X252383Y793449D01*
X252290Y793597D01*
X252086Y793894D01*
X251846Y794227D01*
X251623Y794523D01*
X251420Y794801D01*
X251327Y794894D01*
X251253Y794986D01*
X251235Y795005D01*
X251198Y795042D01*
X251124Y795116D01*
X251031Y795208D01*
X250901Y795283D01*
X250772Y795375D01*
X250624Y795449D01*
X250476Y795523D01*
X250457D01*
X250401Y795542D01*
X250309Y795579D01*
X250161Y795597D01*
X249975Y795634D01*
X249753Y795653D01*
X249494Y795671D01*
X248661D01*
Y790320D01*
X246068D01*
Y803133D01*
X251846D01*
X252012Y803115D01*
D02*
G37*
G36*
X243624Y800967D02*
X236718D01*
Y798134D01*
X243143D01*
Y795968D01*
X236718D01*
Y792486D01*
X243865D01*
Y790320D01*
X234125D01*
Y803133D01*
X243624D01*
Y800967D01*
D02*
G37*
G36*
X220793Y790320D02*
X217997D01*
X216886Y793227D01*
X211739D01*
X210683Y790320D01*
X207943D01*
X212905Y803133D01*
X215646D01*
X220793Y790320D01*
D02*
G37*
G36*
X357501Y803189D02*
X357650Y803171D01*
X357835Y803134D01*
X358020Y803096D01*
X358242Y803041D01*
X358483Y802967D01*
X358705Y802874D01*
X358946Y802782D01*
X359186Y802652D01*
X359427Y802486D01*
X359668Y802319D01*
X359890Y802115D01*
X360094Y801874D01*
X360112Y801856D01*
X360149Y801800D01*
X360205Y801708D01*
X360297Y801578D01*
X360390Y801393D01*
X360501Y801171D01*
X360612Y800930D01*
X360723Y800615D01*
X360834Y800282D01*
X360964Y799893D01*
X361057Y799467D01*
X361149Y798986D01*
X361242Y798467D01*
X361297Y797912D01*
X361334Y797301D01*
X361353Y796634D01*
Y796616D01*
Y796597D01*
Y796542D01*
Y796468D01*
Y796282D01*
X361334Y796042D01*
X361316Y795745D01*
X361279Y795394D01*
X361242Y795023D01*
X361205Y794616D01*
X361131Y794190D01*
X361038Y793746D01*
X360946Y793320D01*
X360816Y792894D01*
X360686Y792468D01*
X360501Y792079D01*
X360316Y791709D01*
X360094Y791394D01*
X360075Y791376D01*
X360038Y791339D01*
X359983Y791264D01*
X359909Y791190D01*
X359798Y791098D01*
X359668Y790987D01*
X359501Y790857D01*
X359335Y790746D01*
X359131Y790616D01*
X358927Y790487D01*
X358686Y790376D01*
X358427Y790283D01*
X358149Y790209D01*
X357835Y790135D01*
X357520Y790098D01*
X357187Y790079D01*
X357113D01*
X357001Y790098D01*
X356872D01*
X356724Y790116D01*
X356539Y790153D01*
X356335Y790191D01*
X356113Y790265D01*
X355872Y790339D01*
X355631Y790431D01*
X355372Y790542D01*
X355131Y790690D01*
X354872Y790839D01*
X354631Y791042D01*
X354391Y791246D01*
X354168Y791505D01*
X354150Y791524D01*
X354113Y791579D01*
X354057Y791672D01*
X354002Y791783D01*
X353909Y791949D01*
X353817Y792153D01*
X353705Y792412D01*
X353613Y792690D01*
X353502Y793024D01*
X353391Y793394D01*
X353298Y793820D01*
X353224Y794283D01*
X353150Y794801D01*
X353094Y795375D01*
X353057Y795986D01*
X353039Y796653D01*
Y796671D01*
Y796690D01*
Y796745D01*
Y796819D01*
Y797005D01*
X353057Y797245D01*
X353076Y797542D01*
X353113Y797893D01*
X353150Y798264D01*
X353187Y798671D01*
X353261Y799097D01*
X353335Y799523D01*
X353446Y799967D01*
X353557Y800393D01*
X353705Y800800D01*
X353872Y801189D01*
X354057Y801560D01*
X354280Y801874D01*
X354298Y801893D01*
X354335Y801930D01*
X354391Y802004D01*
X354483Y802078D01*
X354576Y802189D01*
X354705Y802300D01*
X354872Y802411D01*
X355039Y802541D01*
X355242Y802671D01*
X355446Y802782D01*
X355687Y802893D01*
X355946Y803004D01*
X356224Y803078D01*
X356539Y803152D01*
X356853Y803189D01*
X357187Y803208D01*
X357372D01*
X357501Y803189D01*
D02*
G37*
G36*
X322635D02*
X322783Y803171D01*
X322968Y803134D01*
X323153Y803096D01*
X323375Y803041D01*
X323616Y802967D01*
X323838Y802874D01*
X324079Y802782D01*
X324320Y802652D01*
X324560Y802486D01*
X324801Y802319D01*
X325023Y802115D01*
X325227Y801874D01*
X325246Y801856D01*
X325283Y801800D01*
X325338Y801708D01*
X325431Y801578D01*
X325523Y801393D01*
X325634Y801171D01*
X325745Y800930D01*
X325857Y800615D01*
X325968Y800282D01*
X326097Y799893D01*
X326190Y799467D01*
X326282Y798986D01*
X326375Y798467D01*
X326431Y797912D01*
X326468Y797301D01*
X326486Y796634D01*
Y796616D01*
Y796597D01*
Y796542D01*
Y796468D01*
Y796282D01*
X326468Y796042D01*
X326449Y795745D01*
X326412Y795394D01*
X326375Y795023D01*
X326338Y794616D01*
X326264Y794190D01*
X326171Y793746D01*
X326079Y793320D01*
X325949Y792894D01*
X325820Y792468D01*
X325634Y792079D01*
X325449Y791709D01*
X325227Y791394D01*
X325209Y791376D01*
X325171Y791339D01*
X325116Y791264D01*
X325042Y791190D01*
X324931Y791098D01*
X324801Y790987D01*
X324635Y790857D01*
X324468Y790746D01*
X324264Y790616D01*
X324060Y790487D01*
X323820Y790376D01*
X323560Y790283D01*
X323283Y790209D01*
X322968Y790135D01*
X322653Y790098D01*
X322320Y790079D01*
X322246D01*
X322135Y790098D01*
X322005D01*
X321857Y790116D01*
X321672Y790153D01*
X321468Y790191D01*
X321246Y790265D01*
X321005Y790339D01*
X320765Y790431D01*
X320505Y790542D01*
X320265Y790690D01*
X320005Y790839D01*
X319765Y791042D01*
X319524Y791246D01*
X319302Y791505D01*
X319283Y791524D01*
X319246Y791579D01*
X319191Y791672D01*
X319135Y791783D01*
X319042Y791949D01*
X318950Y792153D01*
X318839Y792412D01*
X318746Y792690D01*
X318635Y793024D01*
X318524Y793394D01*
X318431Y793820D01*
X318357Y794283D01*
X318283Y794801D01*
X318228Y795375D01*
X318191Y795986D01*
X318172Y796653D01*
Y796671D01*
Y796690D01*
Y796745D01*
Y796819D01*
Y797005D01*
X318191Y797245D01*
X318209Y797542D01*
X318246Y797893D01*
X318283Y798264D01*
X318320Y798671D01*
X318394Y799097D01*
X318468Y799523D01*
X318580Y799967D01*
X318691Y800393D01*
X318839Y800800D01*
X319005Y801189D01*
X319191Y801560D01*
X319413Y801874D01*
X319431Y801893D01*
X319468Y801930D01*
X319524Y802004D01*
X319617Y802078D01*
X319709Y802189D01*
X319839Y802300D01*
X320005Y802411D01*
X320172Y802541D01*
X320376Y802671D01*
X320579Y802782D01*
X320820Y802893D01*
X321079Y803004D01*
X321357Y803078D01*
X321672Y803152D01*
X321987Y803189D01*
X322320Y803208D01*
X322505D01*
X322635Y803189D01*
D02*
G37*
G36*
X461253Y826014D02*
Y825596D01*
Y825178D01*
Y824760D01*
Y824342D01*
Y823924D01*
Y823506D01*
Y823089D01*
X471283D01*
Y822671D01*
Y822253D01*
Y821835D01*
Y821417D01*
Y820999D01*
Y820581D01*
Y820163D01*
Y819745D01*
X464596D01*
Y819327D01*
Y818909D01*
Y818492D01*
Y818074D01*
Y817656D01*
Y817238D01*
Y816820D01*
Y816402D01*
Y815984D01*
Y815566D01*
Y815148D01*
Y814730D01*
Y814312D01*
Y813894D01*
Y813476D01*
Y813059D01*
X467939D01*
Y813476D01*
Y813894D01*
Y814312D01*
Y814730D01*
Y815148D01*
Y815566D01*
Y815984D01*
Y816402D01*
X474626D01*
Y815984D01*
Y815566D01*
Y815148D01*
Y814730D01*
Y814312D01*
Y813894D01*
Y813476D01*
Y813059D01*
X481312D01*
Y812641D01*
Y812223D01*
Y811805D01*
Y811387D01*
Y810969D01*
Y810551D01*
Y810133D01*
Y809715D01*
X491343D01*
Y809297D01*
Y808879D01*
Y808462D01*
Y808044D01*
Y807626D01*
Y807208D01*
Y806790D01*
Y806372D01*
Y805954D01*
Y805536D01*
Y805118D01*
Y804700D01*
Y804282D01*
Y803865D01*
Y803447D01*
Y803029D01*
X494686D01*
Y803447D01*
Y803865D01*
Y804282D01*
Y804700D01*
Y805118D01*
Y805536D01*
Y805954D01*
Y806372D01*
X498029D01*
Y806790D01*
Y807208D01*
Y807626D01*
Y808044D01*
Y808462D01*
Y808879D01*
Y809297D01*
Y809715D01*
X491343D01*
Y810133D01*
Y810551D01*
Y810969D01*
Y811387D01*
Y811805D01*
Y812223D01*
Y812641D01*
Y813059D01*
Y813476D01*
Y813894D01*
Y814312D01*
Y814730D01*
Y815148D01*
Y815566D01*
Y815984D01*
Y816402D01*
X498029D01*
Y815984D01*
Y815566D01*
Y815148D01*
Y814730D01*
Y814312D01*
Y813894D01*
Y813476D01*
Y813059D01*
Y812641D01*
Y812223D01*
Y811805D01*
Y811387D01*
Y810969D01*
Y810551D01*
Y810133D01*
Y809715D01*
X501372D01*
Y810133D01*
Y810551D01*
Y810969D01*
Y811387D01*
Y811805D01*
Y812223D01*
Y812641D01*
Y813059D01*
X504716D01*
Y812641D01*
Y812223D01*
Y811805D01*
Y811387D01*
Y810969D01*
Y810551D01*
Y810133D01*
Y809715D01*
Y809297D01*
Y808879D01*
Y808462D01*
Y808044D01*
Y807626D01*
Y807208D01*
Y806790D01*
Y806372D01*
X508059D01*
Y806790D01*
Y807208D01*
Y807626D01*
Y808044D01*
Y808462D01*
Y808879D01*
Y809297D01*
Y809715D01*
Y810133D01*
Y810551D01*
Y810969D01*
Y811387D01*
Y811805D01*
Y812223D01*
Y812641D01*
Y813059D01*
X511402D01*
Y812641D01*
Y812223D01*
Y811805D01*
Y811387D01*
Y810969D01*
Y810551D01*
Y810133D01*
Y809715D01*
Y809297D01*
Y808879D01*
Y808462D01*
Y808044D01*
Y807626D01*
Y807208D01*
Y806790D01*
Y806372D01*
Y805954D01*
Y805536D01*
Y805118D01*
Y804700D01*
Y804282D01*
Y803865D01*
Y803447D01*
Y803029D01*
X518089D01*
Y802611D01*
Y802193D01*
Y801775D01*
Y801357D01*
Y800939D01*
Y800521D01*
Y800103D01*
Y799685D01*
X521432D01*
Y800103D01*
Y800521D01*
Y800939D01*
Y801357D01*
Y801775D01*
Y802193D01*
Y802611D01*
Y803029D01*
Y803447D01*
Y803865D01*
Y804282D01*
Y804700D01*
Y805118D01*
Y805536D01*
Y805954D01*
Y806372D01*
X524776D01*
Y806790D01*
Y807208D01*
Y807626D01*
Y808044D01*
Y808462D01*
Y808879D01*
Y809297D01*
Y809715D01*
X518089D01*
Y809297D01*
Y808879D01*
Y808462D01*
Y808044D01*
Y807626D01*
Y807208D01*
Y806790D01*
Y806372D01*
X514746D01*
Y806790D01*
Y807208D01*
Y807626D01*
Y808044D01*
Y808462D01*
Y808879D01*
Y809297D01*
Y809715D01*
Y810133D01*
Y810551D01*
Y810969D01*
Y811387D01*
Y811805D01*
Y812223D01*
Y812641D01*
Y813059D01*
X524776D01*
Y812641D01*
Y812223D01*
Y811805D01*
Y811387D01*
Y810969D01*
Y810551D01*
Y810133D01*
Y809715D01*
X528119D01*
Y809297D01*
Y808879D01*
Y808462D01*
Y808044D01*
Y807626D01*
Y807208D01*
Y806790D01*
Y806372D01*
X534805D01*
Y805954D01*
Y805536D01*
Y805118D01*
Y804700D01*
Y804282D01*
Y803865D01*
Y803447D01*
Y803029D01*
X538149D01*
Y802611D01*
Y802193D01*
Y801775D01*
Y801357D01*
Y800939D01*
Y800521D01*
Y800103D01*
Y799685D01*
X534805D01*
Y799268D01*
Y798850D01*
Y798432D01*
Y798014D01*
Y797596D01*
Y797178D01*
Y796760D01*
Y796342D01*
X528119D01*
Y795924D01*
Y795506D01*
Y795088D01*
Y794670D01*
Y794252D01*
Y793835D01*
Y793417D01*
Y792999D01*
Y792581D01*
Y792163D01*
Y791745D01*
Y791327D01*
Y790909D01*
Y790491D01*
Y790073D01*
Y789656D01*
X541492D01*
Y789238D01*
Y788820D01*
Y788402D01*
Y787984D01*
Y787566D01*
Y787148D01*
Y786730D01*
Y786312D01*
Y785894D01*
Y785476D01*
Y785058D01*
Y784641D01*
Y784223D01*
Y783805D01*
Y783387D01*
Y782969D01*
Y782551D01*
Y782133D01*
Y781715D01*
Y781297D01*
Y780879D01*
Y780461D01*
Y780043D01*
Y779626D01*
X538149D01*
Y779208D01*
Y778790D01*
Y778372D01*
Y777954D01*
Y777536D01*
Y777118D01*
Y776700D01*
Y776282D01*
Y775864D01*
Y775446D01*
Y775029D01*
Y774611D01*
Y774193D01*
Y773775D01*
Y773357D01*
Y772939D01*
X541492D01*
Y772521D01*
Y772103D01*
Y771685D01*
Y771267D01*
Y770849D01*
Y770432D01*
Y770014D01*
Y769596D01*
X531462D01*
Y770014D01*
Y770432D01*
Y770849D01*
Y771267D01*
Y771685D01*
Y772103D01*
Y772521D01*
Y772939D01*
X518089D01*
Y773357D01*
Y773775D01*
Y774193D01*
Y774611D01*
Y775029D01*
Y775446D01*
Y775864D01*
Y776282D01*
X514746D01*
Y776700D01*
Y777118D01*
Y777536D01*
Y777954D01*
Y778372D01*
Y778790D01*
Y779208D01*
Y779626D01*
X518089D01*
Y780043D01*
Y780461D01*
Y780879D01*
Y781297D01*
Y781715D01*
Y782133D01*
Y782551D01*
Y782969D01*
X511402D01*
Y783387D01*
Y783805D01*
Y784223D01*
Y784641D01*
Y785058D01*
Y785476D01*
Y785894D01*
Y786312D01*
Y786730D01*
Y787148D01*
Y787566D01*
Y787984D01*
Y788402D01*
Y788820D01*
Y789238D01*
Y789656D01*
Y790073D01*
Y790491D01*
Y790909D01*
Y791327D01*
Y791745D01*
Y792163D01*
Y792581D01*
Y792999D01*
X508059D01*
Y793417D01*
Y793835D01*
Y794252D01*
Y794670D01*
Y795088D01*
Y795506D01*
Y795924D01*
Y796342D01*
Y796760D01*
Y797178D01*
Y797596D01*
Y798014D01*
Y798432D01*
Y798850D01*
Y799268D01*
Y799685D01*
Y800103D01*
Y800521D01*
Y800939D01*
Y801357D01*
Y801775D01*
Y802193D01*
Y802611D01*
Y803029D01*
X504716D01*
Y803447D01*
Y803865D01*
Y804282D01*
Y804700D01*
Y805118D01*
Y805536D01*
Y805954D01*
Y806372D01*
X501372D01*
Y805954D01*
Y805536D01*
Y805118D01*
Y804700D01*
Y804282D01*
Y803865D01*
Y803447D01*
Y803029D01*
X498029D01*
Y802611D01*
Y802193D01*
Y801775D01*
Y801357D01*
Y800939D01*
Y800521D01*
Y800103D01*
Y799685D01*
X501372D01*
Y799268D01*
Y798850D01*
Y798432D01*
Y798014D01*
Y797596D01*
Y797178D01*
Y796760D01*
Y796342D01*
X504716D01*
Y795924D01*
Y795506D01*
Y795088D01*
Y794670D01*
Y794252D01*
Y793835D01*
Y793417D01*
Y792999D01*
Y792581D01*
Y792163D01*
Y791745D01*
Y791327D01*
Y790909D01*
Y790491D01*
Y790073D01*
Y789656D01*
X508059D01*
Y789238D01*
Y788820D01*
Y788402D01*
Y787984D01*
Y787566D01*
Y787148D01*
Y786730D01*
Y786312D01*
Y785894D01*
Y785476D01*
Y785058D01*
Y784641D01*
Y784223D01*
Y783805D01*
Y783387D01*
Y782969D01*
Y782551D01*
Y782133D01*
Y781715D01*
Y781297D01*
Y780879D01*
Y780461D01*
Y780043D01*
Y779626D01*
Y779208D01*
Y778790D01*
Y778372D01*
Y777954D01*
Y777536D01*
Y777118D01*
Y776700D01*
Y776282D01*
X511402D01*
Y775864D01*
Y775446D01*
Y775029D01*
Y774611D01*
Y774193D01*
Y773775D01*
Y773357D01*
Y772939D01*
Y772521D01*
Y772103D01*
Y771685D01*
Y771267D01*
Y770849D01*
Y770432D01*
Y770014D01*
Y769596D01*
X508059D01*
Y770014D01*
Y770432D01*
Y770849D01*
Y771267D01*
Y771685D01*
Y772103D01*
Y772521D01*
Y772939D01*
Y773357D01*
Y773775D01*
Y774193D01*
Y774611D01*
Y775029D01*
Y775446D01*
Y775864D01*
Y776282D01*
X504716D01*
Y775864D01*
Y775446D01*
Y775029D01*
Y774611D01*
Y774193D01*
Y773775D01*
Y773357D01*
Y772939D01*
Y772521D01*
Y772103D01*
Y771685D01*
Y771267D01*
Y770849D01*
Y770432D01*
Y770014D01*
Y769596D01*
X498029D01*
Y770014D01*
Y770432D01*
Y770849D01*
Y771267D01*
Y771685D01*
Y772103D01*
Y772521D01*
Y772939D01*
X491343D01*
Y772521D01*
Y772103D01*
Y771685D01*
Y771267D01*
Y770849D01*
Y770432D01*
Y770014D01*
Y769596D01*
X484656D01*
Y770014D01*
Y770432D01*
Y770849D01*
Y771267D01*
Y771685D01*
Y772103D01*
Y772521D01*
Y772939D01*
X487999D01*
Y773357D01*
Y773775D01*
Y774193D01*
Y774611D01*
Y775029D01*
Y775446D01*
Y775864D01*
Y776282D01*
X494686D01*
Y776700D01*
Y777118D01*
Y777536D01*
Y777954D01*
Y778372D01*
Y778790D01*
Y779208D01*
Y779626D01*
X487999D01*
Y780043D01*
Y780461D01*
Y780879D01*
Y781297D01*
Y781715D01*
Y782133D01*
Y782551D01*
Y782969D01*
X484656D01*
Y783387D01*
Y783805D01*
Y784223D01*
Y784641D01*
Y785058D01*
Y785476D01*
Y785894D01*
Y786312D01*
X491343D01*
Y785894D01*
Y785476D01*
Y785058D01*
Y784641D01*
Y784223D01*
Y783805D01*
Y783387D01*
Y782969D01*
X494686D01*
Y782551D01*
Y782133D01*
Y781715D01*
Y781297D01*
Y780879D01*
Y780461D01*
Y780043D01*
Y779626D01*
X498029D01*
Y780043D01*
Y780461D01*
Y780879D01*
Y781297D01*
Y781715D01*
Y782133D01*
Y782551D01*
Y782969D01*
X494686D01*
Y783387D01*
Y783805D01*
Y784223D01*
Y784641D01*
Y785058D01*
Y785476D01*
Y785894D01*
Y786312D01*
X498029D01*
Y785894D01*
Y785476D01*
Y785058D01*
Y784641D01*
Y784223D01*
Y783805D01*
Y783387D01*
Y782969D01*
X501372D01*
Y782551D01*
Y782133D01*
Y781715D01*
Y781297D01*
Y780879D01*
Y780461D01*
Y780043D01*
Y779626D01*
X504716D01*
Y780043D01*
Y780461D01*
Y780879D01*
Y781297D01*
Y781715D01*
Y782133D01*
Y782551D01*
Y782969D01*
X501372D01*
Y783387D01*
Y783805D01*
Y784223D01*
Y784641D01*
Y785058D01*
Y785476D01*
Y785894D01*
Y786312D01*
X498029D01*
Y786730D01*
Y787148D01*
Y787566D01*
Y787984D01*
Y788402D01*
Y788820D01*
Y789238D01*
Y789656D01*
X501372D01*
Y789238D01*
Y788820D01*
Y788402D01*
Y787984D01*
Y787566D01*
Y787148D01*
Y786730D01*
Y786312D01*
X504716D01*
Y786730D01*
Y787148D01*
Y787566D01*
Y787984D01*
Y788402D01*
Y788820D01*
Y789238D01*
Y789656D01*
X501372D01*
Y790073D01*
Y790491D01*
Y790909D01*
Y791327D01*
Y791745D01*
Y792163D01*
Y792581D01*
Y792999D01*
Y793417D01*
Y793835D01*
Y794252D01*
Y794670D01*
Y795088D01*
Y795506D01*
Y795924D01*
Y796342D01*
X498029D01*
Y796760D01*
Y797178D01*
Y797596D01*
Y798014D01*
Y798432D01*
Y798850D01*
Y799268D01*
Y799685D01*
X494686D01*
Y799268D01*
Y798850D01*
Y798432D01*
Y798014D01*
Y797596D01*
Y797178D01*
Y796760D01*
Y796342D01*
Y795924D01*
Y795506D01*
Y795088D01*
Y794670D01*
Y794252D01*
Y793835D01*
Y793417D01*
Y792999D01*
X487999D01*
Y792581D01*
Y792163D01*
Y791745D01*
Y791327D01*
Y790909D01*
Y790491D01*
Y790073D01*
Y789656D01*
X484656D01*
Y790073D01*
Y790491D01*
Y790909D01*
Y791327D01*
Y791745D01*
Y792163D01*
Y792581D01*
Y792999D01*
Y793417D01*
Y793835D01*
Y794252D01*
Y794670D01*
Y795088D01*
Y795506D01*
Y795924D01*
Y796342D01*
X477969D01*
Y796760D01*
Y797178D01*
Y797596D01*
Y798014D01*
Y798432D01*
Y798850D01*
Y799268D01*
Y799685D01*
X474626D01*
Y800103D01*
Y800521D01*
Y800939D01*
Y801357D01*
Y801775D01*
Y802193D01*
Y802611D01*
Y803029D01*
X471283D01*
Y803447D01*
Y803865D01*
Y804282D01*
Y804700D01*
Y805118D01*
Y805536D01*
Y805954D01*
Y806372D01*
X474626D01*
Y805954D01*
Y805536D01*
Y805118D01*
Y804700D01*
Y804282D01*
Y803865D01*
Y803447D01*
Y803029D01*
X477969D01*
Y802611D01*
Y802193D01*
Y801775D01*
Y801357D01*
Y800939D01*
Y800521D01*
Y800103D01*
Y799685D01*
X484656D01*
Y799268D01*
Y798850D01*
Y798432D01*
Y798014D01*
Y797596D01*
Y797178D01*
Y796760D01*
Y796342D01*
X491343D01*
Y796760D01*
Y797178D01*
Y797596D01*
Y798014D01*
Y798432D01*
Y798850D01*
Y799268D01*
Y799685D01*
Y800103D01*
Y800521D01*
Y800939D01*
Y801357D01*
Y801775D01*
Y802193D01*
Y802611D01*
Y803029D01*
X484656D01*
Y803447D01*
Y803865D01*
Y804282D01*
Y804700D01*
Y805118D01*
Y805536D01*
Y805954D01*
Y806372D01*
X481312D01*
Y806790D01*
Y807208D01*
Y807626D01*
Y808044D01*
Y808462D01*
Y808879D01*
Y809297D01*
Y809715D01*
X464596D01*
Y809297D01*
Y808879D01*
Y808462D01*
Y808044D01*
Y807626D01*
Y807208D01*
Y806790D01*
Y806372D01*
X467939D01*
Y805954D01*
Y805536D01*
Y805118D01*
Y804700D01*
Y804282D01*
Y803865D01*
Y803447D01*
Y803029D01*
X464596D01*
Y803447D01*
Y803865D01*
Y804282D01*
Y804700D01*
Y805118D01*
Y805536D01*
Y805954D01*
Y806372D01*
X457909D01*
Y806790D01*
Y807208D01*
Y807626D01*
Y808044D01*
Y808462D01*
Y808879D01*
Y809297D01*
Y809715D01*
Y810133D01*
Y810551D01*
Y810969D01*
Y811387D01*
Y811805D01*
Y812223D01*
Y812641D01*
Y813059D01*
X461253D01*
Y813476D01*
Y813894D01*
Y814312D01*
Y814730D01*
Y815148D01*
Y815566D01*
Y815984D01*
Y816402D01*
X457909D01*
Y816820D01*
Y817238D01*
Y817656D01*
Y818074D01*
Y818492D01*
Y818909D01*
Y819327D01*
Y819745D01*
Y820163D01*
Y820581D01*
Y820999D01*
Y821417D01*
Y821835D01*
Y822253D01*
Y822671D01*
Y823089D01*
Y823506D01*
Y823924D01*
Y824342D01*
Y824760D01*
Y825178D01*
Y825596D01*
Y826014D01*
Y826432D01*
X461253D01*
Y826014D01*
D02*
G37*
G36*
X481312Y792581D02*
Y792163D01*
Y791745D01*
Y791327D01*
Y790909D01*
Y790491D01*
Y790073D01*
Y789656D01*
Y789238D01*
Y788820D01*
Y788402D01*
Y787984D01*
Y787566D01*
Y787148D01*
Y786730D01*
Y786312D01*
Y785894D01*
Y785476D01*
Y785058D01*
Y784641D01*
Y784223D01*
Y783805D01*
Y783387D01*
Y782969D01*
Y782551D01*
Y782133D01*
Y781715D01*
Y781297D01*
Y780879D01*
Y780461D01*
Y780043D01*
Y779626D01*
Y779208D01*
Y778790D01*
Y778372D01*
Y777954D01*
Y777536D01*
Y777118D01*
Y776700D01*
Y776282D01*
Y775864D01*
Y775446D01*
Y775029D01*
Y774611D01*
Y774193D01*
Y773775D01*
Y773357D01*
Y772939D01*
Y772521D01*
Y772103D01*
Y771685D01*
Y771267D01*
Y770849D01*
Y770432D01*
Y770014D01*
Y769596D01*
X457909D01*
Y770014D01*
Y770432D01*
Y770849D01*
Y771267D01*
Y771685D01*
Y772103D01*
Y772521D01*
Y772939D01*
Y773357D01*
Y773775D01*
Y774193D01*
Y774611D01*
Y775029D01*
Y775446D01*
Y775864D01*
Y776282D01*
Y776700D01*
Y777118D01*
Y777536D01*
Y777954D01*
Y778372D01*
Y778790D01*
Y779208D01*
Y779626D01*
Y780043D01*
Y780461D01*
Y780879D01*
Y781297D01*
Y781715D01*
Y782133D01*
Y782551D01*
Y782969D01*
Y783387D01*
Y783805D01*
Y784223D01*
Y784641D01*
Y785058D01*
Y785476D01*
Y785894D01*
Y786312D01*
Y786730D01*
Y787148D01*
Y787566D01*
Y787984D01*
Y788402D01*
Y788820D01*
Y789238D01*
Y789656D01*
Y790073D01*
Y790491D01*
Y790909D01*
Y791327D01*
Y791745D01*
Y792163D01*
Y792581D01*
Y792999D01*
X481312D01*
Y792581D01*
D02*
G37*
G36*
X602000Y736500D02*
X552000D01*
Y751500D01*
X602000D01*
Y736500D01*
D02*
G37*
G36*
X305000Y736500D02*
X255000D01*
Y751500D01*
X305000D01*
Y736500D01*
D02*
G37*
G36*
X602000Y548500D02*
X552000D01*
Y563500D01*
X602000D01*
Y548500D01*
D02*
G37*
G36*
X305000Y548500D02*
X255000D01*
Y563500D01*
X305000D01*
Y548500D01*
D02*
G37*
G36*
X246000Y444556D02*
X238556Y452000D01*
X246000D01*
Y444556D01*
D02*
G37*
G36*
X190000Y240000D02*
Y250000D01*
X200000D01*
X190000Y240000D01*
D02*
G37*
%LPC*%
G36*
X379444Y832516D02*
X379407D01*
X379296Y832497D01*
X379129Y832479D01*
X378944Y832423D01*
X378703Y832349D01*
X378462Y832219D01*
X378222Y832053D01*
X377981Y831812D01*
X377962Y831775D01*
X377888Y831683D01*
X377796Y831516D01*
X377703Y831294D01*
X377592Y830997D01*
X377499Y830646D01*
X377425Y830220D01*
X377407Y829738D01*
Y829720D01*
Y829683D01*
Y829590D01*
Y829498D01*
X377425Y829368D01*
Y829238D01*
X377462Y828923D01*
X377499Y828572D01*
X377573Y828201D01*
X377685Y827868D01*
X377740Y827720D01*
X377814Y827590D01*
Y827572D01*
X377851Y827553D01*
X377925Y827442D01*
X378055Y827294D01*
X378240Y827127D01*
X378481Y826942D01*
X378759Y826794D01*
X379092Y826683D01*
X379277Y826665D01*
X379462Y826646D01*
X379499D01*
X379610Y826665D01*
X379758Y826683D01*
X379962Y826739D01*
X380184Y826813D01*
X380425Y826942D01*
X380666Y827109D01*
X380906Y827350D01*
X380925Y827387D01*
X380999Y827479D01*
X381092Y827646D01*
X381203Y827887D01*
X381314Y828183D01*
X381406Y828553D01*
X381480Y828998D01*
X381499Y829498D01*
Y829516D01*
Y829572D01*
Y829646D01*
Y829757D01*
X381480Y829886D01*
X381462Y830053D01*
X381425Y830386D01*
X381351Y830775D01*
X381258Y831145D01*
X381110Y831516D01*
X381017Y831664D01*
X380906Y831812D01*
X380888Y831849D01*
X380795Y831923D01*
X380684Y832034D01*
X380518Y832164D01*
X380295Y832293D01*
X380055Y832405D01*
X379758Y832479D01*
X379444Y832516D01*
D02*
G37*
G36*
X287305Y832460D02*
X287268D01*
X287157Y832442D01*
X286990Y832423D01*
X286786Y832368D01*
X286546Y832293D01*
X286287Y832164D01*
X286046Y831997D01*
X285805Y831757D01*
X285787Y831720D01*
X285713Y831627D01*
X285620Y831460D01*
X285527Y831238D01*
X285416Y830942D01*
X285324Y830590D01*
X285250Y830183D01*
X285231Y829701D01*
Y829683D01*
Y829627D01*
Y829553D01*
X285250Y829442D01*
Y829312D01*
X285268Y829164D01*
X285305Y828831D01*
X285379Y828442D01*
X285490Y828053D01*
X285639Y827701D01*
X285731Y827535D01*
X285842Y827387D01*
X285879Y827350D01*
X285953Y827275D01*
X286083Y827146D01*
X286268Y827016D01*
X286472Y826887D01*
X286731Y826757D01*
X287027Y826683D01*
X287342Y826646D01*
X287379D01*
X287490Y826665D01*
X287638Y826683D01*
X287842Y826739D01*
X288064Y826813D01*
X288305Y826942D01*
X288546Y827109D01*
X288768Y827331D01*
X288786Y827368D01*
X288860Y827461D01*
X288953Y827627D01*
X289064Y827868D01*
X289101Y828016D01*
X289157Y828183D01*
X289212Y828368D01*
X289249Y828572D01*
X289286Y828794D01*
X289323Y829035D01*
X289342Y829294D01*
Y829572D01*
Y829590D01*
Y829646D01*
Y829720D01*
Y829812D01*
X289323Y829942D01*
X289305Y830071D01*
X289268Y830386D01*
X289194Y830738D01*
X289101Y831108D01*
X288953Y831442D01*
X288749Y831738D01*
X288731Y831775D01*
X288638Y831849D01*
X288509Y831960D01*
X288342Y832108D01*
X288138Y832238D01*
X287897Y832349D01*
X287620Y832423D01*
X287305Y832460D01*
D02*
G37*
G36*
X538149Y849417D02*
X521850D01*
Y848999D01*
Y848581D01*
Y848163D01*
Y847745D01*
Y847327D01*
Y846909D01*
Y846492D01*
Y846074D01*
Y845656D01*
Y845238D01*
Y844820D01*
Y844402D01*
Y843984D01*
Y843566D01*
Y843148D01*
Y842730D01*
Y842312D01*
Y841895D01*
Y841477D01*
Y841059D01*
Y840641D01*
Y840223D01*
Y839805D01*
Y839387D01*
Y838969D01*
Y838551D01*
Y838133D01*
Y837715D01*
Y837298D01*
Y836880D01*
Y836462D01*
Y836044D01*
Y835626D01*
Y835208D01*
Y834790D01*
Y834372D01*
Y833954D01*
Y833536D01*
Y833118D01*
X537731D01*
Y833536D01*
X538149D01*
Y833954D01*
Y834372D01*
Y834790D01*
Y835208D01*
Y835626D01*
Y836044D01*
Y836462D01*
Y836880D01*
Y837298D01*
Y837715D01*
Y838133D01*
Y838551D01*
Y838969D01*
Y839387D01*
Y839805D01*
Y840223D01*
Y840641D01*
Y841059D01*
Y841477D01*
Y841895D01*
Y842312D01*
Y842730D01*
Y843148D01*
Y843566D01*
Y843984D01*
Y844402D01*
Y844820D01*
Y845238D01*
Y845656D01*
Y846074D01*
Y846492D01*
Y846909D01*
Y847327D01*
Y847745D01*
Y848163D01*
Y848581D01*
Y848999D01*
Y849417D01*
D02*
G37*
%LPD*%
G36*
X534805Y846074D02*
Y845656D01*
Y845238D01*
Y844820D01*
Y844402D01*
Y843984D01*
Y843566D01*
Y843148D01*
Y842730D01*
Y842312D01*
Y841895D01*
Y841477D01*
Y841059D01*
Y840641D01*
Y840223D01*
Y839805D01*
Y839387D01*
Y838969D01*
Y838551D01*
Y838133D01*
Y837715D01*
Y837298D01*
Y836880D01*
Y836462D01*
X524776D01*
Y836880D01*
Y837298D01*
Y837715D01*
Y838133D01*
Y838551D01*
Y838969D01*
Y839387D01*
Y839805D01*
Y840223D01*
Y840641D01*
Y841059D01*
Y841477D01*
Y841895D01*
Y842312D01*
Y842730D01*
Y843148D01*
Y843566D01*
Y843984D01*
Y844402D01*
Y844820D01*
Y845238D01*
Y845656D01*
Y846074D01*
Y846492D01*
X534805D01*
Y846074D01*
D02*
G37*
%LPC*%
G36*
X477969Y849417D02*
X461671D01*
Y848999D01*
Y848581D01*
Y848163D01*
Y847745D01*
Y847327D01*
Y846909D01*
Y846492D01*
Y846074D01*
Y845656D01*
Y845238D01*
Y844820D01*
Y844402D01*
Y843984D01*
Y843566D01*
Y843148D01*
Y842730D01*
Y842312D01*
Y841895D01*
Y841477D01*
Y841059D01*
Y840641D01*
Y840223D01*
Y839805D01*
Y839387D01*
Y838969D01*
Y838551D01*
Y838133D01*
Y837715D01*
Y837298D01*
Y836880D01*
Y836462D01*
Y836044D01*
Y835626D01*
Y835208D01*
Y834790D01*
Y834372D01*
Y833954D01*
Y833536D01*
Y833118D01*
X477551D01*
Y833536D01*
X477969D01*
Y833954D01*
Y834372D01*
Y834790D01*
Y835208D01*
Y835626D01*
Y836044D01*
Y836462D01*
Y836880D01*
Y837298D01*
Y837715D01*
Y838133D01*
Y838551D01*
Y838969D01*
Y839387D01*
Y839805D01*
Y840223D01*
Y840641D01*
Y841059D01*
Y841477D01*
Y841895D01*
Y842312D01*
Y842730D01*
Y843148D01*
Y843566D01*
Y843984D01*
Y844402D01*
Y844820D01*
Y845238D01*
Y845656D01*
Y846074D01*
Y846492D01*
Y846909D01*
Y847327D01*
Y847745D01*
Y848163D01*
Y848581D01*
Y848999D01*
Y849417D01*
D02*
G37*
%LPD*%
G36*
X474626Y846074D02*
Y845656D01*
Y845238D01*
Y844820D01*
Y844402D01*
Y843984D01*
Y843566D01*
Y843148D01*
Y842730D01*
Y842312D01*
Y841895D01*
Y841477D01*
Y841059D01*
Y840641D01*
Y840223D01*
Y839805D01*
Y839387D01*
Y838969D01*
Y838551D01*
Y838133D01*
Y837715D01*
Y837298D01*
Y836880D01*
Y836462D01*
X464596D01*
Y836880D01*
Y837298D01*
Y837715D01*
Y838133D01*
Y838551D01*
Y838969D01*
Y839387D01*
Y839805D01*
Y840223D01*
Y840641D01*
Y841059D01*
Y841477D01*
Y841895D01*
Y842312D01*
Y842730D01*
Y843148D01*
Y843566D01*
Y843984D01*
Y844402D01*
Y844820D01*
Y845238D01*
Y845656D01*
Y846074D01*
Y846492D01*
X474626D01*
Y846074D01*
D02*
G37*
%LPC*%
G36*
X370593Y829349D02*
X370574D01*
X370500Y829312D01*
X370389Y829294D01*
X370222Y829238D01*
X370019Y829183D01*
X369741Y829109D01*
X369445Y829035D01*
X369074Y828960D01*
X369037D01*
X368982Y828942D01*
X368908Y828923D01*
X368741Y828886D01*
X368519Y828831D01*
X368297Y828775D01*
X368074Y828701D01*
X367889Y828609D01*
X367741Y828535D01*
X367723Y828516D01*
X367667Y828479D01*
X367593Y828405D01*
X367519Y828313D01*
X367426Y828183D01*
X367352Y828035D01*
X367297Y827868D01*
X367278Y827683D01*
Y827664D01*
Y827590D01*
X367297Y827498D01*
X367334Y827387D01*
X367371Y827238D01*
X367426Y827090D01*
X367519Y826942D01*
X367649Y826794D01*
X367667Y826776D01*
X367723Y826739D01*
X367797Y826683D01*
X367926Y826609D01*
X368056Y826535D01*
X368223Y826479D01*
X368426Y826442D01*
X368630Y826424D01*
X368741D01*
X368871Y826442D01*
X369037Y826479D01*
X369241Y826535D01*
X369445Y826609D01*
X369685Y826702D01*
X369907Y826850D01*
X369926Y826868D01*
X369982Y826905D01*
X370056Y826979D01*
X370148Y827072D01*
X370241Y827202D01*
X370333Y827331D01*
X370426Y827498D01*
X370482Y827664D01*
Y827683D01*
X370500Y827720D01*
X370519Y827812D01*
X370537Y827924D01*
X370556Y828090D01*
X370574Y828294D01*
X370593Y828553D01*
Y828849D01*
Y829349D01*
D02*
G37*
G36*
X346799Y835590D02*
X344225D01*
Y832627D01*
X346706D01*
X347021Y832645D01*
X347595D01*
X347706Y832664D01*
X347817D01*
X347891Y832682D01*
X348002Y832701D01*
X348169Y832756D01*
X348336Y832812D01*
X348502Y832886D01*
X348669Y832979D01*
X348817Y833108D01*
X348836Y833127D01*
X348873Y833182D01*
X348947Y833256D01*
X349021Y833386D01*
X349076Y833534D01*
X349150Y833701D01*
X349188Y833904D01*
X349206Y834127D01*
Y834145D01*
Y834219D01*
X349188Y834330D01*
X349169Y834479D01*
X349132Y834627D01*
X349058Y834775D01*
X348984Y834941D01*
X348873Y835089D01*
X348854Y835108D01*
X348817Y835145D01*
X348725Y835219D01*
X348632Y835293D01*
X348484Y835367D01*
X348317Y835441D01*
X348114Y835497D01*
X347891Y835534D01*
X347873D01*
X347799Y835553D01*
X347595D01*
X347484Y835571D01*
X347002D01*
X346799Y835590D01*
D02*
G37*
G36*
X346910Y830497D02*
X344225D01*
Y827072D01*
X347077D01*
X347354Y827090D01*
X347651D01*
X347947Y827109D01*
X348188Y827127D01*
X348299D01*
X348373Y827146D01*
X348391D01*
X348465Y827164D01*
X348576Y827202D01*
X348706Y827238D01*
X348854Y827313D01*
X349021Y827405D01*
X349169Y827516D01*
X349317Y827646D01*
X349336Y827664D01*
X349373Y827720D01*
X349428Y827812D01*
X349502Y827942D01*
X349576Y828090D01*
X349632Y828275D01*
X349669Y828498D01*
X349687Y828738D01*
Y828757D01*
Y828831D01*
X349669Y828942D01*
X349650Y829072D01*
X349613Y829238D01*
X349558Y829386D01*
X349484Y829553D01*
X349391Y829720D01*
X349373Y829738D01*
X349336Y829794D01*
X349280Y829868D01*
X349188Y829942D01*
X349076Y830053D01*
X348928Y830146D01*
X348762Y830238D01*
X348576Y830312D01*
X348558D01*
X348465Y830349D01*
X348317Y830368D01*
X348225Y830386D01*
X348095Y830405D01*
X347965Y830423D01*
X347799Y830442D01*
X347614Y830460D01*
X347391D01*
X347169Y830479D01*
X346910Y830497D01*
D02*
G37*
G36*
X326801Y829349D02*
X326782D01*
X326708Y829312D01*
X326597Y829294D01*
X326431Y829238D01*
X326227Y829183D01*
X325949Y829109D01*
X325653Y829035D01*
X325283Y828960D01*
X325246D01*
X325190Y828942D01*
X325116Y828923D01*
X324949Y828886D01*
X324727Y828831D01*
X324505Y828775D01*
X324283Y828701D01*
X324098Y828609D01*
X323949Y828535D01*
X323931Y828516D01*
X323875Y828479D01*
X323801Y828405D01*
X323727Y828313D01*
X323635Y828183D01*
X323560Y828035D01*
X323505Y827868D01*
X323486Y827683D01*
Y827664D01*
Y827590D01*
X323505Y827498D01*
X323542Y827387D01*
X323579Y827238D01*
X323635Y827090D01*
X323727Y826942D01*
X323857Y826794D01*
X323875Y826776D01*
X323931Y826739D01*
X324005Y826683D01*
X324134Y826609D01*
X324264Y826535D01*
X324431Y826479D01*
X324635Y826442D01*
X324838Y826424D01*
X324949D01*
X325079Y826442D01*
X325246Y826479D01*
X325449Y826535D01*
X325653Y826609D01*
X325894Y826702D01*
X326116Y826850D01*
X326134Y826868D01*
X326190Y826905D01*
X326264Y826979D01*
X326357Y827072D01*
X326449Y827202D01*
X326542Y827331D01*
X326634Y827498D01*
X326690Y827664D01*
Y827683D01*
X326708Y827720D01*
X326727Y827812D01*
X326745Y827924D01*
X326764Y828090D01*
X326782Y828294D01*
X326801Y828553D01*
Y828849D01*
Y829349D01*
D02*
G37*
G36*
X253568Y835552D02*
X251642D01*
Y831905D01*
X253420D01*
X253549Y831923D01*
X253883D01*
X254216Y831942D01*
X254549Y831979D01*
X254845Y832034D01*
X254975Y832053D01*
X255086Y832090D01*
X255105Y832108D01*
X255179Y832127D01*
X255271Y832182D01*
X255382Y832238D01*
X255512Y832330D01*
X255642Y832442D01*
X255790Y832571D01*
X255901Y832719D01*
X255919Y832738D01*
X255956Y832794D01*
X255993Y832886D01*
X256049Y833016D01*
X256105Y833164D01*
X256160Y833331D01*
X256179Y833516D01*
X256197Y833719D01*
Y833756D01*
Y833830D01*
X256179Y833960D01*
X256142Y834127D01*
X256086Y834312D01*
X256012Y834516D01*
X255919Y834701D01*
X255771Y834886D01*
X255753Y834904D01*
X255697Y834960D01*
X255605Y835034D01*
X255494Y835126D01*
X255345Y835238D01*
X255160Y835330D01*
X254956Y835404D01*
X254734Y835460D01*
X254716D01*
X254642Y835478D01*
X254512Y835497D01*
X254327Y835515D01*
X254086D01*
X253920Y835534D01*
X253753D01*
X253568Y835552D01*
D02*
G37*
G36*
X236144Y834738D02*
X234403Y829979D01*
X237940D01*
X236144Y834738D01*
D02*
G37*
G36*
X209795Y835552D02*
X207869D01*
Y831905D01*
X209646D01*
X209776Y831923D01*
X210109D01*
X210443Y831942D01*
X210776Y831979D01*
X211072Y832034D01*
X211202Y832053D01*
X211313Y832090D01*
X211331Y832108D01*
X211405Y832127D01*
X211498Y832182D01*
X211609Y832238D01*
X211739Y832330D01*
X211868Y832442D01*
X212017Y832571D01*
X212128Y832719D01*
X212146Y832738D01*
X212183Y832794D01*
X212220Y832886D01*
X212276Y833016D01*
X212331Y833164D01*
X212387Y833330D01*
X212405Y833516D01*
X212424Y833719D01*
Y833756D01*
Y833830D01*
X212405Y833960D01*
X212368Y834127D01*
X212313Y834312D01*
X212239Y834516D01*
X212146Y834701D01*
X211998Y834886D01*
X211980Y834904D01*
X211924Y834960D01*
X211831Y835034D01*
X211720Y835126D01*
X211572Y835238D01*
X211387Y835330D01*
X211183Y835404D01*
X210961Y835460D01*
X210942D01*
X210868Y835478D01*
X210739Y835497D01*
X210554Y835515D01*
X210313D01*
X210146Y835534D01*
X209980D01*
X209795Y835552D01*
D02*
G37*
G36*
X358760Y832405D02*
X358668D01*
X358594Y832386D01*
X358427Y832368D01*
X358205Y832312D01*
X357946Y832219D01*
X357668Y832090D01*
X357390Y831905D01*
X357131Y831664D01*
X357113Y831627D01*
X357038Y831534D01*
X356927Y831349D01*
X356816Y831127D01*
X356687Y830831D01*
X356594Y830460D01*
X356520Y830034D01*
X356483Y829553D01*
Y829535D01*
Y829498D01*
Y829424D01*
X356502Y829331D01*
Y829201D01*
X356520Y829072D01*
X356557Y828775D01*
X356650Y828424D01*
X356761Y828072D01*
X356909Y827720D01*
X357131Y827424D01*
X357168Y827387D01*
X357242Y827313D01*
X357390Y827202D01*
X357594Y827072D01*
X357816Y826924D01*
X358094Y826813D01*
X358409Y826739D01*
X358760Y826702D01*
X358853D01*
X358927Y826720D01*
X359094Y826739D01*
X359316Y826794D01*
X359575Y826887D01*
X359853Y826998D01*
X360112Y827183D01*
X360372Y827424D01*
X360409Y827461D01*
X360483Y827553D01*
X360575Y827738D01*
X360705Y827961D01*
X360834Y828275D01*
X360927Y828627D01*
X361001Y829072D01*
X361038Y829553D01*
Y829572D01*
Y829609D01*
Y829683D01*
X361020Y829775D01*
Y829886D01*
X361001Y830034D01*
X360964Y830331D01*
X360871Y830664D01*
X360760Y831016D01*
X360594Y831368D01*
X360372Y831664D01*
X360335Y831701D01*
X360260Y831775D01*
X360112Y831905D01*
X359927Y832034D01*
X359686Y832164D01*
X359427Y832293D01*
X359112Y832368D01*
X358760Y832405D01*
D02*
G37*
G36*
X297489Y832516D02*
X297360D01*
X297211Y832479D01*
X297026Y832442D01*
X296822Y832368D01*
X296600Y832275D01*
X296378Y832127D01*
X296174Y831923D01*
X296156Y831905D01*
X296100Y831812D01*
X296008Y831683D01*
X295915Y831497D01*
X295804Y831275D01*
X295730Y830997D01*
X295674Y830683D01*
X295656Y830331D01*
X299322D01*
Y830349D01*
Y830386D01*
Y830423D01*
X299304Y830497D01*
X299285Y830701D01*
X299248Y830923D01*
X299174Y831182D01*
X299081Y831460D01*
X298933Y831720D01*
X298767Y831942D01*
X298748Y831960D01*
X298674Y832034D01*
X298563Y832127D01*
X298415Y832238D01*
X298230Y832331D01*
X298008Y832423D01*
X297767Y832497D01*
X297489Y832516D01*
D02*
G37*
G36*
X264641D02*
X264511D01*
X264363Y832479D01*
X264178Y832442D01*
X263974Y832368D01*
X263752Y832275D01*
X263530Y832127D01*
X263326Y831923D01*
X263307Y831905D01*
X263252Y831812D01*
X263159Y831683D01*
X263067Y831497D01*
X262956Y831275D01*
X262882Y830997D01*
X262826Y830683D01*
X262808Y830331D01*
X266474D01*
Y830349D01*
Y830386D01*
Y830423D01*
X266455Y830497D01*
X266437Y830701D01*
X266400Y830923D01*
X266326Y831182D01*
X266233Y831460D01*
X266085Y831720D01*
X265918Y831942D01*
X265900Y831960D01*
X265826Y832034D01*
X265715Y832127D01*
X265567Y832238D01*
X265381Y832331D01*
X265159Y832423D01*
X264918Y832497D01*
X264641Y832516D01*
D02*
G37*
G36*
X491343Y836462D02*
X487999D01*
Y836044D01*
Y835626D01*
Y835208D01*
Y834790D01*
Y834372D01*
Y833954D01*
Y833536D01*
Y833118D01*
Y832701D01*
Y832283D01*
Y831865D01*
Y831447D01*
Y831029D01*
Y830611D01*
Y830193D01*
Y829775D01*
X491343D01*
Y830193D01*
Y830611D01*
Y831029D01*
Y831447D01*
Y831865D01*
Y832283D01*
Y832701D01*
Y833118D01*
Y833536D01*
Y833954D01*
Y834372D01*
Y834790D01*
Y835208D01*
Y835626D01*
Y836044D01*
Y836462D01*
D02*
G37*
G36*
Y826432D02*
X487999D01*
Y826014D01*
Y825596D01*
Y825178D01*
Y824760D01*
Y824342D01*
Y823924D01*
Y823506D01*
Y823089D01*
X491343D01*
Y823506D01*
Y823924D01*
Y824342D01*
Y824760D01*
Y825178D01*
Y825596D01*
Y826014D01*
Y826432D01*
D02*
G37*
G36*
X263511Y800967D02*
X261585D01*
Y797319D01*
X263363D01*
X263493Y797338D01*
X263826D01*
X264159Y797356D01*
X264492Y797393D01*
X264789Y797449D01*
X264918Y797467D01*
X265030Y797505D01*
X265048Y797523D01*
X265122Y797542D01*
X265215Y797597D01*
X265326Y797653D01*
X265455Y797745D01*
X265585Y797856D01*
X265733Y797986D01*
X265844Y798134D01*
X265863Y798153D01*
X265900Y798208D01*
X265937Y798301D01*
X265992Y798430D01*
X266048Y798578D01*
X266103Y798745D01*
X266122Y798930D01*
X266140Y799134D01*
Y799171D01*
Y799245D01*
X266122Y799375D01*
X266085Y799541D01*
X266029Y799726D01*
X265955Y799930D01*
X265863Y800115D01*
X265715Y800301D01*
X265696Y800319D01*
X265641Y800375D01*
X265548Y800449D01*
X265437Y800541D01*
X265289Y800652D01*
X265104Y800745D01*
X264900Y800819D01*
X264678Y800874D01*
X264659D01*
X264585Y800893D01*
X264456Y800912D01*
X264270Y800930D01*
X264030D01*
X263863Y800949D01*
X263696D01*
X263511Y800967D01*
D02*
G37*
G36*
X251623Y800967D02*
X248661D01*
Y797708D01*
X251179D01*
X251549Y797727D01*
X251938Y797745D01*
X252327Y797764D01*
X252494Y797782D01*
X252642Y797801D01*
X252790Y797838D01*
X252883Y797856D01*
X252901D01*
X252957Y797893D01*
X253049Y797930D01*
X253142Y797986D01*
X253383Y798153D01*
X253494Y798264D01*
X253605Y798393D01*
X253623Y798412D01*
X253642Y798467D01*
X253697Y798541D01*
X253753Y798652D01*
X253790Y798801D01*
X253846Y798967D01*
X253864Y799153D01*
X253883Y799356D01*
Y799393D01*
Y799467D01*
X253864Y799578D01*
X253846Y799726D01*
X253790Y799893D01*
X253734Y800060D01*
X253642Y800245D01*
X253531Y800393D01*
X253512Y800412D01*
X253475Y800467D01*
X253383Y800523D01*
X253272Y800615D01*
X253142Y800708D01*
X252975Y800782D01*
X252771Y800856D01*
X252549Y800912D01*
X252531D01*
X252475Y800930D01*
X252364D01*
X252197Y800949D01*
X251790D01*
X251623Y800967D01*
D02*
G37*
G36*
X214257Y800152D02*
X212516Y795394D01*
X216053D01*
X214257Y800152D01*
D02*
G37*
G36*
X357187Y801171D02*
X357113D01*
X357020Y801152D01*
X356927Y801134D01*
X356798Y801097D01*
X356668Y801041D01*
X356520Y800967D01*
X356390Y800874D01*
X356372Y800856D01*
X356335Y800819D01*
X356279Y800745D01*
X356205Y800652D01*
X356113Y800504D01*
X356039Y800338D01*
X355946Y800115D01*
X355872Y799856D01*
Y799838D01*
X355853Y799819D01*
Y799745D01*
X355835Y799671D01*
X355816Y799560D01*
X355798Y799430D01*
X355779Y799282D01*
X355761Y799097D01*
X355724Y798875D01*
X355705Y798653D01*
X355687Y798375D01*
X355668Y798097D01*
X355650Y797764D01*
Y797430D01*
X355631Y797042D01*
Y796634D01*
Y796616D01*
Y796542D01*
Y796412D01*
Y796264D01*
Y796079D01*
X355650Y795875D01*
Y795634D01*
X355668Y795394D01*
X355687Y794875D01*
X355724Y794357D01*
X355742Y794116D01*
X355779Y793894D01*
X355816Y793690D01*
X355853Y793505D01*
X355872Y793468D01*
X355891Y793375D01*
X355946Y793227D01*
X356002Y793061D01*
X356094Y792875D01*
X356187Y792690D01*
X356298Y792524D01*
X356409Y792394D01*
X356427Y792375D01*
X356465Y792357D01*
X356539Y792301D01*
X356631Y792264D01*
X356742Y792209D01*
X356872Y792153D01*
X357020Y792135D01*
X357187Y792116D01*
X357261D01*
X357353Y792135D01*
X357446Y792153D01*
X357575Y792190D01*
X357705Y792227D01*
X357835Y792301D01*
X357964Y792394D01*
X357983Y792412D01*
X358020Y792449D01*
X358094Y792524D01*
X358168Y792635D01*
X358242Y792764D01*
X358335Y792949D01*
X358427Y793153D01*
X358501Y793412D01*
Y793431D01*
X358520Y793449D01*
Y793523D01*
X358538Y793597D01*
X358557Y793709D01*
X358575Y793838D01*
X358612Y793986D01*
X358631Y794172D01*
X358649Y794375D01*
X358686Y794616D01*
X358705Y794875D01*
X358723Y795171D01*
X358742Y795486D01*
Y795838D01*
X358760Y796227D01*
Y796634D01*
Y796653D01*
Y796727D01*
Y796856D01*
Y797005D01*
Y797190D01*
X358742Y797393D01*
Y797634D01*
X358723Y797875D01*
X358705Y798393D01*
X358668Y798893D01*
X358631Y799134D01*
X358594Y799375D01*
X358557Y799578D01*
X358520Y799745D01*
Y799764D01*
X358501Y799782D01*
X358483Y799875D01*
X358427Y800023D01*
X358372Y800208D01*
X358279Y800393D01*
X358186Y800578D01*
X358075Y800745D01*
X357964Y800874D01*
X357946Y800893D01*
X357909Y800930D01*
X357835Y800967D01*
X357742Y801023D01*
X357631Y801078D01*
X357501Y801134D01*
X357353Y801152D01*
X357187Y801171D01*
D02*
G37*
G36*
X322320D02*
X322246D01*
X322153Y801152D01*
X322061Y801134D01*
X321931Y801097D01*
X321801Y801041D01*
X321653Y800967D01*
X321524Y800874D01*
X321505Y800856D01*
X321468Y800819D01*
X321413Y800745D01*
X321339Y800652D01*
X321246Y800504D01*
X321172Y800338D01*
X321079Y800115D01*
X321005Y799856D01*
Y799838D01*
X320987Y799819D01*
Y799745D01*
X320968Y799671D01*
X320950Y799560D01*
X320931Y799430D01*
X320913Y799282D01*
X320894Y799097D01*
X320857Y798875D01*
X320839Y798653D01*
X320820Y798375D01*
X320802Y798097D01*
X320783Y797764D01*
Y797430D01*
X320765Y797042D01*
Y796634D01*
Y796616D01*
Y796542D01*
Y796412D01*
Y796264D01*
Y796079D01*
X320783Y795875D01*
Y795634D01*
X320802Y795394D01*
X320820Y794875D01*
X320857Y794357D01*
X320876Y794116D01*
X320913Y793894D01*
X320950Y793690D01*
X320987Y793505D01*
X321005Y793468D01*
X321024Y793375D01*
X321079Y793227D01*
X321135Y793061D01*
X321227Y792875D01*
X321320Y792690D01*
X321431Y792524D01*
X321542Y792394D01*
X321561Y792375D01*
X321598Y792357D01*
X321672Y792301D01*
X321764Y792264D01*
X321875Y792209D01*
X322005Y792153D01*
X322153Y792135D01*
X322320Y792116D01*
X322394D01*
X322486Y792135D01*
X322579Y792153D01*
X322709Y792190D01*
X322838Y792227D01*
X322968Y792301D01*
X323098Y792394D01*
X323116Y792412D01*
X323153Y792449D01*
X323227Y792524D01*
X323301Y792635D01*
X323375Y792764D01*
X323468Y792949D01*
X323560Y793153D01*
X323635Y793412D01*
Y793431D01*
X323653Y793449D01*
Y793523D01*
X323672Y793597D01*
X323690Y793709D01*
X323709Y793838D01*
X323746Y793986D01*
X323764Y794172D01*
X323783Y794375D01*
X323820Y794616D01*
X323838Y794875D01*
X323857Y795171D01*
X323875Y795486D01*
Y795838D01*
X323894Y796227D01*
Y796634D01*
Y796653D01*
Y796727D01*
Y796856D01*
Y797005D01*
Y797190D01*
X323875Y797393D01*
Y797634D01*
X323857Y797875D01*
X323838Y798393D01*
X323801Y798893D01*
X323764Y799134D01*
X323727Y799375D01*
X323690Y799578D01*
X323653Y799745D01*
Y799764D01*
X323635Y799782D01*
X323616Y799875D01*
X323560Y800023D01*
X323505Y800208D01*
X323412Y800393D01*
X323320Y800578D01*
X323209Y800745D01*
X323098Y800874D01*
X323079Y800893D01*
X323042Y800930D01*
X322968Y800967D01*
X322875Y801023D01*
X322764Y801078D01*
X322635Y801134D01*
X322486Y801152D01*
X322320Y801171D01*
D02*
G37*
G36*
X531462Y803029D02*
X528119D01*
Y802611D01*
Y802193D01*
Y801775D01*
Y801357D01*
Y800939D01*
Y800521D01*
Y800103D01*
Y799685D01*
X531462D01*
Y800103D01*
Y800521D01*
Y800939D01*
Y801357D01*
Y801775D01*
Y802193D01*
Y802611D01*
Y803029D01*
D02*
G37*
G36*
X524776Y796342D02*
X514746D01*
Y795924D01*
Y795506D01*
Y795088D01*
Y794670D01*
Y794252D01*
Y793835D01*
Y793417D01*
Y792999D01*
Y792581D01*
Y792163D01*
Y791745D01*
Y791327D01*
Y790909D01*
Y790491D01*
Y790073D01*
Y789656D01*
Y789238D01*
Y788820D01*
Y788402D01*
Y787984D01*
Y787566D01*
Y787148D01*
Y786730D01*
Y786312D01*
X524776D01*
Y786730D01*
Y787148D01*
Y787566D01*
Y787984D01*
Y788402D01*
Y788820D01*
Y789238D01*
Y789656D01*
Y790073D01*
Y790491D01*
Y790909D01*
Y791327D01*
Y791745D01*
Y792163D01*
Y792581D01*
Y792999D01*
Y793417D01*
Y793835D01*
Y794252D01*
Y794670D01*
Y795088D01*
Y795506D01*
Y795924D01*
Y796342D01*
D02*
G37*
G36*
X531462Y782969D02*
X524776D01*
Y782551D01*
Y782133D01*
Y781715D01*
Y781297D01*
Y780879D01*
Y780461D01*
Y780043D01*
Y779626D01*
X521432D01*
Y779208D01*
Y778790D01*
Y778372D01*
Y777954D01*
Y777536D01*
Y777118D01*
Y776700D01*
Y776282D01*
X528119D01*
Y776700D01*
Y777118D01*
Y777536D01*
Y777954D01*
Y778372D01*
Y778790D01*
Y779208D01*
Y779626D01*
X531462D01*
Y779208D01*
Y778790D01*
Y778372D01*
Y777954D01*
Y777536D01*
Y777118D01*
Y776700D01*
Y776282D01*
X534805D01*
Y776700D01*
Y777118D01*
Y777536D01*
Y777954D01*
Y778372D01*
Y778790D01*
Y779208D01*
Y779626D01*
X531462D01*
Y780043D01*
Y780461D01*
Y780879D01*
Y781297D01*
Y781715D01*
Y782133D01*
Y782551D01*
Y782969D01*
D02*
G37*
G36*
X501372Y776282D02*
X498029D01*
Y775864D01*
Y775446D01*
Y775029D01*
Y774611D01*
Y774193D01*
Y773775D01*
Y773357D01*
Y772939D01*
X501372D01*
Y773357D01*
Y773775D01*
Y774193D01*
Y774611D01*
Y775029D01*
Y775446D01*
Y775864D01*
Y776282D01*
D02*
G37*
%LPD*%
G36*
X521432Y792581D02*
Y792163D01*
Y791745D01*
Y791327D01*
Y790909D01*
Y790491D01*
Y790073D01*
Y789656D01*
X518089D01*
Y790073D01*
Y790491D01*
Y790909D01*
Y791327D01*
Y791745D01*
Y792163D01*
Y792581D01*
Y792999D01*
X521432D01*
Y792581D01*
D02*
G37*
%LPC*%
G36*
X477969Y789238D02*
X461671D01*
Y788820D01*
Y788402D01*
Y787984D01*
Y787566D01*
Y787148D01*
Y786730D01*
Y786312D01*
Y785894D01*
Y785476D01*
Y785058D01*
Y784641D01*
Y784223D01*
Y783805D01*
Y783387D01*
Y782969D01*
Y782551D01*
Y782133D01*
Y781715D01*
Y781297D01*
Y780879D01*
Y780461D01*
Y780043D01*
Y779626D01*
Y779208D01*
Y778790D01*
Y778372D01*
Y777954D01*
Y777536D01*
Y777118D01*
Y776700D01*
Y776282D01*
Y775864D01*
Y775446D01*
Y775029D01*
Y774611D01*
Y774193D01*
Y773775D01*
Y773357D01*
Y772939D01*
X477551D01*
Y773357D01*
X477969D01*
Y773775D01*
Y774193D01*
Y774611D01*
Y775029D01*
Y775446D01*
Y775864D01*
Y776282D01*
Y776700D01*
Y777118D01*
Y777536D01*
Y777954D01*
Y778372D01*
Y778790D01*
Y779208D01*
Y779626D01*
Y780043D01*
Y780461D01*
Y780879D01*
Y781297D01*
Y781715D01*
Y782133D01*
Y782551D01*
Y782969D01*
Y783387D01*
Y783805D01*
Y784223D01*
Y784641D01*
Y785058D01*
Y785476D01*
Y785894D01*
Y786312D01*
Y786730D01*
Y787148D01*
Y787566D01*
Y787984D01*
Y788402D01*
Y788820D01*
Y789238D01*
D02*
G37*
%LPD*%
G36*
X474626Y785894D02*
Y785476D01*
Y785058D01*
Y784641D01*
Y784223D01*
Y783805D01*
Y783387D01*
Y782969D01*
Y782551D01*
Y782133D01*
Y781715D01*
Y781297D01*
Y780879D01*
Y780461D01*
Y780043D01*
Y779626D01*
Y779208D01*
Y778790D01*
Y778372D01*
Y777954D01*
Y777536D01*
Y777118D01*
Y776700D01*
Y776282D01*
X464596D01*
Y776700D01*
Y777118D01*
Y777536D01*
Y777954D01*
Y778372D01*
Y778790D01*
Y779208D01*
Y779626D01*
Y780043D01*
Y780461D01*
Y780879D01*
Y781297D01*
Y781715D01*
Y782133D01*
Y782551D01*
Y782969D01*
Y783387D01*
Y783805D01*
Y784223D01*
Y784641D01*
Y785058D01*
Y785476D01*
Y785894D01*
Y786312D01*
X474626D01*
Y785894D01*
D02*
G37*
%LPC*%
G36*
X563079Y749054D02*
X562910D01*
X562543Y749040D01*
X562177Y748997D01*
X561853Y748927D01*
X561529Y748842D01*
X561247Y748744D01*
X560965Y748631D01*
X560725Y748504D01*
X560499Y748377D01*
X560288Y748250D01*
X560119Y748123D01*
X559964Y748011D01*
X559837Y747912D01*
X559738Y747827D01*
X559668Y747757D01*
X559625Y747715D01*
X559611Y747701D01*
X559386Y747433D01*
X559202Y747151D01*
X559033Y746855D01*
X558892Y746544D01*
X558765Y746220D01*
X558667Y745910D01*
X558582Y745600D01*
X558512Y745304D01*
X558455Y745008D01*
X558427Y744754D01*
X558399Y744515D01*
X558371Y744317D01*
Y744148D01*
X558357Y744021D01*
Y743908D01*
X558371Y743485D01*
X558413Y743091D01*
X558470Y742710D01*
X558554Y742372D01*
X558639Y742048D01*
X558751Y741738D01*
X558864Y741470D01*
X558977Y741230D01*
X559090Y741004D01*
X559202Y740807D01*
X559315Y740652D01*
X559400Y740511D01*
X559484Y740412D01*
X559541Y740328D01*
X559583Y740285D01*
X559597Y740271D01*
X559837Y740032D01*
X560091Y739834D01*
X560359Y739651D01*
X560626Y739510D01*
X560894Y739383D01*
X561162Y739270D01*
X561416Y739186D01*
X561655Y739115D01*
X561895Y739059D01*
X562107Y739017D01*
X562304Y738988D01*
X562459Y738974D01*
X562600Y738960D01*
X562699Y738946D01*
X562783D01*
X563079Y738960D01*
X563347Y738974D01*
X563615Y739017D01*
X563854Y739073D01*
X564080Y739129D01*
X564292Y739186D01*
X564489Y739256D01*
X564672Y739341D01*
X564827Y739411D01*
X564968Y739482D01*
X565095Y739538D01*
X565194Y739595D01*
X565278Y739651D01*
X565335Y739693D01*
X565363Y739707D01*
X565377Y739722D01*
X565560Y739877D01*
X565729Y740046D01*
X566040Y740426D01*
X566293Y740821D01*
X566491Y741202D01*
X566575Y741385D01*
X566646Y741554D01*
X566702Y741709D01*
X566758Y741836D01*
X566801Y741949D01*
X566829Y742033D01*
X566843Y742090D01*
Y742104D01*
X564926Y742696D01*
X564813Y742315D01*
X564686Y741991D01*
X564559Y741723D01*
X564418Y741498D01*
X564306Y741329D01*
X564207Y741216D01*
X564137Y741145D01*
X564108Y741117D01*
X563883Y740948D01*
X563657Y740835D01*
X563432Y740751D01*
X563234Y740680D01*
X563051Y740652D01*
X562896Y740638D01*
X562840Y740624D01*
X562769D01*
X562572Y740638D01*
X562388Y740652D01*
X562050Y740751D01*
X561754Y740863D01*
X561514Y741019D01*
X561317Y741160D01*
X561176Y741272D01*
X561120Y741329D01*
X561077Y741371D01*
X561063Y741385D01*
X561049Y741399D01*
X560937Y741554D01*
X560838Y741738D01*
X560739Y741935D01*
X560669Y742146D01*
X560556Y742583D01*
X560471Y743020D01*
X560443Y743232D01*
X560429Y743415D01*
X560401Y743598D01*
Y743753D01*
X560387Y743866D01*
Y743965D01*
Y744035D01*
Y744049D01*
X560401Y744374D01*
X560415Y744670D01*
X560443Y744938D01*
X560485Y745191D01*
X560542Y745417D01*
X560598Y745628D01*
X560654Y745811D01*
X560725Y745981D01*
X560781Y746122D01*
X560838Y746248D01*
X560894Y746347D01*
X560951Y746432D01*
X560993Y746502D01*
X561021Y746544D01*
X561049Y746573D01*
Y746587D01*
X561176Y746728D01*
X561317Y746855D01*
X561458Y746953D01*
X561613Y747038D01*
X561909Y747179D01*
X562191Y747278D01*
X562431Y747334D01*
X562543Y747348D01*
X562628Y747362D01*
X562713Y747376D01*
X562811D01*
X563093Y747362D01*
X563347Y747306D01*
X563573Y747235D01*
X563770Y747151D01*
X563925Y747066D01*
X564038Y746996D01*
X564108Y746939D01*
X564137Y746925D01*
X564320Y746756D01*
X564489Y746559D01*
X564616Y746361D01*
X564715Y746164D01*
X564785Y745995D01*
X564827Y745868D01*
X564855Y745811D01*
Y745769D01*
X564869Y745755D01*
Y745741D01*
X566815Y746206D01*
X566674Y746615D01*
X566519Y746967D01*
X566350Y747278D01*
X566195Y747531D01*
X566040Y747729D01*
X565983Y747813D01*
X565927Y747884D01*
X565885Y747926D01*
X565842Y747968D01*
X565828Y747997D01*
X565814D01*
X565603Y748180D01*
X565363Y748349D01*
X565137Y748490D01*
X564898Y748603D01*
X564644Y748716D01*
X564404Y748800D01*
X564165Y748870D01*
X563939Y748927D01*
X563728Y748969D01*
X563530Y748997D01*
X563361Y749026D01*
X563206Y749040D01*
X563079Y749054D01*
D02*
G37*
G36*
X587749Y748870D02*
X584789D01*
X583055Y742203D01*
X581307Y748870D01*
X578360D01*
Y739115D01*
X580179D01*
Y746784D01*
X582096Y739115D01*
X583999D01*
X585916Y746784D01*
X585930Y739115D01*
X587749D01*
Y748870D01*
D02*
G37*
G36*
X592683Y748927D02*
X592542D01*
X592302Y748913D01*
X592077Y748899D01*
X591640Y748828D01*
X591273Y748716D01*
X591104Y748659D01*
X590949Y748589D01*
X590808Y748532D01*
X590695Y748462D01*
X590583Y748405D01*
X590498Y748363D01*
X590427Y748307D01*
X590385Y748279D01*
X590357Y748264D01*
X590343Y748250D01*
X590188Y748109D01*
X590047Y747968D01*
X589920Y747799D01*
X589807Y747616D01*
X589638Y747249D01*
X589497Y746897D01*
X589455Y746714D01*
X589412Y746559D01*
X589370Y746418D01*
X589356Y746291D01*
X589328Y746178D01*
Y746107D01*
X589314Y746051D01*
Y746037D01*
X591175Y745854D01*
X591203Y746136D01*
X591259Y746375D01*
X591315Y746587D01*
X591386Y746742D01*
X591442Y746869D01*
X591499Y746953D01*
X591541Y747010D01*
X591555Y747024D01*
X591696Y747137D01*
X591851Y747221D01*
X592006Y747292D01*
X592161Y747334D01*
X592288Y747362D01*
X592401Y747376D01*
X592500D01*
X592711Y747362D01*
X592894Y747320D01*
X593049Y747263D01*
X593190Y747207D01*
X593289Y747151D01*
X593374Y747094D01*
X593416Y747052D01*
X593430Y747038D01*
X593543Y746897D01*
X593627Y746742D01*
X593684Y746587D01*
X593726Y746432D01*
X593754Y746291D01*
X593768Y746164D01*
Y746093D01*
Y746079D01*
Y746065D01*
X593754Y745854D01*
X593712Y745656D01*
X593642Y745459D01*
X593571Y745290D01*
X593501Y745135D01*
X593430Y745022D01*
X593388Y744952D01*
X593374Y744923D01*
X593317Y744839D01*
X593233Y744740D01*
X593120Y744613D01*
X593007Y744501D01*
X592753Y744233D01*
X592500Y743965D01*
X592246Y743711D01*
X592133Y743598D01*
X592020Y743514D01*
X591936Y743429D01*
X591879Y743373D01*
X591837Y743330D01*
X591823Y743316D01*
X591541Y743048D01*
X591287Y742795D01*
X591048Y742555D01*
X590836Y742344D01*
X590639Y742132D01*
X590470Y741935D01*
X590315Y741766D01*
X590188Y741597D01*
X590075Y741456D01*
X589976Y741329D01*
X589892Y741230D01*
X589835Y741131D01*
X589779Y741075D01*
X589751Y741019D01*
X589723Y740990D01*
Y740976D01*
X589539Y740652D01*
X589398Y740314D01*
X589286Y740004D01*
X589201Y739722D01*
X589145Y739468D01*
X589131Y739369D01*
X589116Y739285D01*
X589102Y739214D01*
X589088Y739158D01*
Y739115D01*
X595643D01*
Y740849D01*
X591922D01*
X592034Y741033D01*
X592161Y741188D01*
X592218Y741258D01*
X592260Y741314D01*
X592288Y741343D01*
X592302Y741357D01*
X592359Y741413D01*
X592415Y741484D01*
X592584Y741639D01*
X592767Y741822D01*
X592951Y742005D01*
X593134Y742175D01*
X593289Y742315D01*
X593345Y742372D01*
X593388Y742414D01*
X593416Y742428D01*
X593430Y742442D01*
X593740Y742738D01*
X593994Y742978D01*
X594205Y743204D01*
X594375Y743373D01*
X594501Y743514D01*
X594586Y743612D01*
X594642Y743683D01*
X594656Y743697D01*
X594840Y743937D01*
X594995Y744162D01*
X595122Y744374D01*
X595220Y744557D01*
X595305Y744712D01*
X595361Y744839D01*
X595390Y744909D01*
X595404Y744938D01*
X595488Y745163D01*
X595545Y745389D01*
X595587Y745600D01*
X595615Y745797D01*
X595629Y745953D01*
X595643Y746079D01*
Y746192D01*
X595629Y746404D01*
X595601Y746615D01*
X595573Y746812D01*
X595516Y746996D01*
X595375Y747320D01*
X595234Y747602D01*
X595150Y747729D01*
X595079Y747827D01*
X595009Y747926D01*
X594938Y747997D01*
X594882Y748053D01*
X594854Y748109D01*
X594826Y748123D01*
X594812Y748138D01*
X594656Y748279D01*
X594473Y748405D01*
X594304Y748504D01*
X594107Y748589D01*
X593740Y748730D01*
X593374Y748828D01*
X593204Y748856D01*
X593049Y748885D01*
X592909Y748899D01*
X592782Y748913D01*
X592683Y748927D01*
D02*
G37*
G36*
X573412Y748870D02*
X571326D01*
X567548Y739115D01*
X569634D01*
X570438Y741329D01*
X574357D01*
X575203Y739115D01*
X577331D01*
X573412Y748870D01*
D02*
G37*
%LPD*%
G36*
X573722Y742978D02*
X571030D01*
X572355Y746601D01*
X573722Y742978D01*
D02*
G37*
%LPC*%
G36*
X266847Y749054D02*
X266678D01*
X266312Y749040D01*
X265945Y748997D01*
X265621Y748927D01*
X265297Y748842D01*
X265015Y748744D01*
X264733Y748631D01*
X264493Y748504D01*
X264268Y748377D01*
X264056Y748250D01*
X263887Y748123D01*
X263732Y748011D01*
X263605Y747912D01*
X263507Y747827D01*
X263436Y747757D01*
X263394Y747715D01*
X263380Y747701D01*
X263154Y747433D01*
X262971Y747151D01*
X262802Y746855D01*
X262661Y746544D01*
X262534Y746220D01*
X262435Y745910D01*
X262351Y745600D01*
X262280Y745304D01*
X262224Y745008D01*
X262195Y744754D01*
X262167Y744514D01*
X262139Y744317D01*
Y744148D01*
X262125Y744021D01*
Y743908D01*
X262139Y743485D01*
X262181Y743091D01*
X262238Y742710D01*
X262322Y742372D01*
X262407Y742048D01*
X262520Y741737D01*
X262633Y741470D01*
X262745Y741230D01*
X262858Y741004D01*
X262971Y740807D01*
X263084Y740652D01*
X263168Y740511D01*
X263253Y740412D01*
X263309Y740328D01*
X263351Y740285D01*
X263365Y740271D01*
X263605Y740032D01*
X263859Y739834D01*
X264127Y739651D01*
X264395Y739510D01*
X264662Y739383D01*
X264930Y739270D01*
X265184Y739186D01*
X265424Y739115D01*
X265663Y739059D01*
X265875Y739017D01*
X266072Y738988D01*
X266227Y738974D01*
X266368Y738960D01*
X266467Y738946D01*
X266551D01*
X266847Y738960D01*
X267115Y738974D01*
X267383Y739017D01*
X267623Y739073D01*
X267848Y739129D01*
X268060Y739186D01*
X268257Y739256D01*
X268440Y739341D01*
X268596Y739411D01*
X268736Y739482D01*
X268863Y739538D01*
X268962Y739595D01*
X269047Y739651D01*
X269103Y739693D01*
X269131Y739707D01*
X269145Y739722D01*
X269329Y739877D01*
X269498Y740046D01*
X269808Y740426D01*
X270062Y740821D01*
X270259Y741202D01*
X270344Y741385D01*
X270414Y741554D01*
X270470Y741709D01*
X270527Y741836D01*
X270569Y741949D01*
X270597Y742033D01*
X270611Y742090D01*
Y742104D01*
X268694Y742696D01*
X268581Y742315D01*
X268455Y741991D01*
X268328Y741723D01*
X268187Y741498D01*
X268074Y741329D01*
X267975Y741216D01*
X267905Y741145D01*
X267877Y741117D01*
X267651Y740948D01*
X267425Y740835D01*
X267200Y740751D01*
X267003Y740680D01*
X266819Y740652D01*
X266664Y740638D01*
X266608Y740624D01*
X266537D01*
X266340Y740638D01*
X266157Y740652D01*
X265818Y740751D01*
X265522Y740863D01*
X265283Y741019D01*
X265085Y741160D01*
X264944Y741272D01*
X264888Y741329D01*
X264846Y741371D01*
X264832Y741385D01*
X264818Y741399D01*
X264705Y741554D01*
X264606Y741737D01*
X264507Y741935D01*
X264437Y742146D01*
X264324Y742583D01*
X264240Y743020D01*
X264211Y743232D01*
X264197Y743415D01*
X264169Y743598D01*
Y743753D01*
X264155Y743866D01*
Y743965D01*
Y744035D01*
Y744049D01*
X264169Y744374D01*
X264183Y744670D01*
X264211Y744937D01*
X264254Y745191D01*
X264310Y745417D01*
X264366Y745628D01*
X264423Y745811D01*
X264493Y745981D01*
X264550Y746122D01*
X264606Y746248D01*
X264662Y746347D01*
X264719Y746432D01*
X264761Y746502D01*
X264789Y746544D01*
X264818Y746573D01*
Y746587D01*
X264944Y746728D01*
X265085Y746855D01*
X265226Y746953D01*
X265381Y747038D01*
X265677Y747179D01*
X265959Y747278D01*
X266199Y747334D01*
X266312Y747348D01*
X266396Y747362D01*
X266481Y747376D01*
X266580D01*
X266862Y747362D01*
X267115Y747306D01*
X267341Y747235D01*
X267538Y747151D01*
X267693Y747066D01*
X267806Y746996D01*
X267877Y746939D01*
X267905Y746925D01*
X268088Y746756D01*
X268257Y746559D01*
X268384Y746361D01*
X268483Y746164D01*
X268553Y745995D01*
X268596Y745868D01*
X268624Y745811D01*
Y745769D01*
X268638Y745755D01*
Y745741D01*
X270583Y746206D01*
X270442Y746615D01*
X270287Y746967D01*
X270118Y747278D01*
X269963Y747531D01*
X269808Y747729D01*
X269751Y747813D01*
X269695Y747884D01*
X269653Y747926D01*
X269611Y747968D01*
X269596Y747997D01*
X269582D01*
X269371Y748180D01*
X269131Y748349D01*
X268906Y748490D01*
X268666Y748603D01*
X268412Y748715D01*
X268173Y748800D01*
X267933Y748870D01*
X267707Y748927D01*
X267496Y748969D01*
X267299Y748997D01*
X267129Y749026D01*
X266974Y749040D01*
X266847Y749054D01*
D02*
G37*
G36*
X291517Y748870D02*
X288557D01*
X286823Y742203D01*
X285075Y748870D01*
X282129D01*
Y739115D01*
X283947D01*
Y746784D01*
X285864Y739115D01*
X287767D01*
X289685Y746784D01*
X289699Y739115D01*
X291517D01*
Y748870D01*
D02*
G37*
G36*
X297875Y748927D02*
X296353D01*
X296211Y748603D01*
X296028Y748307D01*
X295831Y748025D01*
X295634Y747799D01*
X295464Y747616D01*
X295309Y747475D01*
X295253Y747419D01*
X295211Y747376D01*
X295182Y747362D01*
X295168Y747348D01*
X294858Y747122D01*
X294562Y746925D01*
X294294Y746770D01*
X294055Y746657D01*
X293857Y746573D01*
X293716Y746502D01*
X293660Y746488D01*
X293618Y746474D01*
X293604Y746460D01*
X293589D01*
Y744768D01*
X294097Y744966D01*
X294548Y745177D01*
X294760Y745290D01*
X294957Y745417D01*
X295140Y745529D01*
X295309Y745642D01*
X295464Y745755D01*
X295605Y745854D01*
X295718Y745938D01*
X295817Y746023D01*
X295901Y746093D01*
X295958Y746136D01*
X295986Y746164D01*
X296000Y746178D01*
Y739115D01*
X297875D01*
Y748927D01*
D02*
G37*
G36*
X277181Y748870D02*
X275094D01*
X271316Y739115D01*
X273403D01*
X274206Y741329D01*
X278125D01*
X278971Y739115D01*
X281100D01*
X277181Y748870D01*
D02*
G37*
%LPD*%
G36*
X277491Y742978D02*
X274798D01*
X276123Y746601D01*
X277491Y742978D01*
D02*
G37*
%LPC*%
G36*
X585684Y560885D02*
X583597D01*
X582794Y558671D01*
X578875D01*
X578029Y560885D01*
X575900D01*
X579819Y551129D01*
X581906D01*
X585684Y560885D01*
D02*
G37*
G36*
X574871D02*
X573053D01*
Y553216D01*
X571136Y560885D01*
X569232D01*
X567315Y553216D01*
X567301Y560885D01*
X565483D01*
Y551129D01*
X568443D01*
X570177Y557797D01*
X571925Y551129D01*
X574871D01*
Y560885D01*
D02*
G37*
G36*
X590533Y561054D02*
X590448D01*
X590153Y561040D01*
X589885Y561026D01*
X589617Y560983D01*
X589377Y560927D01*
X589152Y560871D01*
X588940Y560814D01*
X588743Y560744D01*
X588559Y560659D01*
X588405Y560589D01*
X588264Y560518D01*
X588137Y560462D01*
X588038Y560405D01*
X587953Y560349D01*
X587897Y560307D01*
X587869Y560293D01*
X587855Y560278D01*
X587671Y560123D01*
X587502Y559954D01*
X587192Y559574D01*
X586938Y559179D01*
X586741Y558798D01*
X586656Y558615D01*
X586586Y558446D01*
X586530Y558291D01*
X586473Y558164D01*
X586431Y558051D01*
X586403Y557966D01*
X586389Y557910D01*
Y557896D01*
X588306Y557304D01*
X588419Y557685D01*
X588545Y558009D01*
X588672Y558277D01*
X588813Y558502D01*
X588926Y558671D01*
X589025Y558784D01*
X589095Y558855D01*
X589123Y558883D01*
X589349Y559052D01*
X589575Y559165D01*
X589800Y559249D01*
X589997Y559320D01*
X590181Y559348D01*
X590336Y559362D01*
X590392Y559376D01*
X590463D01*
X590660Y559362D01*
X590843Y559348D01*
X591182Y559249D01*
X591478Y559137D01*
X591717Y558982D01*
X591915Y558840D01*
X592056Y558728D01*
X592112Y558671D01*
X592154Y558629D01*
X592168Y558615D01*
X592183Y558601D01*
X592295Y558446D01*
X592394Y558263D01*
X592493Y558065D01*
X592563Y557854D01*
X592676Y557417D01*
X592760Y556980D01*
X592789Y556768D01*
X592803Y556585D01*
X592831Y556402D01*
Y556247D01*
X592845Y556134D01*
Y556035D01*
Y555965D01*
Y555951D01*
X592831Y555626D01*
X592817Y555330D01*
X592789Y555062D01*
X592746Y554809D01*
X592690Y554583D01*
X592634Y554372D01*
X592577Y554188D01*
X592507Y554019D01*
X592450Y553878D01*
X592394Y553751D01*
X592337Y553653D01*
X592281Y553568D01*
X592239Y553498D01*
X592211Y553456D01*
X592183Y553427D01*
Y553413D01*
X592056Y553272D01*
X591915Y553145D01*
X591774Y553047D01*
X591619Y552962D01*
X591323Y552821D01*
X591041Y552722D01*
X590801Y552666D01*
X590688Y552652D01*
X590604Y552638D01*
X590519Y552624D01*
X590420D01*
X590138Y552638D01*
X589885Y552694D01*
X589659Y552765D01*
X589462Y552849D01*
X589307Y552934D01*
X589194Y553004D01*
X589123Y553061D01*
X589095Y553075D01*
X588912Y553244D01*
X588743Y553441D01*
X588616Y553639D01*
X588517Y553836D01*
X588447Y554005D01*
X588405Y554132D01*
X588376Y554188D01*
Y554231D01*
X588362Y554245D01*
Y554259D01*
X586417Y553794D01*
X586558Y553385D01*
X586713Y553033D01*
X586882Y552722D01*
X587037Y552469D01*
X587192Y552271D01*
X587248Y552187D01*
X587305Y552116D01*
X587347Y552074D01*
X587389Y552032D01*
X587404Y552004D01*
X587418D01*
X587629Y551820D01*
X587869Y551651D01*
X588094Y551510D01*
X588334Y551397D01*
X588588Y551284D01*
X588827Y551200D01*
X589067Y551129D01*
X589293Y551073D01*
X589504Y551031D01*
X589701Y551003D01*
X589870Y550974D01*
X590026Y550960D01*
X590153Y550946D01*
X590322D01*
X590688Y550960D01*
X591055Y551003D01*
X591379Y551073D01*
X591703Y551158D01*
X591985Y551256D01*
X592267Y551369D01*
X592507Y551496D01*
X592732Y551623D01*
X592944Y551750D01*
X593113Y551877D01*
X593268Y551989D01*
X593395Y552088D01*
X593493Y552173D01*
X593564Y552243D01*
X593606Y552285D01*
X593620Y552299D01*
X593846Y552567D01*
X594029Y552849D01*
X594198Y553145D01*
X594339Y553456D01*
X594466Y553780D01*
X594565Y554090D01*
X594649Y554400D01*
X594720Y554696D01*
X594776Y554992D01*
X594804Y555246D01*
X594833Y555485D01*
X594861Y555683D01*
Y555852D01*
X594875Y555979D01*
Y556092D01*
X594861Y556515D01*
X594819Y556909D01*
X594762Y557290D01*
X594678Y557628D01*
X594593Y557952D01*
X594480Y558263D01*
X594367Y558530D01*
X594255Y558770D01*
X594142Y558996D01*
X594029Y559193D01*
X593916Y559348D01*
X593832Y559489D01*
X593747Y559588D01*
X593691Y559672D01*
X593648Y559715D01*
X593634Y559729D01*
X593395Y559968D01*
X593141Y560166D01*
X592873Y560349D01*
X592605Y560490D01*
X592337Y560617D01*
X592070Y560729D01*
X591816Y560814D01*
X591576Y560885D01*
X591337Y560941D01*
X591125Y560983D01*
X590928Y561012D01*
X590773Y561026D01*
X590632Y561040D01*
X590533Y561054D01*
D02*
G37*
G36*
X561000Y560885D02*
X559125D01*
Y551073D01*
X560648D01*
X560788Y551397D01*
X560972Y551693D01*
X561169Y551975D01*
X561366Y552201D01*
X561536Y552384D01*
X561691Y552525D01*
X561747Y552581D01*
X561789Y552624D01*
X561818Y552638D01*
X561832Y552652D01*
X562142Y552878D01*
X562438Y553075D01*
X562706Y553230D01*
X562945Y553343D01*
X563143Y553427D01*
X563284Y553498D01*
X563340Y553512D01*
X563382Y553526D01*
X563396Y553540D01*
X563410D01*
Y555232D01*
X562903Y555034D01*
X562452Y554823D01*
X562240Y554710D01*
X562043Y554583D01*
X561860Y554470D01*
X561691Y554358D01*
X561536Y554245D01*
X561395Y554146D01*
X561282Y554062D01*
X561183Y553977D01*
X561099Y553907D01*
X561042Y553864D01*
X561014Y553836D01*
X561000Y553822D01*
Y560885D01*
D02*
G37*
%LPD*%
G36*
X580877Y553399D02*
X579509Y557022D01*
X582202D01*
X580877Y553399D01*
D02*
G37*
%LPC*%
G36*
X289452Y560885D02*
X287366D01*
X286562Y558671D01*
X282643D01*
X281797Y560885D01*
X279669D01*
X283588Y551129D01*
X285674D01*
X289452Y560885D01*
D02*
G37*
G36*
X278640D02*
X276821D01*
Y553216D01*
X274904Y560885D01*
X273001D01*
X271084Y553216D01*
X271070Y560885D01*
X269251D01*
Y551129D01*
X272211D01*
X273945Y557797D01*
X275693Y551129D01*
X278640D01*
Y560885D01*
D02*
G37*
G36*
X294301Y561054D02*
X294217D01*
X293921Y561040D01*
X293653Y561026D01*
X293385Y560983D01*
X293145Y560927D01*
X292920Y560871D01*
X292708Y560814D01*
X292511Y560744D01*
X292328Y560659D01*
X292173Y560588D01*
X292032Y560518D01*
X291905Y560462D01*
X291806Y560405D01*
X291722Y560349D01*
X291665Y560307D01*
X291637Y560293D01*
X291623Y560278D01*
X291440Y560123D01*
X291271Y559954D01*
X290960Y559574D01*
X290707Y559179D01*
X290509Y558798D01*
X290425Y558615D01*
X290354Y558446D01*
X290298Y558291D01*
X290242Y558164D01*
X290199Y558051D01*
X290171Y557966D01*
X290157Y557910D01*
Y557896D01*
X292074Y557304D01*
X292187Y557685D01*
X292314Y558009D01*
X292441Y558277D01*
X292582Y558502D01*
X292694Y558671D01*
X292793Y558784D01*
X292864Y558855D01*
X292892Y558883D01*
X293117Y559052D01*
X293343Y559165D01*
X293568Y559249D01*
X293766Y559320D01*
X293949Y559348D01*
X294104Y559362D01*
X294160Y559376D01*
X294231D01*
X294428Y559362D01*
X294611Y559348D01*
X294950Y559249D01*
X295246Y559137D01*
X295485Y558982D01*
X295683Y558840D01*
X295824Y558728D01*
X295880Y558671D01*
X295923Y558629D01*
X295937Y558615D01*
X295951Y558601D01*
X296063Y558446D01*
X296162Y558262D01*
X296261Y558065D01*
X296331Y557854D01*
X296444Y557417D01*
X296529Y556980D01*
X296557Y556768D01*
X296571Y556585D01*
X296599Y556402D01*
Y556247D01*
X296613Y556134D01*
Y556035D01*
Y555965D01*
Y555951D01*
X296599Y555626D01*
X296585Y555330D01*
X296557Y555062D01*
X296515Y554809D01*
X296458Y554583D01*
X296402Y554372D01*
X296346Y554188D01*
X296275Y554019D01*
X296219Y553878D01*
X296162Y553751D01*
X296106Y553653D01*
X296049Y553568D01*
X296007Y553498D01*
X295979Y553456D01*
X295951Y553427D01*
Y553413D01*
X295824Y553272D01*
X295683Y553145D01*
X295542Y553047D01*
X295387Y552962D01*
X295091Y552821D01*
X294809Y552722D01*
X294569Y552666D01*
X294457Y552652D01*
X294372Y552638D01*
X294287Y552624D01*
X294189D01*
X293907Y552638D01*
X293653Y552694D01*
X293427Y552765D01*
X293230Y552849D01*
X293075Y552934D01*
X292962Y553004D01*
X292892Y553061D01*
X292864Y553075D01*
X292680Y553244D01*
X292511Y553441D01*
X292384Y553639D01*
X292285Y553836D01*
X292215Y554005D01*
X292173Y554132D01*
X292145Y554188D01*
Y554231D01*
X292131Y554245D01*
Y554259D01*
X290185Y553794D01*
X290326Y553385D01*
X290481Y553032D01*
X290650Y552722D01*
X290805Y552469D01*
X290960Y552271D01*
X291017Y552187D01*
X291073Y552116D01*
X291115Y552074D01*
X291158Y552032D01*
X291172Y552004D01*
X291186D01*
X291397Y551820D01*
X291637Y551651D01*
X291863Y551510D01*
X292102Y551397D01*
X292356Y551284D01*
X292596Y551200D01*
X292835Y551129D01*
X293061Y551073D01*
X293272Y551031D01*
X293470Y551003D01*
X293639Y550974D01*
X293794Y550960D01*
X293921Y550946D01*
X294090D01*
X294457Y550960D01*
X294823Y551003D01*
X295147Y551073D01*
X295471Y551158D01*
X295753Y551256D01*
X296035Y551369D01*
X296275Y551496D01*
X296500Y551623D01*
X296712Y551750D01*
X296881Y551877D01*
X297036Y551989D01*
X297163Y552088D01*
X297262Y552173D01*
X297332Y552243D01*
X297374Y552285D01*
X297389Y552299D01*
X297614Y552567D01*
X297797Y552849D01*
X297967Y553145D01*
X298108Y553456D01*
X298235Y553780D01*
X298333Y554090D01*
X298418Y554400D01*
X298488Y554696D01*
X298545Y554992D01*
X298573Y555246D01*
X298601Y555485D01*
X298629Y555683D01*
Y555852D01*
X298643Y555979D01*
Y556092D01*
X298629Y556515D01*
X298587Y556909D01*
X298531Y557290D01*
X298446Y557628D01*
X298361Y557952D01*
X298249Y558262D01*
X298136Y558530D01*
X298023Y558770D01*
X297910Y558996D01*
X297797Y559193D01*
X297685Y559348D01*
X297600Y559489D01*
X297516Y559588D01*
X297459Y559672D01*
X297417Y559715D01*
X297403Y559729D01*
X297163Y559968D01*
X296909Y560166D01*
X296642Y560349D01*
X296374Y560490D01*
X296106Y560617D01*
X295838Y560729D01*
X295584Y560814D01*
X295345Y560885D01*
X295105Y560941D01*
X294893Y560983D01*
X294696Y561012D01*
X294541Y561026D01*
X294400Y561040D01*
X294301Y561054D01*
D02*
G37*
G36*
X267912Y560885D02*
X261357D01*
Y559151D01*
X265078D01*
X264965Y558967D01*
X264839Y558812D01*
X264782Y558742D01*
X264740Y558685D01*
X264712Y558657D01*
X264698Y558643D01*
X264641Y558587D01*
X264585Y558516D01*
X264416Y558361D01*
X264233Y558178D01*
X264049Y557995D01*
X263866Y557826D01*
X263711Y557685D01*
X263654Y557628D01*
X263612Y557586D01*
X263584Y557572D01*
X263570Y557558D01*
X263260Y557262D01*
X263006Y557022D01*
X262795Y556796D01*
X262625Y556627D01*
X262499Y556486D01*
X262414Y556388D01*
X262358Y556317D01*
X262344Y556303D01*
X262160Y556063D01*
X262005Y555838D01*
X261878Y555626D01*
X261780Y555443D01*
X261695Y555288D01*
X261639Y555161D01*
X261610Y555091D01*
X261596Y555062D01*
X261512Y554837D01*
X261455Y554611D01*
X261413Y554400D01*
X261385Y554203D01*
X261371Y554048D01*
X261357Y553921D01*
Y553808D01*
X261371Y553596D01*
X261399Y553385D01*
X261427Y553188D01*
X261484Y553004D01*
X261625Y552680D01*
X261765Y552398D01*
X261850Y552271D01*
X261921Y552173D01*
X261991Y552074D01*
X262062Y552004D01*
X262118Y551947D01*
X262146Y551891D01*
X262174Y551877D01*
X262188Y551862D01*
X262344Y551721D01*
X262527Y551595D01*
X262696Y551496D01*
X262893Y551411D01*
X263260Y551270D01*
X263626Y551172D01*
X263796Y551144D01*
X263951Y551115D01*
X264091Y551101D01*
X264218Y551087D01*
X264317Y551073D01*
X264458D01*
X264698Y551087D01*
X264923Y551101D01*
X265360Y551172D01*
X265727Y551284D01*
X265896Y551341D01*
X266051Y551411D01*
X266192Y551468D01*
X266305Y551538D01*
X266418Y551595D01*
X266502Y551637D01*
X266573Y551693D01*
X266615Y551721D01*
X266643Y551736D01*
X266657Y551750D01*
X266812Y551891D01*
X266953Y552032D01*
X267080Y552201D01*
X267193Y552384D01*
X267362Y552751D01*
X267503Y553103D01*
X267545Y553286D01*
X267588Y553441D01*
X267630Y553582D01*
X267644Y553709D01*
X267672Y553822D01*
Y553893D01*
X267686Y553949D01*
Y553963D01*
X265826Y554146D01*
X265797Y553864D01*
X265741Y553625D01*
X265685Y553413D01*
X265614Y553258D01*
X265558Y553131D01*
X265501Y553047D01*
X265459Y552990D01*
X265445Y552976D01*
X265304Y552863D01*
X265149Y552779D01*
X264994Y552708D01*
X264839Y552666D01*
X264712Y552638D01*
X264599Y552624D01*
X264500D01*
X264289Y552638D01*
X264106Y552680D01*
X263951Y552737D01*
X263810Y552793D01*
X263711Y552849D01*
X263626Y552906D01*
X263584Y552948D01*
X263570Y552962D01*
X263457Y553103D01*
X263373Y553258D01*
X263316Y553413D01*
X263274Y553568D01*
X263246Y553709D01*
X263232Y553836D01*
Y553907D01*
Y553921D01*
Y553935D01*
X263246Y554146D01*
X263288Y554344D01*
X263358Y554541D01*
X263429Y554710D01*
X263499Y554865D01*
X263570Y554978D01*
X263612Y555048D01*
X263626Y555077D01*
X263683Y555161D01*
X263767Y555260D01*
X263880Y555387D01*
X263993Y555499D01*
X264247Y555767D01*
X264500Y556035D01*
X264754Y556289D01*
X264867Y556402D01*
X264980Y556486D01*
X265064Y556571D01*
X265121Y556627D01*
X265163Y556670D01*
X265177Y556684D01*
X265459Y556951D01*
X265713Y557205D01*
X265952Y557445D01*
X266164Y557656D01*
X266361Y557868D01*
X266530Y558065D01*
X266685Y558234D01*
X266812Y558404D01*
X266925Y558545D01*
X267024Y558671D01*
X267108Y558770D01*
X267165Y558869D01*
X267221Y558925D01*
X267249Y558982D01*
X267277Y559010D01*
Y559024D01*
X267461Y559348D01*
X267602Y559686D01*
X267715Y559996D01*
X267799Y560278D01*
X267855Y560532D01*
X267869Y560631D01*
X267884Y560715D01*
X267898Y560786D01*
X267912Y560842D01*
Y560885D01*
D02*
G37*
%LPD*%
G36*
X284645Y553399D02*
X283277Y557022D01*
X285970D01*
X284645Y553399D01*
D02*
G37*
D14*
X166000Y372000D02*
Y452000D01*
X246000Y372000D02*
Y452000D01*
X166000Y372000D02*
X246000D01*
X166000Y452000D02*
X246000D01*
X238556D02*
X246000Y444556D01*
X787000Y141200D02*
Y138800D01*
X769000Y141200D02*
Y138800D01*
X689625Y303000D02*
Y117000D01*
X716120Y293000D02*
X713617D01*
X699622Y302999D02*
Y289500D01*
X713617Y293003D02*
Y289500D01*
X699622D01*
X699621Y302999D02*
X689621D01*
X689622Y302998D02*
X689621Y302999D01*
X689622Y117002D02*
X689621Y117001D01*
X699621D02*
X689621D01*
X713617Y130500D02*
X699622D01*
X713617D02*
Y126996D01*
X699622Y130500D02*
Y117001D01*
X716120Y127000D02*
X713617D01*
X797750Y156000D02*
X792500D01*
X813500D02*
X812000D01*
X813500Y122000D02*
X812000D01*
X794000D02*
X792500D01*
X694252Y502680D02*
Y362500D01*
X694252D02*
X531252D01*
Y502680D02*
Y362500D01*
X694252Y502680D02*
X531252D01*
X777500Y450500D02*
X772250D01*
X741750D02*
X736500D01*
Y414750D02*
Y409500D01*
Y450500D02*
Y445250D01*
X777500Y409500D02*
X772250D01*
X741750D02*
X736500D01*
X777500Y414750D02*
Y409500D01*
Y450500D02*
Y445250D01*
X664000Y681749D02*
X490000D01*
X672124Y737649D02*
Y722251D01*
X675499Y722250D02*
X672126D01*
X675500Y722249D02*
Y709750D01*
X682000Y737649D02*
X672124D01*
X682000Y750750D02*
Y737649D01*
X472000Y750750D02*
Y737649D01*
X481876D02*
X472000D01*
X478500Y722249D02*
Y709750D01*
X481874Y722250D02*
X478501D01*
X481876Y737649D02*
Y722251D01*
X682000Y750750D02*
X472000D01*
X749500Y580500D02*
Y549500D01*
X726500Y580500D02*
Y549500D01*
X749500D02*
X726500D01*
X749500Y580500D02*
X726500D01*
X726700Y732000D02*
X724300D01*
X726700Y750000D02*
X724300D01*
X743500Y727500D02*
Y722250D01*
Y708000D02*
Y706500D01*
X709500Y708000D02*
Y706500D01*
Y727500D02*
Y726000D01*
X664000Y618251D02*
X490000D01*
X481876Y577749D02*
Y562351D01*
X481874Y577750D02*
X478501D01*
X478500Y590250D02*
Y577751D01*
X481876Y562351D02*
X472000D01*
Y549250D01*
X682000Y562351D02*
Y549250D01*
Y562351D02*
X672124D01*
X675500Y590250D02*
Y577751D01*
X675499Y577750D02*
X672126D01*
X672124Y577749D02*
Y562351D01*
X682000Y549250D02*
X472000D01*
X193000Y618251D02*
X367000D01*
X184876Y562351D02*
Y577749D01*
X181501Y577750D02*
X184874D01*
X181500Y577751D02*
Y590250D01*
X175000Y562351D02*
X184876D01*
X175000Y549250D02*
Y562351D01*
X385000Y549250D02*
Y562351D01*
X375124D02*
X385000D01*
X378500Y577751D02*
Y590250D01*
X375126Y577750D02*
X378499D01*
X375124Y562351D02*
Y577749D01*
X175000Y549250D02*
X385000D01*
X107500Y719500D02*
Y750500D01*
X130500Y719500D02*
Y750500D01*
X107500D02*
X130500D01*
X107500Y719500D02*
X130500D01*
X130300Y568000D02*
X132700D01*
X130300Y550000D02*
X132700D01*
X113500Y572500D02*
Y577750D01*
Y592000D02*
Y593500D01*
X147500Y592000D02*
Y593500D01*
Y572500D02*
Y574000D01*
X193000Y681749D02*
X367000D01*
X375124Y722251D02*
Y737649D01*
X375126Y722250D02*
X378499D01*
X378500Y709750D02*
Y722249D01*
X375124Y737649D02*
X385000D01*
Y750750D01*
X175000Y737649D02*
Y750750D01*
Y737649D02*
X184876D01*
X181500Y709750D02*
Y722249D01*
X181501Y722250D02*
X184874D01*
X184876Y722251D02*
Y737649D01*
X175000Y750750D02*
X385000D01*
X190000Y170000D02*
X250000D01*
X190000Y250000D02*
X250000D01*
Y170000D02*
Y250000D01*
X190000Y170000D02*
Y250000D01*
Y240000D02*
X200000Y250000D01*
D27*
X25500Y340000D02*
Y337501D01*
Y338750D01*
X32998D01*
X31748Y340000D01*
X31998Y525000D02*
Y520002D01*
X30748D01*
X25750Y525000D01*
X24500D01*
X31998Y512504D02*
Y517502D01*
X28249D01*
X29498Y515003D01*
Y513754D01*
X28249Y512504D01*
X25750D01*
X24500Y513754D01*
Y516253D01*
X25750Y517502D01*
X831500Y300000D02*
Y302499D01*
Y301250D01*
X824002D01*
X825252Y300000D01*
X825002Y115000D02*
Y119998D01*
X826252D01*
X831250Y115000D01*
X832500D01*
X825002Y127496D02*
Y122498D01*
X828751D01*
X827502Y124997D01*
Y126246D01*
X828751Y127496D01*
X831250D01*
X832500Y126246D01*
Y123747D01*
X831250Y122498D01*
X831500Y520000D02*
Y522499D01*
Y521250D01*
X824002D01*
X825252Y520000D01*
X825002Y335000D02*
Y339998D01*
X826252D01*
X831250Y335000D01*
X832500D01*
X825002Y347496D02*
Y342498D01*
X828751D01*
X827502Y344997D01*
Y346246D01*
X828751Y347496D01*
X831250D01*
X832500Y346246D01*
Y343747D01*
X831250Y342498D01*
X831500Y740000D02*
Y742499D01*
Y741250D01*
X824002D01*
X825252Y740000D01*
X825002Y555000D02*
Y559998D01*
X826252D01*
X831250Y555000D01*
X832500D01*
X825002Y567496D02*
Y562498D01*
X828751D01*
X827502Y564997D01*
Y566246D01*
X828751Y567496D01*
X831250D01*
X832500Y566246D01*
Y563747D01*
X831250Y562498D01*
X25500Y560000D02*
Y557501D01*
Y558750D01*
X32998D01*
X31748Y560000D01*
X31998Y745000D02*
Y740002D01*
X30748D01*
X25750Y745000D01*
X24500D01*
X31998Y732504D02*
Y737502D01*
X28249D01*
X29498Y735003D01*
Y733754D01*
X28249Y732504D01*
X25750D01*
X24500Y733754D01*
Y736253D01*
X25750Y737502D01*
X25500Y120000D02*
Y117501D01*
Y118750D01*
X32998D01*
X31748Y120000D01*
X31998Y305000D02*
Y300002D01*
X30748D01*
X25750Y305000D01*
X24500D01*
X31998Y292504D02*
Y297502D01*
X28249D01*
X29498Y295003D01*
Y293754D01*
X28249Y292504D01*
X25750D01*
X24500Y293754D01*
Y296253D01*
X25750Y297502D01*
D36*
X245750Y458500D02*
G03*
X245750Y458500I-1250J0D01*
G01*
X762870Y267500D02*
G03*
X762870Y267500I1250J0D01*
G01*
X765500Y459500D02*
G03*
X765500Y459500I1250J0D01*
G01*
X628250Y690000D02*
G03*
X628250Y690000I1250J0D01*
G01*
X645750Y653245D02*
G03*
X645750Y653245I1250J0D01*
G01*
X758000Y547500D02*
G03*
X758000Y547500I1250J0D01*
G01*
X523250Y610000D02*
G03*
X523250Y610000I1250J0D01*
G01*
X505750Y646755D02*
G03*
X505750Y646755I1250J0D01*
G01*
X228750Y610000D02*
G03*
X228750Y610000I-1250J0D01*
G01*
X211250Y646755D02*
G03*
X211250Y646755I-1250J0D01*
G01*
X99000Y752500D02*
G03*
X99000Y752500I-1250J0D01*
G01*
X333750Y690000D02*
G03*
X333750Y690000I-1250J0D01*
G01*
X351250Y653245D02*
G03*
X351250Y653245I-1250J0D01*
G01*
X184750Y248500D02*
G03*
X184750Y248500I-1250J0D01*
G01*
D74*
X674540Y247794D02*
X682871D01*
X679538D01*
Y249460D01*
Y246128D01*
Y247794D01*
X682871D01*
X684537Y246128D01*
X681205Y239463D02*
Y236131D01*
X679538Y234465D01*
X674540D01*
Y239463D01*
X676206Y241129D01*
X677872Y239463D01*
Y234465D01*
X681205Y224468D02*
Y229466D01*
X679538Y231133D01*
X676206D01*
X674540Y229466D01*
Y224468D01*
Y216137D02*
Y219470D01*
X676206Y221136D01*
X679538D01*
X681205Y219470D01*
Y216137D01*
X679538Y214471D01*
X677872D01*
Y221136D01*
X684537Y194478D02*
X674540D01*
Y199476D01*
X676206Y201142D01*
X679538D01*
X681205Y199476D01*
Y194478D01*
X674540Y189479D02*
Y186147D01*
X676206Y184481D01*
X679538D01*
X681205Y186147D01*
Y189479D01*
X679538Y191145D01*
X676206D01*
X674540Y189479D01*
X681205Y181149D02*
X676206D01*
X674540Y179482D01*
X676206Y177816D01*
X674540Y176150D01*
X676206Y174484D01*
X681205D01*
X674540Y171152D02*
X681205D01*
Y166153D01*
X679538Y164487D01*
X674540D01*
X494540Y625540D02*
X499618D01*
X497079D01*
Y640775D01*
X494540Y638236D01*
X662460Y674460D02*
X657382D01*
X659921D01*
Y659225D01*
X662460Y661764D01*
X362460Y674460D02*
X357382D01*
X359921D01*
Y659225D01*
X362460Y661764D01*
X194540Y625540D02*
X199618D01*
X197079D01*
Y640775D01*
X194540Y638236D01*
M02*
