G04*
G04 #@! TF.GenerationSoftware,Altium Limited,Altium Designer,21.1.1 (26)*
G04*
G04 Layer_Color=8421504*
%FSLAX44Y44*%
%MOMM*%
G71*
G04*
G04 #@! TF.SameCoordinates,63B2E272-0427-4AAB-BE5C-BBC369205028*
G04*
G04*
G04 #@! TF.FilePolarity,Positive*
G04*
G01*
G75*
%ADD11C,1.0000*%
%ADD16R,0.5200X0.5600*%
%ADD17R,0.3600X0.3200*%
%ADD18R,0.3500X0.2500*%
%ADD19R,0.2500X0.3500*%
%ADD20C,0.4100*%
%ADD21R,0.5600X0.5200*%
%ADD22R,0.5000X0.4500*%
%ADD23R,0.5200X0.5200*%
%ADD24R,0.8500X0.9000*%
%ADD25R,0.9000X0.8500*%
%ADD26R,1.5000X0.3500*%
%ADD29R,0.4500X0.5000*%
%ADD30R,1.7300X0.9400*%
%ADD31R,1.0000X1.0000*%
%ADD32R,0.8000X0.3000*%
G04:AMPARAMS|DCode=34|XSize=0.25mm|YSize=0.5mm|CornerRadius=0.05mm|HoleSize=0mm|Usage=FLASHONLY|Rotation=90.000|XOffset=0mm|YOffset=0mm|HoleType=Round|Shape=RoundedRectangle|*
%AMROUNDEDRECTD34*
21,1,0.2500,0.4000,0,0,90.0*
21,1,0.1500,0.5000,0,0,90.0*
1,1,0.1000,0.2000,0.0750*
1,1,0.1000,0.2000,-0.0750*
1,1,0.1000,-0.2000,-0.0750*
1,1,0.1000,-0.2000,0.0750*
%
%ADD34ROUNDEDRECTD34*%
%ADD37R,1.4000X1.8000*%
%ADD38R,1.2000X1.8000*%
%ADD39R,1.8000X0.8000*%
%ADD40R,2.2300X2.2300*%
%ADD41R,0.9500X0.3500*%
%ADD42R,0.3500X0.9500*%
%ADD44R,0.3000X1.0000*%
%ADD45R,1.6500X1.3000*%
%ADD46R,0.6000X1.9000*%
%ADD47R,2.1000X2.8000*%
G04:AMPARAMS|DCode=48|XSize=0.45mm|YSize=1.15mm|CornerRadius=0.0495mm|HoleSize=0mm|Usage=FLASHONLY|Rotation=270.000|XOffset=0mm|YOffset=0mm|HoleType=Round|Shape=RoundedRectangle|*
%AMROUNDEDRECTD48*
21,1,0.4500,1.0510,0,0,270.0*
21,1,0.3510,1.1500,0,0,270.0*
1,1,0.0990,-0.5255,-0.1755*
1,1,0.0990,-0.5255,0.1755*
1,1,0.0990,0.5255,0.1755*
1,1,0.0990,0.5255,-0.1755*
%
%ADD48ROUNDEDRECTD48*%
%ADD49R,0.9400X1.7300*%
G04:AMPARAMS|DCode=51|XSize=0.25mm|YSize=0.5mm|CornerRadius=0.05mm|HoleSize=0mm|Usage=FLASHONLY|Rotation=360.000|XOffset=0mm|YOffset=0mm|HoleType=Round|Shape=RoundedRectangle|*
%AMROUNDEDRECTD51*
21,1,0.2500,0.4000,0,0,360.0*
21,1,0.1500,0.5000,0,0,360.0*
1,1,0.1000,0.0750,-0.2000*
1,1,0.1000,-0.0750,-0.2000*
1,1,0.1000,-0.0750,0.2000*
1,1,0.1000,0.0750,0.2000*
%
%ADD51ROUNDEDRECTD51*%
%ADD55C,0.3500*%
%ADD75R,0.8540X1.7890*%
%ADD76R,1.7890X0.8540*%
G36*
X486000Y677750D02*
X465000D01*
Y705750D01*
X486000D01*
Y677750D01*
D02*
G37*
G36*
X189000Y677750D02*
X168000D01*
Y705750D01*
X189000D01*
Y677750D01*
D02*
G37*
G36*
X689000Y594250D02*
X668000D01*
Y622250D01*
X689000D01*
Y594250D01*
D02*
G37*
G36*
X392000Y594250D02*
X371000D01*
Y622250D01*
X392000D01*
Y594250D01*
D02*
G37*
G36*
X750615Y280000D02*
X720115D01*
Y293000D01*
X728615D01*
Y304000D01*
X750615D01*
Y280000D01*
D02*
G37*
G36*
Y116000D02*
X728615D01*
Y127000D01*
X720115D01*
Y140000D01*
X750615D01*
Y116000D01*
D02*
G37*
D11*
X750000Y810000D02*
D03*
Y50000D02*
D03*
X100000D02*
D03*
Y810000D02*
D03*
D16*
X243000Y364900D02*
D03*
Y357100D02*
D03*
Y467900D02*
D03*
Y460100D02*
D03*
X169000Y357100D02*
D03*
Y364900D02*
D03*
X166000Y487900D02*
D03*
Y480100D02*
D03*
X157000Y480200D02*
D03*
Y487800D02*
D03*
X765000Y159000D02*
D03*
Y166800D02*
D03*
X522000Y438650D02*
D03*
Y430850D02*
D03*
X512000Y430950D02*
D03*
Y438550D02*
D03*
X794500Y448900D02*
D03*
Y441100D02*
D03*
X736668Y676915D02*
D03*
Y684715D02*
D03*
X723032Y677015D02*
D03*
Y684615D02*
D03*
X724000Y623100D02*
D03*
Y630900D02*
D03*
X120331Y623085D02*
D03*
Y615285D02*
D03*
X133968Y622985D02*
D03*
Y615385D02*
D03*
X133000Y676900D02*
D03*
Y669100D02*
D03*
X180000Y206900D02*
D03*
Y199100D02*
D03*
X168000Y199200D02*
D03*
Y206800D02*
D03*
D17*
X146413Y396358D02*
D03*
X140813D02*
D03*
X140760Y414509D02*
D03*
X146360D02*
D03*
X164200Y242000D02*
D03*
X169800D02*
D03*
X164400Y233000D02*
D03*
X170000D02*
D03*
D18*
X158796Y396432D02*
D03*
X153296D02*
D03*
X153368Y414457D02*
D03*
X158868D02*
D03*
X761250Y653000D02*
D03*
X766750D02*
D03*
X761315Y669008D02*
D03*
X766815D02*
D03*
X761315Y661008D02*
D03*
X766815D02*
D03*
Y629008D02*
D03*
X761315D02*
D03*
X766815Y645008D02*
D03*
X761315D02*
D03*
X766815Y637008D02*
D03*
X761315D02*
D03*
X95750Y647000D02*
D03*
X90250D02*
D03*
X95685Y630992D02*
D03*
X90185D02*
D03*
X95685Y638992D02*
D03*
X90185D02*
D03*
Y670992D02*
D03*
X95685D02*
D03*
X90185Y654992D02*
D03*
X95685D02*
D03*
X90185Y662992D02*
D03*
X95685D02*
D03*
X178250Y242000D02*
D03*
X183750D02*
D03*
X178250Y233000D02*
D03*
X183750D02*
D03*
X181750Y188000D02*
D03*
X176250D02*
D03*
X257250Y202000D02*
D03*
X262750D02*
D03*
X257250Y186000D02*
D03*
X262750D02*
D03*
X257250Y194000D02*
D03*
X262750D02*
D03*
X183750Y217000D02*
D03*
X178250D02*
D03*
X262750Y218000D02*
D03*
X257250D02*
D03*
X183750Y225000D02*
D03*
X178250D02*
D03*
X257250Y226000D02*
D03*
X262750D02*
D03*
X257250Y210000D02*
D03*
X262750D02*
D03*
D19*
X234000Y463750D02*
D03*
Y458250D02*
D03*
X158673Y384719D02*
D03*
Y390219D02*
D03*
X186000Y365750D02*
D03*
Y360250D02*
D03*
X178000Y365750D02*
D03*
Y360250D02*
D03*
X194000Y365750D02*
D03*
Y360250D02*
D03*
X202000Y365750D02*
D03*
Y360250D02*
D03*
X218000Y365750D02*
D03*
Y360250D02*
D03*
X158701Y408186D02*
D03*
Y402686D02*
D03*
X226000Y365750D02*
D03*
Y360250D02*
D03*
X234000Y365750D02*
D03*
Y360250D02*
D03*
X252046Y395550D02*
D03*
Y390050D02*
D03*
X252000Y436250D02*
D03*
Y441750D02*
D03*
X158539Y426258D02*
D03*
Y420758D02*
D03*
X218000Y458250D02*
D03*
Y463750D02*
D03*
X226000Y458250D02*
D03*
Y463750D02*
D03*
X202000Y458250D02*
D03*
Y463750D02*
D03*
X194000Y458250D02*
D03*
Y463750D02*
D03*
X186000Y458250D02*
D03*
Y463750D02*
D03*
X178000Y458250D02*
D03*
Y463750D02*
D03*
X221000Y162750D02*
D03*
Y157250D02*
D03*
X211000Y162750D02*
D03*
Y157250D02*
D03*
X201000Y162750D02*
D03*
Y157250D02*
D03*
X191000Y162750D02*
D03*
Y157250D02*
D03*
X216000Y261750D02*
D03*
Y256250D02*
D03*
X207000Y256250D02*
D03*
Y261750D02*
D03*
X234000Y256250D02*
D03*
Y261750D02*
D03*
X242650Y256250D02*
D03*
Y261750D02*
D03*
X225000Y256250D02*
D03*
Y261750D02*
D03*
D20*
X174000Y380000D02*
D03*
Y388000D02*
D03*
Y396000D02*
D03*
Y428000D02*
D03*
Y436000D02*
D03*
Y444000D02*
D03*
X182000Y380000D02*
D03*
Y388000D02*
D03*
Y396000D02*
D03*
Y428000D02*
D03*
Y436000D02*
D03*
Y444000D02*
D03*
X190000Y380000D02*
D03*
Y388000D02*
D03*
Y396000D02*
D03*
Y428000D02*
D03*
Y436000D02*
D03*
Y444000D02*
D03*
X198000Y380000D02*
D03*
Y388000D02*
D03*
Y396000D02*
D03*
Y428000D02*
D03*
Y436000D02*
D03*
Y444000D02*
D03*
X206000Y380000D02*
D03*
Y388000D02*
D03*
Y396000D02*
D03*
Y428000D02*
D03*
Y436000D02*
D03*
Y444000D02*
D03*
X214000Y380000D02*
D03*
Y388000D02*
D03*
Y396000D02*
D03*
Y428000D02*
D03*
Y436000D02*
D03*
Y444000D02*
D03*
X222000Y380000D02*
D03*
Y388000D02*
D03*
Y396000D02*
D03*
Y428000D02*
D03*
Y436000D02*
D03*
Y444000D02*
D03*
X230000Y380000D02*
D03*
Y388000D02*
D03*
Y396000D02*
D03*
Y428000D02*
D03*
Y436000D02*
D03*
Y444000D02*
D03*
X238000Y380000D02*
D03*
Y388000D02*
D03*
Y396000D02*
D03*
Y428000D02*
D03*
Y436000D02*
D03*
Y444000D02*
D03*
D21*
X158100Y461000D02*
D03*
X165900D02*
D03*
X141100D02*
D03*
X148900D02*
D03*
X781900Y196000D02*
D03*
X774100D02*
D03*
X781900Y205000D02*
D03*
X774100D02*
D03*
X768400Y467500D02*
D03*
X760600D02*
D03*
X760706Y478211D02*
D03*
X768307D02*
D03*
X495100Y653000D02*
D03*
X502900D02*
D03*
X654900Y647000D02*
D03*
X647100D02*
D03*
X696100Y555000D02*
D03*
X703900D02*
D03*
X778900D02*
D03*
X771100D02*
D03*
X361900Y647000D02*
D03*
X354100D02*
D03*
X202100Y653000D02*
D03*
X209900D02*
D03*
X160900Y745000D02*
D03*
X153100D02*
D03*
X78100D02*
D03*
X85900D02*
D03*
X239172Y159930D02*
D03*
X231371D02*
D03*
X231471Y148848D02*
D03*
X239072D02*
D03*
D22*
X158250Y471000D02*
D03*
X165750D02*
D03*
X141250D02*
D03*
X148750D02*
D03*
X555139Y652280D02*
D03*
X547639D02*
D03*
X529211Y652444D02*
D03*
X536711D02*
D03*
X599250Y647000D02*
D03*
X606750D02*
D03*
X624750D02*
D03*
X617250D02*
D03*
X706250Y746000D02*
D03*
X698750D02*
D03*
X706250Y735000D02*
D03*
X698750D02*
D03*
X734250Y567000D02*
D03*
X741750D02*
D03*
X734250Y557000D02*
D03*
X741750D02*
D03*
X706750Y655000D02*
D03*
X699250D02*
D03*
X706750Y646000D02*
D03*
X699250D02*
D03*
X301861Y647720D02*
D03*
X309361D02*
D03*
X327789Y647556D02*
D03*
X320289D02*
D03*
X257750Y653000D02*
D03*
X250250D02*
D03*
X232250D02*
D03*
X239750D02*
D03*
X150750Y554000D02*
D03*
X158250D02*
D03*
X150750Y565000D02*
D03*
X158250D02*
D03*
X122750Y733000D02*
D03*
X115250D02*
D03*
X122750Y743000D02*
D03*
X115250D02*
D03*
X150250Y645000D02*
D03*
X157750D02*
D03*
X150250Y654000D02*
D03*
X157750D02*
D03*
D23*
X156100Y437000D02*
D03*
X147900D02*
D03*
X740100Y623000D02*
D03*
X731900D02*
D03*
X116900Y677000D02*
D03*
X125100D02*
D03*
D24*
X155500Y449000D02*
D03*
X142500D02*
D03*
X809500Y164000D02*
D03*
X796500D02*
D03*
X771500Y118000D02*
D03*
X784500D02*
D03*
X805500Y554000D02*
D03*
X792500D02*
D03*
X51500Y746000D02*
D03*
X64500D02*
D03*
D25*
X145000Y481500D02*
D03*
Y494500D02*
D03*
X794000Y207500D02*
D03*
Y194500D02*
D03*
X801352Y505907D02*
D03*
Y518907D02*
D03*
Y408925D02*
D03*
Y421925D02*
D03*
X751500Y723500D02*
D03*
Y710500D02*
D03*
X701500Y723500D02*
D03*
Y710500D02*
D03*
X105500Y576500D02*
D03*
Y589500D02*
D03*
X155500Y576500D02*
D03*
Y589500D02*
D03*
X154000Y196500D02*
D03*
Y209500D02*
D03*
D26*
X12500Y522500D02*
D03*
Y517500D02*
D03*
Y512500D02*
D03*
Y507500D02*
D03*
Y502500D02*
D03*
Y497500D02*
D03*
Y492500D02*
D03*
Y487500D02*
D03*
Y482500D02*
D03*
Y477500D02*
D03*
Y472500D02*
D03*
Y467500D02*
D03*
Y462500D02*
D03*
Y457500D02*
D03*
Y452500D02*
D03*
Y447500D02*
D03*
Y442500D02*
D03*
Y437500D02*
D03*
Y432500D02*
D03*
Y427500D02*
D03*
Y422500D02*
D03*
Y417500D02*
D03*
Y392500D02*
D03*
Y387500D02*
D03*
Y382500D02*
D03*
Y377500D02*
D03*
Y372500D02*
D03*
Y367500D02*
D03*
Y362500D02*
D03*
Y357500D02*
D03*
Y352500D02*
D03*
Y347500D02*
D03*
Y342500D02*
D03*
Y337500D02*
D03*
X844500Y117500D02*
D03*
Y122500D02*
D03*
Y127500D02*
D03*
Y132500D02*
D03*
Y137500D02*
D03*
Y142500D02*
D03*
Y147500D02*
D03*
Y152500D02*
D03*
Y157500D02*
D03*
Y162500D02*
D03*
Y167500D02*
D03*
Y172500D02*
D03*
Y177500D02*
D03*
Y182500D02*
D03*
Y187500D02*
D03*
Y192500D02*
D03*
Y197500D02*
D03*
Y202500D02*
D03*
Y207500D02*
D03*
Y212500D02*
D03*
Y217500D02*
D03*
Y222500D02*
D03*
Y247500D02*
D03*
Y252500D02*
D03*
Y257500D02*
D03*
Y262500D02*
D03*
Y267500D02*
D03*
Y272500D02*
D03*
Y277500D02*
D03*
Y282500D02*
D03*
Y287500D02*
D03*
Y292500D02*
D03*
Y297500D02*
D03*
Y302500D02*
D03*
Y337500D02*
D03*
Y342500D02*
D03*
Y347500D02*
D03*
Y352500D02*
D03*
Y357500D02*
D03*
Y362500D02*
D03*
Y367500D02*
D03*
Y372500D02*
D03*
Y377500D02*
D03*
Y382500D02*
D03*
Y387500D02*
D03*
Y392500D02*
D03*
Y397500D02*
D03*
Y402500D02*
D03*
Y407500D02*
D03*
Y412500D02*
D03*
Y417500D02*
D03*
Y422500D02*
D03*
Y427500D02*
D03*
Y432500D02*
D03*
Y437500D02*
D03*
Y442500D02*
D03*
Y467500D02*
D03*
Y472500D02*
D03*
Y477500D02*
D03*
Y482500D02*
D03*
Y487500D02*
D03*
Y492500D02*
D03*
Y497500D02*
D03*
Y502500D02*
D03*
Y507500D02*
D03*
Y512500D02*
D03*
Y517500D02*
D03*
Y522500D02*
D03*
Y557500D02*
D03*
Y562500D02*
D03*
Y567500D02*
D03*
Y572500D02*
D03*
Y577500D02*
D03*
Y582500D02*
D03*
Y587500D02*
D03*
Y592500D02*
D03*
Y597500D02*
D03*
Y602500D02*
D03*
Y607500D02*
D03*
Y612500D02*
D03*
Y617500D02*
D03*
Y622500D02*
D03*
Y627500D02*
D03*
Y632500D02*
D03*
Y637500D02*
D03*
Y642500D02*
D03*
Y647500D02*
D03*
Y652500D02*
D03*
Y657500D02*
D03*
Y662500D02*
D03*
Y687500D02*
D03*
Y692500D02*
D03*
Y697500D02*
D03*
Y702500D02*
D03*
Y707500D02*
D03*
Y712500D02*
D03*
Y717500D02*
D03*
Y722500D02*
D03*
Y727500D02*
D03*
Y732500D02*
D03*
Y737500D02*
D03*
Y742500D02*
D03*
X12500D02*
D03*
Y737500D02*
D03*
Y732500D02*
D03*
Y727500D02*
D03*
Y722500D02*
D03*
Y717500D02*
D03*
Y712500D02*
D03*
Y707500D02*
D03*
Y702500D02*
D03*
Y697500D02*
D03*
Y692500D02*
D03*
Y687500D02*
D03*
Y682500D02*
D03*
Y677500D02*
D03*
Y672500D02*
D03*
Y667500D02*
D03*
Y662500D02*
D03*
Y657500D02*
D03*
Y652500D02*
D03*
Y647500D02*
D03*
Y642500D02*
D03*
Y637500D02*
D03*
Y612500D02*
D03*
Y607500D02*
D03*
Y602500D02*
D03*
Y597500D02*
D03*
Y592500D02*
D03*
Y587500D02*
D03*
Y582500D02*
D03*
Y577500D02*
D03*
Y572500D02*
D03*
Y567500D02*
D03*
Y562500D02*
D03*
Y557500D02*
D03*
Y302500D02*
D03*
Y297500D02*
D03*
Y292500D02*
D03*
Y287500D02*
D03*
Y282500D02*
D03*
Y277500D02*
D03*
Y272500D02*
D03*
Y267500D02*
D03*
Y262500D02*
D03*
Y257500D02*
D03*
Y252500D02*
D03*
Y247500D02*
D03*
Y242500D02*
D03*
Y237500D02*
D03*
Y232500D02*
D03*
Y227500D02*
D03*
Y222500D02*
D03*
Y217500D02*
D03*
Y212500D02*
D03*
Y207500D02*
D03*
Y202500D02*
D03*
Y197500D02*
D03*
Y172500D02*
D03*
Y167500D02*
D03*
Y162500D02*
D03*
Y157500D02*
D03*
Y152500D02*
D03*
Y147500D02*
D03*
Y142500D02*
D03*
Y137500D02*
D03*
Y132500D02*
D03*
Y127500D02*
D03*
Y122500D02*
D03*
Y117500D02*
D03*
D29*
X765000Y203750D02*
D03*
Y196250D02*
D03*
D30*
X778000Y148050D02*
D03*
Y131950D02*
D03*
D31*
X738365Y127500D02*
D03*
Y292500D02*
D03*
D32*
X754620Y152500D02*
D03*
Y157500D02*
D03*
Y162500D02*
D03*
Y167500D02*
D03*
Y172500D02*
D03*
Y177500D02*
D03*
Y182500D02*
D03*
Y187500D02*
D03*
Y192500D02*
D03*
Y197500D02*
D03*
Y202500D02*
D03*
Y207500D02*
D03*
Y212500D02*
D03*
Y217500D02*
D03*
Y222500D02*
D03*
Y227500D02*
D03*
Y232500D02*
D03*
Y237500D02*
D03*
Y242500D02*
D03*
Y247500D02*
D03*
Y252500D02*
D03*
Y257500D02*
D03*
Y262500D02*
D03*
Y267500D02*
D03*
D34*
X812500Y151500D02*
D03*
Y146500D02*
D03*
Y141500D02*
D03*
Y136500D02*
D03*
Y131500D02*
D03*
Y126500D02*
D03*
X793500D02*
D03*
Y131500D02*
D03*
Y136500D02*
D03*
Y141500D02*
D03*
Y146500D02*
D03*
Y151500D02*
D03*
D37*
X549250Y461500D02*
D03*
Y396500D02*
D03*
D38*
X684750Y469500D02*
D03*
Y396000D02*
D03*
D39*
X569250Y467500D02*
D03*
Y456500D02*
D03*
Y445500D02*
D03*
Y434500D02*
D03*
Y423500D02*
D03*
Y412500D02*
D03*
Y401500D02*
D03*
Y390500D02*
D03*
D40*
X757000Y430000D02*
D03*
D41*
X775400Y439750D02*
D03*
Y433250D02*
D03*
Y426750D02*
D03*
Y420250D02*
D03*
X738599D02*
D03*
Y426750D02*
D03*
Y433250D02*
D03*
Y439750D02*
D03*
D42*
X766750Y411600D02*
D03*
X760250D02*
D03*
X753750D02*
D03*
X747250D02*
D03*
Y448400D02*
D03*
X753750D02*
D03*
X760250D02*
D03*
X766750D02*
D03*
D44*
X544500Y700500D02*
D03*
X549500D02*
D03*
X559500D02*
D03*
X554500D02*
D03*
X599500D02*
D03*
X594500D02*
D03*
X604500D02*
D03*
X609500D02*
D03*
X619500D02*
D03*
X614500D02*
D03*
X624500D02*
D03*
X629500D02*
D03*
X584500D02*
D03*
X589500D02*
D03*
X579500D02*
D03*
X574500D02*
D03*
X564500D02*
D03*
X569500D02*
D03*
X539500Y700500D02*
D03*
X534500D02*
D03*
X524500D02*
D03*
X529500D02*
D03*
X609500Y599500D02*
D03*
X604500D02*
D03*
X594500D02*
D03*
X599500D02*
D03*
X554500D02*
D03*
X559500D02*
D03*
X549500D02*
D03*
X544500D02*
D03*
X534500D02*
D03*
X539500D02*
D03*
X529500D02*
D03*
X524500D02*
D03*
X569500D02*
D03*
X564500D02*
D03*
X574500D02*
D03*
X579500D02*
D03*
X589500D02*
D03*
X584500D02*
D03*
X614500Y599500D02*
D03*
X619500D02*
D03*
X629500D02*
D03*
X624500D02*
D03*
X312500Y599500D02*
D03*
X307500D02*
D03*
X297500D02*
D03*
X302500D02*
D03*
X257500D02*
D03*
X262500D02*
D03*
X252500D02*
D03*
X247500D02*
D03*
X237500D02*
D03*
X242500D02*
D03*
X232500D02*
D03*
X227500D02*
D03*
X272500D02*
D03*
X267500D02*
D03*
X277500D02*
D03*
X282500D02*
D03*
X292500D02*
D03*
X287500D02*
D03*
X317500Y599500D02*
D03*
X322500D02*
D03*
X332500D02*
D03*
X327500D02*
D03*
X247500Y700500D02*
D03*
X252500D02*
D03*
X262500D02*
D03*
X257500D02*
D03*
X302500D02*
D03*
X297500D02*
D03*
X307500D02*
D03*
X312500D02*
D03*
X322500D02*
D03*
X317500D02*
D03*
X327500D02*
D03*
X332500D02*
D03*
X287500D02*
D03*
X292500D02*
D03*
X282500D02*
D03*
X277500D02*
D03*
X267500D02*
D03*
X272500D02*
D03*
X242500Y700500D02*
D03*
X237500D02*
D03*
X227500D02*
D03*
X232500D02*
D03*
D45*
X652250Y719500D02*
D03*
X501750D02*
D03*
X501750Y580500D02*
D03*
X652250D02*
D03*
X204750D02*
D03*
X355250D02*
D03*
X355250Y719500D02*
D03*
X204750D02*
D03*
D46*
X567000Y668250D02*
D03*
X577000D02*
D03*
X557000D02*
D03*
X587000D02*
D03*
X537000D02*
D03*
X527000D02*
D03*
X607000D02*
D03*
X617000D02*
D03*
X637000D02*
D03*
X507000D02*
D03*
X647000D02*
D03*
X517000D02*
D03*
X627000D02*
D03*
X597000D02*
D03*
X547000D02*
D03*
X587000Y631750D02*
D03*
X577000D02*
D03*
X597000D02*
D03*
X567000D02*
D03*
X617000D02*
D03*
X627000D02*
D03*
X547000D02*
D03*
X537000D02*
D03*
X517000D02*
D03*
X647000D02*
D03*
X507000D02*
D03*
X637000D02*
D03*
X527000D02*
D03*
X557000D02*
D03*
X607000D02*
D03*
X290000Y631750D02*
D03*
X280000D02*
D03*
X300000D02*
D03*
X270000D02*
D03*
X320000D02*
D03*
X330000D02*
D03*
X250000D02*
D03*
X240000D02*
D03*
X220000D02*
D03*
X350000D02*
D03*
X210000D02*
D03*
X340000D02*
D03*
X230000D02*
D03*
X260000D02*
D03*
X310000D02*
D03*
X270000Y668250D02*
D03*
X280000D02*
D03*
X260000D02*
D03*
X290000D02*
D03*
X240000D02*
D03*
X230000D02*
D03*
X310000D02*
D03*
X320000D02*
D03*
X340000D02*
D03*
X210000D02*
D03*
X350000D02*
D03*
X220000D02*
D03*
X330000D02*
D03*
X300000D02*
D03*
X250000D02*
D03*
D47*
X678500Y691750D02*
D03*
X475500D02*
D03*
Y608250D02*
D03*
X678500D02*
D03*
X178500Y608250D02*
D03*
X381500D02*
D03*
Y691750D02*
D03*
X178500D02*
D03*
D48*
X759250Y555250D02*
D03*
Y561750D02*
D03*
Y568250D02*
D03*
Y574750D02*
D03*
X716750Y555250D02*
D03*
Y561750D02*
D03*
Y568250D02*
D03*
Y574750D02*
D03*
X97750Y744750D02*
D03*
Y738250D02*
D03*
Y731750D02*
D03*
Y725250D02*
D03*
X140250Y744750D02*
D03*
Y738250D02*
D03*
Y731750D02*
D03*
Y725250D02*
D03*
D49*
X733550Y741000D02*
D03*
X717450D02*
D03*
X123450Y559000D02*
D03*
X139550D02*
D03*
D51*
X739000Y707500D02*
D03*
X734000D02*
D03*
X729000D02*
D03*
X724000D02*
D03*
X719000D02*
D03*
X714000D02*
D03*
Y726500D02*
D03*
X719000D02*
D03*
X724000D02*
D03*
X729000D02*
D03*
X734000D02*
D03*
X739000D02*
D03*
X118000Y592500D02*
D03*
X123000D02*
D03*
X128000D02*
D03*
X133000D02*
D03*
X138000D02*
D03*
X143000D02*
D03*
Y573500D02*
D03*
X138000D02*
D03*
X133000D02*
D03*
X128000D02*
D03*
X123000D02*
D03*
X118000D02*
D03*
D55*
X240000Y190000D02*
D03*
X230000D02*
D03*
X220000D02*
D03*
X210000D02*
D03*
X200000D02*
D03*
X240000Y200000D02*
D03*
X230000D02*
D03*
X220000D02*
D03*
X210000D02*
D03*
X200000D02*
D03*
X240000Y210000D02*
D03*
X230000D02*
D03*
X220000D02*
D03*
X210000D02*
D03*
X200000D02*
D03*
X240000Y220000D02*
D03*
X230000D02*
D03*
X220000D02*
D03*
X210000D02*
D03*
X200000D02*
D03*
X240000Y230000D02*
D03*
X230000D02*
D03*
X220000D02*
D03*
X210000D02*
D03*
D75*
X803000Y139000D02*
D03*
D76*
X726500Y717000D02*
D03*
X130500Y583000D02*
D03*
M02*
