M48
;Layer_Color=9474304
;FILE_FORMAT=4:4
METRIC,LZ
;TYPE=PLATED
T1F00S00C0.2000
T2F00S00C0.3000
T3F00S00C0.7000
T4F00S00C1.1000
;TYPE=NON_PLATED
%
T01
X00027553Y00172447
X000325Y001775
Y001925
X000275Y001875
X00045Y002025
X001425Y001575
X0014Y001475
X001275Y0012
X0019Y0013
Y00138
Y00146
Y00154
Y00162
Y0017
Y00178
X00208Y00202
X00216Y00119
X00224
X00232
X0024
X002725Y00154
T02
X000375Y000725
X00045Y0008
X0003Y000875
Y001025
Y00145
Y0016
Y00205
Y0022
X00055Y002525
X0007
X00085
Y002425
Y002325
X00095
Y002225
X00085
X00105
Y002325
Y002425
Y002525
X0012
X001375
X001525
Y002425
X00095Y001875
Y001495
Y001175
X001775Y00115
X0017Y00104
X00285Y00075
X002725Y00146
Y00165
Y00178
Y001975
X002575
X003825Y0022
T03
X001846Y0022115
Y0023385
X001973
X0021
Y0022115
X001973
X002227
X002354
Y0023385
X002227
T04
X000592Y0006
X000846
X0011
X001354
X001608
X002019
X002273
X002527
X002781
X003173Y000738
X003427
Y000992
X003173
Y001246
X003427
Y0015
Y001754
Y002008
X003173
Y002262
X003427
X003173Y001754
Y0015
M30
