M48
;Layer_Color=9474304
;FILE_FORMAT=2:4
METRIC,LZ
;TYPE=PLATED
T1F00S00C0.3000
T2F00S00C3.2000
;TYPE=NON_PLATED
T3F00S00C1.2700
%
T01
X262836Y0465
Y0846
Y09815
X263205Y1354
Y1477
X264055Y1862
Y1982
X296455
X295655Y160282
X296655Y12235
X296155Y1097
X296655Y0722
X296505Y0595
X296455Y23705
X264055
Y2492
X243599Y257625
X249161Y270819
X264055Y2887
X2642Y3005
X239798Y3158
Y3233
X220649Y327434
X210149Y334805
X226Y342423
X232148Y349886
X189Y340056
X19783Y321379
X173223Y316129
X156473
X152223Y355118
X108814Y351649
X086157Y327434
X074925Y318789
X074925Y274708
X112157Y305675
X20425Y296582
X215399Y26625
X296455Y274708
Y313079
Y351346
X3152Y325874
X315258Y2878
X315487Y2497
X3152Y21177
X315487Y172803
X316122Y140359
X315553Y1201
Y1126
X3152Y098007
Y084808
X314655Y0462
X347155Y0592
Y0722
X346155Y1107
X347155Y1477
Y18518
X366957Y186376
X361243Y200891
X368901Y226546
X346155Y2242
X346326Y2624
X361423Y279925
X368661Y289901
X374151Y29965
X383665Y30525
X395073Y298994
X40155Y3105
X4068Y323899
X3962Y33315
X38974Y28465
X383665Y239996
X395007Y21698
X406Y221296
X4145Y232296
X42598Y245625
X436142Y2539
X443008Y25965
X461597Y26616
X47279Y266445
X484149Y2649
X471573Y3089
X481301Y320536
X452789Y33165
X346751Y33945
X346326Y300925
X389181Y178891
X442458Y163079
X437949Y151767
X458301Y160282
X471847Y158
X484149Y160142
Y206891
X474347
X462266
X532842Y178768
X540342
X5615Y178891
X5805Y18205
X5645Y206891
X559342Y28245
X57775Y2878
X56175Y310747
X540946Y273708
X533516Y274733
X351096Y376564
X346751Y4147
Y453046
Y490812
Y52945
X316155Y5417
X3152Y5164
Y4787
Y440316
Y4021
X315487Y363713
X296455Y389469
X263678
Y40175
X237004Y39775
X215399Y37525
X20425Y409407
X19783Y433151
X210149Y446
X220389Y437
X226Y45475
X264058Y4529
X266228Y442489
X264305Y491
X264113Y5164
X263678Y52945
X264113Y5418
X2865Y5545
X296455Y52945
X296259Y5164
X296455Y504038
Y491
X1825Y469
X189Y4495
X164473Y4309
X148473
X150973Y403712
X102407Y419
X063925Y420582
X067425Y43375
X064001Y379567
X105611Y464066
X105657Y492877
X090157
X136223Y47825
X155723
X144536Y464304
X137157Y5545
X138352Y573035
X090157Y56305
X171049Y538377
X182388Y359722
X2605Y3698
T02
X58Y051
X5805Y5395
T03
X30555Y02225
X33605Y56605
M30
