G04*
G04 #@! TF.GenerationSoftware,Altium Limited,Altium Designer,22.11.1 (43)*
G04*
G04 Layer_Physical_Order=3*
G04 Layer_Color=128*
%FSLAX44Y44*%
%MOMM*%
G71*
G04*
G04 #@! TF.SameCoordinates,C7E27A77-0888-4956-AA08-943BE8D70555*
G04*
G04*
G04 #@! TF.FilePolarity,Negative*
G04*
G01*
G75*
%ADD13C,0.1500*%
%ADD41C,1.0160*%
%ADD42C,1.5280*%
G04:AMPARAMS|DCode=43|XSize=2.544mm|YSize=2.544mm|CornerRadius=0mm|HoleSize=0mm|Usage=FLASHONLY|Rotation=0.000|XOffset=0mm|YOffset=0mm|HoleType=Round|Shape=Relief|Width=0.254mm|Gap=0.254mm|Entries=4|*
%AMTHD43*
7,0,0,2.5440,2.0360,0.2540,45*
%
%ADD43THD43*%
%ADD44C,1.2080*%
%ADD45C,1.0080*%
%ADD46C,0.8080*%
%ADD47C,0.7080*%
G04:AMPARAMS|DCode=48|XSize=2.024mm|YSize=2.024mm|CornerRadius=0mm|HoleSize=0mm|Usage=FLASHONLY|Rotation=0.000|XOffset=0mm|YOffset=0mm|HoleType=Round|Shape=Relief|Width=0.254mm|Gap=0.254mm|Entries=4|*
%AMTHD48*
7,0,0,2.0240,1.5160,0.2540,45*
%
%ADD48THD48*%
D13*
X408335Y217500D02*
X407502Y218333D01*
Y219999D01*
X408335Y220832D01*
X409168D01*
X410001Y219999D01*
Y219166D01*
Y219999D01*
X410834Y220832D01*
X411667D01*
X412500Y219999D01*
Y218333D01*
X411667Y217500D01*
D41*
X406000Y150000D02*
G03*
X420000Y136000I14000J-0D01*
G01*
X420000Y164000D02*
G03*
X406000Y150000I0J-14000D01*
G01*
X35000Y249250D02*
G03*
X40000Y254250I0J5000D01*
G01*
X35000Y123750D02*
G03*
X29000Y129750I-6000J0D01*
G01*
X29000Y117750D02*
G03*
X35000Y123750I0J6000D01*
G01*
X40000Y45750D02*
G03*
X35000Y50750I-5000J0D01*
G01*
X40000Y42500D02*
X42500Y40000D01*
X417500D01*
X420000Y42500D01*
Y136000D01*
Y164000D02*
Y257376D01*
X417500Y259876D02*
X420000Y257376D01*
X42500Y259876D02*
X417500D01*
X40000Y257125D02*
X42500Y259876D01*
X40000Y254250D02*
Y257125D01*
X0Y249250D02*
X35000D01*
X0Y129750D02*
Y249250D01*
Y129750D02*
X29000D01*
X0Y117750D02*
X29000D01*
X0Y50750D02*
Y117750D01*
Y50750D02*
X35000D01*
X40000Y42500D02*
Y45750D01*
D42*
X370000Y65000D02*
D03*
X379800Y107800D02*
D03*
X370000Y179600D02*
D03*
D43*
Y95000D02*
D03*
Y230400D02*
D03*
D44*
X175000Y211020D02*
D03*
X166020Y220000D02*
D03*
X183980D02*
D03*
X175000Y228980D02*
D03*
X240000Y211020D02*
D03*
X231020Y220000D02*
D03*
X248980D02*
D03*
X240000Y228980D02*
D03*
X305000Y211020D02*
D03*
X296020Y220000D02*
D03*
X313980D02*
D03*
X305000Y228980D02*
D03*
X110000Y211020D02*
D03*
X101020Y220000D02*
D03*
X118980D02*
D03*
X110000Y228980D02*
D03*
D45*
X311250Y85500D02*
D03*
X181250D02*
D03*
X246250D02*
D03*
X116250D02*
D03*
D46*
X162496Y145000D02*
D03*
X149996D02*
D03*
X172496Y137500D02*
D03*
X45000Y57500D02*
D03*
X32500Y72500D02*
D03*
Y87500D02*
D03*
Y102500D02*
D03*
Y145000D02*
D03*
Y160000D02*
D03*
Y175000D02*
D03*
X357500Y55000D02*
D03*
X382500Y75000D02*
D03*
X357500D02*
D03*
Y190000D02*
D03*
Y172500D02*
D03*
X382500Y190000D02*
D03*
Y172500D02*
D03*
Y55000D02*
D03*
X280000Y145000D02*
D03*
Y137500D02*
D03*
X292500Y145000D02*
D03*
Y137500D02*
D03*
X302500D02*
D03*
X215000Y145000D02*
D03*
Y137500D02*
D03*
X227500Y145000D02*
D03*
Y137500D02*
D03*
X237500D02*
D03*
X149996Y137500D02*
D03*
X162496D02*
D03*
X322500Y50000D02*
D03*
Y62500D02*
D03*
X332500D02*
D03*
Y50000D02*
D03*
X257500D02*
D03*
Y62500D02*
D03*
X267500D02*
D03*
Y50000D02*
D03*
X192500D02*
D03*
Y62500D02*
D03*
X202500D02*
D03*
Y50000D02*
D03*
X70000Y80000D02*
D03*
X57500D02*
D03*
X137500Y50000D02*
D03*
Y62500D02*
D03*
X127500D02*
D03*
Y50000D02*
D03*
X107500Y137500D02*
D03*
X97500D02*
D03*
Y145000D02*
D03*
X85000Y137500D02*
D03*
Y145000D02*
D03*
D47*
X35000Y202500D02*
D03*
X35000Y187500D02*
D03*
X27500Y192500D02*
D03*
X27500Y207500D02*
D03*
X35000Y217500D02*
D03*
X27500Y222500D02*
D03*
X35000Y232500D02*
D03*
X27500Y237500D02*
D03*
D48*
X298750Y85500D02*
D03*
X168750D02*
D03*
X233750D02*
D03*
X103750D02*
D03*
M02*
