G04*
G04 #@! TF.GenerationSoftware,Altium Limited,Altium Designer,22.11.1 (43)*
G04*
G04 Layer_Color=8388736*
%FSLAX44Y44*%
%MOMM*%
G71*
G04*
G04 #@! TF.SameCoordinates,C7E27A77-0888-4956-AA08-943BE8D70555*
G04*
G04*
G04 #@! TF.FilePolarity,Negative*
G04*
G01*
G75*
%ADD16R,0.9000X0.8000*%
%ADD19R,0.9581X0.9121*%
%ADD20R,0.9000X0.6500*%
%ADD22C,1.7272*%
%ADD23R,1.2000X1.2000*%
%ADD24R,1.0532X0.9532*%
%ADD25R,1.1532X1.1532*%
%ADD26R,1.7032X0.5532*%
%ADD27C,1.7332*%
%ADD28C,1.2232*%
%ADD29C,1.5700*%
%ADD30R,1.5700X1.5700*%
%ADD31C,1.2532*%
%ADD32R,1.0000X1.0000*%
%ADD33C,1.0000*%
G36*
X-0Y249250D02*
X2Y50750D01*
X21000Y50750D01*
X21000Y249250D01*
X-0Y249250D01*
D02*
G37*
G36*
X420000Y120000D02*
X417639D01*
X412975Y120738D01*
X408484Y122197D01*
X404276Y124341D01*
X400456Y127117D01*
X397117Y130456D01*
X394341Y134276D01*
X392197Y138483D01*
X390738Y142975D01*
X390000Y147639D01*
Y152361D01*
X390738Y157025D01*
X392197Y161516D01*
X394341Y165723D01*
X397117Y169543D01*
X400456Y172882D01*
X404276Y175658D01*
X408484Y177802D01*
X412975Y179261D01*
X417639Y180000D01*
X420000D01*
D01*
Y120000D01*
D02*
G37*
D16*
X172500Y167000D02*
D03*
Y148000D02*
D03*
X192500Y157500D02*
D03*
X127500D02*
D03*
X107500Y148000D02*
D03*
Y167000D02*
D03*
X257500Y157500D02*
D03*
X237500Y148000D02*
D03*
Y167000D02*
D03*
X322500Y157500D02*
D03*
X302500Y148000D02*
D03*
Y167000D02*
D03*
D19*
X167730Y57500D02*
D03*
X182270D02*
D03*
X312270D02*
D03*
X297730D02*
D03*
X232730D02*
D03*
X247270D02*
D03*
X102730D02*
D03*
X117270D02*
D03*
D20*
X65000Y67250D02*
D03*
Y52750D02*
D03*
D22*
X155000Y245000D02*
D03*
X195000D02*
D03*
X325000D02*
D03*
X285000D02*
D03*
X260000D02*
D03*
X220000D02*
D03*
X130000D02*
D03*
X90000D02*
D03*
D23*
X161000Y125000D02*
D03*
X189000D02*
D03*
X124000D02*
D03*
X96000D02*
D03*
X254000D02*
D03*
X226000D02*
D03*
X319000D02*
D03*
X291000D02*
D03*
D24*
X157500Y153500D02*
D03*
Y166500D02*
D03*
X287500D02*
D03*
Y153500D02*
D03*
X222500D02*
D03*
Y166500D02*
D03*
X92500Y153500D02*
D03*
Y166500D02*
D03*
D25*
X182500Y185000D02*
D03*
X167500D02*
D03*
X297500D02*
D03*
X312500D02*
D03*
X247500D02*
D03*
X232500D02*
D03*
X117500D02*
D03*
X102500D02*
D03*
D26*
X12500Y242500D02*
D03*
Y237500D02*
D03*
Y232500D02*
D03*
Y227500D02*
D03*
Y222500D02*
D03*
Y217500D02*
D03*
Y212500D02*
D03*
Y207500D02*
D03*
Y202500D02*
D03*
Y197500D02*
D03*
Y192500D02*
D03*
Y187500D02*
D03*
Y182500D02*
D03*
Y177500D02*
D03*
Y172500D02*
D03*
Y167500D02*
D03*
Y162500D02*
D03*
Y157500D02*
D03*
Y152500D02*
D03*
Y147500D02*
D03*
Y142500D02*
D03*
Y137500D02*
D03*
Y112500D02*
D03*
Y107500D02*
D03*
Y102500D02*
D03*
Y97500D02*
D03*
Y92500D02*
D03*
Y87500D02*
D03*
Y82500D02*
D03*
Y77500D02*
D03*
Y72500D02*
D03*
Y67500D02*
D03*
Y62500D02*
D03*
Y57500D02*
D03*
D27*
X370000Y95000D02*
D03*
Y65000D02*
D03*
D28*
X379800Y107800D02*
D03*
D29*
X370000Y179600D02*
D03*
D30*
Y230400D02*
D03*
D31*
X175000Y211020D02*
D03*
X166020Y220000D02*
D03*
X183980D02*
D03*
X175000Y228980D02*
D03*
X240000Y211020D02*
D03*
X231020Y220000D02*
D03*
X248980D02*
D03*
X240000Y228980D02*
D03*
X305000Y211020D02*
D03*
X296020Y220000D02*
D03*
X313980D02*
D03*
X305000Y228980D02*
D03*
X110000Y211020D02*
D03*
X101020Y220000D02*
D03*
X118980D02*
D03*
X110000Y228980D02*
D03*
D32*
X298750Y85500D02*
D03*
X168750D02*
D03*
X233750D02*
D03*
X103750D02*
D03*
D33*
X311250D02*
D03*
X181250D02*
D03*
X246250D02*
D03*
X116250D02*
D03*
M02*
