G04*
G04 #@! TF.GenerationSoftware,Altium Limited,Altium Designer,22.11.1 (43)*
G04*
G04 Layer_Color=8421504*
%FSLAX44Y44*%
%MOMM*%
G71*
G04*
G04 #@! TF.SameCoordinates,C7E27A77-0888-4956-AA08-943BE8D70555*
G04*
G04*
G04 #@! TF.FilePolarity,Positive*
G04*
G01*
G75*
%ADD14R,1.1000X1.1000*%
%ADD15C,1.5240*%
%ADD16R,0.9000X0.8000*%
%ADD17R,0.8500X0.7500*%
%ADD18R,0.9500X0.9500*%
%ADD19R,0.9581X0.9121*%
%ADD20R,0.9000X0.6500*%
%ADD21R,1.5000X0.3500*%
D14*
X189000Y125000D02*
D03*
X161000D02*
D03*
X124000D02*
D03*
X96000D02*
D03*
X254000D02*
D03*
X226000D02*
D03*
X319000D02*
D03*
X291000D02*
D03*
D15*
X155000Y245000D02*
D03*
X195000D02*
D03*
X325000D02*
D03*
X285000D02*
D03*
X260000D02*
D03*
X220000D02*
D03*
X130000D02*
D03*
X90000D02*
D03*
D16*
X172500Y167000D02*
D03*
Y148000D02*
D03*
X192500Y157500D02*
D03*
X127500D02*
D03*
X107500Y148000D02*
D03*
Y167000D02*
D03*
X257500Y157500D02*
D03*
X237500Y148000D02*
D03*
Y167000D02*
D03*
X322500Y157500D02*
D03*
X302500Y148000D02*
D03*
Y167000D02*
D03*
D17*
X157500Y153500D02*
D03*
Y166500D02*
D03*
X287500D02*
D03*
Y153500D02*
D03*
X222500D02*
D03*
Y166500D02*
D03*
X92500Y153500D02*
D03*
Y166500D02*
D03*
D18*
X182500Y185000D02*
D03*
X167500D02*
D03*
X297500D02*
D03*
X312500D02*
D03*
X247500D02*
D03*
X232500D02*
D03*
X117500D02*
D03*
X102500D02*
D03*
D19*
X167730Y57500D02*
D03*
X182270D02*
D03*
X312270D02*
D03*
X297730D02*
D03*
X232730D02*
D03*
X247270D02*
D03*
X102730D02*
D03*
X117270D02*
D03*
D20*
X65000Y67250D02*
D03*
Y52750D02*
D03*
D21*
X12500Y242500D02*
D03*
Y237500D02*
D03*
Y232500D02*
D03*
Y227500D02*
D03*
Y222500D02*
D03*
Y217500D02*
D03*
Y212500D02*
D03*
Y207500D02*
D03*
Y202500D02*
D03*
Y197500D02*
D03*
Y192500D02*
D03*
Y187500D02*
D03*
Y182500D02*
D03*
Y177500D02*
D03*
Y172500D02*
D03*
Y167500D02*
D03*
Y162500D02*
D03*
Y157500D02*
D03*
Y152500D02*
D03*
Y147500D02*
D03*
Y142500D02*
D03*
Y137500D02*
D03*
Y112500D02*
D03*
Y107500D02*
D03*
Y102500D02*
D03*
Y97500D02*
D03*
Y92500D02*
D03*
Y87500D02*
D03*
Y82500D02*
D03*
Y77500D02*
D03*
Y72500D02*
D03*
Y67500D02*
D03*
Y62500D02*
D03*
Y57500D02*
D03*
M02*
