G04*
G04 #@! TF.GenerationSoftware,Altium Limited,Altium Designer,22.11.1 (43)*
G04*
G04 Layer_Physical_Order=4*
G04 Layer_Color=16711680*
%FSLAX44Y44*%
%MOMM*%
G71*
G04*
G04 #@! TF.SameCoordinates,C7E27A77-0888-4956-AA08-943BE8D70555*
G04*
G04*
G04 #@! TF.FilePolarity,Positive*
G04*
G01*
G75*
%ADD13C,0.1500*%
%ADD21R,1.5000X0.3500*%
%ADD29C,1.5700*%
%ADD30R,1.5700X1.5700*%
%ADD32R,1.0000X1.0000*%
%ADD33C,1.0000*%
%ADD34C,0.3000*%
%ADD36C,1.5300*%
%ADD37C,1.0200*%
%ADD38C,1.0500*%
%ADD39C,0.6000*%
%ADD40C,0.4000*%
G36*
X55219Y257490D02*
X55462Y256566D01*
X38944Y240049D01*
X29186D01*
X28097Y240500D01*
X26903D01*
X25801Y240043D01*
X24957Y239199D01*
X24500Y238097D01*
Y236903D01*
X24957Y235801D01*
X25801Y234957D01*
X26903Y234500D01*
X28097D01*
X29186Y234951D01*
X31549D01*
X32242Y233681D01*
X32000Y233097D01*
Y231903D01*
X32457Y230801D01*
X33301Y229957D01*
X34403Y229500D01*
X35597D01*
X36686Y229951D01*
X45000D01*
X45975Y230145D01*
X46802Y230698D01*
X47590Y231485D01*
X49121Y231423D01*
X49577Y230823D01*
X49571Y230676D01*
X43944Y225049D01*
X29186D01*
X28097Y225500D01*
X26903D01*
X25801Y225043D01*
X24957Y224199D01*
X24500Y223097D01*
Y221903D01*
X24957Y220801D01*
X25801Y219957D01*
X26903Y219500D01*
X28097D01*
X29186Y219951D01*
X31549D01*
X32242Y218681D01*
X32000Y218097D01*
Y216903D01*
X32457Y215801D01*
X33301Y214957D01*
X34403Y214500D01*
X35597D01*
X36686Y214951D01*
X48918D01*
Y210049D01*
X29186D01*
X28097Y210500D01*
X26903D01*
X25801Y210043D01*
X24957Y209199D01*
X24500Y208097D01*
Y206903D01*
X24957Y205801D01*
X25801Y204957D01*
X26903Y204500D01*
X28097D01*
X29186Y204951D01*
X31549D01*
X32242Y203681D01*
X32000Y203097D01*
Y201903D01*
X32457Y200801D01*
X33301Y199957D01*
X34403Y199500D01*
X35597D01*
X36686Y199951D01*
X43944D01*
X49571Y194324D01*
X49577Y194177D01*
X49121Y193577D01*
X47590Y193515D01*
X46802Y194302D01*
X45975Y194855D01*
X45000Y195049D01*
X29186D01*
X28097Y195500D01*
X26903D01*
X25801Y195043D01*
X24957Y194199D01*
X24500Y193097D01*
Y191903D01*
X24957Y190801D01*
X25801Y189957D01*
X26903Y189500D01*
X28097D01*
X29186Y189951D01*
X31549D01*
X32242Y188681D01*
X32000Y188097D01*
Y186903D01*
X32457Y185801D01*
X33301Y184957D01*
X34403Y184500D01*
X35597D01*
X36686Y184951D01*
X38944D01*
X49660Y174236D01*
X49584Y173728D01*
X49235Y172902D01*
X49133Y172656D01*
X48964Y172451D01*
X48980Y172288D01*
X48918Y172136D01*
Y62500D01*
X48918Y62500D01*
X49235Y61735D01*
X54235Y56735D01*
X55000Y56418D01*
X69552D01*
X71418Y54552D01*
Y42039D01*
X43345D01*
X42039Y43345D01*
Y45750D01*
X42019Y45849D01*
X42029Y45950D01*
X41933Y46925D01*
X41846Y47212D01*
X41788Y47506D01*
X41041Y49308D01*
X40599Y49970D01*
X39220Y51349D01*
X38558Y51791D01*
X36756Y52538D01*
X36462Y52596D01*
X36175Y52683D01*
X35200Y52779D01*
X35099Y52769D01*
X35000Y52789D01*
X22540D01*
Y95710D01*
Y104290D01*
Y115711D01*
X29000D01*
X29099Y115731D01*
X29200Y115721D01*
X30370Y115836D01*
X30657Y115923D01*
X30951Y115981D01*
X33114Y116877D01*
X33775Y117319D01*
X35431Y118975D01*
X35873Y119636D01*
X36769Y121799D01*
X36827Y122093D01*
X36914Y122380D01*
X37029Y123550D01*
X37010Y123750D01*
X37029Y123950D01*
X36914Y125120D01*
X36827Y125407D01*
X36769Y125701D01*
X35873Y127864D01*
X35431Y128525D01*
X33775Y130181D01*
X33775Y130181D01*
X33114Y130623D01*
X30951Y131519D01*
X30657Y131577D01*
X30370Y131664D01*
X29200Y131779D01*
X29099Y131770D01*
X29000Y131789D01*
X22540D01*
Y247211D01*
X35000D01*
X35099Y247230D01*
X35200Y247221D01*
X36175Y247317D01*
X36462Y247404D01*
X36756Y247462D01*
X38558Y248209D01*
X38558Y248209D01*
X39220Y248651D01*
X39220Y248651D01*
X40599Y250030D01*
X40599Y250030D01*
X41041Y250692D01*
X41788Y252494D01*
X41846Y252788D01*
X41933Y253075D01*
X42029Y254050D01*
X42019Y254150D01*
X42039Y254250D01*
Y256337D01*
X43402Y257836D01*
X54977D01*
X55219Y257490D01*
D02*
G37*
G36*
X98471Y227924D02*
Y225709D01*
X97479Y225299D01*
X95721Y223540D01*
X94770Y221243D01*
Y218757D01*
X95721Y216460D01*
X97479Y214701D01*
X99777Y213750D01*
X102263D01*
X103142Y214114D01*
X104114Y213142D01*
X103750Y212263D01*
Y209776D01*
X104701Y207479D01*
X106460Y205721D01*
X108757Y204770D01*
X111243D01*
X113540Y205721D01*
X115161Y207342D01*
X115805Y207244D01*
X116431Y206953D01*
Y202536D01*
X113944Y200049D01*
X61056D01*
X51802Y209302D01*
X50975Y209855D01*
X50000Y210049D01*
Y214951D01*
X50975Y215145D01*
X51802Y215698D01*
X66056Y229951D01*
X96444D01*
X98471Y227924D01*
D02*
G37*
G36*
X163471Y230424D02*
Y225709D01*
X162479Y225299D01*
X160721Y223540D01*
X159770Y221243D01*
Y218757D01*
X160721Y216460D01*
X162479Y214701D01*
X164777Y213750D01*
X167263D01*
X168142Y214114D01*
X169114Y213142D01*
X168750Y212263D01*
Y209776D01*
X169701Y207479D01*
X171460Y205721D01*
X173757Y204770D01*
X176243D01*
X178540Y205721D01*
X180161Y207342D01*
X180805Y207244D01*
X181431Y206953D01*
Y205036D01*
X168944Y192549D01*
X58556D01*
X50042Y201063D01*
X50150Y202127D01*
X51308Y202587D01*
X58198Y195698D01*
X59025Y195145D01*
X60000Y194951D01*
X115000D01*
X115976Y195145D01*
X116802Y195698D01*
X120783Y199678D01*
X121335Y200505D01*
X121529Y201480D01*
Y214291D01*
X122521Y214701D01*
X124279Y216460D01*
X125230Y218757D01*
Y221243D01*
X124279Y223540D01*
X122521Y225299D01*
X120224Y226250D01*
X117737D01*
X116858Y225886D01*
X115886Y226858D01*
X116250Y227737D01*
Y230223D01*
X115299Y232521D01*
X113540Y234279D01*
X111243Y235230D01*
X108757D01*
X106460Y234279D01*
X104701Y232521D01*
X104122Y231123D01*
X103368Y230925D01*
X102670Y230935D01*
X99302Y234302D01*
X98476Y234855D01*
X97500Y235049D01*
X65000D01*
X64025Y234855D01*
X63198Y234302D01*
X51308Y222413D01*
X50150Y222873D01*
X50042Y223937D01*
X63556Y237451D01*
X156444D01*
X163471Y230424D01*
D02*
G37*
G36*
X228471Y237924D02*
Y225709D01*
X227479Y225299D01*
X225721Y223540D01*
X224770Y221243D01*
Y218757D01*
X225721Y216460D01*
X227479Y214701D01*
X229777Y213750D01*
X232263D01*
X233142Y214114D01*
X234114Y213142D01*
X233750Y212263D01*
Y209776D01*
X234701Y207479D01*
X236460Y205721D01*
X238757Y204770D01*
X241243D01*
X243540Y205721D01*
X245161Y207342D01*
X245805Y207244D01*
X246431Y206953D01*
Y205036D01*
X226444Y185049D01*
X56056D01*
X50042Y191063D01*
X50150Y192127D01*
X51308Y192587D01*
X55698Y188198D01*
X56525Y187645D01*
X57500Y187451D01*
X170000D01*
X170975Y187645D01*
X171802Y188198D01*
X185783Y202178D01*
X186335Y203005D01*
X186529Y203980D01*
Y214291D01*
X187521Y214701D01*
X189279Y216460D01*
X190230Y218757D01*
Y221243D01*
X189279Y223540D01*
X187521Y225299D01*
X185224Y226250D01*
X182737D01*
X181858Y225886D01*
X180886Y226858D01*
X181250Y227737D01*
Y230223D01*
X180299Y232521D01*
X178540Y234279D01*
X176243Y235230D01*
X173757D01*
X171460Y234279D01*
X169701Y232521D01*
X169671Y232447D01*
X169109Y232379D01*
X168329Y232525D01*
X167822Y233283D01*
X159302Y241802D01*
X158476Y242355D01*
X157500Y242549D01*
X62500D01*
X61525Y242355D01*
X60698Y241802D01*
X51308Y232413D01*
X50150Y232873D01*
X50042Y233937D01*
X61056Y244951D01*
X221444D01*
X228471Y237924D01*
D02*
G37*
G36*
X417961Y256531D02*
Y181123D01*
X417900Y181082D01*
X407639D01*
X407556Y181048D01*
X407470Y181069D01*
X402806Y180330D01*
X402729Y180284D01*
X402640Y180291D01*
X398149Y178831D01*
X398082Y178773D01*
X397993Y178766D01*
X393785Y176623D01*
X393727Y176555D01*
X393640Y176534D01*
X389820Y173758D01*
X389773Y173682D01*
X389691Y173648D01*
X386352Y170309D01*
X386318Y170226D01*
X386242Y170180D01*
X383466Y166360D01*
X383445Y166273D01*
X383377Y166215D01*
X381233Y162007D01*
X381226Y161918D01*
X381168Y161850D01*
X379709Y157359D01*
X379716Y157270D01*
X379670Y157194D01*
X378931Y152530D01*
X378952Y152444D01*
X378918Y152361D01*
Y147639D01*
X378952Y147556D01*
X378931Y147470D01*
X379670Y142806D01*
X379716Y142730D01*
X379709Y142640D01*
X381168Y138149D01*
X381226Y138082D01*
X381233Y137992D01*
X383377Y133785D01*
X383445Y133727D01*
X383466Y133640D01*
X386242Y129820D01*
X386318Y129773D01*
X386352Y129691D01*
X389691Y126352D01*
X389773Y126318D01*
X389820Y126242D01*
X393640Y123466D01*
X393727Y123445D01*
X393785Y123377D01*
X397993Y121233D01*
X398082Y121226D01*
X398149Y121168D01*
X402640Y119709D01*
X402729Y119716D01*
X402806Y119670D01*
X407470Y118931D01*
X407556Y118952D01*
X407639Y118918D01*
X416691Y118918D01*
X417961Y117673D01*
Y43345D01*
X416655Y42039D01*
X72500D01*
Y55000D01*
X70000Y57500D01*
X55000D01*
X50000Y62500D01*
Y172136D01*
X51270Y172815D01*
X51525Y172645D01*
X52500Y172451D01*
X285000D01*
X285975Y172645D01*
X286802Y173198D01*
X315783Y202178D01*
X316335Y203005D01*
X316529Y203980D01*
Y214291D01*
X317521Y214701D01*
X319279Y216460D01*
X320230Y218757D01*
Y221243D01*
X319279Y223540D01*
X317521Y225299D01*
X315223Y226250D01*
X312737D01*
X311858Y225886D01*
X310886Y226858D01*
X311250Y227737D01*
Y230223D01*
X310299Y232521D01*
X308540Y234279D01*
X306243Y235230D01*
X303757D01*
X301460Y234279D01*
X299839Y232658D01*
X299195Y232756D01*
X298569Y233047D01*
Y248980D01*
X298375Y249956D01*
X297822Y250783D01*
X292038Y256566D01*
X292281Y257490D01*
X292523Y257836D01*
X416655D01*
X417961Y256531D01*
D02*
G37*
G36*
X293471Y247924D02*
Y225709D01*
X292479Y225299D01*
X290721Y223540D01*
X289770Y221243D01*
Y218757D01*
X290721Y216460D01*
X292479Y214701D01*
X294777Y213750D01*
X297263D01*
X298142Y214114D01*
X299114Y213142D01*
X298750Y212263D01*
Y209776D01*
X299701Y207479D01*
X301460Y205721D01*
X303757Y204770D01*
X306243D01*
X308540Y205721D01*
X310161Y207342D01*
X310805Y207244D01*
X311431Y206953D01*
Y205036D01*
X283944Y177549D01*
X53556D01*
X50042Y181063D01*
X50150Y182127D01*
X51308Y182587D01*
X53198Y180698D01*
X54025Y180145D01*
X55000Y179951D01*
X227500D01*
X228475Y180145D01*
X229302Y180698D01*
X250783Y202178D01*
X251335Y203005D01*
X251529Y203980D01*
Y214291D01*
X252521Y214701D01*
X254279Y216460D01*
X255230Y218757D01*
Y221243D01*
X254279Y223540D01*
X252521Y225299D01*
X250224Y226250D01*
X247737D01*
X246858Y225886D01*
X245886Y226858D01*
X246250Y227737D01*
Y230223D01*
X245299Y232521D01*
X243540Y234279D01*
X241243Y235230D01*
X238757D01*
X236460Y234279D01*
X234839Y232658D01*
X234195Y232756D01*
X233569Y233047D01*
Y238980D01*
X233375Y239956D01*
X232822Y240783D01*
X224302Y249302D01*
X223475Y249855D01*
X222500Y250049D01*
X60000D01*
X59025Y249855D01*
X58198Y249302D01*
X51308Y242413D01*
X50150Y242873D01*
X50042Y243937D01*
X58556Y252451D01*
X288944D01*
X293471Y247924D01*
D02*
G37*
G36*
X417900Y180000D02*
X417961Y179959D01*
Y165879D01*
X415538Y165397D01*
X415353Y165320D01*
X415156Y165281D01*
X412620Y164231D01*
X412453Y164119D01*
X412267Y164042D01*
X409986Y162518D01*
X409844Y162376D01*
X409677Y162264D01*
X407736Y160323D01*
X407624Y160156D01*
X407482Y160014D01*
X405958Y157732D01*
X405881Y157547D01*
X405769Y157380D01*
X404719Y154844D01*
X404680Y154647D01*
X404603Y154462D01*
X404067Y151770D01*
Y151619D01*
X404031Y151472D01*
X403963Y150100D01*
X403978Y150000D01*
X403963Y149900D01*
X404031Y148528D01*
X404067Y148381D01*
Y148230D01*
X404603Y145538D01*
X404680Y145353D01*
X404719Y145156D01*
X405769Y142620D01*
X405881Y142453D01*
X405957Y142268D01*
X407482Y139986D01*
X407624Y139844D01*
X407736Y139677D01*
X409676Y137736D01*
X409843Y137624D01*
X409985Y137482D01*
X412267Y135957D01*
X412453Y135881D01*
X412620Y135769D01*
X415155Y134719D01*
X415352Y134680D01*
X415538Y134603D01*
X417961Y134121D01*
Y120831D01*
X417900Y120764D01*
Y120000D01*
X410000Y120000D01*
X407639D01*
X402975Y120739D01*
X398484Y122198D01*
X394277Y124342D01*
X390456Y127117D01*
X390456D01*
X388056Y129517D01*
X387117Y130456D01*
X387117Y130456D01*
D01*
X384342Y134276D01*
Y134277D01*
X382198Y138484D01*
X380739Y142975D01*
X380000Y147639D01*
Y152361D01*
X380739Y157025D01*
X382198Y161516D01*
X384342Y165723D01*
D01*
X387117Y169544D01*
Y169544D01*
X389517Y171944D01*
X390456Y172883D01*
X390456Y172883D01*
D01*
X394277Y175658D01*
X394277D01*
X398484Y177802D01*
X402975Y179261D01*
X407639Y180000D01*
X417900D01*
Y180000D01*
D02*
G37*
%LPC*%
G36*
X414000Y245000D02*
X404002D01*
Y228337D01*
X405002D01*
Y221668D01*
X415000D01*
Y230000D01*
X414000D01*
Y245000D01*
D02*
G37*
G36*
X372500Y251082D02*
X367500D01*
X366735Y250765D01*
X366735Y250765D01*
X349235Y233265D01*
X348918Y232500D01*
Y227500D01*
X349235Y226735D01*
X366735Y209235D01*
X367500Y208918D01*
X372500D01*
X373265Y209235D01*
X390765Y226735D01*
X390765Y226735D01*
X391082Y227500D01*
Y232500D01*
X391082Y232500D01*
X390765Y233265D01*
X390765Y233265D01*
X373265Y250765D01*
X372500Y251082D01*
D02*
G37*
G36*
X381013Y113900D02*
X378587D01*
X376345Y112971D01*
X374952Y111579D01*
X373265Y113265D01*
X372500Y113582D01*
X367500D01*
X366735Y113265D01*
X366735Y113265D01*
X351735Y98265D01*
X351418Y97500D01*
Y92500D01*
X351735Y91735D01*
X351735Y91735D01*
X366735Y76735D01*
D01*
X367500Y76418D01*
X372500D01*
X373265Y76735D01*
X373265Y76735D01*
X388265Y91735D01*
X388265Y91735D01*
X388582Y92500D01*
Y97500D01*
X388582Y97500D01*
X388265Y98265D01*
X383579Y102952D01*
X384971Y104345D01*
X385900Y106587D01*
Y109013D01*
X384971Y111255D01*
X383255Y112971D01*
X381013Y113900D01*
D02*
G37*
G36*
X218296Y114002D02*
X216704D01*
X215234Y113392D01*
X214109Y112267D01*
X213500Y110797D01*
Y109206D01*
X214109Y107736D01*
X215234Y106610D01*
X216704Y106002D01*
X218296D01*
X219766Y106610D01*
X220891Y107736D01*
X221500Y109206D01*
Y110797D01*
X220891Y112267D01*
X219766Y113392D01*
X218296Y114002D01*
D02*
G37*
G36*
X283296Y114000D02*
X281704D01*
X280234Y113391D01*
X279109Y112266D01*
X278500Y110796D01*
Y109204D01*
X279109Y107734D01*
X280234Y106609D01*
X281704Y106000D01*
X283296D01*
X284766Y106609D01*
X285891Y107734D01*
X286500Y109204D01*
Y110796D01*
X285891Y112266D01*
X284766Y113391D01*
X283296Y114000D01*
D02*
G37*
G36*
X153296D02*
X151704D01*
X150234Y113391D01*
X149109Y112266D01*
X148500Y110796D01*
Y109204D01*
X149109Y107734D01*
X150234Y106609D01*
X151704Y106000D01*
X153296D01*
X154766Y106609D01*
X155891Y107734D01*
X156500Y109204D01*
Y110796D01*
X155891Y112266D01*
X154766Y113391D01*
X153296Y114000D01*
D02*
G37*
G36*
X88296D02*
X86704D01*
X85234Y113391D01*
X84109Y112266D01*
X83500Y110796D01*
Y109204D01*
X84109Y107734D01*
X85234Y106609D01*
X86704Y106000D01*
X88296D01*
X89766Y106609D01*
X90891Y107734D01*
X91500Y109204D01*
Y110796D01*
X90891Y112266D01*
X89766Y113391D01*
X88296Y114000D01*
D02*
G37*
G36*
X218296Y101502D02*
X216704D01*
X215234Y100892D01*
X214109Y99767D01*
X213500Y98297D01*
Y96706D01*
X214109Y95236D01*
X215234Y94110D01*
X216704Y93502D01*
X218296D01*
X219766Y94110D01*
X220891Y95236D01*
X221500Y96706D01*
Y98297D01*
X220891Y99767D01*
X219766Y100892D01*
X218296Y101502D01*
D02*
G37*
G36*
X283296Y101500D02*
X281704D01*
X280234Y100891D01*
X279109Y99766D01*
X278500Y98296D01*
Y96704D01*
X279109Y95234D01*
X280234Y94109D01*
X281704Y93500D01*
X283296D01*
X284766Y94109D01*
X285891Y95234D01*
X286500Y96704D01*
Y98296D01*
X285891Y99766D01*
X284766Y100891D01*
X283296Y101500D01*
D02*
G37*
G36*
X153296D02*
X151704D01*
X150234Y100891D01*
X149109Y99766D01*
X148500Y98296D01*
Y96704D01*
X149109Y95234D01*
X150234Y94109D01*
X151704Y93500D01*
X153296D01*
X154766Y94109D01*
X155891Y95234D01*
X156500Y96704D01*
Y98296D01*
X155891Y99766D01*
X154766Y100891D01*
X153296Y101500D01*
D02*
G37*
G36*
X88296D02*
X86704D01*
X85234Y100891D01*
X84109Y99766D01*
X83500Y98296D01*
Y96704D01*
X84109Y95234D01*
X85234Y94109D01*
X86704Y93500D01*
X88296D01*
X89766Y94109D01*
X90891Y95234D01*
X91500Y96704D01*
Y98296D01*
X90891Y99766D01*
X89766Y100891D01*
X88296Y101500D01*
D02*
G37*
G36*
X247444Y91500D02*
X245056D01*
X242851Y90587D01*
X241163Y88899D01*
X241020Y88552D01*
X239750Y88805D01*
Y91500D01*
X227750D01*
Y79500D01*
X239750D01*
Y82195D01*
X241020Y82448D01*
X241163Y82101D01*
X242851Y80414D01*
X245056Y79500D01*
X247444D01*
X249649Y80414D01*
X251337Y82101D01*
X252250Y84306D01*
Y86693D01*
X251337Y88899D01*
X249649Y90587D01*
X247444Y91500D01*
D02*
G37*
G36*
X182444D02*
X180056D01*
X177851Y90587D01*
X176164Y88899D01*
X176020Y88552D01*
X174750Y88805D01*
Y91500D01*
X162750D01*
Y79500D01*
X174750D01*
Y82195D01*
X176020Y82448D01*
X176164Y82101D01*
X177851Y80414D01*
X180056Y79500D01*
X182444D01*
X184649Y80414D01*
X186337Y82101D01*
X187250Y84306D01*
Y86693D01*
X186337Y88899D01*
X184649Y90587D01*
X182444Y91500D01*
D02*
G37*
G36*
X117444D02*
X115056D01*
X112851Y90587D01*
X111164Y88899D01*
X111020Y88552D01*
X109750Y88805D01*
Y91500D01*
X97750D01*
Y79500D01*
X109750D01*
Y82195D01*
X111020Y82448D01*
X111164Y82101D01*
X112851Y80414D01*
X115056Y79500D01*
X117444D01*
X119649Y80414D01*
X121337Y82101D01*
X122250Y84306D01*
Y86693D01*
X121337Y88899D01*
X119649Y90587D01*
X117444Y91500D01*
D02*
G37*
G36*
X312444D02*
X310056D01*
X307851Y90587D01*
X306163Y88899D01*
X306020Y88552D01*
X304750Y88805D01*
Y91500D01*
X292750D01*
Y79500D01*
X304750D01*
Y82195D01*
X306020Y82448D01*
X306163Y82101D01*
X307851Y80414D01*
X310056Y79500D01*
X312444D01*
X314649Y80414D01*
X316337Y82101D01*
X317250Y84306D01*
Y86693D01*
X316337Y88899D01*
X314649Y90587D01*
X312444Y91500D01*
D02*
G37*
G36*
X218296Y89002D02*
X216704D01*
X215234Y88392D01*
X214109Y87267D01*
X213500Y85797D01*
Y84206D01*
X214109Y82736D01*
X215234Y81610D01*
X216704Y81002D01*
X218296D01*
X219766Y81610D01*
X220891Y82736D01*
X221500Y84206D01*
Y85797D01*
X220891Y87267D01*
X219766Y88392D01*
X218296Y89002D01*
D02*
G37*
G36*
X283296Y89000D02*
X281704D01*
X280234Y88391D01*
X279109Y87266D01*
X278500Y85796D01*
Y84204D01*
X279109Y82734D01*
X280234Y81609D01*
X281704Y81000D01*
X283296D01*
X284766Y81609D01*
X285891Y82734D01*
X286500Y84204D01*
Y85796D01*
X285891Y87266D01*
X284766Y88391D01*
X283296Y89000D01*
D02*
G37*
G36*
X153296D02*
X151704D01*
X150234Y88391D01*
X149109Y87266D01*
X148500Y85796D01*
Y84204D01*
X149109Y82734D01*
X150234Y81609D01*
X151704Y81000D01*
X153296D01*
X154766Y81609D01*
X155891Y82734D01*
X156500Y84204D01*
Y85796D01*
X155891Y87266D01*
X154766Y88391D01*
X153296Y89000D01*
D02*
G37*
G36*
X88296D02*
X86704D01*
X85234Y88391D01*
X84109Y87266D01*
X83500Y85796D01*
Y84204D01*
X84109Y82734D01*
X85234Y81609D01*
X86704Y81000D01*
X88296D01*
X89766Y81609D01*
X90891Y82734D01*
X91500Y84204D01*
Y85796D01*
X90891Y87266D01*
X89766Y88391D01*
X88296Y89000D01*
D02*
G37*
G36*
X218296Y77002D02*
X216704D01*
X215234Y76392D01*
X214109Y75267D01*
X213500Y73797D01*
Y72206D01*
X214109Y70736D01*
X215234Y69611D01*
X216704Y69001D01*
X218296D01*
X219766Y69611D01*
X220891Y70736D01*
X221500Y72206D01*
Y73797D01*
X220891Y75267D01*
X219766Y76392D01*
X218296Y77002D01*
D02*
G37*
G36*
X283296Y77000D02*
X281704D01*
X280234Y76391D01*
X279109Y75266D01*
X278500Y73796D01*
Y72204D01*
X279109Y70734D01*
X280234Y69609D01*
X281704Y69000D01*
X283296D01*
X284766Y69609D01*
X285891Y70734D01*
X286500Y72204D01*
Y73796D01*
X285891Y75266D01*
X284766Y76391D01*
X283296Y77000D01*
D02*
G37*
G36*
X153296D02*
X151704D01*
X150234Y76391D01*
X149109Y75266D01*
X148500Y73796D01*
Y72204D01*
X149109Y70734D01*
X150234Y69609D01*
X151704Y69000D01*
X153296D01*
X154766Y69609D01*
X155891Y70734D01*
X156500Y72204D01*
Y73796D01*
X155891Y75266D01*
X154766Y76391D01*
X153296Y77000D01*
D02*
G37*
G36*
X88546D02*
X86954D01*
X85484Y76391D01*
X84359Y75266D01*
X83750Y73796D01*
Y72204D01*
X84359Y70734D01*
X85484Y69609D01*
X86954Y69000D01*
X88546D01*
X90016Y69609D01*
X91141Y70734D01*
X91750Y72204D01*
Y73796D01*
X91141Y75266D01*
X90016Y76391D01*
X88546Y77000D01*
D02*
G37*
G36*
X218296Y64001D02*
X216704D01*
X215234Y63393D01*
X214109Y62267D01*
X213500Y60797D01*
Y59206D01*
X214109Y57736D01*
X215234Y56610D01*
X216704Y56002D01*
X218296D01*
X219766Y56610D01*
X220891Y57736D01*
X221500Y59206D01*
Y60797D01*
X220891Y62267D01*
X219766Y63393D01*
X218296Y64001D01*
D02*
G37*
G36*
X283296Y64000D02*
X281704D01*
X280234Y63391D01*
X279109Y62266D01*
X278500Y60796D01*
Y59204D01*
X279109Y57734D01*
X280234Y56609D01*
X281704Y56000D01*
X283296D01*
X284766Y56609D01*
X285891Y57734D01*
X286500Y59204D01*
Y60796D01*
X285891Y62266D01*
X284766Y63391D01*
X283296Y64000D01*
D02*
G37*
G36*
X153296D02*
X151704D01*
X150234Y63391D01*
X149109Y62266D01*
X148500Y60796D01*
Y59204D01*
X149109Y57734D01*
X150234Y56609D01*
X151704Y56000D01*
X153296D01*
X154766Y56609D01*
X155891Y57734D01*
X156500Y59204D01*
Y60796D01*
X155891Y62266D01*
X154766Y63391D01*
X153296Y64000D01*
D02*
G37*
G36*
X88296D02*
X86704D01*
X85234Y63391D01*
X84109Y62266D01*
X83500Y60796D01*
Y59204D01*
X84109Y57734D01*
X85234Y56609D01*
X86704Y56000D01*
X88296D01*
X89766Y56609D01*
X90891Y57734D01*
X91500Y59204D01*
Y60796D01*
X90891Y62266D01*
X89766Y63391D01*
X88296Y64000D01*
D02*
G37*
%LPD*%
G36*
X390000Y232500D02*
Y227500D01*
X390000D01*
X372500Y210000D01*
X367500D01*
X350000Y227500D01*
Y232500D01*
X367500Y250000D01*
Y250000D01*
X372500D01*
X390000Y232500D01*
D02*
G37*
G36*
X374370Y110630D02*
X373700Y109013D01*
Y106587D01*
X374629Y104345D01*
X376345Y102629D01*
X378587Y101700D01*
X381013D01*
X382630Y102370D01*
X387500Y97500D01*
Y92500D01*
X387500D01*
X372500Y77500D01*
X367500D01*
X352500Y92500D01*
Y97500D01*
X367500Y112500D01*
X372500D01*
X374370Y110630D01*
D02*
G37*
D13*
X406502Y242500D02*
X411500D01*
Y240001D01*
X410667Y239168D01*
X409834D01*
X409001D01*
X408168Y240001D01*
Y242500D01*
X411500Y236669D02*
Y235002D01*
X410667Y234169D01*
X409001D01*
X408168Y235002D01*
Y236669D01*
X409001Y237502D01*
X410667D01*
X411500Y236669D01*
X407335Y231670D02*
X408168D01*
Y232503D01*
Y230837D01*
Y231670D01*
X410667D01*
X411500Y230837D01*
X412500Y225001D02*
X407502D01*
X410001Y227500D01*
Y224168D01*
D21*
X12500Y240000D02*
D03*
Y235000D02*
D03*
Y230000D02*
D03*
Y225000D02*
D03*
Y220000D02*
D03*
Y215000D02*
D03*
Y210000D02*
D03*
Y205000D02*
D03*
Y200000D02*
D03*
Y195000D02*
D03*
Y190000D02*
D03*
Y185000D02*
D03*
Y180000D02*
D03*
Y175000D02*
D03*
Y170000D02*
D03*
Y165000D02*
D03*
Y160000D02*
D03*
Y155000D02*
D03*
Y150000D02*
D03*
Y145000D02*
D03*
Y140000D02*
D03*
Y135000D02*
D03*
Y110000D02*
D03*
Y105000D02*
D03*
Y100000D02*
D03*
Y95000D02*
D03*
Y90000D02*
D03*
Y85000D02*
D03*
Y80000D02*
D03*
Y75000D02*
D03*
Y70000D02*
D03*
Y65000D02*
D03*
Y60000D02*
D03*
D29*
X370000Y179600D02*
D03*
D30*
Y230400D02*
D03*
D32*
X298750Y85500D02*
D03*
X168750D02*
D03*
X233750D02*
D03*
X103750D02*
D03*
D33*
X311250D02*
D03*
X181250D02*
D03*
X246250D02*
D03*
X116250D02*
D03*
D34*
X29188Y100000D02*
X31688Y102500D01*
X32500D01*
X12500Y100000D02*
X29188D01*
X165000Y221020D02*
X166020Y220000D01*
X166020D01*
X157500Y240000D02*
X166020Y231480D01*
X165000Y221020D02*
X166020Y222040D01*
Y231480D01*
X183980Y203980D02*
Y220000D01*
X170000Y190000D02*
X183980Y203980D01*
X40000Y187500D02*
X52500Y175000D01*
X35000Y187500D02*
X40000D01*
X45000Y192500D02*
X55000Y182500D01*
X27500Y192500D02*
X45000D01*
X45000Y202500D02*
X57500Y190000D01*
X35000Y202500D02*
X45000D01*
X50000Y207500D02*
X60000Y197500D01*
X27500Y207500D02*
X50000D01*
X50000Y217500D02*
X65000Y232500D01*
X35000Y217500D02*
X50000D01*
X45000Y222500D02*
X62500Y240000D01*
X157500D01*
X27500Y222500D02*
X45000D01*
X45000Y232500D02*
X60000Y247500D01*
X35000Y232500D02*
X45000D01*
X40000Y237500D02*
X57500Y255000D01*
X290000D01*
X27500Y237500D02*
X40000D01*
X60000Y197500D02*
X115000D01*
X118980Y201480D01*
Y220000D01*
X57500Y190000D02*
X170000D01*
X227500Y182500D02*
X248980Y203980D01*
X55000Y182500D02*
X227500D01*
X52500Y175000D02*
X285000D01*
X313980Y203980D01*
Y220000D01*
X248980Y203980D02*
Y220000D01*
X60000Y247500D02*
X222500D01*
X231020Y238980D01*
Y220000D02*
Y238980D01*
X290000Y255000D02*
X296020Y248980D01*
Y220000D02*
Y248980D01*
X296020Y220000D02*
X296020Y220000D01*
X296020Y220000D02*
X296020D01*
X97500Y232500D02*
X101020Y228980D01*
X65000Y232500D02*
X97500D01*
X101020Y220000D02*
Y228980D01*
D36*
X370000Y95000D02*
D03*
Y65000D02*
D03*
D37*
X379800Y107800D02*
D03*
D38*
X175000Y211020D02*
D03*
X166020Y220000D02*
D03*
X183980D02*
D03*
X175000Y228980D02*
D03*
X240000Y211020D02*
D03*
X231020Y220000D02*
D03*
X248980D02*
D03*
X240000Y228980D02*
D03*
X305000Y211020D02*
D03*
X296020Y220000D02*
D03*
X313980D02*
D03*
X305000Y228980D02*
D03*
X110000Y211020D02*
D03*
X101020Y220000D02*
D03*
X118980D02*
D03*
X110000Y228980D02*
D03*
D39*
X152500Y60000D02*
D03*
X162496Y145000D02*
D03*
X149996D02*
D03*
X172496Y137500D02*
D03*
X45000Y57500D02*
D03*
X32500Y72500D02*
D03*
Y87500D02*
D03*
Y102500D02*
D03*
Y145000D02*
D03*
Y160000D02*
D03*
Y175000D02*
D03*
X357500Y55000D02*
D03*
X382500Y75000D02*
D03*
X357500D02*
D03*
Y190000D02*
D03*
Y172500D02*
D03*
X382500Y190000D02*
D03*
X355000Y230000D02*
D03*
X370000Y245000D02*
D03*
X385000Y230000D02*
D03*
X370000Y215000D02*
D03*
Y107500D02*
D03*
X357500Y95000D02*
D03*
X370000Y82500D02*
D03*
X382500Y95000D02*
D03*
Y172500D02*
D03*
Y55000D02*
D03*
X280000Y145000D02*
D03*
Y137500D02*
D03*
X292500Y145000D02*
D03*
Y137500D02*
D03*
X302500D02*
D03*
X215000Y145000D02*
D03*
Y137500D02*
D03*
X227500Y145000D02*
D03*
Y137500D02*
D03*
X237500D02*
D03*
X149996Y137500D02*
D03*
X162496D02*
D03*
X322500Y50000D02*
D03*
Y62500D02*
D03*
X332500D02*
D03*
Y50000D02*
D03*
X257500D02*
D03*
Y62500D02*
D03*
X267500D02*
D03*
Y50000D02*
D03*
X192500D02*
D03*
Y62500D02*
D03*
X202500D02*
D03*
Y50000D02*
D03*
X217500Y60002D02*
D03*
Y73001D02*
D03*
Y85001D02*
D03*
Y97501D02*
D03*
Y110001D02*
D03*
X282500Y60000D02*
D03*
Y73000D02*
D03*
Y85000D02*
D03*
Y97500D02*
D03*
Y110000D02*
D03*
X152500Y73000D02*
D03*
Y85000D02*
D03*
Y97500D02*
D03*
Y110000D02*
D03*
X70000Y80000D02*
D03*
X57500D02*
D03*
X87500Y110000D02*
D03*
Y97500D02*
D03*
Y85000D02*
D03*
X87750Y73000D02*
D03*
X87500Y60000D02*
D03*
X137500Y50000D02*
D03*
Y62500D02*
D03*
X127500D02*
D03*
Y50000D02*
D03*
X107500Y137500D02*
D03*
X97500D02*
D03*
Y145000D02*
D03*
X85000Y137500D02*
D03*
Y145000D02*
D03*
D40*
X35000Y202500D02*
D03*
X35000Y187500D02*
D03*
X27500Y192500D02*
D03*
X27500Y207500D02*
D03*
X35000Y217500D02*
D03*
X27500Y222500D02*
D03*
X35000Y232500D02*
D03*
X27500Y237500D02*
D03*
M02*
