G04*
G04 #@! TF.GenerationSoftware,Altium Limited,Altium Designer,22.7.1 (60)*
G04*
G04 Layer_Color=255*
%FSLAX44Y44*%
%MOMM*%
G71*
G04*
G04 #@! TF.SameCoordinates,2F50B947-C67E-4D0A-9455-C6AB2E86B346*
G04*
G04*
G04 #@! TF.FilePolarity,Positive*
G04*
G01*
G75*
%ADD20R,0.2500X0.3500*%
%ADD22R,0.5200X0.5600*%
%ADD23R,0.5800X0.5400*%
%ADD27R,0.5600X0.5200*%
%ADD29R,1.5000X0.3500*%
%ADD50R,1.5700X1.5700*%
%ADD51C,1.5700*%
%ADD60C,1.6250*%
%ADD61C,2.4000*%
%ADD62C,1.5300*%
%ADD63C,1.4460*%
%ADD75R,0.6500X0.7000*%
%ADD76R,1.1500X0.6000*%
%ADD77R,0.9000X0.8500*%
D20*
X90000Y235500D02*
D03*
Y230000D02*
D03*
X100000Y235500D02*
D03*
Y230000D02*
D03*
X80000Y235500D02*
D03*
Y230000D02*
D03*
X70000D02*
D03*
Y235500D02*
D03*
D22*
X179832Y85688D02*
D03*
Y77888D02*
D03*
X72390Y86370D02*
D03*
Y93970D02*
D03*
X169672Y85942D02*
D03*
Y78142D02*
D03*
D23*
X102960Y203200D02*
D03*
X95160D02*
D03*
D27*
X116576Y193040D02*
D03*
X108976D02*
D03*
X145124Y62738D02*
D03*
X137324D02*
D03*
D29*
X12500Y240000D02*
D03*
Y235000D02*
D03*
Y230000D02*
D03*
Y225000D02*
D03*
Y220000D02*
D03*
Y215000D02*
D03*
Y210000D02*
D03*
Y205000D02*
D03*
Y200000D02*
D03*
Y195000D02*
D03*
Y190000D02*
D03*
Y185000D02*
D03*
Y180000D02*
D03*
Y175000D02*
D03*
Y170000D02*
D03*
Y165000D02*
D03*
Y160000D02*
D03*
Y155000D02*
D03*
Y150000D02*
D03*
Y145000D02*
D03*
Y140000D02*
D03*
Y135000D02*
D03*
Y110000D02*
D03*
Y105000D02*
D03*
Y100000D02*
D03*
Y95000D02*
D03*
Y90000D02*
D03*
Y85000D02*
D03*
Y80000D02*
D03*
Y75000D02*
D03*
Y70000D02*
D03*
Y65000D02*
D03*
Y60000D02*
D03*
D50*
X231648Y244856D02*
D03*
X260858Y54610D02*
D03*
D51*
X206248Y244856D02*
D03*
X180848D02*
D03*
X155448D02*
D03*
X235458Y54610D02*
D03*
X210058D02*
D03*
X184658D02*
D03*
D60*
X317500Y207010D02*
D03*
Y92710D02*
D03*
D61*
X287000Y227310D02*
D03*
Y72410D02*
D03*
D62*
X363200Y217160D02*
D03*
Y191760D02*
D03*
Y107960D02*
D03*
Y82560D02*
D03*
D63*
X254000Y207010D02*
D03*
X228600Y194310D02*
D03*
X254000Y181610D02*
D03*
X228600Y168910D02*
D03*
X254000Y156210D02*
D03*
X228600Y143510D02*
D03*
X254000Y130810D02*
D03*
X228600Y118110D02*
D03*
X254000Y105410D02*
D03*
X228600Y92710D02*
D03*
D75*
X148228Y72898D02*
D03*
X134728D02*
D03*
D76*
X82500Y50500D02*
D03*
X57500D02*
D03*
Y60000D02*
D03*
Y69500D02*
D03*
X82500D02*
D03*
D77*
X120650Y53190D02*
D03*
Y66190D02*
D03*
X45466Y96116D02*
D03*
Y109116D02*
D03*
X161290Y66190D02*
D03*
Y53190D02*
D03*
M02*
