G04*
G04 #@! TF.GenerationSoftware,Altium Limited,Altium Designer,22.7.1 (60)*
G04*
G04 Layer_Physical_Order=3*
G04 Layer_Color=128*
%FSLAX44Y44*%
%MOMM*%
G71*
G04*
G04 #@! TF.SameCoordinates,2F50B947-C67E-4D0A-9455-C6AB2E86B346*
G04*
G04*
G04 #@! TF.FilePolarity,Negative*
G04*
G01*
G75*
%ADD13C,0.1500*%
%ADD66C,1.0160*%
%ADD67C,3.7580*%
%ADD68C,2.1080*%
%ADD69C,1.5280*%
%ADD71C,1.3980*%
%ADD72C,0.7080*%
%ADD73C,0.2540*%
%ADD74C,1.2192*%
D13*
X-34755Y217500D02*
X-33922Y218333D01*
Y219999D01*
X-34755Y220832D01*
X-35588D01*
X-36421Y219999D01*
Y219166D01*
Y219999D01*
X-37254Y220832D01*
X-38087D01*
X-38920Y219999D01*
Y218333D01*
X-38087Y217500D01*
D66*
X-46420Y136000D02*
G03*
X-32420Y150000I0J14000D01*
G01*
Y150000D02*
G03*
X-46420Y164000I-14000J0D01*
G01*
X333580Y254250D02*
G03*
X338580Y249250I5000J-0D01*
G01*
X344580Y129750D02*
G03*
X338580Y123750I0J-6000D01*
G01*
D02*
G03*
X344580Y117750I6000J0D01*
G01*
X338580Y50750D02*
G03*
X333580Y45750I0J-5000D01*
G01*
Y42500D02*
X331080Y40000D01*
X-43920D01*
X-46420Y42500D01*
Y136000D01*
Y164000D02*
Y257376D01*
X-43920Y259876D02*
X-46420Y257376D01*
X331080Y259876D02*
X-43920D01*
X333580Y257125D02*
X331080Y259876D01*
X333580Y254250D02*
Y257125D01*
X373580Y249250D02*
X338580D01*
X373580Y129750D02*
Y249250D01*
Y129750D02*
X344580D01*
X373580Y117750D02*
X344580D01*
X373580Y50750D02*
Y117750D01*
Y50750D02*
X338580D01*
X333580Y42500D02*
Y45750D01*
D67*
X56080Y207010D02*
D03*
Y92710D02*
D03*
D68*
X86580Y227310D02*
D03*
Y72410D02*
D03*
D69*
X10380Y217160D02*
D03*
Y191760D02*
D03*
Y107960D02*
D03*
Y82560D02*
D03*
X141932Y244856D02*
D03*
X167332D02*
D03*
X192732D02*
D03*
X218132D02*
D03*
X112722Y54610D02*
D03*
X138122D02*
D03*
X163522D02*
D03*
X188922D02*
D03*
D71*
X119580Y207010D02*
D03*
X144980Y194310D02*
D03*
X119580Y181610D02*
D03*
X144980Y168910D02*
D03*
X119580Y156210D02*
D03*
X144980Y143510D02*
D03*
X119580Y130810D02*
D03*
X144980Y118110D02*
D03*
X119580Y105410D02*
D03*
X144980Y92710D02*
D03*
D72*
X279346Y134366D02*
D03*
X248104Y165608D02*
D03*
X194256Y94488D02*
D03*
X202130Y160020D02*
D03*
X347926Y137922D02*
D03*
X347940Y149860D02*
D03*
X346148Y182626D02*
D03*
Y197358D02*
D03*
X347926Y167640D02*
D03*
X346148Y99822D02*
D03*
X270564Y245065D02*
D03*
X242770Y64770D02*
D03*
X289868Y109937D02*
D03*
X235404Y113538D02*
D03*
X217224Y176739D02*
D03*
X264436Y201176D02*
D03*
X346148Y226822D02*
D03*
Y213106D02*
D03*
X348434Y76200D02*
D03*
X291030Y203520D02*
D03*
X298650Y205740D02*
D03*
X7566Y139192D02*
D03*
Y159512D02*
D03*
X284172Y60452D02*
D03*
Y87630D02*
D03*
X48968Y139192D02*
D03*
Y159512D02*
D03*
X67256Y139192D02*
D03*
Y159512D02*
D03*
X241754Y45720D02*
D03*
X328876Y59944D02*
D03*
X279211Y222240D02*
D03*
X285950Y217750D02*
D03*
X53794Y249682D02*
D03*
X48968Y245618D02*
D03*
X258010Y228600D02*
D03*
X308810Y124460D02*
D03*
X306270Y138430D02*
D03*
X25600Y64770D02*
D03*
X303662Y126932D02*
D03*
X269440Y106680D02*
D03*
X218640Y148140D02*
D03*
X223720Y135890D02*
D03*
X275790Y104140D02*
D03*
X303580Y160000D02*
D03*
X308810Y119160D02*
D03*
D73*
X262074Y211074D02*
X253946D01*
X246072Y218948D01*
Y232156D01*
X309826Y162467D02*
X308556Y163737D01*
X324034Y141192D02*
Y144764D01*
Y141192D02*
X320105Y137263D01*
X309826Y147542D01*
Y162467D01*
X325391Y146121D02*
X324034Y144764D01*
X220926Y241554D02*
X197304D01*
X246072D02*
X220926D01*
X308556Y192786D02*
X280362D01*
X308556Y163737D02*
Y192786D01*
X292265Y102396D02*
X255470Y139192D01*
X342338Y142240D02*
X340814Y143764D01*
X338457Y146121D01*
X325391D01*
X342338Y136398D02*
X339544D01*
X342338D02*
Y142240D01*
X246072Y232156D02*
Y241554D01*
X255470Y139192D02*
X197304Y197358D01*
Y241554D01*
X280362Y192786D02*
X262074Y211074D01*
X303476Y91186D02*
X292265Y102396D01*
X317954Y91186D02*
X303476D01*
X325828Y99060D02*
X317954Y91186D01*
X325828Y99060D02*
Y122682D01*
X339544Y136398D02*
X325828Y122682D01*
D74*
X263580Y150000D02*
D03*
M02*
