G04*
G04 #@! TF.GenerationSoftware,Altium Limited,Altium Designer,22.7.1 (60)*
G04*
G04 Layer_Color=16711935*
%FSLAX44Y44*%
%MOMM*%
G71*
G04*
G04 #@! TF.SameCoordinates,2F50B947-C67E-4D0A-9455-C6AB2E86B346*
G04*
G04*
G04 #@! TF.FilePolarity,Positive*
G04*
G01*
G75*
%ADD12C,0.2000*%
G36*
X181665Y244851D02*
X181610D01*
X181538Y244839D01*
X181460Y244828D01*
X181366Y244817D01*
X181272Y244795D01*
X181167Y244767D01*
X181062Y244740D01*
X180957Y244701D01*
X180851Y244651D01*
X180746Y244596D01*
X180641Y244535D01*
X180547Y244457D01*
X180458Y244374D01*
X180453Y244369D01*
X180442Y244352D01*
X180420Y244324D01*
X180386Y244286D01*
X180353Y244236D01*
X180320Y244170D01*
X180276Y244097D01*
X180237Y244014D01*
X180198Y243920D01*
X180159Y243815D01*
X180121Y243693D01*
X180087Y243566D01*
X180065Y243428D01*
X180043Y243272D01*
X180032Y243112D01*
Y242940D01*
X180796Y242835D01*
Y242840D01*
Y242868D01*
X180802Y242901D01*
X180807Y242951D01*
X180813Y243012D01*
X180818Y243079D01*
X180829Y243156D01*
X180840Y243234D01*
X180874Y243400D01*
X180923Y243566D01*
X180951Y243643D01*
X180984Y243715D01*
X181023Y243782D01*
X181067Y243837D01*
X181073Y243843D01*
X181078Y243848D01*
X181095Y243859D01*
X181112Y243876D01*
X181167Y243920D01*
X181245Y243970D01*
X181339Y244020D01*
X181455Y244059D01*
X181588Y244092D01*
X181665Y244097D01*
X181743Y244103D01*
X181798D01*
X181859Y244097D01*
X181931Y244086D01*
X182020Y244070D01*
X182108Y244042D01*
X182202Y244009D01*
X182291Y243959D01*
X182302Y243953D01*
X182330Y243931D01*
X182369Y243898D01*
X182418Y243854D01*
X182474Y243799D01*
X182524Y243732D01*
X182574Y243654D01*
X182612Y243566D01*
Y243560D01*
X182618Y243555D01*
X182623Y243538D01*
X182629Y243516D01*
X182634Y243488D01*
X182640Y243455D01*
X182651Y243416D01*
X182657Y243372D01*
X182668Y243317D01*
X182673Y243256D01*
X182679Y243189D01*
X182690Y243117D01*
X182695Y243040D01*
Y242957D01*
X182701Y242863D01*
Y242763D01*
Y238367D01*
X183548D01*
Y242719D01*
Y242730D01*
Y242752D01*
Y242796D01*
X183542Y242852D01*
Y242918D01*
X183537Y242996D01*
X183531Y243079D01*
X183526Y243173D01*
X183498Y243372D01*
X183465Y243577D01*
X183415Y243776D01*
X183382Y243871D01*
X183349Y243959D01*
Y243965D01*
X183338Y243976D01*
X183327Y244003D01*
X183310Y244031D01*
X183293Y244070D01*
X183266Y244109D01*
X183199Y244208D01*
X183116Y244313D01*
X183005Y244424D01*
X182884Y244535D01*
X182734Y244629D01*
X182729D01*
X182717Y244640D01*
X182690Y244651D01*
X182662Y244662D01*
X182618Y244679D01*
X182574Y244701D01*
X182518Y244723D01*
X182452Y244740D01*
X182385Y244762D01*
X182308Y244784D01*
X182230Y244801D01*
X182142Y244823D01*
X181953Y244845D01*
X181749Y244856D01*
X181710D01*
X181665Y244851D01*
D02*
G37*
G36*
X184512Y244745D02*
Y244740D01*
Y244723D01*
Y244701D01*
Y244646D01*
X184517Y244579D01*
X184528Y244496D01*
X184545Y244402D01*
X184567Y244308D01*
X184600Y244208D01*
Y244203D01*
X184606Y244186D01*
X184617Y244164D01*
X184633Y244136D01*
X184650Y244097D01*
X184672Y244048D01*
X184694Y243998D01*
X184727Y243942D01*
X184794Y243810D01*
X184888Y243671D01*
X184993Y243516D01*
X185115Y243361D01*
X185121Y243356D01*
X185132Y243344D01*
X185154Y243317D01*
X185182Y243289D01*
X185220Y243250D01*
X185265Y243200D01*
X185314Y243145D01*
X185375Y243084D01*
X185447Y243018D01*
X185519Y242946D01*
X185608Y242863D01*
X185697Y242780D01*
X185796Y242691D01*
X185901Y242597D01*
X186018Y242497D01*
X186140Y242398D01*
X186145D01*
X186150Y242386D01*
X186184Y242359D01*
X186239Y242314D01*
X186306Y242254D01*
X186394Y242182D01*
X186488Y242099D01*
X186593Y242004D01*
X186704Y241905D01*
X186821Y241800D01*
X186942Y241689D01*
X187059Y241578D01*
X187175Y241462D01*
X187280Y241351D01*
X187380Y241240D01*
X187468Y241141D01*
X187546Y241041D01*
X187551Y241035D01*
X187563Y241019D01*
X187579Y240991D01*
X187601Y240958D01*
X187629Y240914D01*
X187662Y240858D01*
X187695Y240803D01*
X187729Y240736D01*
X187795Y240592D01*
X187856Y240432D01*
X187878Y240349D01*
X187895Y240266D01*
X187906Y240183D01*
X187911Y240100D01*
Y240094D01*
Y240077D01*
Y240055D01*
X187906Y240022D01*
X187900Y239983D01*
X187895Y239933D01*
X187884Y239884D01*
X187873Y239828D01*
X187828Y239701D01*
X187806Y239640D01*
X187773Y239574D01*
X187734Y239507D01*
X187690Y239441D01*
X187640Y239374D01*
X187579Y239313D01*
X187574Y239308D01*
X187563Y239297D01*
X187546Y239286D01*
X187518Y239263D01*
X187485Y239241D01*
X187446Y239214D01*
X187402Y239180D01*
X187347Y239153D01*
X187286Y239125D01*
X187219Y239092D01*
X187147Y239064D01*
X187070Y239042D01*
X186992Y239020D01*
X186904Y239003D01*
X186810Y238998D01*
X186710Y238992D01*
X186654D01*
X186616Y238998D01*
X186571Y239003D01*
X186516Y239009D01*
X186450Y239020D01*
X186383Y239037D01*
X186239Y239075D01*
X186167Y239103D01*
X186090Y239136D01*
X186018Y239175D01*
X185946Y239225D01*
X185874Y239275D01*
X185807Y239335D01*
X185802Y239341D01*
X185791Y239352D01*
X185774Y239369D01*
X185757Y239396D01*
X185730Y239435D01*
X185702Y239474D01*
X185669Y239524D01*
X185641Y239579D01*
X185608Y239646D01*
X185575Y239718D01*
X185547Y239795D01*
X185525Y239878D01*
X185503Y239967D01*
X185486Y240066D01*
X185475Y240166D01*
X185469Y240277D01*
X184661Y240194D01*
Y240183D01*
X184667Y240155D01*
X184672Y240105D01*
X184683Y240044D01*
X184694Y239972D01*
X184716Y239884D01*
X184739Y239790D01*
X184766Y239684D01*
X184805Y239574D01*
X184844Y239463D01*
X184894Y239347D01*
X184954Y239236D01*
X185021Y239119D01*
X185093Y239014D01*
X185182Y238915D01*
X185276Y238820D01*
X185281Y238815D01*
X185303Y238798D01*
X185331Y238776D01*
X185375Y238748D01*
X185431Y238710D01*
X185497Y238671D01*
X185575Y238627D01*
X185663Y238582D01*
X185757Y238538D01*
X185868Y238494D01*
X185990Y238455D01*
X186117Y238416D01*
X186256Y238389D01*
X186405Y238367D01*
X186560Y238350D01*
X186726Y238344D01*
X186765D01*
X186815Y238350D01*
X186876D01*
X186953Y238361D01*
X187048Y238372D01*
X187147Y238389D01*
X187252Y238405D01*
X187369Y238433D01*
X187485Y238466D01*
X187607Y238510D01*
X187729Y238560D01*
X187850Y238616D01*
X187967Y238688D01*
X188078Y238765D01*
X188183Y238854D01*
X188188Y238859D01*
X188205Y238876D01*
X188232Y238904D01*
X188266Y238942D01*
X188310Y238992D01*
X188354Y239053D01*
X188399Y239125D01*
X188454Y239203D01*
X188504Y239291D01*
X188548Y239385D01*
X188598Y239491D01*
X188637Y239601D01*
X188670Y239718D01*
X188698Y239845D01*
X188714Y239978D01*
X188720Y240116D01*
Y240122D01*
Y240133D01*
Y240155D01*
Y240183D01*
X188714Y240216D01*
Y240260D01*
X188698Y240354D01*
X188681Y240471D01*
X188653Y240598D01*
X188615Y240736D01*
X188559Y240875D01*
Y240880D01*
X188554Y240891D01*
X188543Y240914D01*
X188531Y240936D01*
X188515Y240975D01*
X188493Y241013D01*
X188465Y241058D01*
X188437Y241107D01*
X188365Y241224D01*
X188277Y241357D01*
X188166Y241500D01*
X188039Y241650D01*
X188033Y241656D01*
X188022Y241667D01*
X188000Y241694D01*
X187972Y241728D01*
X187928Y241766D01*
X187878Y241816D01*
X187823Y241877D01*
X187756Y241943D01*
X187673Y242021D01*
X187585Y242104D01*
X187491Y242198D01*
X187380Y242298D01*
X187264Y242403D01*
X187131Y242519D01*
X186992Y242641D01*
X186837Y242774D01*
X186832Y242780D01*
X186804Y242802D01*
X186771Y242829D01*
X186721Y242868D01*
X186665Y242918D01*
X186605Y242973D01*
X186533Y243034D01*
X186461Y243095D01*
X186306Y243228D01*
X186156Y243361D01*
X186090Y243422D01*
X186023Y243483D01*
X185973Y243533D01*
X185929Y243577D01*
X185918Y243588D01*
X185896Y243610D01*
X185857Y243654D01*
X185813Y243710D01*
X185763Y243771D01*
X185708Y243843D01*
X185652Y243920D01*
X185602Y243998D01*
X188731D01*
Y244751D01*
X184512D01*
Y244745D01*
D02*
G37*
G36*
X157350Y54605D02*
X157295D01*
X157223Y54594D01*
X157140Y54582D01*
X157046Y54566D01*
X156946Y54549D01*
X156835Y54521D01*
X156725Y54488D01*
X156608Y54450D01*
X156492Y54400D01*
X156370Y54344D01*
X156259Y54278D01*
X156143Y54200D01*
X156038Y54112D01*
X156032Y54106D01*
X156016Y54090D01*
X155988Y54062D01*
X155949Y54018D01*
X155905Y53968D01*
X155861Y53912D01*
X155805Y53840D01*
X155750Y53757D01*
X155695Y53669D01*
X155639Y53575D01*
X155590Y53464D01*
X155540Y53348D01*
X155495Y53226D01*
X155457Y53093D01*
X155429Y52955D01*
X155407Y52811D01*
X156193Y52705D01*
Y52711D01*
X156199Y52733D01*
X156210Y52766D01*
X156221Y52816D01*
X156232Y52871D01*
X156254Y52932D01*
X156276Y53004D01*
X156298Y53076D01*
X156365Y53237D01*
X156442Y53392D01*
X156487Y53469D01*
X156536Y53541D01*
X156592Y53608D01*
X156647Y53669D01*
X156653Y53674D01*
X156664Y53680D01*
X156680Y53696D01*
X156708Y53713D01*
X156736Y53735D01*
X156774Y53763D01*
X156819Y53791D01*
X156868Y53813D01*
X156985Y53868D01*
X157118Y53918D01*
X157273Y53951D01*
X157356Y53957D01*
X157439Y53962D01*
X157494D01*
X157533Y53957D01*
X157577Y53951D01*
X157633Y53940D01*
X157694Y53929D01*
X157766Y53912D01*
X157838Y53896D01*
X157909Y53868D01*
X157987Y53840D01*
X158070Y53802D01*
X158148Y53757D01*
X158225Y53707D01*
X158303Y53647D01*
X158375Y53580D01*
X158380Y53575D01*
X158391Y53563D01*
X158408Y53541D01*
X158436Y53514D01*
X158463Y53475D01*
X158497Y53431D01*
X158530Y53375D01*
X158568Y53320D01*
X158602Y53253D01*
X158635Y53182D01*
X158668Y53104D01*
X158696Y53021D01*
X158723Y52932D01*
X158740Y52838D01*
X158751Y52738D01*
X158757Y52633D01*
Y52628D01*
Y52611D01*
Y52583D01*
X158751Y52545D01*
X158746Y52495D01*
X158740Y52445D01*
X158729Y52384D01*
X158712Y52318D01*
X158668Y52179D01*
X158640Y52102D01*
X158607Y52030D01*
X158568Y51952D01*
X158519Y51880D01*
X158463Y51808D01*
X158402Y51742D01*
X158397Y51736D01*
X158386Y51725D01*
X158364Y51709D01*
X158341Y51686D01*
X158303Y51659D01*
X158264Y51631D01*
X158214Y51598D01*
X158159Y51565D01*
X158098Y51537D01*
X158026Y51504D01*
X157954Y51476D01*
X157876Y51448D01*
X157788Y51426D01*
X157699Y51410D01*
X157605Y51399D01*
X157505Y51393D01*
X157467D01*
X157417Y51399D01*
X157356Y51404D01*
X157273Y51415D01*
X157179Y51426D01*
X157073Y51448D01*
X156952Y51476D01*
X157040Y50789D01*
X157051D01*
X157085Y50795D01*
X157129Y50800D01*
X157217D01*
X157251Y50795D01*
X157295D01*
X157345Y50784D01*
X157406Y50778D01*
X157467Y50767D01*
X157605Y50734D01*
X157754Y50690D01*
X157909Y50623D01*
X157987Y50585D01*
X158065Y50540D01*
X158070Y50535D01*
X158081Y50529D01*
X158103Y50512D01*
X158125Y50490D01*
X158159Y50463D01*
X158192Y50430D01*
X158225Y50391D01*
X158264Y50341D01*
X158303Y50286D01*
X158336Y50230D01*
X158369Y50164D01*
X158402Y50092D01*
X158425Y50009D01*
X158447Y49926D01*
X158458Y49832D01*
X158463Y49732D01*
Y49726D01*
Y49715D01*
Y49693D01*
X158458Y49660D01*
X158452Y49627D01*
X158447Y49582D01*
X158425Y49483D01*
X158391Y49372D01*
X158341Y49250D01*
X158308Y49195D01*
X158270Y49134D01*
X158220Y49078D01*
X158170Y49023D01*
X158164Y49018D01*
X158159Y49012D01*
X158142Y48995D01*
X158114Y48979D01*
X158087Y48957D01*
X158054Y48934D01*
X158015Y48907D01*
X157965Y48879D01*
X157860Y48824D01*
X157727Y48779D01*
X157583Y48746D01*
X157500Y48741D01*
X157417Y48735D01*
X157372D01*
X157339Y48741D01*
X157300Y48746D01*
X157256Y48752D01*
X157151Y48768D01*
X157035Y48807D01*
X156907Y48857D01*
X156841Y48890D01*
X156780Y48929D01*
X156719Y48973D01*
X156658Y49023D01*
X156653Y49029D01*
X156647Y49034D01*
X156630Y49051D01*
X156608Y49078D01*
X156586Y49106D01*
X156559Y49145D01*
X156525Y49189D01*
X156498Y49239D01*
X156464Y49294D01*
X156431Y49361D01*
X156398Y49433D01*
X156365Y49510D01*
X156337Y49593D01*
X156309Y49682D01*
X156287Y49782D01*
X156271Y49887D01*
X155484Y49748D01*
Y49737D01*
X155490Y49715D01*
X155501Y49671D01*
X155512Y49621D01*
X155534Y49555D01*
X155556Y49477D01*
X155584Y49394D01*
X155617Y49300D01*
X155656Y49206D01*
X155706Y49106D01*
X155756Y49006D01*
X155816Y48901D01*
X155883Y48802D01*
X155960Y48707D01*
X156044Y48613D01*
X156132Y48530D01*
X156138Y48525D01*
X156154Y48514D01*
X156182Y48492D01*
X156226Y48464D01*
X156276Y48431D01*
X156331Y48392D01*
X156403Y48353D01*
X156481Y48309D01*
X156569Y48270D01*
X156664Y48231D01*
X156769Y48193D01*
X156880Y48159D01*
X157001Y48132D01*
X157129Y48109D01*
X157262Y48098D01*
X157400Y48093D01*
X157450D01*
X157489Y48098D01*
X157533D01*
X157588Y48104D01*
X157649Y48109D01*
X157716Y48120D01*
X157865Y48148D01*
X158031Y48187D01*
X158197Y48242D01*
X158364Y48320D01*
X158369D01*
X158386Y48331D01*
X158408Y48342D01*
X158436Y48359D01*
X158474Y48381D01*
X158513Y48408D01*
X158613Y48480D01*
X158718Y48563D01*
X158829Y48669D01*
X158940Y48790D01*
X159034Y48929D01*
X159039Y48934D01*
X159045Y48945D01*
X159056Y48968D01*
X159072Y48995D01*
X159089Y49034D01*
X159111Y49073D01*
X159133Y49123D01*
X159155Y49178D01*
X159194Y49300D01*
X159233Y49438D01*
X159261Y49593D01*
X159272Y49671D01*
Y49754D01*
Y49759D01*
Y49771D01*
Y49793D01*
X159266Y49820D01*
Y49859D01*
X159261Y49903D01*
X159244Y50003D01*
X159216Y50119D01*
X159178Y50247D01*
X159122Y50374D01*
X159045Y50507D01*
Y50512D01*
X159034Y50524D01*
X159023Y50540D01*
X159006Y50562D01*
X158951Y50623D01*
X158878Y50701D01*
X158790Y50784D01*
X158674Y50878D01*
X158541Y50961D01*
X158391Y51044D01*
X158397D01*
X158419Y51050D01*
X158447Y51061D01*
X158485Y51072D01*
X158530Y51088D01*
X158585Y51105D01*
X158646Y51133D01*
X158712Y51160D01*
X158856Y51232D01*
X158928Y51277D01*
X159000Y51326D01*
X159072Y51382D01*
X159144Y51448D01*
X159211Y51515D01*
X159272Y51587D01*
X159277Y51592D01*
X159283Y51603D01*
X159299Y51631D01*
X159321Y51659D01*
X159344Y51703D01*
X159371Y51747D01*
X159399Y51803D01*
X159432Y51869D01*
X159460Y51941D01*
X159488Y52019D01*
X159515Y52102D01*
X159537Y52196D01*
X159560Y52290D01*
X159576Y52395D01*
X159582Y52500D01*
X159587Y52617D01*
Y52628D01*
Y52655D01*
X159582Y52700D01*
X159576Y52755D01*
X159571Y52827D01*
X159554Y52910D01*
X159537Y53004D01*
X159510Y53109D01*
X159477Y53215D01*
X159438Y53331D01*
X159388Y53447D01*
X159327Y53569D01*
X159255Y53685D01*
X159178Y53807D01*
X159083Y53924D01*
X158973Y54034D01*
X158967Y54040D01*
X158945Y54056D01*
X158912Y54090D01*
X158862Y54123D01*
X158801Y54167D01*
X158729Y54217D01*
X158646Y54267D01*
X158552Y54322D01*
X158447Y54377D01*
X158330Y54427D01*
X158203Y54477D01*
X158065Y54521D01*
X157921Y54555D01*
X157766Y54582D01*
X157605Y54605D01*
X157433Y54610D01*
X157395D01*
X157350Y54605D01*
D02*
G37*
G36*
X152455Y54599D02*
X152400D01*
X152328Y54588D01*
X152250Y54577D01*
X152156Y54566D01*
X152062Y54544D01*
X151957Y54516D01*
X151852Y54488D01*
X151747Y54450D01*
X151641Y54400D01*
X151536Y54344D01*
X151431Y54283D01*
X151337Y54206D01*
X151248Y54123D01*
X151243Y54117D01*
X151232Y54101D01*
X151209Y54073D01*
X151176Y54034D01*
X151143Y53984D01*
X151110Y53918D01*
X151066Y53846D01*
X151027Y53763D01*
X150988Y53669D01*
X150949Y53563D01*
X150911Y53442D01*
X150877Y53314D01*
X150855Y53176D01*
X150833Y53021D01*
X150822Y52860D01*
Y52689D01*
X151586Y52583D01*
Y52589D01*
Y52617D01*
X151592Y52650D01*
X151597Y52700D01*
X151603Y52761D01*
X151608Y52827D01*
X151619Y52905D01*
X151630Y52982D01*
X151664Y53148D01*
X151713Y53314D01*
X151741Y53392D01*
X151774Y53464D01*
X151813Y53530D01*
X151857Y53586D01*
X151863Y53591D01*
X151868Y53597D01*
X151885Y53608D01*
X151902Y53625D01*
X151957Y53669D01*
X152035Y53719D01*
X152129Y53768D01*
X152245Y53807D01*
X152378Y53840D01*
X152455Y53846D01*
X152533Y53851D01*
X152588D01*
X152649Y53846D01*
X152721Y53835D01*
X152810Y53818D01*
X152898Y53791D01*
X152992Y53757D01*
X153081Y53707D01*
X153092Y53702D01*
X153120Y53680D01*
X153159Y53647D01*
X153209Y53602D01*
X153264Y53547D01*
X153314Y53481D01*
X153364Y53403D01*
X153402Y53314D01*
Y53309D01*
X153408Y53303D01*
X153413Y53287D01*
X153419Y53264D01*
X153424Y53237D01*
X153430Y53204D01*
X153441Y53165D01*
X153447Y53121D01*
X153458Y53065D01*
X153463Y53004D01*
X153469Y52938D01*
X153480Y52866D01*
X153485Y52788D01*
Y52705D01*
X153491Y52611D01*
Y52512D01*
Y48115D01*
X154338D01*
Y52467D01*
Y52478D01*
Y52500D01*
Y52545D01*
X154333Y52600D01*
Y52667D01*
X154327Y52744D01*
X154321Y52827D01*
X154316Y52921D01*
X154288Y53121D01*
X154255Y53325D01*
X154205Y53525D01*
X154172Y53619D01*
X154139Y53707D01*
Y53713D01*
X154128Y53724D01*
X154117Y53752D01*
X154100Y53780D01*
X154083Y53818D01*
X154056Y53857D01*
X153989Y53957D01*
X153906Y54062D01*
X153795Y54173D01*
X153674Y54283D01*
X153524Y54377D01*
X153518D01*
X153507Y54389D01*
X153480Y54400D01*
X153452Y54411D01*
X153408Y54427D01*
X153364Y54450D01*
X153308Y54472D01*
X153242Y54488D01*
X153175Y54510D01*
X153098Y54533D01*
X153020Y54549D01*
X152932Y54571D01*
X152743Y54594D01*
X152538Y54605D01*
X152500D01*
X152455Y54599D01*
D02*
G37*
D12*
X232467Y231156D02*
X127597D01*
X232467D02*
Y258556D01*
X127597D01*
Y231156D02*
Y258556D01*
X203257Y40910D02*
X98387D01*
X203257D02*
Y68310D01*
X98387D01*
Y40910D02*
Y68310D01*
M02*
