G04*
G04 #@! TF.GenerationSoftware,Altium Limited,Altium Designer,22.7.1 (60)*
G04*
G04 Layer_Color=32768*
%FSLAX44Y44*%
%MOMM*%
G71*
G04*
G04 #@! TF.SameCoordinates,2F50B947-C67E-4D0A-9455-C6AB2E86B346*
G04*
G04*
G04 #@! TF.FilePolarity,Positive*
G04*
G01*
G75*
%ADD10C,0.1000*%
%ADD82C,0.0500*%
D10*
X215980Y50410D02*
X-19920D01*
Y249310D01*
X215980D02*
X-19920D01*
X215980Y50410D02*
Y249310D01*
X98973Y240759D02*
X96499Y238285D01*
X98973D02*
X96499Y240759D01*
X317667Y149065D02*
X315193Y146591D01*
X317667D02*
X315193Y149065D01*
X-48248Y44946D02*
Y111946D01*
X-8248Y44946D02*
X-48248D01*
X-8248D02*
Y111946D01*
X-48248D01*
X196498Y81788D02*
X190998D01*
X193748Y79038D02*
Y84538D01*
X217090Y59690D02*
X207490D01*
X212290Y54890D02*
Y64490D01*
X206658Y82042D02*
X201158D01*
X203908Y79292D02*
Y84792D01*
X252930Y54890D02*
Y64490D01*
X257730Y59690D02*
X248130D01*
X232356Y59988D02*
Y65488D01*
X235106Y62738D02*
X229606D01*
X301190Y87420D02*
Y92920D01*
X303940Y90170D02*
X298440D01*
X332914Y102616D02*
X323314D01*
X328114Y97816D02*
Y107416D01*
X274520Y200200D02*
Y206200D01*
X277520Y203200D02*
X271520D01*
X293580Y231000D02*
Y234500D01*
X295330Y232750D02*
X291830D01*
X273580Y231000D02*
Y234500D01*
X275330Y232750D02*
X271830D01*
X283580Y231000D02*
Y234500D01*
X285330Y232750D02*
X281830D01*
X263554Y193040D02*
X258054D01*
X260804Y190290D02*
Y195790D01*
X7792Y249936D02*
X4292D01*
X6042Y248186D02*
Y251686D01*
X22016Y245110D02*
X18516D01*
X20266Y243360D02*
Y246860D01*
X37764Y250190D02*
X34264D01*
X36014Y248440D02*
Y251940D01*
X15440Y49050D02*
Y52550D01*
X17190Y50800D02*
X13690D01*
X21790Y49050D02*
Y52550D01*
X23540Y50800D02*
X20040D01*
X258490Y245110D02*
X254990D01*
X256740Y243360D02*
Y246860D01*
X311560Y107950D02*
X306060D01*
X308810Y105200D02*
Y110700D01*
X293570Y98580D02*
Y102080D01*
X295320Y100330D02*
X291820D01*
X228800Y61770D02*
Y67770D01*
X231800Y64770D02*
X225800D01*
X256740Y61770D02*
Y67770D01*
X259740Y64770D02*
X253740D01*
X218640Y110280D02*
Y115780D01*
X221390Y113030D02*
X215890D01*
X260760Y52070D02*
X255260D01*
X258010Y49320D02*
Y54820D01*
X270770Y111630D02*
X214770D01*
Y63630D02*
Y111630D01*
X270770Y63630D02*
X214770D01*
X270770D02*
Y111630D01*
X305330Y232750D02*
X301830D01*
X303580Y231000D02*
Y234500D01*
D82*
X120508Y231070D02*
X109508D01*
X120508Y254070D02*
X109508D01*
X120508Y231070D02*
Y254070D01*
X109508Y231070D02*
Y254070D01*
X115008Y237820D02*
Y247320D01*
X119758Y242570D02*
X110258D01*
X99504Y233512D02*
X91726Y241290D01*
X103746Y237754D02*
X95968Y245532D01*
X91726Y241290D01*
X103746Y237754D02*
X99504Y233512D01*
X322440Y146060D02*
X314662Y153838D01*
X318198Y141818D02*
X310420Y149596D01*
X322440Y146060D02*
X318198Y141818D01*
X314662Y153838D02*
X310420Y149596D01*
X189748Y73788D02*
Y89788D01*
X197748Y73788D02*
Y89788D01*
Y73788D02*
X189748D01*
X197748Y89788D02*
X189748D01*
X218290Y48190D02*
Y71190D01*
X206290Y48190D02*
Y71190D01*
X218290D02*
X206290D01*
X218290Y48190D02*
X206290D01*
X199908Y74042D02*
Y90042D01*
X207908Y74042D02*
Y90042D01*
Y74042D02*
X199908D01*
X207908Y90042D02*
X199908D01*
X258930Y48190D02*
X246930D01*
X258930Y71190D02*
X246930D01*
Y48190D02*
Y71190D01*
X258930Y48190D02*
Y71190D01*
X246852Y65398D02*
X217352D01*
Y80398D01*
X246852D02*
X217352D01*
X246852Y65398D02*
Y80398D01*
X240356Y58738D02*
X224356D01*
X240356Y66738D02*
X224356D01*
X240356Y58738D02*
Y66738D01*
X224356Y58738D02*
Y66738D01*
X324330Y42750D02*
Y77250D01*
X282830D01*
Y42750D02*
Y77250D01*
X324330Y42750D02*
X282830D01*
X305190Y98170D02*
X297190D01*
X305190Y82170D02*
X297190D01*
X305190D02*
Y98170D01*
X297190Y82170D02*
Y98170D01*
X334114Y91116D02*
Y114116D01*
X322114Y91116D02*
Y114116D01*
X334114Y114116D02*
X322114Y114116D01*
X334114Y91116D02*
X322114D01*
X282520Y199200D02*
X266520D01*
X282520Y207200D02*
X266520D01*
X282520Y199200D02*
Y207200D01*
X266520Y199200D02*
Y207200D01*
X296580Y227250D02*
X290580D01*
X296580Y238250D02*
X290580D01*
Y227250D02*
Y238250D01*
X296580Y227250D02*
Y238250D01*
X276580Y227250D02*
X270580D01*
X276580Y238250D02*
X270580D01*
Y227250D02*
Y238250D01*
X276580Y227250D02*
Y238250D01*
X286580Y227250D02*
X280580D01*
X286580Y238250D02*
X280580D01*
Y227250D02*
Y238250D01*
X286580Y227250D02*
Y238250D01*
X268804Y189040D02*
Y197040D01*
X252804Y189040D02*
Y197040D01*
X268804Y189040D02*
X252804D01*
X268804Y197040D02*
X252804D01*
X11542Y246936D02*
Y252936D01*
X542Y246936D02*
Y252936D01*
X11542D02*
X542D01*
X11542Y246936D02*
X542D01*
X14766Y242110D02*
Y248110D01*
X25766Y242110D02*
Y248110D01*
Y242110D02*
X14766D01*
X25766Y248110D02*
X14766D01*
X41514Y247190D02*
Y253190D01*
X30514Y247190D02*
Y253190D01*
X41514D02*
X30514D01*
X41514Y247190D02*
X30514D01*
X-38260Y206258D02*
Y239258D01*
X-19760Y206258D02*
X-38260D01*
X-19760D02*
Y239258D01*
X-38260D01*
X18440Y56300D02*
X12440D01*
X18440Y45300D02*
X12440D01*
Y56300D01*
X18440Y45300D02*
Y56300D01*
X24790Y45300D02*
X18790D01*
X24790Y56300D02*
X18790D01*
X24790Y45300D02*
Y56300D01*
X18790Y45300D02*
Y56300D01*
X262240Y242110D02*
Y248110D01*
X251240Y242110D02*
Y248110D01*
X262240D02*
X251240D01*
X262240Y242110D02*
X251240D01*
X324740Y118970D02*
X315740D01*
X324740Y99470D02*
Y118970D01*
Y99470D02*
X315740D01*
Y118970D01*
X304810Y99950D02*
Y115950D01*
X312810Y99950D02*
Y115950D01*
X304810D01*
X312810Y99950D02*
X304810D01*
X296570Y94830D02*
X290570D01*
X296570Y105830D02*
X290570D01*
X296570Y94830D02*
Y105830D01*
X290570Y94830D02*
Y105830D01*
X236800Y60770D02*
X220800D01*
X236800Y68770D02*
X220800D01*
Y60770D02*
Y68770D01*
X236800Y60770D02*
Y68770D01*
X264740Y68770D02*
X248740D01*
X264740Y60770D02*
X248740D01*
X264740D02*
Y68770D01*
X248740Y60770D02*
Y68770D01*
X222640Y120530D02*
X214640D01*
X222640Y105530D02*
X214640D01*
Y120530D01*
X222640Y105530D02*
Y120530D01*
X299830Y113750D02*
X227330D01*
X299830D02*
Y186250D01*
X227330D01*
Y113750D02*
Y186250D01*
X250010Y48070D02*
Y56070D01*
X266010Y48070D02*
Y56070D01*
Y48070D02*
X250010D01*
X266010Y56070D02*
X250010D01*
X306580Y227250D02*
Y238250D01*
X300580Y227250D02*
Y238250D01*
X306580D02*
X300580D01*
X306580Y227250D02*
X300580D01*
M02*
