G04*
G04 #@! TF.GenerationSoftware,Altium Limited,Altium Designer,22.7.1 (60)*
G04*
G04 Layer_Color=16711935*
%FSLAX44Y44*%
%MOMM*%
G71*
G04*
G04 #@! TF.SameCoordinates,2F50B947-C67E-4D0A-9455-C6AB2E86B346*
G04*
G04*
G04 #@! TF.FilePolarity,Positive*
G04*
G01*
G75*
%ADD10C,0.1000*%
%ADD12C,0.2000*%
D10*
X205980Y69860D02*
X-9920D01*
Y229860D01*
X205980D02*
X-9920D01*
X205980Y69860D02*
Y229860D01*
X119758Y233820D02*
X110258D01*
X119758Y251320D02*
X110258D01*
X119758Y233820D02*
Y251320D01*
X110258Y233820D02*
Y251320D01*
X98797Y235986D02*
X94200Y240583D01*
X101272Y238461D02*
X96675Y243057D01*
X94200Y240583D01*
X101272Y238461D02*
X98797Y235986D01*
X319965Y146767D02*
X315369Y151363D01*
X317491Y144292D02*
X312894Y148889D01*
X319965Y146767D02*
X317491Y144292D01*
X315369Y151363D02*
X312894Y148889D01*
X190998Y76538D02*
Y87038D01*
X196498Y76538D02*
Y87038D01*
Y76538D02*
X190998D01*
X196498Y87038D02*
X190998D01*
X217090Y50940D02*
Y68440D01*
X207490Y50940D02*
Y68440D01*
X217090D02*
X207490D01*
X217090Y50940D02*
X207490D01*
X201158Y76792D02*
Y87292D01*
X206658Y76792D02*
Y87292D01*
Y76792D02*
X201158D01*
X206658Y87292D02*
X201158D01*
X257730Y50940D02*
X248130D01*
X257730Y68440D02*
X248130D01*
Y50940D02*
Y68440D01*
X257730Y50940D02*
Y68440D01*
X240102Y68898D02*
X224102D01*
Y76898D01*
X240102D02*
X224102D01*
X240102Y68898D02*
Y76898D01*
X237606Y59988D02*
X227106D01*
X237606Y65488D02*
X227106D01*
X237606Y59988D02*
Y65488D01*
X227106Y59988D02*
Y65488D01*
X311580Y54750D02*
X302080Y45250D01*
X311580D02*
Y74750D01*
X295580D01*
Y45250D02*
Y74750D01*
X311580Y45250D02*
X295580D01*
X303940Y95420D02*
X298440D01*
X303940Y84920D02*
X298440D01*
X303940D02*
Y95420D01*
X298440Y84920D02*
Y95420D01*
X332914Y111366D02*
X332914Y93866D01*
X323314D02*
Y111366D01*
X332914D02*
X323314D01*
X332914Y93866D02*
X323314D01*
X280020Y200200D02*
X269020D01*
X280020Y206200D02*
X269020D01*
X280020Y200200D02*
Y206200D01*
X269020Y200200D02*
Y206200D01*
X295330Y229500D02*
X291830D01*
X295330Y236000D02*
X291830D01*
Y229500D02*
Y236000D01*
X295330Y229500D02*
Y236000D01*
X275330Y229500D02*
X271830D01*
X275330Y236000D02*
X271830D01*
Y229500D02*
Y236000D01*
X275330Y229500D02*
Y236000D01*
X285330Y229500D02*
X281830D01*
X285330Y236000D02*
X281830D01*
Y229500D02*
Y236000D01*
X285330Y229500D02*
Y236000D01*
X266054Y190290D02*
Y195790D01*
X255554Y190290D02*
Y195790D01*
X266054Y190290D02*
X255554D01*
X266054Y195790D02*
X255554D01*
X9292Y248186D02*
Y251686D01*
X2792Y248186D02*
Y251686D01*
X9292D02*
X2792D01*
X9292Y248186D02*
X2792D01*
X17016Y243360D02*
Y246860D01*
X23516Y243360D02*
Y246860D01*
Y243360D02*
X17016D01*
X23516Y246860D02*
X17016D01*
X39264Y248440D02*
Y251940D01*
X32764Y248440D02*
Y251940D01*
X39264D02*
X32764D01*
X39264Y248440D02*
X32764D01*
X-33010Y214758D02*
Y230758D01*
X-25010Y214758D02*
X-33010D01*
X-25010D02*
Y230758D01*
X-33010D01*
X-30340D02*
X-33010Y228088D01*
X17190Y54050D02*
X13690D01*
X17190Y47550D02*
X13690D01*
Y54050D01*
X17190Y47550D02*
Y54050D01*
X23540Y47550D02*
X20040D01*
X23540Y54050D02*
X20040D01*
X23540Y47550D02*
Y54050D01*
X20040Y47550D02*
Y54050D01*
X259990Y243360D02*
Y246860D01*
X253490Y243360D02*
Y246860D01*
X259990D02*
X253490D01*
X259990Y243360D02*
X253490D01*
X321740Y112220D02*
X318740D01*
X321740Y106220D02*
Y112220D01*
Y106220D02*
X318740D01*
Y112220D01*
X306060Y102700D02*
Y113200D01*
X311560Y102700D02*
Y113200D01*
X306060D01*
X311560Y102700D02*
X306060D01*
X295320Y97080D02*
X291820D01*
X295320Y103580D02*
X291820D01*
X295320Y97080D02*
Y103580D01*
X291820Y97080D02*
Y103580D01*
X234300Y61770D02*
X223300D01*
X234300Y67770D02*
X223300D01*
Y61770D02*
Y67770D01*
X234300Y61770D02*
Y67770D01*
X262240D02*
X251240D01*
X262240Y61770D02*
X251240D01*
X262240D02*
Y67770D01*
X251240Y61770D02*
Y67770D01*
X221390Y118280D02*
X215890D01*
X221390Y107780D02*
X215890D01*
Y118280D01*
X221390Y107780D02*
Y118280D01*
X293580Y120000D02*
X233580D01*
X293580D02*
Y180000D01*
X233580D01*
Y120000D02*
Y180000D01*
X237580Y120000D02*
X233580Y124000D01*
X252760Y49320D02*
Y54820D01*
X263260Y49320D02*
Y54820D01*
Y49320D02*
X252760D01*
X263260Y54820D02*
X252760D01*
X258770Y75130D02*
X226770D01*
Y100130D01*
X258770D02*
X226770D01*
X258770Y75130D02*
Y100130D01*
X305330Y229500D02*
Y236000D01*
X301830Y229500D02*
Y236000D01*
X305330D02*
X301830D01*
X305330Y229500D02*
X301830D01*
D12*
X-38248Y62446D02*
Y89446D01*
X-18248Y62446D02*
X-38248D01*
X-18248D02*
Y89446D01*
X-38248D01*
M02*
