G04*
G04 #@! TF.GenerationSoftware,Altium Limited,Altium Designer,22.7.1 (60)*
G04*
G04 Layer_Color=16711935*
%FSLAX44Y44*%
%MOMM*%
G71*
G04*
G04 #@! TF.SameCoordinates,2F50B947-C67E-4D0A-9455-C6AB2E86B346*
G04*
G04*
G04 #@! TF.FilePolarity,Positive*
G04*
G01*
G75*
%ADD10C,0.1000*%
%ADD13C,0.1500*%
%ADD82C,0.0500*%
D10*
X338580Y50750D02*
G03*
X333580Y45750I0J-5000D01*
G01*
Y254250D02*
G03*
X338580Y249250I5000J0D01*
G01*
X344580Y129750D02*
G03*
X344580Y117750I0J-6000D01*
G01*
X373580Y50750D02*
Y117750D01*
Y129750D02*
Y249250D01*
Y50750D02*
X338580D01*
X333580Y40000D02*
Y45750D01*
Y254250D02*
Y260000D01*
X373580Y249250D02*
X338580D01*
X373580Y129750D02*
X344580D01*
X373580Y117750D02*
X344580D01*
X370580Y32500D02*
Y48000D01*
X377205Y25875D02*
X370580Y32500D01*
D13*
X377917Y186154D02*
X385914D01*
Y182155D01*
X384581Y180823D01*
X383248D01*
X381916Y182155D01*
Y186154D01*
Y182155D01*
X380583Y180823D01*
X379250D01*
X377917Y182155D01*
Y186154D01*
X385914Y176824D02*
Y174158D01*
X384581Y172825D01*
X381916D01*
X380583Y174158D01*
Y176824D01*
X381916Y178157D01*
X384581D01*
X385914Y176824D01*
X380583Y168826D02*
Y166161D01*
X381916Y164828D01*
X385914D01*
Y168826D01*
X384581Y170159D01*
X383248Y168826D01*
Y164828D01*
X380583Y162162D02*
X385914D01*
X383248D01*
X381916Y160829D01*
X380583Y159496D01*
Y158163D01*
X377917Y148833D02*
X385914D01*
Y152832D01*
X384581Y154164D01*
X381916D01*
X380583Y152832D01*
Y148833D01*
X377917Y132838D02*
Y138170D01*
X385914D01*
Y132838D01*
X381916Y138170D02*
Y135504D01*
X377917Y124841D02*
X385914D01*
Y128839D01*
X384581Y130172D01*
X381916D01*
X380583Y128839D01*
Y124841D01*
X388580Y119509D02*
Y118176D01*
X387247Y116843D01*
X380583D01*
Y120842D01*
X381916Y122175D01*
X384581D01*
X385914Y120842D01*
Y116843D01*
Y110179D02*
Y112844D01*
X384581Y114177D01*
X381916D01*
X380583Y112844D01*
Y110179D01*
X381916Y108846D01*
X383248D01*
Y114177D01*
X349052Y292827D02*
X345720D01*
X344053Y291161D01*
X345720Y289495D01*
X349052D01*
X346553D01*
Y292827D01*
X349052Y287829D02*
Y286163D01*
Y286996D01*
X344053D01*
Y287829D01*
X349052Y283664D02*
Y281998D01*
Y282831D01*
X344053D01*
Y283664D01*
X350718Y274500D02*
X345720D01*
Y272001D01*
X346553Y271168D01*
X348219D01*
X349052Y272001D01*
Y274500D01*
X345720Y268669D02*
Y267002D01*
X346553Y266169D01*
X349052D01*
Y268669D01*
X348219Y269502D01*
X347386Y268669D01*
Y266169D01*
X344053Y261171D02*
X349052D01*
Y263670D01*
X348219Y264503D01*
X346553D01*
X345720Y263670D01*
Y261171D01*
X349052Y259505D02*
Y257006D01*
X348219Y256173D01*
X347386Y257006D01*
Y258672D01*
X346553Y259505D01*
X345720Y258672D01*
Y256173D01*
X355318Y295743D02*
X360316D01*
X357817D01*
X356984Y294910D01*
Y293244D01*
X357817Y292411D01*
X360316D01*
X356984Y289912D02*
Y288246D01*
X357817Y287412D01*
X360316D01*
Y289912D01*
X359483Y290745D01*
X358650Y289912D01*
Y287412D01*
X356984Y285746D02*
X360316D01*
X358650D01*
X357817Y284913D01*
X356984Y284080D01*
Y283247D01*
X355318Y277416D02*
X360316D01*
Y279915D01*
X359483Y280748D01*
X357817D01*
X356984Y279915D01*
Y277416D01*
X361982Y269085D02*
Y268252D01*
X361149Y267419D01*
X356984D01*
Y269918D01*
X357817Y270751D01*
X359483D01*
X360316Y269918D01*
Y267419D01*
Y264920D02*
Y263254D01*
X359483Y262421D01*
X357817D01*
X356984Y263254D01*
Y264920D01*
X357817Y265753D01*
X359483D01*
X360316Y264920D01*
Y260755D02*
Y259088D01*
Y259921D01*
X355318D01*
Y260755D01*
Y253257D02*
X360316D01*
Y255756D01*
X359483Y256589D01*
X357817D01*
X356984Y255756D01*
Y253257D01*
X371580Y291578D02*
X367415D01*
X369081D01*
Y292411D01*
Y290745D01*
Y291578D01*
X367415D01*
X366582Y290745D01*
X371580Y288246D02*
Y286579D01*
Y287412D01*
X368248D01*
Y288246D01*
X371580Y284080D02*
X368248D01*
Y281581D01*
X369081Y280748D01*
X371580D01*
Y279082D02*
Y277416D01*
Y278249D01*
X368248D01*
Y279082D01*
X371580Y274916D02*
Y272417D01*
X370747Y271584D01*
X369914Y272417D01*
Y274083D01*
X369081Y274916D01*
X368248Y274083D01*
Y271584D01*
X366582Y269918D02*
X371580D01*
X369081D01*
X368248Y269085D01*
Y267419D01*
X369081Y266586D01*
X371580D01*
Y262421D02*
Y264087D01*
X370747Y264920D01*
X369081D01*
X368248Y264087D01*
Y262421D01*
X369081Y261588D01*
X369914D01*
Y264920D01*
X366582Y256589D02*
X371580D01*
Y259088D01*
X370747Y259921D01*
X369081D01*
X368248Y259088D01*
Y256589D01*
X389386Y224808D02*
Y230140D01*
X393385D01*
Y227474D01*
Y230140D01*
X397383D01*
Y222143D02*
Y219477D01*
Y220810D01*
X392052D01*
Y222143D01*
X397383Y215478D02*
X392052D01*
Y211479D01*
X393385Y210147D01*
X397383D01*
X392052Y206148D02*
Y203482D01*
X393385Y202149D01*
X397383D01*
Y206148D01*
X396050Y207481D01*
X394717Y206148D01*
Y202149D01*
X397383Y199483D02*
Y196817D01*
Y198150D01*
X389386D01*
Y199483D01*
Y184821D02*
X397383D01*
Y180823D01*
X396050Y179490D01*
X394717D01*
X393385Y180823D01*
Y184821D01*
Y180823D01*
X392052Y179490D01*
X390719D01*
X389386Y180823D01*
Y184821D01*
X397383Y175491D02*
Y172825D01*
X396050Y171492D01*
X393385D01*
X392052Y172825D01*
Y175491D01*
X393385Y176824D01*
X396050D01*
X397383Y175491D01*
X392052Y167493D02*
Y164828D01*
X393385Y163495D01*
X397383D01*
Y167493D01*
X396050Y168827D01*
X394717Y167493D01*
Y163495D01*
X392052Y160829D02*
X397383D01*
X394717D01*
X393385Y159496D01*
X392052Y158163D01*
Y156830D01*
X389386Y147500D02*
X397383D01*
Y151499D01*
X396050Y152832D01*
X393385D01*
X392052Y151499D01*
Y147500D01*
X389386Y136837D02*
Y131505D01*
Y134171D01*
X397383D01*
X389386Y128839D02*
X397383D01*
X393385D01*
X392052Y127507D01*
Y124841D01*
X393385Y123508D01*
X397383D01*
Y120842D02*
Y118176D01*
Y119509D01*
X392052D01*
Y120842D01*
Y108846D02*
Y112844D01*
X393385Y114177D01*
X396050D01*
X397383Y112844D01*
Y108846D01*
Y106180D02*
X389386D01*
X394717D02*
X392052Y102181D01*
X394717Y106180D02*
X397383Y102181D01*
Y98183D02*
X392052D01*
Y94184D01*
X393385Y92851D01*
X397383D01*
Y86186D02*
Y88852D01*
X396050Y90185D01*
X393385D01*
X392052Y88852D01*
Y86186D01*
X393385Y84854D01*
X394717D01*
Y90185D01*
X397383Y82188D02*
Y78189D01*
X396050Y76856D01*
X394717Y78189D01*
Y80855D01*
X393385Y82188D01*
X392052Y80855D01*
Y76856D01*
X397383Y74190D02*
Y70192D01*
X396050Y68859D01*
X394717Y70192D01*
Y72857D01*
X393385Y74190D01*
X392052Y72857D01*
Y68859D01*
Y66193D02*
Y64860D01*
X393385D01*
Y66193D01*
X392052D01*
X396050D02*
Y64860D01*
X397383D01*
Y66193D01*
X396050D01*
X403915Y192819D02*
X402583Y191486D01*
Y188820D01*
X403915Y187487D01*
X409247D01*
X410580Y188820D01*
Y191486D01*
X409247Y192819D01*
X403915D01*
X410580Y184821D02*
X409247D01*
Y183488D01*
X410580D01*
Y184821D01*
X403915Y178157D02*
X402583Y176824D01*
Y174158D01*
X403915Y172825D01*
X405248D01*
X406581Y174158D01*
X407914Y172825D01*
X409247D01*
X410580Y174158D01*
Y176824D01*
X409247Y178157D01*
X407914D01*
X406581Y176824D01*
X405248Y178157D01*
X403915D01*
X406581Y176824D02*
Y174158D01*
Y162162D02*
Y156830D01*
X403915Y159496D02*
X409247D01*
X406581Y154164D02*
Y148833D01*
X403915Y146167D02*
X402583Y144834D01*
Y142168D01*
X403915Y140836D01*
X409247D01*
X410580Y142168D01*
Y144834D01*
X409247Y146167D01*
X403915D01*
X410580Y138170D02*
X409247D01*
Y136837D01*
X410580D01*
Y138170D01*
X403915Y131505D02*
X402583Y130172D01*
Y127506D01*
X403915Y126173D01*
X409247D01*
X410580Y127506D01*
Y130172D01*
X409247Y131505D01*
X403915D01*
Y123508D02*
X402583Y122175D01*
Y119509D01*
X403915Y118176D01*
X405248D01*
X406581Y119509D01*
X407914Y118176D01*
X409247D01*
X410580Y119509D01*
Y122175D01*
X409247Y123508D01*
X407914D01*
X406581Y122175D01*
X405248Y123508D01*
X403915D01*
X406581Y122175D02*
Y119509D01*
X410580Y115510D02*
X405248D01*
Y114177D01*
X406581Y112844D01*
X410580D01*
X406581D01*
X405248Y111512D01*
X406581Y110179D01*
X410580D01*
Y107513D02*
X405248D01*
Y106180D01*
X406581Y104847D01*
X410580D01*
X406581D01*
X405248Y103514D01*
X406581Y102181D01*
X410580D01*
X383522Y44827D02*
Y48160D01*
X380190Y44827D01*
X379357D01*
X378524Y45660D01*
Y47326D01*
X379357Y48160D01*
Y43161D02*
X378524Y42328D01*
Y40662D01*
X379357Y39829D01*
X382689D01*
X383522Y40662D01*
Y42328D01*
X382689Y43161D01*
X379357D01*
X381023Y38163D02*
Y34831D01*
X378524Y29832D02*
X383522D01*
Y32331D01*
X382689Y33165D01*
X381023D01*
X380190Y32331D01*
Y29832D01*
X383522Y25667D02*
Y27333D01*
X382689Y28166D01*
X381023D01*
X380190Y27333D01*
Y25667D01*
X381023Y24834D01*
X381856D01*
Y28166D01*
X385188Y21502D02*
Y20669D01*
X384355Y19835D01*
X380190D01*
Y22335D01*
X381023Y23168D01*
X382689D01*
X383522Y22335D01*
Y19835D01*
X380190Y18169D02*
X383522D01*
X381856D01*
X381023Y17336D01*
X380190Y16503D01*
Y15670D01*
X383522Y10672D02*
Y12338D01*
X382689Y13171D01*
X381023D01*
X380190Y12338D01*
Y10672D01*
X381023Y9839D01*
X381856D01*
Y13171D01*
X383522Y5673D02*
Y7340D01*
X382689Y8173D01*
X381023D01*
X380190Y7340D01*
Y5673D01*
X381023Y4840D01*
X381856D01*
Y8173D01*
X391454Y44411D02*
Y46910D01*
X392287Y47743D01*
X393953D01*
X394786Y46910D01*
Y44411D01*
X389788Y42745D02*
X394786D01*
X392287D01*
X391454Y41912D01*
Y40245D01*
X392287Y39412D01*
X394786D01*
X391454Y36913D02*
Y35247D01*
X392287Y34414D01*
X394786D01*
Y36913D01*
X393953Y37746D01*
X393120Y36913D01*
Y34414D01*
X394786Y32748D02*
X391454D01*
Y31915D01*
X392287Y31082D01*
X394786D01*
X392287D01*
X391454Y30249D01*
X392287Y29416D01*
X394786D01*
Y26916D02*
X390621D01*
X392287D01*
Y27750D01*
Y26084D01*
Y26916D01*
X390621D01*
X389788Y26084D01*
X394786Y21085D02*
Y22751D01*
X393953Y23584D01*
X392287D01*
X391454Y22751D01*
Y21085D01*
X392287Y20252D01*
X393120D01*
Y23584D01*
X391454Y18586D02*
X394786D01*
X393120D01*
X392287Y17753D01*
X391454Y16920D01*
Y16087D01*
X394786Y11088D02*
Y12754D01*
X393953Y13588D01*
X392287D01*
X391454Y12754D01*
Y11088D01*
X392287Y10255D01*
X393120D01*
Y13588D01*
X389788Y5257D02*
X394786D01*
Y7756D01*
X393953Y8589D01*
X392287D01*
X391454Y7756D01*
Y5257D01*
X399386Y40245D02*
X404384D01*
Y37746D01*
X403551Y36913D01*
X402718D01*
X401885D01*
X401052Y37746D01*
Y40245D01*
X404384Y34414D02*
Y32748D01*
X403551Y31915D01*
X401885D01*
X401052Y32748D01*
Y34414D01*
X401885Y35247D01*
X403551D01*
X404384Y34414D01*
X401052Y30249D02*
X404384D01*
X402718D01*
X401885Y29416D01*
X401052Y28583D01*
Y27750D01*
X399386Y21918D02*
X404384D01*
Y24417D01*
X403551Y25250D01*
X401885D01*
X401052Y24417D01*
Y21918D01*
X404384Y17753D02*
Y19419D01*
X403551Y20252D01*
X401885D01*
X401052Y19419D01*
Y17753D01*
X401885Y16920D01*
X402718D01*
Y20252D01*
X401052Y15254D02*
X404384D01*
X402718D01*
X401885Y14421D01*
X401052Y13588D01*
Y12754D01*
X413982Y46077D02*
X409817D01*
X411483D01*
Y46910D01*
Y45244D01*
Y46077D01*
X409817D01*
X408984Y45244D01*
X410650Y42745D02*
X413982D01*
X412316D01*
X411483Y41912D01*
X410650Y41079D01*
Y40245D01*
X413982Y36913D02*
Y35247D01*
X413149Y34414D01*
X411483D01*
X410650Y35247D01*
Y36913D01*
X411483Y37746D01*
X413149D01*
X413982Y36913D01*
Y32748D02*
X410650D01*
Y31915D01*
X411483Y31082D01*
X413982D01*
X411483D01*
X410650Y30249D01*
X411483Y29416D01*
X413982D01*
X409817Y21918D02*
X410650D01*
Y22751D01*
Y21085D01*
Y21918D01*
X413149D01*
X413982Y21085D01*
X408984Y18586D02*
X413982D01*
X411483D01*
X410650Y17753D01*
Y16087D01*
X411483Y15254D01*
X413982D01*
Y13588D02*
Y11921D01*
Y12754D01*
X410650D01*
Y13588D01*
X413982Y9422D02*
Y6923D01*
X413149Y6090D01*
X412316Y6923D01*
Y8589D01*
X411483Y9422D01*
X410650Y8589D01*
Y6090D01*
X423580Y34831D02*
Y33165D01*
Y33997D01*
X418582D01*
Y34831D01*
X423580Y30665D02*
Y28999D01*
Y29832D01*
X420248D01*
Y30665D01*
X423580Y26500D02*
X420248D01*
Y24001D01*
X421081Y23168D01*
X423580D01*
Y19002D02*
Y20668D01*
X422747Y21502D01*
X421081D01*
X420248Y20668D01*
Y19002D01*
X421081Y18169D01*
X421914D01*
Y21502D01*
D82*
X370580Y129750D02*
Y249250D01*
Y50750D02*
Y117750D01*
M02*
