G04*
G04 #@! TF.GenerationSoftware,Altium Limited,Altium Designer,22.7.1 (60)*
G04*
G04 Layer_Color=65535*
%FSLAX44Y44*%
%MOMM*%
G71*
G04*
G04 #@! TF.SameCoordinates,2F50B947-C67E-4D0A-9455-C6AB2E86B346*
G04*
G04*
G04 #@! TF.FilePolarity,Positive*
G04*
G01*
G75*
%ADD10C,0.1000*%
%ADD11C,0.2500*%
%ADD12C,0.2000*%
%ADD13C,0.1500*%
D10*
X144980Y60710D02*
G03*
X144980Y59710I0J-500D01*
G01*
D02*
G03*
X144980Y60710I0J500D01*
G01*
X-28248Y100946D02*
G03*
X-28248Y101946I0J500D01*
G01*
D02*
G03*
X-28248Y100946I0J-500D01*
G01*
X-38248Y62446D02*
Y89446D01*
X-18248Y62446D02*
Y89446D01*
D11*
X121347Y244856D02*
G03*
X121347Y244856I1250J0D01*
G01*
X92137Y54610D02*
G03*
X92137Y54610I1250J0D01*
G01*
D12*
X228830Y122000D02*
G03*
X228830Y122000I1000J0D01*
G01*
X252770Y69630D02*
G03*
X252770Y67630I0J-1000D01*
G01*
D02*
G03*
X252770Y69630I0J1000D01*
G01*
X68980Y69860D02*
X-9920D01*
Y229860D01*
X68980D02*
X-9920D01*
X205980D02*
X102980D01*
X205980Y69860D02*
Y229860D01*
Y69860D02*
X102980D01*
X118508Y242070D02*
Y243070D01*
X111508Y242070D02*
Y243070D01*
X231467Y234226D02*
Y255016D01*
X128597D01*
X138922Y234226D02*
X128597D01*
Y255016D01*
X231467Y234226D02*
X138922D01*
X202257Y43980D02*
Y64770D01*
X99387D01*
X109712Y43980D02*
X99387D01*
Y64770D01*
X202257Y43980D02*
X109712D01*
X-37260Y215258D02*
Y238258D01*
X-20760D02*
X-37260D01*
X-20760Y215258D02*
Y238258D01*
X243270Y75130D02*
X242270D01*
X243270Y100130D02*
X242270D01*
X211110Y188976D02*
Y192642D01*
Y190809D01*
X220273D01*
X222106Y192642D01*
Y194474D01*
X220273Y196307D01*
X222106Y185310D02*
Y181645D01*
Y183478D01*
X211110D01*
X212943Y185310D01*
X218296Y53031D02*
Y49366D01*
Y51199D01*
X209133D01*
X207300Y49366D01*
Y47533D01*
X209133Y45700D01*
X216464Y56697D02*
X218296Y58530D01*
Y62195D01*
X216464Y64028D01*
X214631D01*
X212798Y62195D01*
Y60362D01*
Y62195D01*
X210965Y64028D01*
X209133D01*
X207300Y62195D01*
Y58530D01*
X209133Y56697D01*
X224791Y228764D02*
X228456D01*
X226623D01*
Y219601D01*
X228456Y217768D01*
X230289D01*
X232122Y219601D01*
X213794Y217768D02*
X221125D01*
X213794Y225099D01*
Y226931D01*
X215627Y228764D01*
X219293D01*
X221125Y226931D01*
X-18424Y181235D02*
X-28420D01*
Y187899D01*
X-18424Y191232D02*
X-28420D01*
Y196230D01*
X-26754Y197896D01*
X-20090D01*
X-18424Y196230D01*
Y191232D01*
X-28420Y207893D02*
Y201229D01*
X-21756Y207893D01*
X-20090D01*
X-18424Y206227D01*
Y202895D01*
X-20090Y201229D01*
X-15061Y117012D02*
Y107016D01*
X-21726D01*
X-25058Y117012D02*
Y107016D01*
X-30056D01*
X-31722Y108682D01*
Y115346D01*
X-30056Y117012D01*
X-25058D01*
X-35055Y107016D02*
X-38387D01*
X-36721D01*
Y117012D01*
X-35055Y115346D01*
X210856Y92929D02*
X212689D01*
X216354Y89263D01*
X212689Y85598D01*
X210856D01*
X216354Y89263D02*
X221852D01*
Y81932D02*
Y78267D01*
Y80100D01*
X210856D01*
X212689Y81932D01*
X289063Y73769D02*
X290895Y75602D01*
X294561D01*
X296394Y73769D01*
Y66438D01*
X294561Y64606D01*
X290895D01*
X289063Y66438D01*
X285397Y64606D02*
X281732D01*
X283564D01*
Y75602D01*
X285397Y73769D01*
X276233D02*
X274401Y75602D01*
X270735D01*
X268902Y73769D01*
Y71937D01*
X270735Y70104D01*
X272568D01*
X270735D01*
X268902Y68271D01*
Y66438D01*
X270735Y64606D01*
X274401D01*
X276233Y66438D01*
X284172Y53958D02*
X286005Y55790D01*
X289670D01*
X291503Y53958D01*
Y46627D01*
X289670Y44794D01*
X286005D01*
X284172Y46627D01*
X280506Y44794D02*
X276841D01*
X278674D01*
Y55790D01*
X280506Y53958D01*
X318009Y96122D02*
X319841Y97954D01*
X323507D01*
X325340Y96122D01*
Y88791D01*
X323507Y86958D01*
X319841D01*
X318009Y88791D01*
X314343Y96122D02*
X312511Y97954D01*
X308845D01*
X307012Y96122D01*
Y94289D01*
X308845Y92456D01*
X310678D01*
X308845D01*
X307012Y90623D01*
Y88791D01*
X308845Y86958D01*
X312511D01*
X314343Y88791D01*
X101536Y253014D02*
X103202Y254680D01*
X106534D01*
X108200Y253014D01*
Y246350D01*
X106534Y244684D01*
X103202D01*
X101536Y246350D01*
X98203Y244684D02*
X94871D01*
X96537D01*
Y254680D01*
X98203Y253014D01*
X83208Y244684D02*
X89873D01*
X83208Y251348D01*
Y253014D01*
X84874Y254680D01*
X88206D01*
X89873Y253014D01*
X242251Y57688D02*
X243918Y59354D01*
X247250D01*
X248916Y57688D01*
Y51024D01*
X247250Y49358D01*
X243918D01*
X242251Y51024D01*
X238919Y49358D02*
X235587D01*
X237253D01*
Y59354D01*
X238919Y57688D01*
X225590Y49358D02*
Y59354D01*
X230588Y54356D01*
X223924D01*
X238944Y104222D02*
Y114218D01*
X233945D01*
X232279Y112552D01*
Y109220D01*
X233945Y107554D01*
X238944D01*
X235612D02*
X232279Y104222D01*
X222283Y114218D02*
X228947D01*
Y109220D01*
X225615Y110886D01*
X223949D01*
X222283Y109220D01*
Y105888D01*
X223949Y104222D01*
X227281D01*
X228947Y105888D01*
X293844Y240120D02*
Y251116D01*
X288346D01*
X286513Y249284D01*
Y245618D01*
X288346Y243785D01*
X293844D01*
X290178D02*
X286513Y240120D01*
X275516Y251116D02*
X279182Y249284D01*
X282847Y245618D01*
Y241952D01*
X281014Y240120D01*
X277349D01*
X275516Y241952D01*
Y243785D01*
X277349Y245618D01*
X282847D01*
X342541Y101936D02*
Y111932D01*
X337542D01*
X335876Y110266D01*
Y106934D01*
X337542Y105268D01*
X342541D01*
X339208D02*
X335876Y101936D01*
X332544Y111932D02*
X325879D01*
Y110266D01*
X332544Y103602D01*
Y101936D01*
X-19663Y243922D02*
Y253918D01*
X-24662D01*
X-26328Y252252D01*
Y248920D01*
X-24662Y247254D01*
X-19663D01*
X-22996D02*
X-26328Y243922D01*
X-29660Y252252D02*
X-31326Y253918D01*
X-34659D01*
X-36325Y252252D01*
Y250586D01*
X-34659Y248920D01*
X-36325Y247254D01*
Y245588D01*
X-34659Y243922D01*
X-31326D01*
X-29660Y245588D01*
Y247254D01*
X-31326Y248920D01*
X-29660Y250586D01*
Y252252D01*
X-31326Y248920D02*
X-34659D01*
X43837Y236048D02*
Y246044D01*
X38838D01*
X37172Y244378D01*
Y241046D01*
X38838Y239380D01*
X43837D01*
X40504D02*
X37172Y236048D01*
X33840Y237714D02*
X32174Y236048D01*
X28842D01*
X27175Y237714D01*
Y244378D01*
X28842Y246044D01*
X32174D01*
X33840Y244378D01*
Y242712D01*
X32174Y241046D01*
X27175D01*
X11172Y53422D02*
Y63418D01*
X6174D01*
X4507Y61752D01*
Y58420D01*
X6174Y56754D01*
X11172D01*
X7840D02*
X4507Y53422D01*
X1175D02*
X-2157D01*
X-491D01*
Y63418D01*
X1175Y61752D01*
X-7156D02*
X-8822Y63418D01*
X-12154D01*
X-13820Y61752D01*
Y55088D01*
X-12154Y53422D01*
X-8822D01*
X-7156Y55088D01*
Y61752D01*
X319029Y150733D02*
X326098Y157802D01*
X322564Y161336D01*
X320208D01*
X317851Y158980D01*
Y156624D01*
X321386Y153090D01*
X319029Y155446D02*
X314317D01*
X311961Y157802D02*
X309604Y160158D01*
X310783Y158980D01*
X317851Y166049D01*
Y163693D01*
X306070D02*
X303714Y166049D01*
X304892Y164871D01*
X311961Y171940D01*
Y169583D01*
X301474Y81624D02*
Y92620D01*
X295975D01*
X294143Y90787D01*
Y87122D01*
X295975Y85289D01*
X301474D01*
X297808D02*
X294143Y81624D01*
X290477D02*
X286812D01*
X288644D01*
Y92620D01*
X290477Y90787D01*
X281313D02*
X279481Y92620D01*
X275815D01*
X273982Y90787D01*
Y88955D01*
X275815Y87122D01*
X277648D01*
X275815D01*
X273982Y85289D01*
Y83456D01*
X275815Y81624D01*
X279481D01*
X281313Y83456D01*
X12950Y235032D02*
Y245028D01*
X7952D01*
X6285Y243362D01*
Y240030D01*
X7952Y238364D01*
X12950D01*
X9618D02*
X6285Y235032D01*
X2953D02*
X-379D01*
X1287D01*
Y245028D01*
X2953Y243362D01*
X-12042Y245028D02*
X-5378D01*
Y240030D01*
X-8710Y241696D01*
X-10376D01*
X-12042Y240030D01*
Y236698D01*
X-10376Y235032D01*
X-7044D01*
X-5378Y236698D01*
X57634Y48096D02*
Y59092D01*
X52135D01*
X50303Y57259D01*
Y53594D01*
X52135Y51761D01*
X57634D01*
X53968D02*
X50303Y48096D01*
X46637D02*
X42972D01*
X44804D01*
Y59092D01*
X46637Y57259D01*
X31975Y48096D02*
Y59092D01*
X37473Y53594D01*
X30142D01*
X75688Y238334D02*
Y248330D01*
X70690D01*
X69023Y246664D01*
Y243332D01*
X70690Y241666D01*
X75688D01*
X72356D02*
X69023Y238334D01*
X65691D02*
X62359D01*
X64025D01*
Y248330D01*
X65691Y246664D01*
X50696Y238334D02*
X57361D01*
X50696Y244998D01*
Y246664D01*
X52362Y248330D01*
X55694D01*
X57361Y246664D01*
X252960Y212762D02*
X249294D01*
X251127D01*
Y201766D01*
X252960D01*
X249294D01*
X236465Y210930D02*
X238298Y212762D01*
X241963D01*
X243796Y210930D01*
Y203598D01*
X241963Y201766D01*
X238298D01*
X236465Y203598D01*
X225468Y201766D02*
X232799D01*
X225468Y209097D01*
Y210930D01*
X227301Y212762D01*
X230967D01*
X232799Y210930D01*
D13*
X348434Y58928D02*
Y56429D01*
Y57678D01*
X340936D01*
X342186Y58928D01*
X341582Y245000D02*
Y240002D01*
X342832D01*
X347830Y245000D01*
X349080D01*
X341582Y232504D02*
Y237502D01*
X345331D01*
X344082Y235003D01*
Y233754D01*
X345331Y232504D01*
X347830D01*
X349080Y233754D01*
Y236253D01*
X347830Y237502D01*
M02*
