G04*
G04 #@! TF.GenerationSoftware,Altium Limited,Altium Designer,22.7.1 (60)*
G04*
G04 Layer_Physical_Order=1*
G04 Layer_Color=255*
%FSLAX44Y44*%
%MOMM*%
G71*
G04*
G04 #@! TF.SameCoordinates,2F50B947-C67E-4D0A-9455-C6AB2E86B346*
G04*
G04*
G04 #@! TF.FilePolarity,Positive*
G04*
G01*
G75*
%ADD12C,0.2000*%
%ADD14R,0.4500X0.4500*%
%ADD15R,0.9000X0.7000*%
%ADD17R,1.5000X1.4000*%
%ADD18R,0.3500X0.2500*%
%ADD19R,0.9500X0.9000*%
%ADD20R,0.2500X0.3500*%
%ADD21R,0.4000X0.6250*%
%ADD22R,0.5200X0.5600*%
%ADD23R,0.5800X0.5400*%
%ADD24R,0.8500X0.2000*%
%ADD25R,0.2000X0.8500*%
%ADD26R,4.6500X4.6500*%
%ADD27R,0.5600X0.5200*%
%ADD28R,1.5000X1.2000*%
%ADD29R,1.5000X0.3500*%
%ADD50R,1.5700X1.5700*%
%ADD51C,1.5700*%
%ADD54C,0.1101*%
%ADD55C,0.1101*%
G04:AMPARAMS|DCode=56|XSize=0.25mm|YSize=0.35mm|CornerRadius=0mm|HoleSize=0mm|Usage=FLASHONLY|Rotation=45.000|XOffset=0mm|YOffset=0mm|HoleType=Round|Shape=Rectangle|*
%AMROTATEDRECTD56*
4,1,4,0.0354,-0.2121,-0.2121,0.0354,-0.0354,0.2121,0.2121,-0.0354,0.0354,-0.2121,0.0*
%
%ADD56ROTATEDRECTD56*%

%ADD57C,0.1250*%
%ADD58C,0.1720*%
%ADD59C,0.1717*%
%ADD60C,1.6250*%
%ADD61C,2.4000*%
%ADD62C,1.5300*%
%ADD63C,1.4460*%
%ADD64C,0.4000*%
%ADD65C,1.2700*%
G36*
X246461Y225108D02*
Y198198D01*
X247015Y197822D01*
X247731Y197587D01*
X248216Y197868D01*
X248979Y198072D01*
X249769D01*
X250532Y197868D01*
X250735Y197750D01*
X251943Y198341D01*
X252005Y198416D01*
Y214985D01*
X252125Y215590D01*
X252468Y216103D01*
X259723Y223358D01*
X260236Y223701D01*
X260841Y223821D01*
X276660D01*
X276811Y224082D01*
X277369Y224641D01*
X278053Y225036D01*
X278817Y225240D01*
X279606D01*
X280369Y225036D01*
X281053Y224641D01*
X281612Y224082D01*
X282007Y223398D01*
X282055Y223219D01*
X282421Y223146D01*
X282818Y222881D01*
X301301D01*
X301316Y222878D01*
X302471Y222764D01*
X303597Y222423D01*
X304634Y221868D01*
X305543Y221122D01*
X306290Y220213D01*
X306511Y219798D01*
X307782Y220116D01*
Y225682D01*
X307785Y225697D01*
X307898Y226853D01*
X308240Y227978D01*
X308794Y229016D01*
X309540Y229925D01*
X310450Y230671D01*
X310783Y230849D01*
X310465Y232119D01*
X260455D01*
X260110Y231479D01*
X260004Y230849D01*
X260411Y230442D01*
X260805Y229758D01*
X261010Y228995D01*
Y228205D01*
X260805Y227442D01*
X260411Y226758D01*
X259852Y226199D01*
X259168Y225805D01*
X258405Y225600D01*
X257615D01*
X256852Y225805D01*
X256168Y226199D01*
X255609Y226758D01*
X255215Y227442D01*
X255010Y228205D01*
Y228995D01*
X255215Y229758D01*
X255609Y230442D01*
X256017Y230849D01*
X255910Y231479D01*
X255565Y232119D01*
X253472D01*
X246461Y225108D01*
D02*
G37*
G36*
X-44381Y256531D02*
Y165879D01*
X-41958Y165397D01*
X-41773Y165320D01*
X-41576Y165281D01*
X-39040Y164231D01*
X-38873Y164119D01*
X-38688Y164042D01*
X-36406Y162518D01*
X-36264Y162376D01*
X-36096Y162264D01*
X-34156Y160323D01*
X-34044Y160156D01*
X-33902Y160014D01*
X-32378Y157732D01*
X-32301Y157547D01*
X-32189Y157380D01*
X-31139Y154844D01*
X-31100Y154647D01*
X-31023Y154462D01*
X-30487Y151770D01*
Y151619D01*
X-30451Y151472D01*
X-30383Y150100D01*
X-30398Y150000D01*
X-30383Y149900D01*
X-30451Y148528D01*
X-30487Y148381D01*
Y148230D01*
X-31023Y145538D01*
X-31100Y145353D01*
X-31139Y145156D01*
X-32189Y142620D01*
X-32301Y142453D01*
X-32377Y142268D01*
X-33902Y139986D01*
X-34044Y139844D01*
X-34156Y139677D01*
X-36096Y137736D01*
X-36263Y137624D01*
X-36405Y137482D01*
X-38687Y135957D01*
X-38873Y135881D01*
X-39040Y135769D01*
X-41575Y134719D01*
X-41772Y134680D01*
X-41958Y134603D01*
X-44381Y134121D01*
Y43345D01*
X-43075Y42039D01*
X330235D01*
X331541Y43345D01*
Y45750D01*
X331561Y45849D01*
X331551Y45950D01*
X331647Y46925D01*
X331734Y47212D01*
X331792Y47506D01*
X332539Y49308D01*
X332981Y49970D01*
X334360Y51349D01*
X335022Y51791D01*
X336824Y52538D01*
X337118Y52596D01*
X337405Y52683D01*
X338380Y52779D01*
X338481Y52769D01*
X338580Y52789D01*
X349944D01*
X351040Y53210D01*
Y56230D01*
X361080D01*
Y58770D01*
X351040D01*
Y60919D01*
X350960D01*
X350355Y61040D01*
X349842Y61382D01*
X342999Y68225D01*
X323060Y88164D01*
X323060Y88164D01*
X315312Y95912D01*
X314970Y96425D01*
X314849Y97030D01*
Y97815D01*
X313950Y98710D01*
X310080D01*
Y104050D01*
X307540D01*
Y98710D01*
X303670D01*
X303086Y97682D01*
Y92733D01*
X327288Y68532D01*
X328001D01*
X328764Y68327D01*
X329448Y67933D01*
X330007Y67374D01*
X330401Y66690D01*
X330606Y65927D01*
Y65137D01*
X330401Y64374D01*
X330007Y63690D01*
X329448Y63131D01*
X328764Y62737D01*
X328001Y62532D01*
X327211D01*
X326448Y62737D01*
X325764Y63131D01*
X325205Y63690D01*
X324810Y64374D01*
X324606Y65137D01*
Y65850D01*
X299849Y90607D01*
X299438Y91222D01*
X299294Y91948D01*
Y110014D01*
X298500D01*
X297774Y110158D01*
X297159Y110569D01*
X288974Y118754D01*
X287580D01*
Y115250D01*
X285120D01*
Y113710D01*
X282850D01*
Y120500D01*
X280310D01*
Y113205D01*
X279993Y112440D01*
X287696Y104737D01*
X291320D01*
Y105830D01*
X295820D01*
Y101870D01*
X297360D01*
Y98850D01*
X289780D01*
Y101423D01*
X287010D01*
X286376Y101549D01*
X285839Y101908D01*
X276783Y110963D01*
X276746Y111019D01*
X275476Y110633D01*
Y107753D01*
X276089Y107140D01*
X276185D01*
X276948Y106936D01*
X277632Y106541D01*
X278191Y105982D01*
X278585Y105298D01*
X278790Y104535D01*
Y103745D01*
X278585Y102982D01*
X278191Y102298D01*
X277632Y101739D01*
X276948Y101344D01*
X276185Y101140D01*
X275395D01*
X274632Y101344D01*
X273948Y101739D01*
X273389Y102298D01*
X272994Y102982D01*
X272790Y103745D01*
Y104064D01*
X271520Y104517D01*
X271282Y104279D01*
X270598Y103884D01*
X269835Y103680D01*
X269045D01*
X268507Y103824D01*
X267784Y103473D01*
X267237Y103021D01*
Y80010D01*
Y64770D01*
X267111Y64136D01*
X266751Y63598D01*
X266214Y63239D01*
X265580Y63113D01*
X264540D01*
Y61070D01*
X258280D01*
Y59530D01*
X254110D01*
Y64770D01*
Y70010D01*
X258280D01*
Y68470D01*
X263923D01*
Y78353D01*
X261770D01*
Y72630D01*
X244770D01*
Y85820D01*
X244770Y86630D01*
X243690Y87090D01*
X243230Y87090D01*
X242310Y86245D01*
Y80900D01*
X232270D01*
Y78360D01*
X242310D01*
Y71090D01*
X238599D01*
X238140Y70010D01*
X238140Y69820D01*
Y66040D01*
X232700D01*
Y64770D01*
X231430D01*
Y59530D01*
X227260D01*
Y61070D01*
X221000D01*
Y63113D01*
X218640D01*
X218006Y63239D01*
X217468Y63598D01*
X217109Y64136D01*
X216983Y64770D01*
Y95630D01*
X217109Y96264D01*
X217468Y96802D01*
X218006Y97161D01*
X218640Y97287D01*
X223770D01*
Y102630D01*
X230613D01*
Y109220D01*
X230739Y109854D01*
X231098Y110392D01*
X231636Y110751D01*
X232270Y110877D01*
X260163D01*
Y115250D01*
X256850D01*
X255580Y115250D01*
Y115250D01*
X255580D01*
Y115250D01*
X249120D01*
Y113710D01*
X246850D01*
Y120500D01*
X244310D01*
Y113710D01*
X242040D01*
Y115250D01*
X239580D01*
Y124210D01*
X237790D01*
Y126000D01*
X228830D01*
Y127119D01*
X210422D01*
X209817Y127239D01*
X209304Y127582D01*
X207255Y129631D01*
X205969D01*
X203920Y127582D01*
X203407Y127239D01*
X202802Y127119D01*
X199476D01*
X199448Y126978D01*
X199105Y126465D01*
X195786Y123146D01*
X195273Y122803D01*
X194668Y122683D01*
X194206D01*
X176667Y105144D01*
X176667Y105144D01*
X175739Y104216D01*
X175739Y104216D01*
X174893Y103371D01*
X174381Y103028D01*
X173776Y102907D01*
X127451D01*
X126873Y101512D01*
X125973Y100164D01*
X124826Y99017D01*
X123478Y98117D01*
X121981Y97496D01*
X120391Y97180D01*
X118769D01*
X117179Y97496D01*
X115682Y98117D01*
X114334Y99017D01*
X113187Y100164D01*
X112287Y101512D01*
X111666Y103009D01*
X111350Y104599D01*
Y105708D01*
X110090Y106244D01*
X103344Y99498D01*
X120235Y82606D01*
X170126D01*
X170731Y82486D01*
X171244Y82143D01*
X178640Y74747D01*
X178983Y74235D01*
X179103Y73630D01*
Y57119D01*
X180373Y56995D01*
X180412Y57192D01*
X181079Y58802D01*
X182048Y60251D01*
X183281Y61484D01*
X184730Y62453D01*
X186341Y63120D01*
X188050Y63460D01*
X189794D01*
X191504Y63120D01*
X193114Y62453D01*
X194564Y61484D01*
X195796Y60251D01*
X196765Y58802D01*
X197432Y57192D01*
X197772Y55482D01*
Y53738D01*
X197432Y52028D01*
X196765Y50418D01*
X195796Y48969D01*
X194564Y47736D01*
X193114Y46767D01*
X191504Y46100D01*
X189794Y45760D01*
X188050D01*
X186341Y46100D01*
X184730Y46767D01*
X183281Y47736D01*
X182048Y48969D01*
X181079Y50418D01*
X180412Y52028D01*
X180213Y53029D01*
X178167D01*
X177562Y53150D01*
X177109Y53452D01*
X176222Y54020D01*
X175395Y53492D01*
X174882Y53150D01*
X174277Y53029D01*
X172231D01*
X172032Y52028D01*
X171365Y50418D01*
X170396Y48969D01*
X169163Y47736D01*
X167714Y46767D01*
X166103Y46100D01*
X164394Y45760D01*
X162650D01*
X160940Y46100D01*
X159330Y46767D01*
X157880Y47736D01*
X156648Y48969D01*
X155679Y50418D01*
X155012Y52028D01*
X154672Y53738D01*
Y55482D01*
X155012Y57192D01*
X155679Y58802D01*
X156648Y60251D01*
X157880Y61484D01*
X159330Y62453D01*
X160940Y63120D01*
X162650Y63460D01*
X164394D01*
X166103Y63120D01*
X167714Y62453D01*
X169163Y61484D01*
X170396Y60251D01*
X171365Y58802D01*
X172032Y57192D01*
X172071Y56995D01*
X173341Y57119D01*
Y71898D01*
X168394Y76845D01*
X119411D01*
X118885Y75574D01*
X132777Y61682D01*
X133930Y62453D01*
X135541Y63120D01*
X137250Y63460D01*
X138994D01*
X140703Y63120D01*
X142314Y62453D01*
X143764Y61484D01*
X144996Y60251D01*
X145965Y58802D01*
X146632Y57192D01*
X146972Y55482D01*
Y53738D01*
X146632Y52028D01*
X145965Y50418D01*
X144996Y48969D01*
X143764Y47736D01*
X142314Y46767D01*
X140703Y46100D01*
X138994Y45760D01*
X137250D01*
X135541Y46100D01*
X133930Y46767D01*
X132480Y47736D01*
X131248Y48969D01*
X130279Y50418D01*
X129612Y52028D01*
X129272Y53738D01*
Y55482D01*
X129612Y57192D01*
X130279Y58802D01*
X130643Y59346D01*
X119225Y70764D01*
X118052Y70278D01*
Y63460D01*
X121572D01*
Y45760D01*
X103872D01*
Y63460D01*
X114890D01*
Y71420D01*
X92748Y93563D01*
X92405Y94076D01*
X92285Y94681D01*
Y101031D01*
Y109123D01*
X92283D01*
X92214Y109292D01*
X92045Y109361D01*
Y109363D01*
X92045D01*
X92030Y109366D01*
X90874Y109480D01*
X89749Y109821D01*
X88712Y110375D01*
X87802Y111122D01*
X87056Y112031D01*
X86502Y113068D01*
X86160Y114194D01*
X86045Y115364D01*
X86160Y116535D01*
X86502Y117660D01*
X87056Y118698D01*
X87802Y119607D01*
X88712Y120353D01*
X89749Y120907D01*
X90874Y121249D01*
X92030Y121363D01*
X92045Y121366D01*
X95050D01*
X95368Y122636D01*
X94953Y122858D01*
X94044Y123604D01*
X93298Y124513D01*
X92743Y125550D01*
X92402Y126676D01*
X92288Y127831D01*
X92285Y127846D01*
Y142358D01*
X92405Y142963D01*
X92748Y143476D01*
X94916Y145644D01*
X95429Y145986D01*
X96033Y146107D01*
X129383D01*
X129988Y145986D01*
X130501Y145644D01*
X131538Y144606D01*
X136807D01*
X137066Y145911D01*
X137687Y147408D01*
X138587Y148756D01*
X139680Y149849D01*
X139666Y150078D01*
X139268Y151119D01*
X137447D01*
X136842Y151239D01*
X136329Y151582D01*
X132797Y155114D01*
X127753D01*
X127494Y153809D01*
X126873Y152312D01*
X125973Y150964D01*
X124826Y149817D01*
X123478Y148917D01*
X121981Y148296D01*
X120391Y147980D01*
X118769D01*
X117179Y148296D01*
X115682Y148917D01*
X114334Y149817D01*
X113187Y150964D01*
X112287Y152312D01*
X111666Y153809D01*
X111350Y155399D01*
Y157021D01*
X111666Y158611D01*
X112287Y160108D01*
X113187Y161456D01*
X114334Y162603D01*
X115682Y163503D01*
X117179Y164124D01*
X118769Y164440D01*
X120391D01*
X121981Y164124D01*
X123478Y163503D01*
X124173Y163039D01*
X126630Y165496D01*
Y165895D01*
X126160Y166821D01*
X99396D01*
X98791Y166942D01*
X98278Y167284D01*
X96110Y169452D01*
X95768Y169965D01*
X95647Y170570D01*
Y194235D01*
X95768Y194839D01*
X96110Y195352D01*
X98278Y197520D01*
X98791Y197863D01*
X99396Y197983D01*
X113218D01*
X113603Y199253D01*
X113352Y199421D01*
X111991Y200782D01*
X110922Y202382D01*
X110185Y204160D01*
X109871Y205740D01*
X119580D01*
Y207010D01*
X120850D01*
Y216719D01*
X122430Y216404D01*
X124208Y215668D01*
X125808Y214599D01*
X127169Y213238D01*
X128238Y211638D01*
X128701Y210520D01*
X129126Y210415D01*
X130092Y210480D01*
X130146Y210562D01*
X148786Y229202D01*
X148787Y229202D01*
X151751Y232166D01*
Y235280D01*
X150782Y236006D01*
X133082D01*
Y253706D01*
X150782D01*
Y246437D01*
X152687D01*
X153292Y246316D01*
X153805Y245974D01*
X154632Y245446D01*
X155519Y246014D01*
X155972Y246316D01*
X156577Y246437D01*
X158623D01*
X158822Y247437D01*
X159489Y249048D01*
X160458Y250497D01*
X161691Y251730D01*
X163140Y252699D01*
X164750Y253366D01*
X166460Y253706D01*
X168204D01*
X169914Y253366D01*
X171524Y252699D01*
X172973Y251730D01*
X174206Y250497D01*
X175175Y249048D01*
X175842Y247437D01*
X176182Y245728D01*
Y243984D01*
X175842Y242274D01*
X175175Y240664D01*
X174206Y239214D01*
X172973Y237982D01*
X171524Y237013D01*
X169914Y236346D01*
X168204Y236006D01*
X166460D01*
X164750Y236346D01*
X163140Y237013D01*
X161691Y237982D01*
X160458Y239214D01*
X159489Y240664D01*
X158822Y242274D01*
X158783Y242472D01*
X157513Y242346D01*
Y230434D01*
X157393Y229830D01*
X157050Y229317D01*
X152861Y225128D01*
X135445Y207712D01*
Y205044D01*
X136708Y204511D01*
X141402Y209204D01*
X141915Y209547D01*
X142520Y209667D01*
X169075D01*
X169075Y209667D01*
X174104D01*
X181875Y217439D01*
X181875Y219095D01*
X178894Y222076D01*
X177996Y222974D01*
X177996Y222974D01*
X177996Y222974D01*
X177987Y222987D01*
X177251Y223885D01*
X176696Y224922D01*
X176355Y226047D01*
X176239Y227218D01*
X176355Y228388D01*
X176696Y229514D01*
X177228Y230509D01*
X177251Y230551D01*
X177996Y231462D01*
X178906Y232207D01*
X178948Y232229D01*
X179943Y232761D01*
X181069Y233102D01*
X182239Y233218D01*
X183410Y233102D01*
X184535Y232761D01*
X185573Y232207D01*
X186470Y231470D01*
X186483Y231462D01*
X193146Y224799D01*
X194269Y225472D01*
X194132Y225922D01*
X194017Y227093D01*
X194132Y228263D01*
X194474Y229389D01*
X195028Y230426D01*
X195765Y231324D01*
X195773Y231336D01*
Y231336D01*
X195773Y231336D01*
X201495Y237058D01*
X201495Y237058D01*
X202551Y238114D01*
Y242346D01*
X201281Y242472D01*
X201242Y242274D01*
X200575Y240664D01*
X199606Y239214D01*
X198374Y237982D01*
X196924Y237013D01*
X195313Y236346D01*
X193604Y236006D01*
X191860D01*
X190151Y236346D01*
X188540Y237013D01*
X187090Y237982D01*
X185858Y239214D01*
X184889Y240664D01*
X184222Y242274D01*
X183882Y243984D01*
Y245728D01*
X184222Y247437D01*
X184889Y249048D01*
X185858Y250497D01*
X187090Y251730D01*
X188540Y252699D01*
X190151Y253366D01*
X191860Y253706D01*
X193604D01*
X195313Y253366D01*
X196924Y252699D01*
X198374Y251730D01*
X199606Y250497D01*
X200575Y249048D01*
X201242Y247437D01*
X201441Y246437D01*
X203487D01*
X204092Y246316D01*
X204605Y245974D01*
X205432Y245446D01*
X206319Y246014D01*
X206772Y246316D01*
X207377Y246437D01*
X209423D01*
X209622Y247437D01*
X210289Y249048D01*
X211258Y250497D01*
X212491Y251730D01*
X213940Y252699D01*
X215550Y253366D01*
X217260Y253706D01*
X219004D01*
X220714Y253366D01*
X222324Y252699D01*
X223773Y251730D01*
X225006Y250497D01*
X225975Y249048D01*
X226642Y247437D01*
X226982Y245728D01*
Y243984D01*
X226642Y242274D01*
X225975Y240664D01*
X225006Y239214D01*
X223773Y237982D01*
X222324Y237013D01*
X220714Y236346D01*
X219004Y236006D01*
X217260D01*
X215550Y236346D01*
X213940Y237013D01*
X212491Y237982D01*
X211258Y239214D01*
X210289Y240664D01*
X209622Y242274D01*
X209583Y242472D01*
X208313Y242346D01*
Y236383D01*
X208193Y235778D01*
X207850Y235265D01*
X205569Y232984D01*
X205569Y232984D01*
X200506Y227921D01*
X199848Y226925D01*
X199848Y226924D01*
X199847Y226923D01*
X199847Y226923D01*
X203521Y223250D01*
X203529Y223237D01*
X204266Y222340D01*
X204820Y221302D01*
X205162Y220177D01*
X205277Y219006D01*
X205162Y217836D01*
X204820Y216710D01*
X204297Y215732D01*
X204266Y215673D01*
X203531Y214775D01*
X203526Y214768D01*
X203522Y214765D01*
X203521Y214764D01*
X203521Y214763D01*
X203521Y214763D01*
X203521Y214763D01*
X203520Y214762D01*
X203520Y214762D01*
X203520Y214762D01*
X203519Y214761D01*
X203515Y214758D01*
X203508Y214753D01*
X202610Y214018D01*
X202553Y213987D01*
X201573Y213463D01*
X200448Y213122D01*
X199277Y213006D01*
X198106Y213122D01*
X196981Y213463D01*
X195985Y213995D01*
X195944Y214018D01*
X195033Y214763D01*
X194137Y215660D01*
X189235Y220561D01*
X188112Y219888D01*
X188249Y219437D01*
X188364Y218267D01*
X188249Y217096D01*
X187908Y215971D01*
X187353Y214933D01*
X186609Y214027D01*
X186604Y214019D01*
X176953Y204368D01*
X176441Y204026D01*
X175836Y203905D01*
X175836Y203905D01*
X169075D01*
X169075Y203905D01*
X145482D01*
X145419Y203810D01*
X145599Y203195D01*
X146065Y202485D01*
X147381Y202224D01*
X148878Y201603D01*
X150226Y200703D01*
X151373Y199556D01*
X152273Y198208D01*
X152894Y196711D01*
X153210Y195121D01*
Y193499D01*
X152894Y191909D01*
X152273Y190412D01*
X151373Y189064D01*
X150226Y187917D01*
X148878Y187017D01*
X147381Y186396D01*
X145791Y186080D01*
X144169D01*
X142579Y186396D01*
X141082Y187017D01*
X140386Y187481D01*
X136909Y184003D01*
Y181871D01*
X179362D01*
X179967Y181751D01*
X180480Y181409D01*
X184955Y176933D01*
X185195Y176694D01*
X186850Y176694D01*
X186889Y176733D01*
X187850Y177693D01*
X187850Y177693D01*
X187850Y177693D01*
X187862Y177702D01*
X188760Y178438D01*
X189797Y178993D01*
X190923Y179334D01*
X192094Y179450D01*
X193264Y179334D01*
X194390Y178993D01*
X195427Y178438D01*
X196325Y177702D01*
X196337Y177693D01*
X196346Y177681D01*
X197082Y176783D01*
X197637Y175746D01*
X197978Y174620D01*
X198093Y173449D01*
X197978Y172279D01*
X197637Y171154D01*
X197436Y170777D01*
X197833Y170183D01*
X198636Y169646D01*
X198967Y169581D01*
X227290D01*
Y170730D01*
X234080D01*
Y172000D01*
X235350D01*
Y175540D01*
X237790D01*
Y175790D01*
X239580D01*
Y184750D01*
X240699D01*
Y226840D01*
X240819Y227445D01*
X241162Y227957D01*
X250623Y237418D01*
X251135Y237761D01*
X251740Y237881D01*
X252409D01*
Y242860D01*
X251240D01*
Y247360D01*
X255200D01*
Y248900D01*
X258220D01*
Y245110D01*
Y241320D01*
X255571D01*
Y237881D01*
X314520D01*
X314687Y239151D01*
X314256Y239266D01*
X313572Y239661D01*
X313013Y240220D01*
X312619Y240904D01*
X312414Y241667D01*
Y242457D01*
X312619Y243220D01*
X313013Y243904D01*
X313572Y244463D01*
X314256Y244858D01*
X315019Y245062D01*
X315809D01*
X316572Y244858D01*
X317256Y244463D01*
X317815Y243904D01*
X318209Y243220D01*
X318414Y242457D01*
Y241667D01*
X318209Y240904D01*
X317815Y240220D01*
X317256Y239661D01*
X316572Y239266D01*
X316141Y239151D01*
X316308Y237881D01*
X349906D01*
X351040Y238210D01*
Y241230D01*
X361080D01*
Y243770D01*
X351040D01*
Y246790D01*
X349944Y247211D01*
X338580D01*
X338481Y247230D01*
X338380Y247221D01*
X337405Y247317D01*
X337118Y247404D01*
X336824Y247462D01*
X335022Y248209D01*
X335022Y248209D01*
X334360Y248651D01*
X334360Y248651D01*
X332981Y250030D01*
X332981Y250030D01*
X332539Y250692D01*
X331792Y252494D01*
X331734Y252788D01*
X331647Y253075D01*
X331551Y254050D01*
X331561Y254150D01*
X331541Y254250D01*
Y256337D01*
X330178Y257836D01*
X77674D01*
X77089Y256687D01*
X77127Y256566D01*
X77734Y256216D01*
X78293Y255657D01*
X78688Y254973D01*
X78892Y254210D01*
Y253420D01*
X78688Y252657D01*
X78293Y251973D01*
X77734Y251414D01*
X77050Y251019D01*
X76287Y250815D01*
X75497D01*
X74734Y251019D01*
X74050Y251414D01*
X73546Y251919D01*
X69406D01*
Y240030D01*
X69262Y239304D01*
X68851Y238689D01*
X68236Y238278D01*
X67510Y238134D01*
X-7904D01*
X-10858Y235180D01*
Y218440D01*
X-11002Y217714D01*
X-11413Y217099D01*
X-14595Y213917D01*
X-15210Y213506D01*
X-15936Y213361D01*
X-23260D01*
Y209758D01*
X-34760D01*
Y220758D01*
X-23260D01*
Y217154D01*
X-16722D01*
X-14650Y219226D01*
Y235966D01*
X-14506Y236692D01*
X-14095Y237307D01*
X-10031Y241371D01*
X-9416Y241782D01*
X-8690Y241926D01*
X13235D01*
X14086Y243142D01*
X13905Y243549D01*
X13707Y243707D01*
X-27353D01*
Y235758D01*
X-23260D01*
Y224758D01*
X-34760D01*
Y235758D01*
X-30667D01*
Y245364D01*
X-30541Y245998D01*
X-30182Y246535D01*
X-29644Y246895D01*
X-29010Y247021D01*
X-452D01*
X542Y247686D01*
X542Y248291D01*
Y252186D01*
X1396D01*
Y253746D01*
X1540Y254472D01*
X1951Y255087D01*
X2566Y255498D01*
X3292Y255642D01*
X17923D01*
X18270Y255711D01*
X73546D01*
X74050Y256216D01*
X74657Y256566D01*
X74695Y256687D01*
X74110Y257836D01*
X-43075D01*
X-44381Y256531D01*
D02*
G37*
G36*
X316783Y230849D02*
X317116Y230671D01*
X318026Y229925D01*
X318772Y229016D01*
X319326Y227978D01*
X319668Y226853D01*
X319781Y225697D01*
X319784Y225682D01*
Y223121D01*
X319786D01*
X319856Y222952D01*
X320024Y222882D01*
Y222881D01*
X323420D01*
X323760Y224151D01*
X323732Y224167D01*
X323173Y224726D01*
X322779Y225410D01*
X322574Y226173D01*
Y226963D01*
X322779Y227726D01*
X323173Y228410D01*
X323732Y228969D01*
X324416Y229363D01*
X325179Y229568D01*
X325969D01*
X326732Y229363D01*
X327416Y228969D01*
X327975Y228410D01*
X328369Y227726D01*
X328574Y226963D01*
Y226173D01*
X328369Y225410D01*
X327975Y224726D01*
X327416Y224167D01*
X327388Y224151D01*
X327728Y222881D01*
X349906D01*
X351040Y223210D01*
Y226230D01*
X361080D01*
Y228770D01*
X351040D01*
Y231790D01*
X349906Y232119D01*
X317101D01*
X316783Y230849D01*
D02*
G37*
G36*
X283480Y202548D02*
X283473Y202543D01*
X282566Y201799D01*
X281529Y201244D01*
X280403Y200903D01*
X279233Y200787D01*
X278062Y200903D01*
X276937Y201244D01*
X275899Y201799D01*
X275669Y201987D01*
X274566Y201250D01*
X274737Y200686D01*
X274852Y199515D01*
X274737Y198345D01*
X274395Y197219D01*
X273958Y196401D01*
X274215Y195678D01*
X274621Y195131D01*
X324915D01*
X325289Y195758D01*
X325436Y196401D01*
X324792Y197185D01*
X324211Y198272D01*
X323854Y199450D01*
X323733Y200675D01*
X323733Y200676D01*
Y200676D01*
X323731D01*
X323661Y200845D01*
X323493Y200914D01*
Y200916D01*
X312918D01*
X312901Y200919D01*
X310550D01*
X310443Y200812D01*
X309930Y200470D01*
X309326Y200349D01*
X293405D01*
X292800Y200470D01*
X292311Y200796D01*
X292188Y200725D01*
X291425Y200520D01*
X290635D01*
X289872Y200725D01*
X289188Y201120D01*
X288629Y201678D01*
X288235Y202362D01*
X288061Y203008D01*
X284048D01*
X284048Y203008D01*
X283941D01*
X283480Y202548D01*
D02*
G37*
G36*
X313543Y219884D02*
Y216597D01*
X313540Y216581D01*
X313427Y215426D01*
X313085Y214300D01*
X312531Y213263D01*
X311784Y212354D01*
X310875Y211608D01*
X309838Y211053D01*
X308712Y210712D01*
X307542Y210597D01*
X306371Y210712D01*
X305246Y211053D01*
X304209Y211608D01*
X303299Y212354D01*
X302553Y213263D01*
X301999Y214300D01*
X301657Y215426D01*
X301543Y216581D01*
X301540Y216597D01*
Y216880D01*
X301539D01*
X301469Y217048D01*
X301301Y217118D01*
Y217119D01*
X288887D01*
X288745Y216592D01*
X288351Y215908D01*
X287792Y215349D01*
X287108Y214954D01*
X286345Y214750D01*
X285555D01*
X284792Y214954D01*
X284108Y215349D01*
X283549Y215908D01*
X283155Y216592D01*
X283083Y216859D01*
X261373D01*
X259161Y214647D01*
Y191125D01*
X260431Y190739D01*
X260462Y190787D01*
X262776Y193100D01*
X262776Y193100D01*
X268363Y198688D01*
X268363Y200343D01*
X264589Y204117D01*
X263691Y205015D01*
X263691Y205015D01*
X263691Y205015D01*
X263683Y205028D01*
X262946Y205925D01*
X262392Y206963D01*
X262050Y208088D01*
X261935Y209259D01*
X262050Y210429D01*
X262392Y211555D01*
X262924Y212550D01*
X262946Y212592D01*
X263691Y213502D01*
X264602Y214248D01*
X264644Y214270D01*
X265639Y214802D01*
X266764Y215143D01*
X267935Y215259D01*
X269105Y215143D01*
X270231Y214802D01*
X271268Y214247D01*
X272166Y213511D01*
X272179Y213502D01*
X278405Y207276D01*
X278974Y207162D01*
X280061Y207276D01*
X280711Y207926D01*
X280711Y207927D01*
X281091Y208307D01*
X281604Y208650D01*
X282209Y208770D01*
X295930D01*
X296535Y208650D01*
X297048Y208307D01*
X297066Y208290D01*
X297492Y208535D01*
X298255Y208740D01*
X299045D01*
X299808Y208535D01*
X300492Y208141D01*
X301051Y207582D01*
X301446Y206898D01*
X301506Y206674D01*
X307451D01*
X307692Y206835D01*
X308297Y206956D01*
X312901D01*
X312918Y206959D01*
X323493D01*
X323494Y206959D01*
X324719Y206838D01*
X325897Y206481D01*
X326984Y205900D01*
X327936Y205119D01*
X328717Y204167D01*
X328985Y203665D01*
X330255Y203983D01*
Y207199D01*
X330256Y207200D01*
X330376Y208425D01*
X330734Y209603D01*
X331314Y210690D01*
X332096Y211642D01*
X333048Y212423D01*
X334134Y213004D01*
X335312Y213361D01*
X336538Y213482D01*
X337764Y213361D01*
X338943Y213004D01*
X340029Y212423D01*
X340981Y211642D01*
X341762Y210690D01*
X342343Y209603D01*
X342700Y208425D01*
X342748Y207937D01*
X343415Y206963D01*
X344636D01*
X345373Y207699D01*
X345886Y208042D01*
X346491Y208162D01*
X349790D01*
X351040Y208210D01*
Y211230D01*
X361080D01*
Y213770D01*
X351040D01*
Y216790D01*
X349906Y217119D01*
X320024D01*
X320009Y217122D01*
X318853Y217236D01*
X317728Y217577D01*
X316691Y218132D01*
X315781Y218878D01*
X315035Y219787D01*
X314813Y220202D01*
X313543Y219884D01*
D02*
G37*
G36*
X298094Y183525D02*
X287580D01*
Y175790D01*
X289370D01*
Y174000D01*
X298330D01*
Y172881D01*
X301199D01*
X301199Y172881D01*
X315744D01*
Y172882D01*
X315912Y172952D01*
X315982Y173120D01*
X315984D01*
Y173121D01*
X315986Y173136D01*
X316100Y174291D01*
X316442Y175417D01*
X316996Y176454D01*
X317742Y177363D01*
X318652Y178109D01*
X319689Y178664D01*
X320814Y179005D01*
X321970Y179119D01*
X321985Y179122D01*
X322000Y179119D01*
X323156Y179005D01*
X324281Y178664D01*
X325318Y178109D01*
X326228Y177363D01*
X326974Y176454D01*
X327528Y175417D01*
X327546Y175358D01*
X328873D01*
X328924Y175525D01*
X329478Y176562D01*
X330224Y177471D01*
X331134Y178217D01*
X332171Y178772D01*
X333297Y179113D01*
X334452Y179227D01*
X334467Y179230D01*
X334482Y179227D01*
X335598Y179117D01*
X335677Y179186D01*
X336259Y180252D01*
X333685Y182826D01*
X333685Y182826D01*
X332986Y183525D01*
X314229D01*
Y183523D01*
X314060Y183454D01*
X313991Y183285D01*
X313989D01*
Y182748D01*
X313986Y182733D01*
X313872Y181577D01*
X313531Y180452D01*
X312976Y179414D01*
X312230Y178505D01*
X311321Y177759D01*
X310284Y177205D01*
X309158Y176863D01*
X308003Y176749D01*
X307988Y176746D01*
X307973Y176749D01*
X306817Y176863D01*
X305692Y177205D01*
X304654Y177759D01*
X303745Y178505D01*
X302999Y179414D01*
X302444Y180452D01*
X302103Y181577D01*
X301989Y182733D01*
X301986Y182748D01*
Y183285D01*
X301985D01*
X301915Y183454D01*
X301747Y183523D01*
Y183525D01*
X298094D01*
X298094Y183525D01*
D02*
G37*
G36*
X124257Y192684D02*
X123744Y192342D01*
X123139Y192221D01*
X101409D01*
Y172583D01*
X116548D01*
X116800Y173853D01*
X115682Y174317D01*
X114334Y175217D01*
X113187Y176364D01*
X112287Y177712D01*
X111666Y179209D01*
X111350Y180799D01*
Y182421D01*
X111666Y184011D01*
X112287Y185508D01*
X113187Y186856D01*
X114334Y188003D01*
X115682Y188903D01*
X117179Y189524D01*
X118769Y189840D01*
X120391D01*
X121981Y189524D01*
X123478Y188903D01*
X124173Y188439D01*
X127879Y192144D01*
Y194510D01*
X126616Y195044D01*
X124257Y192684D01*
D02*
G37*
G36*
X150689Y174840D02*
X151373Y174156D01*
X152273Y172808D01*
X152894Y171311D01*
X153210Y169721D01*
Y168099D01*
X152894Y166509D01*
X152273Y165012D01*
X151373Y163664D01*
X150226Y162517D01*
X148878Y161617D01*
X147381Y160996D01*
X145791Y160680D01*
X144169D01*
X142579Y160996D01*
X141082Y161617D01*
X139734Y162517D01*
X138890Y163361D01*
X138561Y163433D01*
X137417Y162645D01*
Y158643D01*
X139178Y156881D01*
X180773D01*
Y156882D01*
X180941Y156952D01*
X181011Y157121D01*
X181013D01*
Y159156D01*
X181016Y159171D01*
X181129Y160326D01*
X181471Y161452D01*
X182025Y162489D01*
X182771Y163398D01*
X183681Y164145D01*
X184718Y164699D01*
X185844Y165040D01*
X187014Y165156D01*
X188185Y165040D01*
X189310Y164699D01*
X190347Y164145D01*
X191257Y163398D01*
X192003Y162489D01*
X192557Y161452D01*
X192899Y160326D01*
X193013Y159171D01*
X193016Y159156D01*
Y157121D01*
X193017D01*
X193087Y156952D01*
X193255Y156882D01*
Y156881D01*
X199230D01*
X199757Y158151D01*
X199729Y158178D01*
X199335Y158862D01*
X199130Y159625D01*
Y160415D01*
X199335Y161178D01*
X199729Y161862D01*
X200288Y162421D01*
X200510Y162549D01*
X200170Y163819D01*
X199265D01*
X198583Y163819D01*
X198582Y163819D01*
X198042Y163867D01*
X197979Y163873D01*
X196438Y164340D01*
X195017Y165100D01*
X193772Y166122D01*
X192750Y167367D01*
X191991Y168788D01*
X191726Y169661D01*
X191523Y170329D01*
X191469Y170876D01*
X191430Y171077D01*
X191439Y171125D01*
X191425Y171243D01*
X191437Y171336D01*
X190357Y171922D01*
X190235Y171938D01*
X189356Y171216D01*
X188319Y170661D01*
X187193Y170320D01*
X186022Y170205D01*
X184852Y170320D01*
X183726Y170661D01*
X182689Y171216D01*
X181791Y171952D01*
X181779Y171961D01*
X177630Y176110D01*
X151215D01*
X150689Y174840D01*
D02*
G37*
G36*
X320733Y169787D02*
X319986Y168878D01*
X319077Y168132D01*
X318040Y167577D01*
X316915Y167236D01*
X315759Y167122D01*
X315744Y167119D01*
X301199D01*
X301199Y167119D01*
X298330D01*
Y165581D01*
X304601D01*
X305206Y165460D01*
X305718Y165118D01*
X307955Y162881D01*
X318881D01*
X318885Y162884D01*
X318885Y162888D01*
X320468Y162732D01*
X322009Y162265D01*
X323430Y161505D01*
X324675Y160483D01*
X325697Y159238D01*
X326456Y157817D01*
X326783Y156742D01*
X326792Y156729D01*
X326866Y156468D01*
X326866Y156467D01*
X327200Y155984D01*
X328718Y155747D01*
X329972Y157002D01*
X331295Y158324D01*
X331755Y158632D01*
X331824Y158688D01*
X332861Y159243D01*
X333987Y159584D01*
X335158Y159699D01*
X336328Y159584D01*
X337454Y159243D01*
X338228Y158829D01*
X338993Y159860D01*
X338007Y160846D01*
X337105Y161735D01*
X337104Y161735D01*
X336082Y162980D01*
X335323Y164401D01*
X334970Y165565D01*
X334478Y165723D01*
X333752Y165738D01*
X333645Y165718D01*
X333215Y164914D01*
X332469Y164005D01*
X331559Y163259D01*
X330522Y162704D01*
X329397Y162363D01*
X328241Y162249D01*
X328226Y162246D01*
X328211Y162249D01*
X327056Y162363D01*
X325930Y162704D01*
X324893Y163259D01*
X323983Y164005D01*
X323237Y164914D01*
X322683Y165951D01*
X322341Y167077D01*
X322228Y168232D01*
X322225Y168247D01*
Y169884D01*
X320955Y170202D01*
X320733Y169787D01*
D02*
G37*
G36*
X330512Y149393D02*
X330499Y149384D01*
X329602Y148648D01*
X328564Y148093D01*
X327439Y147752D01*
X326268Y147637D01*
X325098Y147752D01*
X323972Y148093D01*
X323119Y148549D01*
X322393Y148367D01*
X321742Y148030D01*
X321721Y148001D01*
X321327Y147413D01*
X320677Y146763D01*
X321910Y145530D01*
X318728Y142348D01*
X319582Y141432D01*
X329562Y131452D01*
X329921Y130914D01*
X330047Y130280D01*
Y114157D01*
X351906D01*
X352007Y114650D01*
X350942Y115711D01*
X344580D01*
X344481Y115731D01*
X344380Y115721D01*
X343210Y115836D01*
X342923Y115923D01*
X342629Y115981D01*
X340466Y116877D01*
X339805Y117319D01*
X338149Y118975D01*
X337707Y119636D01*
X336811Y121799D01*
X336753Y122093D01*
X336666Y122380D01*
X336551Y123550D01*
X336570Y123750D01*
X336551Y123950D01*
X336666Y125120D01*
X336753Y125407D01*
X336811Y125701D01*
X337707Y127864D01*
X338149Y128525D01*
X339805Y130181D01*
X339805Y130181D01*
X340466Y130623D01*
X342629Y131519D01*
X342923Y131577D01*
X343210Y131664D01*
X344380Y131779D01*
X344481Y131770D01*
X344580Y131789D01*
X351033D01*
X351040Y133210D01*
Y136230D01*
X361080D01*
Y138770D01*
X351040D01*
Y141790D01*
X349906Y142119D01*
X341640D01*
X341253Y141529D01*
X341035Y140849D01*
X341324Y140350D01*
X341528Y139587D01*
Y138797D01*
X341324Y138034D01*
X340929Y137350D01*
X340370Y136791D01*
X339686Y136397D01*
X338923Y136192D01*
X338133D01*
X337370Y136397D01*
X336686Y136791D01*
X336127Y137350D01*
X335732Y138034D01*
X335528Y138797D01*
Y139587D01*
X335732Y140350D01*
X336127Y141034D01*
X336686Y141593D01*
X336767Y141639D01*
X337007Y143072D01*
X336976Y143164D01*
X336103Y144037D01*
X336094Y144046D01*
X335212Y144928D01*
X335212D01*
X335212Y144928D01*
X335212Y144928D01*
X335204Y144941D01*
X334467Y145838D01*
X333913Y146875D01*
X333571Y148001D01*
X333456Y149171D01*
X333571Y150342D01*
X333708Y150792D01*
X332585Y151466D01*
X330512Y149393D01*
D02*
G37*
G36*
X186316Y154824D02*
X185762Y153787D01*
X185016Y152878D01*
X184106Y152132D01*
X183069Y151577D01*
X181944Y151236D01*
X180788Y151122D01*
X180773Y151119D01*
X150692D01*
X150294Y150078D01*
X150280Y149849D01*
X151373Y148756D01*
X152273Y147408D01*
X152894Y145911D01*
X153210Y144321D01*
Y142699D01*
X152894Y141109D01*
X152273Y139612D01*
X151373Y138264D01*
X150226Y137117D01*
X150029Y136986D01*
X150415Y135716D01*
X179342D01*
X188044Y144418D01*
X188556Y144761D01*
X189161Y144881D01*
X202172D01*
Y144882D01*
X202340Y144952D01*
X202410Y145121D01*
X202412D01*
Y145787D01*
X202415Y145802D01*
X202528Y146958D01*
X202870Y148083D01*
X203424Y149121D01*
X204022Y149849D01*
X203859Y150533D01*
X203496Y151119D01*
X193255D01*
X193240Y151122D01*
X192085Y151236D01*
X190959Y151577D01*
X189922Y152132D01*
X189013Y152878D01*
X188266Y153787D01*
X187712Y154824D01*
X187678Y154937D01*
X186351D01*
X186316Y154824D01*
D02*
G37*
G36*
X207715Y142824D02*
X207161Y141787D01*
X206415Y140878D01*
X205506Y140132D01*
X204468Y139577D01*
X203343Y139236D01*
X202187Y139122D01*
X202172Y139119D01*
X190893D01*
X181467Y129692D01*
X180954Y129350D01*
X180349Y129229D01*
X127657D01*
X127494Y128409D01*
X126873Y126912D01*
X125973Y125564D01*
X124826Y124417D01*
X123478Y123517D01*
X121981Y122896D01*
X120391Y122580D01*
X118769D01*
X117179Y122896D01*
X115682Y123517D01*
X114334Y124417D01*
X113187Y125564D01*
X112287Y126912D01*
X111666Y128409D01*
X111350Y129999D01*
Y131621D01*
X111666Y133211D01*
X112287Y134708D01*
X113187Y136056D01*
X114334Y137203D01*
X115682Y138103D01*
X117179Y138724D01*
X118769Y139040D01*
X120391D01*
X121981Y138724D01*
X123478Y138103D01*
X124173Y137639D01*
X125706Y139171D01*
X125220Y140345D01*
X98047D01*
Y127846D01*
X98048D01*
X98118Y127678D01*
X98286Y127608D01*
Y127607D01*
X98287D01*
X98301Y127604D01*
X99457Y127490D01*
X100583Y127149D01*
X101620Y126594D01*
X102529Y125848D01*
X103275Y124939D01*
X103830Y123902D01*
X104171Y122776D01*
X104286Y121605D01*
X104171Y120435D01*
X103830Y119309D01*
X103275Y118272D01*
X102529Y117363D01*
X101620Y116617D01*
X100583Y116062D01*
X99457Y115721D01*
X98301Y115607D01*
X98287Y115604D01*
X95281D01*
X94963Y114334D01*
X95379Y114112D01*
X96288Y113366D01*
X97034Y112457D01*
X97588Y111419D01*
X97930Y110294D01*
X98044Y109138D01*
X98047Y109123D01*
Y104009D01*
X99220Y103522D01*
X115847Y120149D01*
X116360Y120492D01*
X116965Y120612D01*
X129477D01*
X130082Y120492D01*
X130595Y120149D01*
X131538Y119206D01*
X136807D01*
X137066Y120511D01*
X137687Y122008D01*
X138587Y123356D01*
X139734Y124503D01*
X141082Y125403D01*
X142579Y126024D01*
X144169Y126340D01*
X145791D01*
X147381Y126024D01*
X148878Y125403D01*
X150226Y124503D01*
X151373Y123356D01*
X152273Y122008D01*
X152894Y120511D01*
X153210Y118921D01*
Y117299D01*
X152894Y115709D01*
X152273Y114212D01*
X151373Y112864D01*
X150226Y111717D01*
X148878Y110817D01*
X147381Y110196D01*
X146089Y109939D01*
X146214Y108669D01*
X172044D01*
X172592Y109218D01*
X172593Y109218D01*
X191356Y127982D01*
X191869Y128324D01*
X192474Y128444D01*
X192936D01*
X193806Y129315D01*
Y129777D01*
X193927Y130382D01*
X194269Y130894D01*
X195793Y132418D01*
X196305Y132761D01*
X196910Y132881D01*
X201070D01*
X203147Y134958D01*
X203660Y135301D01*
X204265Y135421D01*
X208959D01*
X209564Y135301D01*
X210077Y134958D01*
X212154Y132881D01*
X220690D01*
X221142Y133718D01*
X221260Y134151D01*
X220924Y134732D01*
X220720Y135495D01*
Y136285D01*
X220924Y137048D01*
X221319Y137732D01*
X221437Y137849D01*
X220910Y139119D01*
X214654D01*
X214639Y139122D01*
X213484Y139236D01*
X212358Y139577D01*
X211321Y140132D01*
X210412Y140878D01*
X209665Y141787D01*
X209111Y142824D01*
X209077Y142937D01*
X207750D01*
X207715Y142824D01*
D02*
G37*
G36*
X327414Y110947D02*
X326901Y110583D01*
Y105100D01*
Y92472D01*
X327134Y92239D01*
X327134Y92238D01*
X347073Y72299D01*
X349867Y69506D01*
X351040Y69992D01*
Y71230D01*
X361080D01*
Y73770D01*
X351040D01*
Y76790D01*
X352580D01*
Y89750D01*
Y99750D01*
Y110843D01*
X329122D01*
X328488Y110969D01*
X328171Y111181D01*
X327414Y110947D01*
D02*
G37*
%LPC*%
G36*
X260760Y248900D02*
X263780D01*
Y246380D01*
X260760D01*
Y248900D01*
D02*
G37*
G36*
Y243840D02*
X263780D01*
Y241320D01*
X260760D01*
Y243840D01*
D02*
G37*
G36*
X107968Y241610D02*
X113738D01*
Y236840D01*
X107968D01*
Y241610D01*
D02*
G37*
G36*
X116278D02*
X122048D01*
Y236840D01*
X116278D01*
Y241610D01*
D02*
G37*
G36*
X103258Y239359D02*
X105394Y237224D01*
X103612Y235442D01*
X101477Y237577D01*
X103258Y239359D01*
D02*
G37*
G36*
X237549Y238458D02*
X238339D01*
X239102Y238253D01*
X239786Y237859D01*
X240345Y237300D01*
X240739Y236616D01*
X240944Y235853D01*
Y235063D01*
X240739Y234300D01*
X240345Y233616D01*
X239786Y233057D01*
X239102Y232663D01*
X238339Y232458D01*
X237549D01*
X236786Y232663D01*
X236102Y233057D01*
X235543Y233616D01*
X235149Y234300D01*
X234944Y235063D01*
Y235853D01*
X235149Y236616D01*
X235543Y237300D01*
X236102Y237859D01*
X236786Y238253D01*
X237549Y238458D01*
D02*
G37*
G36*
X107968Y234300D02*
X113738D01*
Y229530D01*
X107968D01*
Y234300D01*
D02*
G37*
G36*
X116278D02*
X122048D01*
Y229530D01*
X116278D01*
Y234300D01*
D02*
G37*
G36*
X9528Y225810D02*
X11232D01*
X12903Y225478D01*
X14477Y224825D01*
X15894Y223879D01*
X17099Y222674D01*
X18046Y221257D01*
X18698Y219683D01*
X19030Y218012D01*
Y216308D01*
X18698Y214637D01*
X18046Y213063D01*
X17099Y211646D01*
X15894Y210441D01*
X14477Y209494D01*
X12903Y208842D01*
X11232Y208510D01*
X9528D01*
X7857Y208842D01*
X6283Y209494D01*
X4866Y210441D01*
X3661Y211646D01*
X2714Y213063D01*
X2062Y214637D01*
X1730Y216308D01*
Y218012D01*
X2062Y219683D01*
X2714Y221257D01*
X3661Y222674D01*
X4866Y223879D01*
X6283Y224825D01*
X7857Y225478D01*
X9528Y225810D01*
D02*
G37*
G36*
X118310Y216719D02*
Y208280D01*
X109871D01*
X110185Y209860D01*
X110922Y211638D01*
X111991Y213238D01*
X113352Y214599D01*
X114952Y215668D01*
X116730Y216404D01*
X118310Y216719D01*
D02*
G37*
G36*
X54949Y224260D02*
X57211D01*
X59453Y223965D01*
X61637Y223380D01*
X63726Y222514D01*
X65684Y221384D01*
X67478Y220007D01*
X69077Y218408D01*
X70454Y216614D01*
X71584Y214656D01*
X72450Y212567D01*
X73035Y210382D01*
X73330Y208141D01*
Y205879D01*
X73035Y203638D01*
X72450Y201453D01*
X71584Y199364D01*
X70454Y197406D01*
X69077Y195612D01*
X67478Y194013D01*
X65684Y192636D01*
X63726Y191506D01*
X61637Y190640D01*
X59453Y190055D01*
X57211Y189760D01*
X54949D01*
X52708Y190055D01*
X50523Y190640D01*
X48434Y191506D01*
X46476Y192636D01*
X44682Y194013D01*
X43083Y195612D01*
X41706Y197406D01*
X40576Y199364D01*
X39710Y201453D01*
X39125Y203638D01*
X38830Y205879D01*
Y208141D01*
X39125Y210382D01*
X39710Y212567D01*
X40576Y214656D01*
X41706Y216614D01*
X43083Y218408D01*
X44682Y220007D01*
X46476Y221384D01*
X48434Y222514D01*
X50523Y223380D01*
X52708Y223965D01*
X54949Y224260D01*
D02*
G37*
G36*
X9528Y200410D02*
X11232D01*
X12903Y200078D01*
X14477Y199426D01*
X15894Y198479D01*
X17099Y197274D01*
X18046Y195857D01*
X18698Y194283D01*
X19030Y192612D01*
Y190908D01*
X18698Y189237D01*
X18046Y187663D01*
X17099Y186246D01*
X15894Y185041D01*
X14477Y184095D01*
X12903Y183442D01*
X11232Y183110D01*
X9528D01*
X7857Y183442D01*
X6283Y184095D01*
X4866Y185041D01*
X3661Y186246D01*
X2714Y187663D01*
X2062Y189237D01*
X1730Y190908D01*
Y192612D01*
X2062Y194283D01*
X2714Y195857D01*
X3661Y197274D01*
X4866Y198479D01*
X6283Y199426D01*
X7857Y200078D01*
X9528Y200410D01*
D02*
G37*
G36*
X227290Y175540D02*
X232810D01*
Y173270D01*
X227290D01*
Y175540D01*
D02*
G37*
G36*
X215390Y112280D02*
X221890D01*
Y105780D01*
X215390D01*
Y107229D01*
X204381D01*
X203972Y106819D01*
X203288Y106425D01*
X202525Y106220D01*
X201735D01*
X200972Y106425D01*
X200288Y106819D01*
X199729Y107378D01*
X199335Y108062D01*
X199130Y108825D01*
Y109615D01*
X199335Y110378D01*
X199729Y111062D01*
X200288Y111621D01*
X200972Y112015D01*
X201735Y112220D01*
X202525D01*
X203288Y112015D01*
X203972Y111621D01*
X204531Y111062D01*
X204554Y111021D01*
X215390D01*
Y112280D01*
D02*
G37*
G36*
X9528Y116610D02*
X11232D01*
X12903Y116278D01*
X14477Y115625D01*
X15894Y114679D01*
X17099Y113474D01*
X18046Y112057D01*
X18698Y110483D01*
X19030Y108812D01*
Y107108D01*
X18698Y105437D01*
X18046Y103863D01*
X17099Y102446D01*
X15894Y101241D01*
X14477Y100295D01*
X12903Y99642D01*
X11232Y99310D01*
X9528D01*
X7857Y99642D01*
X6283Y100295D01*
X4866Y101241D01*
X3661Y102446D01*
X2714Y103863D01*
X2062Y105437D01*
X1730Y107108D01*
Y108812D01*
X2062Y110483D01*
X2714Y112057D01*
X3661Y113474D01*
X4866Y114679D01*
X6283Y115625D01*
X7857Y116278D01*
X9528Y116610D01*
D02*
G37*
G36*
X289780Y96310D02*
X292300D01*
Y93290D01*
X289780D01*
Y96310D01*
D02*
G37*
G36*
X294840D02*
X297360D01*
Y93290D01*
X294840D01*
Y96310D01*
D02*
G37*
G36*
X-38288Y99486D02*
X-29518D01*
Y91216D01*
X-38288D01*
Y99486D01*
D02*
G37*
G36*
X-26978D02*
X-18208D01*
Y91216D01*
X-26978D01*
Y99486D01*
D02*
G37*
G36*
X109508Y254070D02*
X120508D01*
Y245070D01*
X109508D01*
Y247913D01*
X104581D01*
X99643Y242975D01*
X101462Y241155D01*
X98783Y238475D01*
X99681Y237577D01*
X98783Y236679D01*
X101816Y233646D01*
X100034Y231864D01*
X100034D01*
X99025Y231077D01*
X99260Y230354D01*
X99580Y228333D01*
Y226287D01*
X99260Y224266D01*
X98628Y222320D01*
X97699Y220497D01*
X96496Y218841D01*
X95049Y217394D01*
X93393Y216191D01*
X91570Y215262D01*
X89624Y214630D01*
X87603Y214310D01*
X85557D01*
X83536Y214630D01*
X82997Y214805D01*
X81867Y213911D01*
Y85849D01*
X83044Y84930D01*
X83536Y85090D01*
X85557Y85410D01*
X87603D01*
X89624Y85090D01*
X91570Y84458D01*
X93393Y83529D01*
X95049Y82326D01*
X96496Y80879D01*
X97699Y79223D01*
X98628Y77400D01*
X99260Y75454D01*
X99580Y73433D01*
Y71387D01*
X99260Y69366D01*
X98628Y67420D01*
X97699Y65596D01*
X96496Y63941D01*
X95049Y62494D01*
X93393Y61291D01*
X91570Y60362D01*
X89624Y59730D01*
X87603Y59410D01*
X85557D01*
X83536Y59730D01*
X81590Y60362D01*
X79767Y61291D01*
X78111Y62494D01*
X76664Y63941D01*
X75461Y65596D01*
X74532Y67420D01*
X73900Y69366D01*
X73580Y71387D01*
Y73433D01*
X73900Y75454D01*
X74532Y77400D01*
X75461Y79223D01*
X76664Y80879D01*
X78111Y82326D01*
X79014Y82982D01*
X79038Y83296D01*
X78679Y83833D01*
X78553Y84467D01*
Y215153D01*
X78679Y215787D01*
X79038Y216324D01*
X79005Y216744D01*
X78111Y217394D01*
X76664Y218841D01*
X75461Y220497D01*
X74532Y222320D01*
X73900Y224266D01*
X73580Y226287D01*
Y228333D01*
X73900Y230354D01*
X74532Y232300D01*
X75461Y234123D01*
X76664Y235779D01*
X78111Y237226D01*
X79767Y238429D01*
X81590Y239358D01*
X83536Y239990D01*
X85557Y240310D01*
X87603D01*
X89624Y239990D01*
X91570Y239358D01*
X92471Y238899D01*
X93825Y240252D01*
X92256Y241820D01*
X95438Y245002D01*
X96211Y244229D01*
X102723Y250742D01*
X103261Y251101D01*
X103895Y251227D01*
X109508D01*
Y254070D01*
D02*
G37*
G36*
X215390Y120280D02*
X221890D01*
Y113780D01*
X215390D01*
Y115373D01*
X201736D01*
X177901Y91538D01*
X177364Y91179D01*
X176730Y91053D01*
X153042D01*
X152894Y90309D01*
X152273Y88812D01*
X151373Y87464D01*
X150226Y86317D01*
X148878Y85417D01*
X147381Y84796D01*
X145791Y84480D01*
X144169D01*
X142579Y84796D01*
X141082Y85417D01*
X139734Y86317D01*
X138587Y87464D01*
X137687Y88812D01*
X137066Y90309D01*
X136750Y91899D01*
Y93521D01*
X137066Y95111D01*
X137687Y96608D01*
X138587Y97956D01*
X139734Y99103D01*
X141082Y100003D01*
X142579Y100624D01*
X144169Y100940D01*
X145791D01*
X147381Y100624D01*
X148878Y100003D01*
X150226Y99103D01*
X151373Y97956D01*
X152273Y96608D01*
X152894Y95111D01*
X153042Y94367D01*
X176044D01*
X199878Y118202D01*
X200416Y118561D01*
X201050Y118687D01*
X215390D01*
Y120280D01*
D02*
G37*
G36*
X-38288Y88676D02*
X-29518D01*
Y80406D01*
X-38288D01*
Y88676D01*
D02*
G37*
G36*
X-26978D02*
X-18208D01*
Y80406D01*
X-26978D01*
Y88676D01*
D02*
G37*
G36*
X54949Y109960D02*
X57211D01*
X59453Y109665D01*
X61637Y109080D01*
X63726Y108214D01*
X65684Y107084D01*
X67478Y105707D01*
X69077Y104108D01*
X70454Y102314D01*
X71584Y100356D01*
X72450Y98267D01*
X73035Y96082D01*
X73330Y93841D01*
Y91579D01*
X73035Y89338D01*
X72450Y87153D01*
X71584Y85064D01*
X70454Y83106D01*
X69077Y81312D01*
X67478Y79713D01*
X65684Y78336D01*
X63726Y77206D01*
X61637Y76340D01*
X59453Y75755D01*
X57211Y75460D01*
X54949D01*
X52708Y75755D01*
X50523Y76340D01*
X48434Y77206D01*
X46476Y78336D01*
X44682Y79713D01*
X43083Y81312D01*
X41706Y83106D01*
X40576Y85064D01*
X39710Y87153D01*
X39125Y89338D01*
X38830Y91579D01*
Y93841D01*
X39125Y96082D01*
X39710Y98267D01*
X40576Y100356D01*
X41706Y102314D01*
X43083Y104108D01*
X44682Y105707D01*
X46476Y107084D01*
X48434Y108214D01*
X50523Y109080D01*
X52708Y109665D01*
X54949Y109960D01*
D02*
G37*
G36*
X9528Y91210D02*
X11232D01*
X12903Y90878D01*
X14477Y90225D01*
X15894Y89279D01*
X17099Y88074D01*
X18046Y86657D01*
X18698Y85083D01*
X19030Y83412D01*
Y81708D01*
X18698Y80037D01*
X18046Y78463D01*
X17099Y77046D01*
X15894Y75841D01*
X14477Y74894D01*
X12903Y74242D01*
X11232Y73910D01*
X9528D01*
X7857Y74242D01*
X6283Y74894D01*
X4866Y75841D01*
X3661Y77046D01*
X2714Y78463D01*
X2062Y80037D01*
X1730Y81708D01*
Y83412D01*
X2062Y85083D01*
X2714Y86657D01*
X3661Y88074D01*
X4866Y89279D01*
X6283Y90225D01*
X7857Y90878D01*
X9528Y91210D01*
D02*
G37*
G36*
X247400Y70010D02*
X251570D01*
Y66040D01*
X247400D01*
Y70010D01*
D02*
G37*
G36*
X233970Y63500D02*
X238140D01*
Y59530D01*
X233970D01*
Y63500D01*
D02*
G37*
G36*
X247400D02*
X251570D01*
Y59530D01*
X247400D01*
Y63500D01*
D02*
G37*
G36*
X341943Y62944D02*
X342733D01*
X343496Y62740D01*
X344180Y62345D01*
X344739Y61786D01*
X345134Y61102D01*
X345338Y60339D01*
Y59549D01*
X345134Y58786D01*
X344739Y58102D01*
X344180Y57543D01*
X343496Y57148D01*
X342733Y56944D01*
X341943D01*
X341180Y57148D01*
X340496Y57543D01*
X339937Y58102D01*
X339543Y58786D01*
X339338Y59549D01*
Y60339D01*
X339543Y61102D01*
X339937Y61786D01*
X340496Y62345D01*
X341180Y62740D01*
X341943Y62944D01*
D02*
G37*
G36*
X255480Y57210D02*
X259550D01*
Y55670D01*
X265610D01*
Y53966D01*
X270904D01*
X271408Y54471D01*
X272092Y54865D01*
X272855Y55070D01*
X273645D01*
X274408Y54865D01*
X275092Y54471D01*
X275651Y53912D01*
X276045Y53228D01*
X276250Y52465D01*
Y51675D01*
X276045Y50912D01*
X275651Y50228D01*
X275092Y49669D01*
X274408Y49275D01*
X273645Y49070D01*
X272855D01*
X272092Y49275D01*
X271408Y49669D01*
X270904Y50174D01*
X265610D01*
Y48470D01*
X259550D01*
Y46930D01*
X255480D01*
Y52070D01*
Y57210D01*
D02*
G37*
G36*
X248870D02*
X252940D01*
Y53340D01*
X248870D01*
Y57210D01*
D02*
G37*
G36*
X-36748Y69946D02*
X-19748D01*
Y53946D01*
X-25223D01*
X-25749Y52676D01*
X-22736Y49663D01*
X-16995D01*
X-16774Y49707D01*
X12763D01*
X13190Y50800D01*
X13190Y52070D01*
Y56300D01*
X17690D01*
Y55207D01*
X19540D01*
Y56300D01*
X21697D01*
X23943Y58546D01*
Y62263D01*
X23758Y62369D01*
X23199Y62928D01*
X22805Y63612D01*
X22600Y64375D01*
Y65165D01*
X22805Y65928D01*
X23199Y66612D01*
X23758Y67171D01*
X24442Y67565D01*
X25205Y67770D01*
X25995D01*
X26758Y67565D01*
X27442Y67171D01*
X28001Y66612D01*
X28396Y65928D01*
X28600Y65165D01*
Y64375D01*
X28396Y63612D01*
X28001Y62928D01*
X27442Y62369D01*
X27257Y62263D01*
Y57860D01*
X27131Y57226D01*
X26772Y56688D01*
X24040Y53957D01*
Y52340D01*
X25580D01*
Y49320D01*
X21790D01*
Y48050D01*
X20520D01*
Y43760D01*
X18000D01*
Y44158D01*
X17690Y45300D01*
X16730Y45300D01*
X13190D01*
Y46393D01*
X-16597D01*
X-16818Y46349D01*
X-23422D01*
X-24056Y46475D01*
X-24594Y46835D01*
X-29420Y51660D01*
X-29779Y52198D01*
X-29905Y52832D01*
Y53946D01*
X-36748D01*
Y69946D01*
D02*
G37*
G36*
X248870Y50800D02*
X252940D01*
Y46930D01*
X248870D01*
Y50800D01*
D02*
G37*
G36*
X23060Y46780D02*
X25580D01*
Y43760D01*
X23060D01*
Y46780D01*
D02*
G37*
G36*
X330259Y143970D02*
X331049D01*
X331812Y143765D01*
X332496Y143371D01*
X333055Y142812D01*
X333450Y142128D01*
X333654Y141365D01*
Y140575D01*
X333450Y139812D01*
X333055Y139128D01*
X332496Y138569D01*
X331812Y138174D01*
X331049Y137970D01*
X330259D01*
X329496Y138174D01*
X328812Y138569D01*
X328253Y139128D01*
X327859Y139812D01*
X327654Y140575D01*
Y141365D01*
X327859Y142128D01*
X328253Y142812D01*
X328812Y143371D01*
X329496Y143765D01*
X330259Y143970D01*
D02*
G37*
%LPD*%
D12*
X348137Y137711D02*
X347926Y137922D01*
X360783Y137711D02*
X348137D01*
X361080Y152500D02*
X350580D01*
X347940Y149860D01*
X361017Y182563D02*
X346211D01*
X346148Y182626D01*
X361080Y182500D02*
X361017Y182563D01*
X361009Y197429D02*
X346219D01*
X361080Y197500D02*
X361009Y197429D01*
X346219D02*
X346148Y197358D01*
X347996Y167570D02*
X347926Y167640D01*
X361010Y167570D02*
X347996D01*
X361080Y167500D02*
X361010Y167570D01*
X102042Y224548D02*
Y235570D01*
X119580Y207010D02*
X102042Y224548D01*
Y235570D02*
X100034Y237577D01*
X115008Y235570D02*
X102042D01*
X100034Y237577D02*
X99681D01*
X217224Y176739D02*
Y177280D01*
X270456Y245110D02*
X259490D01*
X360330Y73250D02*
X351925D01*
X361080Y72500D02*
X360330Y73250D01*
X351925D02*
X348975Y76200D01*
X348434D01*
X252840Y64770D02*
X232700D01*
X289760Y110236D02*
X286204D01*
X281580Y114860D01*
Y120500D01*
X286204Y97028D02*
X284172Y94996D01*
Y87630D02*
Y94996D01*
X293320Y97028D02*
X286204D01*
X293570Y97278D02*
Y97580D01*
Y97278D02*
X293320Y97028D01*
X245580Y115332D02*
Y120500D01*
X243786Y113538D02*
X235404D01*
X245580Y115332D02*
X243786Y113538D01*
X222154Y172000D02*
X217624Y176530D01*
X234080Y172000D02*
X222154D01*
X361080Y227500D02*
X360741Y227161D01*
X346487D01*
X346148Y226822D01*
X360777Y212803D02*
X346451D01*
X361080Y212500D02*
X360777Y212803D01*
X346451D02*
X346148Y213106D01*
X243532Y52324D02*
X241928Y50720D01*
Y45894D02*
Y50720D01*
Y45894D02*
X241754Y45720D01*
X253956Y52324D02*
X243532D01*
D14*
X218640Y117030D02*
D03*
Y109030D02*
D03*
D15*
X115008Y235570D02*
D03*
Y249570D02*
D03*
D17*
X-28248Y89946D02*
D03*
Y61946D02*
D03*
D18*
X8792Y249936D02*
D03*
X3292D02*
D03*
X17516Y245110D02*
D03*
X23016D02*
D03*
X38764Y250190D02*
D03*
X33264D02*
D03*
X259490Y245110D02*
D03*
X253990D02*
D03*
D19*
X-29010Y230258D02*
D03*
Y215258D02*
D03*
D20*
X15440Y53550D02*
D03*
Y48050D02*
D03*
X21790Y48050D02*
D03*
Y53550D02*
D03*
X293570Y97580D02*
D03*
Y103080D02*
D03*
D21*
X320240Y105100D02*
D03*
Y113340D02*
D03*
D22*
X308810Y111850D02*
D03*
Y104050D02*
D03*
D23*
X224900Y64770D02*
D03*
X232700D02*
D03*
X260640D02*
D03*
X252840D02*
D03*
D24*
X234080Y128000D02*
D03*
Y132000D02*
D03*
Y140000D02*
D03*
Y144000D02*
D03*
Y152000D02*
D03*
Y156000D02*
D03*
Y164000D02*
D03*
Y168000D02*
D03*
Y172000D02*
D03*
X293080D02*
D03*
Y168000D02*
D03*
Y156000D02*
D03*
Y152000D02*
D03*
Y148000D02*
D03*
Y140000D02*
D03*
Y164000D02*
D03*
Y128000D02*
D03*
Y160000D02*
D03*
X234080D02*
D03*
Y136000D02*
D03*
X293080Y144000D02*
D03*
X234080Y148000D02*
D03*
X293080Y132000D02*
D03*
Y136000D02*
D03*
D25*
X241580Y179500D02*
D03*
X245580D02*
D03*
X253580D02*
D03*
X257580D02*
D03*
X261580D02*
D03*
X265580D02*
D03*
X269580D02*
D03*
X277580D02*
D03*
X281580D02*
D03*
X285580D02*
D03*
Y120500D02*
D03*
X281580D02*
D03*
X257580D02*
D03*
X253580D02*
D03*
X249580D02*
D03*
X245580D02*
D03*
X241580D02*
D03*
X273580Y179500D02*
D03*
X249580D02*
D03*
X273580Y120500D02*
D03*
X269580D02*
D03*
X277580D02*
D03*
X261580D02*
D03*
X265580D02*
D03*
D26*
X263580Y150000D02*
D03*
D27*
X254210Y52070D02*
D03*
X261810D02*
D03*
D28*
X253270Y79630D02*
D03*
X232270D02*
D03*
Y95630D02*
D03*
X253270D02*
D03*
D29*
X361080Y242500D02*
D03*
Y237500D02*
D03*
Y232500D02*
D03*
Y227500D02*
D03*
Y222500D02*
D03*
Y217500D02*
D03*
Y212500D02*
D03*
Y207500D02*
D03*
Y202500D02*
D03*
Y197500D02*
D03*
Y192500D02*
D03*
Y187500D02*
D03*
Y182500D02*
D03*
Y177500D02*
D03*
Y172500D02*
D03*
Y167500D02*
D03*
Y162500D02*
D03*
Y157500D02*
D03*
Y152500D02*
D03*
Y147500D02*
D03*
Y142500D02*
D03*
Y137500D02*
D03*
Y112500D02*
D03*
Y107500D02*
D03*
Y102500D02*
D03*
Y97500D02*
D03*
Y92500D02*
D03*
Y87500D02*
D03*
Y82500D02*
D03*
Y77500D02*
D03*
Y72500D02*
D03*
Y67500D02*
D03*
Y62500D02*
D03*
Y57500D02*
D03*
D50*
X141932Y244856D02*
D03*
X112722Y54610D02*
D03*
D51*
X167332Y244856D02*
D03*
X192732D02*
D03*
X218132D02*
D03*
X138122Y54610D02*
D03*
X163522D02*
D03*
X188922D02*
D03*
D54*
X180773Y155300D02*
G03*
X182593Y157121I0J1820D01*
G01*
X191435D02*
G03*
X193255Y155300I1820J0D01*
G01*
X188834Y159156D02*
G03*
X185194Y159156I-1820J0D01*
G01*
X191435D02*
G03*
X182593Y159156I-4421J0D01*
G01*
X180773Y152700D02*
G03*
X185194Y157121I0J4421D01*
G01*
X188834D02*
G03*
X193255Y152700I4421J0D01*
G01*
X98287Y119785D02*
G03*
X98287Y123426I0J1820D01*
G01*
X92045Y119785D02*
G03*
X92045Y110943I0J-4421D01*
G01*
X96466Y109123D02*
G03*
X92045Y113544I-4421J0D01*
G01*
X92045Y117185D02*
G03*
X92045Y113544I0J-1820D01*
G01*
X93865Y109123D02*
G03*
X92045Y110943I-1820J0D01*
G01*
X93865Y127846D02*
G03*
X98286Y123426I4421J0D01*
G01*
X96466Y127846D02*
G03*
X98286Y126026I1820J0D01*
G01*
X98287Y117185D02*
G03*
X98287Y126026I0J4421D01*
G01*
X184735Y174918D02*
G03*
X187307Y174915I1287J1287D01*
G01*
X182896Y173079D02*
G03*
X189155Y173085I3126J3126D01*
G01*
X195219Y176576D02*
G03*
X188967Y176576I-3126J-3126D01*
G01*
X193010Y171077D02*
G03*
X198339Y165422I6572J855D01*
G01*
D02*
G03*
X198583Y165399I244J1277D01*
G01*
X193381Y174737D02*
G03*
X190806Y174737I-1287J-1287D01*
G01*
X193380Y172162D02*
G03*
X193010Y171077I920J-919D01*
G01*
X195694Y170885D02*
G03*
X195219Y176576I-3601J2565D01*
G01*
X193380Y172162D02*
G03*
X193381Y174737I-1286J1288D01*
G01*
X195694Y170885D02*
G03*
X198715Y168000I3888J1048D01*
G01*
X212834Y145787D02*
G03*
X203992Y145787I-4421J0D01*
G01*
X202172Y140700D02*
G03*
X206593Y145121I0J4421D01*
G01*
X210233D02*
G03*
X214654Y140700I4421J0D01*
G01*
X202172Y143300D02*
G03*
X203992Y145121I0J1820D01*
G01*
X212834D02*
G03*
X214654Y143300I1820J0D01*
G01*
X210233Y145787D02*
G03*
X206593Y145787I-1820J0D01*
G01*
X323142Y150511D02*
G03*
X329394Y150511I3126J3126D01*
G01*
X335949Y151863D02*
G03*
X336330Y146046I3507J-2692D01*
G01*
X333863Y154980D02*
G03*
X333867Y154984I-913J926D01*
G01*
X336447Y152415D02*
G03*
X336445Y154987I-1290J1285D01*
G01*
X336330Y152297D02*
G03*
X336328Y152296I3126J-3126D01*
G01*
X322618Y156131D02*
G03*
X318879Y158700I-3754J-1458D01*
G01*
X322618Y156131D02*
G03*
X323142Y150511I3650J-2494D01*
G01*
X336445Y154987D02*
G03*
X333867Y154984I-1287J-1287D01*
G01*
X325331Y156124D02*
G03*
X318881Y161300I-6467J-1451D01*
G01*
X338277Y150567D02*
G03*
X338284Y156826I-3119J3133D01*
G01*
X338276Y150566D02*
G03*
X338277Y150567I-912J927D01*
G01*
X338284Y156826D02*
G03*
X332466Y157206I-3126J-3126D01*
G01*
X324977Y154919D02*
G03*
X325331Y156124I-915J924D01*
G01*
X338173Y150463D02*
G03*
X338176Y150466I-924J915D01*
G01*
X324977Y154919D02*
G03*
X324981Y152349I1292J-1282D01*
G01*
X338173Y150463D02*
G03*
X338169Y147884I1282J-1292D01*
G01*
X324981Y152349D02*
G03*
X327555Y152349I1287J1287D01*
G01*
X185486Y215137D02*
G03*
X185490Y221393I-3122J3130D01*
G01*
X180952Y228505D02*
G03*
X180952Y225931I1287J-1287D01*
G01*
X183526Y228505D02*
G03*
X180952Y228505I-1287J-1287D01*
G01*
X196146Y215885D02*
G03*
X196151Y215880I924J915D01*
G01*
D02*
G03*
X202398Y215875I3126J3126D01*
G01*
D02*
G03*
X202403Y215880I-914J925D01*
G01*
X202403Y215881D02*
G03*
X202408Y215886I-920J919D01*
G01*
D02*
G03*
X202403Y222132I-3131J3121D01*
G01*
X198730Y228380D02*
G03*
X198730Y225806I1287J-1287D01*
G01*
X183654Y216982D02*
G03*
X183652Y219554I-1290J1285D01*
G01*
X179113Y230344D02*
G03*
X179113Y224092I3126J-3126D01*
G01*
X185365Y230344D02*
G03*
X179113Y230344I-3126J-3126D01*
G01*
X197996Y217713D02*
G03*
X200564Y220294I1281J1293D01*
G01*
X196891Y230219D02*
G03*
X196891Y223967I3126J-3126D01*
G01*
X303567Y183285D02*
G03*
X301747Y185105I-1820J0D01*
G01*
X303567Y182748D02*
G03*
X307988Y178327I4421J0D01*
G01*
X307988D02*
G03*
X312408Y182748I0J4421D01*
G01*
X314229Y185105D02*
G03*
X312408Y183285I0J-1820D01*
G01*
X306167D02*
G03*
X301747Y187706I-4421J0D01*
G01*
X306167Y182748D02*
G03*
X307988Y180928I1820J0D01*
G01*
X307988D02*
G03*
X309808Y182748I0J1820D01*
G01*
X314229Y187706D02*
G03*
X309808Y183285I0J-4421D01*
G01*
X315744Y168700D02*
G03*
X320165Y173120I0J4421D01*
G01*
X321985Y174941D02*
G03*
X320165Y173121I0J-1820D01*
G01*
X323805D02*
G03*
X321985Y174941I-1820J0D01*
G01*
X323805Y168247D02*
G03*
X328226Y163827I4421J0D01*
G01*
X328226D02*
G03*
X332647Y168247I0J4421D01*
G01*
X334467Y175049D02*
G03*
X332647Y173229I0J-1820D01*
G01*
X336287D02*
G03*
X334467Y175049I-1820J0D01*
G01*
X336287Y167546D02*
G03*
X338229Y162859I6627J0D01*
G01*
X315744Y171300D02*
G03*
X317564Y173120I0J1820D01*
G01*
X321985Y177542D02*
G03*
X317564Y173121I0J-4421D01*
G01*
X326406D02*
G03*
X321985Y177542I-4421J0D01*
G01*
X326406Y168247D02*
G03*
X328226Y166427I1820J0D01*
G01*
X328226D02*
G03*
X330046Y168247I0J1820D01*
G01*
X334467Y177649D02*
G03*
X330046Y173229I0J-4421D01*
G01*
X338888D02*
G03*
X334467Y177649I-4421J0D01*
G01*
X338888Y167546D02*
G03*
X340070Y164696I4027J0D01*
G01*
X325313Y200676D02*
G03*
X323493Y202496I-1820J0D01*
G01*
X325313Y200676D02*
G03*
X334718Y200676I4702J0D01*
G01*
X338358Y207199D02*
G03*
X334718Y207199I-1820J0D01*
G01*
X338358Y207199D02*
G03*
X343061Y202496I4702J0D01*
G01*
X328195Y200676D02*
G03*
X323493Y205378I-4702J0D01*
G01*
X328195Y200676D02*
G03*
X331836Y200676I1820J0D01*
G01*
X341241Y207199D02*
G03*
X331836Y207199I-4702J0D01*
G01*
X341241Y207199D02*
G03*
X343061Y205378I1820J0D01*
G01*
X303121Y216880D02*
G03*
X301301Y218700I-1820J0D01*
G01*
X303121Y216597D02*
G03*
X311963Y216597I4421J0D01*
G01*
X315603Y225682D02*
G03*
X311963Y225682I-1820J0D01*
G01*
X315603Y223121D02*
G03*
X320024Y218700I4421J0D01*
G01*
X305722Y216880D02*
G03*
X301301Y221300I-4421J0D01*
G01*
X305722Y216597D02*
G03*
X309362Y216597I1820J0D01*
G01*
X318204Y225682D02*
G03*
X309362Y225682I-4421J0D01*
G01*
X318204Y223121D02*
G03*
X320024Y221300I1820J0D01*
G01*
X271974Y196385D02*
G03*
X271978Y202642I-3122J3130D01*
G01*
X266648Y210546D02*
G03*
X266648Y207972I1287J-1287D01*
G01*
X269222Y210546D02*
G03*
X266648Y210546I-1287J-1287D01*
G01*
X276107Y203661D02*
G03*
X282363Y203666I3126J3126D01*
G01*
X270142Y198231D02*
G03*
X270139Y200803I-1290J1285D01*
G01*
X264809Y212385D02*
G03*
X264809Y206133I3126J-3126D01*
G01*
X271061Y212385D02*
G03*
X264809Y212385I-3126J-3126D01*
G01*
X277945Y205500D02*
G03*
X280517Y205498I1287J1287D01*
G01*
X93865Y138636D02*
Y142358D01*
X96466Y138636D02*
Y141281D01*
X99396Y168402D02*
X97228Y170570D01*
X107364Y171003D02*
X100473D01*
X99829Y171647D01*
X127229Y168402D02*
X99396D01*
X130884Y168425D02*
X128307Y171003D01*
X107364D01*
X144495Y168425D02*
X130884D01*
X144980Y168910D02*
X144495Y168425D01*
X129045Y166587D02*
X127229Y168402D01*
X129045Y165675D02*
Y166587D01*
Y165675D02*
X119580Y156210D01*
X122605Y156695D02*
X120850Y154940D01*
X120013Y181610D02*
Y182043D01*
Y181610D02*
X119580D01*
X129409D02*
X120013D01*
X96466Y95758D02*
Y101031D01*
X93865Y94681D02*
Y101031D01*
X97111Y141925D02*
X96466Y141281D01*
X96033Y144526D02*
X93865Y142358D01*
X129383Y144526D02*
X96033D01*
X128306Y141925D02*
X97111D01*
X101564Y99042D02*
Y99954D01*
X118042Y116431D02*
X101564Y99954D01*
X98964Y97965D02*
Y101031D01*
X128400Y116431D02*
X118042D01*
X129045Y114875D02*
X119580Y105410D01*
X173776Y104488D02*
X120502D01*
X129045Y115787D02*
X128400Y116431D01*
X129045Y114875D02*
Y115787D01*
X174621Y105334D02*
X173776Y104488D01*
X120502D02*
X119580Y105410D01*
X116965Y119032D02*
X98964Y101031D01*
X129477Y119032D02*
X116965D01*
X130884Y117625D02*
X129477Y119032D01*
X144495Y117625D02*
X130884D01*
X144980Y118110D02*
X144495Y117625D01*
X135973Y180291D02*
X135328Y180935D01*
X177870Y180291D02*
X135973D01*
X133329Y177690D02*
X129409Y181610D01*
X176697Y177690D02*
X133329D01*
X133452Y156695D02*
X122605D01*
X137447Y152700D02*
X133452Y156695D01*
X155654Y152700D02*
X137447D01*
X142424Y166354D02*
X137852D01*
X135836Y164338D01*
Y157988D02*
Y164338D01*
X138524Y155300D02*
X135836Y157988D01*
X155654Y155300D02*
X138524D01*
X191869Y140700D02*
X190238D01*
X180349Y130810D02*
X119580D01*
X190238Y140700D02*
X180349Y130810D01*
X142849Y141379D02*
X136753D01*
X135328Y139954D01*
X191869Y143300D02*
X189161D01*
X135973Y134135D02*
X135328Y134780D01*
Y139954D01*
X189161Y143300D02*
X179996Y134135D01*
X135973D01*
X144980Y143510D02*
X144495Y143025D01*
X129045Y141187D02*
X128306Y141925D01*
X144495Y143025D02*
X130884D01*
X129045Y140275D02*
Y141187D01*
Y140275D02*
X119580Y130810D01*
X130884Y143025D02*
X129383Y144526D01*
X142424Y115554D02*
X136989D01*
X136344Y107733D02*
Y114909D01*
X136989Y115554D02*
X136344Y114909D01*
X136989Y107089D02*
X136344Y107733D01*
X172699Y107089D02*
X136989D01*
X172782Y107172D02*
X172699Y107089D01*
X188834Y157121D02*
Y159156D01*
X180773Y152700D02*
X155654D01*
X180773Y155300D02*
X155654D01*
X185194Y157121D02*
Y159156D01*
X207588Y155300D02*
X193255D01*
X191435Y157121D02*
Y159156D01*
X207588Y152700D02*
X193255D01*
X182593Y157121D02*
Y159156D01*
X96466Y101031D02*
Y109123D01*
X92045Y113544D02*
X92045D01*
X93865Y127846D02*
Y138636D01*
X92045Y110943D02*
X92045D01*
X96466Y127846D02*
Y138636D01*
X98287Y117185D02*
X92045D01*
X98287Y126026D02*
X98286D01*
X93865Y101031D02*
Y109123D01*
X98287Y119785D02*
X92045D01*
X98287Y123426D02*
X98286D01*
X193551Y124263D02*
X175549Y106261D01*
X173710Y108100D02*
Y108100D01*
X208959Y133840D02*
X204265D01*
X202802Y128700D02*
X197987D01*
X196910Y131300D02*
X195387Y129777D01*
X212811Y128700D02*
X210422D01*
X194668Y124263D02*
X193551D01*
X207882Y131240D02*
X205342D01*
X195387Y128660D02*
Y129777D01*
X205342Y131240D02*
X202802Y128700D01*
X193591Y126864D02*
X192474D01*
X201725Y131300D02*
X196910D01*
X204265Y133840D02*
X201725Y131300D01*
X195387Y128660D02*
X193591Y126864D01*
X212811Y131300D02*
X211499D01*
X173710Y108100D02*
X172782Y107172D01*
X175549Y106261D02*
X175549D01*
X197987Y127583D02*
Y128700D01*
X197987Y128700D02*
X197987Y128700D01*
X211499Y131300D02*
X208959Y133840D01*
X197987Y127583D02*
X194668Y124263D01*
X210422Y128700D02*
X207882Y131240D01*
X175549Y106261D02*
X174621Y105334D01*
X192474Y126864D02*
X173710Y108100D01*
X182896Y173079D02*
X178285Y177690D01*
X179362Y180291D02*
X177870D01*
X190806Y174737D02*
X189155Y173085D01*
X178285Y177690D02*
X176697D01*
X188007Y175615D02*
X187307Y174915D01*
X199900Y165399D02*
X198583D01*
X202500Y168000D02*
X198715D01*
X188968Y176576D02*
X188007Y175615D01*
X184735Y174918D02*
X179362Y180291D01*
X202172Y143300D02*
X191869D01*
X210233Y145121D02*
Y145787D01*
X216505Y143300D02*
X214654D01*
X203992Y145121D02*
Y145787D01*
X212834Y145121D02*
Y145787D01*
X216505Y140700D02*
X214654D01*
X206593Y145121D02*
Y145787D01*
X202172Y140700D02*
X191869D01*
X119515Y81091D02*
X101564Y99042D01*
X118503Y78425D02*
X98964Y97965D01*
X137614Y54610D02*
X96466Y95758D01*
X116471Y72075D02*
X93865Y94681D01*
X99829Y171647D02*
Y193157D01*
X120539Y196403D02*
X99396D01*
X97228Y170570D02*
Y194235D01*
X99396Y196403D02*
X97228Y194235D01*
X100473Y193802D02*
X99829Y193157D01*
X107364Y193802D02*
X100473D01*
X122062Y196403D02*
X120539D01*
X144980Y194310D02*
X142440Y191770D01*
X135328Y184658D01*
X129460Y191490D02*
X120013Y182043D01*
X132060Y192415D02*
Y193950D01*
X142440Y191770D02*
X132705D01*
X132060Y192415D01*
X129460Y191490D02*
Y195027D01*
X123139Y193802D02*
X120539D01*
X107364D01*
X135328Y180935D02*
Y184658D01*
X359880Y146300D02*
X343615D01*
X359880Y143700D02*
X341014D01*
X312500Y161300D02*
X307301D01*
X312249Y158700D02*
X307301D01*
X318879D02*
X312249D01*
X338675Y143700D02*
X336330Y146046D01*
X341014Y143700D02*
X338675D01*
X335949Y151863D02*
Y151917D01*
X336328Y152296D02*
X335949Y151917D01*
X329394Y150511D02*
X329394Y150511D01*
X336447Y152415D02*
X336330Y152297D01*
X333863Y154980D02*
X329394Y150511D01*
X343615Y146300D02*
X339753D01*
X338276Y150566D02*
X338176Y150466D01*
X338169Y147884D02*
Y147884D01*
X339753Y146300D02*
X338169Y147884D01*
X332412Y157206D02*
X331090Y155884D01*
X332466Y157206D02*
X332412D01*
X318881Y161300D02*
X312500D01*
X331090Y155884D02*
X327556Y152349D01*
X119515Y78425D02*
X118503D01*
X165050D02*
X119515D01*
X119580Y81026D02*
X119515Y81091D01*
X165050Y81026D02*
X119580D01*
X153332Y231511D02*
X149904Y228084D01*
X131264Y209444D01*
X167220Y205486D02*
X143597D01*
X164619Y208087D02*
X142520D01*
X169075Y205486D02*
X167220D01*
X169075Y205486D02*
X169075Y205486D01*
X175836Y205486D02*
X169075D01*
X185486Y215137D02*
X175836Y205486D01*
X185490Y221393D02*
X180952Y225931D01*
X196146Y215885D02*
X183526Y228505D01*
X202403Y215881D02*
X202403Y215880D01*
X202403Y222132D02*
X198730Y225806D01*
X204451Y234102D02*
X198730Y228380D01*
X204451Y234102D02*
X204451Y234102D01*
X169075Y208087D02*
X164619D01*
X169075Y208086D02*
X169075Y208087D01*
X174759Y208086D02*
X169075D01*
X183654Y216982D02*
X174759Y208086D01*
X183652Y219554D02*
X179113Y224092D01*
X197996Y217713D02*
X185365Y230344D01*
X200564Y220294D02*
X196891Y223967D01*
X202612Y235940D02*
X196891Y230219D01*
X142520Y208087D02*
X129460Y195027D01*
X143597Y205486D02*
X132060Y193950D01*
X131264Y205605D02*
X122062Y196403D01*
X151743Y226245D02*
X133865Y208367D01*
X131264Y205605D02*
Y209444D01*
X133865Y204527D02*
X123139Y193802D01*
X133865Y204527D02*
Y208367D01*
X155932Y230434D02*
X151743Y226245D01*
X178167Y54610D02*
X177522Y55255D01*
Y73630D01*
X174922Y55255D02*
X174277Y54610D01*
X174922Y55255D02*
Y72553D01*
X174277Y54610D02*
X163522D01*
X188922D02*
X178167D01*
X177522Y73630D02*
X170126Y81026D01*
X165050D01*
X174922Y72553D02*
X169049Y78425D01*
X165050D01*
X206732Y236383D02*
Y244211D01*
X204132Y237460D02*
Y244211D01*
X206732Y236383D02*
X204451Y234102D01*
X204132Y237460D02*
X202612Y235940D01*
X155932Y230434D02*
Y244211D01*
X153332Y231511D02*
Y244211D01*
X229736Y128700D02*
X212811D01*
X229986Y128450D02*
X229736Y128700D01*
X233630Y128450D02*
X229986D01*
X234080Y128000D02*
X233630Y128450D01*
X234080Y168000D02*
X202500D01*
X229036Y165399D02*
X199900D01*
X229986Y164450D02*
X229036Y165399D01*
X234080Y164000D02*
X233630Y164450D01*
X229986D01*
X204132Y244211D02*
X203487Y244856D01*
X207377D02*
X206732Y244211D01*
X218132Y244856D02*
X207377D01*
X203487D02*
X192732D01*
X229736Y152700D02*
X207588D01*
X229986Y152450D02*
X229736Y152700D01*
X234080Y152000D02*
X233630Y152450D01*
X229986D01*
X233630Y155550D02*
X229986D01*
X234080Y156000D02*
X233630Y155550D01*
X229986D02*
X229736Y155300D01*
X207588D01*
X167332Y244856D02*
X156577D01*
X155932Y244211D01*
X152687Y244856D02*
X141932D01*
X153332Y244211D02*
X152687Y244856D01*
X229736Y140700D02*
X216505D01*
X229986Y140450D02*
X229736Y140700D01*
X234080Y140000D02*
X233630Y140450D01*
X229986D01*
X233630Y143550D02*
X229986D01*
X234080Y144000D02*
X233630Y143550D01*
X229986D02*
X229736Y143300D01*
X216505D01*
X116471Y58359D02*
X112722Y54610D01*
X116471Y58359D02*
Y72075D01*
X138122Y54610D02*
X137614D01*
X233630Y131550D02*
X229986D01*
X234080Y132000D02*
X233630Y131550D01*
X229736Y131300D02*
X212811D01*
X229986Y131550D02*
X229736Y131300D01*
X306090Y157490D02*
X304601Y156000D01*
X307301Y158700D02*
X306090Y157490D01*
X314485Y149773D02*
X313808D01*
X306090Y157490D01*
X298094Y185105D02*
X295705D01*
X298094Y185105D02*
X298094Y185105D01*
X301747Y185105D02*
X298094D01*
X303567Y182748D02*
Y183285D01*
X307988Y178327D02*
X307988D01*
X312408Y182748D02*
Y183285D01*
X333641Y185105D02*
X314229D01*
X334803Y183944D02*
X333641Y185105D01*
X334803Y183944D02*
X334803D01*
X298094Y187706D02*
X295705D01*
X298094Y187706D02*
X298094Y187706D01*
X301747Y187706D02*
X298094D01*
X306167Y182748D02*
Y183285D01*
X307988Y180928D02*
X307988D01*
X309808Y182748D02*
Y183285D01*
X334718Y187706D02*
X314229D01*
X334803Y187621D02*
X334718Y187706D01*
X334803Y187621D02*
Y187621D01*
X295705Y185105D02*
X286325D01*
X295705Y187706D02*
X282225D01*
X345047Y173700D02*
X334803Y183944D01*
X346124Y176300D02*
X334803Y187621D01*
X285680Y179600D02*
X285580Y179500D01*
X281580D02*
Y187061D01*
X286325Y185105D02*
X285680Y184461D01*
Y179600D02*
Y184461D01*
X282225Y187706D02*
X281580Y187061D01*
X359880Y176300D02*
X346124D01*
X301199Y168700D02*
X298810D01*
X301199Y168700D02*
X301199Y168700D01*
X315744Y168700D02*
X301199D01*
X320165Y173120D02*
Y173121D01*
X321985Y174941D02*
X321985D01*
X323805Y168247D02*
Y173121D01*
X328226Y163827D02*
X328226D01*
X332647Y168247D02*
Y173229D01*
X334467Y175049D02*
X334467D01*
X336287Y167546D02*
Y173229D01*
X340559Y160529D02*
X338229Y162859D01*
X340559Y160529D02*
X340559D01*
X301199Y171300D02*
X298810D01*
X301199Y171300D02*
X301199Y171300D01*
X315744Y171300D02*
X301199D01*
X317564Y173120D02*
Y173121D01*
X321985Y177542D02*
X321985D01*
X326406Y168247D02*
Y173121D01*
X328226Y166427D02*
X328226D01*
X330046Y168247D02*
Y173229D01*
X334467Y177649D02*
X334467D01*
X338888Y167546D02*
Y173229D01*
X340999Y163767D02*
X340070Y164696D01*
X340999Y163767D02*
Y163767D01*
X353486Y173700D02*
X345047D01*
X342388Y158700D02*
X340559Y160529D01*
X343465Y161300D02*
X340999Y163767D01*
X298810Y168700D02*
X297424D01*
X298810Y171300D02*
X297424D01*
X359880Y158700D02*
X342388D01*
X359880Y161300D02*
X343465D01*
X293221Y172141D02*
X293080Y172000D01*
X293530Y171550D02*
X293080Y172000D01*
X297174Y171550D02*
X293530D01*
X297424Y171300D02*
X297174Y171550D01*
X361080Y162500D02*
X359880Y161300D01*
X297424Y168700D02*
X297174Y168450D01*
X296780D01*
X296330Y168000D01*
X361080Y157500D02*
X359880Y158700D01*
X323288Y190950D02*
X287982D01*
X323288Y193550D02*
X287982D01*
X353486Y173700D02*
X353486Y173700D01*
X359880Y173700D02*
X353486D01*
X287982Y190950D02*
X278225D01*
X349159D02*
X323288D01*
X287982Y193550D02*
X272109D01*
X350236D02*
X323288D01*
X312915Y202500D02*
X311524D01*
X312918Y202496D02*
X312915Y202500D01*
X323493Y202496D02*
X312918D01*
X325313Y200676D02*
Y200676D01*
X334718Y200676D02*
Y207199D01*
X338358Y207199D02*
Y207199D01*
X344605Y202496D02*
X343061D01*
X344609Y202500D02*
X344605Y202496D01*
X345052Y202500D02*
X344609D01*
X312915Y205375D02*
X311524D01*
X312918Y205378D02*
X312915Y205375D01*
X323493Y205378D02*
X312918D01*
X328195Y200676D02*
Y200676D01*
X331836Y200676D02*
Y207199D01*
X341241Y207199D02*
Y207199D01*
X343411Y205378D02*
X343061D01*
X343415Y205382D02*
X343411Y205378D01*
X345052Y205382D02*
X343415D01*
X291030Y204075D02*
Y204470D01*
Y203520D02*
Y204075D01*
X309326Y201930D02*
X293405D01*
X308015Y205093D02*
X300744D01*
X311524Y202500D02*
X309895D01*
X311524Y205375D02*
X308297D01*
X309895Y202500D02*
X309326Y201930D01*
X308297Y205375D02*
X308015Y205093D01*
X361080Y202500D02*
X345052D01*
X345291Y205382D02*
X345052D01*
X301301Y218700D02*
X292480D01*
X303121Y216597D02*
Y216880D01*
X311963Y216597D02*
Y225682D01*
X315603Y223121D02*
Y225682D01*
X321875Y218700D02*
X320024D01*
X301301Y221300D02*
X292480D01*
X305722Y216597D02*
Y216880D01*
X309362Y216597D02*
Y225682D01*
X318204Y223121D02*
Y225682D01*
X321875Y221300D02*
X320024D01*
X253586Y179506D02*
Y214985D01*
Y179506D02*
X253580Y179500D01*
X260841Y222240D02*
X253586Y214985D01*
X244880Y183844D02*
Y225763D01*
X258010Y233700D02*
X252817D01*
X251740Y236300D02*
X242280Y226840D01*
Y183844D02*
Y226840D01*
X252817Y233700D02*
X244880Y225763D01*
X361080Y172500D02*
X359880Y173700D01*
X361080Y177500D02*
X359880Y176300D01*
X361080Y147500D02*
X359880Y146300D01*
X307301Y161300D02*
X304601Y164000D01*
X293080D01*
X361080Y142500D02*
X359880Y143700D01*
X304601Y156000D02*
X293080D01*
X344117Y69343D02*
X324178Y89282D01*
X345956Y71182D02*
X326017Y91121D01*
X272109Y193550D02*
X269580Y191021D01*
Y179500D02*
Y191021D01*
X359880Y191300D02*
X352486D01*
X361080Y192500D02*
X359880Y191300D01*
X352486D02*
X350236Y193550D01*
X278225Y190950D02*
X277580Y190305D01*
Y179500D02*
Y190305D01*
X351409Y188700D02*
X349159Y190950D01*
X359880Y188700D02*
X351409D01*
X361080Y187500D02*
X359880Y188700D01*
X324178Y89282D02*
X316430Y97030D01*
X326017Y91121D02*
X325320Y91818D01*
X350960Y62500D02*
X344117Y69343D01*
X350837Y66300D02*
X345956Y71182D01*
X359880Y66300D02*
X350837D01*
X359880Y66300D02*
X359880Y66300D01*
X265732Y190144D02*
X265732Y190144D01*
X271974Y196385D02*
X265732Y190144D01*
X271978Y202642D02*
X266648Y207972D01*
X276107Y203661D02*
X269222Y210546D01*
X282740Y204042D02*
X282363Y203666D01*
X282740Y204042D02*
Y204042D01*
X283286Y204589D02*
X282740Y204042D01*
X284048Y204589D02*
X283286D01*
X284048Y204589D02*
Y204589D01*
X270142Y198231D02*
X263894Y191983D01*
X270139Y200803D02*
X264809Y206133D01*
X277945Y205500D02*
X271061Y212385D01*
X280901Y205881D02*
X280517Y205498D01*
X281828Y206809D02*
X280901Y205881D01*
X281828Y206809D02*
X281828Y206809D01*
X282209Y207190D02*
X281828Y206809D01*
X289177Y204589D02*
X284048D01*
X295930Y207190D02*
X282209D01*
X265732Y190144D02*
X265580Y189991D01*
X263894Y191983D02*
X261580Y189669D01*
X265580Y179500D02*
Y189991D01*
X261580Y179500D02*
Y189669D01*
X289691Y204075D02*
X289177Y204589D01*
X296825Y206295D02*
X295930Y207190D01*
X291587Y204470D02*
X291030D01*
X298880Y206295D02*
X296825D01*
X290635Y204075D02*
X289691D01*
X291587Y203748D02*
Y204470D01*
X291030D02*
X290635Y204075D01*
X293405Y201930D02*
X291587Y203748D01*
X299205Y205185D02*
X298650Y205740D01*
X300744Y205093D02*
X300653Y205185D01*
X299205D01*
X360162Y206582D02*
X346491D01*
X361080Y207500D02*
X360162Y206582D01*
X346491D02*
X345291Y205382D01*
X359880Y221300D02*
X321875D01*
X353486Y218700D02*
X321875D01*
X292480D02*
X287684D01*
X292480Y221300D02*
X282202D01*
X285950Y218440D02*
X260719D01*
X279766Y221686D02*
X279211Y222240D01*
X260841D01*
X282202Y221300D02*
X281816Y221686D01*
X279766D01*
X361080Y222500D02*
X359880Y221300D01*
X285950Y217750D02*
Y218440D01*
X286085Y218305D02*
X285950Y218440D01*
X287684Y218700D02*
X287289Y218305D01*
X286085D01*
X257580Y179500D02*
Y215301D01*
X260719Y218440D02*
X257580Y215301D01*
X353486Y218700D02*
X353486Y218700D01*
X361080Y217500D02*
X359880Y218700D01*
X353486D01*
X361080Y62500D02*
X361080Y62500D01*
X316430Y97030D02*
Y122366D01*
X361080Y62500D02*
X350960D01*
X325320Y91818D02*
Y105100D01*
X361080Y67500D02*
X359880Y66300D01*
X293265Y139816D02*
X293080Y140000D01*
X298981Y139816D02*
X293265D01*
X316430Y122366D02*
X298981Y139816D01*
X301721Y148000D02*
X293080D01*
X325320Y105100D02*
Y124401D01*
X301721Y148000D01*
X325320Y105100D02*
X320240D01*
X258010Y228600D02*
Y233700D01*
X359880D02*
X258010D01*
X359880Y236300D02*
X253990D01*
X361080Y237500D02*
X359880Y236300D01*
X361080Y232500D02*
X359880Y233700D01*
X253990Y236300D02*
X251740D01*
X253990D02*
Y245110D01*
X242280Y183844D02*
X242030Y183594D01*
Y179950D02*
Y183594D01*
Y179950D02*
X241580Y179500D01*
X245130Y179950D02*
Y183594D01*
X245580Y179500D02*
X245130Y179950D01*
Y183594D02*
X244880Y183844D01*
D55*
X189155Y173085D02*
D03*
X338229Y162859D02*
D03*
D56*
X95792Y241467D02*
D03*
X99681Y237577D02*
D03*
X318375Y145884D02*
D03*
X314485Y149773D02*
D03*
D57*
X176730Y92710D02*
X144980D01*
X201050Y117030D02*
X176730Y92710D01*
X218640Y117030D02*
X201050D01*
X86580Y227260D02*
Y230664D01*
X96145Y241113D02*
X95792Y241467D01*
X96145Y240229D02*
Y241113D01*
Y240229D02*
X86580Y230664D01*
X103895Y249570D02*
X95792Y241467D01*
X115008Y249570D02*
X103895D01*
X86580Y78097D02*
X80210Y84467D01*
X86580Y72360D02*
Y78097D01*
Y221523D02*
Y227260D01*
X80210Y84467D02*
Y215153D01*
X86580Y221523D02*
X80210Y215153D01*
X361080Y112500D02*
X329122D01*
X328390Y113232D02*
Y130280D01*
X329122Y112500D02*
X328390Y113232D01*
X232016Y78994D02*
Y79884D01*
X-28248Y52832D02*
Y61946D01*
X-23422Y48006D02*
X-28248Y52832D01*
X17516Y245364D02*
X-29010D01*
Y230258D02*
Y245364D01*
X-16818Y48006D02*
X-23422D01*
X15440Y48050D02*
X-16774D01*
X-16818Y48006D01*
X23016Y245110D02*
Y249936D01*
X8792D01*
X23524Y245618D02*
X23016Y245110D01*
X48968Y245618D02*
X23524D01*
X53540Y249936D02*
X39018D01*
X38764Y250190D01*
X53794Y249682D02*
X53540Y249936D01*
X53794Y249682D02*
X53050D01*
X218640Y64770D02*
Y95630D01*
X224900Y64770D02*
X218640D01*
X232270Y95630D02*
X218640D01*
X232270D02*
Y109220D01*
X261088D02*
X232270D01*
X265580Y64770D02*
X260640D01*
X265580D02*
Y80010D01*
X253650D01*
X253270Y79630D01*
X261820Y120260D02*
X261580Y120500D01*
X261820Y109952D02*
Y120260D01*
Y109952D02*
X261088Y109220D01*
X328390Y130280D02*
X306670Y152000D01*
X308810Y126910D02*
X299720Y136000D01*
X308810Y124460D02*
Y126910D01*
X299720Y136000D02*
X293080D01*
X299105Y131625D02*
X293455D01*
X303662Y127068D02*
X299105Y131625D01*
X303662Y126932D02*
Y127068D01*
X306270Y138430D02*
X300700Y144000D01*
X293080D01*
X25600Y57860D02*
X21790Y54050D01*
Y53550D02*
Y54050D01*
X25600Y57860D02*
Y64770D01*
X293455Y131625D02*
X293080Y132000D01*
X265580Y80010D02*
Y120500D01*
X287010Y103080D02*
X277955Y112135D01*
X293570Y103080D02*
X287010D01*
X277955Y112135D02*
Y120125D01*
X277580Y120500D01*
X21790Y53550D02*
X15440D01*
X21790Y53550D02*
X21790Y53550D01*
X269510Y106750D02*
X269440Y106680D01*
X269580Y120500D02*
X269510Y120430D01*
Y106750D02*
Y120430D01*
X218780Y148000D02*
X218640Y148140D01*
X234080Y148000D02*
X218780D01*
X223775Y135945D02*
X223720Y135890D01*
X234080Y136000D02*
X234025Y135945D01*
X285730Y120650D02*
X285580Y120500D01*
X306670Y152000D02*
X293080D01*
D58*
X202225Y109125D02*
X202130Y109220D01*
X202140Y160010D02*
X202130Y160020D01*
X327606Y65532D02*
X301190Y91948D01*
X316684Y153815D02*
Y154432D01*
X319986Y150513D02*
X316684Y153815D01*
X319986Y148754D02*
Y150513D01*
X318021Y146237D02*
Y146789D01*
X319986Y148754D02*
X318021Y146789D01*
X249477Y179603D02*
Y194969D01*
X249580Y179500D02*
X249477Y179603D01*
Y194969D02*
X249374Y195072D01*
X273580Y179500D02*
Y190000D01*
X301190Y91948D02*
Y111910D01*
X242516Y78994D02*
X232016D01*
X242516D02*
Y95884D01*
X253016D02*
X242516D01*
X-15936Y215258D02*
X-29010D01*
X-12754Y218440D02*
X-15936Y215258D01*
X308810Y111910D02*
X301190D01*
X-12754Y218440D02*
Y235966D01*
X-8690Y240030D02*
X-12754Y235966D01*
X3292Y249936D02*
Y253746D01*
X18270Y253815D02*
X18201Y253746D01*
X33264Y253815D02*
X18270D01*
X18201Y253746D02*
X3292D01*
X33264Y250190D02*
Y253815D01*
X67510D02*
X33264D01*
X75892D02*
X67510D01*
Y240030D02*
Y253815D01*
Y240030D02*
X-8690D01*
X218640Y109030D02*
X218545Y109125D01*
X202225D01*
X301190Y111910D02*
X298500D01*
X234070Y160010D02*
X202140D01*
X234080Y160000D02*
X234070Y160010D01*
X305170Y119160D02*
X296330Y128000D01*
X293080D01*
X308810Y119160D02*
X305170D01*
X298500Y111910D02*
X289760Y120650D01*
X285730D01*
X234025Y135945D02*
X223775D01*
X273580Y106967D02*
Y120500D01*
X275790Y104757D02*
X273580Y106967D01*
X275790Y104140D02*
Y104757D01*
X303580Y160000D02*
X293080D01*
X319980Y114300D02*
Y121270D01*
X273250Y52070D02*
X263240D01*
D59*
X361080Y102500D02*
X361068Y102488D01*
X361080Y97500D02*
X361010Y97430D01*
X361080Y77500D02*
X361080Y77500D01*
D60*
X56080Y207010D02*
D03*
Y92710D02*
D03*
D61*
X86580Y227310D02*
D03*
Y72410D02*
D03*
D62*
X10380Y217160D02*
D03*
Y191760D02*
D03*
Y107960D02*
D03*
Y82560D02*
D03*
D63*
X119580Y207010D02*
D03*
X144980Y194310D02*
D03*
X119580Y181610D02*
D03*
X144980Y168910D02*
D03*
X119580Y156210D02*
D03*
X144980Y143510D02*
D03*
X119580Y130810D02*
D03*
X144980Y118110D02*
D03*
X119580Y105410D02*
D03*
X144980Y92710D02*
D03*
D64*
X279346Y134366D02*
D03*
X248104Y165608D02*
D03*
X194256Y94488D02*
D03*
X202130Y109220D02*
D03*
Y160020D02*
D03*
X347926Y137922D02*
D03*
X347940Y149860D02*
D03*
X346148Y182626D02*
D03*
Y197358D02*
D03*
X347926Y167640D02*
D03*
X237944Y235458D02*
D03*
X327606Y65532D02*
D03*
X316684Y154432D02*
D03*
X346148Y99822D02*
D03*
X270564Y245065D02*
D03*
X242770Y64770D02*
D03*
X338528Y139192D02*
D03*
X289868Y109937D02*
D03*
X235404Y113538D02*
D03*
X217224Y176739D02*
D03*
X264436Y201176D02*
D03*
X325574Y226568D02*
D03*
X330654Y140970D02*
D03*
X249374Y195072D02*
D03*
X273580Y190000D02*
D03*
X346148Y226822D02*
D03*
Y213106D02*
D03*
X348434Y76200D02*
D03*
X291030Y203520D02*
D03*
X298650Y205740D02*
D03*
X7566Y139192D02*
D03*
Y159512D02*
D03*
X284172Y60452D02*
D03*
Y87630D02*
D03*
X48968Y139192D02*
D03*
Y159512D02*
D03*
X67256Y139192D02*
D03*
Y159512D02*
D03*
X241754Y45720D02*
D03*
X328876Y59944D02*
D03*
X279211Y222240D02*
D03*
X285950Y217750D02*
D03*
X315414Y242062D02*
D03*
X342338Y59944D02*
D03*
X53794Y249682D02*
D03*
X48968Y245618D02*
D03*
X75892Y253815D02*
D03*
X258010Y228600D02*
D03*
X308810Y124460D02*
D03*
X306270Y138430D02*
D03*
X25600Y64770D02*
D03*
X303662Y126932D02*
D03*
X269440Y106680D02*
D03*
X218640Y148140D02*
D03*
X223720Y135890D02*
D03*
X275790Y104140D02*
D03*
X303580Y160000D02*
D03*
X308810Y119160D02*
D03*
X319980Y121270D02*
D03*
X273250Y52070D02*
D03*
D65*
X263580Y150000D02*
D03*
M02*
