G04*
G04 #@! TF.GenerationSoftware,Altium Limited,Altium Designer,22.7.1 (60)*
G04*
G04 Layer_Color=32896*
%FSLAX44Y44*%
%MOMM*%
G71*
G04*
G04 #@! TF.SameCoordinates,2F50B947-C67E-4D0A-9455-C6AB2E86B346*
G04*
G04*
G04 #@! TF.FilePolarity,Positive*
G04*
G01*
G75*
%ADD83C,0.0000*%
D83*
X-44375Y135913D02*
G03*
X-30375Y149913I0J14000D01*
G01*
Y149913D02*
G03*
X-44375Y163913I-14000J0D01*
G01*
X333580Y254250D02*
G03*
X338580Y249250I5000J-0D01*
G01*
X344580Y129750D02*
G03*
X338580Y123750I0J-6000D01*
G01*
D02*
G03*
X344580Y117750I6000J0D01*
G01*
X338580Y50750D02*
G03*
X333580Y45750I0J-5000D01*
G01*
Y42500D02*
X331080Y40000D01*
X-43920D01*
X-46420Y42500D01*
Y136000D01*
Y164000D02*
Y257376D01*
X-43920Y259876D02*
X-46420Y257376D01*
X331080Y259876D02*
X-43920D01*
X333580Y257125D02*
X331080Y259876D01*
X333580Y254250D02*
Y257125D01*
X373580Y249250D02*
X338580D01*
X373580Y129750D02*
Y249250D01*
Y129750D02*
X344580D01*
X373580Y117750D02*
X344580D01*
X373580Y50750D02*
Y117750D01*
Y50750D02*
X338580D01*
X333580Y42500D02*
Y45750D01*
M02*
