G04*
G04 #@! TF.GenerationSoftware,Altium Limited,Altium Designer,22.7.1 (60)*
G04*
G04 Layer_Color=8421504*
%FSLAX44Y44*%
%MOMM*%
G71*
G04*
G04 #@! TF.SameCoordinates,2F50B947-C67E-4D0A-9455-C6AB2E86B346*
G04*
G04*
G04 #@! TF.FilePolarity,Positive*
G04*
G01*
G75*
%ADD14R,0.4500X0.4500*%
%ADD15R,0.9000X0.7000*%
G04:AMPARAMS|DCode=16|XSize=0.25mm|YSize=0.35mm|CornerRadius=0mm|HoleSize=0mm|Usage=FLASHONLY|Rotation=135.000|XOffset=0mm|YOffset=0mm|HoleType=Round|Shape=Rectangle|*
%AMROTATEDRECTD16*
4,1,4,0.2121,0.0354,-0.0354,-0.2121,-0.2121,-0.0354,0.0354,0.2121,0.2121,0.0354,0.0*
%
%ADD16ROTATEDRECTD16*%

%ADD17R,1.5000X1.4000*%
%ADD18R,0.3500X0.2500*%
%ADD19R,0.9500X0.9000*%
%ADD20R,0.2500X0.3500*%
%ADD21R,0.4000X0.6250*%
%ADD22R,0.5200X0.5600*%
%ADD23R,0.5800X0.5400*%
%ADD24R,0.8500X0.2000*%
%ADD25R,0.2000X0.8500*%
%ADD26R,4.6500X4.6500*%
%ADD27R,0.5600X0.5200*%
%ADD28R,1.5000X1.2000*%
%ADD29R,1.5000X0.3500*%
D14*
X154940Y117030D02*
D03*
Y109030D02*
D03*
D15*
X258572Y235570D02*
D03*
Y249570D02*
D03*
D16*
X277789Y241467D02*
D03*
X273899Y237577D02*
D03*
X55205Y145884D02*
D03*
X59095Y149773D02*
D03*
D17*
X401828Y89946D02*
D03*
Y61946D02*
D03*
D18*
X364788Y249936D02*
D03*
X370288D02*
D03*
X356064Y245110D02*
D03*
X350564D02*
D03*
X334816Y250190D02*
D03*
X340316D02*
D03*
X114090Y245110D02*
D03*
X119590D02*
D03*
D19*
X402590Y230258D02*
D03*
Y215258D02*
D03*
D20*
X358140Y53550D02*
D03*
Y48050D02*
D03*
X351790Y48050D02*
D03*
Y53550D02*
D03*
X80010Y97580D02*
D03*
Y103080D02*
D03*
D21*
X53340Y105100D02*
D03*
Y113340D02*
D03*
D22*
X64770Y111850D02*
D03*
Y104050D02*
D03*
D23*
X148680Y64770D02*
D03*
X140880D02*
D03*
X112940D02*
D03*
X120740D02*
D03*
D24*
X139500Y128000D02*
D03*
Y132000D02*
D03*
Y140000D02*
D03*
Y144000D02*
D03*
Y152000D02*
D03*
Y156000D02*
D03*
Y164000D02*
D03*
Y168000D02*
D03*
Y172000D02*
D03*
X80500D02*
D03*
Y168000D02*
D03*
Y156000D02*
D03*
Y152000D02*
D03*
Y148000D02*
D03*
Y140000D02*
D03*
Y164000D02*
D03*
Y128000D02*
D03*
Y160000D02*
D03*
X139500D02*
D03*
Y136000D02*
D03*
X80500Y144000D02*
D03*
X139500Y148000D02*
D03*
X80500Y132000D02*
D03*
Y136000D02*
D03*
D25*
X132000Y179500D02*
D03*
X128000D02*
D03*
X120000D02*
D03*
X116000D02*
D03*
X112000D02*
D03*
X108000D02*
D03*
X104000D02*
D03*
X96000D02*
D03*
X92000D02*
D03*
X88000D02*
D03*
Y120500D02*
D03*
X92000D02*
D03*
X116000D02*
D03*
X120000D02*
D03*
X124000D02*
D03*
X128000D02*
D03*
X132000D02*
D03*
X100000Y179500D02*
D03*
X124000D02*
D03*
X100000Y120500D02*
D03*
X104000D02*
D03*
X96000D02*
D03*
X112000D02*
D03*
X108000D02*
D03*
D26*
X110000Y150000D02*
D03*
D27*
X119370Y52070D02*
D03*
X111770D02*
D03*
D28*
X120310Y79630D02*
D03*
X141310D02*
D03*
Y95630D02*
D03*
X120310D02*
D03*
D29*
X12500Y242500D02*
D03*
Y237500D02*
D03*
Y232500D02*
D03*
Y227500D02*
D03*
Y222500D02*
D03*
Y217500D02*
D03*
Y212500D02*
D03*
Y207500D02*
D03*
Y202500D02*
D03*
Y197500D02*
D03*
Y192500D02*
D03*
Y187500D02*
D03*
Y182500D02*
D03*
Y177500D02*
D03*
Y172500D02*
D03*
Y167500D02*
D03*
Y162500D02*
D03*
Y157500D02*
D03*
Y152500D02*
D03*
Y147500D02*
D03*
Y142500D02*
D03*
Y137500D02*
D03*
Y112500D02*
D03*
Y107500D02*
D03*
Y102500D02*
D03*
Y97500D02*
D03*
Y92500D02*
D03*
Y87500D02*
D03*
Y82500D02*
D03*
Y77500D02*
D03*
Y72500D02*
D03*
Y67500D02*
D03*
Y62500D02*
D03*
Y57500D02*
D03*
M02*
