G04*
G04 #@! TF.GenerationSoftware,Altium Limited,Altium Designer,22.7.1 (60)*
G04*
G04 Layer_Color=32896*
%FSLAX44Y44*%
%MOMM*%
G71*
G04*
G04 #@! TF.SameCoordinates,2F50B947-C67E-4D0A-9455-C6AB2E86B346*
G04*
G04*
G04 #@! TF.FilePolarity,Positive*
G04*
G01*
G75*
%ADD12C,0.2000*%
%ADD13C,0.1500*%
D12*
X232102Y69898D02*
Y75898D01*
X321830Y45000D02*
X310330D01*
X306830Y45250D02*
Y74750D01*
X300330D01*
Y45250D02*
Y74750D01*
X306830Y45250D02*
X300330D01*
X332056Y130887D02*
X333888Y132719D01*
Y136385D01*
X332056Y138218D01*
X324725D01*
X322892Y136385D01*
Y132719D01*
X324725Y130887D01*
Y127221D02*
X322892Y125388D01*
Y121723D01*
X324725Y119890D01*
X332056D01*
X333888Y121723D01*
Y125388D01*
X332056Y127221D01*
X330223D01*
X328390Y125388D01*
Y119890D01*
X246062Y208136D02*
X244229Y209968D01*
X240564D01*
X238731Y208136D01*
Y200805D01*
X240564Y198972D01*
X244229D01*
X246062Y200805D01*
X249728Y198972D02*
X253393D01*
X251560D01*
Y209968D01*
X249728Y208136D01*
X258891Y198972D02*
X262557D01*
X260724D01*
Y209968D01*
X258891Y208136D01*
X285177Y106746D02*
X283344Y108578D01*
X279679D01*
X277846Y106746D01*
Y99415D01*
X279679Y97582D01*
X283344D01*
X285177Y99415D01*
X296174Y97582D02*
X288843D01*
X296174Y104913D01*
Y106746D01*
X294341Y108578D01*
X290676D01*
X288843Y106746D01*
X194146Y99005D02*
X192314Y97172D01*
Y93507D01*
X194146Y91674D01*
X201478D01*
X203310Y93507D01*
Y97172D01*
X201478Y99005D01*
X203310Y108169D02*
X192314D01*
X197812Y102671D01*
Y110002D01*
X209895Y82495D02*
X208062Y80662D01*
Y76997D01*
X209895Y75164D01*
X217225D01*
X219058Y76997D01*
Y80662D01*
X217225Y82495D01*
X208062Y93492D02*
X209895Y89826D01*
X213560Y86161D01*
X217225D01*
X219058Y87993D01*
Y91659D01*
X217225Y93492D01*
X215393D01*
X213560Y91659D01*
Y86161D01*
X229674Y53370D02*
X228008Y55036D01*
X224676D01*
X223009Y53370D01*
Y46706D01*
X224676Y45040D01*
X228008D01*
X229674Y46706D01*
X233006Y55036D02*
X239671D01*
Y53370D01*
X233006Y46706D01*
Y45040D01*
X250788Y82749D02*
X248956Y80917D01*
Y77251D01*
X250788Y75418D01*
X258120D01*
X259952Y77251D01*
Y80917D01*
X258120Y82749D01*
X250788Y86415D02*
X248956Y88247D01*
Y91913D01*
X250788Y93746D01*
X252621D01*
X254454Y91913D01*
X256287Y93746D01*
X258120D01*
X259952Y91913D01*
Y88247D01*
X258120Y86415D01*
X256287D01*
X254454Y88247D01*
X252621Y86415D01*
X250788D01*
X254454Y88247D02*
Y91913D01*
X178398Y81733D02*
X176566Y79900D01*
Y76235D01*
X178398Y74402D01*
X185730D01*
X187562Y76235D01*
Y79900D01*
X185730Y81733D01*
X176566Y92730D02*
Y85399D01*
X182064D01*
X180231Y89064D01*
Y90897D01*
X182064Y92730D01*
X185730D01*
X187562Y90897D01*
Y87231D01*
X185730Y85399D01*
X284361Y195436D02*
X282529Y197268D01*
X278863D01*
X277030Y195436D01*
Y188104D01*
X278863Y186272D01*
X282529D01*
X284361Y188104D01*
X288027Y186272D02*
X291692D01*
X289860D01*
Y197268D01*
X288027Y195436D01*
X297191D02*
X299023Y197268D01*
X302689D01*
X304522Y195436D01*
Y188104D01*
X302689Y186272D01*
X299023D01*
X297191Y188104D01*
Y195436D01*
X254235Y240882D02*
Y251878D01*
X259733D01*
X261566Y250046D01*
Y246380D01*
X259733Y244547D01*
X254235D01*
X257901D02*
X261566Y240882D01*
X265231D02*
X268897D01*
X267064D01*
Y251878D01*
X265231Y250046D01*
X257482Y214212D02*
Y225208D01*
X262980D01*
X264813Y223375D01*
Y219710D01*
X262980Y217877D01*
X257482D01*
X261148D02*
X264813Y214212D01*
X275810D02*
X268479D01*
X275810Y221543D01*
Y223375D01*
X273977Y225208D01*
X270312D01*
X268479Y223375D01*
X289232Y241136D02*
Y252132D01*
X294730D01*
X296563Y250299D01*
Y246634D01*
X294730Y244801D01*
X289232D01*
X292898D02*
X296563Y241136D01*
X300229Y250299D02*
X302062Y252132D01*
X305727D01*
X307560Y250299D01*
Y248467D01*
X305727Y246634D01*
X303894D01*
X305727D01*
X307560Y244801D01*
Y242969D01*
X305727Y241136D01*
X302062D01*
X300229Y242969D01*
X297360Y214974D02*
Y225970D01*
X302859D01*
X304691Y224137D01*
Y220472D01*
X302859Y218639D01*
X297360D01*
X301026D02*
X304691Y214974D01*
X313855D02*
Y225970D01*
X308357Y220472D01*
X315688D01*
X267752Y59207D02*
Y62873D01*
Y61040D01*
X278748D01*
Y59207D01*
Y62873D01*
X269585Y75702D02*
X267752Y73869D01*
Y70204D01*
X269585Y68371D01*
X276915D01*
X278748Y70204D01*
Y73869D01*
X276915Y75702D01*
X278748Y79367D02*
Y83033D01*
Y81200D01*
X267752D01*
X269585Y79367D01*
X225334Y88482D02*
Y81151D01*
X230832D01*
Y84816D01*
Y81151D01*
X236330D01*
X225334Y92147D02*
X236330D01*
Y97646D01*
X234498Y99478D01*
X232665D01*
X230832Y97646D01*
Y92147D01*
Y97646D01*
X228999Y99478D01*
X227167D01*
X225334Y97646D01*
Y92147D01*
X236330Y103144D02*
Y106809D01*
Y104976D01*
X225334D01*
X227167Y103144D01*
D13*
X341931Y233184D02*
Y238182D01*
X343181D01*
X348179Y233184D01*
X349429D01*
Y244430D02*
X341931D01*
X345680Y240681D01*
Y245680D01*
X348434Y60116D02*
Y55118D01*
X343436Y60116D01*
X342186D01*
X340936Y58867D01*
Y56368D01*
X342186Y55118D01*
M02*
