G04*
G04 #@! TF.GenerationSoftware,Altium Limited,Altium Designer,22.7.1 (60)*
G04*
G04 Layer_Color=16711935*
%FSLAX44Y44*%
%MOMM*%
G71*
G04*
G04 #@! TF.SameCoordinates,2F50B947-C67E-4D0A-9455-C6AB2E86B346*
G04*
G04*
G04 #@! TF.FilePolarity,Negative*
G04*
G01*
G75*
%ADD36R,0.4532X0.5532*%
%ADD38R,0.7232X0.7632*%
%ADD39R,0.7832X0.7432*%
%ADD43R,0.7632X0.7232*%
%ADD45R,1.7032X0.5532*%
%ADD46C,1.8282*%
%ADD47C,2.6032*%
%ADD48C,1.7332*%
%ADD49C,1.6492*%
%ADD50R,1.5700X1.5700*%
%ADD51C,1.5700*%
%ADD52C,0.6032*%
%ADD53C,1.4732*%
%ADD79R,0.8532X0.9032*%
%ADD80R,1.3532X0.8032*%
%ADD81R,1.1032X1.0532*%
G36*
X373580Y249250D02*
X373578Y50750D01*
X352580Y50750D01*
X352580Y249250D01*
X373580Y249250D01*
D02*
G37*
G36*
X-34375Y119913D02*
X-32014D01*
X-27350Y120652D01*
X-22859Y122111D01*
X-18652Y124255D01*
X-14832Y127031D01*
X-11493Y130370D01*
X-8717Y134190D01*
X-6573Y138397D01*
X-5114Y142888D01*
X-4375Y147552D01*
Y152274D01*
X-5114Y156938D01*
X-6573Y161429D01*
X-8717Y165637D01*
X-11493Y169457D01*
X-14832Y172796D01*
X-18652Y175572D01*
X-22859Y177715D01*
X-27350Y179175D01*
X-32014Y179913D01*
X-34375D01*
D01*
X-44375Y179913D01*
X-44375Y119913D01*
X-34375Y119913D01*
D02*
G37*
D36*
X283580Y235500D02*
D03*
Y230000D02*
D03*
X273580Y235500D02*
D03*
Y230000D02*
D03*
X293580Y235500D02*
D03*
Y230000D02*
D03*
X303580D02*
D03*
Y235500D02*
D03*
D38*
X193748Y85688D02*
D03*
Y77888D02*
D03*
X301190Y86370D02*
D03*
Y93970D02*
D03*
X203908Y85942D02*
D03*
Y78142D02*
D03*
D39*
X270620Y203200D02*
D03*
X278420D02*
D03*
D43*
X257004Y193040D02*
D03*
X264604D02*
D03*
X228456Y62738D02*
D03*
X236256D02*
D03*
D45*
X361080Y240000D02*
D03*
Y235000D02*
D03*
Y230000D02*
D03*
Y225000D02*
D03*
Y220000D02*
D03*
Y215000D02*
D03*
Y210000D02*
D03*
Y205000D02*
D03*
Y200000D02*
D03*
Y195000D02*
D03*
Y190000D02*
D03*
Y185000D02*
D03*
Y180000D02*
D03*
Y175000D02*
D03*
Y170000D02*
D03*
Y165000D02*
D03*
Y160000D02*
D03*
Y155000D02*
D03*
Y150000D02*
D03*
Y145000D02*
D03*
Y140000D02*
D03*
Y135000D02*
D03*
Y110000D02*
D03*
Y105000D02*
D03*
Y100000D02*
D03*
Y95000D02*
D03*
Y90000D02*
D03*
Y85000D02*
D03*
Y80000D02*
D03*
Y75000D02*
D03*
Y70000D02*
D03*
Y65000D02*
D03*
Y60000D02*
D03*
D46*
X56080Y207010D02*
D03*
Y92710D02*
D03*
D47*
X86580Y227310D02*
D03*
Y72410D02*
D03*
D48*
X10380Y217160D02*
D03*
Y191760D02*
D03*
Y107960D02*
D03*
Y82560D02*
D03*
D49*
X119580Y207010D02*
D03*
X144980Y194310D02*
D03*
X119580Y181610D02*
D03*
X144980Y168910D02*
D03*
X119580Y156210D02*
D03*
X144980Y143510D02*
D03*
X119580Y130810D02*
D03*
X144980Y118110D02*
D03*
X119580Y105410D02*
D03*
X144980Y92710D02*
D03*
D50*
X141932Y244856D02*
D03*
X112722Y54610D02*
D03*
D51*
X167332Y244856D02*
D03*
X192732D02*
D03*
X218132D02*
D03*
X138122Y54610D02*
D03*
X163522D02*
D03*
X188922D02*
D03*
D52*
X279346Y134366D02*
D03*
X248104Y165608D02*
D03*
X194256Y94488D02*
D03*
X202130Y109220D02*
D03*
Y160020D02*
D03*
X347926Y137922D02*
D03*
X347940Y149860D02*
D03*
X346148Y182626D02*
D03*
Y197358D02*
D03*
X347926Y167640D02*
D03*
X237944Y235458D02*
D03*
X327606Y65532D02*
D03*
X316684Y154432D02*
D03*
X346148Y99822D02*
D03*
X270564Y245065D02*
D03*
X242770Y64770D02*
D03*
X338528Y139192D02*
D03*
X289868Y109937D02*
D03*
X235404Y113538D02*
D03*
X217224Y176739D02*
D03*
X264436Y201176D02*
D03*
X325574Y226568D02*
D03*
X330654Y140970D02*
D03*
X249374Y195072D02*
D03*
X273580Y190000D02*
D03*
X346148Y226822D02*
D03*
Y213106D02*
D03*
X348434Y76200D02*
D03*
X291030Y203520D02*
D03*
X298650Y205740D02*
D03*
X7566Y139192D02*
D03*
Y159512D02*
D03*
X284172Y60452D02*
D03*
Y87630D02*
D03*
X48968Y139192D02*
D03*
Y159512D02*
D03*
X67256Y139192D02*
D03*
Y159512D02*
D03*
X241754Y45720D02*
D03*
X328876Y59944D02*
D03*
X279211Y222240D02*
D03*
X285950Y217750D02*
D03*
X315414Y242062D02*
D03*
X342338Y59944D02*
D03*
X53794Y249682D02*
D03*
X48968Y245618D02*
D03*
X75892Y253815D02*
D03*
X258010Y228600D02*
D03*
X308810Y124460D02*
D03*
X306270Y138430D02*
D03*
X25600Y64770D02*
D03*
X303662Y126932D02*
D03*
X269440Y106680D02*
D03*
X218640Y148140D02*
D03*
X223720Y135890D02*
D03*
X275790Y104140D02*
D03*
X303580Y160000D02*
D03*
X308810Y119160D02*
D03*
X319980Y121270D02*
D03*
X273250Y52070D02*
D03*
D53*
X263580Y150000D02*
D03*
D79*
X225352Y72898D02*
D03*
X238852D02*
D03*
D80*
X291080Y50500D02*
D03*
X316080D02*
D03*
Y60000D02*
D03*
Y69500D02*
D03*
X291080D02*
D03*
D81*
X252930Y53190D02*
D03*
Y66190D02*
D03*
X328114Y96116D02*
D03*
Y109116D02*
D03*
X212290Y66190D02*
D03*
Y53190D02*
D03*
M02*
