G04*
G04 #@! TF.GenerationSoftware,Altium Limited,Altium Designer,22.11.1 (43)*
G04*
G04 Layer_Physical_Order=3*
G04 Layer_Color=128*
%FSLAX44Y44*%
%MOMM*%
G71*
G04*
G04 #@! TF.SameCoordinates,238175EB-3BB2-4886-BFDA-CBBE0BB03E55*
G04*
G04*
G04 #@! TF.FilePolarity,Negative*
G04*
G01*
G75*
%ADD14C,0.1500*%
%ADD42C,1.0160*%
%ADD43C,1.2080*%
G04:AMPARAMS|DCode=44|XSize=2.224mm|YSize=2.224mm|CornerRadius=0mm|HoleSize=0mm|Usage=FLASHONLY|Rotation=0.000|XOffset=0mm|YOffset=0mm|HoleType=Round|Shape=Relief|Width=0.254mm|Gap=0.254mm|Entries=4|*
%AMTHD44*
7,0,0,2.2240,1.7160,0.2540,45*
%
%ADD44THD44*%
%ADD45C,1.6080*%
G04:AMPARAMS|DCode=46|XSize=2.624mm|YSize=2.624mm|CornerRadius=0mm|HoleSize=0mm|Usage=FLASHONLY|Rotation=0.000|XOffset=0mm|YOffset=0mm|HoleType=Round|Shape=Relief|Width=0.254mm|Gap=0.254mm|Entries=4|*
%AMTHD46*
7,0,0,2.6240,2.1160,0.2540,45*
%
%ADD46THD46*%
%ADD47C,0.7080*%
%ADD48C,0.8080*%
D14*
X408335Y217500D02*
X407502Y218333D01*
Y219999D01*
X408335Y220832D01*
X409168D01*
X410001Y219999D01*
Y219166D01*
Y219999D01*
X410834Y220832D01*
X411667D01*
X412500Y219999D01*
Y218333D01*
X411667Y217500D01*
D42*
X406000Y150000D02*
G03*
X420000Y136000I14000J-0D01*
G01*
X420000Y164000D02*
G03*
X406000Y150000I0J-14000D01*
G01*
X35000Y249250D02*
G03*
X40000Y254250I0J5000D01*
G01*
X35000Y123750D02*
G03*
X29000Y129750I-6000J0D01*
G01*
X29000Y117750D02*
G03*
X35000Y123750I0J6000D01*
G01*
X40000Y45750D02*
G03*
X35000Y50750I-5000J0D01*
G01*
X40000Y42500D02*
X42500Y40000D01*
X417500D01*
X420000Y42500D01*
Y136000D01*
Y164000D02*
Y257376D01*
X417500Y259876D02*
X420000Y257376D01*
X42500Y259876D02*
X417500D01*
X40000Y257125D02*
X42500Y259876D01*
X40000Y254250D02*
Y257125D01*
X0Y249250D02*
X35000D01*
X0Y129750D02*
Y249250D01*
Y129750D02*
X29000D01*
X0Y117750D02*
X29000D01*
X0Y50750D02*
Y117750D01*
Y50750D02*
X35000D01*
X40000Y42500D02*
Y45750D01*
D43*
X235400Y221150D02*
D03*
X222700Y233850D02*
D03*
X210000D02*
D03*
X222700Y221150D02*
D03*
X210000D02*
D03*
X197300Y233850D02*
D03*
X184600D02*
D03*
X197300Y221150D02*
D03*
X184600D02*
D03*
D44*
X235400Y233850D02*
D03*
D45*
X252700Y60000D02*
D03*
X227300D02*
D03*
X201900D02*
D03*
X342700Y73800D02*
D03*
Y99200D02*
D03*
X317300D02*
D03*
X342700Y124600D02*
D03*
X317300D02*
D03*
X342700Y200800D02*
D03*
X317300D02*
D03*
X342700Y226200D02*
D03*
X317300Y175400D02*
D03*
X342700D02*
D03*
X317300Y150000D02*
D03*
X342700D02*
D03*
X110000Y60000D02*
D03*
X160800D02*
D03*
X135400D02*
D03*
X84600D02*
D03*
X59200D02*
D03*
D46*
X278100D02*
D03*
X317300Y73800D02*
D03*
Y226200D02*
D03*
D47*
X140000Y147500D02*
D03*
X32500Y192500D02*
D03*
X27500Y187500D02*
D03*
X32500Y177500D02*
D03*
X27553Y172447D02*
D03*
X45000Y202500D02*
D03*
X142500Y157500D02*
D03*
X190000Y146000D02*
D03*
Y154000D02*
D03*
Y178000D02*
D03*
Y170000D02*
D03*
X208000Y202000D02*
D03*
X272500Y154000D02*
D03*
X127500Y120000D02*
D03*
X190000Y162000D02*
D03*
Y130000D02*
D03*
X224000Y119000D02*
D03*
X216000D02*
D03*
X240000D02*
D03*
X232000D02*
D03*
X190000Y138000D02*
D03*
D48*
X30000Y102500D02*
D03*
Y160000D02*
D03*
Y145000D02*
D03*
X95000Y187500D02*
D03*
Y149500D02*
D03*
X30000Y205000D02*
D03*
Y87500D02*
D03*
X70000Y252500D02*
D03*
X55000D02*
D03*
X95000Y232500D02*
D03*
Y222500D02*
D03*
X105000D02*
D03*
Y232500D02*
D03*
X85000Y222500D02*
D03*
Y232500D02*
D03*
Y242500D02*
D03*
Y252500D02*
D03*
X30000Y220000D02*
D03*
X37500Y72500D02*
D03*
X45000Y80000D02*
D03*
X170000Y104000D02*
D03*
X285000Y75000D02*
D03*
X382500Y220000D02*
D03*
X272500Y165000D02*
D03*
X257500Y197500D02*
D03*
X272500D02*
D03*
X95000Y117500D02*
D03*
M02*
