G04*
G04 #@! TF.GenerationSoftware,Altium Limited,Altium Designer,22.11.1 (43)*
G04*
G04 Layer_Color=32896*
%FSLAX44Y44*%
%MOMM*%
G71*
G04*
G04 #@! TF.SameCoordinates,238175EB-3BB2-4886-BFDA-CBBE0BB03E55*
G04*
G04*
G04 #@! TF.FilePolarity,Positive*
G04*
G01*
G75*
%ADD61C,0.0000*%
D61*
X406000Y150000D02*
G03*
X420000Y136000I14000J0D01*
G01*
X420000Y164000D02*
G03*
X406000Y150000I0J-14000D01*
G01*
X35000Y249250D02*
G03*
X40000Y254250I0J5000D01*
G01*
X35000Y123750D02*
G03*
X29000Y129750I-6000J0D01*
G01*
X29000Y117750D02*
G03*
X35000Y123750I0J6000D01*
G01*
X40000Y45750D02*
G03*
X35000Y50750I-5000J0D01*
G01*
X40000Y42500D02*
X42500Y40000D01*
X417500D01*
X420000Y42500D01*
Y136000D01*
Y164000D02*
Y257376D01*
X417500Y259876D02*
X420000Y257376D01*
X42500Y259876D02*
X417500D01*
X40000Y257125D02*
X42500Y259876D01*
X40000Y254250D02*
Y257125D01*
X0Y249250D02*
X35000D01*
X0Y129750D02*
Y249250D01*
Y129750D02*
X29000D01*
X0Y117750D02*
X29000D01*
X0Y50750D02*
Y117750D01*
Y50750D02*
X35000D01*
X40000Y42500D02*
Y45750D01*
M02*
