G04*
G04 #@! TF.GenerationSoftware,Altium Limited,Altium Designer,22.11.1 (43)*
G04*
G04 Layer_Color=128*
%FSLAX44Y44*%
%MOMM*%
G71*
G04*
G04 #@! TF.SameCoordinates,238175EB-3BB2-4886-BFDA-CBBE0BB03E55*
G04*
G04*
G04 #@! TF.FilePolarity,Positive*
G04*
G01*
G75*
%ADD15R,1.5000X0.3500*%
%ADD22R,1.1000X1.2500*%
%ADD23R,0.8121X0.9311*%
G04:AMPARAMS|DCode=49|XSize=0.6mm|YSize=1.05mm|CornerRadius=0.15mm|HoleSize=0mm|Usage=FLASHONLY|Rotation=270.000|XOffset=0mm|YOffset=0mm|HoleType=Round|Shape=RoundedRectangle|*
%AMROUNDEDRECTD49*
21,1,0.6000,0.7500,0,0,270.0*
21,1,0.3000,1.0500,0,0,270.0*
1,1,0.3000,-0.3750,-0.1500*
1,1,0.3000,-0.3750,0.1500*
1,1,0.3000,0.3750,0.1500*
1,1,0.3000,0.3750,-0.1500*
%
%ADD49ROUNDEDRECTD49*%
G04:AMPARAMS|DCode=50|XSize=1.87mm|YSize=1.05mm|CornerRadius=0.2625mm|HoleSize=0mm|Usage=FLASHONLY|Rotation=270.000|XOffset=0mm|YOffset=0mm|HoleType=Round|Shape=RoundedRectangle|*
%AMROUNDEDRECTD50*
21,1,1.8700,0.5250,0,0,270.0*
21,1,1.3450,1.0500,0,0,270.0*
1,1,0.5250,-0.2625,-0.6725*
1,1,0.5250,-0.2625,0.6725*
1,1,0.5250,0.2625,0.6725*
1,1,0.5250,0.2625,-0.6725*
%
%ADD50ROUNDEDRECTD50*%
%ADD51O,0.5000X1.2000*%
%ADD52O,1.2000X0.5000*%
%ADD53R,1.2000X0.5000*%
%ADD54R,0.9311X0.8121*%
D15*
X12500Y60000D02*
D03*
Y65000D02*
D03*
Y70000D02*
D03*
Y75000D02*
D03*
Y80000D02*
D03*
Y85000D02*
D03*
Y90000D02*
D03*
Y95000D02*
D03*
Y100000D02*
D03*
Y105000D02*
D03*
Y110000D02*
D03*
Y135000D02*
D03*
Y140000D02*
D03*
Y145000D02*
D03*
Y150000D02*
D03*
Y155000D02*
D03*
Y160000D02*
D03*
Y165000D02*
D03*
Y170000D02*
D03*
Y175000D02*
D03*
Y180000D02*
D03*
Y185000D02*
D03*
Y190000D02*
D03*
Y195000D02*
D03*
Y200000D02*
D03*
Y205000D02*
D03*
Y210000D02*
D03*
Y215000D02*
D03*
Y220000D02*
D03*
Y225000D02*
D03*
Y230000D02*
D03*
Y235000D02*
D03*
Y240000D02*
D03*
D22*
X157500Y104000D02*
D03*
X157500Y121000D02*
D03*
X285000Y149000D02*
D03*
Y166000D02*
D03*
D23*
X137500Y242905D02*
D03*
Y232095D02*
D03*
X52500Y242905D02*
D03*
Y232095D02*
D03*
X297500Y59595D02*
D03*
Y70405D02*
D03*
D49*
X121750Y244050D02*
D03*
Y205950D02*
D03*
X68250D02*
D03*
Y244050D02*
D03*
D50*
X121750Y225000D02*
D03*
X68250D02*
D03*
D51*
X248000Y192500D02*
D03*
X240000Y192500D02*
D03*
X232000Y192500D02*
D03*
X224000D02*
D03*
X216000D02*
D03*
X208000D02*
D03*
X200000D02*
D03*
X192000D02*
D03*
Y107500D02*
D03*
X200000D02*
D03*
X208000D02*
D03*
X216000D02*
D03*
X224000D02*
D03*
X232000D02*
D03*
X240000D02*
D03*
X248000D02*
D03*
D52*
X177500Y178000D02*
D03*
Y170000D02*
D03*
Y162000D02*
D03*
Y154000D02*
D03*
Y146000D02*
D03*
Y138000D02*
D03*
Y130000D02*
D03*
Y122000D02*
D03*
X262500D02*
D03*
Y130000D02*
D03*
Y138000D02*
D03*
Y146000D02*
D03*
Y154000D02*
D03*
Y162000D02*
D03*
X262500Y170000D02*
D03*
D53*
X262500Y178000D02*
D03*
D54*
X335405Y55000D02*
D03*
X324595D02*
D03*
Y245000D02*
D03*
X335405D02*
D03*
M02*
