G04*
G04 #@! TF.GenerationSoftware,Altium Limited,Altium Designer,22.11.1 (43)*
G04*
G04 Layer_Color=32896*
%FSLAX44Y44*%
%MOMM*%
G71*
G04*
G04 #@! TF.SameCoordinates,238175EB-3BB2-4886-BFDA-CBBE0BB03E55*
G04*
G04*
G04 #@! TF.FilePolarity,Positive*
G04*
G01*
G75*
%ADD10C,0.2500*%
%ADD11C,0.2540*%
%ADD12C,0.2000*%
%ADD14C,0.1500*%
%ADD60C,0.6000*%
G36*
X417500Y45000D02*
X352500D01*
Y65000D01*
X417500D01*
Y45000D01*
D02*
G37*
%LPC*%
G36*
X400480Y63157D02*
D01*
Y47144D01*
X394279Y63157D01*
X384422D01*
X390854D01*
X384422Y47144D01*
D01*
X387916D01*
X389304Y50777D01*
X395737D01*
X397056Y47144D01*
X394908D01*
X400480D01*
Y63157D01*
D02*
G37*
G36*
X382686D02*
X368293D01*
D01*
X375467D01*
X375258Y63134D01*
X375004D01*
X374749Y63110D01*
X374448D01*
X373847Y63041D01*
X373222Y62972D01*
X372644Y62856D01*
X372389Y62786D01*
X372158Y62717D01*
X372135D01*
X372111Y62694D01*
X371973Y62624D01*
X371764Y62509D01*
X371487Y62370D01*
X371186Y62139D01*
X370885Y61884D01*
X370584Y61560D01*
X370307Y61167D01*
Y61143D01*
X370283Y61120D01*
X370237Y61051D01*
X370191Y60981D01*
X370075Y60750D01*
X369936Y60449D01*
X369821Y60079D01*
X369705Y59663D01*
X369612Y59177D01*
X369589Y58668D01*
Y58644D01*
Y58598D01*
Y58482D01*
X369612Y58367D01*
Y58205D01*
X369635Y58043D01*
X369728Y57626D01*
X369844Y57140D01*
X370029Y56655D01*
X370307Y56145D01*
X370468Y55914D01*
X370654Y55683D01*
X370677Y55659D01*
X370700Y55636D01*
X370769Y55567D01*
X370862Y55497D01*
X370954Y55405D01*
X371093Y55289D01*
X371255Y55174D01*
X371440Y55058D01*
X371649Y54919D01*
X371903Y54803D01*
X372158Y54688D01*
X372435Y54572D01*
X372759Y54456D01*
X373083Y54364D01*
X373430Y54271D01*
X373824Y54202D01*
X373801D01*
X373777Y54179D01*
X373638Y54086D01*
X373453Y53970D01*
X373222Y53808D01*
X372944Y53600D01*
X372667Y53392D01*
X372366Y53137D01*
X372111Y52860D01*
X372088Y52836D01*
X371973Y52721D01*
X371834Y52536D01*
X371625Y52258D01*
X371348Y51911D01*
X371209Y51680D01*
X371047Y51448D01*
X370862Y51194D01*
X370677Y50916D01*
X370468Y50592D01*
X370260Y50268D01*
X368293Y47144D01*
D01*
X372181D01*
X374495Y50615D01*
X374518Y50638D01*
X374541Y50708D01*
X374610Y50800D01*
X374703Y50916D01*
X374795Y51055D01*
X374911Y51240D01*
X375166Y51610D01*
X375467Y52027D01*
X375744Y52397D01*
X375999Y52744D01*
X376115Y52860D01*
X376207Y52975D01*
X376230Y52998D01*
X376276Y53045D01*
X376369Y53137D01*
X376485Y53253D01*
X376647Y53345D01*
X376809Y53461D01*
X376994Y53554D01*
X377179Y53646D01*
X377202D01*
X377271Y53670D01*
X377387Y53716D01*
X377572Y53739D01*
X377804Y53785D01*
X378081Y53808D01*
X378405Y53832D01*
X379446D01*
Y47144D01*
X382686D01*
Y63157D01*
D02*
G37*
G36*
X367669D02*
X354965D01*
Y60449D01*
X359686D01*
Y47144D01*
X362925D01*
Y60449D01*
X367669D01*
Y47144D01*
D01*
D01*
Y63157D01*
D02*
G37*
G36*
X415035D02*
X402262D01*
Y54017D01*
X402285Y53739D01*
Y53438D01*
Y53137D01*
X402331Y52466D01*
X402378Y51772D01*
X402401Y51471D01*
X402447Y51170D01*
X402493Y50893D01*
X402540Y50638D01*
Y50615D01*
X402563Y50592D01*
Y50522D01*
X402586Y50453D01*
X402655Y50222D01*
X402748Y49944D01*
X402887Y49620D01*
X403049Y49296D01*
X403257Y48949D01*
X403512Y48625D01*
X403535Y48579D01*
X403627Y48486D01*
X403789Y48347D01*
X403997Y48162D01*
X404275Y47954D01*
X404599Y47746D01*
X404969Y47514D01*
X405386Y47329D01*
X405409D01*
X405432Y47306D01*
X405502Y47283D01*
X405594Y47260D01*
X405710Y47214D01*
X405849Y47167D01*
X406034Y47121D01*
X406219Y47098D01*
X406659Y47005D01*
X407191Y46913D01*
X407792Y46866D01*
X408463Y46843D01*
X408834D01*
X409042Y46866D01*
X409250D01*
X409505Y46890D01*
X409759Y46913D01*
X410314Y46959D01*
X410893Y47052D01*
X411471Y47190D01*
X411726Y47260D01*
X411957Y47352D01*
X411981D01*
X412004Y47376D01*
X412142Y47445D01*
X412374Y47561D01*
X412628Y47723D01*
X412929Y47931D01*
X413253Y48162D01*
X413554Y48440D01*
X413832Y48741D01*
X413855Y48787D01*
X413947Y48880D01*
X414063Y49065D01*
X414202Y49296D01*
X414341Y49551D01*
X414503Y49851D01*
X414618Y50175D01*
X414734Y50522D01*
Y50546D01*
X414757Y50592D01*
Y50661D01*
X414780Y50777D01*
X414804Y50916D01*
X414827Y51101D01*
X414850Y51309D01*
X414873Y51541D01*
X414919Y51818D01*
X414942Y52119D01*
X414966Y52443D01*
X414989Y52813D01*
X415012Y53207D01*
Y53646D01*
X415035Y54109D01*
Y46843D01*
X415035D01*
X415035D01*
Y63157D01*
D02*
G37*
%LPD*%
G36*
X394765Y53484D02*
X390345D01*
X392590Y59431D01*
X394765Y53484D01*
D02*
G37*
G36*
X379446Y56377D02*
X376300D01*
X375837Y56400D01*
X375351Y56423D01*
X374865Y56446D01*
X374657Y56469D01*
X374472Y56493D01*
X374286Y56539D01*
X374171Y56562D01*
X374148D01*
X374078Y56608D01*
X373963Y56655D01*
X373847Y56724D01*
X373546Y56932D01*
X373407Y57071D01*
X373268Y57233D01*
X373245Y57256D01*
X373222Y57326D01*
X373153Y57418D01*
X373083Y57557D01*
X373037Y57742D01*
X372967Y57950D01*
X372944Y58182D01*
X372921Y58436D01*
Y58482D01*
Y58575D01*
X372944Y58714D01*
X372967Y58899D01*
X373037Y59107D01*
X373106Y59316D01*
X373222Y59547D01*
X373361Y59732D01*
X373384Y59755D01*
X373430Y59825D01*
X373546Y59894D01*
X373685Y60010D01*
X373847Y60125D01*
X374055Y60218D01*
X374310Y60311D01*
X374587Y60380D01*
X374610D01*
X374680Y60403D01*
X374819D01*
X375027Y60426D01*
X375536D01*
X375744Y60449D01*
X379446D01*
Y56377D01*
D02*
G37*
G36*
X411795Y54456D02*
Y54433D01*
Y54364D01*
Y54271D01*
Y54132D01*
Y53947D01*
Y53762D01*
X411772Y53345D01*
Y52883D01*
X411749Y52443D01*
X411726Y52235D01*
Y52050D01*
X411703Y51911D01*
X411680Y51772D01*
Y51726D01*
X411633Y51610D01*
X411564Y51425D01*
X411471Y51194D01*
X411356Y50939D01*
X411171Y50684D01*
X410962Y50407D01*
X410708Y50175D01*
X410662Y50152D01*
X410569Y50083D01*
X410384Y49990D01*
X410153Y49898D01*
X409829Y49782D01*
X409458Y49689D01*
X409042Y49620D01*
X408556Y49597D01*
X408325D01*
X408093Y49620D01*
X407792Y49666D01*
X407445Y49736D01*
X407121Y49828D01*
X406774Y49967D01*
X406497Y50152D01*
X406473Y50175D01*
X406381Y50245D01*
X406265Y50361D01*
X406126Y50522D01*
X405987Y50731D01*
X405849Y50962D01*
X405733Y51217D01*
X405663Y51518D01*
Y51564D01*
X405640Y51680D01*
X405617Y51888D01*
X405571Y52165D01*
Y52351D01*
X405548Y52559D01*
Y52790D01*
X405525Y53022D01*
Y53299D01*
X405502Y53600D01*
Y53924D01*
Y54271D01*
Y63157D01*
X411795D01*
Y54456D01*
D02*
G37*
D10*
X263750Y186000D02*
G03*
X263750Y186000I-1250J0D01*
G01*
D11*
X126270Y255000D02*
G03*
X126270Y255000I-1270J0D01*
G01*
X80000Y250100D02*
X110000D01*
X80000Y199900D02*
X110000D01*
X80000D02*
Y250100D01*
X110000Y199900D02*
Y250100D01*
X153331Y218332D02*
X154998Y219998D01*
X158330D01*
X159996Y218332D01*
Y211668D01*
X158330Y210002D01*
X154998D01*
X153331Y211668D01*
X149999Y210002D02*
X146667D01*
X148333D01*
Y219998D01*
X149999Y218332D01*
X141669D02*
X140002Y219998D01*
X136670D01*
X135004Y218332D01*
Y216666D01*
X136670Y215000D01*
X138336D01*
X136670D01*
X135004Y213334D01*
Y211668D01*
X136670Y210002D01*
X140002D01*
X141669Y211668D01*
X53331Y218332D02*
X54998Y219998D01*
X58330D01*
X59996Y218332D01*
Y211668D01*
X58330Y210002D01*
X54998D01*
X53331Y211668D01*
X49999Y210002D02*
X46667D01*
X48333D01*
Y219998D01*
X49999Y218332D01*
X35004Y210002D02*
X41669D01*
X35004Y216666D01*
Y218332D01*
X36670Y219998D01*
X40002D01*
X41669Y218332D01*
X118331Y192498D02*
Y184168D01*
X116664Y182502D01*
X113332D01*
X111666Y184168D01*
Y192498D01*
X108334Y190832D02*
X106668Y192498D01*
X103336D01*
X101669Y190832D01*
Y189166D01*
X103336Y187500D01*
X105002D01*
X103336D01*
X101669Y185834D01*
Y184168D01*
X103336Y182502D01*
X106668D01*
X108334Y184168D01*
X374165Y78332D02*
X375831Y79998D01*
X379164D01*
X380830Y78332D01*
Y71668D01*
X379164Y70002D01*
X375831D01*
X374165Y71668D01*
X370833Y70002D02*
X367501D01*
X369167D01*
Y79998D01*
X370833Y78332D01*
X362502Y70002D02*
X359170D01*
X360836D01*
Y79998D01*
X362502Y78332D01*
X305832Y248332D02*
X307498Y249998D01*
X310830D01*
X312496Y248332D01*
Y241668D01*
X310830Y240002D01*
X307498D01*
X305832Y241668D01*
X302499Y240002D02*
X299167D01*
X300833D01*
Y249998D01*
X302499Y248332D01*
X294169D02*
X292502Y249998D01*
X289170D01*
X287504Y248332D01*
Y241668D01*
X289170Y240002D01*
X292502D01*
X294169Y241668D01*
Y248332D01*
X136666Y108332D02*
X138332Y109998D01*
X141664D01*
X143331Y108332D01*
Y101668D01*
X141664Y100002D01*
X138332D01*
X136666Y101668D01*
X133334D02*
X131668Y100002D01*
X128336D01*
X126669Y101668D01*
Y108332D01*
X128336Y109998D01*
X131668D01*
X133334Y108332D01*
Y106666D01*
X131668Y105000D01*
X126669D01*
X291666Y188332D02*
X293332Y189998D01*
X296665D01*
X298331Y188332D01*
Y181668D01*
X296665Y180002D01*
X293332D01*
X291666Y181668D01*
X281669Y189998D02*
X285002Y188332D01*
X288334Y185000D01*
Y181668D01*
X286668Y180002D01*
X283335D01*
X281669Y181668D01*
Y183334D01*
X283335Y185000D01*
X288334D01*
X296666Y90832D02*
X298332Y92498D01*
X301665D01*
X303331Y90832D01*
Y84168D01*
X301665Y82502D01*
X298332D01*
X296666Y84168D01*
X286669Y92498D02*
X293334D01*
Y87500D01*
X290002Y89166D01*
X288335D01*
X286669Y87500D01*
Y84168D01*
X288335Y82502D01*
X291668D01*
X293334Y84168D01*
X181665Y199998D02*
Y191668D01*
X179998Y190002D01*
X176666D01*
X175000Y191668D01*
Y199998D01*
X171668Y190002D02*
X168335D01*
X170002D01*
Y199998D01*
X171668Y198332D01*
D12*
X146000Y227439D02*
Y247561D01*
X129000Y227439D02*
Y247561D01*
X61000Y227439D02*
Y247561D01*
X44000Y227439D02*
Y247561D01*
X189000Y119000D02*
X251000D01*
X189000Y181000D02*
X251000D01*
X189000Y119000D02*
Y181000D01*
X251000Y119000D02*
Y181000D01*
X319939Y46500D02*
X340061D01*
X319939Y63500D02*
X340061D01*
X289000Y54939D02*
Y75061D01*
X306000Y54939D02*
Y75061D01*
X319939Y253500D02*
X340061D01*
X319939Y236500D02*
X340061D01*
D14*
X23500Y60998D02*
Y56000D01*
X28498Y60998D01*
X29748D01*
X30998Y59749D01*
Y57250D01*
X29748Y56000D01*
X31649Y233184D02*
Y238182D01*
X30399D01*
X25401Y233184D01*
X24151D01*
Y244430D02*
X31649D01*
X27900Y240681D01*
Y245680D01*
D60*
X244000Y171000D02*
G03*
X244000Y171000I-3000J0D01*
G01*
M02*
