G04*
G04 #@! TF.GenerationSoftware,Altium Limited,Altium Designer,22.11.1 (43)*
G04*
G04 Layer_Color=16711935*
%FSLAX44Y44*%
%MOMM*%
G71*
G04*
G04 #@! TF.SameCoordinates,238175EB-3BB2-4886-BFDA-CBBE0BB03E55*
G04*
G04*
G04 #@! TF.FilePolarity,Negative*
G04*
G01*
G75*
%ADD23R,0.8121X0.9311*%
%ADD24R,1.7032X0.5532*%
%ADD26R,1.3032X1.4532*%
%ADD27C,1.2532*%
%ADD28C,1.8032*%
%ADD29R,1.8032X1.8032*%
%ADD30C,1.8532*%
%ADD31R,1.8532X1.8532*%
%ADD54R,0.9311X0.8121*%
G04:AMPARAMS|DCode=55|XSize=0.8032mm|YSize=1.2532mm|CornerRadius=0.2516mm|HoleSize=0mm|Usage=FLASHONLY|Rotation=270.000|XOffset=0mm|YOffset=0mm|HoleType=Round|Shape=RoundedRectangle|*
%AMROUNDEDRECTD55*
21,1,0.8032,0.7500,0,0,270.0*
21,1,0.3000,1.2532,0,0,270.0*
1,1,0.5032,-0.3750,-0.1500*
1,1,0.5032,-0.3750,0.1500*
1,1,0.5032,0.3750,0.1500*
1,1,0.5032,0.3750,-0.1500*
%
%ADD55ROUNDEDRECTD55*%
G04:AMPARAMS|DCode=56|XSize=2.0732mm|YSize=1.2532mm|CornerRadius=0.3641mm|HoleSize=0mm|Usage=FLASHONLY|Rotation=270.000|XOffset=0mm|YOffset=0mm|HoleType=Round|Shape=RoundedRectangle|*
%AMROUNDEDRECTD56*
21,1,2.0732,0.5250,0,0,270.0*
21,1,1.3450,1.2532,0,0,270.0*
1,1,0.7282,-0.2625,-0.6725*
1,1,0.7282,-0.2625,0.6725*
1,1,0.7282,0.2625,0.6725*
1,1,0.7282,0.2625,-0.6725*
%
%ADD56ROUNDEDRECTD56*%
%ADD57O,0.7032X1.4032*%
%ADD58O,1.4032X0.7032*%
%ADD59R,1.4032X0.7032*%
G36*
X-0Y249250D02*
X2Y50750D01*
X21000Y50750D01*
X21000Y249250D01*
X-0Y249250D01*
D02*
G37*
G36*
X410000Y120000D02*
X407639D01*
X402975Y120739D01*
X398484Y122198D01*
X394277Y124342D01*
X390456Y127117D01*
X387117Y130456D01*
X384342Y134277D01*
X382198Y138484D01*
X380739Y142975D01*
X380000Y147639D01*
Y152361D01*
X380739Y157025D01*
X382198Y161516D01*
X384342Y165723D01*
X387117Y169544D01*
X390456Y172883D01*
X394277Y175658D01*
X398484Y177802D01*
X402975Y179261D01*
X407639Y180000D01*
X410000D01*
D01*
X420000Y180000D01*
X420000Y120000D01*
X410000Y120000D01*
D02*
G37*
D23*
X137500Y242905D02*
D03*
Y232095D02*
D03*
X52500Y242905D02*
D03*
Y232095D02*
D03*
X297500Y59595D02*
D03*
Y70405D02*
D03*
D24*
X12500Y60000D02*
D03*
Y65000D02*
D03*
Y70000D02*
D03*
Y75000D02*
D03*
Y80000D02*
D03*
Y85000D02*
D03*
Y90000D02*
D03*
Y95000D02*
D03*
Y100000D02*
D03*
Y105000D02*
D03*
Y110000D02*
D03*
Y135000D02*
D03*
Y140000D02*
D03*
Y145000D02*
D03*
Y150000D02*
D03*
Y155000D02*
D03*
Y160000D02*
D03*
Y165000D02*
D03*
Y170000D02*
D03*
Y175000D02*
D03*
Y180000D02*
D03*
Y185000D02*
D03*
Y190000D02*
D03*
Y195000D02*
D03*
Y200000D02*
D03*
Y205000D02*
D03*
Y210000D02*
D03*
Y215000D02*
D03*
Y220000D02*
D03*
Y225000D02*
D03*
Y230000D02*
D03*
Y235000D02*
D03*
Y240000D02*
D03*
D26*
X157500Y104000D02*
D03*
X157500Y121000D02*
D03*
X285000Y149000D02*
D03*
Y166000D02*
D03*
D27*
X235400Y233850D02*
D03*
Y221150D02*
D03*
X222700Y233850D02*
D03*
X210000D02*
D03*
X222700Y221150D02*
D03*
X210000D02*
D03*
X197300Y233850D02*
D03*
X184600D02*
D03*
X197300Y221150D02*
D03*
X184600D02*
D03*
D28*
X252700Y60000D02*
D03*
X227300D02*
D03*
X201900D02*
D03*
X110000D02*
D03*
X135400D02*
D03*
X84600D02*
D03*
X59200D02*
D03*
D29*
X278100D02*
D03*
X160800D02*
D03*
D30*
X342700Y73800D02*
D03*
Y99200D02*
D03*
X317300Y73800D02*
D03*
Y99200D02*
D03*
X342700Y124600D02*
D03*
X317300D02*
D03*
X342700Y200800D02*
D03*
X317300D02*
D03*
X342700Y226200D02*
D03*
X317300Y175400D02*
D03*
X342700D02*
D03*
X317300Y150000D02*
D03*
X342700D02*
D03*
D31*
X317300Y226200D02*
D03*
D54*
X335405Y55000D02*
D03*
X324595D02*
D03*
Y245000D02*
D03*
X335405D02*
D03*
D55*
X121750Y244050D02*
D03*
Y205950D02*
D03*
X68250D02*
D03*
Y244050D02*
D03*
D56*
X121750Y225000D02*
D03*
X68250D02*
D03*
D57*
X248000Y192500D02*
D03*
X240000Y192500D02*
D03*
X232000Y192500D02*
D03*
X224000D02*
D03*
X216000D02*
D03*
X208000D02*
D03*
X200000D02*
D03*
X192000D02*
D03*
Y107500D02*
D03*
X200000D02*
D03*
X208000D02*
D03*
X216000D02*
D03*
X224000D02*
D03*
X232000D02*
D03*
X240000D02*
D03*
X248000D02*
D03*
D58*
X177500Y178000D02*
D03*
Y170000D02*
D03*
Y162000D02*
D03*
Y154000D02*
D03*
Y146000D02*
D03*
Y138000D02*
D03*
Y130000D02*
D03*
Y122000D02*
D03*
X262500D02*
D03*
Y130000D02*
D03*
Y138000D02*
D03*
Y146000D02*
D03*
Y154000D02*
D03*
Y162000D02*
D03*
X262500Y170000D02*
D03*
D59*
X262500Y178000D02*
D03*
M02*
