G04*
G04 #@! TF.GenerationSoftware,Altium Limited,Altium Designer,22.11.1 (43)*
G04*
G04 Layer_Physical_Order=4*
G04 Layer_Color=16711680*
%FSLAX44Y44*%
%MOMM*%
G71*
G04*
G04 #@! TF.SameCoordinates,238175EB-3BB2-4886-BFDA-CBBE0BB03E55*
G04*
G04*
G04 #@! TF.FilePolarity,Positive*
G04*
G01*
G75*
%ADD14C,0.1500*%
%ADD15R,1.5000X0.3500*%
%ADD22R,1.1000X1.2500*%
%ADD23R,0.8121X0.9311*%
%ADD32C,0.3000*%
%ADD34C,0.5000*%
%ADD35C,1.0500*%
%ADD36C,1.6000*%
%ADD37R,1.6000X1.6000*%
%ADD38C,1.6500*%
%ADD39R,1.6500X1.6500*%
%ADD40C,0.6000*%
%ADD41C,0.4000*%
G04:AMPARAMS|DCode=49|XSize=0.6mm|YSize=1.05mm|CornerRadius=0.15mm|HoleSize=0mm|Usage=FLASHONLY|Rotation=270.000|XOffset=0mm|YOffset=0mm|HoleType=Round|Shape=RoundedRectangle|*
%AMROUNDEDRECTD49*
21,1,0.6000,0.7500,0,0,270.0*
21,1,0.3000,1.0500,0,0,270.0*
1,1,0.3000,-0.3750,-0.1500*
1,1,0.3000,-0.3750,0.1500*
1,1,0.3000,0.3750,0.1500*
1,1,0.3000,0.3750,-0.1500*
%
%ADD49ROUNDEDRECTD49*%
G04:AMPARAMS|DCode=50|XSize=1.87mm|YSize=1.05mm|CornerRadius=0.2625mm|HoleSize=0mm|Usage=FLASHONLY|Rotation=270.000|XOffset=0mm|YOffset=0mm|HoleType=Round|Shape=RoundedRectangle|*
%AMROUNDEDRECTD50*
21,1,1.8700,0.5250,0,0,270.0*
21,1,1.3450,1.0500,0,0,270.0*
1,1,0.5250,-0.2625,-0.6725*
1,1,0.5250,-0.2625,0.6725*
1,1,0.5250,0.2625,0.6725*
1,1,0.5250,0.2625,-0.6725*
%
%ADD50ROUNDEDRECTD50*%
%ADD51O,0.5000X1.2000*%
%ADD52O,1.2000X0.5000*%
%ADD53R,1.2000X0.5000*%
%ADD54R,0.9311X0.8121*%
G36*
X95000Y237500D02*
X57561D01*
Y237750D01*
X47439D01*
Y237500D01*
X42500D01*
X37500Y232500D01*
X22540D01*
Y247211D01*
X35000D01*
X35099Y247230D01*
X35200Y247221D01*
X36175Y247317D01*
X36462Y247404D01*
X36756Y247462D01*
X38558Y248209D01*
X38558Y248209D01*
X38955Y248474D01*
X39220Y248651D01*
X39220Y248651D01*
X40599Y250030D01*
X40599Y250030D01*
X41041Y250692D01*
X41788Y252494D01*
X41846Y252788D01*
X41933Y253075D01*
X42029Y254050D01*
X42019Y254150D01*
X42039Y254250D01*
Y256337D01*
X43402Y257836D01*
X95000D01*
X95000Y237500D01*
D02*
G37*
G36*
X162500Y242500D02*
X157500Y237500D01*
X142561D01*
Y237750D01*
X132439D01*
Y237500D01*
X96082D01*
X96082Y257836D01*
X162500D01*
Y242500D01*
D02*
G37*
G36*
X417961Y256531D02*
Y165879D01*
X415538Y165397D01*
X415353Y165320D01*
X415156Y165281D01*
X412620Y164231D01*
X412453Y164119D01*
X412267Y164042D01*
X409986Y162518D01*
X409844Y162376D01*
X409677Y162264D01*
X407736Y160323D01*
X407624Y160156D01*
X407482Y160014D01*
X405958Y157732D01*
X405881Y157547D01*
X405769Y157380D01*
X404719Y154844D01*
X404680Y154647D01*
X404603Y154462D01*
X404067Y151770D01*
Y151619D01*
X404031Y151472D01*
X403963Y150100D01*
X403978Y150000D01*
X403963Y149900D01*
X404031Y148528D01*
X404067Y148381D01*
Y148230D01*
X404603Y145538D01*
X404680Y145353D01*
X404719Y145156D01*
X405769Y142620D01*
X405881Y142453D01*
X405957Y142268D01*
X407482Y139986D01*
X407624Y139844D01*
X407736Y139677D01*
X409676Y137736D01*
X409843Y137624D01*
X409985Y137482D01*
X412267Y135957D01*
X412453Y135881D01*
X412620Y135769D01*
X415155Y134719D01*
X415352Y134680D01*
X415538Y134603D01*
X417961Y134121D01*
Y43345D01*
X416655Y42039D01*
X43345D01*
X42039Y43345D01*
Y45750D01*
X42019Y45849D01*
X42029Y45950D01*
X41933Y46925D01*
X41846Y47212D01*
X41788Y47506D01*
X41041Y49308D01*
X40599Y49970D01*
X39220Y51349D01*
X38558Y51791D01*
X36756Y52538D01*
X36462Y52596D01*
X36175Y52683D01*
X35200Y52779D01*
X35099Y52769D01*
X35000Y52789D01*
X30594D01*
X30342Y54059D01*
X30765Y54235D01*
Y54235D01*
X53265Y76735D01*
X53582Y77500D01*
Y82500D01*
X53582Y82500D01*
X53265Y83265D01*
X50765Y85765D01*
X50765Y85765D01*
X50000Y86082D01*
X40000Y86082D01*
X40000Y86082D01*
X39235Y85765D01*
X36735Y83265D01*
X36735Y83265D01*
X23713Y70244D01*
X22540Y70730D01*
Y95710D01*
Y104290D01*
Y115711D01*
X29000D01*
X29099Y115731D01*
X29200Y115721D01*
X30370Y115836D01*
X30657Y115923D01*
X30951Y115981D01*
X33114Y116877D01*
X33775Y117319D01*
X35431Y118975D01*
X35873Y119636D01*
X36769Y121799D01*
X36827Y122093D01*
X36914Y122380D01*
X37029Y123550D01*
X37010Y123750D01*
X37029Y123950D01*
X36914Y125120D01*
X36827Y125407D01*
X36769Y125701D01*
X35873Y127864D01*
X35431Y128525D01*
X33775Y130181D01*
X33775Y130181D01*
X33114Y130623D01*
X30951Y131519D01*
X30657Y131577D01*
X30370Y131664D01*
X29200Y131779D01*
X29099Y131770D01*
X29000Y131789D01*
X22540D01*
Y200000D01*
Y231418D01*
X37500D01*
X37500Y231418D01*
X38265Y231735D01*
X42948Y236418D01*
X45899D01*
Y235899D01*
X46418Y236418D01*
X47439D01*
X48043Y236668D01*
X56957D01*
X57561Y236418D01*
X95000D01*
X95541Y236642D01*
X96082Y236418D01*
X132439D01*
X133043Y236668D01*
X141957D01*
X142561Y236418D01*
X157500D01*
X157500Y236418D01*
X158265Y236735D01*
X163265Y241735D01*
X163582Y242500D01*
Y257836D01*
X416655D01*
X417961Y256531D01*
D02*
G37*
G36*
X50000Y85000D02*
X52500Y82500D01*
Y77500D01*
X30000Y55000D01*
X22540D01*
Y55710D01*
Y60710D01*
Y67540D01*
X37500Y82500D01*
X40000Y85000D01*
X50000Y85000D01*
D02*
G37*
%LPC*%
G36*
X342601Y251601D02*
X336675D01*
Y246270D01*
X342601D01*
Y251601D01*
D02*
G37*
G36*
Y243730D02*
X336675D01*
Y238399D01*
X342601D01*
Y243730D01*
D02*
G37*
G36*
X183330Y241574D02*
X181593Y241109D01*
X179817Y240084D01*
X178367Y238633D01*
X177341Y236857D01*
X176875Y235120D01*
X183330D01*
Y241574D01*
D02*
G37*
G36*
X344120Y236990D02*
X343970D01*
Y227470D01*
X353490D01*
Y227621D01*
X352755Y230365D01*
X351334Y232825D01*
X349325Y234834D01*
X346865Y236255D01*
X344120Y236990D01*
D02*
G37*
G36*
X341430D02*
X341279D01*
X338535Y236255D01*
X336075Y234834D01*
X334066Y232825D01*
X332645Y230365D01*
X331910Y227621D01*
Y227470D01*
X341430D01*
Y236990D01*
D02*
G37*
G36*
X414000Y245000D02*
X404002D01*
Y228337D01*
X405002D01*
Y221668D01*
X415000D01*
Y230000D01*
X414000D01*
Y245000D01*
D02*
G37*
G36*
X353490Y224930D02*
X343970D01*
Y215410D01*
X344120D01*
X346865Y216145D01*
X349325Y217566D01*
X351334Y219575D01*
X352755Y222035D01*
X353490Y224779D01*
Y224930D01*
D02*
G37*
G36*
X341430D02*
X331910D01*
Y224779D01*
X332645Y222035D01*
X334066Y219575D01*
X336075Y217566D01*
X338535Y216145D01*
X341279Y215410D01*
X341430D01*
Y224930D01*
D02*
G37*
G36*
X334135Y251601D02*
X328210D01*
Y250061D01*
X318939D01*
Y244986D01*
X314777Y240823D01*
X314003Y239666D01*
X313731Y238300D01*
Y235450D01*
X308050D01*
Y217319D01*
X308050Y216950D01*
X307159Y216049D01*
X247531D01*
X246556Y215855D01*
X245729Y215302D01*
X242976Y212549D01*
X225000D01*
X224025Y212355D01*
X223198Y211802D01*
X214198Y202802D01*
X213645Y201975D01*
X213451Y201000D01*
Y198485D01*
X212703Y197366D01*
X212647Y197086D01*
X211353D01*
X211297Y197366D01*
X210549Y198485D01*
Y200314D01*
X211000Y201403D01*
Y202597D01*
X210543Y203699D01*
X209699Y204543D01*
X208597Y205000D01*
X207901D01*
X207355Y206250D01*
X211044Y209939D01*
X211596Y210766D01*
X211790Y211741D01*
Y215127D01*
X213540Y215851D01*
X215299Y217610D01*
X215663Y218489D01*
X217037D01*
X217402Y217610D01*
X219160Y215851D01*
X221457Y214900D01*
X223943D01*
X226240Y215851D01*
X227999Y217610D01*
X228363Y218489D01*
X229737D01*
X230102Y217610D01*
X231860Y215851D01*
X234157Y214900D01*
X236643D01*
X238940Y215851D01*
X240699Y217610D01*
X241650Y219907D01*
Y222393D01*
X240699Y224690D01*
X238940Y226448D01*
X238061Y226813D01*
Y228187D01*
X238940Y228552D01*
X240699Y230310D01*
X241650Y232607D01*
Y235093D01*
X240699Y237390D01*
X238940Y239149D01*
X236643Y240100D01*
X234157D01*
X231860Y239149D01*
X230746Y238034D01*
X229174Y238217D01*
X228934Y238633D01*
X227483Y240084D01*
X225707Y241109D01*
X223970Y241574D01*
Y233850D01*
X221430D01*
Y241574D01*
X219693Y241109D01*
X217917Y240084D01*
X217202Y239369D01*
X216350Y238722D01*
X215498Y239369D01*
X214783Y240084D01*
X213007Y241109D01*
X211270Y241574D01*
Y233850D01*
X208730D01*
Y241574D01*
X206993Y241109D01*
X205217Y240084D01*
X203766Y238633D01*
X203526Y238217D01*
X201954Y238034D01*
X200840Y239149D01*
X198543Y240100D01*
X196057D01*
X193760Y239149D01*
X192646Y238034D01*
X191074Y238217D01*
X190834Y238633D01*
X189383Y240084D01*
X187607Y241109D01*
X185870Y241574D01*
Y233850D01*
X184600D01*
Y232580D01*
X176875D01*
X177341Y230843D01*
X178367Y229067D01*
X179817Y227617D01*
X180233Y227376D01*
X180415Y225804D01*
X179301Y224690D01*
X178350Y222393D01*
Y219907D01*
X179301Y217610D01*
X181060Y215851D01*
X183357Y214900D01*
X185843D01*
X188140Y215851D01*
X189898Y217610D01*
X190263Y218489D01*
X191637D01*
X192001Y217610D01*
X193760Y215851D01*
X194751Y215441D01*
Y210856D01*
X190198Y206302D01*
X189645Y205475D01*
X189451Y204500D01*
Y198485D01*
X188703Y197366D01*
X188431Y196000D01*
Y189000D01*
X188703Y187634D01*
X189477Y186477D01*
X190634Y185703D01*
X192000Y185431D01*
X193366Y185703D01*
X194523Y186477D01*
X195297Y187634D01*
X195352Y187914D01*
X196647D01*
X196703Y187634D01*
X197477Y186477D01*
X198634Y185703D01*
X200000Y185431D01*
X201366Y185703D01*
X202523Y186477D01*
X203297Y187634D01*
X203353Y187914D01*
X204647D01*
X204703Y187634D01*
X205477Y186477D01*
X206634Y185703D01*
X208000Y185431D01*
X209366Y185703D01*
X210523Y186477D01*
X211297Y187634D01*
X211353Y187914D01*
X212647D01*
X212703Y187634D01*
X213477Y186477D01*
X214634Y185703D01*
X216000Y185431D01*
X217366Y185703D01*
X218523Y186477D01*
X219297Y187634D01*
X219352Y187914D01*
X220647D01*
X220703Y187634D01*
X221477Y186477D01*
X222634Y185703D01*
X224000Y185431D01*
X225366Y185703D01*
X226523Y186477D01*
X227297Y187634D01*
X227353Y187914D01*
X228647D01*
X228703Y187634D01*
X229477Y186477D01*
X229590Y186401D01*
Y184257D01*
X229784Y183282D01*
X230337Y182455D01*
X232094Y180698D01*
X232921Y180145D01*
X233897Y179951D01*
X251800D01*
X252775Y180145D01*
X253603Y180698D01*
X254230Y181325D01*
X255500Y180799D01*
Y174500D01*
X256748D01*
X256885Y174297D01*
X256550Y172572D01*
X256477Y172523D01*
X255703Y171366D01*
X255431Y170000D01*
X255703Y168634D01*
X256477Y167477D01*
X257634Y166703D01*
X257914Y166647D01*
Y165353D01*
X257634Y165297D01*
X256477Y164523D01*
X255703Y163366D01*
X255431Y162000D01*
X255703Y160634D01*
X256477Y159477D01*
X257634Y158703D01*
X257914Y158647D01*
Y157353D01*
X257634Y157297D01*
X256477Y156523D01*
X255703Y155366D01*
X255431Y154000D01*
X255703Y152634D01*
X256477Y151477D01*
X257634Y150703D01*
X257914Y150647D01*
Y149353D01*
X257634Y149297D01*
X256477Y148523D01*
X255703Y147366D01*
X255431Y146000D01*
X255703Y144634D01*
X256477Y143477D01*
X257634Y142703D01*
X257914Y142647D01*
Y141353D01*
X257634Y141297D01*
X256477Y140523D01*
X255703Y139366D01*
X255431Y138000D01*
X255703Y136634D01*
X256477Y135477D01*
X257634Y134703D01*
X257914Y134647D01*
Y133353D01*
X257634Y133297D01*
X256477Y132523D01*
X255703Y131366D01*
X255431Y130000D01*
X255703Y128634D01*
X256477Y127477D01*
X257634Y126703D01*
X257914Y126647D01*
Y125353D01*
X257634Y125297D01*
X256477Y124523D01*
X255703Y123366D01*
X255431Y122000D01*
X255703Y120634D01*
X256477Y119477D01*
X257634Y118703D01*
X259000Y118431D01*
X259951D01*
Y70856D01*
X257003Y67908D01*
X256174Y68387D01*
X253885Y69000D01*
X251515D01*
X249226Y68387D01*
X247174Y67202D01*
X245498Y65526D01*
X244313Y63474D01*
X243700Y61185D01*
Y58815D01*
X244313Y56526D01*
X245498Y54474D01*
X247174Y52798D01*
X249226Y51613D01*
X251515Y51000D01*
X253885D01*
X256174Y51613D01*
X258226Y52798D01*
X259902Y54474D01*
X261087Y56526D01*
X261700Y58815D01*
Y61185D01*
X261087Y63474D01*
X260608Y64303D01*
X264302Y67998D01*
X264855Y68825D01*
X265049Y69800D01*
Y118431D01*
X266000D01*
X267366Y118703D01*
X268523Y119477D01*
X269297Y120634D01*
X269569Y122000D01*
X269297Y123366D01*
X268523Y124523D01*
X267366Y125297D01*
X267086Y125353D01*
Y126647D01*
X267366Y126703D01*
X268485Y127451D01*
X302500D01*
X303475Y127645D01*
X304302Y128198D01*
X310856Y134751D01*
X314538D01*
X314705Y133481D01*
X313730Y133220D01*
X311620Y132002D01*
X309898Y130280D01*
X308680Y128170D01*
X308050Y125818D01*
Y123382D01*
X308680Y121030D01*
X309898Y118920D01*
X311620Y117198D01*
X313730Y115980D01*
X316082Y115350D01*
X318518D01*
X320870Y115980D01*
X322980Y117198D01*
X324702Y118920D01*
X325920Y121030D01*
X326550Y123382D01*
Y125818D01*
X325920Y128170D01*
X324702Y130280D01*
X322980Y132002D01*
X320870Y133220D01*
X319895Y133481D01*
X320062Y134751D01*
X330000D01*
X330975Y134945D01*
X331802Y135498D01*
X338214Y141909D01*
X339130Y141380D01*
X341482Y140750D01*
X343918D01*
X346270Y141380D01*
X348380Y142598D01*
X350102Y144320D01*
X351320Y146430D01*
X351950Y148782D01*
Y151218D01*
X351320Y153570D01*
X350102Y155680D01*
X348380Y157402D01*
X346270Y158620D01*
X343918Y159250D01*
X341482D01*
X339130Y158620D01*
X337020Y157402D01*
X335298Y155680D01*
X334080Y153570D01*
X333450Y151218D01*
Y148782D01*
X334080Y146430D01*
X334609Y145514D01*
X328944Y139849D01*
X320062D01*
X319895Y141119D01*
X320870Y141380D01*
X322980Y142598D01*
X324702Y144320D01*
X325920Y146430D01*
X326550Y148782D01*
Y151218D01*
X325920Y153570D01*
X324702Y155680D01*
X322980Y157402D01*
X320870Y158620D01*
X319895Y158881D01*
X320062Y160151D01*
X330000D01*
X330975Y160345D01*
X331802Y160898D01*
X338214Y167309D01*
X339130Y166780D01*
X341482Y166150D01*
X343918D01*
X346270Y166780D01*
X348380Y167998D01*
X350102Y169720D01*
X351320Y171830D01*
X351950Y174182D01*
Y176618D01*
X351320Y178970D01*
X350102Y181080D01*
X348380Y182802D01*
X346270Y184020D01*
X343918Y184650D01*
X341482D01*
X339130Y184020D01*
X337020Y182802D01*
X335298Y181080D01*
X334080Y178970D01*
X333450Y176618D01*
Y174182D01*
X334080Y171830D01*
X334609Y170914D01*
X328944Y165249D01*
X320062D01*
X319895Y166519D01*
X320870Y166780D01*
X322980Y167998D01*
X324702Y169720D01*
X325920Y171830D01*
X326550Y174182D01*
Y176618D01*
X325920Y178970D01*
X324702Y181080D01*
X322980Y182802D01*
X320870Y184020D01*
X318518Y184650D01*
X316082D01*
X313730Y184020D01*
X312814Y183491D01*
X309502Y186802D01*
X308675Y187355D01*
X307700Y187549D01*
X254300D01*
X254139Y187517D01*
X253057Y188587D01*
X253139Y189000D01*
Y191230D01*
X248000D01*
Y193770D01*
X253139D01*
Y196000D01*
X252748Y197966D01*
X251634Y199634D01*
X251181Y199936D01*
X251020Y201571D01*
X251900Y202451D01*
X298944D01*
X302398Y198998D01*
X303225Y198445D01*
X304200Y198251D01*
X308407D01*
X308680Y197230D01*
X309898Y195120D01*
X311620Y193398D01*
X313730Y192180D01*
X316082Y191550D01*
X318518D01*
X320870Y192180D01*
X322980Y193398D01*
X324702Y195120D01*
X325920Y197230D01*
X326550Y199582D01*
Y202018D01*
X325920Y204370D01*
X324702Y206480D01*
X322980Y208202D01*
X320870Y209420D01*
X319895Y209681D01*
X320062Y210951D01*
X328944D01*
X334609Y205286D01*
X334080Y204370D01*
X333450Y202018D01*
Y199582D01*
X334080Y197230D01*
X335298Y195120D01*
X337020Y193398D01*
X339130Y192180D01*
X341482Y191550D01*
X343918D01*
X346270Y192180D01*
X348380Y193398D01*
X350102Y195120D01*
X351320Y197230D01*
X351950Y199582D01*
Y202018D01*
X351320Y204370D01*
X350102Y206480D01*
X348380Y208202D01*
X346270Y209420D01*
X343918Y210050D01*
X341482D01*
X339130Y209420D01*
X338214Y208891D01*
X331802Y215302D01*
X330975Y215855D01*
X330000Y216049D01*
X327441D01*
X326550Y216950D01*
X326550Y217319D01*
Y235450D01*
X320869D01*
Y236822D01*
X323986Y239939D01*
X328210D01*
Y238399D01*
X334135D01*
Y245000D01*
Y251601D01*
D02*
G37*
G36*
X125500Y209999D02*
X118000D01*
X117025Y209805D01*
X116596Y209519D01*
X105950D01*
X104584Y209247D01*
X103427Y208473D01*
X96022Y201069D01*
X61478D01*
X59332Y203215D01*
X57523Y205023D01*
X56366Y205797D01*
X55000Y206069D01*
X45000D01*
X43634Y205797D01*
X42477Y205023D01*
X41703Y203866D01*
X41431Y202500D01*
X41676Y201270D01*
D01*
X41703Y201134D01*
X42477Y199977D01*
X43634Y199203D01*
X45000Y198931D01*
X53522D01*
X57477Y194977D01*
X58634Y194203D01*
X60000Y193931D01*
X97500D01*
X98866Y194203D01*
X100023Y194977D01*
X107428Y202381D01*
X116596D01*
X117025Y202095D01*
X118000Y201901D01*
X125500D01*
X126475Y202095D01*
X127302Y202648D01*
X127855Y203475D01*
X128049Y204450D01*
Y207450D01*
X127855Y208425D01*
X127302Y209252D01*
X126475Y209805D01*
X125500Y209999D01*
D02*
G37*
G36*
X33097Y195500D02*
X31903D01*
X30801Y195043D01*
X29957Y194199D01*
X29500Y193097D01*
Y191903D01*
X29742Y191319D01*
X29435Y190617D01*
X28953Y190145D01*
X28097Y190500D01*
X26903D01*
X25801Y190043D01*
X24957Y189199D01*
X24500Y188097D01*
Y186903D01*
X24957Y185801D01*
X25801Y184957D01*
X26903Y184500D01*
X28097D01*
X29186Y184951D01*
X41444D01*
X55698Y170698D01*
X56525Y170145D01*
X57500Y169951D01*
X138944D01*
X156698Y152198D01*
X157525Y151645D01*
X158500Y151451D01*
X171515D01*
X172634Y150703D01*
X172914Y150647D01*
Y149353D01*
X172634Y149297D01*
X171515Y148549D01*
X155056D01*
X145494Y158110D01*
X145043Y159199D01*
X144199Y160043D01*
X143111Y160494D01*
X136802Y166802D01*
X135976Y167355D01*
X135000Y167549D01*
X53556D01*
X41802Y179302D01*
X40975Y179855D01*
X40000Y180049D01*
X34186D01*
X33097Y180500D01*
X31903D01*
X30801Y180043D01*
X29957Y179199D01*
X29500Y178097D01*
Y176903D01*
X29764Y176266D01*
X29679Y176061D01*
X28333Y175371D01*
X28149Y175447D01*
X26956D01*
X25853Y174991D01*
X25009Y174147D01*
X24553Y173044D01*
Y171851D01*
X25009Y170748D01*
X25853Y169904D01*
X26956Y169447D01*
X28149D01*
X29238Y169898D01*
X31497D01*
X45698Y155698D01*
X46525Y155145D01*
X47500Y154951D01*
X128944D01*
X137006Y146890D01*
X137457Y145801D01*
X138301Y144957D01*
X139389Y144506D01*
X147698Y136198D01*
X148525Y135645D01*
X149500Y135451D01*
X171515D01*
X172634Y134703D01*
X172914Y134647D01*
Y133353D01*
X172634Y133297D01*
X171477Y132523D01*
X170703Y131366D01*
X170431Y130000D01*
X170703Y128634D01*
X171477Y127477D01*
X172432Y126839D01*
X172355Y125938D01*
X172220Y125569D01*
X164000D01*
Y128250D01*
X151000D01*
Y114060D01*
X151000Y113750D01*
X150252Y112790D01*
X149460D01*
Y105270D01*
X165540D01*
Y112790D01*
X164748D01*
X164000Y113750D01*
X164000Y114060D01*
Y118431D01*
X173931D01*
Y116837D01*
X173500Y115796D01*
Y114204D01*
X174109Y112734D01*
X175234Y111609D01*
X176704Y111000D01*
X178296D01*
X179766Y111609D01*
X180891Y112734D01*
X181500Y114204D01*
Y115796D01*
X181068Y116837D01*
Y118445D01*
X182366Y118703D01*
X183523Y119477D01*
X184297Y120634D01*
X184569Y122000D01*
X184297Y123366D01*
X183523Y124523D01*
X182366Y125297D01*
X182086Y125353D01*
Y126647D01*
X182366Y126703D01*
X183485Y127451D01*
X188314D01*
X189403Y127000D01*
X190597D01*
X191699Y127457D01*
X192543Y128301D01*
X193000Y129403D01*
Y130597D01*
X192543Y131699D01*
X191699Y132543D01*
X190597Y133000D01*
X189403D01*
X188314Y132549D01*
X183485D01*
X182366Y133297D01*
X182086Y133353D01*
Y134647D01*
X182366Y134703D01*
X183485Y135451D01*
X188314D01*
X189403Y135000D01*
X190597D01*
X191699Y135457D01*
X192543Y136301D01*
X193000Y137403D01*
Y138597D01*
X192543Y139699D01*
X191699Y140543D01*
X190597Y141000D01*
X189403D01*
X188314Y140549D01*
X183485D01*
X182366Y141297D01*
X182086Y141353D01*
Y142647D01*
X182366Y142703D01*
X183485Y143451D01*
X188314D01*
X189403Y143000D01*
X190597D01*
X191699Y143457D01*
X192543Y144301D01*
X193000Y145403D01*
Y146597D01*
X192543Y147699D01*
X191699Y148543D01*
X190597Y149000D01*
X189403D01*
X188314Y148549D01*
X183485D01*
X182366Y149297D01*
X182086Y149353D01*
Y150647D01*
X182366Y150703D01*
X183485Y151451D01*
X188314D01*
X189403Y151000D01*
X190597D01*
X191699Y151457D01*
X192543Y152301D01*
X193000Y153403D01*
Y154597D01*
X192543Y155699D01*
X191699Y156543D01*
X190597Y157000D01*
X189403D01*
X188314Y156549D01*
X183485D01*
X182366Y157297D01*
X182086Y157353D01*
Y158647D01*
X182366Y158703D01*
X183485Y159451D01*
X188314D01*
X189403Y159000D01*
X190597D01*
X191699Y159457D01*
X192543Y160301D01*
X193000Y161403D01*
Y162597D01*
X192543Y163699D01*
X191699Y164543D01*
X190597Y165000D01*
X189403D01*
X188314Y164549D01*
X183485D01*
X182366Y165297D01*
X182086Y165353D01*
Y166647D01*
X182366Y166703D01*
X183485Y167451D01*
X188314D01*
X189403Y167000D01*
X190597D01*
X191699Y167457D01*
X192543Y168301D01*
X193000Y169403D01*
Y170597D01*
X192543Y171699D01*
X191699Y172543D01*
X190597Y173000D01*
X189403D01*
X188314Y172549D01*
X183485D01*
X182366Y173297D01*
X182086Y173353D01*
Y174647D01*
X182366Y174703D01*
X183485Y175451D01*
X188314D01*
X189403Y175000D01*
X190597D01*
X191699Y175457D01*
X192543Y176301D01*
X193000Y177403D01*
Y178597D01*
X192543Y179699D01*
X191699Y180543D01*
X190597Y181000D01*
X189403D01*
X188314Y180549D01*
X183485D01*
X182366Y181297D01*
X181000Y181569D01*
X174000D01*
X172634Y181297D01*
X171477Y180523D01*
X170703Y179366D01*
X170431Y178000D01*
X170703Y176634D01*
X171477Y175477D01*
X172634Y174703D01*
X172914Y174647D01*
Y173353D01*
X172634Y173297D01*
X171477Y172523D01*
X170703Y171366D01*
X170431Y170000D01*
X170703Y168634D01*
X171477Y167477D01*
X172634Y166703D01*
X172914Y166647D01*
Y165353D01*
X172634Y165297D01*
X171515Y164549D01*
X164056D01*
X146802Y181802D01*
X145976Y182355D01*
X145000Y182549D01*
X63556D01*
X51802Y194302D01*
X50975Y194855D01*
X50000Y195049D01*
X34186D01*
X33097Y195500D01*
D02*
G37*
G36*
X343918Y133850D02*
X341482D01*
X339130Y133220D01*
X337020Y132002D01*
X335298Y130280D01*
X334080Y128170D01*
X333450Y125818D01*
Y123382D01*
X334080Y121030D01*
X335298Y118920D01*
X337020Y117198D01*
X339130Y115980D01*
X341482Y115350D01*
X343918D01*
X346270Y115980D01*
X348380Y117198D01*
X350102Y118920D01*
X351320Y121030D01*
X351950Y123382D01*
Y125818D01*
X351320Y128170D01*
X350102Y130280D01*
X348380Y132002D01*
X346270Y133220D01*
X343918Y133850D01*
D02*
G37*
G36*
X190730Y115886D02*
X190033Y115747D01*
X188366Y114634D01*
X187252Y112966D01*
X186861Y111000D01*
Y108770D01*
X190730D01*
Y115886D01*
D02*
G37*
G36*
Y106230D02*
X186861D01*
Y104000D01*
X187252Y102034D01*
X188366Y100366D01*
X190033Y99252D01*
X190730Y99114D01*
Y106230D01*
D02*
G37*
G36*
X165540Y102730D02*
X158770D01*
Y95210D01*
X165540D01*
Y102730D01*
D02*
G37*
G36*
X156230D02*
X149460D01*
Y95210D01*
X156230D01*
Y102730D01*
D02*
G37*
G36*
X343918Y108450D02*
X341482D01*
X339130Y107820D01*
X337020Y106602D01*
X335298Y104880D01*
X334080Y102770D01*
X333450Y100418D01*
Y97982D01*
X334080Y95630D01*
X335298Y93520D01*
X337020Y91798D01*
X339130Y90580D01*
X341482Y89950D01*
X343918D01*
X346270Y90580D01*
X348380Y91798D01*
X350102Y93520D01*
X351320Y95630D01*
X351950Y97982D01*
Y100418D01*
X351320Y102770D01*
X350102Y104880D01*
X348380Y106602D01*
X346270Y107820D01*
X343918Y108450D01*
D02*
G37*
G36*
X318518D02*
X316082D01*
X313730Y107820D01*
X311620Y106602D01*
X309898Y104880D01*
X308680Y102770D01*
X308050Y100418D01*
Y97982D01*
X308680Y95630D01*
X309898Y93520D01*
X311620Y91798D01*
X313730Y90580D01*
X316082Y89950D01*
X318518D01*
X320870Y90580D01*
X322980Y91798D01*
X324702Y93520D01*
X325920Y95630D01*
X326550Y97982D01*
Y100418D01*
X325920Y102770D01*
X324702Y104880D01*
X322980Y106602D01*
X320870Y107820D01*
X318518Y108450D01*
D02*
G37*
G36*
X344120Y84590D02*
X343970D01*
Y75070D01*
X353490D01*
Y75220D01*
X352755Y77965D01*
X351334Y80425D01*
X349325Y82434D01*
X346865Y83855D01*
X344120Y84590D01*
D02*
G37*
G36*
X341430D02*
X341279D01*
X338535Y83855D01*
X336075Y82434D01*
X334066Y80425D01*
X332645Y77965D01*
X331910Y75220D01*
Y75070D01*
X341430D01*
Y84590D01*
D02*
G37*
G36*
X304101Y77601D02*
X298770D01*
Y71675D01*
X304101D01*
Y77601D01*
D02*
G37*
G36*
X296230D02*
X290899D01*
Y71675D01*
X296230D01*
Y77601D01*
D02*
G37*
G36*
X128097Y123000D02*
X126903D01*
X125801Y122543D01*
X124957Y121699D01*
X124500Y120597D01*
Y119403D01*
X124951Y118314D01*
Y92500D01*
X125145Y91524D01*
X125698Y90698D01*
X128198Y88198D01*
X129024Y87645D01*
X130000Y87451D01*
X192500D01*
X193475Y87645D01*
X194302Y88198D01*
X201802Y95698D01*
X202355Y96524D01*
X202549Y97500D01*
Y101515D01*
X203297Y102634D01*
X203353Y102914D01*
X204647D01*
X204703Y102634D01*
X205477Y101477D01*
X206634Y100703D01*
X208000Y100431D01*
X209366Y100703D01*
X210523Y101477D01*
X211297Y102634D01*
X211353Y102914D01*
X212647D01*
X212703Y102634D01*
X213477Y101477D01*
X214634Y100703D01*
X216000Y100431D01*
X217366Y100703D01*
X218523Y101477D01*
X219297Y102634D01*
X219352Y102914D01*
X220647D01*
X220703Y102634D01*
X221477Y101477D01*
X222634Y100703D01*
X224000Y100431D01*
X225366Y100703D01*
X226523Y101477D01*
X227297Y102634D01*
X227353Y102914D01*
X228647D01*
X228703Y102634D01*
X229477Y101477D01*
X230634Y100703D01*
X232000Y100431D01*
X233366Y100703D01*
X234523Y101477D01*
X235297Y102634D01*
X235352Y102914D01*
X236647D01*
X236703Y102634D01*
X237477Y101477D01*
X238634Y100703D01*
X240000Y100431D01*
X241366Y100703D01*
X242523Y101477D01*
X243297Y102634D01*
X243353Y102914D01*
X244647D01*
X244703Y102634D01*
X245451Y101515D01*
Y81756D01*
X231603Y67908D01*
X230774Y68387D01*
X228485Y69000D01*
X226115D01*
X223826Y68387D01*
X221774Y67202D01*
X220098Y65526D01*
X218913Y63474D01*
X218300Y61185D01*
Y58815D01*
X218913Y56526D01*
X220098Y54474D01*
X221774Y52798D01*
X223826Y51613D01*
X226115Y51000D01*
X228485D01*
X230774Y51613D01*
X232826Y52798D01*
X234502Y54474D01*
X235687Y56526D01*
X236300Y58815D01*
Y61185D01*
X235687Y63474D01*
X235208Y64303D01*
X249802Y78898D01*
X250355Y79725D01*
X250549Y80700D01*
Y101515D01*
X251297Y102634D01*
X251569Y104000D01*
Y111000D01*
X251297Y112366D01*
X250523Y113523D01*
X249366Y114297D01*
X248000Y114569D01*
X246634Y114297D01*
X245477Y113523D01*
X244703Y112366D01*
X244647Y112086D01*
X243353D01*
X243297Y112366D01*
X242549Y113485D01*
Y117314D01*
X243000Y118403D01*
Y119597D01*
X242543Y120699D01*
X241699Y121543D01*
X240597Y122000D01*
X239403D01*
X238301Y121543D01*
X237457Y120699D01*
X237000Y119597D01*
Y118403D01*
X237451Y117314D01*
Y113485D01*
X236703Y112366D01*
X236647Y112086D01*
X235352D01*
X235297Y112366D01*
X234549Y113485D01*
Y117314D01*
X235000Y118403D01*
Y119597D01*
X234543Y120699D01*
X233699Y121543D01*
X232597Y122000D01*
X231403D01*
X230301Y121543D01*
X229457Y120699D01*
X229000Y119597D01*
Y118403D01*
X229451Y117314D01*
Y113485D01*
X228703Y112366D01*
X228647Y112086D01*
X227353D01*
X227297Y112366D01*
X226549Y113485D01*
Y117314D01*
X227000Y118403D01*
Y119597D01*
X226543Y120699D01*
X225699Y121543D01*
X224597Y122000D01*
X223403D01*
X222301Y121543D01*
X221457Y120699D01*
X221000Y119597D01*
Y118403D01*
X221451Y117314D01*
Y113485D01*
X220703Y112366D01*
X220647Y112086D01*
X219352D01*
X219297Y112366D01*
X218549Y113485D01*
Y117314D01*
X219000Y118403D01*
Y119597D01*
X218543Y120699D01*
X217699Y121543D01*
X216597Y122000D01*
X215403D01*
X214301Y121543D01*
X213457Y120699D01*
X213000Y119597D01*
Y118403D01*
X213451Y117314D01*
Y113485D01*
X212703Y112366D01*
X212647Y112086D01*
X211353D01*
X211297Y112366D01*
X210523Y113523D01*
X209366Y114297D01*
X208000Y114569D01*
X206634Y114297D01*
X205477Y113523D01*
X204703Y112366D01*
X204647Y112086D01*
X203353D01*
X203297Y112366D01*
X202523Y113523D01*
X201366Y114297D01*
X200000Y114569D01*
X198634Y114297D01*
X197477Y113523D01*
X196162Y113842D01*
X195634Y114634D01*
X193967Y115747D01*
X193270Y115886D01*
Y107500D01*
Y99114D01*
X193967Y99252D01*
X195634Y100366D01*
X196162Y101158D01*
X196220Y101174D01*
X197451Y100800D01*
Y98556D01*
X191444Y92549D01*
X131056D01*
X130049Y93556D01*
Y118314D01*
X130500Y119403D01*
Y120597D01*
X130043Y121699D01*
X129199Y122543D01*
X128097Y123000D01*
D02*
G37*
G36*
X304101Y69135D02*
X297500D01*
X290899D01*
Y63210D01*
X289649Y63163D01*
X287100D01*
Y69000D01*
X269100D01*
Y51000D01*
X287100D01*
Y56026D01*
X292439D01*
Y53939D01*
X302561D01*
Y63210D01*
X304101D01*
Y69135D01*
D02*
G37*
G36*
X353490Y72530D02*
X343970D01*
Y63010D01*
X344120D01*
X346865Y63745D01*
X349325Y65166D01*
X351334Y67175D01*
X352755Y69635D01*
X353490Y72379D01*
Y72530D01*
D02*
G37*
G36*
X341430D02*
X331910D01*
Y72379D01*
X332645Y69635D01*
X334066Y67175D01*
X336075Y65166D01*
X338535Y63745D01*
X341279Y63010D01*
X341430D01*
Y72530D01*
D02*
G37*
G36*
X60588Y70540D02*
X60470D01*
Y61270D01*
X69740D01*
Y61388D01*
X69022Y64068D01*
X67634Y66472D01*
X65672Y68434D01*
X63268Y69822D01*
X60588Y70540D01*
D02*
G37*
G36*
X203288D02*
X203170D01*
Y61270D01*
X212440D01*
Y61388D01*
X211722Y64068D01*
X210334Y66472D01*
X208372Y68434D01*
X205968Y69822D01*
X203288Y70540D01*
D02*
G37*
G36*
X57930D02*
X57812D01*
X55132Y69822D01*
X52728Y68434D01*
X50766Y66472D01*
X49378Y64068D01*
X48660Y61388D01*
Y61270D01*
X57930D01*
Y70540D01*
D02*
G37*
G36*
X200630D02*
X200512D01*
X197832Y69822D01*
X195428Y68434D01*
X193466Y66472D01*
X192078Y64068D01*
X191360Y61388D01*
Y61270D01*
X200630D01*
Y70540D01*
D02*
G37*
G36*
X342601Y61601D02*
X336675D01*
Y56270D01*
X342601D01*
Y61601D01*
D02*
G37*
G36*
X169800Y69000D02*
X151800D01*
Y51000D01*
X169800D01*
Y69000D01*
D02*
G37*
G36*
X136585D02*
X134215D01*
X131926Y68387D01*
X129874Y67202D01*
X128198Y65526D01*
X127013Y63474D01*
X126400Y61185D01*
Y58815D01*
X127013Y56526D01*
X128198Y54474D01*
X129874Y52798D01*
X131926Y51613D01*
X134215Y51000D01*
X136585D01*
X138874Y51613D01*
X140926Y52798D01*
X142602Y54474D01*
X143787Y56526D01*
X144400Y58815D01*
Y61185D01*
X143787Y63474D01*
X142602Y65526D01*
X140926Y67202D01*
X138874Y68387D01*
X136585Y69000D01*
D02*
G37*
G36*
X111185D02*
X108815D01*
X106526Y68387D01*
X104474Y67202D01*
X102798Y65526D01*
X101613Y63474D01*
X101000Y61185D01*
Y58815D01*
X101613Y56526D01*
X102798Y54474D01*
X104474Y52798D01*
X106526Y51613D01*
X108815Y51000D01*
X111185D01*
X113474Y51613D01*
X115526Y52798D01*
X117202Y54474D01*
X118387Y56526D01*
X119000Y58815D01*
Y61185D01*
X118387Y63474D01*
X117202Y65526D01*
X115526Y67202D01*
X113474Y68387D01*
X111185Y69000D01*
D02*
G37*
G36*
X85785D02*
X83415D01*
X81126Y68387D01*
X79074Y67202D01*
X77398Y65526D01*
X76213Y63474D01*
X75600Y61185D01*
Y58815D01*
X76213Y56526D01*
X77398Y54474D01*
X79074Y52798D01*
X81126Y51613D01*
X83415Y51000D01*
X85785D01*
X88074Y51613D01*
X90126Y52798D01*
X91802Y54474D01*
X92987Y56526D01*
X93600Y58815D01*
Y61185D01*
X92987Y63474D01*
X91802Y65526D01*
X90126Y67202D01*
X88074Y68387D01*
X85785Y69000D01*
D02*
G37*
G36*
X212440Y58730D02*
X203170D01*
Y49460D01*
X203288D01*
X205968Y50178D01*
X208372Y51566D01*
X210334Y53528D01*
X211722Y55932D01*
X212440Y58612D01*
Y58730D01*
D02*
G37*
G36*
X200630D02*
X191360D01*
Y58612D01*
X192078Y55932D01*
X193466Y53528D01*
X195428Y51566D01*
X197832Y50178D01*
X200512Y49460D01*
X200630D01*
Y58730D01*
D02*
G37*
G36*
X69740D02*
X60470D01*
Y49460D01*
X60588D01*
X63268Y50178D01*
X65672Y51566D01*
X67634Y53528D01*
X69022Y55932D01*
X69740Y58612D01*
Y58730D01*
D02*
G37*
G36*
X57930D02*
X48660D01*
Y58612D01*
X49378Y55932D01*
X50766Y53528D01*
X52728Y51566D01*
X55132Y50178D01*
X57812Y49460D01*
X57930D01*
Y58730D01*
D02*
G37*
G36*
X342601Y53730D02*
X336675D01*
Y48399D01*
X342601D01*
Y53730D01*
D02*
G37*
G36*
X318518Y83050D02*
X316082D01*
X313730Y82420D01*
X311620Y81202D01*
X309898Y79480D01*
X308680Y77370D01*
X308050Y75018D01*
Y72582D01*
X308680Y70230D01*
X309898Y68120D01*
X311620Y66398D01*
X313730Y65180D01*
X314976Y64846D01*
Y61050D01*
X315248Y59684D01*
X316021Y58527D01*
X318090Y56458D01*
X318142Y56195D01*
X318916Y55037D01*
X318939Y55014D01*
Y49939D01*
X328210D01*
Y48399D01*
X334135D01*
Y55000D01*
Y61601D01*
X328210D01*
Y60061D01*
X324376D01*
X323963Y60679D01*
X322113Y62528D01*
Y65898D01*
X322980Y66398D01*
X324702Y68120D01*
X325920Y70230D01*
X326550Y72582D01*
Y75018D01*
X325920Y77370D01*
X324702Y79480D01*
X322980Y81202D01*
X320870Y82420D01*
X318518Y83050D01*
D02*
G37*
%LPD*%
G36*
X314705Y209681D02*
X313730Y209420D01*
X311620Y208202D01*
X309898Y206480D01*
X308680Y204370D01*
X308407Y203349D01*
X305256D01*
X301802Y206802D01*
X300975Y207355D01*
X300000Y207549D01*
X250844D01*
X249869Y207355D01*
X249042Y206802D01*
X247288Y205049D01*
X227549D01*
X226574Y204855D01*
X225747Y204302D01*
X222580Y201136D01*
X222028Y200309D01*
X221834Y199334D01*
Y198762D01*
X221477Y198523D01*
X220703Y197366D01*
X220647Y197086D01*
X219352D01*
X219297Y197366D01*
X218549Y198485D01*
Y199944D01*
X226056Y207451D01*
X244031D01*
X245007Y207645D01*
X245834Y208198D01*
X248587Y210951D01*
X314538D01*
X314705Y209681D01*
D02*
G37*
G36*
X309209Y179886D02*
X308680Y178970D01*
X308050Y176618D01*
Y174182D01*
X308680Y171830D01*
X309898Y169720D01*
X311620Y167998D01*
X313730Y166780D01*
X314705Y166519D01*
X314538Y165249D01*
X310200D01*
X309225Y165055D01*
X308398Y164502D01*
X298198Y154302D01*
X297645Y153476D01*
X297451Y152500D01*
Y146056D01*
X292505Y141109D01*
X291500Y141901D01*
Y155940D01*
X291500Y156250D01*
X292248Y157210D01*
X293040D01*
Y164730D01*
X285000D01*
X276960D01*
Y157210D01*
X277752D01*
X278500Y156250D01*
X278500Y155940D01*
Y149569D01*
X274337D01*
X273648Y149854D01*
X273517Y151152D01*
X273522Y151176D01*
X274199Y151457D01*
X275043Y152301D01*
X275500Y153403D01*
Y154597D01*
X275043Y155699D01*
X274199Y156543D01*
X273097Y157000D01*
X271903D01*
X270814Y156549D01*
X268485D01*
X267366Y157297D01*
X267086Y157353D01*
Y158647D01*
X267366Y158703D01*
X268523Y159477D01*
X269297Y160634D01*
X269569Y162000D01*
X269297Y163366D01*
X268523Y164523D01*
X267366Y165297D01*
X267086Y165353D01*
Y166647D01*
X267366Y166703D01*
X268523Y167477D01*
X269297Y168634D01*
X269569Y170000D01*
X269297Y171366D01*
X268523Y172523D01*
X267568Y173161D01*
X267645Y174062D01*
X267780Y174431D01*
X270663D01*
X271704Y174000D01*
X273296D01*
X274766Y174609D01*
X275891Y175734D01*
X276500Y177204D01*
Y178796D01*
X275891Y180266D01*
X274976Y181181D01*
X275208Y182172D01*
X275365Y182451D01*
X306644D01*
X309209Y179886D01*
D02*
G37*
G36*
X314705Y158881D02*
X313730Y158620D01*
X311620Y157402D01*
X309898Y155680D01*
X308680Y153570D01*
X308050Y151218D01*
Y148782D01*
X308680Y146430D01*
X309898Y144320D01*
X311620Y142598D01*
X313730Y141380D01*
X314705Y141119D01*
X314538Y139849D01*
X309800D01*
X308825Y139655D01*
X307998Y139102D01*
X301444Y132549D01*
X268485D01*
X267366Y133297D01*
X267086Y133353D01*
Y134647D01*
X267366Y134703D01*
X268485Y135451D01*
X293000D01*
X293976Y135645D01*
X294802Y136198D01*
X301802Y143198D01*
X302355Y144024D01*
X302549Y145000D01*
Y151444D01*
X311256Y160151D01*
X314538D01*
X314705Y158881D01*
D02*
G37*
%LPC*%
G36*
X293040Y174790D02*
X286270D01*
Y167270D01*
X293040D01*
Y174790D01*
D02*
G37*
G36*
X283730D02*
X276960D01*
Y167270D01*
X283730D01*
Y174790D01*
D02*
G37*
%LPD*%
G36*
X60698Y178198D02*
X61525Y177645D01*
X62500Y177451D01*
X143944D01*
X161198Y160198D01*
X162024Y159645D01*
X163000Y159451D01*
X171515D01*
X172634Y158703D01*
X172914Y158647D01*
Y157353D01*
X172634Y157297D01*
X171515Y156549D01*
X159556D01*
X141802Y174302D01*
X140976Y174855D01*
X140000Y175049D01*
X58556D01*
X44924Y188681D01*
X45450Y189951D01*
X48944D01*
X60698Y178198D01*
D02*
G37*
G36*
X50698Y163198D02*
X51525Y162645D01*
X52500Y162451D01*
X133944D01*
X139506Y156890D01*
X139957Y155801D01*
X140801Y154957D01*
X141890Y154506D01*
X152198Y144198D01*
X153025Y143645D01*
X154000Y143451D01*
X171515D01*
X172634Y142703D01*
X172914Y142647D01*
Y141353D01*
X172634Y141297D01*
X171515Y140549D01*
X150556D01*
X142994Y148110D01*
X142543Y149199D01*
X141699Y150043D01*
X140611Y150494D01*
X131802Y159302D01*
X130976Y159855D01*
X130000Y160049D01*
X48556D01*
X34924Y173681D01*
X35450Y174951D01*
X38944D01*
X50698Y163198D01*
D02*
G37*
D14*
X406502Y242500D02*
X411500D01*
Y240001D01*
X410667Y239168D01*
X409834D01*
X409001D01*
X408168Y240001D01*
Y242500D01*
X411500Y236669D02*
Y235002D01*
X410667Y234169D01*
X409001D01*
X408168Y235002D01*
Y236669D01*
X409001Y237502D01*
X410667D01*
X411500Y236669D01*
X407335Y231670D02*
X408168D01*
Y232503D01*
Y230837D01*
Y231670D01*
X410667D01*
X411500Y230837D01*
X412500Y225001D02*
X407502D01*
X410001Y227500D01*
Y224168D01*
D15*
X12500Y60000D02*
D03*
Y65000D02*
D03*
Y70000D02*
D03*
Y75000D02*
D03*
Y80000D02*
D03*
Y85000D02*
D03*
Y90000D02*
D03*
Y95000D02*
D03*
Y100000D02*
D03*
Y105000D02*
D03*
Y110000D02*
D03*
Y135000D02*
D03*
Y140000D02*
D03*
Y145000D02*
D03*
Y150000D02*
D03*
Y155000D02*
D03*
Y160000D02*
D03*
Y165000D02*
D03*
Y170000D02*
D03*
Y175000D02*
D03*
Y180000D02*
D03*
Y185000D02*
D03*
Y190000D02*
D03*
Y195000D02*
D03*
Y200000D02*
D03*
Y205000D02*
D03*
Y210000D02*
D03*
Y215000D02*
D03*
Y220000D02*
D03*
Y225000D02*
D03*
Y230000D02*
D03*
Y235000D02*
D03*
Y240000D02*
D03*
D22*
X157500Y104000D02*
D03*
X157500Y121000D02*
D03*
X285000Y149000D02*
D03*
Y166000D02*
D03*
D23*
X137500Y242905D02*
D03*
Y232095D02*
D03*
X52500Y242905D02*
D03*
Y232095D02*
D03*
X297500Y59595D02*
D03*
Y70405D02*
D03*
D32*
X30000Y102500D02*
X30757D01*
X33257Y100000D02*
X47500D01*
X59200Y88300D01*
X30757Y102500D02*
X33257Y100000D01*
X26688D02*
X29188Y102500D01*
X12500Y100000D02*
X26688D01*
X149500Y138000D02*
X177500D01*
X190000D01*
X140000Y147500D02*
X149500Y138000D01*
X140000Y147500D02*
Y147500D01*
X130000Y157500D02*
X140000Y147500D01*
X62500Y180000D02*
X145000D01*
X50000Y192500D02*
X62500Y180000D01*
X32500Y192500D02*
X50000D01*
X42500Y187500D02*
X57500Y172500D01*
X27500Y187500D02*
X42500D01*
X57500Y172500D02*
X140000D01*
X32500Y177500D02*
X40000D01*
X52500Y165000D02*
X135000D01*
X40000Y177500D02*
X52500Y165000D01*
X27553Y172447D02*
X32553D01*
X47500Y157500D01*
X130000D01*
X142500D02*
Y157500D01*
X135000Y165000D02*
X142500Y157500D01*
X163000Y162000D02*
X177500D01*
X145000Y180000D02*
X163000Y162000D01*
X177500D02*
X190000D01*
X158500Y154000D02*
X177500D01*
X140000Y172500D02*
X158500Y154000D01*
X142500Y157500D02*
X154000Y146000D01*
X177500D02*
X190000D01*
X154000D02*
X177500D01*
Y154000D02*
X190000D01*
X190000Y146000D02*
X190000Y146000D01*
X32500Y235000D02*
X37500Y240000D01*
X40405Y242905D02*
X52500D01*
X37500Y240000D02*
X40405Y242905D01*
X30000Y65000D02*
X37500Y72500D01*
X25000Y60000D02*
X30000Y65000D01*
X59200Y60000D02*
Y88300D01*
X12500Y155000D02*
Y160000D01*
Y235000D02*
X32500D01*
X12500Y240000D02*
X37500D01*
X12500Y65000D02*
X30000D01*
X12500Y60000D02*
X25000D01*
X251800Y182500D02*
X254300Y185000D01*
X232139Y184257D02*
Y192361D01*
X233897Y182500D02*
X251800D01*
X232139Y184257D02*
X233897Y182500D01*
X232000Y192500D02*
X232139Y192361D01*
X254300Y185000D02*
X307700D01*
X317300Y175400D01*
X227549Y202500D02*
X248344D01*
X250844Y205000D02*
X300000D01*
X248344Y202500D02*
X250844Y205000D01*
X224383Y199334D02*
X227549Y202500D01*
X224383Y192883D02*
Y199334D01*
X224000Y192500D02*
X224383Y192883D01*
X247531Y213500D02*
X330000D01*
X216000Y201000D02*
X225000Y210000D01*
X244031D01*
X247531Y213500D01*
X330000Y137300D02*
X342700Y150000D01*
X309800Y137300D02*
X330000D01*
X302500Y130000D02*
X309800Y137300D01*
X300000Y152500D02*
X310200Y162700D01*
X330000D02*
X342700Y175400D01*
X310200Y162700D02*
X330000D01*
Y213500D02*
X342700Y200800D01*
X155000Y121000D02*
X156000Y122000D01*
X300000Y205000D02*
X304200Y200800D01*
X317300D01*
X216000Y192500D02*
Y201000D01*
X177500Y178000D02*
X190000D01*
X177500Y170000D02*
X190000D01*
X208000Y192500D02*
Y202000D01*
X200000Y202500D02*
X209241Y211741D01*
X200000Y192500D02*
Y202500D01*
X209241Y217891D02*
X210000Y218650D01*
X209241Y211741D02*
Y217891D01*
X197300Y209800D02*
Y218650D01*
X192000Y204500D02*
X197300Y209800D01*
X192000Y192500D02*
Y204500D01*
X262500Y154000D02*
X272500D01*
X127500Y92500D02*
Y120000D01*
X177500Y130000D02*
X190000D01*
X300000Y145000D02*
Y152500D01*
X293000Y138000D02*
X300000Y145000D01*
X262500Y138000D02*
X293000D01*
X262500Y130000D02*
X302500D01*
X224000Y107500D02*
Y119000D01*
X216000Y107500D02*
Y119000D01*
X240000Y107500D02*
Y119000D01*
X232000Y107500D02*
Y119000D01*
X262500Y69800D02*
Y122000D01*
X252700Y60000D02*
X262500Y69800D01*
X248000Y80700D02*
Y107500D01*
X227300Y60000D02*
X248000Y80700D01*
X192500Y90000D02*
X200000Y97500D01*
Y107500D01*
X130000Y90000D02*
X192500D01*
X127500Y92500D02*
X130000Y90000D01*
D34*
X45000Y202500D02*
X55000D01*
X60000Y197500D01*
X97500D01*
X157500Y104000D02*
X170000D01*
X158500Y122000D02*
X177500D01*
X157500Y121000D02*
X158500Y122000D01*
X97500Y197500D02*
X105950Y205950D01*
X121750D01*
X170000Y104000D02*
X179000D01*
X252500Y192500D02*
X257500Y197500D01*
Y197500D01*
X248000Y192500D02*
X252500D01*
X179000Y104000D02*
X182500Y107500D01*
X192000D01*
X177500Y115000D02*
Y122000D01*
X336000Y55000D02*
X338561Y57561D01*
X341455Y61050D02*
Y72555D01*
X335405Y55000D02*
X336000D01*
X338561Y57561D02*
Y58155D01*
X341455Y61050D01*
Y72555D02*
X342700Y73800D01*
X321439Y57561D02*
X324000Y55000D01*
X321439Y57561D02*
Y58155D01*
X318545Y61050D02*
X321439Y58155D01*
X318545Y61050D02*
Y72555D01*
X324000Y55000D02*
X324595D01*
X317300Y73800D02*
X318545Y72555D01*
X336000Y245000D02*
X338561Y242439D01*
Y241845D02*
Y242439D01*
X335405Y245000D02*
X336000D01*
X338561Y241845D02*
X341455Y238950D01*
Y227445D02*
Y238950D01*
Y227445D02*
X342700Y226200D01*
X317300D02*
Y238300D01*
X324000Y245000D02*
X324595D01*
X317300Y238300D02*
X324000Y245000D01*
X294939Y73561D02*
X297500Y71000D01*
Y70405D02*
Y71000D01*
X294345Y73561D02*
X294939D01*
X292905Y75000D02*
X294345Y73561D01*
X285000Y75000D02*
X292905D01*
X278505Y59595D02*
X297500D01*
X278100Y60000D02*
X278505Y59595D01*
X272500Y165000D02*
X284000D01*
X285000Y166000D01*
X262500Y178000D02*
X262500Y178000D01*
X272500D01*
X262500Y146000D02*
X272500D01*
X282000D02*
X285000Y149000D01*
X272500Y146000D02*
X282000D01*
D35*
X235400Y233850D02*
D03*
Y221150D02*
D03*
X222700Y233850D02*
D03*
X210000D02*
D03*
X222700Y221150D02*
D03*
X210000D02*
D03*
X197300Y233850D02*
D03*
X184600D02*
D03*
X197300Y221150D02*
D03*
X184600D02*
D03*
D36*
X252700Y60000D02*
D03*
X227300D02*
D03*
X201900D02*
D03*
X110000D02*
D03*
X135400D02*
D03*
X84600D02*
D03*
X59200D02*
D03*
D37*
X278100D02*
D03*
X160800D02*
D03*
D38*
X342700Y73800D02*
D03*
Y99200D02*
D03*
X317300Y73800D02*
D03*
Y99200D02*
D03*
X342700Y124600D02*
D03*
X317300D02*
D03*
X342700Y200800D02*
D03*
X317300D02*
D03*
X342700Y226200D02*
D03*
X317300Y175400D02*
D03*
X342700D02*
D03*
X317300Y150000D02*
D03*
X342700D02*
D03*
D39*
X317300Y226200D02*
D03*
D40*
X30000Y102500D02*
D03*
Y160000D02*
D03*
Y145000D02*
D03*
X95000Y187500D02*
D03*
Y149500D02*
D03*
X30000Y205000D02*
D03*
Y87500D02*
D03*
X137500Y252500D02*
D03*
X120000D02*
D03*
X70000D02*
D03*
X55000D02*
D03*
X95000Y232500D02*
D03*
Y222500D02*
D03*
X105000D02*
D03*
Y232500D02*
D03*
X85000Y222500D02*
D03*
Y232500D02*
D03*
X152500Y252500D02*
D03*
Y242500D02*
D03*
X105000D02*
D03*
Y252500D02*
D03*
X85000Y242500D02*
D03*
Y252500D02*
D03*
X30000Y220000D02*
D03*
X37500Y72500D02*
D03*
X45000Y80000D02*
D03*
X170000Y104000D02*
D03*
X177500Y115000D02*
D03*
X285000Y75000D02*
D03*
X382500Y220000D02*
D03*
X272500Y165000D02*
D03*
X257500Y197500D02*
D03*
X272500D02*
D03*
Y178000D02*
D03*
Y146000D02*
D03*
X95000Y117500D02*
D03*
D41*
X140000Y147500D02*
D03*
X32500Y192500D02*
D03*
X27500Y187500D02*
D03*
X32500Y177500D02*
D03*
X27553Y172447D02*
D03*
X45000Y202500D02*
D03*
X142500Y157500D02*
D03*
X190000Y146000D02*
D03*
Y154000D02*
D03*
Y178000D02*
D03*
Y170000D02*
D03*
X208000Y202000D02*
D03*
X272500Y154000D02*
D03*
X127500Y120000D02*
D03*
X190000Y162000D02*
D03*
Y130000D02*
D03*
X224000Y119000D02*
D03*
X216000D02*
D03*
X240000D02*
D03*
X232000D02*
D03*
X190000Y138000D02*
D03*
D49*
X121750Y244050D02*
D03*
Y205950D02*
D03*
X68250D02*
D03*
Y244050D02*
D03*
D50*
X121750Y225000D02*
D03*
X68250D02*
D03*
D51*
X248000Y192500D02*
D03*
X240000Y192500D02*
D03*
X232000Y192500D02*
D03*
X224000D02*
D03*
X216000D02*
D03*
X208000D02*
D03*
X200000D02*
D03*
X192000D02*
D03*
Y107500D02*
D03*
X200000D02*
D03*
X208000D02*
D03*
X216000D02*
D03*
X224000D02*
D03*
X232000D02*
D03*
X240000D02*
D03*
X248000D02*
D03*
D52*
X177500Y178000D02*
D03*
Y170000D02*
D03*
Y162000D02*
D03*
Y154000D02*
D03*
Y146000D02*
D03*
Y138000D02*
D03*
Y130000D02*
D03*
Y122000D02*
D03*
X262500D02*
D03*
Y130000D02*
D03*
Y138000D02*
D03*
Y146000D02*
D03*
Y154000D02*
D03*
Y162000D02*
D03*
X262500Y170000D02*
D03*
D53*
X262500Y178000D02*
D03*
D54*
X335405Y55000D02*
D03*
X324595D02*
D03*
Y245000D02*
D03*
X335405D02*
D03*
M02*
