M48
;Layer_Color=9474304
;FILE_FORMAT=4:4
METRIC,LZ
;TYPE=PLATED
T1F00S00C0.1500
T2F00S00C0.2000
T3F00S00C2.7000
;TYPE=NON_PLATED
T5F00S00C3.2000
%
T01
X0081238Y00554257
X00832583Y00557469
X00833Y00567
X00832784Y00572683
X00832551Y00587526
X00829734Y00595796
X00826542Y00601427
X00832Y00605
X008325Y006175
X008325Y006325
X00826Y00632
X00815014Y00627805
X00800582Y00627335
X0080378Y0061914
X00803401Y00614213
X00807204Y0060598
X00810715Y00597061
X00822256Y00578172
X00818517Y00573876
X00826219Y00647781
X008325Y00648556
X00832178Y006625
X00794675Y0064054
X00801619Y00725848
X00812505Y00729847
X00824273Y0073439
X00824048Y0074061
X00832789Y0074375
X008335Y007275
X00754Y00718
X00738029Y0070392
X00733Y00692
X0073Y00681
X00718416Y00680815
X00713101Y0066488
X00714Y00653
Y00649
X00730875Y00649029
Y00645045
Y00637
X0073343Y00631951
X00732Y00617
X00724113Y00616895
X00716406Y00624594
X00713755Y00627245
X00746096Y00625146
X00751Y00641
X00747Y00645
X00743
X00739125
X00743Y00649
X00747
Y00653
Y00657
X00747025Y00660959
X00743Y00661
X00739
X00735
X00731
Y00657
Y00653
X00739
X00738967Y00656967
X00735Y00657
X00743Y00657
X00735Y00669
X00755889Y00680989
X00756562Y00687574
X00749749Y00687888
X00766737Y00674523
X0077114Y00676525
X00775808Y00676007
X00786687Y00667052
X00775337Y00648116
X00774231Y00640632
X00767Y00568
Y00562
X00771Y00551
X00785Y00555
X00749245Y00574714
X0073175Y0057475
X0070925Y0056825
X0070925Y0056175
X00704Y00551
X00696161Y00548554
X00624822Y00591097
X00619477Y00590715
X0063Y00645
X00634
X00643Y00646649
X00621803Y00686283
X00602039Y00682049
X00561874Y00682006
X0053185Y00681103
X00515196Y00656281
X0051072Y00651726
X005039Y006481
X0048992Y00653045
X0052Y00645
X00524
X0055
X00554
X0057
X00574
X0058Y00655351
X00584
X0069875Y007405
X00706Y00742
X0036708Y00646955
X003531Y006519
X00346279Y00648274
X00341804Y00643719
X00337Y00655
X00333
X00307
X00303
X00287
X00283
X00277Y00644649
X00273
X00254961Y00617951
X00235197Y00613717
X00227Y00655
X00223
X00214Y00653351
X00143Y00651
Y00647
X00143899Y0063512
X00138584Y00619185
X00127Y00619
X00124Y00608
X00118971Y0059608
X00107251Y00612112
X00100437Y00612426
X00101111Y00619011
X00090263Y00625477
X0008586Y00623475
X00081192Y00623993
X00070313Y00632948
X00081663Y00651884
X00082769Y00659368
X00062325Y0065946
X00056418Y00672665
X0005322Y0068086
X00053599Y00685787
X00049796Y0069402
X00046284Y00702939
X00030458Y00698574
X00027266Y00704204
X00024448Y00712474
X00024216Y00727317
X00024Y00733
X00024417Y00742531
X0004462Y00745743
X00038483Y00726124
X00034743Y00721828
X00025Y00695
X000245Y006825
X000245Y006675
X00031Y00668
X00041986Y00672195
X00030781Y00652219
X000245Y00651444
X00024822Y006375
X000235Y005725
X00032727Y0056561
X00032952Y0055939
X00024211Y0055625
X00044495Y00570153
X00055381Y00574152
X00103Y00582
X00109975Y00639041
X0011Y00643
X00114
Y00639
X00118
X00122
X00126
Y00643
Y00647
X00126125Y00650971
Y00654955
Y00663
X0012357Y00668048
X00125Y00683
X00132887Y00683105
X00140594Y00675406
X00143245Y00672755
X00110904Y00674854
X00106Y00659
X0011Y00655
X00114
X00117875
X00114Y00651
X0011
Y00647
X00118
X00118033Y00643033
X00122Y00643
X00122Y00631
X0012525Y0072525
X00107755Y00725286
X0009Y00732
Y00738
X00086Y00749
X00072Y00745
X0014775Y0073825
X0014775Y0073175
X00153Y00749
X00160839Y00751446
X00232178Y00708903
X00237523Y00709285
X00295126Y00617994
X0032515Y00618897
X0015825Y005595
X00151Y00558
T02
X00026Y00133
X0003Y00143
X00035744Y00147533
X0004577Y00152103
X00051911Y00157147
X00056Y00143
X00066Y0013
X00083Y00157
X00091Y0018
X00106261Y00167957
X00064Y00188
X00041Y0018
X00025Y00197
Y00227
X00027488Y00237519
X00025Y00243
X00027Y00253
X00025Y00258
Y00272
X00027Y00278
X00026713Y00282992
X00025Y00288
X00028Y00293
X00031Y00299
X00025Y00302
X00024728Y00352307
X00026Y00357197
X0003Y0036237
X00029729Y00367869
X00032345Y00372474
X00029589Y00377427
X00033077Y00382485
X00029729Y00387577
X00033699Y00391494
X00134941Y00396061
X00167Y00388
X00169Y00375
X00161
X0018205Y00374858
X0019
X00198
X0021Y00376
X00222
X0023Y00374002
X00237858
X00249978Y00365176
X00249943Y00357333
X0023403Y00355908
X00226059Y0035616
X00218033Y00356279
X00216Y0035
X00201814Y00354356
X00194204Y00348919
X00185993Y00336063
X0017722Y00342388
X00194Y00391995
X0021Y00388
X00252115Y00381908
X00266Y0035
X00316
X00366
X00391Y0028
X00341
X00291
X00241
X00268Y00226
X00268128Y00217961
X00268Y0021
Y00202
Y00194
Y00186
X00291Y0018
X00341
X00391
X00366Y0023
X00316
Y0013
X00366
X00266
X00239877Y00142738
X00231471Y00142471
X00216Y0013
X00191Y00138
X0017Y00168
X00171Y00182
X001465Y001965
X00146Y00207
X00157Y00233
X00159Y00242
X00189918Y00241773
X0019Y00233
X00141Y0028
X0012Y00268
X00096Y00265
X00074569Y00288414
X00066Y0023
X00052253Y00237694
X00044Y00229
X00048435Y00219948
X00048446Y00215148
X00085Y00213
X00466Y0024
X00516
X00566
X00616
X00666
X00716
X00764Y00243
Y00253
X00763814Y00232519
X00763206Y00222659
X00763Y00213
X00774Y0021
X00782091Y00211276
X00787768Y00163995
X00793645Y0015114
X00772145Y00159078
X00771Y00167
X00765553Y00172721
X00746558Y0016268
X00740881Y00182425
X00736793Y00191872
X00691Y0019
X00641
X00591
X00541
X00491
X00466Y0014
X00516
X00566
X00666
X00716
X00764Y00118
X00793178Y00118028
X00791Y0029
X00766Y0036
X00760143Y00387097
X00754052Y00393608
X00787Y00388
X00716Y0036
X00666
X00616
X00566
X00516
X00466
X00491Y0029
X00541
X00591
X00691
X00821Y00295
Y003
X00825Y00282
X00815Y00278
X00811745Y00340479
X00811573Y00345247
X00816Y0036
X00822Y00205
Y002
X00803039Y00195642
X00807267Y00176043
X00816787Y00177361
X00816403Y0016386
X0083Y00147
X00833Y00142
Y00137
X00833313Y0013201
X00822Y00125
Y0012
X00803Y00139
X00794Y00215
X007945Y00435
X00794418Y00456361
X00805642Y004725
X00799429Y0048264
X00812509Y005025
X00811636Y00514809
X00811891Y00519998
X00821074Y00424634
Y00419985
X00783043Y00426549
X00782771Y00433165
X0075721Y00438694
X00756878Y00421491
X00741Y0041
X00747Y004025
X00691Y0041
X00666Y0046
X00716
X00766
X007745Y004675
X00774457Y00478336
X00790729Y00477524
X00760612Y00484142
X00741Y0051
X00691
X00641
X00591
X00541
X00491
X00466Y0046
X00516
X00507Y00431
X00491Y0041
X00541
X00582Y00434
Y00468
X00566Y0058
X00516
X00466
X00491Y0063
X00541Y0073
X00591
X00691
X00719Y00717
X007265
X00734
X00791Y0073
X00716Y0058
X00666
X00616
X00391Y005
X00341
X00291
X00241
X00234004Y00468454
X0022581Y00472866
X00217931Y00468517
X00201793Y00467863
X00194Y00471916
X00186147Y00475774
X00178Y00479632
X00174Y00484
X00166Y00496
X00157
X00144998Y0048725
X00136Y00495
X00112536Y00486536
X00108569Y00483491
X00094536Y00498536
X00091Y00495
X00078535Y00508536
X00074822Y00505187
X00026445Y005025
Y004975
X00027Y004875
Y004825
X00028592Y00472101
X00033658Y00468242
X00033962Y00452915
X00027758Y00457086
X00027046Y00442611
X00026514Y00434282
X00026414Y00426506
X00032922Y0042261
X00033158Y00438577
X00034Y00518
X00029
X00066Y0057
X00123Y00583
X001305
X00138
X00166Y0057
X00191Y005
X0019Y00451383
X00182
X00198
X00205858
X00214142
X00222
X0023
X00226Y00432
X0023Y00422002
X0021Y00432
X00185Y00433
X00169Y00428
X00166Y00436
X00165Y00449
X00140136Y00456109
X00135181Y00414328
X001635Y00414457
X00165972Y00399655
X00092502Y00404647
X00080147Y0039992
X00246218Y00443806
X00249557Y00459906
Y00467827
X00266Y0045
X00316
X00366
X00391Y004
X00341
X00291
X00316Y0057
X00266
X00291Y0072
X00341
X00391
X00366Y0067
X00241Y0072
X00191
X00141
T03
X00627Y0013
Y0029
T05
X0005Y0005
X008
X0005Y0081
X008
M30
