M48
;Layer_Color=9474304
;FILE_FORMAT=4:4
METRIC,LZ
T4F00S00C2.4000
%
G90
G05
T04
G00X00860446Y-00011495
M15
G01X00863601Y-00010021
G01X00866201Y-00007704
G01X00868025Y-00004738
G01X00869Y0
G01X00869Y0086
G01X00868494Y00863445
G01X00867021Y00866601
G01X00864704Y008692
G01X00861738Y00871025
G01X00857Y00872
G01X0Y00872
G01X-00003446Y00871495
G01X-00006601Y00870021
G01X-000092Y00867704
G01X-00011025Y00864738
G01X-00012Y0086
G01X-00012Y0
G01X-00011495Y-00003446
G01X-00010021Y-00006601
G01X-00007704Y-000092
G01X-00004738Y-00011025
G01X0Y-00012
G01X00857Y-00012
G01X00860446Y-00011495
M16
G00X00420946Y00308505
M15
G01X00424101Y00309979
G01X00425985Y00311515
G01X00428485Y00314015
G01X00430564Y00316808
G01X00431754Y00320082
G01X00432Y003225
G01X00432Y00415879
G01X00431494Y00419325
G01X00430021Y0042248
G01X00427704Y0042508
G01X00424738Y00426904
G01X00421566Y00427777
G01X00419478Y00428052
G01X00418991Y00428253
G01X00418573Y00428574
G01X00418253Y00428991
G01X00418051Y00429478
G01X00417983Y0043
G01X00418052Y00430522
G01X00418253Y00431009
G01X00418574Y00431426
G01X00418991Y00431747
G01X00419478Y00431949
G01X00421566Y00432224
G01X00424916Y00433174
G01X00427853Y00435047
G01X00430127Y00437684
G01X00431549Y00440863
G01X00432Y00444121
G01X00432Y00537376
G01X00431495Y00540821
G01X00430021Y00543976
G01X00428485Y00545861
G01X00425985Y00548361
G01X00423192Y0055044
G01X00419919Y00551629
G01X004175Y00551876
G01X000425Y00551876
G01X00039054Y0055137
G01X00035899Y00549897
G01X0003362Y00547947
G01X0003112Y00545196
G01X00029176Y00542307
G01X00028824Y00541169
G01X00000034Y0054125
G01X-00003413Y00540754
G01X-00006573Y0053929
G01X-00009179Y0053698
G01X-00011012Y00534019
G01X-00012Y0052925
G01X-00012Y0040975
G01X-00011495Y00406304
G01X-0001028Y00403702
G01X-00011006Y00402532
G01X-00012Y0039775
G01X-00012Y0033075
G01X-00011495Y00327304
G01X-00010021Y00324149
G01X-00007704Y0032155
G01X-00004738Y00319725
G01X0Y0031875
G01X00028688Y0031875
G01X00029784Y00316204
G01X00031515Y00314015
G01X00034015Y00311515
G01X00036808Y00309436
G01X00040081Y00308246
G01X000425Y00308
G01X004175Y00308
G01X00420946Y00308505
M16
G00X00436054Y00331495
M15
G01X00432899Y00330021
G01X00431015Y00328485
G01X00428515Y00325985
G01X00426436Y00323192
G01X00425246Y00319918
G01X00425Y003175
G01X00425Y00224121
G01X00425506Y00220675
G01X00426979Y0021752
G01X00429296Y0021492
G01X00432262Y00213096
G01X00435434Y00212223
G01X00437522Y00211948
G01X00438009Y00211747
G01X00438427Y00211426
G01X00438747Y00211009
G01X00438949Y00210522
G01X00439017Y0021
G01X00438949Y00209478
G01X00438747Y00208991
G01X00438426Y00208573
G01X00438009Y00208253
G01X00437522Y00208051
G01X00435434Y00207776
G01X00432084Y00206826
G01X00429147Y00204953
G01X00426873Y00202316
G01X00425451Y00199137
G01X00425Y00195879
G01X00425Y00102624
G01X00425505Y00099179
G01X00426979Y00096023
G01X00428515Y00094139
G01X00431015Y00091639
G01X00433808Y0008956
G01X00437082Y00088371
G01X004395Y00088124
G01X008145Y00088124
G01X00817946Y0008863
G01X00821101Y00090103
G01X0082338Y00092053
G01X0082588Y00094804
G01X00827824Y00097693
G01X00828176Y00098831
G01X00856966Y0009875
G01X00860413Y00099246
G01X00863573Y0010071
G01X00866179Y0010302
G01X00868012Y00105981
G01X00869Y0011075
G01X00869Y0023025
G01X00868495Y00233696
G01X0086728Y00236298
G01X00868006Y00237468
G01X00869Y0024225
G01X00869Y0030925
G01X00868495Y00312696
G01X00867021Y00315851
G01X00864704Y0031845
G01X00861738Y00320275
G01X00857Y0032125
G01X00828312Y0032125
G01X00827216Y00323796
G01X00825485Y00325985
G01X00822985Y00328485
G01X00820192Y00330564
G01X00816918Y00331754
G01X008145Y00332
G01X004395Y00332
G01X00436054Y00331495
M16
G00X00436054Y00551495
M15
G01X00432899Y00550021
G01X00431015Y00548485
G01X00428515Y00545985
G01X00426436Y00543192
G01X00425246Y00539918
G01X00425Y005375
G01X00425Y00444121
G01X00425506Y00440675
G01X00426979Y0043752
G01X00429296Y0043492
G01X00432262Y00433096
G01X00435434Y00432223
G01X00437522Y00431949
G01X00438009Y00431747
G01X00438427Y00431427
G01X00438747Y00431009
G01X00438949Y00430522
G01X00439017Y0043
G01X00438949Y00429478
G01X00438747Y00428991
G01X00438426Y00428574
G01X00438009Y00428253
G01X00437522Y00428051
G01X00435434Y00427777
G01X00432084Y00426826
G01X00429147Y00424953
G01X00426873Y00422316
G01X00425451Y00419137
G01X00425Y00415879
G01X00425Y00322624
G01X00425505Y00319179
G01X00426979Y00316024
G01X00428515Y00314139
G01X00431015Y00311639
G01X00433808Y0030956
G01X00437082Y00308371
G01X004395Y00308125
G01X008145Y00308125
G01X00817946Y0030863
G01X00821101Y00310103
G01X0082338Y00312053
G01X0082588Y00314804
G01X00827824Y00317693
G01X00828176Y00318831
G01X00856966Y0031875
G01X00860413Y00319246
G01X00863573Y0032071
G01X00866179Y0032302
G01X00868012Y00325981
G01X00869Y0033075
G01X00869Y0045025
G01X00868495Y00453696
G01X0086728Y00456298
G01X00868006Y00457468
G01X00869Y0046225
G01X00869Y0052925
G01X00868495Y00532696
G01X00867021Y00535851
G01X00864704Y0053845
G01X00861738Y00540275
G01X00857Y0054125
G01X00828312Y0054125
G01X00827216Y00543796
G01X00825485Y00545985
G01X00822985Y00548485
G01X00820192Y00550564
G01X00816918Y00551754
G01X008145Y00552
G01X004395Y00552
G01X00436054Y00551495
M16
G00X00436054Y00771495
M15
G01X00432899Y00770021
G01X00431015Y00768485
G01X00428515Y00765985
G01X00426436Y00763192
G01X00425246Y00759918
G01X00425Y007575
G01X00425Y00664121
G01X00425506Y00660675
G01X00426979Y0065752
G01X00429296Y0065492
G01X00432262Y00653096
G01X00435434Y00652223
G01X00437522Y00651949
G01X00438009Y00651747
G01X00438427Y00651427
G01X00438747Y00651009
G01X00438949Y00650522
G01X00439017Y0065
G01X00438949Y00649478
G01X00438747Y00648991
G01X00438426Y00648574
G01X00438009Y00648253
G01X00437522Y00648051
G01X00435434Y00647776
G01X00432084Y00646826
G01X00429147Y00644953
G01X00426873Y00642316
G01X00425451Y00639137
G01X00425Y00635879
G01X00425Y00542624
G01X00425505Y00539179
G01X00426979Y00536024
G01X00428515Y00534139
G01X00431015Y00531639
G01X00433808Y0052956
G01X00437082Y00528371
G01X004395Y00528124
G01X008145Y00528124
G01X00817946Y0052863
G01X00821101Y00530103
G01X0082338Y00532053
G01X0082588Y00534804
G01X00827824Y00537693
G01X00828176Y00538831
G01X00856966Y0053875
G01X00860413Y00539246
G01X00863573Y0054071
G01X00866179Y0054302
G01X00868012Y00545981
G01X00869Y0055075
G01X00869Y0067025
G01X00868495Y00673696
G01X0086728Y00676298
G01X00868006Y00677468
G01X00869Y0068225
G01X00869Y0074925
G01X00868495Y00752696
G01X00867021Y00755851
G01X00864704Y0075845
G01X00861738Y00760275
G01X00857Y0076125
G01X00828312Y0076125
G01X00827216Y00763796
G01X00825485Y00765985
G01X00822985Y00768485
G01X00820192Y00770564
G01X00816918Y00771754
G01X008145Y00772
G01X004395Y00772
G01X00436054Y00771495
M16
G00X00420946Y00528505
M15
G01X00424101Y00529979
G01X00425985Y00531515
G01X00428485Y00534015
G01X00430564Y00536808
G01X00431754Y00540082
G01X00432Y005425
G01X00432Y00635879
G01X00431494Y00639325
G01X00430021Y0064248
G01X00427704Y0064508
G01X00424738Y00646904
G01X00421566Y00647777
G01X00419478Y00648051
G01X00418991Y00648253
G01X00418573Y00648573
G01X00418253Y00648991
G01X00418051Y00649478
G01X00417983Y0065
G01X00418052Y00650522
G01X00418253Y00651009
G01X00418574Y00651426
G01X00418991Y00651747
G01X00419478Y00651949
G01X00421566Y00652224
G01X00424916Y00653174
G01X00427853Y00655047
G01X00430127Y00657684
G01X00431549Y00660863
G01X00432Y00664121
G01X00432Y00757376
G01X00431495Y00760821
G01X00430021Y00763976
G01X00428485Y00765861
G01X00425985Y00768361
G01X00423192Y0077044
G01X00419919Y00771629
G01X004175Y00771875
G01X000425Y00771875
G01X00039054Y0077137
G01X00035899Y00769897
G01X0003362Y00767947
G01X0003112Y00765196
G01X00029176Y00762307
G01X00028824Y00761169
G01X00000034Y0076125
G01X-00003413Y00760754
G01X-00006573Y0075929
G01X-00009179Y0075698
G01X-00011012Y00754019
G01X-00012Y0074925
G01X-00012Y0062975
G01X-00011495Y00626304
G01X-0001028Y00623702
G01X-00011006Y00622532
G01X-00012Y0061775
G01X-00012Y0055075
G01X-00011495Y00547304
G01X-00010021Y00544149
G01X-00007704Y0054155
G01X-00004738Y00539725
G01X0Y0053875
G01X00028688Y0053875
G01X00029784Y00536204
G01X00031515Y00534015
G01X00034015Y00531515
G01X00036808Y00529436
G01X00040081Y00528246
G01X000425Y00528
G01X004175Y00528
G01X00420946Y00528505
M16
G00X00420946Y00088505
M15
G01X00424101Y00089979
G01X00425985Y00091515
G01X00428485Y00094015
G01X00430564Y00096808
G01X00431754Y00100081
G01X00432Y001025
G01X00432Y00195879
G01X00431494Y00199325
G01X00430021Y0020248
G01X00427704Y0020508
G01X00424738Y00206904
G01X00421566Y00207777
G01X00419478Y00208051
G01X00418991Y00208253
G01X00418573Y00208573
G01X00418253Y00208991
G01X00418051Y00209478
G01X00417983Y0021
G01X00418052Y00210522
G01X00418253Y00211009
G01X00418574Y00211426
G01X00418991Y00211747
G01X00419478Y00211949
G01X00421566Y00212224
G01X00424916Y00213174
G01X00427853Y00215047
G01X00430127Y00217684
G01X00431549Y00220863
G01X00432Y00224121
G01X00432Y00317376
G01X00431495Y00320821
G01X00430021Y00323977
G01X00428485Y00325861
G01X00425985Y00328361
G01X00423192Y0033044
G01X00419919Y00331629
G01X004175Y00331876
G01X000425Y00331876
G01X00039054Y0033137
G01X00035899Y00329897
G01X0003362Y00327947
G01X0003112Y00325196
G01X00029176Y00322307
G01X00028824Y00321169
G01X00000034Y0032125
G01X-00003413Y00320754
G01X-00006573Y0031929
G01X-00009179Y0031698
G01X-00011012Y00314019
G01X-00012Y0030925
G01X-00012Y0018975
G01X-00011495Y00186304
G01X-0001028Y00183702
G01X-00011006Y00182532
G01X-00012Y0017775
G01X-00012Y0011075
G01X-00011495Y00107304
G01X-00010021Y00104149
G01X-00007704Y0010155
G01X-00004738Y00099725
G01X0Y0009875
G01X00028688Y0009875
G01X00029784Y00096204
G01X00031515Y00094015
G01X00034015Y00091515
G01X00036808Y00089436
G01X00040081Y00088246
G01X000425Y00088
G01X004175Y00088
G01X00420946Y00088505
M16
M17
M30
