M48
;Layer_Color=9474304
;FILE_FORMAT=4:4
METRIC,LZ
T8F00S00C2.4000
%
G90
G05
T08
G00X01157436Y-00011495
M15
G01X01160592Y-00010021
G01X01163191Y-00007704
G01X01165016Y-00004738
G01X0116599Y0
G01X0116599Y009
G01X01165485Y00903446
G01X01164012Y00906601
G01X01161694Y009092
G01X01158728Y00911025
G01X0115399Y00912
G01X0Y00912
G01X-00003446Y00911495
G01X-00006601Y00910021
G01X-000092Y00907704
G01X-00011025Y00904738
G01X-00012Y009
G01X-00012Y0
G01X-00011495Y-00003446
G01X-00010021Y-00006601
G01X-00007704Y-000092
G01X-00004738Y-00011025
G01X0Y-00012
G01X0115399Y-00012
G01X01157436Y-00011495
M16
G00X00911554Y00801495
M15
G01X00908399Y00800021
G01X00906515Y00798485
G01X00901515Y00793485
G01X00899436Y00790692
G01X00898246Y00787418
G01X00898Y00785
G01X00898Y00711916
G01X00810012Y00712
G01X00806566Y00711498
G01X00803409Y00710028
G01X00801515Y00708485
G01X00796515Y00703485
G01X00794436Y00700692
G01X00793246Y00697418
G01X00793Y00695
G01X00793Y00195
G01X00793505Y00191554
G01X00794979Y00188399
G01X00796515Y00186515
G01X00801515Y00181515
G01X00804308Y00179436
G01X00807582Y00178246
G01X0081Y00178
G01X00898084Y00178
G01X00898Y00105014
G01X00898501Y00101568
G01X00899971Y00098411
G01X00901515Y00096515
G01X00906515Y00091515
G01X00909308Y00089436
G01X00912582Y00088246
G01X00915Y00088
G01X01149Y00088
G01X01152446Y00088505
G01X01155601Y00089979
G01X01157485Y00091515
G01X01162485Y00096515
G01X01164564Y00099308
G01X01165754Y00102581
G01X01166Y00105
G01X01166Y00786
G01X01165495Y00789446
G01X01164021Y00792601
G01X01162485Y00794485
G01X01158485Y00798485
G01X01155692Y00800564
G01X01152418Y00801754
G01X0115Y00802
G01X00915Y00802
G01X00911554Y00801495
M16
G00X00567446Y00088505
M15
G01X00570601Y00089979
G01X00572485Y00091515
G01X00577485Y00096515
G01X00579564Y00099308
G01X00580754Y00102581
G01X00581Y00105
G01X00581Y00121093
G01X00782942Y00120951
G01X00786388Y00121453
G01X00789544Y00122925
G01X00791436Y00124465
G01X00796485Y00129515
G01X00798564Y00132308
G01X00799754Y00135582
G01X008Y00138
G01X008Y00738
G01X00799495Y00741446
G01X00798021Y00744601
G01X00796485Y00746485
G01X00791485Y00751485
G01X00788692Y00753564
G01X00785418Y00754754
G01X00783Y00755
G01X00736965Y00755
G01X00737Y00758893
G01X00736525Y00762343
G01X0073508Y00765512
G01X00733485Y00767485
G01X00728485Y00772485
G01X00725692Y00774564
G01X00722418Y00775754
G01X0072Y00776
G01X00628945Y00776
G01X00629Y00784926
G01X00628516Y00788375
G01X00627062Y0079154
G01X00625485Y00793485
G01X00620485Y00798485
G01X00617692Y00800564
G01X00614418Y00801754
G01X00612Y00802
G01X00005Y00802
G01X00001554Y00801495
G01X-00001601Y00800021
G01X-00003485Y00798485
G01X-00008485Y00793485
G01X-00010564Y00790692
G01X-00011754Y00787418
G01X-00012Y00785
G01X-00012Y00105
G01X-00011495Y00101554
G01X-00010021Y00098399
G01X-00008485Y00096515
G01X-00003485Y00091515
G01X-00000692Y00089436
G01X00002581Y00088246
G01X00005Y00088
G01X00564Y00088
G01X00567446Y00088505
M16
M17
M30
