M48
;Layer_Color=9474304
;FILE_FORMAT=4:4
METRIC,LZ
;TYPE=PLATED
T1F00S00C0.2000
T2F00S00C2.2000
T3F00S00C2.7000
T4F00S00C3.0000
;TYPE=NON_PLATED
T5F00S00C1.1000
T6F00S00C1.2700
T7F00S00C1.6000
T9F00S00C3.2000
%
T01
X0006Y0016
X00088
X0007825Y001825
X0006975Y0018175
X0007825Y002075
X00057Y00211
X00060625Y00229375
X00084Y0023
X00084333Y0024
X00082Y0025
X00102Y0024815
Y0026085
Y0027355
Y0028625
Y0029895
Y0031165
Y0032435
Y0033705
Y0034975
Y0036245
Y0037515
Y0038785
X001148
X0012735
Y0037515
X001148
Y0036245
X0012735
X0014005
Y0037515
X0015274
X0016535
Y0038785
X0015274
X0014005
X001781
Y0037515
X001908
Y0038785
X002035
X002162
X002165Y0037515
X002163Y0036245
X002042
X00191625
Y0034975
X002042
X002163
X0021995Y0033705
X0023055Y0033278
X00234086Y00336315
X00231122Y0034815
X00235134Y0035135
X00233442Y0037675
X00229336Y00373897
X00228992Y0038625
X00232846Y0038945
X00265Y00384
X00268535Y00380465
X0026487Y00359408
X00267396Y00355093
X00264941Y00345593
X00268705Y00342302
X00296Y003425
Y003475
Y003575
Y003625
Y003725
Y003775
X00317924Y00382632
X00316693Y00367589
X00326967Y00371863
X00338661Y0037108
X00350392Y00372293
X00316693Y00352547
X00316929Y00337606
X00318056Y00327121
X00321592Y00323585
X00318924Y00315632
X00327423Y00312745
X00330958Y0030921
X00327916Y00297635
X00331451Y00294099
X00328Y0028
X00331535Y00276465
X00318924Y00284632
Y00299632
X00296Y002975
Y003025
Y00312
Y00317
Y003275
Y003325
X00294719Y00337632
X00296Y002875
Y002825
X00235893Y00282435
X00235545Y00277448
X00227598Y00287598
X00231134Y00291311
X0022992Y00296635
X00233455Y00300171
X0021705Y00299
X002042Y0029895
X00191625
Y0031165
X002042
X002163
Y0032435
X002042
X00191625
Y0033705
X002042
X001788
X001661
Y0034975
X001788
Y0036245
X0016535Y00362375
X0015274
X001534Y0034975
Y0033705
X00153625Y0032435
X001661
Y0031165
X00153625
Y0029895
X001661
Y0028625
X00153625
Y0027355
X001661
Y0026085
X00153625
Y0024815
X001661
X001788
X001908
Y0023545
Y0022275
X001781
Y0023545
X0016535
X00153625
X001407
X00128
X00128363Y00223763
X0014005Y0022275
X0015274
X0016535
Y00209375
Y0019735
X0015274
Y00209375
X0014005
Y0019735
X0012735
Y00209375
X001148Y0021005
Y0019735
X00102
Y0021005
Y0022275
Y0023545
X00115625
Y0024815
X00128
X001407
Y0026085
Y0027355
Y0028625
Y0029895
X00128
X00115625
Y0028625
X00128
Y0027355
X00115625
Y0026085
X00128
X00115625Y0022275
X001781Y00209375
Y0019735
X001908
Y00209375
X002036
Y0019735
X002165
Y00209375
Y0022275
Y0023545
Y0024815
Y0026085
X002042
X00191625
Y0027355
X002042
X002163
Y0028625
X002042
X00191625
X001788
Y0027355
Y0026085
X002036Y0024815
Y0023545
Y0022275
X00230259Y00219649
X00230336Y00213826
X00230897Y00226049
X00231237Y00232639
X00231Y00238
X00231138Y00245702
X0023127Y0025146
X00231369Y0025827
X0024175Y00261148
X0024675Y00262202
X00232349Y00317064
X00228814Y00313528
X001788Y0031165
Y0032435
Y0029895
X001407Y0031165
X0012735
X00115625
X001148Y0032435
X0012735
X0014005
Y0033705
X0012735
X001148
Y0034975
X0012735
X0014005
X00088Y0032
X000675Y003295
Y003105
X00075Y003
X002035Y0037515
X00392118Y00350761
X00392358Y00345329
X00392163Y00340007
X00392486Y00300142
X00392344Y0029511
X003925Y0029
X00371625Y0029
X00393483Y00243129
X00371844Y00205217
X00371731Y00199979
X00325Y002
X00317924Y00197632
X00318674Y00210132
X00295469
X00294719Y00197632
X00275Y002
X002693Y00169822
X00278Y00155
X00260072
X0033549
X00352538
X00343675Y0016857
X00402032Y0018305
X00412032
X00418032Y0017105
X0042263Y0015437
X00421776Y00202146
X00418Y00219
X00431Y00248759
X00436765Y00248653
X00453569Y00243902
X00464924Y00220166
X00460134Y00215192
X00468625Y00210003
X00473921Y00194764
X00496617Y00198913
X00495658Y00211342
X0051Y0023
X00502173Y00241859
X0051635Y00257341
X00538Y0025
X0055Y0025
X00538Y0023
X00525Y002
X00575
X00625
X00675
X00725
X007Y0025
X0065
X006
X00575Y003
X00529024Y00311024
Y00329898
X00509Y00375
X00491Y00382947
X00481073Y00362917
X00464481Y00378256
X00435714Y00373407
X00433331Y00368846
X00437114Y00364044
X00429693Y00359824
X00435387Y00384476
X0044788Y00298343
X0046416Y00294256
X00464924Y00172076
X00460134Y00167134
X00468Y00162
X00496617Y00164166
X006Y0035
X0065
X007
X00725Y003
X00675
X0087715Y00306274
X00898944Y00293187
X0094Y0029885
X00952Y003045
X00965Y0029885
X00991
X01016
X01042
X0105495Y0027806
X01028576Y00273444
X01028118Y00267618
X0104065Y0024815
X01015Y0024825
X01002104Y00238187
X01004Y0022275
X01001Y0021025
X00989Y001975
X0096375
X00976Y0021
X00977425Y00222915
X00951Y00223
X00939048Y00197199
X0092543Y00210187
X01027Y0021
X01028Y00223
X01054277Y00235403
X01064Y00241
X01054397Y00197338
X010145Y0019725
X00990154Y00247892
X01002449Y00281924
X0101525Y0034825
X01019538Y00345677
X01028204Y00355093
X0104075Y0034625
X0105495Y00356513
X01051442Y00368332
X010035Y0037075
X01002875Y00375711
X00990175Y00349199
X0096475Y0034925
X00945493Y0036895
X0092025Y00382
X008865Y0039125
X0086115Y003954
X0097575Y0039525
X0092795Y00324487
X00926903Y00318114
X01101Y003264
X01114
X01129
X01142
Y003534
X01129
X01114
X01101
Y00298
X01114
X01129
X01142
Y00271
X01129
X01114
X01101
Y002209
X01114
X01129
X01142
Y001939
X01129
X01114
X01101
Y001655
X01114
X01129
X01142
Y001385
X01129
X01114
X01101
Y004035
X01114
X01129
X01142
Y004305
X01129
X01114
X01101
Y004589
X01114
X01129
X01142
Y004859
X01129
X01114
X01101
Y00536
X01114
X01129
X01142
Y00563
X01129
X01114
X01101
Y005914
X01114
X01129
X01142
Y006184
X01129
X01114
X01101
Y006685
X01114
X01129
X01142
Y006955
X01129
X01114
X01101
Y007239
X01114
X01129
X01142
Y007509
X01129
X01114
X01101
X0104715Y0069985
X0102175Y00700034
X0099635Y00700115
X0097095Y00700292
X0094555Y00699909
X00951Y00623
X0095061Y0060457
X00952323Y00599873
X00948786Y00596338
X00939351Y0059115
X0092715Y0057835
X009276Y0056565
X00952035Y00563179
X0095334Y00558332
X00952004Y00551092
X0095493Y00546773
X00960118Y00546162
X00965118Y00546118
X0097572Y00557515
X0097875Y00561803
X009871Y00546189
X009921Y00546152
X01012508Y00546339
X01017411Y00545357
X0102955Y00546974
X01038451Y00544986
X0104249Y00547934
X01054162Y00533701
X0102625Y005345
X01028Y00521
X0100415Y00521146
X01003328Y0051372
X01002103Y00498126
X01005799Y0049473
X01018305Y00495836
X01029Y00496
X01027112Y00472517
X01029468Y0046774
X01050169Y00483034
X01054413Y0045135
X0105435Y0043865
X0104825Y00419352
X01026382Y00421702
X01000864Y004217
X01004Y00426
X01002855Y00412994
X00989Y0039885
X00963219
X00975543Y00436485
X0097275Y004575
X00949543Y00456093
X00952743Y00447021
X00927527Y00443141
X0092125Y00458
X0089585Y004665
X0087045Y00471611
X00848Y0043325
X00875031Y00407365
X0090225Y00403865
X00942Y00496
X00959905Y00495491
X00963651Y004917
X0097875Y00518649
X00978242Y00523623
X00998113Y00483085
X0099Y0059115
X00977734Y00584857
X00964283Y00591269
X00973808Y00610204
X01014Y00597
X01054311Y0059675
X0105755Y00592941
X01048511Y00609799
X00924Y00629
X00898Y0062925
X0089775Y0061525
X008965Y0059925
X00892964Y00595714
X00902614Y00594167
X00906601Y0059115
X00882Y00595
X008785Y0059875
X00853439Y00592672
X00849904Y00596207
X008505Y0061275
X0085075Y00624
X0087045Y00634068
X00872438Y00639188
X0090925Y0054425
X0091425
X00725Y005
X00675
X00625
X00575
X00561781Y00468907
X00547561Y0045996
X0055Y0045
X00554Y0042
X00575Y004
X00625
X00675
X00725
X007Y0045
X0065
X006
Y0055
X0065
X00675Y006
X00575
X00525
X00507129Y00631065
X00507374Y00643177
X00496058Y00652058
X00468Y00656
X00462963Y0066151
X00457059Y00651159
X00457382Y00631909
X00463Y00636
X00467546Y00628316
X00475Y006
X00425
X00405689Y0060458
X00400416Y00598586
X00397312Y00612863
X00403635Y00580085
X0040731Y00574572
X00425021Y00549979
X00424746Y00534254
X00424617Y00522617
X00425Y005
X00407832Y00489397
X00411558Y00475693
X00420581Y00476146
X00458343Y00438885
X0045375Y0041325
X00475Y004
X005Y0045
X00525Y005
X00475
X0049288Y00521769
X0049265Y0053465
X00441577Y00542577
X0055Y0055
X00575Y007
X00492724Y00690548
X00474544Y00684133
X00467425Y00701425
X00461425Y00706425
X00457118Y00696955
X00419949Y0069146
X00418322Y00705089
X00410958Y00717021
X00403958
X00402Y00671
X00413
X00418005Y00658995
X00423207Y00643541
X0047452Y00729765
X00496143Y00734836
X00352673Y00725
X00335491Y00725
X00344Y00713
X00317924Y00682632
Y00667632
Y00651441
X00317598Y00639451
X00317896Y00619158
X00317924Y00607632
Y00592632
Y00577632
X00294719
Y00592433
Y00607433
X0029469Y00619158
X00293827Y00639219
X00294719Y00652433
Y00667433
Y00682433
X00275Y007
X00269Y00707
X00277547Y00725
X0026
X002165Y0069265
Y0067995
Y0066725
Y0065455
X00203853Y00654584
X002036Y0066725
Y0067995
Y0069265
X001908
Y0067995
Y0066725
X001781
Y0065455
Y0064185
Y0062915
Y0061645
X001908
Y0060375
Y0059105
X001781
Y0057835
Y0056565
Y0055295
X00166625
X001661Y0054025
X001781
Y0052755
X001661
X001534
X00140768
Y0054025
X00153625
Y00552282
X0014005Y0055295
Y0056565
X0015274
X0016535
Y0057835
X0015274
X0014005
X0012735
X001148
Y0059105
X0012735
X0014005
X0015274
X0016535
Y0060375
X0015274
X0014005
Y0061645
X0015274
X0016535
Y0062915
X0015274
X0014005
X0012735
X001148
Y0064185
X0012735
Y0065455
X001148
Y0066725
X0012735
X0014005
X0015274
X0016535
Y0065455
X0015274
X0014005
Y0064185
X0015274
X0016535
X00190803Y00641853
X00191003Y00654347
X002036Y0064185
Y0062915
Y0061645
Y0060375
Y0059105
X002165
Y0057835
X00203892Y00578439
X00190903Y00578247
X001908Y00564219
Y0055295
Y0054025
Y0052755
Y0051485
Y0050215
Y0048945
Y0047675
X001781
Y0046405
Y0045135
X001908
Y0046405
X002036
Y0045135
Y0043865
Y0042595
Y0041325
Y0040055
X002162
X002165Y0041325
Y0042595
Y0043865
Y0045135
Y0046405
Y0047675
Y0048945
Y0050215
Y0051485
Y0052755
Y0054025
Y0055295
Y00564219
X002036
Y0055295
Y0054025
Y0052755
Y0051485
Y0050215
Y0048945
Y0047675
X001781Y0048945
Y0050215
Y0051485
X0016535
X0015274
X0014005
X0012735
X001148
X00114882Y00525653
X0012735Y0052755
Y0054025
X001148
Y0055295
X0012735
Y0056565
X001148
X00102
Y0057835
Y0059105
Y0060375
Y0061645
Y0062915
Y0064185
Y0065455
Y0066725
Y0067995
Y0069265
X001148
X0012735
X00125Y007
X0012735Y0067995
X001148
X0014005
X0015274
X0016535
Y0069265
X0015274
X0014005
X001781
Y0067995
X001908Y0062915
X002165
Y0061645
Y0060375
Y0064185
X00234064Y00630092
X001781Y0060375
X0012735
X001148
Y0061645
X0012735
X00088Y0062
X000675Y006115
X00067608Y00628609
X00069661Y0063556
X00064554Y0065
X00064364Y0066
X00075Y006
X00102Y0055295
Y0054025
Y0052755
Y0051485
Y0050215
Y0048945
Y0047675
Y0046405
Y0045135
Y0043865
Y0042595
Y0041325
Y0040055
X001148
X0012735
X0014005
Y0041325
X0015274
X0016535
Y0040055
X00153208Y00400082
X001781Y0040055
X001908
Y0041325
X001781
Y0042595
Y0043865
X001908
Y0042595
X0016535
X0015274
X0014005
Y0043865
X0015274
X0016535
Y0045135
X0015274
X0014005
Y0046405
X0015274
X0016535
Y0047675
X0015274
X0014005
Y0048945
X0015274
X0016535
Y0050215
X0015274
X0014005
X0012735
X001148
Y0048945
X0012735
Y0047675
X001148
Y0046405
X0012735
Y0045135
X001148
Y0043865
X0012735
Y0042595
X001148
Y0041325
X0012735
X00075Y004
Y005
X00057Y0052
X00060625Y00532375
X00059Y0073
X00088
X00335Y0065
X00341Y00645
X00346Y0064
X00371
X003712Y00645
X00371303Y0065
X00371Y00654991
X00371738Y00675
X00372Y0068
X00392918Y00661581
X00393029Y00655066
X00392568Y00644968
X00393525Y00634271
X003925Y0059
X00371Y00589032
X00370429Y00594032
X0037044Y00601282
X00372Y0057421
X00372Y0055
X0037Y00540305
X00393Y00531
X00394267Y00526102
X00393394Y0052
X00395303Y00515
X00392743Y00489297
X00385993Y00489575
X0037973Y00489498
X00374671Y0048871
X00354Y00450269
X00362584Y0044
X00345303
X0035432Y00425634
X00392152Y00429337
X00375Y004
X00268535Y00397464
X00265Y00401
X00294719Y00512433
X002965Y005175
X002965Y005225
Y005275
Y005325
Y005375
Y005425
Y005475
X002965Y005525
X0033Y00566
X00335078Y00569748
X00341135Y00574195
X00345393Y00581387
Y00550159
X00317924Y00512632
Y00497632
X00351193Y00619929
T02
X00025Y00145
Y00295
X00384Y00125
X00763Y00163
Y00445
Y00713
X00564Y00765
X00384
X00025Y00745
Y00595
Y00445
T03
X00184Y0013
X00725Y00155
X0097Y0013
Y0076
X00725Y007205
X00184Y0076
T04
X00644Y0029
X00764Y0029
Y0059
X00644Y0059
T05
X00359Y0019
Y0049
T06
X001335Y001732
X00164Y001731
X009595Y001731
X0099Y007169
X001945Y007169
X00164Y007168
T07
X00359Y0039
Y0069
T09
X0005Y0005
X01104
X0005Y0085
X01104
M30
