G04*
G04 #@! TF.GenerationSoftware,Altium Limited,Altium Designer,21.1.0 (24)*
G04*
G04 Layer_Physical_Order=2*
G04 Layer_Color=32768*
%FSLAX44Y44*%
%MOMM*%
G71*
G04*
G04 #@! TF.SameCoordinates,8E971300-D6CB-4BFE-A36B-9E0936113F83*
G04*
G04*
G04 #@! TF.FilePolarity,Negative*
G04*
G01*
G75*
%ADD12C,0.1500*%
%ADD33C,1.0160*%
%ADD34C,0.7080*%
D12*
X412500Y213832D02*
Y210500D01*
X409168Y213832D01*
X408335D01*
X407502Y212999D01*
Y211333D01*
X408335Y210500D01*
D33*
X406000Y150000D02*
G03*
X420000Y136000I14000J-0D01*
G01*
X420000Y164000D02*
G03*
X406000Y150000I0J-14000D01*
G01*
X35000Y249250D02*
G03*
X40000Y254250I0J5000D01*
G01*
X35000Y123750D02*
G03*
X29000Y129750I-6000J0D01*
G01*
X29000Y117750D02*
G03*
X35000Y123750I0J6000D01*
G01*
X40000Y45750D02*
G03*
X35000Y50750I-5000J0D01*
G01*
X40000Y42500D02*
X42500Y40000D01*
X417500D01*
X420000Y42500D01*
Y136000D01*
Y164000D02*
Y257376D01*
X417500Y259876D02*
X420000Y257376D01*
X42500Y259876D02*
X417500D01*
X40000Y257125D02*
X42500Y259876D01*
X40000Y254250D02*
Y257125D01*
X0Y249250D02*
X35000D01*
X0Y129750D02*
Y249250D01*
Y129750D02*
X29000D01*
X0Y117750D02*
X29000D01*
X0Y50750D02*
Y117750D01*
Y50750D02*
X35000D01*
X40000Y42500D02*
Y45750D01*
D34*
X66271Y102476D02*
D03*
X62500Y145000D02*
D03*
X57571Y97360D02*
D03*
X45427Y234753D02*
D03*
X45255Y239521D02*
D03*
X45109Y60002D02*
D03*
X35926Y160015D02*
D03*
Y155366D02*
D03*
X44491Y77500D02*
D03*
X45364Y65191D02*
D03*
X350000Y149000D02*
D03*
X275000Y146000D02*
D03*
Y112000D02*
D03*
X73958Y153451D02*
D03*
X70000Y192000D02*
D03*
X96857Y192903D02*
D03*
X102949Y186392D02*
D03*
X110000Y177500D02*
D03*
X74229Y146835D02*
D03*
X96388Y95857D02*
D03*
X51358Y107500D02*
D03*
M02*
