G04*
G04 #@! TF.GenerationSoftware,Altium Limited,Altium Designer,21.1.0 (24)*
G04*
G04 Layer_Color=32896*
%FSLAX44Y44*%
%MOMM*%
G71*
G04*
G04 #@! TF.SameCoordinates,8E971300-D6CB-4BFE-A36B-9E0936113F83*
G04*
G04*
G04 #@! TF.FilePolarity,Positive*
G04*
G01*
G75*
%ADD12C,0.1500*%
G36*
X415000Y42500D02*
X365000D01*
Y67500D01*
X415000D01*
Y42500D01*
D02*
G37*
%LPC*%
G36*
X382352Y63006D02*
X375966D01*
X375781Y62983D01*
X375341Y62960D01*
X374855Y62937D01*
X374346Y62867D01*
X373860Y62798D01*
X373421Y62682D01*
X373397D01*
X373351Y62659D01*
X373282Y62636D01*
X373189Y62613D01*
X372911Y62497D01*
X372588Y62335D01*
X372217Y62127D01*
X371801Y61872D01*
X371408Y61572D01*
X371014Y61201D01*
X370991D01*
X370968Y61155D01*
X370852Y61016D01*
X370667Y60785D01*
X370459Y60484D01*
X370204Y60114D01*
X369950Y59674D01*
X369695Y59165D01*
X369487Y58610D01*
Y58587D01*
X369464Y58540D01*
X369441Y58448D01*
X369394Y58332D01*
X369371Y58193D01*
X369325Y58008D01*
X369279Y57800D01*
X369209Y57568D01*
X369163Y57314D01*
X369117Y57013D01*
X369070Y56712D01*
X369047Y56365D01*
X368978Y55648D01*
X368955Y54838D01*
Y55000D01*
Y54514D01*
X368978Y54329D01*
Y54144D01*
X369001Y53912D01*
X369024Y53658D01*
X369070Y53126D01*
X369163Y52570D01*
X369302Y51992D01*
X369464Y51437D01*
Y51413D01*
X369487Y51367D01*
X369533Y51274D01*
X369580Y51136D01*
X369626Y50997D01*
X369718Y50835D01*
X369903Y50418D01*
X370135Y49979D01*
X370436Y49493D01*
X370783Y49030D01*
X371176Y48590D01*
X371222Y48544D01*
X371338Y48451D01*
X371523Y48313D01*
X371778Y48128D01*
X372102Y47919D01*
X372472Y47711D01*
X372935Y47503D01*
X373444Y47318D01*
X373467D01*
X373490Y47295D01*
X373559D01*
X373629Y47271D01*
X373883Y47225D01*
X374207Y47156D01*
X374601Y47086D01*
X375087Y47040D01*
X375665Y47017D01*
X376290Y46994D01*
X368955D01*
X382352D01*
Y63006D01*
D02*
G37*
G36*
X411045Y58610D02*
X400471D01*
Y46739D01*
Y46994D01*
X403317D01*
Y48729D01*
X403340Y48683D01*
X403432Y48567D01*
X403571Y48405D01*
X403779Y48197D01*
X404011Y47943D01*
X404312Y47711D01*
X404636Y47456D01*
X405006Y47248D01*
X405052Y47225D01*
X405191Y47179D01*
X405399Y47086D01*
X405677Y46994D01*
X406001Y46901D01*
X406371Y46809D01*
X406764Y46762D01*
X407181Y46739D01*
X407389D01*
X407598Y46762D01*
X407875Y46809D01*
X408222Y46855D01*
X408569Y46947D01*
X408940Y47086D01*
X409287Y47248D01*
X409333Y47271D01*
X409426Y47341D01*
X409611Y47456D01*
X409796Y47618D01*
X410027Y47827D01*
X410235Y48058D01*
X410444Y48359D01*
X410629Y48683D01*
X410652Y48729D01*
X410698Y48845D01*
X410768Y49053D01*
X410837Y49354D01*
X410906Y49724D01*
X410976Y50164D01*
X411022Y50673D01*
X411045Y51251D01*
Y48313D01*
Y51251D01*
Y58610D01*
D02*
G37*
G36*
X391701Y63307D02*
X391423D01*
X391215Y63284D01*
X390960Y63261D01*
X390659Y63238D01*
X390359Y63191D01*
X390012Y63145D01*
X389271Y62983D01*
X388901Y62867D01*
X388531Y62752D01*
X388160Y62590D01*
X387813Y62405D01*
X387489Y62196D01*
X387189Y61965D01*
X387165Y61942D01*
X387119Y61895D01*
X387050Y61826D01*
X386957Y61734D01*
X386842Y61595D01*
X386703Y61433D01*
X386564Y61248D01*
X386402Y61039D01*
X386263Y60785D01*
X386124Y60530D01*
X385985Y60230D01*
X385870Y59906D01*
X385754Y59582D01*
X385661Y59211D01*
X385592Y58841D01*
X385569Y58425D01*
X388808Y58309D01*
Y58332D01*
Y58355D01*
X388855Y58517D01*
X388901Y58725D01*
X388993Y58980D01*
X389109Y59281D01*
X389271Y59559D01*
X389479Y59836D01*
X389711Y60068D01*
X389734Y60091D01*
X389826Y60160D01*
X389988Y60253D01*
X390220Y60345D01*
X390498Y60438D01*
X390845Y60530D01*
X391261Y60600D01*
X391747Y60623D01*
X391978D01*
X392233Y60600D01*
X392534Y60553D01*
X392881Y60484D01*
X393251Y60368D01*
X393598Y60230D01*
X393922Y60021D01*
X393945Y59998D01*
X393992Y59952D01*
X394084Y59882D01*
X394177Y59767D01*
X394269Y59628D01*
X394362Y59443D01*
X394408Y59258D01*
X394431Y59026D01*
Y59003D01*
Y58934D01*
X394408Y58818D01*
X394362Y58702D01*
X394315Y58540D01*
X394246Y58378D01*
X394130Y58216D01*
X393968Y58054D01*
X393945Y58031D01*
X393830Y57962D01*
X393760Y57916D01*
X393644Y57869D01*
X393529Y57800D01*
X393367Y57730D01*
X393182Y57661D01*
X392973Y57568D01*
X392719Y57476D01*
X392464Y57383D01*
X392140Y57291D01*
X391793Y57198D01*
X391423Y57106D01*
X391007Y56990D01*
X390983D01*
X390891Y56967D01*
X390775Y56944D01*
X390613Y56897D01*
X390428Y56851D01*
X390197Y56782D01*
X389942Y56712D01*
X389688Y56643D01*
X389132Y56458D01*
X388554Y56273D01*
X387998Y56064D01*
X387767Y55949D01*
X387536Y55833D01*
X387513D01*
X387489Y55810D01*
X387351Y55717D01*
X387142Y55578D01*
X386888Y55393D01*
X386610Y55162D01*
X386309Y54884D01*
X386008Y54560D01*
X385754Y54190D01*
X385731Y54144D01*
X385661Y54005D01*
X385546Y53797D01*
X385430Y53496D01*
X385314Y53126D01*
X385199Y52686D01*
X385129Y52200D01*
X385106Y51645D01*
Y51413D01*
X385129Y51298D01*
X385152Y51136D01*
X385199Y50812D01*
X385291Y50395D01*
X385430Y49956D01*
X385638Y49516D01*
X385893Y49053D01*
Y49030D01*
X385939Y49007D01*
X386032Y48868D01*
X386217Y48637D01*
X386448Y48382D01*
X386749Y48081D01*
X387142Y47804D01*
X387559Y47526D01*
X388068Y47271D01*
X388091D01*
X388137Y47248D01*
X388207Y47225D01*
X388322Y47179D01*
X388461Y47133D01*
X388623Y47086D01*
X388808Y47040D01*
X389017Y46994D01*
X389271Y46924D01*
X389526Y46878D01*
X390127Y46785D01*
X390798Y46716D01*
X391539Y46693D01*
X385106D01*
X391840D01*
X392048Y46716D01*
X392302Y46739D01*
X392580Y46762D01*
X392904Y46809D01*
X393251Y46878D01*
X394015Y47040D01*
X394408Y47156D01*
X394778Y47271D01*
X395172Y47433D01*
X395542Y47618D01*
X395889Y47827D01*
X396213Y48081D01*
X396236Y48105D01*
X396282Y48151D01*
X396375Y48220D01*
X396468Y48336D01*
X396606Y48498D01*
X396745Y48683D01*
X396907Y48891D01*
X397069Y49123D01*
X397231Y49400D01*
X397393Y49701D01*
X397555Y50048D01*
X397717Y50418D01*
X397833Y50812D01*
X397971Y51251D01*
X398064Y51714D01*
X398134Y52200D01*
X394986Y52501D01*
Y52478D01*
X394963Y52432D01*
Y52339D01*
X394940Y52246D01*
X394848Y51969D01*
X394732Y51622D01*
X394593Y51228D01*
X394385Y50835D01*
X394154Y50488D01*
X393853Y50164D01*
X393806Y50141D01*
X393691Y50048D01*
X393506Y49932D01*
X393228Y49794D01*
X392881Y49655D01*
X392487Y49539D01*
X392025Y49447D01*
X391493Y49423D01*
X391238D01*
X390960Y49470D01*
X390613Y49516D01*
X390243Y49585D01*
X389850Y49701D01*
X389479Y49863D01*
X389155Y50071D01*
X389109Y50094D01*
X389017Y50187D01*
X388901Y50326D01*
X388739Y50511D01*
X388600Y50742D01*
X388461Y51020D01*
X388369Y51298D01*
X388345Y51622D01*
Y51645D01*
Y51714D01*
X388369Y51830D01*
X388392Y51969D01*
X388438Y52108D01*
X388484Y52270D01*
X388577Y52432D01*
X388693Y52593D01*
X388716Y52617D01*
X388762Y52663D01*
X388831Y52732D01*
X388947Y52825D01*
X389109Y52941D01*
X389317Y53056D01*
X389549Y53172D01*
X389850Y53288D01*
X389873D01*
X389965Y53334D01*
X390127Y53380D01*
X390243Y53426D01*
X390382Y53450D01*
X390544Y53496D01*
X390729Y53565D01*
X390937Y53612D01*
X391169Y53681D01*
X391446Y53751D01*
X391747Y53820D01*
X392071Y53912D01*
X392441Y54005D01*
X392464D01*
X392557Y54028D01*
X392696Y54074D01*
X392858Y54121D01*
X393066Y54190D01*
X393321Y54260D01*
X393575Y54352D01*
X393876Y54445D01*
X394478Y54676D01*
X395056Y54954D01*
X395357Y55093D01*
X395611Y55255D01*
X395866Y55416D01*
X396074Y55578D01*
X396097Y55602D01*
X396143Y55648D01*
X396213Y55717D01*
X396306Y55810D01*
X396421Y55949D01*
X396537Y56111D01*
X396676Y56273D01*
X396791Y56481D01*
X397069Y56967D01*
X397300Y57522D01*
X397393Y57823D01*
X397463Y58124D01*
X397509Y58471D01*
X397532Y58818D01*
Y58841D01*
Y58864D01*
Y58934D01*
Y59026D01*
X397486Y59258D01*
X397439Y59559D01*
X397370Y59906D01*
X397254Y60299D01*
X397092Y60715D01*
X396861Y61109D01*
Y61132D01*
X396838Y61155D01*
X396722Y61294D01*
X396583Y61479D01*
X396352Y61710D01*
X396074Y61965D01*
X395727Y62243D01*
X395334Y62497D01*
X394871Y62729D01*
X394848D01*
X394801Y62752D01*
X394732Y62775D01*
X394639Y62821D01*
X394501Y62867D01*
X394362Y62914D01*
X394177Y62960D01*
X393968Y63029D01*
X393506Y63122D01*
X392973Y63215D01*
X392372Y63284D01*
X391701Y63307D01*
D02*
G37*
%LPD*%
G36*
X379113Y49701D02*
X376267D01*
X375966Y49724D01*
X375642D01*
X375318Y49770D01*
X375017Y49794D01*
X374763Y49840D01*
X374716D01*
X374624Y49886D01*
X374485Y49932D01*
X374300Y50002D01*
X374092Y50094D01*
X373883Y50210D01*
X373675Y50349D01*
X373467Y50511D01*
X373444Y50534D01*
X373374Y50603D01*
X373282Y50719D01*
X373166Y50881D01*
X373050Y51089D01*
X372888Y51344D01*
X372773Y51668D01*
X372634Y52038D01*
Y52061D01*
X372611Y52084D01*
Y52154D01*
X372588Y52246D01*
X372541Y52339D01*
X372518Y52478D01*
X372449Y52825D01*
X372402Y53241D01*
X372333Y53727D01*
X372310Y54329D01*
X372287Y54977D01*
Y55000D01*
Y55069D01*
Y55162D01*
Y55278D01*
Y55440D01*
X372310Y55625D01*
X372333Y56018D01*
X372379Y56481D01*
X372426Y56967D01*
X372518Y57407D01*
X372634Y57823D01*
Y57846D01*
X372657Y57869D01*
X372703Y57985D01*
X372773Y58170D01*
X372865Y58401D01*
X373004Y58633D01*
X373166Y58887D01*
X373351Y59142D01*
X373559Y59373D01*
X373583Y59397D01*
X373652Y59466D01*
X373791Y59559D01*
X373953Y59674D01*
X374184Y59813D01*
X374439Y59929D01*
X374716Y60044D01*
X375040Y60137D01*
X375064D01*
X375179Y60160D01*
X375364Y60183D01*
X375619Y60230D01*
X375781D01*
X375989Y60253D01*
X376197D01*
X376429Y60276D01*
X376706D01*
X377007Y60299D01*
X379113D01*
Y49701D01*
D02*
G37*
G36*
X407968Y53264D02*
Y53241D01*
Y53149D01*
Y53033D01*
Y52871D01*
Y52686D01*
Y52478D01*
X407945Y51992D01*
X407921Y51460D01*
X407898Y50974D01*
X407875Y50766D01*
X407852Y50557D01*
X407829Y50395D01*
X407806Y50280D01*
Y50256D01*
X407783Y50187D01*
X407736Y50094D01*
X407667Y49956D01*
X407598Y49817D01*
X407482Y49678D01*
X407366Y49539D01*
X407204Y49400D01*
X407181Y49377D01*
X407112Y49354D01*
X407019Y49308D01*
X406880Y49261D01*
X406718Y49192D01*
X406510Y49146D01*
X406302Y49123D01*
X406047Y49099D01*
X405908D01*
X405770Y49123D01*
X405584Y49146D01*
X405353Y49192D01*
X405122Y49285D01*
X404867Y49377D01*
X404636Y49516D01*
X404613Y49539D01*
X404543Y49585D01*
X404427Y49678D01*
X404289Y49817D01*
X404150Y49979D01*
X404011Y50141D01*
X403872Y50349D01*
X403779Y50580D01*
Y50603D01*
X403733Y50719D01*
Y50812D01*
X403710Y50928D01*
X403687Y51043D01*
X403664Y51205D01*
X403641Y51413D01*
X403618Y51622D01*
X403594Y51876D01*
Y52177D01*
X403571Y52501D01*
X403548Y52871D01*
Y53264D01*
Y53704D01*
Y58610D01*
X407968D01*
Y53264D01*
D02*
G37*
D12*
X31649Y233184D02*
Y238182D01*
X30399D01*
X25401Y233184D01*
X24151D01*
Y244430D02*
X31649D01*
X27900Y240681D01*
Y245680D01*
X23500Y60998D02*
Y56000D01*
X28498Y60998D01*
X29748D01*
X30998Y59749D01*
Y57250D01*
X29748Y56000D01*
M02*
