G04*
G04 #@! TF.GenerationSoftware,Altium Limited,Altium Designer,21.1.0 (24)*
G04*
G04 Layer_Color=16711935*
%FSLAX44Y44*%
%MOMM*%
G71*
G04*
G04 #@! TF.SameCoordinates,8E971300-D6CB-4BFE-A36B-9E0936113F83*
G04*
G04*
G04 #@! TF.FilePolarity,Negative*
G04*
G01*
G75*
%ADD29R,1.7032X0.5532*%
G36*
X-0Y249250D02*
X2Y50750D01*
X21000Y50750D01*
X21000Y249250D01*
X-0Y249250D01*
D02*
G37*
G36*
X410000Y120000D02*
X407639D01*
X402975Y120739D01*
X398484Y122198D01*
X394277Y124342D01*
X390456Y127117D01*
X387117Y130456D01*
X384342Y134277D01*
X382198Y138484D01*
X380739Y142975D01*
X380000Y147639D01*
Y152361D01*
X380739Y157025D01*
X382198Y161516D01*
X384342Y165723D01*
X387117Y169544D01*
X390456Y172883D01*
X394277Y175658D01*
X398484Y177802D01*
X402975Y179261D01*
X407639Y180000D01*
X410000D01*
D01*
X420000Y180000D01*
X420000Y120000D01*
X410000Y120000D01*
D02*
G37*
D29*
X12500Y240000D02*
D03*
Y235000D02*
D03*
Y230000D02*
D03*
Y225000D02*
D03*
Y220000D02*
D03*
Y215000D02*
D03*
Y210000D02*
D03*
Y205000D02*
D03*
Y200000D02*
D03*
Y195000D02*
D03*
Y190000D02*
D03*
Y185000D02*
D03*
Y180000D02*
D03*
Y175000D02*
D03*
Y170000D02*
D03*
Y165000D02*
D03*
Y160000D02*
D03*
Y155000D02*
D03*
Y150000D02*
D03*
Y145000D02*
D03*
Y140000D02*
D03*
Y135000D02*
D03*
Y110000D02*
D03*
Y105000D02*
D03*
Y100000D02*
D03*
Y95000D02*
D03*
Y90000D02*
D03*
Y85000D02*
D03*
Y80000D02*
D03*
Y75000D02*
D03*
Y70000D02*
D03*
Y65000D02*
D03*
Y60000D02*
D03*
M02*
