G04*
G04 #@! TF.GenerationSoftware,Altium Limited,Altium Designer,21.1.0 (24)*
G04*
G04 Layer_Color=65535*
%FSLAX44Y44*%
%MOMM*%
G71*
G04*
G04 #@! TF.SameCoordinates,8E971300-D6CB-4BFE-A36B-9E0936113F83*
G04*
G04*
G04 #@! TF.FilePolarity,Positive*
G04*
G01*
G75*
%ADD10C,0.2500*%
%ADD11C,0.2000*%
%ADD12C,0.1500*%
D10*
X91500Y120500D02*
G03*
X91500Y120500I-1250J0D01*
G01*
D11*
X162748Y77320D02*
Y217500D01*
X162748D02*
X325748D01*
Y77320D02*
Y217500D01*
X162748Y77320D02*
X325748D01*
X79500Y129500D02*
X84750D01*
X115250D02*
X120500D01*
Y165250D02*
Y170500D01*
Y129500D02*
Y134750D01*
X79500Y170500D02*
X84750D01*
X115250D02*
X120500D01*
X79500Y165250D02*
Y170500D01*
Y129500D02*
Y134750D01*
D12*
X25500Y60000D02*
Y57501D01*
Y58750D01*
X32998D01*
X31748Y60000D01*
X31998Y245000D02*
Y240002D01*
X30748D01*
X25750Y245000D01*
X24500D01*
X31998Y232504D02*
Y237502D01*
X28249D01*
X29498Y235003D01*
Y233754D01*
X28249Y232504D01*
X25750D01*
X24500Y233754D01*
Y236253D01*
X25750Y237502D01*
M02*
