G04*
G04 #@! TF.GenerationSoftware,Altium Limited,Altium Designer,21.1.0 (24)*
G04*
G04 Layer_Physical_Order=3*
G04 Layer_Color=128*
%FSLAX44Y44*%
%MOMM*%
G71*
G04*
G04 #@! TF.SameCoordinates,8E971300-D6CB-4BFE-A36B-9E0936113F83*
G04*
G04*
G04 #@! TF.FilePolarity,Negative*
G04*
G01*
G75*
%ADD12C,0.1500*%
%ADD31C,0.3000*%
%ADD33C,1.0160*%
%ADD34C,0.7080*%
D12*
X408335Y217500D02*
X407502Y218333D01*
Y219999D01*
X408335Y220832D01*
X409168D01*
X410001Y219999D01*
Y219166D01*
Y219999D01*
X410834Y220832D01*
X411667D01*
X412500Y219999D01*
Y218333D01*
X411667Y217500D01*
D31*
X30000Y160000D02*
Y164838D01*
X32690Y167528D01*
X38742D01*
X42991Y163279D01*
Y152153D02*
Y163279D01*
Y152153D02*
X56314Y138830D01*
X100005D01*
X103108Y135727D01*
Y94381D02*
Y135727D01*
X98728Y90000D02*
X103108Y94381D01*
X92500Y90000D02*
X98728D01*
X88453Y94047D02*
X92500Y90000D01*
X88453Y94047D02*
Y113588D01*
X72026Y130015D02*
X88453Y113588D01*
X49985Y130015D02*
X72026D01*
X30000Y150000D02*
X49985Y130015D01*
X30000Y150000D02*
Y160000D01*
D33*
X406000Y150000D02*
G03*
X420000Y136000I14000J-0D01*
G01*
X420000Y164000D02*
G03*
X406000Y150000I0J-14000D01*
G01*
X35000Y249250D02*
G03*
X40000Y254250I0J5000D01*
G01*
X35000Y123750D02*
G03*
X29000Y129750I-6000J0D01*
G01*
X29000Y117750D02*
G03*
X35000Y123750I0J6000D01*
G01*
X40000Y45750D02*
G03*
X35000Y50750I-5000J0D01*
G01*
X40000Y42500D02*
X42500Y40000D01*
X417500D01*
X420000Y42500D01*
Y136000D01*
Y164000D02*
Y257376D01*
X417500Y259876D02*
X420000Y257376D01*
X42500Y259876D02*
X417500D01*
X40000Y257125D02*
X42500Y259876D01*
X40000Y254250D02*
Y257125D01*
X0Y249250D02*
X35000D01*
X0Y129750D02*
Y249250D01*
Y129750D02*
X29000D01*
X0Y117750D02*
X29000D01*
X0Y50750D02*
Y117750D01*
Y50750D02*
X35000D01*
X40000Y42500D02*
Y45750D01*
D34*
X391000Y220000D02*
D03*
X241000D02*
D03*
X166000Y170000D02*
D03*
X116000Y70000D02*
D03*
X391000Y120000D02*
D03*
X316000Y170000D02*
D03*
X191000Y220000D02*
D03*
X91000Y120000D02*
D03*
X41000Y220000D02*
D03*
X316000Y70000D02*
D03*
X116000Y170000D02*
D03*
X366000D02*
D03*
X191000Y120000D02*
D03*
X366000Y70000D02*
D03*
X91000Y220000D02*
D03*
X141000Y120000D02*
D03*
X166000Y70000D02*
D03*
X291000Y220000D02*
D03*
X141000D02*
D03*
X266000Y70000D02*
D03*
X341000Y220000D02*
D03*
Y120000D02*
D03*
X216000Y70000D02*
D03*
X62582Y123639D02*
D03*
X66271Y102476D02*
D03*
X57571Y97360D02*
D03*
X44491Y77500D02*
D03*
X99790Y141306D02*
D03*
X100122Y158509D02*
D03*
X275000Y146000D02*
D03*
Y112000D02*
D03*
X73958Y153451D02*
D03*
X70000Y192000D02*
D03*
X96857Y192903D02*
D03*
X102949Y186392D02*
D03*
X110000Y177500D02*
D03*
X74229Y146835D02*
D03*
X82543Y101664D02*
D03*
X82500Y112500D02*
D03*
X51358Y107500D02*
D03*
M02*
