G04*
G04 #@! TF.GenerationSoftware,Altium Limited,Altium Designer,21.1.0 (24)*
G04*
G04 Layer_Physical_Order=4*
G04 Layer_Color=16711680*
%FSLAX44Y44*%
%MOMM*%
G71*
G04*
G04 #@! TF.SameCoordinates,8E971300-D6CB-4BFE-A36B-9E0936113F83*
G04*
G04*
G04 #@! TF.FilePolarity,Positive*
G04*
G01*
G75*
%ADD12C,0.1500*%
%ADD22R,1.5000X0.3500*%
%ADD30C,0.1717*%
%ADD31C,0.3000*%
%ADD32C,0.4000*%
G36*
X417961Y256531D02*
Y165879D01*
X415538Y165397D01*
X415353Y165320D01*
X415156Y165281D01*
X412620Y164231D01*
X412453Y164119D01*
X412268Y164042D01*
X409986Y162518D01*
X409844Y162376D01*
X409677Y162264D01*
X407736Y160323D01*
X407625Y160156D01*
X407482Y160014D01*
X405958Y157732D01*
X405881Y157547D01*
X405769Y157380D01*
X404719Y154844D01*
X404680Y154647D01*
X404603Y154462D01*
X404067Y151770D01*
Y151619D01*
X404031Y151472D01*
X403963Y150100D01*
X403978Y150000D01*
X403963Y149900D01*
X404031Y148528D01*
X404067Y148381D01*
Y148230D01*
X404603Y145538D01*
X404680Y145353D01*
X404719Y145156D01*
X405769Y142620D01*
X405881Y142453D01*
X405957Y142268D01*
X407482Y139986D01*
X407624Y139844D01*
X407736Y139677D01*
X409676Y137736D01*
X409843Y137624D01*
X409985Y137482D01*
X412267Y135958D01*
X412453Y135881D01*
X412620Y135769D01*
X415155Y134719D01*
X415352Y134680D01*
X415538Y134603D01*
X417961Y134121D01*
Y43345D01*
X416655Y42039D01*
X43345D01*
X42039Y43345D01*
Y45750D01*
X42019Y45849D01*
X42029Y45950D01*
X41933Y46925D01*
X41846Y47212D01*
X41788Y47506D01*
X41041Y49308D01*
X40599Y49970D01*
X39220Y51349D01*
X39220Y51349D01*
X38558Y51791D01*
X36756Y52538D01*
X36462Y52596D01*
X36175Y52683D01*
X35200Y52779D01*
X35099Y52769D01*
X35000Y52789D01*
X22540D01*
Y57417D01*
X22974Y57418D01*
X23054Y57452D01*
X43425D01*
X44512Y57002D01*
X45706D01*
X46808Y57458D01*
X47652Y58302D01*
X48109Y59405D01*
Y60598D01*
X47652Y61701D01*
X47733Y63318D01*
X47907Y63492D01*
X48364Y64595D01*
Y65788D01*
X47907Y66891D01*
X47063Y67735D01*
X45961Y68191D01*
X44767D01*
X43664Y67735D01*
X43574Y67645D01*
X23062D01*
X22984Y67678D01*
X22540Y67684D01*
Y95710D01*
Y98498D01*
X22399Y98498D01*
X20089Y98359D01*
X20000Y98322D01*
X19970Y98280D01*
Y101720D01*
X20000Y101678D01*
X20089Y101641D01*
X20240Y101608D01*
X20450Y101579D01*
X21049Y101535D01*
X22540Y101508D01*
Y104290D01*
Y115711D01*
X29000D01*
X29099Y115731D01*
X29200Y115721D01*
X30370Y115836D01*
X30657Y115923D01*
X30951Y115981D01*
X33114Y116877D01*
X33775Y117319D01*
X35431Y118975D01*
X35873Y119636D01*
X36769Y121799D01*
X36827Y122093D01*
X36914Y122380D01*
X37029Y123550D01*
X37010Y123750D01*
X37029Y123950D01*
X36914Y125120D01*
X36827Y125407D01*
X36769Y125701D01*
X35873Y127864D01*
X35431Y128525D01*
X33775Y130181D01*
X33114Y130623D01*
X30951Y131519D01*
X30657Y131577D01*
X30370Y131664D01*
X29200Y131779D01*
X29099Y131769D01*
X29000Y131789D01*
X22540D01*
Y152416D01*
X22974Y152418D01*
X23054Y152451D01*
X35124D01*
X35329Y152366D01*
X36523D01*
X37626Y152823D01*
X38469Y153667D01*
X38926Y154769D01*
Y155963D01*
X38469Y157065D01*
X37844Y157690D01*
X38469Y158315D01*
X38926Y159418D01*
Y160611D01*
X38469Y161714D01*
X37626Y162558D01*
X36523Y163015D01*
X35329D01*
X34227Y162558D01*
X34225Y162556D01*
X23065D01*
X22989Y162590D01*
X22540Y162598D01*
Y232280D01*
X23004Y232295D01*
X23077Y232328D01*
X43610D01*
X43727Y232210D01*
X44830Y231753D01*
X46024D01*
X47126Y232210D01*
X47970Y233054D01*
X48427Y234156D01*
Y235350D01*
X47970Y236452D01*
X47199Y237223D01*
X47798Y237822D01*
X48255Y238925D01*
Y240118D01*
X47798Y241221D01*
X46954Y242065D01*
X45852Y242521D01*
X44658D01*
X44654Y242519D01*
X44506Y242549D01*
X23066D01*
X22989Y242582D01*
X22540Y242590D01*
Y247211D01*
X35000D01*
X35099Y247231D01*
X35200Y247221D01*
X36175Y247317D01*
X36462Y247404D01*
X36756Y247462D01*
X38558Y248209D01*
X38558Y248209D01*
X39220Y248651D01*
X39220Y248651D01*
X40599Y250030D01*
X40599Y250030D01*
X41041Y250692D01*
X41041Y250692D01*
X41788Y252494D01*
X41846Y252788D01*
X41933Y253074D01*
X42029Y254050D01*
X42019Y254151D01*
X42039Y254250D01*
Y256337D01*
X43402Y257836D01*
X416655D01*
X417961Y256531D01*
D02*
G37*
G36*
X20000Y241678D02*
X20089Y241640D01*
X20240Y241608D01*
X20450Y241579D01*
X21049Y241535D01*
X22970Y241500D01*
Y238500D01*
X22399Y238498D01*
X20089Y238360D01*
X20000Y238322D01*
X19970Y238281D01*
Y241719D01*
X20000Y241678D01*
D02*
G37*
G36*
Y236654D02*
X20089Y236596D01*
X20240Y236545D01*
X20450Y236500D01*
X20719Y236462D01*
X21439Y236407D01*
X22970Y236376D01*
Y233377D01*
X19970Y233281D01*
Y236719D01*
X20000Y236654D01*
D02*
G37*
G36*
Y161679D02*
X20089Y161643D01*
X20240Y161611D01*
X20450Y161584D01*
X21049Y161541D01*
X22970Y161507D01*
Y158507D01*
X22399Y158505D01*
X20089Y158362D01*
X20000Y158324D01*
X19970Y158280D01*
Y161719D01*
X20000Y161679D01*
D02*
G37*
G36*
Y156678D02*
X20089Y156641D01*
X20240Y156608D01*
X20450Y156579D01*
X21049Y156535D01*
X22970Y156500D01*
Y153500D01*
X22399Y153498D01*
X20089Y153359D01*
X20000Y153322D01*
X19970Y153280D01*
Y156720D01*
X20000Y156678D01*
D02*
G37*
G36*
Y66696D02*
X20089Y66675D01*
X20240Y66656D01*
X20719Y66627D01*
X22970Y66596D01*
Y63596D01*
X22399Y63593D01*
X20240Y63441D01*
X20089Y63394D01*
X20000Y63340D01*
X19970Y63281D01*
Y66719D01*
X20000Y66696D01*
D02*
G37*
G36*
Y61678D02*
X20089Y61641D01*
X20240Y61608D01*
X20450Y61580D01*
X21049Y61536D01*
X22970Y61501D01*
Y58501D01*
X22399Y58499D01*
X20089Y58360D01*
X20000Y58322D01*
X19970Y58281D01*
Y61719D01*
X20000Y61678D01*
D02*
G37*
%LPC*%
G36*
X414000Y245000D02*
X404002D01*
Y228337D01*
X405002D01*
Y221668D01*
X415000D01*
Y230000D01*
X414000D01*
Y245000D01*
D02*
G37*
G36*
X97454Y195903D02*
X96260D01*
X95157Y195447D01*
X94876Y195166D01*
X94694Y195098D01*
X94622Y195031D01*
X94584Y195003D01*
X94539Y194975D01*
X94484Y194948D01*
X94416Y194921D01*
X94335Y194897D01*
X94237Y194876D01*
X94124Y194859D01*
X93995Y194848D01*
X93822Y194844D01*
X93719Y194798D01*
X83998D01*
X83273Y194654D01*
X82659Y194243D01*
X77598Y189183D01*
X76372Y189079D01*
X75053Y189960D01*
X73874Y190194D01*
X73064Y191257D01*
X73012Y191376D01*
X73000Y191465D01*
Y192597D01*
X72543Y193699D01*
X71699Y194543D01*
X70597Y195000D01*
X69403D01*
X68301Y194543D01*
X67457Y193699D01*
X67000Y192597D01*
Y192199D01*
X66919Y192023D01*
X66915Y191924D01*
X66908Y191877D01*
X66896Y191826D01*
X66876Y191768D01*
X66847Y191701D01*
X66807Y191626D01*
X66753Y191543D01*
X66685Y191451D01*
X66601Y191352D01*
X66482Y191226D01*
X66442Y191121D01*
X43151Y167831D01*
X42740Y167216D01*
X42596Y166491D01*
Y80638D01*
X42550Y80535D01*
X42546Y80362D01*
X42535Y80233D01*
X42518Y80120D01*
X42497Y80022D01*
X42473Y79941D01*
X42446Y79873D01*
X42419Y79818D01*
X42391Y79773D01*
X42363Y79735D01*
X42296Y79663D01*
X42228Y79481D01*
X41947Y79200D01*
X41491Y78097D01*
Y76904D01*
X41947Y75801D01*
X42791Y74957D01*
X43894Y74500D01*
X45087D01*
X46190Y74957D01*
X47034Y75801D01*
X47491Y76904D01*
Y78097D01*
X47034Y79200D01*
X46753Y79481D01*
X46686Y79663D01*
X46619Y79735D01*
X46590Y79773D01*
X46562Y79818D01*
X46535Y79873D01*
X46509Y79941D01*
X46484Y80022D01*
X46463Y80120D01*
X46446Y80233D01*
X46436Y80362D01*
X46431Y80535D01*
X46385Y80638D01*
Y165706D01*
X62429Y181749D01*
X63600Y181124D01*
X63413Y180184D01*
X63722Y178629D01*
X64603Y177310D01*
X64574Y176969D01*
X64438Y176107D01*
X64395Y176014D01*
X64131Y175715D01*
X50019Y161603D01*
X49608Y160988D01*
X49464Y160263D01*
Y110638D01*
X49418Y110535D01*
X49413Y110362D01*
X49402Y110232D01*
X49386Y110119D01*
X49365Y110022D01*
X49340Y109941D01*
X49314Y109873D01*
X49287Y109818D01*
X49259Y109773D01*
X49230Y109735D01*
X49164Y109663D01*
X49096Y109480D01*
X48815Y109199D01*
X48358Y108097D01*
Y106903D01*
X48815Y105801D01*
X49659Y104957D01*
X50762Y104500D01*
X51955D01*
X53058Y104957D01*
X53902Y105801D01*
X54358Y106903D01*
X55226Y106864D01*
Y106864D01*
X55227Y106864D01*
X55605Y105751D01*
Y99637D01*
X55027Y99059D01*
X54571Y97957D01*
Y96763D01*
X55027Y95661D01*
X55871Y94817D01*
X56974Y94360D01*
X58168D01*
X59270Y94817D01*
X60114Y95661D01*
X60571Y96763D01*
Y97957D01*
X60114Y99059D01*
X59395Y99779D01*
Y142066D01*
X60665Y142593D01*
X60801Y142457D01*
X61903Y142000D01*
X63097D01*
X63275Y142074D01*
X64545Y141225D01*
Y104993D01*
X63728Y104176D01*
X63271Y103073D01*
Y101880D01*
X63728Y100777D01*
X64571Y99933D01*
X65674Y99476D01*
X66868D01*
X67970Y99933D01*
X68814Y100777D01*
X69271Y101880D01*
Y103073D01*
X68814Y104176D01*
X68335Y104655D01*
Y151631D01*
X69688Y152984D01*
X70150Y152936D01*
X71074Y152574D01*
X71414Y151752D01*
X72258Y150908D01*
X72581Y150774D01*
Y149399D01*
X72530Y149378D01*
X71686Y148535D01*
X71229Y147432D01*
Y146238D01*
X71686Y145136D01*
X72530Y144292D01*
X73633Y143835D01*
X74826D01*
X75929Y144292D01*
X76210Y144573D01*
X76392Y144640D01*
X76465Y144707D01*
X76502Y144736D01*
X76547Y144763D01*
X76603Y144791D01*
X76670Y144817D01*
X76752Y144841D01*
X76849Y144863D01*
X76962Y144879D01*
X77091Y144890D01*
X77264Y144895D01*
X77367Y144941D01*
X239380D01*
X271442Y112879D01*
X271482Y112774D01*
X271601Y112648D01*
X271685Y112549D01*
X271753Y112458D01*
X271807Y112374D01*
X271847Y112299D01*
X271876Y112232D01*
X271896Y112174D01*
X271908Y112122D01*
X271915Y112076D01*
X271919Y111977D01*
X272000Y111801D01*
Y111403D01*
X272457Y110301D01*
X273301Y109457D01*
X274403Y109000D01*
X275597D01*
X276699Y109457D01*
X277543Y110301D01*
X278000Y111403D01*
Y112597D01*
X277543Y113699D01*
X276699Y114543D01*
X275597Y115000D01*
X275199D01*
X275023Y115082D01*
X274924Y115085D01*
X274877Y115092D01*
X274826Y115104D01*
X274767Y115124D01*
X274701Y115153D01*
X274626Y115193D01*
X274543Y115247D01*
X274451Y115315D01*
X274352Y115399D01*
X274226Y115518D01*
X274121Y115558D01*
X241505Y148175D01*
X240890Y148586D01*
X240165Y148730D01*
X77367D01*
X77264Y148776D01*
X77091Y148780D01*
X76962Y148791D01*
X76849Y148808D01*
X76752Y148829D01*
X76670Y148853D01*
X76602Y148880D01*
X76547Y148907D01*
X76502Y148935D01*
X76465Y148963D01*
X76392Y149030D01*
X76210Y149097D01*
X75929Y149378D01*
X75606Y149512D01*
Y150887D01*
X75657Y150908D01*
X75938Y151189D01*
X76121Y151256D01*
X76193Y151323D01*
X76230Y151352D01*
X76276Y151379D01*
X76331Y151407D01*
X76398Y151433D01*
X76480Y151457D01*
X76577Y151479D01*
X76690Y151495D01*
X76819Y151506D01*
X76993Y151511D01*
X77095Y151556D01*
X253115D01*
Y151477D01*
X253225Y151432D01*
X253270Y151323D01*
X253349D01*
Y148122D01*
X253307D01*
X253617Y146567D01*
X254498Y145248D01*
X255816Y144367D01*
X257372Y144057D01*
X258927Y144367D01*
X260246Y145248D01*
X261127Y146567D01*
X261437Y148122D01*
X261395D01*
Y151323D01*
X261474D01*
X261519Y151432D01*
X261629Y151477D01*
Y151556D01*
X266764D01*
X271442Y146879D01*
X271482Y146774D01*
X271601Y146648D01*
X271685Y146549D01*
X271753Y146458D01*
X271807Y146374D01*
X271847Y146299D01*
X271876Y146232D01*
X271896Y146174D01*
X271908Y146123D01*
X271915Y146076D01*
X271919Y145977D01*
X272000Y145801D01*
Y145403D01*
X272457Y144301D01*
X273301Y143457D01*
X274403Y143000D01*
X275597D01*
X276699Y143457D01*
X277543Y144301D01*
X278000Y145403D01*
Y146597D01*
X277543Y147699D01*
X276699Y148543D01*
X275597Y149000D01*
X275199D01*
X275023Y149081D01*
X274924Y149085D01*
X274877Y149092D01*
X274826Y149104D01*
X274767Y149124D01*
X274701Y149153D01*
X274626Y149193D01*
X274543Y149247D01*
X274451Y149315D01*
X274352Y149399D01*
X274226Y149518D01*
X274121Y149558D01*
X268889Y154791D01*
X268274Y155202D01*
X267549Y155346D01*
X261629D01*
Y155388D01*
X260073Y155078D01*
X258754Y154197D01*
X258078Y153184D01*
X257752Y153102D01*
X256991D01*
X256666Y153184D01*
X255989Y154197D01*
X254671Y155078D01*
X253115Y155388D01*
Y155346D01*
X77095D01*
X76993Y155392D01*
X76819Y155396D01*
X76690Y155407D01*
X76577Y155424D01*
X76480Y155445D01*
X76398Y155469D01*
X76331Y155496D01*
X76276Y155523D01*
X76230Y155551D01*
X76193Y155579D01*
X76121Y155646D01*
X75938Y155713D01*
X75657Y155994D01*
X74835Y156335D01*
X74658Y156613D01*
X74445Y157238D01*
X74378Y157721D01*
X75047Y158721D01*
X75356Y160277D01*
X75234Y160888D01*
X76380Y161500D01*
X76694Y161166D01*
X76694Y161166D01*
X78012Y160285D01*
X79568Y159975D01*
X81123Y160285D01*
X82442Y161166D01*
X82442Y161166D01*
X82442Y161166D01*
X82442Y161166D01*
X83323Y162485D01*
X83633Y164040D01*
X83323Y165596D01*
X82442Y166914D01*
X82468Y167131D01*
X83331Y168252D01*
X84887Y168561D01*
X86205Y169443D01*
X86176Y169472D01*
X92309Y175605D01*
X107652D01*
X108301Y174957D01*
X109403Y174500D01*
X110597D01*
X111699Y174957D01*
X112543Y175801D01*
X113000Y176903D01*
Y178097D01*
X112543Y179199D01*
X111699Y180043D01*
X110597Y180500D01*
X109403D01*
X108301Y180043D01*
X107652Y179395D01*
X91524D01*
X90799Y179251D01*
X90184Y178840D01*
X84371Y173027D01*
X83441Y172207D01*
X83279D01*
X82415Y172961D01*
X82415Y172961D01*
X81097Y173842D01*
X80866Y173888D01*
X80583Y175226D01*
X81395Y176095D01*
X86069Y180758D01*
X86677Y181364D01*
X86677Y181364D01*
X89817Y184497D01*
X100601D01*
X101249Y183848D01*
X102352Y183392D01*
X103545D01*
X104648Y183848D01*
X105492Y184692D01*
X105948Y185795D01*
Y186988D01*
X105492Y188091D01*
X104648Y188935D01*
X103545Y189392D01*
X102352D01*
X101249Y188935D01*
X100601Y188286D01*
X89033D01*
X88675Y188215D01*
X88310Y188143D01*
X88309Y188142D01*
X88308Y188142D01*
X88006Y187940D01*
X87695Y187733D01*
X84000Y184047D01*
X84000Y184047D01*
X83393Y183440D01*
X78544Y178603D01*
X77729Y178055D01*
X76868Y178627D01*
X76868Y178627D01*
X75618Y179463D01*
X75170Y179552D01*
X74586Y180963D01*
X74719Y181163D01*
X75029Y182718D01*
X74777Y183980D01*
X74870Y184156D01*
X75375Y184711D01*
X75775Y184978D01*
X76903Y184753D01*
X78459Y185063D01*
X79778Y185944D01*
X79748Y185973D01*
X84783Y191009D01*
X93719D01*
X93822Y190963D01*
X93995Y190958D01*
X94124Y190947D01*
X94237Y190931D01*
X94335Y190910D01*
X94416Y190885D01*
X94484Y190859D01*
X94539Y190832D01*
X94584Y190804D01*
X94622Y190775D01*
X94694Y190709D01*
X94876Y190641D01*
X95157Y190360D01*
X96260Y189903D01*
X97454D01*
X98556Y190360D01*
X99400Y191204D01*
X99857Y192307D01*
Y193500D01*
X99400Y194603D01*
X98556Y195447D01*
X97454Y195903D01*
D02*
G37*
G36*
X350597Y152000D02*
X349403D01*
X348301Y151543D01*
X347457Y150699D01*
X347000Y149597D01*
Y148403D01*
X347457Y147301D01*
X348301Y146457D01*
X349403Y146000D01*
X350597D01*
X351699Y146457D01*
X352543Y147301D01*
X353000Y148403D01*
Y149597D01*
X352543Y150699D01*
X351699Y151543D01*
X350597Y152000D01*
D02*
G37*
G36*
X96985Y98857D02*
X95791D01*
X94688Y98401D01*
X93844Y97557D01*
X93388Y96454D01*
Y95261D01*
X93844Y94158D01*
X94688Y93314D01*
X95791Y92858D01*
X96985D01*
X98087Y93314D01*
X98931Y94158D01*
X99388Y95261D01*
Y96454D01*
X98931Y97557D01*
X98087Y98401D01*
X96985Y98857D01*
D02*
G37*
%LPD*%
G36*
X95429Y191503D02*
X95317Y191606D01*
X95196Y191698D01*
X95064Y191780D01*
X94921Y191850D01*
X94769Y191910D01*
X94606Y191958D01*
X94432Y191996D01*
X94249Y192023D01*
X94055Y192040D01*
X93850Y192045D01*
Y193762D01*
X94055Y193767D01*
X94249Y193783D01*
X94432Y193810D01*
X94606Y193848D01*
X94769Y193897D01*
X94921Y193957D01*
X95064Y194027D01*
X95196Y194108D01*
X95317Y194200D01*
X95429Y194303D01*
Y191503D01*
D02*
G37*
G36*
X69980Y190000D02*
X69829Y189994D01*
X69677Y189973D01*
X69527Y189937D01*
X69376Y189886D01*
X69226Y189821D01*
X69076Y189740D01*
X68927Y189644D01*
X68778Y189534D01*
X68629Y189408D01*
X68481Y189267D01*
X67267Y190481D01*
X67408Y190629D01*
X67533Y190778D01*
X67644Y190927D01*
X67740Y191076D01*
X67821Y191226D01*
X67887Y191376D01*
X67937Y191527D01*
X67973Y191677D01*
X67994Y191828D01*
X68000Y191980D01*
X69980Y190000D01*
D02*
G37*
G36*
X69998Y175707D02*
X70307Y174151D01*
X71188Y172833D01*
X71258Y172518D01*
X71183Y171290D01*
X70950Y171027D01*
X70520Y170597D01*
X70519Y170596D01*
X70518Y170596D01*
X56160Y156238D01*
X55749Y155623D01*
X55605Y154898D01*
Y109249D01*
X55227Y108136D01*
X55226Y108136D01*
Y108136D01*
X54358Y108097D01*
X53902Y109199D01*
X53621Y109480D01*
X53553Y109663D01*
X53486Y109735D01*
X53458Y109773D01*
X53430Y109818D01*
X53403Y109873D01*
X53376Y109941D01*
X53352Y110022D01*
X53331Y110119D01*
X53314Y110232D01*
X53303Y110362D01*
X53299Y110535D01*
X53253Y110638D01*
Y159478D01*
X67708Y173934D01*
X67738Y173904D01*
X68619Y175223D01*
X68758Y175923D01*
X69998Y175707D01*
D02*
G37*
G36*
X75497Y154748D02*
X75619Y154656D01*
X75751Y154575D01*
X75893Y154504D01*
X76046Y154445D01*
X76209Y154396D01*
X76382Y154358D01*
X76566Y154331D01*
X76760Y154315D01*
X76964Y154310D01*
Y152593D01*
X76760Y152587D01*
X76566Y152571D01*
X76382Y152544D01*
X76209Y152506D01*
X76046Y152457D01*
X75893Y152398D01*
X75751Y152327D01*
X75619Y152246D01*
X75497Y152154D01*
X75386Y152051D01*
Y154851D01*
X75497Y154748D01*
D02*
G37*
G36*
X273629Y148592D02*
X273778Y148467D01*
X273927Y148356D01*
X274076Y148260D01*
X274226Y148179D01*
X274376Y148113D01*
X274527Y148063D01*
X274677Y148027D01*
X274828Y148006D01*
X274980Y148000D01*
X273000Y146020D01*
X272994Y146172D01*
X272973Y146323D01*
X272937Y146473D01*
X272887Y146624D01*
X272821Y146774D01*
X272740Y146924D01*
X272644Y147073D01*
X272533Y147222D01*
X272408Y147371D01*
X272267Y147519D01*
X273481Y148733D01*
X273629Y148592D01*
D02*
G37*
G36*
X75769Y148132D02*
X75891Y148040D01*
X76023Y147959D01*
X76165Y147889D01*
X76318Y147829D01*
X76481Y147780D01*
X76654Y147742D01*
X76838Y147715D01*
X77031Y147699D01*
X77236Y147694D01*
Y145977D01*
X77031Y145971D01*
X76838Y145955D01*
X76654Y145928D01*
X76481Y145890D01*
X76318Y145841D01*
X76165Y145782D01*
X76023Y145711D01*
X75891Y145630D01*
X75769Y145538D01*
X75658Y145435D01*
Y148235D01*
X75769Y148132D01*
D02*
G37*
G36*
X273629Y114592D02*
X273778Y114466D01*
X273927Y114356D01*
X274076Y114260D01*
X274226Y114179D01*
X274376Y114114D01*
X274527Y114063D01*
X274677Y114027D01*
X274828Y114006D01*
X274980Y114000D01*
X273000Y112020D01*
X272994Y112171D01*
X272973Y112323D01*
X272937Y112473D01*
X272887Y112624D01*
X272821Y112774D01*
X272740Y112924D01*
X272644Y113073D01*
X272533Y113222D01*
X272408Y113371D01*
X272267Y113519D01*
X273481Y114733D01*
X273629Y114592D01*
D02*
G37*
G36*
X52222Y110302D02*
X52238Y110108D01*
X52266Y109925D01*
X52303Y109751D01*
X52352Y109588D01*
X52412Y109436D01*
X52482Y109293D01*
X52563Y109161D01*
X52655Y109040D01*
X52758Y108928D01*
X49958D01*
X50061Y109040D01*
X50153Y109161D01*
X50235Y109293D01*
X50305Y109436D01*
X50365Y109588D01*
X50413Y109751D01*
X50451Y109925D01*
X50478Y110108D01*
X50495Y110302D01*
X50500Y110506D01*
X52217D01*
X52222Y110302D01*
D02*
G37*
G36*
X45354Y80302D02*
X45371Y80108D01*
X45398Y79925D01*
X45436Y79752D01*
X45484Y79588D01*
X45544Y79436D01*
X45615Y79293D01*
X45696Y79162D01*
X45788Y79040D01*
X45891Y78928D01*
X43091D01*
X43194Y79040D01*
X43286Y79162D01*
X43367Y79293D01*
X43437Y79436D01*
X43497Y79588D01*
X43546Y79752D01*
X43584Y79925D01*
X43611Y80108D01*
X43627Y80302D01*
X43632Y80507D01*
X45349D01*
X45354Y80302D01*
D02*
G37*
D12*
X406502Y242500D02*
X411500D01*
Y240001D01*
X410667Y239168D01*
X409834D01*
X409001D01*
X408168Y240001D01*
Y242500D01*
X411500Y236669D02*
Y235002D01*
X410667Y234169D01*
X409001D01*
X408168Y235002D01*
Y236669D01*
X409001Y237502D01*
X410667D01*
X411500Y236669D01*
X407335Y231670D02*
X408168D01*
Y232503D01*
Y230837D01*
Y231670D01*
X410667D01*
X411500Y230837D01*
X412500Y225001D02*
X407502D01*
X410001Y227500D01*
Y224168D01*
D22*
X12500Y240000D02*
D03*
Y235000D02*
D03*
Y230000D02*
D03*
Y225000D02*
D03*
Y220000D02*
D03*
Y215000D02*
D03*
Y210000D02*
D03*
Y205000D02*
D03*
Y200000D02*
D03*
Y195000D02*
D03*
Y190000D02*
D03*
Y185000D02*
D03*
Y180000D02*
D03*
Y175000D02*
D03*
Y170000D02*
D03*
Y165000D02*
D03*
Y160000D02*
D03*
Y155000D02*
D03*
Y150000D02*
D03*
Y145000D02*
D03*
Y140000D02*
D03*
Y135000D02*
D03*
Y110000D02*
D03*
Y105000D02*
D03*
Y100000D02*
D03*
Y95000D02*
D03*
Y90000D02*
D03*
Y85000D02*
D03*
Y80000D02*
D03*
Y75000D02*
D03*
Y70000D02*
D03*
Y65000D02*
D03*
Y60000D02*
D03*
D30*
X76238Y176569D02*
G03*
X79216Y176597I1475J1535D01*
G01*
X75537Y177242D02*
G03*
X72528Y177182I-1475J-1535D01*
G01*
D02*
G03*
X72588Y174172I1535J-1475D01*
G01*
X73187Y170582D02*
G03*
X73159Y173624I-1503J1507D01*
G01*
X81826Y170812D02*
G03*
X84836Y170812I1505J1505D01*
G01*
X81046Y171592D02*
G03*
X78036Y171592I-1505J-1505D01*
G01*
D02*
G03*
X78036Y168582I1505J-1505D01*
G01*
X81073Y162535D02*
G03*
X81073Y165545I-1505J1505D01*
G01*
X78063Y162535D02*
G03*
X81073Y162535I1505J1505D01*
G01*
X75026Y165572D02*
G03*
X72016Y165572I-1505J-1505D01*
G01*
X72016Y165572D02*
G03*
X72016Y162562I1505J-1505D01*
G01*
X72796Y158772D02*
G03*
X72796Y161782I-1505J1505D01*
G01*
X75398Y187313D02*
G03*
X78408Y187313I1505J1505D01*
G01*
X75002Y187709D02*
G03*
X71993Y187709I-1505J-1505D01*
G01*
D02*
G03*
X71993Y184699I1505J-1505D01*
G01*
X72469Y181213D02*
G03*
X72469Y184223I-1505J1505D01*
G01*
X69459Y181213D02*
G03*
X72469Y181213I1505J1505D01*
G01*
X68983Y181689D02*
G03*
X65973Y181689I-1505J-1505D01*
G01*
X65972Y181689D02*
G03*
X65972Y178679I1505J-1505D01*
G01*
X66368Y175273D02*
G03*
X66368Y178283I-1505J1505D01*
G01*
X261629Y153451D02*
G03*
X259500Y151323I0J-2128D01*
G01*
X255244Y148122D02*
G03*
X259500Y148122I2128J0D01*
G01*
X255244Y151323D02*
G03*
X253115Y153451I-2128J0D01*
G01*
X84731Y182099D02*
X85339Y182705D01*
X79216Y176597D02*
X84731Y182099D01*
X75537Y177242D02*
X76238Y176569D01*
X75537Y177242D02*
X75537Y177242D01*
X72588Y174172D02*
X72588Y174172D01*
X73159Y173624D01*
X73159Y173624D02*
X73159Y173624D01*
X72466Y169862D02*
X73187Y170582D01*
X71858Y169256D02*
X72466Y169862D01*
X85339Y182705D02*
X89033Y186392D01*
X57500Y154898D02*
X71858Y169256D01*
X84836Y170812D02*
X91524Y177500D01*
X81046Y171592D02*
X81826Y170812D01*
X81046Y171592D02*
X81046Y171592D01*
X78036Y168582D02*
X78036Y168582D01*
X81073Y165545D01*
X81073Y165545D02*
X81073Y165545D01*
X81073Y162535D02*
X81073Y162535D01*
X78063Y162535D02*
X78063Y162535D01*
X75026Y165572D02*
X78063Y162535D01*
X75026Y165572D02*
X75026Y165572D01*
X72016Y165572D02*
X72016Y165572D01*
X72016Y162562D02*
X72016Y162562D01*
X72796Y161782D01*
X72796Y161782D02*
X72796Y161782D01*
X72189Y158165D02*
X72796Y158772D01*
X66440Y152416D02*
X72189Y158165D01*
X91524Y177500D02*
X110000D01*
X89033Y186392D02*
X102949D01*
X66271Y102476D02*
X66440Y102646D01*
Y152416D01*
X57500Y97431D02*
X57571Y97360D01*
X57500Y97431D02*
Y154898D01*
X78408Y187313D02*
X82548Y191452D01*
X75002Y187709D02*
X75398Y187313D01*
X75002Y187709D02*
X75002Y187709D01*
X71993Y184699D02*
X71993Y184699D01*
X72469Y184223D01*
X72469Y184223D02*
X72469Y184223D01*
X72469Y181213D02*
X72469Y181213D01*
X69459Y181213D02*
X69459Y181213D01*
X68983Y181689D02*
X69459Y181213D01*
X68983Y181689D02*
X68983Y181689D01*
X65972Y181689D02*
X65973Y181689D01*
X65972Y178679D02*
X65972Y178679D01*
X66368Y178283D01*
X66368Y178283D02*
X66368Y178283D01*
X65761Y174666D02*
X66368Y175273D01*
X51358Y160263D02*
X65761Y174666D01*
X82548Y191452D02*
X83998Y192903D01*
X44491Y77500D02*
Y166491D01*
X70000Y192000D01*
X51358Y107500D02*
Y160263D01*
X261629Y153451D02*
X267549D01*
X259500Y148122D02*
Y151323D01*
X255244Y148122D02*
Y151323D01*
X248000Y153451D02*
X253115D01*
X73958D02*
X248000D01*
X267549D02*
X275000Y146000D01*
X240165Y146835D02*
X275000Y112000D01*
X74229Y146835D02*
X240165D01*
X83998Y192903D02*
X96857D01*
D31*
X12500Y235000D02*
X12623Y234876D01*
X44506Y240000D02*
X44984Y239521D01*
X12500Y240000D02*
X44506D01*
X44984Y239521D02*
X45255D01*
X12623Y234876D02*
X45303D01*
X45427Y234753D01*
X12500Y60000D02*
X12501Y60001D01*
X45108D01*
X45109Y60002D01*
X12507Y160007D02*
X35919D01*
X35926Y160015D01*
X12500Y160000D02*
X12507Y160007D01*
X35656Y155366D02*
X35926D01*
X12500Y155000D02*
X35289D01*
X35656Y155366D01*
X12500Y100000D02*
X30000D01*
X12596Y65096D02*
X45268D01*
X45364Y65191D01*
X12500Y65000D02*
X12596Y65096D01*
D32*
X391000Y220000D02*
D03*
X241000D02*
D03*
X166000Y170000D02*
D03*
X116000Y70000D02*
D03*
X391000Y120000D02*
D03*
X316000Y170000D02*
D03*
X191000Y220000D02*
D03*
X91000Y120000D02*
D03*
X41000Y220000D02*
D03*
X316000Y70000D02*
D03*
X116000Y170000D02*
D03*
X366000D02*
D03*
X191000Y120000D02*
D03*
X366000Y70000D02*
D03*
X91000Y220000D02*
D03*
X141000Y120000D02*
D03*
X166000Y70000D02*
D03*
X291000Y220000D02*
D03*
X141000D02*
D03*
X266000Y70000D02*
D03*
X341000Y220000D02*
D03*
Y120000D02*
D03*
X216000Y70000D02*
D03*
X62582Y123639D02*
D03*
X66271Y102476D02*
D03*
X62500Y145000D02*
D03*
X57571Y97360D02*
D03*
X45427Y234753D02*
D03*
X45255Y239521D02*
D03*
X45109Y60002D02*
D03*
X35926Y160015D02*
D03*
Y155366D02*
D03*
X44491Y77500D02*
D03*
X45364Y65191D02*
D03*
X99790Y141306D02*
D03*
X100122Y158509D02*
D03*
X350000Y149000D02*
D03*
X275000Y146000D02*
D03*
Y112000D02*
D03*
X73958Y153451D02*
D03*
X70000Y192000D02*
D03*
X96857Y192903D02*
D03*
X102949Y186392D02*
D03*
X110000Y177500D02*
D03*
X74229Y146835D02*
D03*
X96388Y95857D02*
D03*
X82543Y101664D02*
D03*
X82500Y112500D02*
D03*
X51358Y107500D02*
D03*
M02*
