M48
;Layer_Color=9474304
;FILE_FORMAT=4:4
METRIC,LZ
;TYPE=PLATED
T1F00S00C0.2000
T2F00S00C0.3000
T3F00S00C0.5000
T4F00S00C0.7000
T5F00S00C1.0200
T6F00S00C1.0200
;TYPE=NON_PLATED
T7F00S00C1.0200
%
T01
X000275Y001925
X00035Y001875
X00035Y002025
X000275Y002075
X000275Y002225
X00035Y002175
X00035Y002325
X000275Y002375
T02
X00045Y000575
X000325Y000725
Y000875
Y001025
Y00145
Y0016
Y00175
X00085Y00145
Y001375
X000975
Y00145
X001075Y001375
X00149996Y001375
Y00145
X00162496
Y001375
X00172496
X001525Y0011
Y000975
Y00085
Y00073
Y0006
X001375Y000625
X001275
Y0005
X001375
X001925
X002025
Y000625
X001925
X000875Y0006
X0008775Y00073
X000875Y00085
Y000975
Y0011
X0007Y0008
X000575
X002175Y00085001
Y00073001
Y00060002
Y00097501
Y00110001
X00215Y001375
Y00145
X002275
Y001375
X002375
X0028
Y00145
X002925
Y001375
X003025
X002825Y0011
Y000975
Y00085
Y00073
Y0006
X002675Y000625
X002575
Y0005
X002675
X003225
X003325
Y000625
X003225
X003575Y00055
Y00075
Y00095
X0037Y001075
Y000825
X003825Y00075
Y00095
Y00055
Y001725
Y0019
X003575
Y001725
X0037Y00215
X00355Y0023
X0037Y00245
X00385Y0023
T03
X0010375Y000855
X0011625
X0016875
X0018125
X0023375
X0024625
X0029875
X0031125
T04
X0011Y0021102
X0010102Y0022
X0011898
X0011Y0022898
X0016602Y0022
X00175Y0021102
X0018398Y0022
X00175Y0022898
X0023102Y0022
X0024Y0021102
X0024898Y0022
X0024Y0022898
X0029602Y0022
X00305Y0021102
X0031398Y0022
X00305Y0022898
T05
X0037Y00065
Y00095
T06
X0037Y001796
Y002304
T07
X003798Y001078
M30
