G04*
G04 #@! TF.GenerationSoftware,Altium Limited,Altium NEXUS,4.1.1 (18)*
G04*
G04 Layer_Physical_Order=2*
G04 Layer_Color=32768*
%FSLAX44Y44*%
%MOMM*%
G71*
G04*
G04 #@! TF.SameCoordinates,4F3881F6-B343-40B9-83C6-DCB6D38B7AD4*
G04*
G04*
G04 #@! TF.FilePolarity,Negative*
G04*
G01*
G75*
%ADD16C,0.1500*%
%ADD42C,1.0160*%
%ADD43C,4.2160*%
%ADD44C,1.7780*%
%ADD45C,0.7080*%
G04:AMPARAMS|DCode=46|XSize=3.5mm|YSize=3.5mm|CornerRadius=0mm|HoleSize=0mm|Usage=FLASHONLY|Rotation=0.000|XOffset=0mm|YOffset=0mm|HoleType=Round|Shape=Relief|Width=0.125mm|Gap=0.125mm|Entries=4|*
%AMTHD46*
7,0,0,3.5000,3.2500,0.1250,45*
%
%ADD46THD46*%
%ADD47C,1.6080*%
%ADD48C,2.1080*%
D16*
X918750Y756168D02*
Y759500D01*
X922082Y756168D01*
X922915D01*
X923748Y757001D01*
Y758667D01*
X922915Y759500D01*
X717500Y217832D02*
Y214500D01*
X714168Y217832D01*
X713335D01*
X712502Y216999D01*
Y215333D01*
X713335Y214500D01*
D42*
X0Y0D02*
X1153990D01*
X1153990Y900000D02*
X1153990Y0D01*
X0Y900000D02*
X1153990Y900000D01*
X0Y0D02*
Y900000D01*
X910000Y180000D02*
G03*
X900000Y190000I-10000J0D01*
G01*
X900000Y700000D02*
G03*
X910000Y710000I0J10000D01*
G01*
X1154000Y786000D02*
X1150000Y790000D01*
X915000D01*
X910000Y785000D01*
Y710000D01*
X900000Y700000D02*
X810000D01*
X805000Y695000D01*
Y195000D01*
X810000Y190000D02*
X805000Y195000D01*
X900000Y190000D02*
X810000Y190000D01*
X915000Y100000D02*
X910000Y105000D01*
X1149000Y100000D02*
X915000D01*
X1154000Y105000D02*
X1149000Y100000D01*
X1154000Y786000D02*
Y105000D01*
X910000Y180000D02*
Y105000D01*
X617000Y769000D02*
G03*
X622000Y764000I5000J0D01*
G01*
X725000Y748000D02*
G03*
X730000Y743000I5000J0D01*
G01*
X574000Y133000D02*
G03*
X569000Y128000I-0J-5000D01*
G01*
X5000Y100000D02*
X564000D01*
X569000Y105000D01*
Y128000D01*
X782951Y132950D02*
X788000Y138000D01*
X788000Y738000D02*
X788000Y138000D01*
X783000Y743000D02*
X788000Y738000D01*
X730000Y743000D02*
X783000D01*
X725000Y748000D02*
Y759000D01*
X720000Y764000D02*
X725000Y759000D01*
X622000Y764000D02*
X720000D01*
X617000Y769000D02*
Y785000D01*
X612000Y790000D02*
X617000Y785000D01*
X5000Y790000D02*
X612000D01*
X0Y785000D02*
X5000Y790000D01*
X0Y105000D02*
Y785000D01*
Y105000D02*
X5000Y100000D01*
X574000Y133000D02*
X782951Y132950D01*
D43*
X1104000Y850000D02*
D03*
Y50000D02*
D03*
X50000D02*
D03*
Y850000D02*
D03*
D44*
X959500Y173100D02*
D03*
X990000Y716900D02*
D03*
X194500Y716900D02*
D03*
X164000Y173100D02*
D03*
Y716800D02*
D03*
X133500Y173200D02*
D03*
D45*
X1064000Y241000D02*
D03*
X1003500Y370750D02*
D03*
X1054950Y278060D02*
D03*
X848000Y433250D02*
D03*
X1003328Y513720D02*
D03*
X1004150Y521146D02*
D03*
X1015000Y248250D02*
D03*
X1014500Y197250D02*
D03*
X1027000Y210000D02*
D03*
X1004000Y222750D02*
D03*
X1001000Y210250D02*
D03*
X963750Y197500D02*
D03*
X976000Y210000D02*
D03*
X989000Y197500D02*
D03*
X898000Y629250D02*
D03*
X897750Y615250D02*
D03*
X850500Y612750D02*
D03*
X850750Y624000D02*
D03*
X1054162Y533701D02*
D03*
X1050169Y483034D02*
D03*
X1054311Y596750D02*
D03*
X1057550Y592941D02*
D03*
X977734Y584857D02*
D03*
X973808Y610204D02*
D03*
X1048511Y609799D02*
D03*
X978750Y561803D02*
D03*
X963651Y491700D02*
D03*
X959905Y495491D02*
D03*
X975720Y557515D02*
D03*
X1038451Y544986D02*
D03*
X1042490Y547934D02*
D03*
X1017411Y545357D02*
D03*
X1012508Y546339D02*
D03*
X1029550Y546974D02*
D03*
X992100Y546152D02*
D03*
X987100Y546189D02*
D03*
X1018305Y495836D02*
D03*
X1026250Y534500D02*
D03*
X998113Y483085D02*
D03*
X1002103Y498126D02*
D03*
X952323Y599873D02*
D03*
X948786Y596338D02*
D03*
X1029468Y467740D02*
D03*
X1027112Y472517D02*
D03*
X1005799Y494730D02*
D03*
X972750Y457500D02*
D03*
X978242Y523623D02*
D03*
X978750Y518649D02*
D03*
X914250Y544250D02*
D03*
X909250D02*
D03*
X927600Y565650D02*
D03*
X952035Y563179D02*
D03*
X953340Y558332D02*
D03*
X952004Y551092D02*
D03*
X954930Y546773D02*
D03*
X949543Y456093D02*
D03*
X960118Y546162D02*
D03*
X965118Y546118D02*
D03*
X896500Y599250D02*
D03*
X902614Y594167D02*
D03*
X906601Y591150D02*
D03*
X892964Y595714D02*
D03*
X853439Y592672D02*
D03*
X849904Y596207D02*
D03*
X882000Y595000D02*
D03*
X878500Y598750D02*
D03*
X870450Y634068D02*
D03*
X872438Y639188D02*
D03*
X952743Y447021D02*
D03*
X1048250Y419352D02*
D03*
X975543Y436485D02*
D03*
X927527Y443141D02*
D03*
X895850Y466500D02*
D03*
X870450Y471611D02*
D03*
X1026382Y421702D02*
D03*
X975750Y395250D02*
D03*
X1028204Y355093D02*
D03*
X875031Y407365D02*
D03*
X902250Y403865D02*
D03*
X877150Y306274D02*
D03*
X1000864Y421700D02*
D03*
X1054950Y356513D02*
D03*
X964750Y349250D02*
D03*
X990175Y349199D02*
D03*
X1015250Y348250D02*
D03*
X1040750Y346250D02*
D03*
X1002449Y281924D02*
D03*
X952000Y304500D02*
D03*
X1051442Y368332D02*
D03*
X1028118Y267618D02*
D03*
X945493Y368950D02*
D03*
X926903Y318114D02*
D03*
X898944Y293187D02*
D03*
X921250Y458000D02*
D03*
X920250Y382000D02*
D03*
X861150Y395400D02*
D03*
X886500Y391250D02*
D03*
X927150Y578350D02*
D03*
X392152Y429337D02*
D03*
X165350Y692650D02*
D03*
X203600Y489450D02*
D03*
X230897Y226049D02*
D03*
X230336Y213826D02*
D03*
X230259Y219649D02*
D03*
X178100Y451350D02*
D03*
X152740D02*
D03*
X203600D02*
D03*
X516350Y257341D02*
D03*
X507374Y643177D02*
D03*
X507129Y631065D02*
D03*
X436765Y248653D02*
D03*
X431000Y248759D02*
D03*
X510000Y230000D02*
D03*
X561781Y468907D02*
D03*
X423207Y643541D02*
D03*
X362584Y440000D02*
D03*
X345303D02*
D03*
X464160Y294256D02*
D03*
X351193Y619929D02*
D03*
X397312Y612863D02*
D03*
X422630Y154370D02*
D03*
X468000Y162000D02*
D03*
X464924Y172076D02*
D03*
X460134Y167134D02*
D03*
X392344Y295110D02*
D03*
X392486Y300142D02*
D03*
X453569Y243902D02*
D03*
X502173Y241859D02*
D03*
X69661Y635560D02*
D03*
X392500Y290000D02*
D03*
X403635Y580085D02*
D03*
X372000Y574210D02*
D03*
X407310Y574572D02*
D03*
X392500Y590000D02*
D03*
X370440Y601282D02*
D03*
X370429Y594032D02*
D03*
X371000Y589032D02*
D03*
X405689Y604580D02*
D03*
X400416Y598586D02*
D03*
X127350Y311650D02*
D03*
Y362450D02*
D03*
X140050D02*
D03*
Y375150D02*
D03*
X127350D02*
D03*
Y324350D02*
D03*
X140050D02*
D03*
Y337050D02*
D03*
Y629150D02*
D03*
X411558Y475693D02*
D03*
X491000Y382947D02*
D03*
X529024Y329898D02*
D03*
X231000Y238000D02*
D03*
X231270Y251460D02*
D03*
X231237Y232639D02*
D03*
X231369Y258270D02*
D03*
X140050Y400550D02*
D03*
Y413250D02*
D03*
X467425Y701425D02*
D03*
X457118Y696955D02*
D03*
X461425Y706425D02*
D03*
X457059Y651159D02*
D03*
X371738Y675000D02*
D03*
X392568Y644968D02*
D03*
X371000Y654991D02*
D03*
X467546Y628316D02*
D03*
X457382Y631909D02*
D03*
X463000Y636000D02*
D03*
X393525Y634271D02*
D03*
X468000Y656000D02*
D03*
X393029Y655066D02*
D03*
X346000Y640000D02*
D03*
X341000Y645000D02*
D03*
X335000Y650000D02*
D03*
X371303D02*
D03*
X371200Y645000D02*
D03*
X371000Y640000D02*
D03*
X374671Y488710D02*
D03*
X393000Y531000D02*
D03*
X394267Y526102D02*
D03*
X379730Y489498D02*
D03*
X385993Y489575D02*
D03*
X392743Y489297D02*
D03*
X371625Y290000D02*
D03*
X496617Y198913D02*
D03*
X335490Y155000D02*
D03*
X352538D02*
D03*
X335491Y725000D02*
D03*
X352673Y725000D02*
D03*
X419949Y691460D02*
D03*
X88000Y730000D02*
D03*
Y620000D02*
D03*
Y320000D02*
D03*
Y160000D02*
D03*
X462963Y661510D02*
D03*
X392918Y661581D02*
D03*
X402000Y671000D02*
D03*
X203853Y654584D02*
D03*
X260000Y725000D02*
D03*
X277547D02*
D03*
X402032Y183050D02*
D03*
X412032D02*
D03*
X413000Y671000D02*
D03*
X474544Y684133D02*
D03*
X473921Y194764D02*
D03*
X496058Y652058D02*
D03*
X437114Y364044D02*
D03*
X433331Y368846D02*
D03*
X429693Y359824D02*
D03*
X392163Y340007D02*
D03*
X392358Y345329D02*
D03*
X392118Y350761D02*
D03*
X460134Y215192D02*
D03*
X464924Y220166D02*
D03*
X468625Y210003D02*
D03*
X495658Y211342D02*
D03*
X371731Y199979D02*
D03*
X371844Y205217D02*
D03*
X421776Y202146D02*
D03*
X260072Y155000D02*
D03*
X278000D02*
D03*
X410958Y717021D02*
D03*
X403958D02*
D03*
X474520Y729765D02*
D03*
X424617Y522617D02*
D03*
X424746Y534254D02*
D03*
X425021Y549979D02*
D03*
X393394Y520000D02*
D03*
X395303Y515000D02*
D03*
X345393Y581387D02*
D03*
Y550159D02*
D03*
X341135Y574195D02*
D03*
X335078Y569748D02*
D03*
X330000Y566000D02*
D03*
X203600Y564219D02*
D03*
X372000Y680000D02*
D03*
Y550000D02*
D03*
X178100Y565650D02*
D03*
X140768Y527550D02*
D03*
X166625Y552950D02*
D03*
X153625Y540250D02*
D03*
X140050Y514850D02*
D03*
X203892Y578439D02*
D03*
X216500Y578350D02*
D03*
X246750Y262202D02*
D03*
X231134Y291311D02*
D03*
X227598Y287598D02*
D03*
X241750Y261148D02*
D03*
X190800Y616450D02*
D03*
X203600Y603750D02*
D03*
X331535Y276465D02*
D03*
X328000Y280000D02*
D03*
X229920Y296635D02*
D03*
X235893Y282435D02*
D03*
X235545Y277448D02*
D03*
X230550Y332780D02*
D03*
X234086Y336315D02*
D03*
X140700Y298950D02*
D03*
Y286250D02*
D03*
X153625Y273550D02*
D03*
Y298950D02*
D03*
X231138Y245702D02*
D03*
X190800Y209375D02*
D03*
X203600D02*
D03*
X152740D02*
D03*
X178100D02*
D03*
X127350D02*
D03*
X115625Y248150D02*
D03*
Y235450D02*
D03*
X128363Y223763D02*
D03*
X152740Y222750D02*
D03*
X178100D02*
D03*
X203600D02*
D03*
X140700Y235450D02*
D03*
Y248150D02*
D03*
X153625Y260850D02*
D03*
X166100Y248150D02*
D03*
Y273550D02*
D03*
X178800Y260850D02*
D03*
Y273550D02*
D03*
X216500Y248150D02*
D03*
X191625Y273550D02*
D03*
X204200D02*
D03*
Y260850D02*
D03*
X128000Y273550D02*
D03*
Y260850D02*
D03*
X115625Y286250D02*
D03*
Y298950D02*
D03*
X153625Y311650D02*
D03*
X166100Y349750D02*
D03*
Y286250D02*
D03*
Y324350D02*
D03*
Y311650D02*
D03*
X178800Y337050D02*
D03*
Y349750D02*
D03*
Y311650D02*
D03*
Y298950D02*
D03*
X191625Y324350D02*
D03*
Y311650D02*
D03*
Y286250D02*
D03*
Y362450D02*
D03*
Y349750D02*
D03*
X204200Y298950D02*
D03*
Y311650D02*
D03*
Y349750D02*
D03*
Y337050D02*
D03*
X114800D02*
D03*
X153400D02*
D03*
Y349750D02*
D03*
X165350Y362375D02*
D03*
X57000Y211000D02*
D03*
X296000Y332500D02*
D03*
Y327500D02*
D03*
X232349Y317064D02*
D03*
X216300Y324350D02*
D03*
X296000Y362500D02*
D03*
Y357500D02*
D03*
X60625Y229375D02*
D03*
X78250Y207500D02*
D03*
Y182500D02*
D03*
X82000Y250000D02*
D03*
X57000Y520000D02*
D03*
X60625Y532375D02*
D03*
X102000Y527550D02*
D03*
X166100Y540250D02*
D03*
X153400Y527550D02*
D03*
X152740Y565650D02*
D03*
Y489450D02*
D03*
X265000Y401000D02*
D03*
X190800Y400550D02*
D03*
X165350D02*
D03*
X216200D02*
D03*
X268535Y397464D02*
D03*
X216500Y438650D02*
D03*
Y425950D02*
D03*
Y464050D02*
D03*
X203600D02*
D03*
X231122Y348150D02*
D03*
X264941Y345593D02*
D03*
X178100Y413250D02*
D03*
X203600D02*
D03*
X152740D02*
D03*
Y425950D02*
D03*
X165350Y438650D02*
D03*
X140050Y476750D02*
D03*
X203600Y502150D02*
D03*
X190800D02*
D03*
X216500D02*
D03*
X235134Y351350D02*
D03*
X296000Y347500D02*
D03*
Y342500D02*
D03*
X268705Y342302D02*
D03*
X267396Y355093D02*
D03*
X216300Y349750D02*
D03*
X216200Y387850D02*
D03*
X178100D02*
D03*
Y375150D02*
D03*
X190800Y387850D02*
D03*
X203500D02*
D03*
Y375150D02*
D03*
X216300Y362450D02*
D03*
Y311650D02*
D03*
Y286250D02*
D03*
Y273550D02*
D03*
X296000Y312000D02*
D03*
Y317000D02*
D03*
X228814Y313528D02*
D03*
X233455Y300171D02*
D03*
X296000Y302500D02*
D03*
Y297500D02*
D03*
Y287500D02*
D03*
Y282500D02*
D03*
X233442Y376750D02*
D03*
X229336Y373897D02*
D03*
X232846Y389450D02*
D03*
X331451Y294099D02*
D03*
X327916Y297635D02*
D03*
X330958Y309210D02*
D03*
X327423Y312745D02*
D03*
X321592Y323585D02*
D03*
X318056Y327121D02*
D03*
X296000Y377500D02*
D03*
Y372500D02*
D03*
X268535Y380465D02*
D03*
X228992Y386250D02*
D03*
X264870Y359408D02*
D03*
X265000Y384000D02*
D03*
X102000Y210050D02*
D03*
Y222750D02*
D03*
Y260850D02*
D03*
Y273550D02*
D03*
Y311650D02*
D03*
Y324350D02*
D03*
Y362450D02*
D03*
Y375150D02*
D03*
Y413250D02*
D03*
Y425950D02*
D03*
Y464050D02*
D03*
Y476750D02*
D03*
Y514850D02*
D03*
Y565650D02*
D03*
Y578350D02*
D03*
Y616450D02*
D03*
Y629150D02*
D03*
Y667250D02*
D03*
Y679950D02*
D03*
X114800Y197350D02*
D03*
Y349750D02*
D03*
Y387850D02*
D03*
Y400550D02*
D03*
Y438650D02*
D03*
Y451350D02*
D03*
Y489450D02*
D03*
Y502150D02*
D03*
Y540250D02*
D03*
Y552950D02*
D03*
Y591050D02*
D03*
Y603750D02*
D03*
Y641850D02*
D03*
Y654550D02*
D03*
Y692650D02*
D03*
X127350Y565650D02*
D03*
Y578350D02*
D03*
Y616450D02*
D03*
X140050Y197350D02*
D03*
Y552950D02*
D03*
Y565650D02*
D03*
Y578350D02*
D03*
Y591050D02*
D03*
Y603750D02*
D03*
Y616450D02*
D03*
X152740Y375150D02*
D03*
Y387850D02*
D03*
Y464050D02*
D03*
Y502150D02*
D03*
Y578350D02*
D03*
Y603750D02*
D03*
Y616450D02*
D03*
Y641850D02*
D03*
Y654550D02*
D03*
X165350Y197350D02*
D03*
Y235450D02*
D03*
Y387850D02*
D03*
Y425950D02*
D03*
Y464050D02*
D03*
Y476750D02*
D03*
Y502150D02*
D03*
Y514850D02*
D03*
Y578350D02*
D03*
Y591050D02*
D03*
Y616450D02*
D03*
Y629150D02*
D03*
Y654550D02*
D03*
Y667250D02*
D03*
X190800Y197350D02*
D03*
Y235450D02*
D03*
Y248150D02*
D03*
X216500Y692650D02*
D03*
Y654550D02*
D03*
Y629150D02*
D03*
Y616450D02*
D03*
Y591050D02*
D03*
Y552950D02*
D03*
Y540250D02*
D03*
Y514850D02*
D03*
Y197350D02*
D03*
X203600Y679950D02*
D03*
Y616450D02*
D03*
Y540250D02*
D03*
Y527550D02*
D03*
X178100Y540250D02*
D03*
X296500Y542500D02*
D03*
X178100Y527550D02*
D03*
X296500Y537500D02*
D03*
X190800Y591050D02*
D03*
X190903Y578247D02*
D03*
X140050Y438650D02*
D03*
Y451350D02*
D03*
Y489450D02*
D03*
X127350Y476750D02*
D03*
Y464050D02*
D03*
X191003Y654347D02*
D03*
X178100Y641850D02*
D03*
X190800Y667250D02*
D03*
X178100Y654550D02*
D03*
X216500Y667250D02*
D03*
Y476750D02*
D03*
Y235450D02*
D03*
X203600Y641850D02*
D03*
Y425950D02*
D03*
X127350Y527550D02*
D03*
Y514850D02*
D03*
X178100Y578350D02*
D03*
X127350Y425950D02*
D03*
Y413250D02*
D03*
X178100Y679950D02*
D03*
X152740D02*
D03*
X190800Y692650D02*
D03*
X127350Y629150D02*
D03*
Y654550D02*
D03*
X140050Y641850D02*
D03*
Y667250D02*
D03*
X127350Y679950D02*
D03*
X140050Y692650D02*
D03*
X178100Y616450D02*
D03*
X190800Y629150D02*
D03*
X178100Y603750D02*
D03*
X190800Y476750D02*
D03*
Y464050D02*
D03*
X178100D02*
D03*
X190800Y438650D02*
D03*
Y425950D02*
D03*
X178100D02*
D03*
X190800Y552950D02*
D03*
X296500Y552500D02*
D03*
X296500Y547500D02*
D03*
X190800Y540250D02*
D03*
Y514850D02*
D03*
X296500Y532500D02*
D03*
Y527500D02*
D03*
X178100Y502150D02*
D03*
X296500Y522500D02*
D03*
X178100Y489450D02*
D03*
X296500Y517500D02*
D03*
D46*
X644000Y290000D02*
D03*
Y590000D02*
D03*
X764000Y590000D02*
D03*
Y290000D02*
D03*
D47*
X359000Y190000D02*
D03*
Y490000D02*
D03*
D48*
Y390000D02*
D03*
Y690000D02*
D03*
M02*
