G04*
G04 #@! TF.GenerationSoftware,Altium Limited,Altium NEXUS,4.1.1 (18)*
G04*
G04 Layer_Color=128*
%FSLAX44Y44*%
%MOMM*%
G71*
G04*
G04 #@! TF.SameCoordinates,4F3881F6-B343-40B9-83C6-DCB6D38B7AD4*
G04*
G04*
G04 #@! TF.FilePolarity,Positive*
G04*
G01*
G75*
%ADD11C,1.0000*%
%ADD13R,5.0000X1.6000*%
%ADD21C,0.6400*%
%ADD22R,0.8500X0.9000*%
%ADD25R,0.5000X0.4500*%
%ADD29R,0.5600X0.5200*%
%ADD53R,5.0000X1.2000*%
%ADD54R,0.5500X0.5000*%
%ADD55R,0.3200X0.3600*%
%ADD56R,0.2500X0.3500*%
%ADD57R,0.3500X0.2500*%
%ADD58R,0.3600X0.3200*%
%ADD59R,0.4500X0.5500*%
%ADD60C,0.3500*%
%ADD61R,0.4500X0.5000*%
%ADD62O,2.2000X0.6000*%
%ADD63R,0.5200X0.5600*%
%ADD64O,2.1000X0.6000*%
%ADD65R,1.7000X1.0500*%
%ADD66O,1.8000X0.3000*%
D11*
X100000Y50000D02*
D03*
X1054000D02*
D03*
Y850000D02*
D03*
X100000D02*
D03*
D13*
X1122400Y340200D02*
D03*
Y284800D02*
D03*
Y207700D02*
D03*
Y152300D02*
D03*
Y737700D02*
D03*
Y682300D02*
D03*
Y605200D02*
D03*
Y549800D02*
D03*
Y472700D02*
D03*
Y417300D02*
D03*
D21*
X1047150Y692650D02*
D03*
Y654550D02*
D03*
Y641850D02*
D03*
Y603750D02*
D03*
Y591050D02*
D03*
Y552950D02*
D03*
Y540250D02*
D03*
Y502150D02*
D03*
Y489450D02*
D03*
Y451350D02*
D03*
Y438650D02*
D03*
Y400550D02*
D03*
Y387850D02*
D03*
Y349750D02*
D03*
Y337050D02*
D03*
Y298950D02*
D03*
Y286250D02*
D03*
Y248150D02*
D03*
Y235450D02*
D03*
Y197350D02*
D03*
X1034450Y679950D02*
D03*
Y667250D02*
D03*
Y629150D02*
D03*
Y616450D02*
D03*
Y578350D02*
D03*
Y565650D02*
D03*
Y527550D02*
D03*
Y514850D02*
D03*
Y476750D02*
D03*
Y464050D02*
D03*
Y425950D02*
D03*
Y413250D02*
D03*
Y375150D02*
D03*
Y362450D02*
D03*
Y324350D02*
D03*
Y311650D02*
D03*
Y273550D02*
D03*
Y260850D02*
D03*
Y222750D02*
D03*
Y210050D02*
D03*
X1021750Y692650D02*
D03*
Y654550D02*
D03*
Y641850D02*
D03*
Y603750D02*
D03*
Y591050D02*
D03*
Y578350D02*
D03*
Y565650D02*
D03*
Y552950D02*
D03*
Y540250D02*
D03*
Y527550D02*
D03*
Y514850D02*
D03*
Y502150D02*
D03*
Y489450D02*
D03*
Y476750D02*
D03*
Y464050D02*
D03*
Y451350D02*
D03*
Y438650D02*
D03*
Y425950D02*
D03*
Y413250D02*
D03*
Y400550D02*
D03*
Y387850D02*
D03*
Y375150D02*
D03*
Y362450D02*
D03*
Y349750D02*
D03*
Y337050D02*
D03*
Y298950D02*
D03*
Y286250D02*
D03*
Y260850D02*
D03*
Y248150D02*
D03*
Y235450D02*
D03*
Y222750D02*
D03*
Y210050D02*
D03*
Y197350D02*
D03*
X1009050Y679950D02*
D03*
Y667250D02*
D03*
Y629150D02*
D03*
Y616450D02*
D03*
Y603750D02*
D03*
Y591050D02*
D03*
Y578350D02*
D03*
Y565650D02*
D03*
Y552950D02*
D03*
Y540250D02*
D03*
Y527550D02*
D03*
Y514850D02*
D03*
Y502150D02*
D03*
Y489450D02*
D03*
Y476750D02*
D03*
Y464050D02*
D03*
Y451350D02*
D03*
Y438650D02*
D03*
Y425950D02*
D03*
Y413250D02*
D03*
Y400550D02*
D03*
Y387850D02*
D03*
Y375150D02*
D03*
Y362450D02*
D03*
Y349750D02*
D03*
Y248150D02*
D03*
Y235450D02*
D03*
Y222750D02*
D03*
Y210050D02*
D03*
Y197350D02*
D03*
X996350Y692650D02*
D03*
Y654550D02*
D03*
Y641850D02*
D03*
Y603750D02*
D03*
Y565650D02*
D03*
Y527550D02*
D03*
Y489450D02*
D03*
Y451350D02*
D03*
Y413250D02*
D03*
Y375150D02*
D03*
Y337050D02*
D03*
Y298950D02*
D03*
Y260850D02*
D03*
Y222750D02*
D03*
Y210050D02*
D03*
Y197350D02*
D03*
X983650Y679950D02*
D03*
Y667250D02*
D03*
Y629150D02*
D03*
Y591050D02*
D03*
Y552950D02*
D03*
Y514850D02*
D03*
Y476750D02*
D03*
Y438650D02*
D03*
Y400550D02*
D03*
Y362450D02*
D03*
Y324350D02*
D03*
Y286250D02*
D03*
Y248150D02*
D03*
Y210050D02*
D03*
Y197350D02*
D03*
X970950Y692650D02*
D03*
Y654550D02*
D03*
Y641850D02*
D03*
Y629150D02*
D03*
Y616450D02*
D03*
Y603750D02*
D03*
Y591050D02*
D03*
Y578350D02*
D03*
Y565650D02*
D03*
Y552950D02*
D03*
Y540250D02*
D03*
Y527550D02*
D03*
Y514850D02*
D03*
Y502150D02*
D03*
Y489450D02*
D03*
Y476750D02*
D03*
Y464050D02*
D03*
Y451350D02*
D03*
Y438650D02*
D03*
Y425950D02*
D03*
Y413250D02*
D03*
Y400550D02*
D03*
Y387850D02*
D03*
Y375150D02*
D03*
Y362450D02*
D03*
Y349750D02*
D03*
Y337050D02*
D03*
Y324350D02*
D03*
Y311650D02*
D03*
Y298950D02*
D03*
Y286250D02*
D03*
Y273550D02*
D03*
Y260850D02*
D03*
Y222750D02*
D03*
Y210050D02*
D03*
Y197350D02*
D03*
X958250Y667250D02*
D03*
Y629150D02*
D03*
Y616450D02*
D03*
Y603750D02*
D03*
Y591050D02*
D03*
Y578350D02*
D03*
Y565650D02*
D03*
Y552950D02*
D03*
Y540250D02*
D03*
Y527550D02*
D03*
Y514850D02*
D03*
Y502150D02*
D03*
Y489450D02*
D03*
Y476750D02*
D03*
Y464050D02*
D03*
Y451350D02*
D03*
Y438650D02*
D03*
Y425950D02*
D03*
Y413250D02*
D03*
Y400550D02*
D03*
Y387850D02*
D03*
Y375150D02*
D03*
Y362450D02*
D03*
Y349750D02*
D03*
Y337050D02*
D03*
Y324350D02*
D03*
Y311650D02*
D03*
Y298950D02*
D03*
Y286250D02*
D03*
Y273550D02*
D03*
Y260850D02*
D03*
Y248150D02*
D03*
Y210050D02*
D03*
Y197350D02*
D03*
X945550Y692650D02*
D03*
Y654550D02*
D03*
Y641850D02*
D03*
Y629150D02*
D03*
Y616450D02*
D03*
Y603750D02*
D03*
Y591050D02*
D03*
Y578350D02*
D03*
Y565650D02*
D03*
Y552950D02*
D03*
Y540250D02*
D03*
Y527550D02*
D03*
Y514850D02*
D03*
Y502150D02*
D03*
Y489450D02*
D03*
Y451350D02*
D03*
Y413250D02*
D03*
Y375150D02*
D03*
Y337050D02*
D03*
Y298950D02*
D03*
Y260850D02*
D03*
Y222750D02*
D03*
Y197350D02*
D03*
X932850Y679950D02*
D03*
Y667250D02*
D03*
Y629150D02*
D03*
Y616450D02*
D03*
Y603750D02*
D03*
Y591050D02*
D03*
Y578350D02*
D03*
Y565650D02*
D03*
Y552950D02*
D03*
Y540250D02*
D03*
Y527550D02*
D03*
Y514850D02*
D03*
Y502150D02*
D03*
Y489450D02*
D03*
Y476750D02*
D03*
Y438650D02*
D03*
Y400550D02*
D03*
Y362450D02*
D03*
Y324350D02*
D03*
Y286250D02*
D03*
Y248150D02*
D03*
Y210050D02*
D03*
X1047150Y679950D02*
D03*
Y667250D02*
D03*
Y629150D02*
D03*
Y616450D02*
D03*
Y578350D02*
D03*
Y565650D02*
D03*
Y527550D02*
D03*
Y514850D02*
D03*
Y476750D02*
D03*
Y464050D02*
D03*
Y425950D02*
D03*
Y413250D02*
D03*
Y375150D02*
D03*
Y362450D02*
D03*
Y324350D02*
D03*
Y311650D02*
D03*
Y273550D02*
D03*
Y260850D02*
D03*
Y222750D02*
D03*
Y210050D02*
D03*
X1034450Y692650D02*
D03*
Y654550D02*
D03*
Y641850D02*
D03*
Y603750D02*
D03*
Y591050D02*
D03*
Y552950D02*
D03*
Y540250D02*
D03*
Y502150D02*
D03*
Y489450D02*
D03*
Y451350D02*
D03*
Y438650D02*
D03*
Y400550D02*
D03*
Y387850D02*
D03*
Y349750D02*
D03*
Y337050D02*
D03*
Y298950D02*
D03*
Y286250D02*
D03*
Y248150D02*
D03*
Y235450D02*
D03*
Y197350D02*
D03*
X1021750Y679950D02*
D03*
Y667250D02*
D03*
Y629150D02*
D03*
Y616450D02*
D03*
Y324350D02*
D03*
Y311650D02*
D03*
Y273550D02*
D03*
X1009050Y692650D02*
D03*
Y654550D02*
D03*
Y641850D02*
D03*
Y337050D02*
D03*
Y324350D02*
D03*
Y311650D02*
D03*
Y298950D02*
D03*
Y286250D02*
D03*
Y273550D02*
D03*
Y260850D02*
D03*
X996350Y679950D02*
D03*
Y667250D02*
D03*
Y629150D02*
D03*
Y616450D02*
D03*
Y591050D02*
D03*
Y578350D02*
D03*
Y552950D02*
D03*
Y540250D02*
D03*
Y514850D02*
D03*
Y502150D02*
D03*
Y476750D02*
D03*
Y464050D02*
D03*
Y438650D02*
D03*
Y425950D02*
D03*
Y400550D02*
D03*
Y387850D02*
D03*
Y362450D02*
D03*
Y349750D02*
D03*
Y324350D02*
D03*
Y311650D02*
D03*
Y286250D02*
D03*
Y273550D02*
D03*
Y248150D02*
D03*
Y235450D02*
D03*
X983650Y692650D02*
D03*
Y654550D02*
D03*
Y641850D02*
D03*
Y616450D02*
D03*
Y603750D02*
D03*
Y578350D02*
D03*
Y565650D02*
D03*
Y540250D02*
D03*
Y527550D02*
D03*
Y502150D02*
D03*
Y489450D02*
D03*
Y464050D02*
D03*
Y451350D02*
D03*
Y425950D02*
D03*
Y413250D02*
D03*
Y387850D02*
D03*
Y375150D02*
D03*
Y349750D02*
D03*
Y337050D02*
D03*
Y311650D02*
D03*
Y298950D02*
D03*
Y273550D02*
D03*
Y260850D02*
D03*
Y235450D02*
D03*
Y222750D02*
D03*
X970950Y679950D02*
D03*
Y667250D02*
D03*
X958250Y692650D02*
D03*
Y679950D02*
D03*
Y654550D02*
D03*
Y641850D02*
D03*
X945550Y679950D02*
D03*
Y667250D02*
D03*
Y476750D02*
D03*
Y464050D02*
D03*
Y438650D02*
D03*
Y425950D02*
D03*
Y400550D02*
D03*
Y387850D02*
D03*
Y362450D02*
D03*
Y349750D02*
D03*
Y324350D02*
D03*
Y311650D02*
D03*
Y286250D02*
D03*
Y273550D02*
D03*
Y248150D02*
D03*
Y235450D02*
D03*
Y210050D02*
D03*
X932850Y692650D02*
D03*
Y654550D02*
D03*
Y641850D02*
D03*
Y464050D02*
D03*
Y451350D02*
D03*
Y425950D02*
D03*
Y413250D02*
D03*
Y387850D02*
D03*
Y375150D02*
D03*
Y349750D02*
D03*
Y337050D02*
D03*
Y311650D02*
D03*
Y298950D02*
D03*
Y273550D02*
D03*
Y260850D02*
D03*
Y235450D02*
D03*
Y222750D02*
D03*
Y197350D02*
D03*
X970950Y235450D02*
D03*
X958250Y222750D02*
D03*
X970950Y248150D02*
D03*
X958250Y235450D02*
D03*
X144950Y324350D02*
D03*
Y337050D02*
D03*
Y375150D02*
D03*
Y400550D02*
D03*
Y413250D02*
D03*
X132250Y311650D02*
D03*
Y324350D02*
D03*
Y362450D02*
D03*
Y375150D02*
D03*
X106850Y210050D02*
D03*
Y222750D02*
D03*
Y235450D02*
D03*
Y248150D02*
D03*
Y260850D02*
D03*
Y273550D02*
D03*
Y286250D02*
D03*
Y298950D02*
D03*
Y311650D02*
D03*
Y324350D02*
D03*
Y337050D02*
D03*
Y349750D02*
D03*
Y362450D02*
D03*
Y375150D02*
D03*
Y387850D02*
D03*
Y400550D02*
D03*
Y413250D02*
D03*
Y425950D02*
D03*
Y438650D02*
D03*
Y451350D02*
D03*
Y464050D02*
D03*
Y476750D02*
D03*
Y489450D02*
D03*
Y502150D02*
D03*
Y514850D02*
D03*
Y527550D02*
D03*
Y540250D02*
D03*
Y552950D02*
D03*
Y565650D02*
D03*
Y578350D02*
D03*
Y591050D02*
D03*
Y603750D02*
D03*
Y616450D02*
D03*
Y629150D02*
D03*
Y641850D02*
D03*
Y654550D02*
D03*
Y667250D02*
D03*
Y679950D02*
D03*
Y692650D02*
D03*
Y197350D02*
D03*
X119550D02*
D03*
Y210050D02*
D03*
Y222750D02*
D03*
Y235450D02*
D03*
Y248150D02*
D03*
Y260850D02*
D03*
Y273550D02*
D03*
Y286250D02*
D03*
Y298950D02*
D03*
Y311650D02*
D03*
Y324350D02*
D03*
Y337050D02*
D03*
Y349750D02*
D03*
Y362450D02*
D03*
Y375150D02*
D03*
Y387850D02*
D03*
Y400550D02*
D03*
Y413250D02*
D03*
Y425950D02*
D03*
Y438650D02*
D03*
Y451350D02*
D03*
Y464050D02*
D03*
Y476750D02*
D03*
Y489450D02*
D03*
Y502150D02*
D03*
Y514850D02*
D03*
Y527550D02*
D03*
Y540250D02*
D03*
Y552950D02*
D03*
Y565650D02*
D03*
Y578350D02*
D03*
Y591050D02*
D03*
Y603750D02*
D03*
Y616450D02*
D03*
Y629150D02*
D03*
Y641850D02*
D03*
Y654550D02*
D03*
Y667250D02*
D03*
Y679950D02*
D03*
Y692650D02*
D03*
X132250Y197350D02*
D03*
Y210050D02*
D03*
Y222750D02*
D03*
Y235450D02*
D03*
Y248150D02*
D03*
Y260850D02*
D03*
Y273550D02*
D03*
Y286250D02*
D03*
Y298950D02*
D03*
Y337050D02*
D03*
Y349750D02*
D03*
Y387850D02*
D03*
Y400550D02*
D03*
Y413250D02*
D03*
Y425950D02*
D03*
Y438650D02*
D03*
Y451350D02*
D03*
Y464050D02*
D03*
Y476750D02*
D03*
Y489450D02*
D03*
Y502150D02*
D03*
Y514850D02*
D03*
Y527550D02*
D03*
Y540250D02*
D03*
Y552950D02*
D03*
Y565650D02*
D03*
Y578350D02*
D03*
Y591050D02*
D03*
Y603750D02*
D03*
Y616450D02*
D03*
Y629150D02*
D03*
Y641850D02*
D03*
Y654550D02*
D03*
Y667250D02*
D03*
Y679950D02*
D03*
Y692650D02*
D03*
X144950Y210050D02*
D03*
Y222750D02*
D03*
Y235450D02*
D03*
Y248150D02*
D03*
Y260850D02*
D03*
Y273550D02*
D03*
Y286250D02*
D03*
Y298950D02*
D03*
Y311650D02*
D03*
Y349750D02*
D03*
Y362450D02*
D03*
Y387850D02*
D03*
Y425950D02*
D03*
Y438650D02*
D03*
Y451350D02*
D03*
Y464050D02*
D03*
Y476750D02*
D03*
Y489450D02*
D03*
Y502150D02*
D03*
Y514850D02*
D03*
Y527550D02*
D03*
Y540250D02*
D03*
Y552950D02*
D03*
Y565650D02*
D03*
Y578350D02*
D03*
Y591050D02*
D03*
Y603750D02*
D03*
Y616450D02*
D03*
Y629150D02*
D03*
Y641850D02*
D03*
Y654550D02*
D03*
Y667250D02*
D03*
Y679950D02*
D03*
Y692650D02*
D03*
X157650Y197350D02*
D03*
Y210050D02*
D03*
Y222750D02*
D03*
Y235450D02*
D03*
Y248150D02*
D03*
Y260850D02*
D03*
Y273550D02*
D03*
Y286250D02*
D03*
Y298950D02*
D03*
Y311650D02*
D03*
Y324350D02*
D03*
Y337050D02*
D03*
Y349750D02*
D03*
Y362450D02*
D03*
Y375150D02*
D03*
Y387850D02*
D03*
Y400550D02*
D03*
Y413250D02*
D03*
Y425950D02*
D03*
Y438650D02*
D03*
Y451350D02*
D03*
Y464050D02*
D03*
Y476750D02*
D03*
Y489450D02*
D03*
Y502150D02*
D03*
Y514850D02*
D03*
Y527550D02*
D03*
Y540250D02*
D03*
Y552950D02*
D03*
Y565650D02*
D03*
Y578350D02*
D03*
Y591050D02*
D03*
Y603750D02*
D03*
Y616450D02*
D03*
Y629150D02*
D03*
Y641850D02*
D03*
Y654550D02*
D03*
Y667250D02*
D03*
Y679950D02*
D03*
Y692650D02*
D03*
X170350Y197350D02*
D03*
Y210050D02*
D03*
Y222750D02*
D03*
Y235450D02*
D03*
Y248150D02*
D03*
Y260850D02*
D03*
Y273550D02*
D03*
Y286250D02*
D03*
Y298950D02*
D03*
Y311650D02*
D03*
Y324350D02*
D03*
Y337050D02*
D03*
Y349750D02*
D03*
Y362450D02*
D03*
Y375150D02*
D03*
Y387850D02*
D03*
Y400550D02*
D03*
Y413250D02*
D03*
Y425950D02*
D03*
Y438650D02*
D03*
Y451350D02*
D03*
Y464050D02*
D03*
Y476750D02*
D03*
Y489450D02*
D03*
Y502150D02*
D03*
Y514850D02*
D03*
Y527550D02*
D03*
Y540250D02*
D03*
Y552950D02*
D03*
Y565650D02*
D03*
Y578350D02*
D03*
Y591050D02*
D03*
Y603750D02*
D03*
Y616450D02*
D03*
Y629150D02*
D03*
Y641850D02*
D03*
Y654550D02*
D03*
Y667250D02*
D03*
Y679950D02*
D03*
Y692650D02*
D03*
X144950Y197350D02*
D03*
X183050D02*
D03*
Y210050D02*
D03*
Y222750D02*
D03*
Y235450D02*
D03*
Y248150D02*
D03*
Y260850D02*
D03*
Y273550D02*
D03*
Y286250D02*
D03*
Y298950D02*
D03*
Y311650D02*
D03*
Y324350D02*
D03*
Y337050D02*
D03*
Y349750D02*
D03*
Y362450D02*
D03*
Y375150D02*
D03*
Y387850D02*
D03*
Y400550D02*
D03*
Y413250D02*
D03*
Y425950D02*
D03*
Y438650D02*
D03*
Y451350D02*
D03*
Y464050D02*
D03*
Y476750D02*
D03*
Y489450D02*
D03*
Y502150D02*
D03*
Y514850D02*
D03*
Y527550D02*
D03*
Y540250D02*
D03*
Y552950D02*
D03*
Y565650D02*
D03*
Y578350D02*
D03*
Y591050D02*
D03*
Y603750D02*
D03*
Y616450D02*
D03*
Y629150D02*
D03*
Y641850D02*
D03*
Y654550D02*
D03*
Y667250D02*
D03*
Y679950D02*
D03*
Y692650D02*
D03*
X195750Y197350D02*
D03*
Y210050D02*
D03*
Y222750D02*
D03*
Y235450D02*
D03*
Y248150D02*
D03*
Y260850D02*
D03*
Y273550D02*
D03*
Y286250D02*
D03*
Y298950D02*
D03*
Y311650D02*
D03*
Y324350D02*
D03*
Y337050D02*
D03*
Y349750D02*
D03*
Y362450D02*
D03*
Y375150D02*
D03*
Y387850D02*
D03*
Y400550D02*
D03*
Y413250D02*
D03*
Y425950D02*
D03*
Y438650D02*
D03*
Y451350D02*
D03*
Y464050D02*
D03*
Y476750D02*
D03*
Y489450D02*
D03*
Y502150D02*
D03*
Y514850D02*
D03*
Y527550D02*
D03*
Y540250D02*
D03*
Y552950D02*
D03*
Y565650D02*
D03*
Y578350D02*
D03*
Y591050D02*
D03*
Y603750D02*
D03*
Y616450D02*
D03*
Y629150D02*
D03*
Y641850D02*
D03*
Y654550D02*
D03*
Y667250D02*
D03*
Y679950D02*
D03*
Y692650D02*
D03*
X208450Y197350D02*
D03*
Y210050D02*
D03*
Y222750D02*
D03*
Y235450D02*
D03*
Y248150D02*
D03*
Y260850D02*
D03*
Y273550D02*
D03*
Y286250D02*
D03*
Y298950D02*
D03*
Y311650D02*
D03*
Y324350D02*
D03*
Y337050D02*
D03*
Y349750D02*
D03*
Y362450D02*
D03*
Y375150D02*
D03*
Y387850D02*
D03*
Y400550D02*
D03*
Y413250D02*
D03*
Y425950D02*
D03*
Y438650D02*
D03*
Y451350D02*
D03*
Y464050D02*
D03*
Y476750D02*
D03*
Y489450D02*
D03*
Y502150D02*
D03*
Y514850D02*
D03*
Y527550D02*
D03*
Y540250D02*
D03*
Y552950D02*
D03*
Y565650D02*
D03*
Y578350D02*
D03*
Y591050D02*
D03*
Y603750D02*
D03*
Y616450D02*
D03*
Y629150D02*
D03*
Y641850D02*
D03*
Y654550D02*
D03*
Y667250D02*
D03*
Y679950D02*
D03*
Y692650D02*
D03*
X221150Y197350D02*
D03*
Y210050D02*
D03*
Y222750D02*
D03*
Y235450D02*
D03*
Y248150D02*
D03*
Y260850D02*
D03*
Y273550D02*
D03*
Y286250D02*
D03*
Y298950D02*
D03*
Y311650D02*
D03*
Y324350D02*
D03*
Y337050D02*
D03*
Y349750D02*
D03*
Y362450D02*
D03*
Y375150D02*
D03*
Y387850D02*
D03*
Y400550D02*
D03*
Y413250D02*
D03*
Y425950D02*
D03*
Y438650D02*
D03*
Y451350D02*
D03*
Y464050D02*
D03*
Y476750D02*
D03*
Y489450D02*
D03*
Y502150D02*
D03*
Y514850D02*
D03*
Y527550D02*
D03*
Y540250D02*
D03*
Y552950D02*
D03*
Y565650D02*
D03*
Y578350D02*
D03*
Y591050D02*
D03*
Y603750D02*
D03*
Y616450D02*
D03*
Y629150D02*
D03*
Y641850D02*
D03*
Y654550D02*
D03*
Y667250D02*
D03*
Y679950D02*
D03*
Y692650D02*
D03*
D22*
X516500Y631000D02*
D03*
X529500D02*
D03*
X516500Y250000D02*
D03*
X529500D02*
D03*
X516500Y650686D02*
D03*
X529500D02*
D03*
X516500Y230000D02*
D03*
X529500D02*
D03*
D25*
X340250Y725000D02*
D03*
X347750D02*
D03*
X378099Y636135D02*
D03*
X385599D02*
D03*
X385544Y654942D02*
D03*
X378044D02*
D03*
X440658Y534254D02*
D03*
X433158D02*
D03*
X440571Y522617D02*
D03*
X433071D02*
D03*
X385874Y645154D02*
D03*
X378374D02*
D03*
X385590Y590000D02*
D03*
X378090D02*
D03*
X386052Y290000D02*
D03*
X378552D02*
D03*
X265250Y725000D02*
D03*
X272750D02*
D03*
X265250Y155000D02*
D03*
X272750D02*
D03*
X340250D02*
D03*
X347750D02*
D03*
X485938Y242940D02*
D03*
X478438D02*
D03*
X461575Y242871D02*
D03*
X469075D02*
D03*
X485916Y194722D02*
D03*
X478416D02*
D03*
X461968Y194764D02*
D03*
X469468D02*
D03*
X486339Y684198D02*
D03*
X478839D02*
D03*
X462814Y684133D02*
D03*
X470314D02*
D03*
X486586Y729765D02*
D03*
X479086D02*
D03*
X462402Y729818D02*
D03*
X469902D02*
D03*
X350250Y440000D02*
D03*
X357750D02*
D03*
D29*
X464160Y298806D02*
D03*
X456360D02*
D03*
X491100Y375000D02*
D03*
X498900D02*
D03*
D53*
X1122400Y312500D02*
D03*
Y180000D02*
D03*
Y710000D02*
D03*
Y577500D02*
D03*
Y445000D02*
D03*
D54*
X422387Y243260D02*
D03*
X429887D02*
D03*
X422521Y195244D02*
D03*
X430021D02*
D03*
X423480Y683424D02*
D03*
X430980D02*
D03*
X423351Y728638D02*
D03*
X430851D02*
D03*
D55*
X554113Y415814D02*
D03*
Y410214D02*
D03*
X413974Y489013D02*
D03*
Y494613D02*
D03*
D56*
X547000Y410250D02*
D03*
Y415750D02*
D03*
X421147Y494493D02*
D03*
Y488993D02*
D03*
X491000Y300750D02*
D03*
Y295250D02*
D03*
X482000Y300750D02*
D03*
Y295250D02*
D03*
X473000Y300750D02*
D03*
Y295250D02*
D03*
X500000Y300750D02*
D03*
Y295250D02*
D03*
X480069Y374144D02*
D03*
Y379644D02*
D03*
D57*
X552750Y490000D02*
D03*
X547250D02*
D03*
X417000Y401000D02*
D03*
X422500D02*
D03*
X552752Y400523D02*
D03*
X547252D02*
D03*
X414364Y481620D02*
D03*
X419864D02*
D03*
X528250Y361000D02*
D03*
X533750D02*
D03*
X528205Y344613D02*
D03*
X533705D02*
D03*
X528250Y336000D02*
D03*
X533750D02*
D03*
X528250Y353000D02*
D03*
X533750D02*
D03*
X454250Y373000D02*
D03*
X459750D02*
D03*
X454141Y384326D02*
D03*
X459641D02*
D03*
D58*
X442200Y373000D02*
D03*
X447800D02*
D03*
X441782Y384430D02*
D03*
X447382D02*
D03*
D59*
X435000Y354750D02*
D03*
Y347250D02*
D03*
D60*
X501000Y316000D02*
D03*
Y326000D02*
D03*
Y336000D02*
D03*
Y346000D02*
D03*
Y356000D02*
D03*
X491000Y316000D02*
D03*
Y326000D02*
D03*
Y336000D02*
D03*
Y346000D02*
D03*
Y356000D02*
D03*
X481000Y316000D02*
D03*
Y326000D02*
D03*
Y336000D02*
D03*
Y346000D02*
D03*
Y356000D02*
D03*
X471000Y316000D02*
D03*
Y326000D02*
D03*
Y336000D02*
D03*
Y346000D02*
D03*
Y356000D02*
D03*
X461000Y316000D02*
D03*
Y326000D02*
D03*
Y336000D02*
D03*
Y346000D02*
D03*
D61*
X411795Y471235D02*
D03*
Y463735D02*
D03*
X431572Y549979D02*
D03*
Y557479D02*
D03*
X556347Y468540D02*
D03*
Y476040D02*
D03*
X495658Y242146D02*
D03*
Y234646D02*
D03*
Y217617D02*
D03*
Y225117D02*
D03*
X496617Y193581D02*
D03*
Y186081D02*
D03*
Y169284D02*
D03*
Y176784D02*
D03*
X496143Y728084D02*
D03*
Y720584D02*
D03*
Y703866D02*
D03*
Y711366D02*
D03*
X496151Y681251D02*
D03*
Y673751D02*
D03*
X496058Y657125D02*
D03*
Y664625D02*
D03*
D62*
X508000Y560050D02*
D03*
Y547350D02*
D03*
Y534650D02*
D03*
Y521950D02*
D03*
X460000Y560050D02*
D03*
Y547350D02*
D03*
Y534650D02*
D03*
Y521950D02*
D03*
D63*
X441577Y557467D02*
D03*
Y549667D02*
D03*
X420650Y463450D02*
D03*
Y471250D02*
D03*
X547581Y475950D02*
D03*
Y468150D02*
D03*
X422032Y232693D02*
D03*
Y224893D02*
D03*
X422470Y184361D02*
D03*
Y176561D02*
D03*
X422033Y207340D02*
D03*
Y215140D02*
D03*
X422630Y158990D02*
D03*
Y166790D02*
D03*
X423075Y673645D02*
D03*
Y665845D02*
D03*
X423217Y648786D02*
D03*
Y656586D02*
D03*
X423545Y719963D02*
D03*
Y712163D02*
D03*
X423599Y695110D02*
D03*
Y702910D02*
D03*
X529024Y324728D02*
D03*
Y316928D02*
D03*
D64*
X529750Y489450D02*
D03*
Y476750D02*
D03*
Y464050D02*
D03*
Y451350D02*
D03*
Y438650D02*
D03*
Y425950D02*
D03*
Y413250D02*
D03*
Y400550D02*
D03*
X438250Y489450D02*
D03*
Y476750D02*
D03*
Y464050D02*
D03*
Y451350D02*
D03*
Y438650D02*
D03*
Y425950D02*
D03*
Y413250D02*
D03*
Y400550D02*
D03*
D65*
X406781Y211068D02*
D03*
Y239568D02*
D03*
X407152Y163037D02*
D03*
Y191537D02*
D03*
X407742Y650969D02*
D03*
Y679469D02*
D03*
X407730Y696860D02*
D03*
Y725360D02*
D03*
D66*
X479318Y230003D02*
D03*
Y220003D02*
D03*
Y215003D02*
D03*
Y210003D02*
D03*
X438318Y220003D02*
D03*
Y215003D02*
D03*
Y210003D02*
D03*
Y230003D02*
D03*
Y225003D02*
D03*
X479318D02*
D03*
X480000Y661000D02*
D03*
Y656000D02*
D03*
Y651000D02*
D03*
X439000Y661000D02*
D03*
Y656000D02*
D03*
Y651000D02*
D03*
Y671000D02*
D03*
X480000D02*
D03*
X439000Y666000D02*
D03*
X480000D02*
D03*
X480062Y716425D02*
D03*
Y711425D02*
D03*
Y706425D02*
D03*
Y701425D02*
D03*
Y696425D02*
D03*
X439062Y706425D02*
D03*
Y701425D02*
D03*
Y696425D02*
D03*
Y716425D02*
D03*
Y711425D02*
D03*
X479915Y181967D02*
D03*
Y176967D02*
D03*
Y171967D02*
D03*
Y166967D02*
D03*
Y161967D02*
D03*
X438915Y171967D02*
D03*
Y166967D02*
D03*
Y161967D02*
D03*
Y181967D02*
D03*
Y176967D02*
D03*
M02*
