G04*
G04 #@! TF.GenerationSoftware,Altium Limited,Altium NEXUS,4.1.1 (18)*
G04*
G04 Layer_Color=32896*
%FSLAX44Y44*%
%MOMM*%
G71*
G04*
G04 #@! TF.SameCoordinates,4F3881F6-B343-40B9-83C6-DCB6D38B7AD4*
G04*
G04*
G04 #@! TF.FilePolarity,Positive*
G04*
G01*
G75*
%ADD15C,0.1250*%
%ADD18C,0.4000*%
%ADD30C,0.2500*%
%ADD31C,0.2000*%
%ADD49C,0.2540*%
%ADD100C,0.6000*%
G36*
X441000Y356000D02*
X451000Y366000D01*
X441000D01*
Y356000D01*
D02*
G37*
D15*
X1055767Y166116D02*
X967500D01*
X952500D02*
X924195D01*
X916574Y681481D02*
Y208534D01*
X1063387Y681481D02*
Y208534D01*
Y716280D02*
Y681481D01*
Y716280D02*
X1055767Y723900D01*
X916574Y208534D02*
Y173736D01*
X924195Y166116D02*
X916574Y173736D01*
X1063387D02*
X1055767Y166116D01*
X1063387Y208534D02*
Y173736D01*
X1055767Y723900D02*
X997601D01*
Y732790D02*
Y723900D01*
Y732790D02*
X982361D01*
Y723900D01*
X924195D01*
X916574Y716280D01*
Y681481D01*
X521000Y306000D02*
Y366000D01*
X441000Y306000D02*
Y366000D01*
Y306000D02*
X521000D01*
X441000Y366000D02*
X521000D01*
X441000Y356000D02*
X451000Y366000D01*
X98233Y723884D02*
X186500D01*
X201500D02*
X229805D01*
X237425Y208519D02*
Y681466D01*
X90613Y208519D02*
Y681466D01*
Y173720D02*
Y208519D01*
Y173720D02*
X98233Y166100D01*
X237425Y681466D02*
Y716264D01*
X229805Y723884D02*
X237425Y716264D01*
X90613D02*
X98233Y723884D01*
X90613Y681466D02*
Y716264D01*
X98233Y166100D02*
X156399D01*
Y157210D02*
Y166100D01*
Y157210D02*
X171639D01*
Y166100D01*
X229805D01*
X237425Y173720D01*
Y208519D01*
X493000Y516000D02*
Y566000D01*
X475000Y516000D02*
Y566000D01*
X493000D01*
X475000Y516000D02*
X493000D01*
X515250Y393500D02*
Y496500D01*
X452750Y393500D02*
Y496500D01*
X515250D01*
X452750Y393500D02*
X515250D01*
X414281Y220318D02*
Y230318D01*
X399281Y220318D02*
Y230318D01*
X414652Y172287D02*
Y182287D01*
X399652Y172287D02*
Y182287D01*
X466318Y204503D02*
Y235503D01*
X451318Y204503D02*
Y235503D01*
X466318D01*
X451318Y204503D02*
X466318D01*
X415242Y660219D02*
Y670219D01*
X400242Y660219D02*
Y670219D01*
X467000Y645500D02*
Y676500D01*
X452000Y645500D02*
Y676500D01*
X467000D01*
X452000Y645500D02*
X467000D01*
X415230Y706110D02*
Y716110D01*
X400230Y706110D02*
Y716110D01*
X467062Y690925D02*
Y721925D01*
X452062Y690925D02*
Y721925D01*
X467062D01*
X452062Y690925D02*
X467062D01*
X466915Y156467D02*
Y187467D01*
X451915Y156467D02*
Y187467D01*
X466915D01*
X451915Y156467D02*
X466915D01*
D18*
X1003000Y764004D02*
X1005499Y761505D01*
X1010498D01*
X1012997Y764004D01*
Y774001D01*
X1010498Y776500D01*
X1005499D01*
X1003000Y774001D01*
Y764004D01*
X1027992Y776500D02*
X1017995D01*
X1027992Y766503D01*
Y764004D01*
X1025493Y761505D01*
X1020494D01*
X1017995Y764004D01*
X1032990Y776500D02*
Y774001D01*
X1035490D01*
Y776500D01*
X1032990D01*
X1055483D02*
X1045486D01*
X1055483Y766503D01*
Y764004D01*
X1052984Y761505D01*
X1047985D01*
X1045486Y764004D01*
X1060481D02*
X1062981Y761505D01*
X1067979D01*
X1070478Y764004D01*
Y774001D01*
X1067979Y776500D01*
X1062981D01*
X1060481Y774001D01*
Y764004D01*
X1085473Y776500D02*
X1075477D01*
X1085473Y766503D01*
Y764004D01*
X1082974Y761505D01*
X1077976D01*
X1075477Y764004D01*
X1090472Y776500D02*
X1095470D01*
X1092971D01*
Y761505D01*
X1090472Y764004D01*
X1003000Y739005D02*
Y749002D01*
X1007998Y754000D01*
X1012997Y749002D01*
Y739005D01*
X1025493Y754000D02*
X1020494D01*
X1017995Y751501D01*
Y746502D01*
X1020494Y744003D01*
X1025493D01*
X1027992Y746502D01*
Y749002D01*
X1017995D01*
X1032990Y744003D02*
Y754000D01*
Y749002D01*
X1035490Y746502D01*
X1037989Y744003D01*
X1040488D01*
X1047985Y754000D02*
Y751501D01*
X1050485D01*
Y754000D01*
X1047985D01*
X1060481Y744003D02*
X1062981D01*
Y746502D01*
X1060481D01*
Y744003D01*
Y751501D02*
X1062981D01*
Y754000D01*
X1060481D01*
Y751501D01*
X1072977Y754000D02*
Y744003D01*
X1077976Y739005D01*
X1082974Y744003D01*
Y754000D01*
Y746502D01*
X1072977D01*
X487000Y558000D02*
G03*
X487000Y558000I-2000J0D01*
G01*
X712504Y679000D02*
X710005Y676501D01*
Y671502D01*
X712504Y669003D01*
X722501D01*
X725000Y671502D01*
Y676501D01*
X722501Y679000D01*
X712504D01*
X725000Y654008D02*
Y664005D01*
X715003Y654008D01*
X712504D01*
X710005Y656507D01*
Y661506D01*
X712504Y664005D01*
X725000Y649010D02*
X722501D01*
Y646510D01*
X725000D01*
Y649010D01*
Y626517D02*
Y636514D01*
X715003Y626517D01*
X712504D01*
X710005Y629016D01*
Y634015D01*
X712504Y636514D01*
Y621519D02*
X710005Y619019D01*
Y614021D01*
X712504Y611522D01*
X722501D01*
X725000Y614021D01*
Y619019D01*
X722501Y621519D01*
X712504D01*
X725000Y596527D02*
Y606524D01*
X715003Y596527D01*
X712504D01*
X710005Y599026D01*
Y604024D01*
X712504Y606524D01*
X725000Y591528D02*
Y586530D01*
Y589029D01*
X710005D01*
X712504Y591528D01*
X687005Y678000D02*
X697002D01*
X702000Y673002D01*
X697002Y668003D01*
X687005D01*
X702000Y655507D02*
Y660506D01*
X699501Y663005D01*
X694502D01*
X692003Y660506D01*
Y655507D01*
X694502Y653008D01*
X697002D01*
Y663005D01*
X692003Y648010D02*
X702000D01*
X697002D01*
X694502Y645510D01*
X692003Y643011D01*
Y640512D01*
X702000Y633014D02*
X699501D01*
Y630515D01*
X702000D01*
Y633014D01*
X692003Y620519D02*
Y618019D01*
X694502D01*
Y620519D01*
X692003D01*
X699501D02*
Y618019D01*
X702000D01*
Y620519D01*
X699501D01*
X702000Y608023D02*
X692003D01*
X687005Y603024D01*
X692003Y598026D01*
X702000D01*
X694502D01*
Y608023D01*
D30*
X1085400Y312500D02*
G03*
X1085400Y312500I1250J0D01*
G01*
Y180000D02*
G03*
X1085400Y180000I1250J0D01*
G01*
Y710000D02*
G03*
X1085400Y710000I1250J0D01*
G01*
Y577500D02*
G03*
X1085400Y577500I1250J0D01*
G01*
Y445000D02*
G03*
X1085400Y445000I1250J0D01*
G01*
X443750Y372500D02*
G03*
X443750Y372500I-1250J0D01*
G01*
X509250Y568550D02*
G03*
X509250Y568550I-1250J0D01*
G01*
X480568Y237003D02*
G03*
X480568Y237003I-1250J0D01*
G01*
X481250Y678000D02*
G03*
X481250Y678000I-1250J0D01*
G01*
X481312Y723425D02*
G03*
X481312Y723425I-1250J0D01*
G01*
X481165Y188967D02*
G03*
X481165Y188967I-1250J0D01*
G01*
D31*
X1140000Y352500D02*
X1093000D01*
Y272500D01*
X1140000D02*
X1093000D01*
X1140000Y220000D02*
X1093000D01*
Y140000D01*
X1140000D02*
X1093000D01*
X1140000Y750000D02*
X1093000D01*
Y670000D01*
X1140000D02*
X1093000D01*
X1140000Y617500D02*
X1093000D01*
Y537500D01*
X1140000D02*
X1093000D01*
X1140000Y485000D02*
X1093000D01*
Y405000D01*
X1140000D02*
X1093000D01*
D49*
X1128461Y649882D02*
X1123382D01*
X1125922D01*
Y662578D01*
X1123382Y665117D01*
X1120843D01*
X1118304Y662578D01*
X1143696Y649882D02*
X1133539D01*
Y657500D01*
X1138618Y654961D01*
X1141157D01*
X1143696Y657500D01*
Y662578D01*
X1141157Y665117D01*
X1136078D01*
X1133539Y662578D01*
X1130961Y516883D02*
X1125882D01*
X1128422D01*
Y529578D01*
X1125882Y532118D01*
X1123343D01*
X1120804Y529578D01*
X1143657Y532118D02*
Y516883D01*
X1136039Y524500D01*
X1146196D01*
X1130211Y384632D02*
X1125133D01*
X1127672D01*
Y397328D01*
X1125133Y399868D01*
X1122593D01*
X1120054Y397328D01*
X1135289Y387172D02*
X1137828Y384632D01*
X1142907D01*
X1145446Y387172D01*
Y389711D01*
X1142907Y392250D01*
X1140368D01*
X1142907D01*
X1145446Y394789D01*
Y397328D01*
X1142907Y399868D01*
X1137828D01*
X1135289Y397328D01*
X1131461Y252633D02*
X1126383D01*
X1128922D01*
Y265328D01*
X1126383Y267868D01*
X1123843D01*
X1121304Y265328D01*
X1146696Y267868D02*
X1136539D01*
X1146696Y257711D01*
Y255172D01*
X1144157Y252633D01*
X1139078D01*
X1136539Y255172D01*
X1136500Y119882D02*
X1131422D01*
X1133961D01*
Y132578D01*
X1131422Y135118D01*
X1128883D01*
X1126343Y132578D01*
X1141578Y135118D02*
X1146657D01*
X1144118D01*
Y119882D01*
X1141578Y122422D01*
D100*
X508250Y486500D02*
G03*
X508250Y486500I-3000J0D01*
G01*
M02*
