G04*
G04 #@! TF.GenerationSoftware,Altium Limited,Altium NEXUS,4.1.1 (18)*
G04*
G04 Layer_Color=32768*
%FSLAX44Y44*%
%MOMM*%
G71*
G04*
G04 #@! TF.SameCoordinates,4F3881F6-B343-40B9-83C6-DCB6D38B7AD4*
G04*
G04*
G04 #@! TF.FilePolarity,Positive*
G04*
G01*
G75*
%ADD17C,0.1000*%
%ADD49C,0.2540*%
D17*
Y100000D02*
X1250000D01*
X0Y790000D02*
X1230000D01*
D49*
X1241121Y799311D02*
Y789155D01*
X1246199Y784076D01*
X1251278Y789155D01*
Y799311D01*
X1256356Y791694D02*
X1266513D01*
X1281748Y796772D02*
X1279209Y799311D01*
X1274130D01*
X1271591Y796772D01*
Y794233D01*
X1274130Y791694D01*
X1279209D01*
X1281748Y789155D01*
Y786615D01*
X1279209Y784076D01*
X1274130D01*
X1271591Y786615D01*
X1296983Y794233D02*
X1289365D01*
X1286826Y791694D01*
Y786615D01*
X1289365Y784076D01*
X1296983D01*
X1304601D02*
X1309679D01*
X1312218Y786615D01*
Y791694D01*
X1309679Y794233D01*
X1304601D01*
X1302061Y791694D01*
Y786615D01*
X1304601Y784076D01*
X1317296Y794233D02*
Y784076D01*
Y789155D01*
X1319836Y791694D01*
X1322375Y794233D01*
X1324914D01*
X1332531Y784076D02*
X1337610D01*
X1335071D01*
Y794233D01*
X1332531D01*
X1345227Y784076D02*
Y794233D01*
X1352845D01*
X1355384Y791694D01*
Y784076D01*
X1365541Y778998D02*
X1368080D01*
X1370619Y781537D01*
Y794233D01*
X1363002D01*
X1360462Y791694D01*
Y786615D01*
X1363002Y784076D01*
X1370619D01*
X1257773Y108617D02*
Y98461D01*
X1262851Y93382D01*
X1267930Y98461D01*
Y108617D01*
X1273008Y101000D02*
X1283165D01*
X1298400Y106078D02*
X1295861Y108617D01*
X1290782D01*
X1288243Y106078D01*
Y103539D01*
X1290782Y101000D01*
X1295861D01*
X1298400Y98461D01*
Y95921D01*
X1295861Y93382D01*
X1290782D01*
X1288243Y95921D01*
X1313635Y103539D02*
X1306017D01*
X1303478Y101000D01*
Y95921D01*
X1306017Y93382D01*
X1313635D01*
X1321252D02*
X1326331D01*
X1328870Y95921D01*
Y101000D01*
X1326331Y103539D01*
X1321252D01*
X1318713Y101000D01*
Y95921D01*
X1321252Y93382D01*
X1333948Y103539D02*
Y93382D01*
Y98461D01*
X1336487Y101000D01*
X1339027Y103539D01*
X1341566D01*
X1349183Y93382D02*
X1354262D01*
X1351723D01*
Y103539D01*
X1349183D01*
X1361879Y93382D02*
Y103539D01*
X1369497D01*
X1372036Y101000D01*
Y93382D01*
X1382193Y88304D02*
X1384732D01*
X1387271Y90843D01*
Y103539D01*
X1379653D01*
X1377114Y101000D01*
Y95921D01*
X1379653Y93382D01*
X1387271D01*
M02*
