G04*
G04 #@! TF.GenerationSoftware,Altium Limited,Altium NEXUS,4.1.1 (18)*
G04*
G04 Layer_Color=65535*
%FSLAX44Y44*%
%MOMM*%
G71*
G04*
G04 #@! TF.SameCoordinates,4F3881F6-B343-40B9-83C6-DCB6D38B7AD4*
G04*
G04*
G04 #@! TF.FilePolarity,Positive*
G04*
G01*
G75*
%ADD15C,0.1250*%
%ADD30C,0.2500*%
%ADD31C,0.2000*%
%ADD32C,0.3000*%
G36*
X422374Y889892D02*
Y889474D01*
Y889056D01*
Y888638D01*
Y888221D01*
Y887803D01*
Y887385D01*
Y886967D01*
X415687D01*
Y886549D01*
Y886131D01*
Y885713D01*
Y885295D01*
Y884877D01*
Y884459D01*
Y884041D01*
Y883623D01*
X412344D01*
Y884041D01*
Y884459D01*
Y884877D01*
Y885295D01*
Y885713D01*
Y886131D01*
Y886549D01*
Y886967D01*
Y887385D01*
Y887803D01*
Y888221D01*
Y888638D01*
Y889056D01*
Y889474D01*
Y889892D01*
Y890310D01*
X422374D01*
Y889892D01*
D02*
G37*
G36*
X398971D02*
Y889474D01*
Y889056D01*
Y888638D01*
Y888221D01*
Y887803D01*
Y887385D01*
Y886967D01*
Y886549D01*
Y886131D01*
Y885713D01*
Y885295D01*
Y884877D01*
Y884459D01*
Y884041D01*
Y883623D01*
X395627D01*
Y884041D01*
Y884459D01*
Y884877D01*
Y885295D01*
Y885713D01*
Y886131D01*
Y886549D01*
Y886967D01*
X392284D01*
Y887385D01*
Y887803D01*
Y888221D01*
Y888638D01*
Y889056D01*
Y889474D01*
Y889892D01*
Y890310D01*
X398971D01*
Y889892D01*
D02*
G37*
G36*
X422374Y883205D02*
Y882788D01*
Y882370D01*
Y881952D01*
Y881534D01*
Y881116D01*
Y880698D01*
Y880280D01*
X419030D01*
Y880698D01*
Y881116D01*
Y881534D01*
Y881952D01*
Y882370D01*
Y882788D01*
Y883205D01*
Y883623D01*
X422374D01*
Y883205D01*
D02*
G37*
G36*
X402314Y879862D02*
Y879444D01*
Y879026D01*
Y878608D01*
Y878191D01*
Y877773D01*
Y877355D01*
Y876937D01*
X398971D01*
Y877355D01*
Y877773D01*
Y878191D01*
Y878608D01*
Y879026D01*
Y879444D01*
Y879862D01*
Y880280D01*
X402314D01*
Y879862D01*
D02*
G37*
G36*
X422374Y876519D02*
Y876101D01*
Y875683D01*
Y875265D01*
Y874847D01*
Y874429D01*
Y874011D01*
Y873594D01*
X419030D01*
Y874011D01*
Y874429D01*
Y874847D01*
Y875265D01*
Y875683D01*
Y876101D01*
Y876519D01*
Y876937D01*
X422374D01*
Y876519D01*
D02*
G37*
G36*
X409001Y886549D02*
Y886131D01*
Y885713D01*
Y885295D01*
Y884877D01*
Y884459D01*
Y884041D01*
Y883623D01*
Y883205D01*
Y882788D01*
Y882370D01*
Y881952D01*
Y881534D01*
Y881116D01*
Y880698D01*
Y880280D01*
X412344D01*
Y879862D01*
Y879444D01*
Y879026D01*
Y878608D01*
Y878191D01*
Y877773D01*
Y877355D01*
Y876937D01*
Y876519D01*
Y876101D01*
Y875683D01*
Y875265D01*
Y874847D01*
Y874429D01*
Y874011D01*
Y873594D01*
X409001D01*
Y874011D01*
Y874429D01*
Y874847D01*
Y875265D01*
Y875683D01*
Y876101D01*
Y876519D01*
Y876937D01*
X405657D01*
Y877355D01*
Y877773D01*
Y878191D01*
Y878608D01*
Y879026D01*
Y879444D01*
Y879862D01*
Y880280D01*
Y880698D01*
Y881116D01*
Y881534D01*
Y881952D01*
Y882370D01*
Y882788D01*
Y883205D01*
Y883623D01*
Y884041D01*
Y884459D01*
Y884877D01*
Y885295D01*
Y885713D01*
Y886131D01*
Y886549D01*
Y886967D01*
X409001D01*
Y886549D01*
D02*
G37*
G36*
X237175Y871433D02*
X234726D01*
Y873699D01*
X237175D01*
Y871433D01*
D02*
G37*
G36*
X180390Y873915D02*
X180590Y873899D01*
X180806Y873882D01*
X181073Y873849D01*
X181356Y873799D01*
X181939Y873682D01*
X182256Y873599D01*
X182556Y873499D01*
X182872Y873382D01*
X183156Y873249D01*
X183439Y873099D01*
X183706Y872916D01*
X183722Y872899D01*
X183772Y872866D01*
X183839Y872816D01*
X183922Y872732D01*
X184039Y872633D01*
X184155Y872516D01*
X184289Y872366D01*
X184439Y872199D01*
X184572Y872016D01*
X184722Y871799D01*
X184872Y871583D01*
X185022Y871333D01*
X185138Y871066D01*
X185272Y870783D01*
X185372Y870483D01*
X185455Y870166D01*
X182889Y869683D01*
Y869700D01*
X182872Y869733D01*
X182856Y869767D01*
X182839Y869833D01*
X182756Y870000D01*
X182656Y870217D01*
X182506Y870450D01*
X182339Y870700D01*
X182122Y870950D01*
X181856Y871166D01*
X181823Y871183D01*
X181723Y871250D01*
X181573Y871333D01*
X181356Y871450D01*
X181073Y871550D01*
X180756Y871633D01*
X180390Y871700D01*
X179990Y871716D01*
X179823D01*
X179706Y871700D01*
X179573Y871683D01*
X179407Y871666D01*
X179223Y871633D01*
X179023Y871583D01*
X178590Y871450D01*
X178374Y871366D01*
X178157Y871266D01*
X177924Y871133D01*
X177707Y870983D01*
X177507Y870816D01*
X177307Y870633D01*
X177290Y870616D01*
X177257Y870583D01*
X177207Y870516D01*
X177157Y870433D01*
X177074Y870316D01*
X176991Y870183D01*
X176907Y870016D01*
X176807Y869833D01*
X176707Y869617D01*
X176624Y869383D01*
X176541Y869117D01*
X176457Y868833D01*
X176407Y868517D01*
X176357Y868184D01*
X176324Y867817D01*
X176307Y867434D01*
Y867401D01*
Y867334D01*
Y867217D01*
X176324Y867067D01*
X176341Y866867D01*
X176357Y866651D01*
X176391Y866417D01*
X176441Y866151D01*
X176557Y865601D01*
X176641Y865301D01*
X176724Y865018D01*
X176841Y864751D01*
X176974Y864485D01*
X177124Y864235D01*
X177307Y864001D01*
X177324Y863985D01*
X177357Y863951D01*
X177407Y863901D01*
X177490Y863818D01*
X177590Y863735D01*
X177724Y863652D01*
X177857Y863535D01*
X178024Y863435D01*
X178207Y863335D01*
X178407Y863235D01*
X178623Y863135D01*
X178857Y863052D01*
X179123Y862968D01*
X179390Y862918D01*
X179673Y862885D01*
X179973Y862868D01*
X180106D01*
X180273Y862885D01*
X180473Y862902D01*
X180723Y862952D01*
X180989Y863002D01*
X181289Y863085D01*
X181589Y863185D01*
X181606D01*
X181623Y863202D01*
X181723Y863235D01*
X181873Y863302D01*
X182073Y863402D01*
X182289Y863518D01*
X182539Y863635D01*
X182772Y863785D01*
X183006Y863951D01*
Y865584D01*
X180040D01*
Y867750D01*
X185622D01*
Y862635D01*
X185605Y862618D01*
X185588Y862602D01*
X185538Y862552D01*
X185472Y862502D01*
X185388Y862435D01*
X185288Y862352D01*
X185155Y862269D01*
X185022Y862169D01*
X184855Y862069D01*
X184689Y861952D01*
X184489Y861835D01*
X184272Y861719D01*
X184055Y861602D01*
X183805Y861485D01*
X183539Y861369D01*
X183256Y861252D01*
X183239D01*
X183189Y861219D01*
X183106Y861202D01*
X182989Y861152D01*
X182856Y861119D01*
X182689Y861069D01*
X182506Y861002D01*
X182289Y860952D01*
X182073Y860902D01*
X181823Y860836D01*
X181289Y860752D01*
X180723Y860686D01*
X180140Y860652D01*
X179940D01*
X179806Y860669D01*
X179623Y860686D01*
X179423Y860702D01*
X179190Y860719D01*
X178940Y860752D01*
X178673Y860802D01*
X178390Y860852D01*
X177807Y861002D01*
X177507Y861102D01*
X177207Y861219D01*
X176907Y861335D01*
X176624Y861485D01*
X176607Y861502D01*
X176557Y861519D01*
X176491Y861569D01*
X176374Y861635D01*
X176257Y861735D01*
X176107Y861835D01*
X175958Y861969D01*
X175791Y862102D01*
X175607Y862269D01*
X175424Y862452D01*
X175241Y862652D01*
X175058Y862868D01*
X174874Y863102D01*
X174708Y863352D01*
X174541Y863618D01*
X174391Y863901D01*
Y863918D01*
X174358Y863968D01*
X174324Y864068D01*
X174275Y864185D01*
X174225Y864318D01*
X174158Y864501D01*
X174091Y864701D01*
X174025Y864918D01*
X173941Y865168D01*
X173875Y865434D01*
X173808Y865718D01*
X173758Y866018D01*
X173675Y866651D01*
X173658Y866984D01*
X173641Y867334D01*
Y867351D01*
Y867417D01*
Y867534D01*
X173658Y867667D01*
X173675Y867850D01*
X173691Y868050D01*
X173708Y868284D01*
X173741Y868534D01*
X173791Y868800D01*
X173841Y869083D01*
X173991Y869683D01*
X174091Y869983D01*
X174208Y870283D01*
X174324Y870583D01*
X174475Y870883D01*
X174491Y870900D01*
X174508Y870950D01*
X174558Y871033D01*
X174625Y871150D01*
X174724Y871266D01*
X174824Y871416D01*
X174941Y871583D01*
X175091Y871766D01*
X175258Y871966D01*
X175441Y872149D01*
X175641Y872349D01*
X175858Y872549D01*
X176091Y872749D01*
X176357Y872933D01*
X176624Y873116D01*
X176924Y873282D01*
X176940D01*
X176974Y873316D01*
X177057Y873349D01*
X177141Y873382D01*
X177274Y873432D01*
X177407Y873482D01*
X177574Y873549D01*
X177774Y873616D01*
X177990Y873666D01*
X178207Y873732D01*
X178473Y873782D01*
X178740Y873832D01*
X179023Y873866D01*
X179340Y873899D01*
X179990Y873932D01*
X180223D01*
X180390Y873915D01*
D02*
G37*
G36*
X340665Y860886D02*
X338382D01*
Y862219D01*
X338349Y862202D01*
X338283Y862102D01*
X338166Y861969D01*
X337999Y861802D01*
X337799Y861602D01*
X337566Y861402D01*
X337316Y861219D01*
X337033Y861052D01*
X337000Y861036D01*
X336900Y860986D01*
X336750Y860936D01*
X336550Y860869D01*
X336316Y860786D01*
X336050Y860736D01*
X335766Y860686D01*
X335467Y860669D01*
X335400D01*
X335317Y860686D01*
X335200D01*
X335067Y860702D01*
X334900Y860736D01*
X334717Y860769D01*
X334534Y860836D01*
X334317Y860902D01*
X334100Y860986D01*
X333867Y861086D01*
X333634Y861219D01*
X333400Y861352D01*
X333184Y861535D01*
X332951Y861719D01*
X332734Y861952D01*
X332717Y861969D01*
X332684Y862019D01*
X332634Y862085D01*
X332551Y862185D01*
X332467Y862318D01*
X332384Y862485D01*
X332267Y862669D01*
X332168Y862885D01*
X332067Y863118D01*
X331968Y863402D01*
X331867Y863685D01*
X331784Y864018D01*
X331701Y864351D01*
X331651Y864735D01*
X331618Y865135D01*
X331601Y865551D01*
Y865584D01*
Y865651D01*
Y865784D01*
X331618Y865934D01*
X331634Y866134D01*
X331668Y866367D01*
X331701Y866617D01*
X331734Y866884D01*
X331867Y867467D01*
X331951Y867767D01*
X332067Y868067D01*
X332184Y868367D01*
X332334Y868650D01*
X332501Y868900D01*
X332701Y869150D01*
X332717Y869167D01*
X332751Y869200D01*
X332817Y869267D01*
X332901Y869350D01*
X333017Y869433D01*
X333150Y869533D01*
X333301Y869650D01*
X333467Y869767D01*
X333667Y869883D01*
X333884Y870000D01*
X334117Y870100D01*
X334367Y870183D01*
X334633Y870266D01*
X334900Y870333D01*
X335200Y870367D01*
X335517Y870383D01*
X335667D01*
X335783Y870367D01*
X335916Y870350D01*
X336067Y870316D01*
X336250Y870266D01*
X336433Y870217D01*
X336633Y870150D01*
X336850Y870067D01*
X337083Y869967D01*
X337316Y869833D01*
X337533Y869683D01*
X337766Y869517D01*
X337999Y869317D01*
X338216Y869083D01*
Y873699D01*
X340665D01*
Y860886D01*
D02*
G37*
G36*
X265168Y870367D02*
X265368Y870333D01*
X265618Y870266D01*
X265901Y870183D01*
X266184Y870067D01*
X266484Y869917D01*
X265718Y867767D01*
X265685Y867784D01*
X265618Y867834D01*
X265501Y867900D01*
X265351Y867984D01*
X265168Y868050D01*
X264968Y868117D01*
X264768Y868167D01*
X264568Y868184D01*
X264485D01*
X264385Y868167D01*
X264251Y868150D01*
X264118Y868117D01*
X263968Y868050D01*
X263818Y867984D01*
X263668Y867884D01*
X263652Y867867D01*
X263618Y867834D01*
X263552Y867750D01*
X263468Y867651D01*
X263385Y867501D01*
X263285Y867334D01*
X263202Y867117D01*
X263118Y866851D01*
Y866817D01*
X263102Y866767D01*
X263085Y866701D01*
X263069Y866601D01*
X263052Y866501D01*
X263035Y866351D01*
X263018Y866184D01*
X263002Y866001D01*
X262985Y865768D01*
X262969Y865518D01*
X262952Y865235D01*
X262935Y864918D01*
Y864568D01*
X262918Y864185D01*
Y863752D01*
Y860886D01*
X260469D01*
Y870166D01*
X262752D01*
Y868850D01*
X262785Y868867D01*
X262802Y868917D01*
X262852Y868984D01*
X262969Y869150D01*
X263102Y869333D01*
X263268Y869550D01*
X263435Y869750D01*
X263618Y869933D01*
X263802Y870067D01*
X263818Y870083D01*
X263885Y870117D01*
X263985Y870166D01*
X264102Y870233D01*
X264268Y870283D01*
X264435Y870333D01*
X264635Y870367D01*
X264851Y870383D01*
X265001D01*
X265168Y870367D01*
D02*
G37*
G36*
X232360D02*
X232560Y870333D01*
X232810Y870266D01*
X233093Y870183D01*
X233376Y870067D01*
X233676Y869917D01*
X232910Y867767D01*
X232876Y867784D01*
X232810Y867834D01*
X232693Y867900D01*
X232543Y867984D01*
X232360Y868050D01*
X232160Y868117D01*
X231960Y868167D01*
X231760Y868184D01*
X231677D01*
X231576Y868167D01*
X231443Y868150D01*
X231310Y868117D01*
X231160Y868050D01*
X231010Y867984D01*
X230860Y867884D01*
X230843Y867867D01*
X230810Y867834D01*
X230743Y867750D01*
X230660Y867651D01*
X230577Y867501D01*
X230477Y867334D01*
X230394Y867117D01*
X230310Y866851D01*
Y866817D01*
X230294Y866767D01*
X230277Y866701D01*
X230260Y866601D01*
X230244Y866501D01*
X230227Y866351D01*
X230210Y866184D01*
X230194Y866001D01*
X230177Y865768D01*
X230160Y865518D01*
X230144Y865235D01*
X230127Y864918D01*
Y864568D01*
X230110Y864185D01*
Y863752D01*
Y860886D01*
X227661D01*
Y870166D01*
X229944D01*
Y868850D01*
X229977Y868867D01*
X229994Y868917D01*
X230044Y868984D01*
X230160Y869150D01*
X230294Y869333D01*
X230460Y869550D01*
X230627Y869750D01*
X230810Y869933D01*
X230993Y870067D01*
X231010Y870083D01*
X231077Y870117D01*
X231177Y870166D01*
X231293Y870233D01*
X231460Y870283D01*
X231626Y870333D01*
X231826Y870367D01*
X232043Y870383D01*
X232193D01*
X232360Y870367D01*
D02*
G37*
G36*
X245056D02*
X245206Y870350D01*
X245356Y870316D01*
X245540Y870283D01*
X245740Y870217D01*
X245956Y870150D01*
X246173Y870067D01*
X246406Y869967D01*
X246639Y869850D01*
X246873Y869700D01*
X247089Y869517D01*
X247323Y869333D01*
X247539Y869100D01*
X247556Y869083D01*
X247589Y869050D01*
X247639Y868967D01*
X247722Y868867D01*
X247806Y868734D01*
X247906Y868584D01*
X248006Y868400D01*
X248106Y868184D01*
X248206Y867950D01*
X248322Y867684D01*
X248406Y867384D01*
X248489Y867084D01*
X248572Y866734D01*
X248622Y866367D01*
X248655Y865984D01*
X248672Y865568D01*
Y865534D01*
Y865468D01*
Y865351D01*
X248655Y865184D01*
X248639Y864985D01*
X248605Y864768D01*
X248572Y864518D01*
X248522Y864235D01*
X248472Y863951D01*
X248389Y863668D01*
X248306Y863352D01*
X248189Y863052D01*
X248056Y862768D01*
X247906Y862468D01*
X247722Y862202D01*
X247523Y861952D01*
X247506Y861935D01*
X247472Y861902D01*
X247406Y861835D01*
X247323Y861752D01*
X247206Y861652D01*
X247073Y861552D01*
X246923Y861435D01*
X246756Y861319D01*
X246556Y861186D01*
X246356Y861069D01*
X246123Y860969D01*
X245890Y860869D01*
X245623Y860786D01*
X245356Y860719D01*
X245073Y860686D01*
X244773Y860669D01*
X244640D01*
X244490Y860686D01*
X244307Y860702D01*
X244090Y860736D01*
X243857Y860802D01*
X243624Y860869D01*
X243374Y860969D01*
X243340Y860986D01*
X243274Y861036D01*
X243140Y861102D01*
X242974Y861219D01*
X242790Y861352D01*
X242574Y861535D01*
X242324Y861752D01*
X242074Y862019D01*
Y857337D01*
X239625D01*
Y870166D01*
X241907D01*
Y868800D01*
X241924Y868833D01*
X241991Y868917D01*
X242090Y869050D01*
X242224Y869200D01*
X242390Y869383D01*
X242590Y869567D01*
X242840Y869767D01*
X243107Y869933D01*
X243124D01*
X243140Y869950D01*
X243240Y870000D01*
X243390Y870083D01*
X243607Y870166D01*
X243857Y870233D01*
X244140Y870316D01*
X244457Y870367D01*
X244790Y870383D01*
X244940D01*
X245056Y870367D01*
D02*
G37*
G36*
X449120Y889892D02*
Y889474D01*
Y889056D01*
Y888638D01*
Y888221D01*
Y887803D01*
Y887385D01*
Y886967D01*
Y886549D01*
Y886131D01*
Y885713D01*
Y885295D01*
Y884877D01*
Y884459D01*
Y884041D01*
Y883623D01*
Y883205D01*
Y882788D01*
Y882370D01*
Y881952D01*
Y881534D01*
Y881116D01*
Y880698D01*
Y880280D01*
Y879862D01*
Y879444D01*
Y879026D01*
Y878608D01*
Y878191D01*
Y877773D01*
Y877355D01*
Y876937D01*
Y876519D01*
Y876101D01*
Y875683D01*
Y875265D01*
Y874847D01*
Y874429D01*
Y874011D01*
Y873594D01*
Y873176D01*
Y872758D01*
Y872340D01*
Y871922D01*
Y871504D01*
Y871086D01*
Y870668D01*
Y870250D01*
Y869832D01*
Y869414D01*
Y868997D01*
Y868579D01*
Y868161D01*
Y867743D01*
Y867325D01*
Y866907D01*
X425717D01*
Y867325D01*
Y867743D01*
Y868161D01*
Y868579D01*
Y868997D01*
Y869414D01*
Y869832D01*
Y870250D01*
Y870668D01*
Y871086D01*
Y871504D01*
Y871922D01*
Y872340D01*
Y872758D01*
Y873176D01*
Y873594D01*
Y874011D01*
Y874429D01*
Y874847D01*
Y875265D01*
Y875683D01*
Y876101D01*
Y876519D01*
Y876937D01*
Y877355D01*
Y877773D01*
Y878191D01*
Y878608D01*
Y879026D01*
Y879444D01*
Y879862D01*
Y880280D01*
Y880698D01*
Y881116D01*
Y881534D01*
Y881952D01*
Y882370D01*
Y882788D01*
Y883205D01*
Y883623D01*
Y884041D01*
Y884459D01*
Y884877D01*
Y885295D01*
Y885713D01*
Y886131D01*
Y886549D01*
Y886967D01*
Y887385D01*
Y887803D01*
Y888221D01*
Y888638D01*
Y889056D01*
Y889474D01*
Y889892D01*
Y890310D01*
X449120D01*
Y889892D01*
D02*
G37*
G36*
X415687Y869832D02*
Y869414D01*
Y868997D01*
Y868579D01*
Y868161D01*
Y867743D01*
Y867325D01*
Y866907D01*
X412344D01*
Y867325D01*
Y867743D01*
Y868161D01*
Y868579D01*
Y868997D01*
Y869414D01*
Y869832D01*
Y870250D01*
X415687D01*
Y869832D01*
D02*
G37*
G36*
X388941Y889892D02*
Y889474D01*
Y889056D01*
Y888638D01*
Y888221D01*
Y887803D01*
Y887385D01*
Y886967D01*
Y886549D01*
Y886131D01*
Y885713D01*
Y885295D01*
Y884877D01*
Y884459D01*
Y884041D01*
Y883623D01*
Y883205D01*
Y882788D01*
Y882370D01*
Y881952D01*
Y881534D01*
Y881116D01*
Y880698D01*
Y880280D01*
Y879862D01*
Y879444D01*
Y879026D01*
Y878608D01*
Y878191D01*
Y877773D01*
Y877355D01*
Y876937D01*
Y876519D01*
Y876101D01*
Y875683D01*
Y875265D01*
Y874847D01*
Y874429D01*
Y874011D01*
Y873594D01*
Y873176D01*
Y872758D01*
Y872340D01*
Y871922D01*
Y871504D01*
Y871086D01*
Y870668D01*
Y870250D01*
Y869832D01*
Y869414D01*
Y868997D01*
Y868579D01*
Y868161D01*
Y867743D01*
Y867325D01*
Y866907D01*
X365538D01*
Y867325D01*
Y867743D01*
Y868161D01*
Y868579D01*
Y868997D01*
Y869414D01*
Y869832D01*
Y870250D01*
Y870668D01*
Y871086D01*
Y871504D01*
Y871922D01*
Y872340D01*
Y872758D01*
Y873176D01*
Y873594D01*
Y874011D01*
Y874429D01*
Y874847D01*
Y875265D01*
Y875683D01*
Y876101D01*
Y876519D01*
Y876937D01*
Y877355D01*
Y877773D01*
Y878191D01*
Y878608D01*
Y879026D01*
Y879444D01*
Y879862D01*
Y880280D01*
Y880698D01*
Y881116D01*
Y881534D01*
Y881952D01*
Y882370D01*
Y882788D01*
Y883205D01*
Y883623D01*
Y884041D01*
Y884459D01*
Y884877D01*
Y885295D01*
Y885713D01*
Y886131D01*
Y886549D01*
Y886967D01*
Y887385D01*
Y887803D01*
Y888221D01*
Y888638D01*
Y889056D01*
Y889474D01*
Y889892D01*
Y890310D01*
X388941D01*
Y889892D01*
D02*
G37*
G36*
X326219Y870367D02*
X326386D01*
X326552Y870350D01*
X326752Y870333D01*
X327135Y870283D01*
X327552Y870217D01*
X327935Y870117D01*
X328102Y870050D01*
X328269Y869983D01*
X328285D01*
X328302Y869967D01*
X328402Y869917D01*
X328535Y869833D01*
X328718Y869717D01*
X328902Y869583D01*
X329085Y869400D01*
X329252Y869217D01*
X329402Y869000D01*
X329418Y868967D01*
X329451Y868884D01*
X329485Y868817D01*
X329501Y868734D01*
X329535Y868617D01*
X329568Y868500D01*
X329601Y868367D01*
X329635Y868200D01*
X329651Y868017D01*
X329685Y867817D01*
X329701Y867600D01*
X329718Y867351D01*
X329735Y867084D01*
Y866801D01*
X329701Y863935D01*
Y863918D01*
Y863885D01*
Y863818D01*
Y863735D01*
Y863635D01*
Y863518D01*
X329718Y863252D01*
X329735Y862952D01*
X329751Y862652D01*
X329785Y862368D01*
X329818Y862119D01*
Y862085D01*
X329835Y862019D01*
X329868Y861902D01*
X329918Y861752D01*
X329985Y861569D01*
X330051Y861352D01*
X330151Y861119D01*
X330268Y860886D01*
X327835D01*
Y860902D01*
X327819Y860936D01*
X327802Y860986D01*
X327769Y861069D01*
X327735Y861169D01*
X327685Y861285D01*
X327635Y861435D01*
X327585Y861602D01*
Y861619D01*
Y861635D01*
X327552Y861719D01*
X327535Y861819D01*
X327502Y861885D01*
X327469Y861852D01*
X327385Y861785D01*
X327269Y861669D01*
X327102Y861535D01*
X326902Y861385D01*
X326669Y861236D01*
X326419Y861102D01*
X326152Y860969D01*
X326119Y860952D01*
X326036Y860919D01*
X325886Y860869D01*
X325702Y860819D01*
X325469Y860769D01*
X325219Y860719D01*
X324936Y860686D01*
X324636Y860669D01*
X324503D01*
X324403Y860686D01*
X324286D01*
X324136Y860702D01*
X323820Y860769D01*
X323453Y860852D01*
X323070Y860986D01*
X322703Y861186D01*
X322537Y861302D01*
X322370Y861435D01*
X322353Y861452D01*
X322337Y861469D01*
X322303Y861519D01*
X322237Y861569D01*
X322120Y861752D01*
X321970Y861969D01*
X321820Y862252D01*
X321687Y862602D01*
X321587Y862985D01*
X321570Y863185D01*
X321553Y863402D01*
Y863418D01*
Y863435D01*
Y863535D01*
X321570Y863685D01*
X321604Y863868D01*
X321637Y864085D01*
X321703Y864318D01*
X321803Y864568D01*
X321920Y864801D01*
X321937Y864835D01*
X321987Y864901D01*
X322070Y865018D01*
X322203Y865151D01*
X322353Y865301D01*
X322520Y865451D01*
X322737Y865601D01*
X322970Y865734D01*
X323003Y865751D01*
X323103Y865784D01*
X323253Y865851D01*
X323470Y865934D01*
X323753Y866018D01*
X324086Y866118D01*
X324469Y866217D01*
X324919Y866301D01*
X324936D01*
X325003Y866318D01*
X325086Y866334D01*
X325203Y866351D01*
X325336Y866384D01*
X325503Y866417D01*
X325869Y866501D01*
X326269Y866601D01*
X326669Y866701D01*
X326852Y866751D01*
X327019Y866817D01*
X327185Y866867D01*
X327319Y866917D01*
Y867151D01*
Y867167D01*
Y867184D01*
Y867267D01*
X327302Y867401D01*
X327269Y867551D01*
X327235Y867734D01*
X327169Y867900D01*
X327069Y868050D01*
X326952Y868184D01*
X326936Y868200D01*
X326885Y868234D01*
X326786Y868284D01*
X326652Y868350D01*
X326486Y868400D01*
X326252Y868450D01*
X325969Y868484D01*
X325636Y868500D01*
X325519D01*
X325402Y868484D01*
X325253Y868467D01*
X325086Y868434D01*
X324919Y868384D01*
X324753Y868317D01*
X324603Y868234D01*
X324586Y868217D01*
X324536Y868184D01*
X324469Y868117D01*
X324386Y868017D01*
X324303Y867900D01*
X324203Y867734D01*
X324103Y867551D01*
X324020Y867317D01*
X321803Y867717D01*
Y867734D01*
X321820Y867784D01*
X321837Y867850D01*
X321870Y867934D01*
X321920Y868050D01*
X321970Y868184D01*
X322103Y868467D01*
X322270Y868800D01*
X322503Y869134D01*
X322770Y869450D01*
X323087Y869717D01*
X323103D01*
X323136Y869750D01*
X323186Y869783D01*
X323253Y869817D01*
X323353Y869867D01*
X323470Y869933D01*
X323620Y869983D01*
X323770Y870050D01*
X323953Y870117D01*
X324153Y870166D01*
X324386Y870233D01*
X324619Y870283D01*
X324886Y870316D01*
X325186Y870350D01*
X325486Y870383D01*
X326086D01*
X326219Y870367D01*
D02*
G37*
G36*
X304341Y873682D02*
X304708Y873666D01*
X305091Y873649D01*
X305441Y873616D01*
X305608Y873582D01*
X305758Y873566D01*
X305791D01*
X305891Y873532D01*
X306024Y873499D01*
X306207Y873449D01*
X306407Y873382D01*
X306641Y873282D01*
X306874Y873166D01*
X307090Y873033D01*
X307124Y873016D01*
X307190Y872966D01*
X307290Y872866D01*
X307440Y872749D01*
X307590Y872599D01*
X307757Y872416D01*
X307924Y872199D01*
X308074Y871966D01*
X308090Y871933D01*
X308140Y871849D01*
X308207Y871716D01*
X308274Y871533D01*
X308340Y871300D01*
X308407Y871050D01*
X308457Y870766D01*
X308473Y870467D01*
Y870450D01*
Y870433D01*
Y870383D01*
Y870316D01*
X308457Y870150D01*
X308407Y869917D01*
X308357Y869667D01*
X308274Y869383D01*
X308157Y869100D01*
X307990Y868817D01*
X307974Y868784D01*
X307907Y868700D01*
X307790Y868567D01*
X307640Y868400D01*
X307457Y868217D01*
X307224Y868017D01*
X306974Y867850D01*
X306674Y867684D01*
X306691D01*
X306724Y867667D01*
X306791Y867651D01*
X306874Y867617D01*
X306957Y867584D01*
X307074Y867534D01*
X307341Y867401D01*
X307624Y867251D01*
X307924Y867051D01*
X308207Y866801D01*
X308473Y866517D01*
Y866501D01*
X308507Y866484D01*
X308540Y866434D01*
X308573Y866367D01*
X308673Y866201D01*
X308790Y865968D01*
X308907Y865684D01*
X309007Y865351D01*
X309073Y864985D01*
X309107Y864585D01*
Y864568D01*
Y864551D01*
Y864501D01*
Y864435D01*
X309090Y864268D01*
X309057Y864051D01*
X309007Y863785D01*
X308923Y863502D01*
X308823Y863202D01*
X308690Y862885D01*
Y862868D01*
X308673Y862852D01*
X308624Y862752D01*
X308524Y862602D01*
X308407Y862419D01*
X308240Y862202D01*
X308057Y861985D01*
X307824Y861769D01*
X307574Y861569D01*
X307540Y861552D01*
X307457Y861485D01*
X307290Y861402D01*
X307090Y861319D01*
X306841Y861202D01*
X306541Y861119D01*
X306207Y861036D01*
X305841Y860969D01*
X305774D01*
X305708Y860952D01*
X305508D01*
X305374Y860936D01*
X305208D01*
X305024Y860919D01*
X304541D01*
X304258Y860902D01*
X303575D01*
X303175Y860886D01*
X298376D01*
Y873699D01*
X304008D01*
X304341Y873682D01*
D02*
G37*
G36*
X290861Y860886D02*
X288412D01*
Y873699D01*
X290861D01*
Y860886D01*
D02*
G37*
G36*
X282480Y870367D02*
X282647D01*
X282813Y870350D01*
X283013Y870333D01*
X283397Y870283D01*
X283813Y870217D01*
X284196Y870117D01*
X284363Y870050D01*
X284530Y869983D01*
X284546D01*
X284563Y869967D01*
X284663Y869917D01*
X284796Y869833D01*
X284979Y869717D01*
X285163Y869583D01*
X285346Y869400D01*
X285513Y869217D01*
X285663Y869000D01*
X285679Y868967D01*
X285713Y868884D01*
X285746Y868817D01*
X285763Y868734D01*
X285796Y868617D01*
X285829Y868500D01*
X285863Y868367D01*
X285896Y868200D01*
X285913Y868017D01*
X285946Y867817D01*
X285963Y867600D01*
X285979Y867351D01*
X285996Y867084D01*
Y866801D01*
X285963Y863935D01*
Y863918D01*
Y863885D01*
Y863818D01*
Y863735D01*
Y863635D01*
Y863518D01*
X285979Y863252D01*
X285996Y862952D01*
X286013Y862652D01*
X286046Y862368D01*
X286079Y862119D01*
Y862085D01*
X286096Y862019D01*
X286129Y861902D01*
X286179Y861752D01*
X286246Y861569D01*
X286313Y861352D01*
X286413Y861119D01*
X286529Y860886D01*
X284096D01*
Y860902D01*
X284080Y860936D01*
X284063Y860986D01*
X284030Y861069D01*
X283997Y861169D01*
X283946Y861285D01*
X283897Y861435D01*
X283846Y861602D01*
Y861619D01*
Y861635D01*
X283813Y861719D01*
X283797Y861819D01*
X283763Y861885D01*
X283730Y861852D01*
X283647Y861785D01*
X283530Y861669D01*
X283363Y861535D01*
X283163Y861385D01*
X282930Y861236D01*
X282680Y861102D01*
X282414Y860969D01*
X282380Y860952D01*
X282297Y860919D01*
X282147Y860869D01*
X281964Y860819D01*
X281730Y860769D01*
X281480Y860719D01*
X281197Y860686D01*
X280897Y860669D01*
X280764D01*
X280664Y860686D01*
X280547D01*
X280397Y860702D01*
X280081Y860769D01*
X279714Y860852D01*
X279331Y860986D01*
X278964Y861186D01*
X278798Y861302D01*
X278631Y861435D01*
X278615Y861452D01*
X278598Y861469D01*
X278564Y861519D01*
X278498Y861569D01*
X278381Y861752D01*
X278231Y861969D01*
X278081Y862252D01*
X277948Y862602D01*
X277848Y862985D01*
X277831Y863185D01*
X277815Y863402D01*
Y863418D01*
Y863435D01*
Y863535D01*
X277831Y863685D01*
X277865Y863868D01*
X277898Y864085D01*
X277965Y864318D01*
X278065Y864568D01*
X278181Y864801D01*
X278198Y864835D01*
X278248Y864901D01*
X278331Y865018D01*
X278465Y865151D01*
X278615Y865301D01*
X278781Y865451D01*
X278998Y865601D01*
X279231Y865734D01*
X279264Y865751D01*
X279364Y865784D01*
X279514Y865851D01*
X279731Y865934D01*
X280014Y866018D01*
X280347Y866118D01*
X280731Y866217D01*
X281180Y866301D01*
X281197D01*
X281264Y866318D01*
X281347Y866334D01*
X281464Y866351D01*
X281597Y866384D01*
X281764Y866417D01*
X282130Y866501D01*
X282530Y866601D01*
X282930Y866701D01*
X283113Y866751D01*
X283280Y866817D01*
X283447Y866867D01*
X283580Y866917D01*
Y867151D01*
Y867167D01*
Y867184D01*
Y867267D01*
X283563Y867401D01*
X283530Y867551D01*
X283497Y867734D01*
X283430Y867900D01*
X283330Y868050D01*
X283213Y868184D01*
X283197Y868200D01*
X283147Y868234D01*
X283047Y868284D01*
X282913Y868350D01*
X282747Y868400D01*
X282514Y868450D01*
X282230Y868484D01*
X281897Y868500D01*
X281780D01*
X281664Y868484D01*
X281514Y868467D01*
X281347Y868434D01*
X281180Y868384D01*
X281014Y868317D01*
X280864Y868234D01*
X280847Y868217D01*
X280797Y868184D01*
X280731Y868117D01*
X280647Y868017D01*
X280564Y867900D01*
X280464Y867734D01*
X280364Y867551D01*
X280281Y867317D01*
X278065Y867717D01*
Y867734D01*
X278081Y867784D01*
X278098Y867850D01*
X278131Y867934D01*
X278181Y868050D01*
X278231Y868184D01*
X278365Y868467D01*
X278531Y868800D01*
X278764Y869134D01*
X279031Y869450D01*
X279348Y869717D01*
X279364D01*
X279398Y869750D01*
X279448Y869783D01*
X279514Y869817D01*
X279614Y869867D01*
X279731Y869933D01*
X279881Y869983D01*
X280031Y870050D01*
X280214Y870117D01*
X280414Y870166D01*
X280647Y870233D01*
X280881Y870283D01*
X281147Y870316D01*
X281447Y870350D01*
X281747Y870383D01*
X282347D01*
X282480Y870367D01*
D02*
G37*
G36*
X269983Y868984D02*
X270000Y869000D01*
X270033Y869050D01*
X270100Y869117D01*
X270200Y869200D01*
X270317Y869317D01*
X270450Y869433D01*
X270600Y869550D01*
X270783Y869683D01*
X270983Y869817D01*
X271200Y869933D01*
X271433Y870067D01*
X271683Y870166D01*
X271950Y870250D01*
X272216Y870316D01*
X272516Y870367D01*
X272816Y870383D01*
X272966D01*
X273116Y870367D01*
X273333Y870350D01*
X273566Y870300D01*
X273816Y870250D01*
X274082Y870166D01*
X274349Y870067D01*
X274382Y870050D01*
X274466Y870017D01*
X274582Y869933D01*
X274732Y869850D01*
X274899Y869733D01*
X275065Y869583D01*
X275232Y869433D01*
X275365Y869250D01*
X275382Y869233D01*
X275415Y869167D01*
X275482Y869067D01*
X275565Y868933D01*
X275632Y868767D01*
X275715Y868584D01*
X275782Y868384D01*
X275849Y868167D01*
Y868134D01*
X275865Y868050D01*
X275898Y867917D01*
X275915Y867717D01*
X275949Y867467D01*
X275965Y867134D01*
X275982Y866767D01*
Y866318D01*
Y860886D01*
X273533D01*
Y865784D01*
Y865801D01*
Y865851D01*
Y865918D01*
Y866018D01*
Y866134D01*
Y866267D01*
X273516Y866568D01*
X273499Y866867D01*
X273466Y867184D01*
X273449Y867317D01*
X273433Y867434D01*
X273416Y867551D01*
X273382Y867634D01*
Y867651D01*
X273349Y867701D01*
X273316Y867767D01*
X273266Y867867D01*
X273199Y867967D01*
X273116Y868067D01*
X273016Y868167D01*
X272883Y868267D01*
X272866Y868284D01*
X272816Y868300D01*
X272749Y868334D01*
X272649Y868384D01*
X272516Y868434D01*
X272366Y868467D01*
X272183Y868484D01*
X271999Y868500D01*
X271900D01*
X271783Y868484D01*
X271633Y868467D01*
X271466Y868434D01*
X271283Y868367D01*
X271083Y868300D01*
X270900Y868200D01*
X270883Y868184D01*
X270816Y868150D01*
X270733Y868067D01*
X270633Y867984D01*
X270517Y867850D01*
X270400Y867701D01*
X270300Y867517D01*
X270200Y867301D01*
X270183Y867267D01*
X270167Y867184D01*
X270133Y867051D01*
X270100Y866851D01*
X270050Y866601D01*
X270017Y866301D01*
X270000Y865951D01*
X269983Y865534D01*
Y860886D01*
X267534D01*
Y873699D01*
X269983D01*
Y868984D01*
D02*
G37*
G36*
X237175Y860886D02*
X234726D01*
Y870166D01*
X237175D01*
Y860886D01*
D02*
G37*
G36*
X210832Y873682D02*
X211315D01*
X211848Y873649D01*
X212348Y873616D01*
X212581Y873599D01*
X212798Y873566D01*
X212981Y873532D01*
X213131Y873499D01*
X213148D01*
X213181Y873482D01*
X213231Y873466D01*
X213315Y873432D01*
X213398Y873399D01*
X213514Y873366D01*
X213764Y873232D01*
X214048Y873066D01*
X214364Y872849D01*
X214664Y872583D01*
X214964Y872249D01*
X214981Y872233D01*
X214998Y872199D01*
X215031Y872149D01*
X215081Y872083D01*
X215131Y871983D01*
X215197Y871866D01*
X215264Y871733D01*
X215347Y871583D01*
X215414Y871400D01*
X215481Y871216D01*
X215547Y871016D01*
X215597Y870783D01*
X215681Y870300D01*
X215714Y870033D01*
Y869750D01*
Y869733D01*
Y869700D01*
Y869633D01*
Y869550D01*
X215697Y869450D01*
Y869333D01*
X215664Y869067D01*
X215614Y868750D01*
X215531Y868417D01*
X215431Y868084D01*
X215281Y867767D01*
Y867750D01*
X215264Y867734D01*
X215197Y867634D01*
X215114Y867484D01*
X214981Y867317D01*
X214814Y867101D01*
X214631Y866901D01*
X214414Y866684D01*
X214181Y866501D01*
X214148Y866484D01*
X214064Y866434D01*
X213948Y866351D01*
X213764Y866251D01*
X213564Y866151D01*
X213348Y866051D01*
X213098Y865968D01*
X212848Y865901D01*
X212798D01*
X212748Y865884D01*
X212681Y865868D01*
X212581Y865851D01*
X212465D01*
X212332Y865834D01*
X212165Y865818D01*
X211998Y865801D01*
X211798Y865784D01*
X211582Y865768D01*
X211332Y865751D01*
X211082Y865734D01*
X210798D01*
X210499Y865718D01*
X208499D01*
Y860886D01*
X205917D01*
Y873699D01*
X210615D01*
X210832Y873682D01*
D02*
G37*
G36*
X199568Y860886D02*
X196752D01*
X195619Y863801D01*
X190504D01*
X189437Y860886D01*
X186705D01*
X191687Y873699D01*
X194453D01*
X199568Y860886D01*
D02*
G37*
G36*
X167093Y873682D02*
X167576D01*
X168109Y873649D01*
X168609Y873616D01*
X168843Y873599D01*
X169059Y873566D01*
X169242Y873532D01*
X169393Y873499D01*
X169409D01*
X169443Y873482D01*
X169492Y873466D01*
X169576Y873432D01*
X169659Y873399D01*
X169776Y873366D01*
X170026Y873232D01*
X170309Y873066D01*
X170625Y872849D01*
X170925Y872583D01*
X171225Y872249D01*
X171242Y872233D01*
X171259Y872199D01*
X171292Y872149D01*
X171342Y872083D01*
X171392Y871983D01*
X171459Y871866D01*
X171525Y871733D01*
X171609Y871583D01*
X171675Y871400D01*
X171742Y871216D01*
X171808Y871016D01*
X171859Y870783D01*
X171942Y870300D01*
X171975Y870033D01*
Y869750D01*
Y869733D01*
Y869700D01*
Y869633D01*
Y869550D01*
X171959Y869450D01*
Y869333D01*
X171925Y869067D01*
X171875Y868750D01*
X171792Y868417D01*
X171692Y868084D01*
X171542Y867767D01*
Y867750D01*
X171525Y867734D01*
X171459Y867634D01*
X171375Y867484D01*
X171242Y867317D01*
X171075Y867101D01*
X170892Y866901D01*
X170676Y866684D01*
X170442Y866501D01*
X170409Y866484D01*
X170326Y866434D01*
X170209Y866351D01*
X170026Y866251D01*
X169826Y866151D01*
X169609Y866051D01*
X169359Y865968D01*
X169109Y865901D01*
X169059D01*
X169009Y865884D01*
X168943Y865868D01*
X168843Y865851D01*
X168726D01*
X168593Y865834D01*
X168426Y865818D01*
X168259Y865801D01*
X168060Y865784D01*
X167843Y865768D01*
X167593Y865751D01*
X167343Y865734D01*
X167060D01*
X166760Y865718D01*
X164760D01*
Y860886D01*
X162178D01*
Y873699D01*
X166877D01*
X167093Y873682D01*
D02*
G37*
G36*
X160028Y871533D02*
X153830D01*
Y868500D01*
X159178D01*
Y866334D01*
X153830D01*
Y860886D01*
X151247D01*
Y873699D01*
X160028D01*
Y871533D01*
D02*
G37*
G36*
X315672Y870367D02*
X315822D01*
X316005Y870333D01*
X316205Y870316D01*
X316438Y870266D01*
X316705Y870217D01*
X316971Y870133D01*
X317255Y870050D01*
X317538Y869933D01*
X317821Y869800D01*
X318121Y869650D01*
X318404Y869450D01*
X318671Y869250D01*
X318937Y869000D01*
X318954Y868984D01*
X319004Y868933D01*
X319071Y868867D01*
X319154Y868750D01*
X319254Y868617D01*
X319371Y868450D01*
X319487Y868267D01*
X319621Y868050D01*
X319737Y867817D01*
X319854Y867551D01*
X319971Y867267D01*
X320071Y866967D01*
X320171Y866651D01*
X320237Y866301D01*
X320271Y865934D01*
X320287Y865551D01*
Y865534D01*
Y865451D01*
X320271Y865351D01*
Y865201D01*
X320254Y865018D01*
X320220Y864801D01*
X320171Y864568D01*
X320121Y864318D01*
X320037Y864051D01*
X319954Y863768D01*
X319837Y863485D01*
X319704Y863185D01*
X319554Y862885D01*
X319371Y862602D01*
X319154Y862318D01*
X318921Y862052D01*
X318904Y862035D01*
X318854Y861985D01*
X318788Y861919D01*
X318671Y861835D01*
X318538Y861735D01*
X318388Y861619D01*
X318188Y861485D01*
X317988Y861369D01*
X317738Y861236D01*
X317488Y861102D01*
X317205Y860986D01*
X316905Y860886D01*
X316588Y860802D01*
X316238Y860736D01*
X315888Y860686D01*
X315505Y860669D01*
X315372D01*
X315288Y860686D01*
X315172D01*
X315039Y860702D01*
X314888Y860719D01*
X314722Y860736D01*
X314339Y860802D01*
X313939Y860902D01*
X313489Y861052D01*
X313056Y861236D01*
X313039D01*
X313006Y861269D01*
X312939Y861302D01*
X312872Y861352D01*
X312772Y861402D01*
X312656Y861485D01*
X312406Y861669D01*
X312123Y861902D01*
X311839Y862202D01*
X311556Y862535D01*
X311306Y862935D01*
Y862952D01*
X311273Y862985D01*
X311256Y863052D01*
X311206Y863135D01*
X311173Y863252D01*
X311123Y863368D01*
X311056Y863518D01*
X311006Y863701D01*
X310956Y863885D01*
X310890Y864085D01*
X310840Y864318D01*
X310806Y864551D01*
X310740Y865068D01*
X310706Y865651D01*
Y865668D01*
Y865701D01*
Y865768D01*
X310723Y865868D01*
Y865968D01*
X310740Y866101D01*
X310756Y866251D01*
X310790Y866401D01*
X310856Y866767D01*
X310956Y867167D01*
X311106Y867584D01*
X311306Y868017D01*
Y868034D01*
X311339Y868067D01*
X311373Y868134D01*
X311423Y868200D01*
X311473Y868300D01*
X311556Y868417D01*
X311739Y868667D01*
X311989Y868950D01*
X312273Y869233D01*
X312623Y869517D01*
X313006Y869767D01*
X313022D01*
X313056Y869800D01*
X313122Y869817D01*
X313206Y869867D01*
X313306Y869917D01*
X313439Y869967D01*
X313572Y870017D01*
X313739Y870083D01*
X314105Y870183D01*
X314522Y870283D01*
X314972Y870350D01*
X315472Y870383D01*
X315572D01*
X315672Y870367D01*
D02*
G37*
G36*
X254354D02*
X254504D01*
X254671Y870333D01*
X254871Y870316D01*
X255087Y870266D01*
X255337Y870217D01*
X255587Y870133D01*
X255854Y870050D01*
X256137Y869933D01*
X256404Y869800D01*
X256670Y869650D01*
X256937Y869450D01*
X257187Y869250D01*
X257420Y869000D01*
X257437Y868984D01*
X257470Y868933D01*
X257537Y868850D01*
X257603Y868750D01*
X257703Y868600D01*
X257803Y868417D01*
X257903Y868217D01*
X258020Y867967D01*
X258120Y867684D01*
X258236Y867384D01*
X258320Y867034D01*
X258420Y866667D01*
X258486Y866251D01*
X258536Y865801D01*
X258570Y865334D01*
Y864818D01*
X252421D01*
Y864801D01*
Y864768D01*
Y864718D01*
X252438Y864635D01*
X252454Y864435D01*
X252505Y864185D01*
X252571Y863918D01*
X252671Y863635D01*
X252821Y863352D01*
X253004Y863102D01*
X253038Y863068D01*
X253104Y863002D01*
X253221Y862918D01*
X253388Y862802D01*
X253604Y862685D01*
X253838Y862602D01*
X254121Y862535D01*
X254421Y862502D01*
X254521D01*
X254621Y862518D01*
X254754Y862535D01*
X254904Y862569D01*
X255054Y862635D01*
X255221Y862702D01*
X255371Y862802D01*
X255387Y862818D01*
X255437Y862868D01*
X255504Y862935D01*
X255604Y863052D01*
X255704Y863202D01*
X255804Y863368D01*
X255904Y863585D01*
X255987Y863835D01*
X258436Y863418D01*
Y863402D01*
X258420Y863352D01*
X258386Y863285D01*
X258353Y863202D01*
X258286Y863085D01*
X258236Y862952D01*
X258070Y862652D01*
X257853Y862318D01*
X257603Y861985D01*
X257287Y861652D01*
X256937Y861369D01*
X256920D01*
X256887Y861336D01*
X256837Y861302D01*
X256753Y861252D01*
X256653Y861202D01*
X256537Y861152D01*
X256404Y861086D01*
X256237Y861019D01*
X256054Y860952D01*
X255870Y860886D01*
X255437Y860786D01*
X254937Y860702D01*
X254387Y860669D01*
X254287D01*
X254154Y860686D01*
X253988Y860702D01*
X253787Y860719D01*
X253571Y860752D01*
X253304Y860802D01*
X253038Y860869D01*
X252754Y860952D01*
X252454Y861052D01*
X252155Y861186D01*
X251871Y861336D01*
X251571Y861519D01*
X251305Y861735D01*
X251055Y861969D01*
X250822Y862252D01*
X250805Y862269D01*
X250788Y862318D01*
X250738Y862385D01*
X250672Y862485D01*
X250605Y862602D01*
X250538Y862752D01*
X250455Y862935D01*
X250372Y863135D01*
X250272Y863352D01*
X250189Y863585D01*
X250122Y863851D01*
X250055Y864135D01*
X249988Y864435D01*
X249939Y864751D01*
X249922Y865101D01*
X249905Y865451D01*
Y865484D01*
Y865551D01*
X249922Y865668D01*
Y865834D01*
X249939Y866018D01*
X249972Y866251D01*
X250005Y866501D01*
X250055Y866767D01*
X250122Y867051D01*
X250205Y867351D01*
X250288Y867651D01*
X250405Y867950D01*
X250555Y868250D01*
X250705Y868534D01*
X250888Y868817D01*
X251105Y869067D01*
X251122Y869083D01*
X251155Y869117D01*
X251222Y869184D01*
X251322Y869267D01*
X251438Y869367D01*
X251588Y869483D01*
X251755Y869600D01*
X251938Y869733D01*
X252155Y869850D01*
X252371Y869967D01*
X252621Y870083D01*
X252904Y870183D01*
X253188Y870266D01*
X253488Y870333D01*
X253821Y870367D01*
X254154Y870383D01*
X254254D01*
X254354Y870367D01*
D02*
G37*
G36*
X221546D02*
X221696D01*
X221862Y870333D01*
X222062Y870316D01*
X222279Y870266D01*
X222529Y870217D01*
X222779Y870133D01*
X223045Y870050D01*
X223329Y869933D01*
X223595Y869800D01*
X223862Y869650D01*
X224128Y869450D01*
X224378Y869250D01*
X224612Y869000D01*
X224628Y868984D01*
X224662Y868933D01*
X224728Y868850D01*
X224795Y868750D01*
X224895Y868600D01*
X224995Y868417D01*
X225095Y868217D01*
X225212Y867967D01*
X225312Y867684D01*
X225428Y867384D01*
X225511Y867034D01*
X225611Y866667D01*
X225678Y866251D01*
X225728Y865801D01*
X225761Y865334D01*
Y864818D01*
X219613D01*
Y864801D01*
Y864768D01*
Y864718D01*
X219630Y864635D01*
X219646Y864435D01*
X219696Y864185D01*
X219763Y863918D01*
X219863Y863635D01*
X220013Y863352D01*
X220196Y863102D01*
X220229Y863068D01*
X220296Y863002D01*
X220413Y862918D01*
X220579Y862802D01*
X220796Y862685D01*
X221029Y862602D01*
X221313Y862535D01*
X221612Y862502D01*
X221712D01*
X221812Y862518D01*
X221946Y862535D01*
X222096Y862569D01*
X222246Y862635D01*
X222412Y862702D01*
X222562Y862802D01*
X222579Y862818D01*
X222629Y862868D01*
X222696Y862935D01*
X222796Y863052D01*
X222895Y863202D01*
X222995Y863368D01*
X223095Y863585D01*
X223179Y863835D01*
X225628Y863418D01*
Y863402D01*
X225611Y863352D01*
X225578Y863285D01*
X225545Y863202D01*
X225478Y863085D01*
X225428Y862952D01*
X225261Y862652D01*
X225045Y862318D01*
X224795Y861985D01*
X224478Y861652D01*
X224128Y861369D01*
X224112D01*
X224079Y861336D01*
X224028Y861302D01*
X223945Y861252D01*
X223845Y861202D01*
X223729Y861152D01*
X223595Y861086D01*
X223429Y861019D01*
X223245Y860952D01*
X223062Y860886D01*
X222629Y860786D01*
X222129Y860702D01*
X221579Y860669D01*
X221479D01*
X221346Y860686D01*
X221179Y860702D01*
X220979Y860719D01*
X220763Y860752D01*
X220496Y860802D01*
X220229Y860869D01*
X219946Y860952D01*
X219646Y861052D01*
X219346Y861186D01*
X219063Y861336D01*
X218763Y861519D01*
X218497Y861735D01*
X218247Y861969D01*
X218013Y862252D01*
X217997Y862269D01*
X217980Y862318D01*
X217930Y862385D01*
X217863Y862485D01*
X217797Y862602D01*
X217730Y862752D01*
X217647Y862935D01*
X217563Y863135D01*
X217463Y863352D01*
X217380Y863585D01*
X217313Y863851D01*
X217247Y864135D01*
X217180Y864435D01*
X217130Y864751D01*
X217114Y865101D01*
X217097Y865451D01*
Y865484D01*
Y865551D01*
X217114Y865668D01*
Y865834D01*
X217130Y866018D01*
X217164Y866251D01*
X217197Y866501D01*
X217247Y866767D01*
X217313Y867051D01*
X217397Y867351D01*
X217480Y867651D01*
X217597Y867950D01*
X217747Y868250D01*
X217897Y868534D01*
X218080Y868817D01*
X218297Y869067D01*
X218313Y869083D01*
X218347Y869117D01*
X218413Y869184D01*
X218513Y869267D01*
X218630Y869367D01*
X218780Y869483D01*
X218946Y869600D01*
X219130Y869733D01*
X219346Y869850D01*
X219563Y869967D01*
X219813Y870083D01*
X220096Y870183D01*
X220379Y870266D01*
X220679Y870333D01*
X221013Y870367D01*
X221346Y870383D01*
X221446D01*
X221546Y870367D01*
D02*
G37*
G36*
X449120Y863146D02*
Y862728D01*
Y862310D01*
Y861892D01*
Y861474D01*
Y861056D01*
Y860638D01*
Y860220D01*
X445777D01*
Y860638D01*
Y861056D01*
Y861474D01*
Y861892D01*
Y862310D01*
Y862728D01*
Y863146D01*
Y863564D01*
X449120D01*
Y863146D01*
D02*
G37*
G36*
X445777Y859802D02*
Y859385D01*
Y858967D01*
Y858549D01*
Y858131D01*
Y857713D01*
Y857295D01*
Y856877D01*
X442434D01*
Y857295D01*
Y857713D01*
Y858131D01*
Y858549D01*
Y858967D01*
Y859385D01*
Y859802D01*
Y860220D01*
X445777D01*
Y859802D01*
D02*
G37*
G36*
X429060Y856459D02*
Y856041D01*
Y855623D01*
Y855205D01*
Y854787D01*
Y854370D01*
Y853952D01*
Y853534D01*
X422374D01*
Y853952D01*
Y854370D01*
Y854787D01*
Y855205D01*
Y855623D01*
Y856041D01*
Y856459D01*
Y856877D01*
X429060D01*
Y856459D01*
D02*
G37*
G36*
X419030Y859802D02*
Y859385D01*
Y858967D01*
Y858549D01*
Y858131D01*
Y857713D01*
Y857295D01*
Y856877D01*
Y856459D01*
Y856041D01*
Y855623D01*
Y855205D01*
Y854787D01*
Y854370D01*
Y853952D01*
Y853534D01*
X415687D01*
Y853952D01*
Y854370D01*
Y854787D01*
Y855205D01*
Y855623D01*
Y856041D01*
Y856459D01*
Y856877D01*
Y857295D01*
Y857713D01*
Y858131D01*
Y858549D01*
Y858967D01*
Y859385D01*
Y859802D01*
Y860220D01*
X419030D01*
Y859802D01*
D02*
G37*
G36*
X395627Y879862D02*
Y879444D01*
Y879026D01*
Y878608D01*
Y878191D01*
Y877773D01*
Y877355D01*
Y876937D01*
X398971D01*
Y876519D01*
Y876101D01*
Y875683D01*
Y875265D01*
Y874847D01*
Y874429D01*
Y874011D01*
Y873594D01*
X402314D01*
Y873176D01*
Y872758D01*
Y872340D01*
Y871922D01*
Y871504D01*
Y871086D01*
Y870668D01*
Y870250D01*
Y869832D01*
Y869414D01*
Y868997D01*
Y868579D01*
Y868161D01*
Y867743D01*
Y867325D01*
Y866907D01*
Y866489D01*
Y866071D01*
Y865653D01*
Y865235D01*
Y864817D01*
Y864399D01*
Y863981D01*
Y863564D01*
X405657D01*
Y863981D01*
Y864399D01*
Y864817D01*
Y865235D01*
Y865653D01*
Y866071D01*
Y866489D01*
Y866907D01*
Y867325D01*
Y867743D01*
Y868161D01*
Y868579D01*
Y868997D01*
Y869414D01*
Y869832D01*
Y870250D01*
X409001D01*
Y869832D01*
Y869414D01*
Y868997D01*
Y868579D01*
Y868161D01*
Y867743D01*
Y867325D01*
Y866907D01*
Y866489D01*
Y866071D01*
Y865653D01*
Y865235D01*
Y864817D01*
Y864399D01*
Y863981D01*
Y863564D01*
Y863146D01*
Y862728D01*
Y862310D01*
Y861892D01*
Y861474D01*
Y861056D01*
Y860638D01*
Y860220D01*
X405657D01*
Y859802D01*
Y859385D01*
Y858967D01*
Y858549D01*
Y858131D01*
Y857713D01*
Y857295D01*
Y856877D01*
X412344D01*
Y856459D01*
Y856041D01*
Y855623D01*
Y855205D01*
Y854787D01*
Y854370D01*
Y853952D01*
Y853534D01*
X405657D01*
Y853952D01*
Y854370D01*
Y854787D01*
Y855205D01*
Y855623D01*
Y856041D01*
Y856459D01*
Y856877D01*
X395627D01*
Y857295D01*
Y857713D01*
Y858131D01*
Y858549D01*
Y858967D01*
Y859385D01*
Y859802D01*
Y860220D01*
X385597D01*
Y860638D01*
Y861056D01*
Y861474D01*
Y861892D01*
Y862310D01*
Y862728D01*
Y863146D01*
Y863564D01*
X392284D01*
Y863981D01*
Y864399D01*
Y864817D01*
Y865235D01*
Y865653D01*
Y866071D01*
Y866489D01*
Y866907D01*
Y867325D01*
Y867743D01*
Y868161D01*
Y868579D01*
Y868997D01*
Y869414D01*
Y869832D01*
Y870250D01*
Y870668D01*
Y871086D01*
Y871504D01*
Y871922D01*
Y872340D01*
Y872758D01*
Y873176D01*
Y873594D01*
Y874011D01*
Y874429D01*
Y874847D01*
Y875265D01*
Y875683D01*
Y876101D01*
Y876519D01*
Y876937D01*
Y877355D01*
Y877773D01*
Y878191D01*
Y878608D01*
Y879026D01*
Y879444D01*
Y879862D01*
Y880280D01*
X395627D01*
Y879862D01*
D02*
G37*
G36*
X223245Y852508D02*
X220796D01*
Y854774D01*
X223245D01*
Y852508D01*
D02*
G37*
G36*
X382254Y863146D02*
Y862728D01*
Y862310D01*
Y861892D01*
Y861474D01*
Y861056D01*
Y860638D01*
Y860220D01*
X385597D01*
Y859802D01*
Y859385D01*
Y858967D01*
Y858549D01*
Y858131D01*
Y857713D01*
Y857295D01*
Y856877D01*
X392284D01*
Y856459D01*
Y856041D01*
Y855623D01*
Y855205D01*
Y854787D01*
Y854370D01*
Y853952D01*
Y853534D01*
X395627D01*
Y853116D01*
Y852698D01*
Y852280D01*
Y851862D01*
Y851444D01*
Y851026D01*
Y850608D01*
Y850190D01*
X392284D01*
Y850608D01*
Y851026D01*
Y851444D01*
Y851862D01*
Y852280D01*
Y852698D01*
Y853116D01*
Y853534D01*
X385597D01*
Y853952D01*
Y854370D01*
Y854787D01*
Y855205D01*
Y855623D01*
Y856041D01*
Y856459D01*
Y856877D01*
X382254D01*
Y857295D01*
Y857713D01*
Y858131D01*
Y858549D01*
Y858967D01*
Y859385D01*
Y859802D01*
Y860220D01*
X378911D01*
Y860638D01*
Y861056D01*
Y861474D01*
Y861892D01*
Y862310D01*
Y862728D01*
Y863146D01*
Y863564D01*
X382254D01*
Y863146D01*
D02*
G37*
G36*
X218430Y851441D02*
X218630Y851408D01*
X218880Y851341D01*
X219163Y851258D01*
X219446Y851141D01*
X219746Y850991D01*
X218980Y848842D01*
X218946Y848859D01*
X218880Y848909D01*
X218763Y848975D01*
X218613Y849059D01*
X218430Y849125D01*
X218230Y849192D01*
X218030Y849242D01*
X217830Y849259D01*
X217747D01*
X217647Y849242D01*
X217514Y849225D01*
X217380Y849192D01*
X217230Y849125D01*
X217080Y849059D01*
X216930Y848959D01*
X216914Y848942D01*
X216880Y848909D01*
X216814Y848825D01*
X216730Y848725D01*
X216647Y848575D01*
X216547Y848409D01*
X216464Y848192D01*
X216380Y847926D01*
Y847892D01*
X216364Y847842D01*
X216347Y847776D01*
X216331Y847676D01*
X216314Y847576D01*
X216297Y847426D01*
X216280Y847259D01*
X216264Y847076D01*
X216247Y846842D01*
X216231Y846593D01*
X216214Y846309D01*
X216197Y845993D01*
Y845643D01*
X216180Y845260D01*
Y844826D01*
Y841960D01*
X213731D01*
Y851241D01*
X216014D01*
Y849925D01*
X216047Y849942D01*
X216064Y849992D01*
X216114Y850058D01*
X216231Y850225D01*
X216364Y850408D01*
X216530Y850625D01*
X216697Y850825D01*
X216880Y851008D01*
X217064Y851141D01*
X217080Y851158D01*
X217147Y851191D01*
X217247Y851241D01*
X217363Y851308D01*
X217530Y851358D01*
X217697Y851408D01*
X217897Y851441D01*
X218113Y851458D01*
X218263D01*
X218430Y851441D01*
D02*
G37*
G36*
X184355Y841960D02*
X181773D01*
Y847559D01*
X176691D01*
Y841960D01*
X174108D01*
Y854774D01*
X176691D01*
Y849725D01*
X181773D01*
Y854774D01*
X184355D01*
Y841960D01*
D02*
G37*
G36*
X230010Y851441D02*
X230144D01*
X230310Y851425D01*
X230494Y851391D01*
X230693Y851375D01*
X231127Y851275D01*
X231576Y851141D01*
X232010Y850975D01*
X232210Y850858D01*
X232410Y850725D01*
X232426D01*
X232460Y850692D01*
X232510Y850641D01*
X232576Y850592D01*
X232660Y850508D01*
X232743Y850408D01*
X232860Y850308D01*
X232959Y850175D01*
X233076Y850025D01*
X233209Y849858D01*
X233326Y849675D01*
X233443Y849475D01*
X233559Y849259D01*
X233676Y849025D01*
X233776Y848775D01*
X233859Y848509D01*
X231443Y848075D01*
Y848092D01*
Y848109D01*
X231410Y848192D01*
X231377Y848326D01*
X231327Y848475D01*
X231243Y848659D01*
X231143Y848842D01*
X231027Y849009D01*
X230877Y849159D01*
X230860Y849175D01*
X230793Y849209D01*
X230710Y849275D01*
X230577Y849342D01*
X230410Y849408D01*
X230227Y849475D01*
X230010Y849509D01*
X229760Y849525D01*
X229677D01*
X229610Y849509D01*
X229444Y849492D01*
X229227Y849442D01*
X228994Y849375D01*
X228744Y849259D01*
X228494Y849092D01*
X228277Y848875D01*
X228261Y848842D01*
X228194Y848759D01*
X228161Y848692D01*
X228111Y848592D01*
X228061Y848492D01*
X228011Y848375D01*
X227961Y848242D01*
X227911Y848075D01*
X227861Y847909D01*
X227827Y847709D01*
X227794Y847509D01*
X227761Y847276D01*
X227744Y847026D01*
Y846759D01*
Y846742D01*
Y846693D01*
Y846609D01*
X227761Y846493D01*
Y846359D01*
X227778Y846209D01*
X227811Y845843D01*
X227878Y845460D01*
X227978Y845076D01*
X228111Y844726D01*
X228194Y844560D01*
X228294Y844426D01*
X228327Y844393D01*
X228394Y844326D01*
X228511Y844210D01*
X228694Y844093D01*
X228894Y843960D01*
X229160Y843843D01*
X229444Y843777D01*
X229777Y843743D01*
X229894D01*
X230027Y843760D01*
X230177Y843793D01*
X230360Y843843D01*
X230560Y843910D01*
X230743Y843993D01*
X230927Y844127D01*
X230943Y844143D01*
X230993Y844210D01*
X231077Y844310D01*
X231177Y844443D01*
X231277Y844643D01*
X231377Y844876D01*
X231477Y845176D01*
X231560Y845509D01*
X233976Y845093D01*
Y845076D01*
X233959Y845026D01*
X233926Y844926D01*
X233893Y844826D01*
X233859Y844676D01*
X233793Y844526D01*
X233726Y844343D01*
X233659Y844160D01*
X233459Y843743D01*
X233209Y843327D01*
X232893Y842927D01*
X232726Y842744D01*
X232526Y842577D01*
X232510Y842560D01*
X232476Y842544D01*
X232410Y842494D01*
X232326Y842444D01*
X232226Y842377D01*
X232093Y842310D01*
X231943Y842244D01*
X231777Y842160D01*
X231576Y842077D01*
X231360Y842010D01*
X231127Y841944D01*
X230877Y841877D01*
X230610Y841827D01*
X230310Y841777D01*
X230010Y841760D01*
X229677Y841744D01*
X229594D01*
X229477Y841760D01*
X229344D01*
X229177Y841777D01*
X228977Y841811D01*
X228744Y841844D01*
X228511Y841910D01*
X228261Y841977D01*
X227994Y842060D01*
X227728Y842160D01*
X227444Y842294D01*
X227178Y842427D01*
X226911Y842610D01*
X226661Y842794D01*
X226428Y843027D01*
X226411Y843044D01*
X226378Y843093D01*
X226311Y843160D01*
X226245Y843260D01*
X226145Y843393D01*
X226045Y843560D01*
X225945Y843743D01*
X225828Y843960D01*
X225711Y844193D01*
X225611Y844460D01*
X225511Y844743D01*
X225411Y845060D01*
X225345Y845409D01*
X225278Y845776D01*
X225245Y846159D01*
X225228Y846576D01*
Y846609D01*
Y846676D01*
X225245Y846793D01*
Y846959D01*
X225261Y847159D01*
X225295Y847376D01*
X225328Y847626D01*
X225378Y847892D01*
X225445Y848176D01*
X225528Y848475D01*
X225611Y848775D01*
X225728Y849075D01*
X225878Y849375D01*
X226028Y849658D01*
X226211Y849925D01*
X226428Y850175D01*
X226444Y850192D01*
X226478Y850225D01*
X226561Y850292D01*
X226644Y850375D01*
X226778Y850475D01*
X226928Y850575D01*
X227094Y850692D01*
X227294Y850825D01*
X227528Y850941D01*
X227761Y851058D01*
X228044Y851158D01*
X228327Y851258D01*
X228644Y851341D01*
X228994Y851408D01*
X229344Y851441D01*
X229727Y851458D01*
X229894D01*
X230010Y851441D01*
D02*
G37*
G36*
X211282Y841960D02*
X208999D01*
Y843343D01*
X208982Y843310D01*
X208899Y843227D01*
X208799Y843077D01*
X208632Y842910D01*
X208449Y842727D01*
X208216Y842527D01*
X207966Y842344D01*
X207666Y842160D01*
X207649D01*
X207633Y842144D01*
X207583Y842127D01*
X207533Y842094D01*
X207366Y842027D01*
X207150Y841960D01*
X206883Y841877D01*
X206583Y841810D01*
X206266Y841760D01*
X205933Y841744D01*
X205783D01*
X205600Y841760D01*
X205367Y841794D01*
X205117Y841844D01*
X204833Y841910D01*
X204534Y842010D01*
X204250Y842144D01*
X204217Y842160D01*
X204134Y842227D01*
X204000Y842310D01*
X203850Y842444D01*
X203667Y842610D01*
X203484Y842810D01*
X203334Y843027D01*
X203184Y843293D01*
Y843310D01*
X203167Y843327D01*
X203151Y843377D01*
X203134Y843427D01*
X203084Y843593D01*
X203034Y843827D01*
X202967Y844127D01*
X202917Y844476D01*
X202884Y844893D01*
X202867Y845359D01*
Y851241D01*
X205317D01*
Y846976D01*
Y846959D01*
Y846892D01*
Y846793D01*
Y846659D01*
Y846509D01*
Y846326D01*
X205333Y845943D01*
X205350Y845526D01*
X205367Y845126D01*
X205383Y844943D01*
X205400Y844793D01*
X205433Y844660D01*
X205450Y844560D01*
Y844543D01*
X205483Y844493D01*
X205517Y844410D01*
X205567Y844310D01*
X205633Y844210D01*
X205716Y844093D01*
X205816Y843977D01*
X205933Y843877D01*
X205950Y843860D01*
X206000Y843843D01*
X206083Y843793D01*
X206183Y843760D01*
X206316Y843710D01*
X206466Y843660D01*
X206650Y843643D01*
X206833Y843627D01*
X206933D01*
X207066Y843643D01*
X207216Y843677D01*
X207383Y843710D01*
X207583Y843760D01*
X207766Y843843D01*
X207966Y843960D01*
X207983Y843977D01*
X208049Y844026D01*
X208133Y844093D01*
X208232Y844193D01*
X208349Y844326D01*
X208466Y844460D01*
X208566Y844626D01*
X208649Y844810D01*
X208666Y844843D01*
Y844876D01*
X208682Y844926D01*
X208699Y844993D01*
X208716Y845076D01*
X208732Y845193D01*
X208749Y845326D01*
X208766Y845476D01*
X208782Y845659D01*
Y845859D01*
X208799Y846093D01*
X208816Y846359D01*
X208832Y846643D01*
Y846976D01*
Y847326D01*
Y851241D01*
X211282D01*
Y841960D01*
D02*
G37*
G36*
X422374Y869832D02*
Y869414D01*
Y868997D01*
Y868579D01*
Y868161D01*
Y867743D01*
Y867325D01*
Y866907D01*
Y866489D01*
Y866071D01*
Y865653D01*
Y865235D01*
Y864817D01*
Y864399D01*
Y863981D01*
Y863564D01*
X439090D01*
Y863146D01*
Y862728D01*
Y862310D01*
Y861892D01*
Y861474D01*
Y861056D01*
Y860638D01*
Y860220D01*
Y859802D01*
Y859385D01*
Y858967D01*
Y858549D01*
Y858131D01*
Y857713D01*
Y857295D01*
Y856877D01*
X442434D01*
Y856459D01*
Y856041D01*
Y855623D01*
Y855205D01*
Y854787D01*
Y854370D01*
Y853952D01*
Y853534D01*
X445777D01*
Y853116D01*
Y852698D01*
Y852280D01*
Y851862D01*
Y851444D01*
Y851026D01*
Y850608D01*
Y850190D01*
X449120D01*
Y849772D01*
Y849355D01*
Y848937D01*
Y848519D01*
Y848101D01*
Y847683D01*
Y847265D01*
Y846847D01*
X445777D01*
Y846429D01*
Y846011D01*
Y845593D01*
Y845175D01*
Y844758D01*
Y844340D01*
Y843922D01*
Y843504D01*
X442434D01*
Y843922D01*
Y844340D01*
Y844758D01*
Y845175D01*
Y845593D01*
Y846011D01*
Y846429D01*
Y846847D01*
X435747D01*
Y847265D01*
Y847683D01*
Y848101D01*
Y848519D01*
Y848937D01*
Y849355D01*
Y849772D01*
Y850190D01*
X439090D01*
Y850608D01*
Y851026D01*
Y851444D01*
Y851862D01*
Y852280D01*
Y852698D01*
Y853116D01*
Y853534D01*
X432404D01*
Y853952D01*
Y854370D01*
Y854787D01*
Y855205D01*
Y855623D01*
Y856041D01*
Y856459D01*
Y856877D01*
Y857295D01*
Y857713D01*
Y858131D01*
Y858549D01*
Y858967D01*
Y859385D01*
Y859802D01*
Y860220D01*
X419030D01*
Y860638D01*
Y861056D01*
Y861474D01*
Y861892D01*
Y862310D01*
Y862728D01*
Y863146D01*
Y863564D01*
Y863981D01*
Y864399D01*
Y864817D01*
Y865235D01*
Y865653D01*
Y866071D01*
Y866489D01*
Y866907D01*
Y867325D01*
Y867743D01*
Y868161D01*
Y868579D01*
Y868997D01*
Y869414D01*
Y869832D01*
Y870250D01*
X422374D01*
Y869832D01*
D02*
G37*
G36*
X238158Y850058D02*
X238175Y850075D01*
X238208Y850125D01*
X238275Y850192D01*
X238375Y850275D01*
X238491Y850392D01*
X238625Y850508D01*
X238775Y850625D01*
X238958Y850758D01*
X239158Y850891D01*
X239375Y851008D01*
X239608Y851141D01*
X239858Y851241D01*
X240124Y851325D01*
X240391Y851391D01*
X240691Y851441D01*
X240991Y851458D01*
X241141D01*
X241291Y851441D01*
X241507Y851425D01*
X241741Y851375D01*
X241991Y851325D01*
X242257Y851241D01*
X242524Y851141D01*
X242557Y851125D01*
X242640Y851091D01*
X242757Y851008D01*
X242907Y850925D01*
X243074Y850808D01*
X243240Y850658D01*
X243407Y850508D01*
X243540Y850325D01*
X243557Y850308D01*
X243590Y850242D01*
X243657Y850142D01*
X243740Y850008D01*
X243807Y849842D01*
X243890Y849658D01*
X243957Y849458D01*
X244023Y849242D01*
Y849209D01*
X244040Y849125D01*
X244073Y848992D01*
X244090Y848792D01*
X244123Y848542D01*
X244140Y848209D01*
X244157Y847842D01*
Y847392D01*
Y841960D01*
X241707D01*
Y846859D01*
Y846876D01*
Y846926D01*
Y846992D01*
Y847092D01*
Y847209D01*
Y847342D01*
X241691Y847642D01*
X241674Y847942D01*
X241641Y848259D01*
X241624Y848392D01*
X241607Y848509D01*
X241591Y848625D01*
X241557Y848709D01*
Y848725D01*
X241524Y848775D01*
X241491Y848842D01*
X241441Y848942D01*
X241374Y849042D01*
X241291Y849142D01*
X241191Y849242D01*
X241057Y849342D01*
X241041Y849359D01*
X240991Y849375D01*
X240924Y849408D01*
X240824Y849458D01*
X240691Y849509D01*
X240541Y849542D01*
X240358Y849558D01*
X240174Y849575D01*
X240074D01*
X239958Y849558D01*
X239808Y849542D01*
X239641Y849509D01*
X239458Y849442D01*
X239258Y849375D01*
X239075Y849275D01*
X239058Y849259D01*
X238991Y849225D01*
X238908Y849142D01*
X238808Y849059D01*
X238691Y848925D01*
X238575Y848775D01*
X238475Y848592D01*
X238375Y848375D01*
X238358Y848342D01*
X238342Y848259D01*
X238308Y848126D01*
X238275Y847926D01*
X238225Y847676D01*
X238192Y847376D01*
X238175Y847026D01*
X238158Y846609D01*
Y841960D01*
X235709D01*
Y854774D01*
X238158D01*
Y850058D01*
D02*
G37*
G36*
X223245Y841960D02*
X220796D01*
Y851241D01*
X223245D01*
Y841960D01*
D02*
G37*
G36*
X201018Y852758D02*
X193986Y844127D01*
X201284D01*
Y841960D01*
X190870D01*
Y844293D01*
X197619Y852608D01*
X191653D01*
Y854774D01*
X201018D01*
Y852758D01*
D02*
G37*
G36*
X172425Y852608D02*
X168643D01*
Y841960D01*
X166060D01*
Y852608D01*
X162261D01*
Y854774D01*
X172425D01*
Y852608D01*
D02*
G37*
G36*
X160728D02*
X153830D01*
Y849775D01*
X160245D01*
Y847609D01*
X153830D01*
Y844127D01*
X160978D01*
Y841960D01*
X151247D01*
Y854774D01*
X160728D01*
Y852608D01*
D02*
G37*
G36*
X388941Y843086D02*
Y842668D01*
Y842250D01*
Y841832D01*
Y841414D01*
Y840996D01*
Y840578D01*
Y840161D01*
X385597D01*
Y840578D01*
Y840996D01*
Y841414D01*
Y841832D01*
Y842250D01*
Y842668D01*
Y843086D01*
Y843504D01*
X388941D01*
Y843086D01*
D02*
G37*
G36*
X238058Y826301D02*
X235476D01*
Y831900D01*
X230394D01*
Y826301D01*
X227811D01*
Y839115D01*
X230394D01*
Y834066D01*
X235476D01*
Y839115D01*
X238058D01*
Y826301D01*
D02*
G37*
G36*
X185022Y831666D02*
Y826301D01*
X182439D01*
Y831683D01*
X177757Y839115D01*
X180790D01*
X183789Y834032D01*
X186721Y839115D01*
X189704D01*
X185022Y831666D01*
D02*
G37*
G36*
X382254Y836399D02*
Y835981D01*
Y835564D01*
Y835146D01*
Y834728D01*
Y834310D01*
Y833892D01*
Y833474D01*
X378911D01*
Y833892D01*
Y834310D01*
Y834728D01*
Y835146D01*
Y835564D01*
Y835981D01*
Y836399D01*
Y836817D01*
X382254D01*
Y836399D01*
D02*
G37*
G36*
X375568D02*
Y835981D01*
Y835564D01*
Y835146D01*
Y834728D01*
Y834310D01*
Y833892D01*
Y833474D01*
X365538D01*
Y833892D01*
Y834310D01*
Y834728D01*
Y835146D01*
Y835564D01*
Y835981D01*
Y836399D01*
Y836817D01*
X375568D01*
Y836399D01*
D02*
G37*
G36*
X163561Y826301D02*
X161161D01*
X161145Y836382D01*
X158612Y826301D01*
X156112D01*
X153596Y836382D01*
Y826301D01*
X151197D01*
Y839115D01*
X155063D01*
X157379Y830367D01*
X159678Y839115D01*
X163561D01*
Y826301D01*
D02*
G37*
G36*
X335916Y826301D02*
X333467D01*
Y835549D01*
X333451Y835532D01*
X333400Y835499D01*
X333334Y835432D01*
X333234Y835349D01*
X333101Y835249D01*
X332951Y835116D01*
X332767Y834999D01*
X332567Y834849D01*
X332351Y834699D01*
X332101Y834549D01*
X331834Y834399D01*
X331568Y834249D01*
X330951Y833949D01*
X330301Y833699D01*
Y835932D01*
X330318D01*
X330351Y835949D01*
X330401Y835965D01*
X330468Y835999D01*
X330551Y836032D01*
X330668Y836082D01*
X330918Y836199D01*
X331218Y836348D01*
X331568Y836565D01*
X331951Y836815D01*
X332367Y837115D01*
X332384Y837132D01*
X332417Y837148D01*
X332467Y837198D01*
X332551Y837265D01*
X332651Y837348D01*
X332751Y837465D01*
X332984Y837698D01*
X333251Y838015D01*
X333501Y838365D01*
X333734Y838748D01*
X333834Y838964D01*
X333917Y839181D01*
X335916D01*
Y826301D01*
D02*
G37*
G36*
X324236Y839165D02*
X324386Y839148D01*
X324586Y839131D01*
X324786Y839098D01*
X325003Y839048D01*
X325486Y838931D01*
X325736Y838848D01*
X325986Y838748D01*
X326219Y838631D01*
X326469Y838481D01*
X326685Y838331D01*
X326902Y838148D01*
X326919Y838131D01*
X326952Y838098D01*
X327002Y838048D01*
X327069Y837965D01*
X327152Y837865D01*
X327252Y837748D01*
X327335Y837615D01*
X327452Y837448D01*
X327552Y837265D01*
X327635Y837082D01*
X327819Y836648D01*
X327885Y836398D01*
X327935Y836149D01*
X327968Y835882D01*
X327985Y835599D01*
Y835582D01*
Y835565D01*
Y835515D01*
Y835449D01*
X327968Y835282D01*
X327952Y835066D01*
X327902Y834816D01*
X327852Y834532D01*
X327769Y834249D01*
X327669Y833949D01*
Y833932D01*
X327652Y833916D01*
X327602Y833816D01*
X327535Y833649D01*
X327435Y833449D01*
X327285Y833199D01*
X327119Y832933D01*
X326919Y832633D01*
X326685Y832316D01*
X326669Y832283D01*
X326602Y832216D01*
X326486Y832083D01*
X326319Y831900D01*
X326086Y831666D01*
X325819Y831383D01*
X325469Y831050D01*
X325286Y830867D01*
X325069Y830667D01*
X325053Y830650D01*
X325019Y830617D01*
X324969Y830567D01*
X324886Y830500D01*
X324686Y830317D01*
X324453Y830083D01*
X324203Y829850D01*
X323970Y829617D01*
X323753Y829417D01*
X323670Y829317D01*
X323603Y829250D01*
X323586Y829234D01*
X323553Y829184D01*
X323486Y829117D01*
X323420Y829034D01*
X323253Y828817D01*
X323103Y828584D01*
X327985D01*
Y826301D01*
X319387D01*
Y826318D01*
Y826351D01*
X319404Y826434D01*
X319421Y826518D01*
X319437Y826634D01*
X319471Y826768D01*
X319504Y826918D01*
X319537Y827084D01*
X319654Y827467D01*
X319804Y827884D01*
X319987Y828317D01*
X320220Y828751D01*
X320237Y828767D01*
X320254Y828801D01*
X320304Y828867D01*
X320370Y828967D01*
X320454Y829084D01*
X320554Y829217D01*
X320670Y829384D01*
X320820Y829567D01*
X321004Y829783D01*
X321204Y830017D01*
X321420Y830267D01*
X321670Y830550D01*
X321953Y830833D01*
X322270Y831150D01*
X322603Y831483D01*
X322970Y831833D01*
X322986Y831850D01*
X323036Y831900D01*
X323120Y831983D01*
X323236Y832083D01*
X323370Y832216D01*
X323520Y832349D01*
X323853Y832683D01*
X324203Y833033D01*
X324536Y833366D01*
X324686Y833533D01*
X324803Y833682D01*
X324919Y833816D01*
X325003Y833932D01*
Y833949D01*
X325019Y833966D01*
X325086Y834066D01*
X325169Y834216D01*
X325269Y834399D01*
X325353Y834632D01*
X325436Y834882D01*
X325503Y835149D01*
X325519Y835432D01*
Y835449D01*
Y835465D01*
Y835565D01*
X325503Y835715D01*
X325469Y835899D01*
X325402Y836099D01*
X325336Y836315D01*
X325219Y836515D01*
X325069Y836698D01*
X325053Y836715D01*
X324986Y836765D01*
X324886Y836848D01*
X324753Y836932D01*
X324586Y836998D01*
X324370Y837082D01*
X324136Y837132D01*
X323853Y837148D01*
X323720D01*
X323586Y837132D01*
X323420Y837098D01*
X323220Y837032D01*
X323020Y836948D01*
X322820Y836832D01*
X322637Y836682D01*
X322620Y836665D01*
X322570Y836599D01*
X322487Y836482D01*
X322403Y836315D01*
X322320Y836099D01*
X322237Y835832D01*
X322170Y835515D01*
X322120Y835149D01*
X319671Y835382D01*
Y835399D01*
X319687Y835465D01*
X319704Y835582D01*
X319721Y835715D01*
X319754Y835882D01*
X319804Y836065D01*
X319854Y836282D01*
X319921Y836515D01*
X320104Y836982D01*
X320204Y837232D01*
X320337Y837465D01*
X320487Y837698D01*
X320654Y837915D01*
X320837Y838115D01*
X321037Y838298D01*
X321054Y838315D01*
X321087Y838331D01*
X321154Y838381D01*
X321237Y838431D01*
X321354Y838498D01*
X321487Y838581D01*
X321654Y838665D01*
X321837Y838748D01*
X322020Y838815D01*
X322253Y838898D01*
X322487Y838981D01*
X322737Y839048D01*
X323003Y839098D01*
X323303Y839148D01*
X323603Y839165D01*
X323920Y839181D01*
X324103D01*
X324236Y839165D01*
D02*
G37*
G36*
X304341D02*
X304491Y839148D01*
X304691Y839131D01*
X304891Y839098D01*
X305108Y839048D01*
X305591Y838931D01*
X305841Y838848D01*
X306091Y838748D01*
X306324Y838631D01*
X306574Y838481D01*
X306791Y838331D01*
X307007Y838148D01*
X307024Y838131D01*
X307057Y838098D01*
X307107Y838048D01*
X307174Y837965D01*
X307257Y837865D01*
X307357Y837748D01*
X307440Y837615D01*
X307557Y837448D01*
X307657Y837265D01*
X307740Y837082D01*
X307924Y836648D01*
X307990Y836398D01*
X308040Y836149D01*
X308074Y835882D01*
X308090Y835599D01*
Y835582D01*
Y835565D01*
Y835515D01*
Y835449D01*
X308074Y835282D01*
X308057Y835066D01*
X308007Y834816D01*
X307957Y834532D01*
X307874Y834249D01*
X307774Y833949D01*
Y833932D01*
X307757Y833916D01*
X307707Y833816D01*
X307640Y833649D01*
X307540Y833449D01*
X307390Y833199D01*
X307224Y832933D01*
X307024Y832633D01*
X306791Y832316D01*
X306774Y832283D01*
X306707Y832216D01*
X306591Y832083D01*
X306424Y831900D01*
X306191Y831666D01*
X305924Y831383D01*
X305574Y831050D01*
X305391Y830867D01*
X305174Y830667D01*
X305158Y830650D01*
X305124Y830617D01*
X305074Y830567D01*
X304991Y830500D01*
X304791Y830317D01*
X304558Y830083D01*
X304308Y829850D01*
X304075Y829617D01*
X303858Y829417D01*
X303775Y829317D01*
X303708Y829250D01*
X303691Y829234D01*
X303658Y829184D01*
X303591Y829117D01*
X303525Y829034D01*
X303358Y828817D01*
X303208Y828584D01*
X308090D01*
Y826301D01*
X299492D01*
Y826318D01*
Y826351D01*
X299509Y826434D01*
X299526Y826518D01*
X299543Y826634D01*
X299576Y826768D01*
X299609Y826918D01*
X299643Y827084D01*
X299759Y827467D01*
X299909Y827884D01*
X300092Y828317D01*
X300326Y828751D01*
X300342Y828767D01*
X300359Y828801D01*
X300409Y828867D01*
X300476Y828967D01*
X300559Y829084D01*
X300659Y829217D01*
X300776Y829384D01*
X300926Y829567D01*
X301109Y829783D01*
X301309Y830017D01*
X301525Y830267D01*
X301775Y830550D01*
X302059Y830833D01*
X302375Y831150D01*
X302708Y831483D01*
X303075Y831833D01*
X303092Y831850D01*
X303142Y831900D01*
X303225Y831983D01*
X303342Y832083D01*
X303475Y832216D01*
X303625Y832349D01*
X303958Y832683D01*
X304308Y833033D01*
X304641Y833366D01*
X304791Y833533D01*
X304908Y833682D01*
X305024Y833816D01*
X305108Y833932D01*
Y833949D01*
X305124Y833966D01*
X305191Y834066D01*
X305274Y834216D01*
X305374Y834399D01*
X305458Y834632D01*
X305541Y834882D01*
X305608Y835149D01*
X305624Y835432D01*
Y835449D01*
Y835465D01*
Y835565D01*
X305608Y835715D01*
X305574Y835899D01*
X305508Y836099D01*
X305441Y836315D01*
X305324Y836515D01*
X305174Y836698D01*
X305158Y836715D01*
X305091Y836765D01*
X304991Y836848D01*
X304858Y836932D01*
X304691Y836998D01*
X304475Y837082D01*
X304241Y837132D01*
X303958Y837148D01*
X303825D01*
X303691Y837132D01*
X303525Y837098D01*
X303325Y837032D01*
X303125Y836948D01*
X302925Y836832D01*
X302742Y836682D01*
X302725Y836665D01*
X302675Y836599D01*
X302592Y836482D01*
X302508Y836315D01*
X302425Y836099D01*
X302342Y835832D01*
X302275Y835515D01*
X302225Y835149D01*
X299776Y835382D01*
Y835399D01*
X299792Y835465D01*
X299809Y835582D01*
X299826Y835715D01*
X299859Y835882D01*
X299909Y836065D01*
X299959Y836282D01*
X300026Y836515D01*
X300209Y836982D01*
X300309Y837232D01*
X300442Y837465D01*
X300592Y837698D01*
X300759Y837915D01*
X300942Y838115D01*
X301142Y838298D01*
X301159Y838315D01*
X301192Y838331D01*
X301259Y838381D01*
X301342Y838431D01*
X301459Y838498D01*
X301592Y838581D01*
X301759Y838665D01*
X301942Y838748D01*
X302125Y838815D01*
X302358Y838898D01*
X302592Y838981D01*
X302842Y839048D01*
X303108Y839098D01*
X303408Y839148D01*
X303708Y839165D01*
X304025Y839181D01*
X304208D01*
X304341Y839165D01*
D02*
G37*
G36*
X297810Y826301D02*
X295360D01*
Y828751D01*
X297810D01*
Y826301D01*
D02*
G37*
G36*
X289428Y839165D02*
X289578Y839148D01*
X289778Y839131D01*
X289978Y839098D01*
X290195Y839048D01*
X290678Y838931D01*
X290928Y838848D01*
X291178Y838748D01*
X291411Y838631D01*
X291661Y838481D01*
X291878Y838331D01*
X292094Y838148D01*
X292111Y838131D01*
X292144Y838098D01*
X292194Y838048D01*
X292261Y837965D01*
X292344Y837865D01*
X292444Y837748D01*
X292528Y837615D01*
X292644Y837448D01*
X292744Y837265D01*
X292827Y837082D01*
X293011Y836648D01*
X293078Y836398D01*
X293127Y836149D01*
X293161Y835882D01*
X293177Y835599D01*
Y835582D01*
Y835565D01*
Y835515D01*
Y835449D01*
X293161Y835282D01*
X293144Y835066D01*
X293094Y834816D01*
X293044Y834532D01*
X292961Y834249D01*
X292861Y833949D01*
Y833932D01*
X292844Y833916D01*
X292794Y833816D01*
X292728Y833649D01*
X292628Y833449D01*
X292478Y833199D01*
X292311Y832933D01*
X292111Y832633D01*
X291878Y832316D01*
X291861Y832283D01*
X291794Y832216D01*
X291678Y832083D01*
X291511Y831900D01*
X291278Y831666D01*
X291011Y831383D01*
X290661Y831050D01*
X290478Y830867D01*
X290261Y830667D01*
X290245Y830650D01*
X290212Y830617D01*
X290161Y830567D01*
X290078Y830500D01*
X289878Y830317D01*
X289645Y830083D01*
X289395Y829850D01*
X289162Y829617D01*
X288945Y829417D01*
X288862Y829317D01*
X288795Y829250D01*
X288779Y829234D01*
X288745Y829184D01*
X288679Y829117D01*
X288612Y829034D01*
X288445Y828817D01*
X288295Y828584D01*
X293177D01*
Y826301D01*
X284580D01*
Y826318D01*
Y826351D01*
X284596Y826434D01*
X284613Y826518D01*
X284630Y826634D01*
X284663Y826768D01*
X284696Y826918D01*
X284730Y827084D01*
X284846Y827467D01*
X284996Y827884D01*
X285180Y828317D01*
X285413Y828751D01*
X285429Y828767D01*
X285446Y828801D01*
X285496Y828867D01*
X285563Y828967D01*
X285646Y829084D01*
X285746Y829217D01*
X285863Y829384D01*
X286013Y829567D01*
X286196Y829783D01*
X286396Y830017D01*
X286612Y830267D01*
X286862Y830550D01*
X287146Y830833D01*
X287462Y831150D01*
X287796Y831483D01*
X288162Y831833D01*
X288179Y831850D01*
X288229Y831900D01*
X288312Y831983D01*
X288429Y832083D01*
X288562Y832216D01*
X288712Y832349D01*
X289045Y832683D01*
X289395Y833033D01*
X289728Y833366D01*
X289878Y833533D01*
X289995Y833682D01*
X290112Y833816D01*
X290195Y833932D01*
Y833949D01*
X290212Y833966D01*
X290278Y834066D01*
X290361Y834216D01*
X290462Y834399D01*
X290545Y834632D01*
X290628Y834882D01*
X290695Y835149D01*
X290711Y835432D01*
Y835449D01*
Y835465D01*
Y835565D01*
X290695Y835715D01*
X290661Y835899D01*
X290595Y836099D01*
X290528Y836315D01*
X290411Y836515D01*
X290261Y836698D01*
X290245Y836715D01*
X290178Y836765D01*
X290078Y836848D01*
X289945Y836932D01*
X289778Y836998D01*
X289562Y837082D01*
X289328Y837132D01*
X289045Y837148D01*
X288912D01*
X288779Y837132D01*
X288612Y837098D01*
X288412Y837032D01*
X288212Y836948D01*
X288012Y836832D01*
X287829Y836682D01*
X287812Y836665D01*
X287762Y836599D01*
X287679Y836482D01*
X287596Y836315D01*
X287512Y836099D01*
X287429Y835832D01*
X287362Y835515D01*
X287312Y835149D01*
X284863Y835382D01*
Y835399D01*
X284880Y835465D01*
X284896Y835582D01*
X284913Y835715D01*
X284946Y835882D01*
X284996Y836065D01*
X285046Y836282D01*
X285113Y836515D01*
X285296Y836982D01*
X285396Y837232D01*
X285529Y837465D01*
X285679Y837698D01*
X285846Y837915D01*
X286029Y838115D01*
X286229Y838298D01*
X286246Y838315D01*
X286279Y838331D01*
X286346Y838381D01*
X286429Y838431D01*
X286546Y838498D01*
X286679Y838581D01*
X286846Y838665D01*
X287029Y838748D01*
X287212Y838815D01*
X287446Y838898D01*
X287679Y838981D01*
X287929Y839048D01*
X288195Y839098D01*
X288495Y839148D01*
X288795Y839165D01*
X289112Y839181D01*
X289295D01*
X289428Y839165D01*
D02*
G37*
G36*
X220796Y839098D02*
X221279D01*
X221812Y839064D01*
X222312Y839031D01*
X222546Y839015D01*
X222762Y838981D01*
X222945Y838948D01*
X223095Y838914D01*
X223112D01*
X223145Y838898D01*
X223195Y838881D01*
X223279Y838848D01*
X223362Y838815D01*
X223479Y838781D01*
X223729Y838648D01*
X224012Y838481D01*
X224328Y838265D01*
X224628Y837998D01*
X224928Y837665D01*
X224945Y837648D01*
X224962Y837615D01*
X224995Y837565D01*
X225045Y837498D01*
X225095Y837398D01*
X225161Y837282D01*
X225228Y837148D01*
X225312Y836998D01*
X225378Y836815D01*
X225445Y836632D01*
X225511Y836432D01*
X225561Y836199D01*
X225645Y835715D01*
X225678Y835449D01*
Y835165D01*
Y835149D01*
Y835116D01*
Y835049D01*
Y834966D01*
X225661Y834866D01*
Y834749D01*
X225628Y834482D01*
X225578Y834166D01*
X225495Y833832D01*
X225395Y833499D01*
X225245Y833183D01*
Y833166D01*
X225228Y833149D01*
X225161Y833049D01*
X225078Y832899D01*
X224945Y832733D01*
X224778Y832516D01*
X224595Y832316D01*
X224378Y832100D01*
X224145Y831916D01*
X224112Y831900D01*
X224028Y831850D01*
X223912Y831766D01*
X223729Y831666D01*
X223529Y831566D01*
X223312Y831466D01*
X223062Y831383D01*
X222812Y831317D01*
X222762D01*
X222712Y831300D01*
X222645Y831283D01*
X222546Y831266D01*
X222429D01*
X222296Y831250D01*
X222129Y831233D01*
X221962Y831217D01*
X221762Y831200D01*
X221546Y831183D01*
X221296Y831167D01*
X221046Y831150D01*
X220763D01*
X220463Y831133D01*
X218463D01*
Y826301D01*
X215881D01*
Y839115D01*
X220579D01*
X220796Y839098D01*
D02*
G37*
G36*
X208882Y839098D02*
X209082D01*
X209299Y839081D01*
X209532Y839064D01*
X210015Y839031D01*
X210515Y838964D01*
X210749Y838931D01*
X210982Y838881D01*
X211182Y838831D01*
X211365Y838764D01*
X211382D01*
X211415Y838748D01*
X211448Y838731D01*
X211515Y838698D01*
X211698Y838615D01*
X211898Y838481D01*
X212148Y838315D01*
X212398Y838098D01*
X212631Y837831D01*
X212865Y837532D01*
Y837515D01*
X212881Y837498D01*
X212915Y837448D01*
X212948Y837382D01*
X212998Y837298D01*
X213048Y837198D01*
X213148Y836948D01*
X213248Y836648D01*
X213348Y836315D01*
X213414Y835932D01*
X213431Y835515D01*
Y835499D01*
Y835449D01*
Y835382D01*
X213414Y835282D01*
X213398Y835149D01*
X213381Y835015D01*
X213365Y834849D01*
X213331Y834682D01*
X213231Y834299D01*
X213081Y833899D01*
X212981Y833699D01*
X212865Y833499D01*
X212731Y833316D01*
X212581Y833133D01*
X212565Y833116D01*
X212548Y833099D01*
X212498Y833049D01*
X212415Y832983D01*
X212332Y832916D01*
X212232Y832833D01*
X212098Y832733D01*
X211948Y832633D01*
X211782Y832533D01*
X211582Y832433D01*
X211382Y832333D01*
X211148Y832233D01*
X210898Y832150D01*
X210632Y832066D01*
X210349Y832000D01*
X210032Y831950D01*
X210049D01*
X210065Y831933D01*
X210182Y831866D01*
X210332Y831766D01*
X210532Y831633D01*
X210749Y831466D01*
X210982Y831283D01*
X211198Y831083D01*
X211415Y830867D01*
X211448Y830833D01*
X211515Y830750D01*
X211632Y830600D01*
X211715Y830500D01*
X211815Y830383D01*
X211915Y830250D01*
X212015Y830100D01*
X212148Y829933D01*
X212281Y829750D01*
X212415Y829550D01*
X212565Y829317D01*
X212731Y829067D01*
X212898Y828801D01*
X214464Y826301D01*
X211365Y826301D01*
X209499Y829084D01*
X209482Y829100D01*
X209449Y829150D01*
X209399Y829217D01*
X209332Y829317D01*
X209249Y829450D01*
X209166Y829584D01*
X208949Y829883D01*
X208732Y830200D01*
X208499Y830517D01*
X208399Y830650D01*
X208299Y830783D01*
X208216Y830883D01*
X208133Y830966D01*
X208116Y830983D01*
X208066Y831033D01*
X207999Y831100D01*
X207899Y831183D01*
X207783Y831266D01*
X207649Y831350D01*
X207499Y831433D01*
X207349Y831500D01*
X207333D01*
X207266Y831516D01*
X207183Y831550D01*
X207033Y831583D01*
X206849Y831600D01*
X206633Y831633D01*
X206366Y831650D01*
X205533D01*
Y826301D01*
X202950D01*
Y839115D01*
X208716D01*
X208882Y839098D01*
D02*
G37*
G36*
X200501Y836948D02*
X193603D01*
Y834116D01*
X200018D01*
Y831950D01*
X193603D01*
Y828467D01*
X200751D01*
Y826301D01*
X191020D01*
Y839115D01*
X200501D01*
Y836948D01*
D02*
G37*
G36*
X177707Y826301D02*
X174891D01*
X173758Y829217D01*
X168643D01*
X167576Y826301D01*
X164844D01*
X169826Y839115D01*
X172592D01*
X177707Y826301D01*
D02*
G37*
G36*
X314205Y839165D02*
X314355Y839148D01*
X314539Y839115D01*
X314739Y839064D01*
X314955Y839015D01*
X315189Y838948D01*
X315422Y838865D01*
X315672Y838748D01*
X315905Y838615D01*
X316138Y838465D01*
X316371Y838281D01*
X316605Y838081D01*
X316805Y837848D01*
X316821Y837831D01*
X316855Y837782D01*
X316921Y837682D01*
X317005Y837548D01*
X317088Y837365D01*
X317205Y837148D01*
X317321Y836898D01*
X317438Y836599D01*
X317554Y836265D01*
X317654Y835882D01*
X317771Y835449D01*
X317854Y834966D01*
X317938Y834449D01*
X318004Y833883D01*
X318038Y833283D01*
X318054Y832616D01*
Y832599D01*
Y832583D01*
Y832533D01*
Y832449D01*
Y832366D01*
Y832266D01*
X318038Y832016D01*
X318021Y831716D01*
X317988Y831383D01*
X317954Y831000D01*
X317904Y830600D01*
X317838Y830167D01*
X317738Y829734D01*
X317638Y829300D01*
X317521Y828867D01*
X317371Y828450D01*
X317205Y828051D01*
X317005Y827684D01*
X316788Y827367D01*
X316771Y827351D01*
X316738Y827318D01*
X316688Y827251D01*
X316605Y827168D01*
X316488Y827068D01*
X316371Y826951D01*
X316205Y826834D01*
X316038Y826718D01*
X315838Y826601D01*
X315622Y826484D01*
X315388Y826368D01*
X315122Y826268D01*
X314855Y826184D01*
X314555Y826118D01*
X314222Y826085D01*
X313889Y826068D01*
X313806D01*
X313706Y826085D01*
X313572D01*
X313422Y826118D01*
X313239Y826151D01*
X313039Y826184D01*
X312806Y826251D01*
X312572Y826318D01*
X312339Y826418D01*
X312089Y826534D01*
X311823Y826668D01*
X311573Y826834D01*
X311339Y827034D01*
X311089Y827251D01*
X310873Y827501D01*
X310856Y827517D01*
X310823Y827567D01*
X310773Y827651D01*
X310690Y827784D01*
X310606Y827951D01*
X310523Y828151D01*
X310406Y828401D01*
X310306Y828684D01*
X310206Y829017D01*
X310106Y829384D01*
X310007Y829800D01*
X309923Y830267D01*
X309840Y830783D01*
X309790Y831350D01*
X309757Y831966D01*
X309740Y832633D01*
Y832650D01*
Y832683D01*
Y832716D01*
Y832799D01*
Y832883D01*
X309757Y832983D01*
Y833233D01*
X309773Y833533D01*
X309806Y833866D01*
X309840Y834249D01*
X309890Y834649D01*
X309956Y835066D01*
X310040Y835499D01*
X310140Y835949D01*
X310273Y836365D01*
X310406Y836782D01*
X310573Y837182D01*
X310773Y837548D01*
X310989Y837865D01*
X311006Y837881D01*
X311040Y837915D01*
X311089Y837981D01*
X311173Y838065D01*
X311290Y838165D01*
X311423Y838281D01*
X311573Y838398D01*
X311739Y838531D01*
X311939Y838648D01*
X312156Y838765D01*
X312389Y838881D01*
X312656Y838981D01*
X312922Y839064D01*
X313222Y839131D01*
X313556Y839165D01*
X313889Y839181D01*
X314072D01*
X314205Y839165D01*
D02*
G37*
G36*
X279398D02*
X279548Y839148D01*
X279731Y839115D01*
X279931Y839064D01*
X280147Y839015D01*
X280381Y838948D01*
X280614Y838865D01*
X280864Y838748D01*
X281097Y838615D01*
X281331Y838465D01*
X281564Y838281D01*
X281797Y838081D01*
X281997Y837848D01*
X282014Y837831D01*
X282047Y837782D01*
X282114Y837682D01*
X282197Y837548D01*
X282280Y837365D01*
X282397Y837148D01*
X282514Y836898D01*
X282630Y836599D01*
X282747Y836265D01*
X282847Y835882D01*
X282963Y835449D01*
X283047Y834966D01*
X283130Y834449D01*
X283197Y833883D01*
X283230Y833283D01*
X283247Y832616D01*
Y832599D01*
Y832583D01*
Y832533D01*
Y832449D01*
Y832366D01*
Y832266D01*
X283230Y832016D01*
X283213Y831716D01*
X283180Y831383D01*
X283147Y831000D01*
X283097Y830600D01*
X283030Y830167D01*
X282930Y829734D01*
X282830Y829300D01*
X282714Y828867D01*
X282563Y828450D01*
X282397Y828051D01*
X282197Y827684D01*
X281980Y827367D01*
X281964Y827351D01*
X281930Y827318D01*
X281880Y827251D01*
X281797Y827168D01*
X281680Y827068D01*
X281564Y826951D01*
X281397Y826834D01*
X281231Y826718D01*
X281031Y826601D01*
X280814Y826484D01*
X280581Y826368D01*
X280314Y826268D01*
X280047Y826184D01*
X279748Y826118D01*
X279414Y826085D01*
X279081Y826068D01*
X278998D01*
X278898Y826085D01*
X278764D01*
X278615Y826118D01*
X278431Y826151D01*
X278231Y826184D01*
X277998Y826251D01*
X277765Y826318D01*
X277531Y826418D01*
X277281Y826534D01*
X277015Y826668D01*
X276765Y826834D01*
X276532Y827034D01*
X276282Y827251D01*
X276065Y827501D01*
X276049Y827517D01*
X276015Y827567D01*
X275965Y827651D01*
X275882Y827784D01*
X275799Y827951D01*
X275715Y828151D01*
X275599Y828401D01*
X275499Y828684D01*
X275399Y829017D01*
X275299Y829384D01*
X275199Y829800D01*
X275115Y830267D01*
X275032Y830783D01*
X274982Y831350D01*
X274949Y831966D01*
X274932Y832633D01*
Y832650D01*
Y832683D01*
Y832716D01*
Y832799D01*
Y832883D01*
X274949Y832983D01*
Y833233D01*
X274965Y833533D01*
X274999Y833866D01*
X275032Y834249D01*
X275082Y834649D01*
X275149Y835066D01*
X275232Y835499D01*
X275332Y835949D01*
X275465Y836365D01*
X275599Y836782D01*
X275765Y837182D01*
X275965Y837548D01*
X276182Y837865D01*
X276199Y837881D01*
X276232Y837915D01*
X276282Y837981D01*
X276365Y838065D01*
X276482Y838165D01*
X276615Y838281D01*
X276765Y838398D01*
X276932Y838531D01*
X277132Y838648D01*
X277348Y838765D01*
X277581Y838881D01*
X277848Y838981D01*
X278115Y839064D01*
X278415Y839131D01*
X278748Y839165D01*
X279081Y839181D01*
X279264D01*
X279398Y839165D01*
D02*
G37*
G36*
X368881Y863146D02*
Y862728D01*
Y862310D01*
Y861892D01*
Y861474D01*
Y861056D01*
Y860638D01*
Y860220D01*
X378911D01*
Y859802D01*
Y859385D01*
Y858967D01*
Y858549D01*
Y858131D01*
Y857713D01*
Y857295D01*
Y856877D01*
X372224D01*
Y856459D01*
Y856041D01*
Y855623D01*
Y855205D01*
Y854787D01*
Y854370D01*
Y853952D01*
Y853534D01*
Y853116D01*
Y852698D01*
Y852280D01*
Y851862D01*
Y851444D01*
Y851026D01*
Y850608D01*
Y850190D01*
X375568D01*
Y850608D01*
Y851026D01*
Y851444D01*
Y851862D01*
Y852280D01*
Y852698D01*
Y853116D01*
Y853534D01*
X382254D01*
Y853116D01*
Y852698D01*
Y852280D01*
Y851862D01*
Y851444D01*
Y851026D01*
Y850608D01*
Y850190D01*
X388941D01*
Y849772D01*
Y849355D01*
Y848937D01*
Y848519D01*
Y848101D01*
Y847683D01*
Y847265D01*
Y846847D01*
X398971D01*
Y846429D01*
Y846011D01*
Y845593D01*
Y845175D01*
Y844758D01*
Y844340D01*
Y843922D01*
Y843504D01*
Y843086D01*
Y842668D01*
Y842250D01*
Y841832D01*
Y841414D01*
Y840996D01*
Y840578D01*
Y840161D01*
X402314D01*
Y840578D01*
Y840996D01*
Y841414D01*
Y841832D01*
Y842250D01*
Y842668D01*
Y843086D01*
Y843504D01*
X405657D01*
Y843922D01*
Y844340D01*
Y844758D01*
Y845175D01*
Y845593D01*
Y846011D01*
Y846429D01*
Y846847D01*
X398971D01*
Y847265D01*
Y847683D01*
Y848101D01*
Y848519D01*
Y848937D01*
Y849355D01*
Y849772D01*
Y850190D01*
Y850608D01*
Y851026D01*
Y851444D01*
Y851862D01*
Y852280D01*
Y852698D01*
Y853116D01*
Y853534D01*
X405657D01*
Y853116D01*
Y852698D01*
Y852280D01*
Y851862D01*
Y851444D01*
Y851026D01*
Y850608D01*
Y850190D01*
Y849772D01*
Y849355D01*
Y848937D01*
Y848519D01*
Y848101D01*
Y847683D01*
Y847265D01*
Y846847D01*
X409001D01*
Y847265D01*
Y847683D01*
Y848101D01*
Y848519D01*
Y848937D01*
Y849355D01*
Y849772D01*
Y850190D01*
X412344D01*
Y849772D01*
Y849355D01*
Y848937D01*
Y848519D01*
Y848101D01*
Y847683D01*
Y847265D01*
Y846847D01*
Y846429D01*
Y846011D01*
Y845593D01*
Y845175D01*
Y844758D01*
Y844340D01*
Y843922D01*
Y843504D01*
X415687D01*
Y843922D01*
Y844340D01*
Y844758D01*
Y845175D01*
Y845593D01*
Y846011D01*
Y846429D01*
Y846847D01*
Y847265D01*
Y847683D01*
Y848101D01*
Y848519D01*
Y848937D01*
Y849355D01*
Y849772D01*
Y850190D01*
X419030D01*
Y849772D01*
Y849355D01*
Y848937D01*
Y848519D01*
Y848101D01*
Y847683D01*
Y847265D01*
Y846847D01*
Y846429D01*
Y846011D01*
Y845593D01*
Y845175D01*
Y844758D01*
Y844340D01*
Y843922D01*
Y843504D01*
Y843086D01*
Y842668D01*
Y842250D01*
Y841832D01*
Y841414D01*
Y840996D01*
Y840578D01*
Y840161D01*
X425717D01*
Y839743D01*
Y839325D01*
Y838907D01*
Y838489D01*
Y838071D01*
Y837653D01*
Y837235D01*
Y836817D01*
X429060D01*
Y837235D01*
Y837653D01*
Y838071D01*
Y838489D01*
Y838907D01*
Y839325D01*
Y839743D01*
Y840161D01*
Y840578D01*
Y840996D01*
Y841414D01*
Y841832D01*
Y842250D01*
Y842668D01*
Y843086D01*
Y843504D01*
X432404D01*
Y843922D01*
Y844340D01*
Y844758D01*
Y845175D01*
Y845593D01*
Y846011D01*
Y846429D01*
Y846847D01*
X425717D01*
Y846429D01*
Y846011D01*
Y845593D01*
Y845175D01*
Y844758D01*
Y844340D01*
Y843922D01*
Y843504D01*
X422374D01*
Y843922D01*
Y844340D01*
Y844758D01*
Y845175D01*
Y845593D01*
Y846011D01*
Y846429D01*
Y846847D01*
Y847265D01*
Y847683D01*
Y848101D01*
Y848519D01*
Y848937D01*
Y849355D01*
Y849772D01*
Y850190D01*
X432404D01*
Y849772D01*
Y849355D01*
Y848937D01*
Y848519D01*
Y848101D01*
Y847683D01*
Y847265D01*
Y846847D01*
X435747D01*
Y846429D01*
Y846011D01*
Y845593D01*
Y845175D01*
Y844758D01*
Y844340D01*
Y843922D01*
Y843504D01*
X442434D01*
Y843086D01*
Y842668D01*
Y842250D01*
Y841832D01*
Y841414D01*
Y840996D01*
Y840578D01*
Y840161D01*
X445777D01*
Y839743D01*
Y839325D01*
Y838907D01*
Y838489D01*
Y838071D01*
Y837653D01*
Y837235D01*
Y836817D01*
X442434D01*
Y836399D01*
Y835981D01*
Y835564D01*
Y835146D01*
Y834728D01*
Y834310D01*
Y833892D01*
Y833474D01*
X435747D01*
Y833056D01*
Y832638D01*
Y832220D01*
Y831802D01*
Y831384D01*
Y830966D01*
Y830548D01*
Y830131D01*
Y829713D01*
Y829295D01*
Y828877D01*
Y828459D01*
Y828041D01*
Y827623D01*
Y827205D01*
Y826787D01*
X449120D01*
Y826369D01*
Y825952D01*
Y825534D01*
Y825116D01*
Y824698D01*
Y824280D01*
Y823862D01*
Y823444D01*
Y823026D01*
Y822608D01*
Y822190D01*
Y821772D01*
Y821354D01*
Y820937D01*
Y820519D01*
Y820101D01*
Y819683D01*
Y819265D01*
Y818847D01*
Y818429D01*
Y818011D01*
Y817593D01*
Y817175D01*
Y816757D01*
X445777D01*
Y816339D01*
Y815922D01*
Y815504D01*
Y815086D01*
Y814668D01*
Y814250D01*
Y813832D01*
Y813414D01*
Y812996D01*
Y812578D01*
Y812160D01*
Y811742D01*
Y811324D01*
Y810907D01*
Y810489D01*
Y810071D01*
X449120D01*
Y809653D01*
Y809235D01*
Y808817D01*
Y808399D01*
Y807981D01*
Y807563D01*
Y807145D01*
Y806728D01*
X439090D01*
Y807145D01*
Y807563D01*
Y807981D01*
Y808399D01*
Y808817D01*
Y809235D01*
Y809653D01*
Y810071D01*
X425717D01*
Y810489D01*
Y810907D01*
Y811324D01*
Y811742D01*
Y812160D01*
Y812578D01*
Y812996D01*
Y813414D01*
X422374D01*
Y813832D01*
Y814250D01*
Y814668D01*
Y815086D01*
Y815504D01*
Y815922D01*
Y816339D01*
Y816757D01*
X425717D01*
Y817175D01*
Y817593D01*
Y818011D01*
Y818429D01*
Y818847D01*
Y819265D01*
Y819683D01*
Y820101D01*
X419030D01*
Y820519D01*
Y820937D01*
Y821354D01*
Y821772D01*
Y822190D01*
Y822608D01*
Y823026D01*
Y823444D01*
Y823862D01*
Y824280D01*
Y824698D01*
Y825116D01*
Y825534D01*
Y825952D01*
Y826369D01*
Y826787D01*
Y827205D01*
Y827623D01*
Y828041D01*
Y828459D01*
Y828877D01*
Y829295D01*
Y829713D01*
Y830131D01*
X415687D01*
Y830548D01*
Y830966D01*
Y831384D01*
Y831802D01*
Y832220D01*
Y832638D01*
Y833056D01*
Y833474D01*
Y833892D01*
Y834310D01*
Y834728D01*
Y835146D01*
Y835564D01*
Y835981D01*
Y836399D01*
Y836817D01*
Y837235D01*
Y837653D01*
Y838071D01*
Y838489D01*
Y838907D01*
Y839325D01*
Y839743D01*
Y840161D01*
X412344D01*
Y840578D01*
Y840996D01*
Y841414D01*
Y841832D01*
Y842250D01*
Y842668D01*
Y843086D01*
Y843504D01*
X409001D01*
Y843086D01*
Y842668D01*
Y842250D01*
Y841832D01*
Y841414D01*
Y840996D01*
Y840578D01*
Y840161D01*
X405657D01*
Y839743D01*
Y839325D01*
Y838907D01*
Y838489D01*
Y838071D01*
Y837653D01*
Y837235D01*
Y836817D01*
X409001D01*
Y836399D01*
Y835981D01*
Y835564D01*
Y835146D01*
Y834728D01*
Y834310D01*
Y833892D01*
Y833474D01*
X412344D01*
Y833056D01*
Y832638D01*
Y832220D01*
Y831802D01*
Y831384D01*
Y830966D01*
Y830548D01*
Y830131D01*
Y829713D01*
Y829295D01*
Y828877D01*
Y828459D01*
Y828041D01*
Y827623D01*
Y827205D01*
Y826787D01*
X415687D01*
Y826369D01*
Y825952D01*
Y825534D01*
Y825116D01*
Y824698D01*
Y824280D01*
Y823862D01*
Y823444D01*
Y823026D01*
Y822608D01*
Y822190D01*
Y821772D01*
Y821354D01*
Y820937D01*
Y820519D01*
Y820101D01*
Y819683D01*
Y819265D01*
Y818847D01*
Y818429D01*
Y818011D01*
Y817593D01*
Y817175D01*
Y816757D01*
Y816339D01*
Y815922D01*
Y815504D01*
Y815086D01*
Y814668D01*
Y814250D01*
Y813832D01*
Y813414D01*
X419030D01*
Y812996D01*
Y812578D01*
Y812160D01*
Y811742D01*
Y811324D01*
Y810907D01*
Y810489D01*
Y810071D01*
Y809653D01*
Y809235D01*
Y808817D01*
Y808399D01*
Y807981D01*
Y807563D01*
Y807145D01*
Y806728D01*
X415687D01*
Y807145D01*
Y807563D01*
Y807981D01*
Y808399D01*
Y808817D01*
Y809235D01*
Y809653D01*
Y810071D01*
Y810489D01*
Y810907D01*
Y811324D01*
Y811742D01*
Y812160D01*
Y812578D01*
Y812996D01*
Y813414D01*
X412344D01*
Y812996D01*
Y812578D01*
Y812160D01*
Y811742D01*
Y811324D01*
Y810907D01*
Y810489D01*
Y810071D01*
Y809653D01*
Y809235D01*
Y808817D01*
Y808399D01*
Y807981D01*
Y807563D01*
Y807145D01*
Y806728D01*
X405657D01*
Y807145D01*
Y807563D01*
Y807981D01*
Y808399D01*
Y808817D01*
Y809235D01*
Y809653D01*
Y810071D01*
X398971D01*
Y809653D01*
Y809235D01*
Y808817D01*
Y808399D01*
Y807981D01*
Y807563D01*
Y807145D01*
Y806728D01*
X392284D01*
Y807145D01*
Y807563D01*
Y807981D01*
Y808399D01*
Y808817D01*
Y809235D01*
Y809653D01*
Y810071D01*
X395627D01*
Y810489D01*
Y810907D01*
Y811324D01*
Y811742D01*
Y812160D01*
Y812578D01*
Y812996D01*
Y813414D01*
X402314D01*
Y813832D01*
Y814250D01*
Y814668D01*
Y815086D01*
Y815504D01*
Y815922D01*
Y816339D01*
Y816757D01*
X395627D01*
Y817175D01*
Y817593D01*
Y818011D01*
Y818429D01*
Y818847D01*
Y819265D01*
Y819683D01*
Y820101D01*
X392284D01*
Y820519D01*
Y820937D01*
Y821354D01*
Y821772D01*
Y822190D01*
Y822608D01*
Y823026D01*
Y823444D01*
X398971D01*
Y823026D01*
Y822608D01*
Y822190D01*
Y821772D01*
Y821354D01*
Y820937D01*
Y820519D01*
Y820101D01*
X402314D01*
Y819683D01*
Y819265D01*
Y818847D01*
Y818429D01*
Y818011D01*
Y817593D01*
Y817175D01*
Y816757D01*
X405657D01*
Y817175D01*
Y817593D01*
Y818011D01*
Y818429D01*
Y818847D01*
Y819265D01*
Y819683D01*
Y820101D01*
X402314D01*
Y820519D01*
Y820937D01*
Y821354D01*
Y821772D01*
Y822190D01*
Y822608D01*
Y823026D01*
Y823444D01*
X405657D01*
Y823026D01*
Y822608D01*
Y822190D01*
Y821772D01*
Y821354D01*
Y820937D01*
Y820519D01*
Y820101D01*
X409001D01*
Y819683D01*
Y819265D01*
Y818847D01*
Y818429D01*
Y818011D01*
Y817593D01*
Y817175D01*
Y816757D01*
X412344D01*
Y817175D01*
Y817593D01*
Y818011D01*
Y818429D01*
Y818847D01*
Y819265D01*
Y819683D01*
Y820101D01*
X409001D01*
Y820519D01*
Y820937D01*
Y821354D01*
Y821772D01*
Y822190D01*
Y822608D01*
Y823026D01*
Y823444D01*
X405657D01*
Y823862D01*
Y824280D01*
Y824698D01*
Y825116D01*
Y825534D01*
Y825952D01*
Y826369D01*
Y826787D01*
X409001D01*
Y826369D01*
Y825952D01*
Y825534D01*
Y825116D01*
Y824698D01*
Y824280D01*
Y823862D01*
Y823444D01*
X412344D01*
Y823862D01*
Y824280D01*
Y824698D01*
Y825116D01*
Y825534D01*
Y825952D01*
Y826369D01*
Y826787D01*
X409001D01*
Y827205D01*
Y827623D01*
Y828041D01*
Y828459D01*
Y828877D01*
Y829295D01*
Y829713D01*
Y830131D01*
Y830548D01*
Y830966D01*
Y831384D01*
Y831802D01*
Y832220D01*
Y832638D01*
Y833056D01*
Y833474D01*
X405657D01*
Y833892D01*
Y834310D01*
Y834728D01*
Y835146D01*
Y835564D01*
Y835981D01*
Y836399D01*
Y836817D01*
X402314D01*
Y836399D01*
Y835981D01*
Y835564D01*
Y835146D01*
Y834728D01*
Y834310D01*
Y833892D01*
Y833474D01*
Y833056D01*
Y832638D01*
Y832220D01*
Y831802D01*
Y831384D01*
Y830966D01*
Y830548D01*
Y830131D01*
X395627D01*
Y829713D01*
Y829295D01*
Y828877D01*
Y828459D01*
Y828041D01*
Y827623D01*
Y827205D01*
Y826787D01*
X392284D01*
Y827205D01*
Y827623D01*
Y828041D01*
Y828459D01*
Y828877D01*
Y829295D01*
Y829713D01*
Y830131D01*
Y830548D01*
Y830966D01*
Y831384D01*
Y831802D01*
Y832220D01*
Y832638D01*
Y833056D01*
Y833474D01*
X385597D01*
Y833892D01*
Y834310D01*
Y834728D01*
Y835146D01*
Y835564D01*
Y835981D01*
Y836399D01*
Y836817D01*
X382254D01*
Y837235D01*
Y837653D01*
Y838071D01*
Y838489D01*
Y838907D01*
Y839325D01*
Y839743D01*
Y840161D01*
X378911D01*
Y840578D01*
Y840996D01*
Y841414D01*
Y841832D01*
Y842250D01*
Y842668D01*
Y843086D01*
Y843504D01*
X382254D01*
Y843086D01*
Y842668D01*
Y842250D01*
Y841832D01*
Y841414D01*
Y840996D01*
Y840578D01*
Y840161D01*
X385597D01*
Y839743D01*
Y839325D01*
Y838907D01*
Y838489D01*
Y838071D01*
Y837653D01*
Y837235D01*
Y836817D01*
X392284D01*
Y836399D01*
Y835981D01*
Y835564D01*
Y835146D01*
Y834728D01*
Y834310D01*
Y833892D01*
Y833474D01*
X398971D01*
Y833892D01*
Y834310D01*
Y834728D01*
Y835146D01*
Y835564D01*
Y835981D01*
Y836399D01*
Y836817D01*
Y837235D01*
Y837653D01*
Y838071D01*
Y838489D01*
Y838907D01*
Y839325D01*
Y839743D01*
Y840161D01*
X392284D01*
Y840578D01*
Y840996D01*
Y841414D01*
Y841832D01*
Y842250D01*
Y842668D01*
Y843086D01*
Y843504D01*
X388941D01*
Y843922D01*
Y844340D01*
Y844758D01*
Y845175D01*
Y845593D01*
Y846011D01*
Y846429D01*
Y846847D01*
X372224D01*
Y846429D01*
Y846011D01*
Y845593D01*
Y845175D01*
Y844758D01*
Y844340D01*
Y843922D01*
Y843504D01*
X375568D01*
Y843086D01*
Y842668D01*
Y842250D01*
Y841832D01*
Y841414D01*
Y840996D01*
Y840578D01*
Y840161D01*
X372224D01*
Y840578D01*
Y840996D01*
Y841414D01*
Y841832D01*
Y842250D01*
Y842668D01*
Y843086D01*
Y843504D01*
X365538D01*
Y843922D01*
Y844340D01*
Y844758D01*
Y845175D01*
Y845593D01*
Y846011D01*
Y846429D01*
Y846847D01*
Y847265D01*
Y847683D01*
Y848101D01*
Y848519D01*
Y848937D01*
Y849355D01*
Y849772D01*
Y850190D01*
X368881D01*
Y850608D01*
Y851026D01*
Y851444D01*
Y851862D01*
Y852280D01*
Y852698D01*
Y853116D01*
Y853534D01*
X365538D01*
Y853952D01*
Y854370D01*
Y854787D01*
Y855205D01*
Y855623D01*
Y856041D01*
Y856459D01*
Y856877D01*
Y857295D01*
Y857713D01*
Y858131D01*
Y858549D01*
Y858967D01*
Y859385D01*
Y859802D01*
Y860220D01*
Y860638D01*
Y861056D01*
Y861474D01*
Y861892D01*
Y862310D01*
Y862728D01*
Y863146D01*
Y863564D01*
X368881D01*
Y863146D01*
D02*
G37*
G36*
X388941Y829713D02*
Y829295D01*
Y828877D01*
Y828459D01*
Y828041D01*
Y827623D01*
Y827205D01*
Y826787D01*
Y826369D01*
Y825952D01*
Y825534D01*
Y825116D01*
Y824698D01*
Y824280D01*
Y823862D01*
Y823444D01*
Y823026D01*
Y822608D01*
Y822190D01*
Y821772D01*
Y821354D01*
Y820937D01*
Y820519D01*
Y820101D01*
Y819683D01*
Y819265D01*
Y818847D01*
Y818429D01*
Y818011D01*
Y817593D01*
Y817175D01*
Y816757D01*
Y816339D01*
Y815922D01*
Y815504D01*
Y815086D01*
Y814668D01*
Y814250D01*
Y813832D01*
Y813414D01*
Y812996D01*
Y812578D01*
Y812160D01*
Y811742D01*
Y811324D01*
Y810907D01*
Y810489D01*
Y810071D01*
Y809653D01*
Y809235D01*
Y808817D01*
Y808399D01*
Y807981D01*
Y807563D01*
Y807145D01*
Y806728D01*
X365538D01*
Y807145D01*
Y807563D01*
Y807981D01*
Y808399D01*
Y808817D01*
Y809235D01*
Y809653D01*
Y810071D01*
Y810489D01*
Y810907D01*
Y811324D01*
Y811742D01*
Y812160D01*
Y812578D01*
Y812996D01*
Y813414D01*
Y813832D01*
Y814250D01*
Y814668D01*
Y815086D01*
Y815504D01*
Y815922D01*
Y816339D01*
Y816757D01*
Y817175D01*
Y817593D01*
Y818011D01*
Y818429D01*
Y818847D01*
Y819265D01*
Y819683D01*
Y820101D01*
Y820519D01*
Y820937D01*
Y821354D01*
Y821772D01*
Y822190D01*
Y822608D01*
Y823026D01*
Y823444D01*
Y823862D01*
Y824280D01*
Y824698D01*
Y825116D01*
Y825534D01*
Y825952D01*
Y826369D01*
Y826787D01*
Y827205D01*
Y827623D01*
Y828041D01*
Y828459D01*
Y828877D01*
Y829295D01*
Y829713D01*
Y830131D01*
X388941D01*
Y829713D01*
D02*
G37*
G36*
X827240Y673467D02*
X807240D01*
Y693467D01*
X827240D01*
Y673467D01*
D02*
G37*
G36*
X827240Y574016D02*
X807240D01*
Y594016D01*
X827240D01*
Y574016D01*
D02*
G37*
G36*
X415505Y551691D02*
X390505D01*
Y573691D01*
X415505D01*
Y551691D01*
D02*
G37*
G36*
X827203Y476024D02*
X807203D01*
Y496024D01*
X827203D01*
Y476024D01*
D02*
G37*
G36*
X827724Y374207D02*
X807724D01*
Y394207D01*
X827724D01*
Y374207D01*
D02*
G37*
G36*
X827537Y274656D02*
X807537D01*
Y294656D01*
X827537D01*
Y274656D01*
D02*
G37*
G36*
X415533Y251835D02*
X390533D01*
Y273835D01*
X415533D01*
Y251835D01*
D02*
G37*
%LPC*%
G36*
X336333Y868500D02*
X336083D01*
X336017Y868484D01*
X335850Y868467D01*
X335650Y868417D01*
X335417Y868334D01*
X335183Y868200D01*
X334933Y868034D01*
X334700Y867801D01*
X334683Y867767D01*
X334617Y867667D01*
X334517Y867501D01*
X334417Y867284D01*
X334300Y866984D01*
X334217Y866634D01*
X334150Y866201D01*
X334117Y865718D01*
Y865701D01*
Y865651D01*
Y865568D01*
Y865468D01*
X334134Y865351D01*
Y865201D01*
X334167Y864885D01*
X334217Y864535D01*
X334284Y864168D01*
X334384Y863835D01*
X334450Y863685D01*
X334517Y863552D01*
Y863535D01*
X334550Y863518D01*
X334584Y863468D01*
X334633Y863402D01*
X334767Y863252D01*
X334950Y863085D01*
X335183Y862902D01*
X335467Y862752D01*
X335633Y862685D01*
X335800Y862635D01*
X335983Y862618D01*
X336183Y862602D01*
X336266D01*
X336333Y862618D01*
X336483Y862635D01*
X336683Y862685D01*
X336916Y862785D01*
X337150Y862902D01*
X337399Y863085D01*
X337516Y863185D01*
X337633Y863318D01*
Y863335D01*
X337666Y863352D01*
X337683Y863402D01*
X337733Y863452D01*
X337766Y863535D01*
X337816Y863618D01*
X337883Y863735D01*
X337933Y863851D01*
X337983Y864001D01*
X338049Y864168D01*
X338099Y864335D01*
X338133Y864535D01*
X338183Y864751D01*
X338199Y864968D01*
X338233Y865218D01*
Y865484D01*
Y865501D01*
Y865551D01*
Y865634D01*
X338216Y865751D01*
Y865884D01*
X338199Y866034D01*
X338166Y866367D01*
X338083Y866751D01*
X337983Y867134D01*
X337849Y867484D01*
X337749Y867651D01*
X337649Y867784D01*
Y867801D01*
X337616Y867817D01*
X337549Y867900D01*
X337416Y868017D01*
X337249Y868150D01*
X337033Y868267D01*
X336783Y868384D01*
X336483Y868467D01*
X336333Y868500D01*
D02*
G37*
G36*
X244273Y868450D02*
X244040D01*
X243973Y868434D01*
X243807Y868417D01*
X243607Y868367D01*
X243357Y868284D01*
X243107Y868150D01*
X242857Y867984D01*
X242624Y867750D01*
X242607Y867717D01*
X242540Y867617D01*
X242440Y867451D01*
X242341Y867234D01*
X242224Y866934D01*
X242141Y866584D01*
X242074Y866168D01*
X242041Y865684D01*
Y865668D01*
Y865618D01*
Y865534D01*
X242057Y865434D01*
Y865301D01*
X242074Y865151D01*
X242124Y864801D01*
X242190Y864435D01*
X242307Y864051D01*
X242457Y863685D01*
X242557Y863518D01*
X242657Y863368D01*
X242690Y863335D01*
X242774Y863252D01*
X242907Y863135D01*
X243074Y863002D01*
X243290Y862852D01*
X243557Y862735D01*
X243840Y862652D01*
X243990Y862635D01*
X244157Y862618D01*
X244190D01*
X244307Y862635D01*
X244457Y862652D01*
X244657Y862702D01*
X244873Y862785D01*
X245106Y862902D01*
X245356Y863068D01*
X245573Y863302D01*
X245606Y863335D01*
X245623Y863368D01*
X245673Y863435D01*
X245706Y863502D01*
X245756Y863602D01*
X245806Y863718D01*
X245873Y863835D01*
X245923Y863985D01*
X245973Y864151D01*
X246023Y864335D01*
X246073Y864535D01*
X246106Y864768D01*
X246140Y865001D01*
X246156Y865268D01*
Y865551D01*
Y865568D01*
Y865618D01*
Y865684D01*
X246140Y865784D01*
Y865918D01*
X246123Y866051D01*
X246089Y866367D01*
X246006Y866734D01*
X245906Y867084D01*
X245756Y867434D01*
X245656Y867584D01*
X245556Y867734D01*
Y867750D01*
X245523Y867767D01*
X245456Y867850D01*
X245323Y867967D01*
X245156Y868100D01*
X244956Y868217D01*
X244706Y868334D01*
X244423Y868417D01*
X244273Y868450D01*
D02*
G37*
G36*
X445777Y886549D02*
X429478D01*
Y886131D01*
Y885713D01*
Y885295D01*
Y884877D01*
Y884459D01*
Y884041D01*
Y883623D01*
Y883205D01*
Y882788D01*
Y882370D01*
Y881952D01*
Y881534D01*
Y881116D01*
Y880698D01*
Y880280D01*
Y879862D01*
Y879444D01*
Y879026D01*
Y878608D01*
Y878191D01*
Y877773D01*
Y877355D01*
Y876937D01*
Y876519D01*
Y876101D01*
Y875683D01*
Y875265D01*
Y874847D01*
Y874429D01*
Y874011D01*
Y873594D01*
Y873176D01*
Y872758D01*
Y872340D01*
Y871922D01*
Y871504D01*
Y871086D01*
Y870668D01*
Y870250D01*
X445359D01*
Y870668D01*
X445777D01*
Y871086D01*
Y871504D01*
Y871922D01*
Y872340D01*
Y872758D01*
Y873176D01*
Y873594D01*
Y874011D01*
Y874429D01*
Y874847D01*
Y875265D01*
Y875683D01*
Y876101D01*
Y876519D01*
Y876937D01*
Y877355D01*
Y877773D01*
Y878191D01*
Y878608D01*
Y879026D01*
Y879444D01*
Y879862D01*
Y880280D01*
Y880698D01*
Y881116D01*
Y881534D01*
Y881952D01*
Y882370D01*
Y882788D01*
Y883205D01*
Y883623D01*
Y884041D01*
Y884459D01*
Y884877D01*
Y885295D01*
Y885713D01*
Y886131D01*
Y886549D01*
D02*
G37*
%LPD*%
G36*
X442434Y883205D02*
Y882788D01*
Y882370D01*
Y881952D01*
Y881534D01*
Y881116D01*
Y880698D01*
Y880280D01*
Y879862D01*
Y879444D01*
Y879026D01*
Y878608D01*
Y878191D01*
Y877773D01*
Y877355D01*
Y876937D01*
Y876519D01*
Y876101D01*
Y875683D01*
Y875265D01*
Y874847D01*
Y874429D01*
Y874011D01*
Y873594D01*
X432404D01*
Y874011D01*
Y874429D01*
Y874847D01*
Y875265D01*
Y875683D01*
Y876101D01*
Y876519D01*
Y876937D01*
Y877355D01*
Y877773D01*
Y878191D01*
Y878608D01*
Y879026D01*
Y879444D01*
Y879862D01*
Y880280D01*
Y880698D01*
Y881116D01*
Y881534D01*
Y881952D01*
Y882370D01*
Y882788D01*
Y883205D01*
Y883623D01*
X442434D01*
Y883205D01*
D02*
G37*
%LPC*%
G36*
X385597Y886549D02*
X369299D01*
Y886131D01*
Y885713D01*
Y885295D01*
Y884877D01*
Y884459D01*
Y884041D01*
Y883623D01*
Y883205D01*
Y882788D01*
Y882370D01*
Y881952D01*
Y881534D01*
Y881116D01*
Y880698D01*
Y880280D01*
Y879862D01*
Y879444D01*
Y879026D01*
Y878608D01*
Y878191D01*
Y877773D01*
Y877355D01*
Y876937D01*
Y876519D01*
Y876101D01*
Y875683D01*
Y875265D01*
Y874847D01*
Y874429D01*
Y874011D01*
Y873594D01*
Y873176D01*
Y872758D01*
Y872340D01*
Y871922D01*
Y871504D01*
Y871086D01*
Y870668D01*
Y870250D01*
X385179D01*
Y870668D01*
X385597D01*
Y871086D01*
Y871504D01*
Y871922D01*
Y872340D01*
Y872758D01*
Y873176D01*
Y873594D01*
Y874011D01*
Y874429D01*
Y874847D01*
Y875265D01*
Y875683D01*
Y876101D01*
Y876519D01*
Y876937D01*
Y877355D01*
Y877773D01*
Y878191D01*
Y878608D01*
Y879026D01*
Y879444D01*
Y879862D01*
Y880280D01*
Y880698D01*
Y881116D01*
Y881534D01*
Y881952D01*
Y882370D01*
Y882788D01*
Y883205D01*
Y883623D01*
Y884041D01*
Y884459D01*
Y884877D01*
Y885295D01*
Y885713D01*
Y886131D01*
Y886549D01*
D02*
G37*
%LPD*%
G36*
X382254Y883205D02*
Y882788D01*
Y882370D01*
Y881952D01*
Y881534D01*
Y881116D01*
Y880698D01*
Y880280D01*
Y879862D01*
Y879444D01*
Y879026D01*
Y878608D01*
Y878191D01*
Y877773D01*
Y877355D01*
Y876937D01*
Y876519D01*
Y876101D01*
Y875683D01*
Y875265D01*
Y874847D01*
Y874429D01*
Y874011D01*
Y873594D01*
X372224D01*
Y874011D01*
Y874429D01*
Y874847D01*
Y875265D01*
Y875683D01*
Y876101D01*
Y876519D01*
Y876937D01*
Y877355D01*
Y877773D01*
Y878191D01*
Y878608D01*
Y879026D01*
Y879444D01*
Y879862D01*
Y880280D01*
Y880698D01*
Y881116D01*
Y881534D01*
Y881952D01*
Y882370D01*
Y882788D01*
Y883205D01*
Y883623D01*
X382254D01*
Y883205D01*
D02*
G37*
%LPC*%
G36*
X327319Y865318D02*
X327302D01*
X327235Y865285D01*
X327119Y865251D01*
X326952Y865201D01*
X326735Y865151D01*
X326469Y865085D01*
X326169Y865018D01*
X325802Y864934D01*
X325786D01*
X325752Y864918D01*
X325702D01*
X325636Y864901D01*
X325469Y864851D01*
X325253Y864801D01*
X325036Y864735D01*
X324819Y864668D01*
X324619Y864601D01*
X324469Y864518D01*
X324453Y864501D01*
X324403Y864451D01*
X324319Y864385D01*
X324236Y864285D01*
X324153Y864151D01*
X324070Y864001D01*
X324020Y863835D01*
X324003Y863652D01*
Y863635D01*
Y863568D01*
X324020Y863468D01*
X324053Y863352D01*
X324103Y863202D01*
X324170Y863068D01*
X324253Y862918D01*
X324386Y862768D01*
X324403Y862752D01*
X324453Y862718D01*
X324536Y862652D01*
X324653Y862585D01*
X324786Y862518D01*
X324953Y862452D01*
X325136Y862419D01*
X325353Y862402D01*
X325469D01*
X325602Y862419D01*
X325769Y862452D01*
X325952Y862502D01*
X326169Y862585D01*
X326402Y862685D01*
X326636Y862835D01*
X326652Y862852D01*
X326702Y862885D01*
X326786Y862968D01*
X326869Y863052D01*
X326969Y863168D01*
X327069Y863302D01*
X327152Y863468D01*
X327219Y863635D01*
Y863652D01*
X327235Y863701D01*
X327252Y863785D01*
X327269Y863902D01*
X327285Y864068D01*
X327302Y864268D01*
X327319Y864518D01*
Y864818D01*
Y865318D01*
D02*
G37*
G36*
X303558Y871566D02*
X300959D01*
Y868600D01*
X303442D01*
X303775Y868617D01*
X304341D01*
X304441Y868634D01*
X304558D01*
X304641Y868650D01*
X304758Y868684D01*
X304908Y868717D01*
X305074Y868784D01*
X305241Y868867D01*
X305424Y868967D01*
X305574Y869100D01*
X305591Y869117D01*
X305641Y869167D01*
X305691Y869250D01*
X305774Y869367D01*
X305841Y869517D01*
X305891Y869683D01*
X305941Y869883D01*
X305958Y870100D01*
Y870133D01*
Y870200D01*
X305941Y870316D01*
X305924Y870450D01*
X305874Y870600D01*
X305824Y870766D01*
X305741Y870916D01*
X305624Y871066D01*
X305608Y871083D01*
X305558Y871133D01*
X305491Y871183D01*
X305374Y871266D01*
X305241Y871333D01*
X305074Y871416D01*
X304874Y871466D01*
X304641Y871516D01*
X304625D01*
X304558Y871533D01*
X304341D01*
X304225Y871550D01*
X303758D01*
X303558Y871566D01*
D02*
G37*
G36*
X303641Y866468D02*
X300959D01*
Y863052D01*
X303825D01*
X304108Y863068D01*
X304408D01*
X304691Y863085D01*
X304825D01*
X304941Y863102D01*
X305041D01*
X305124Y863118D01*
X305158D01*
X305224Y863135D01*
X305324Y863168D01*
X305458Y863218D01*
X305608Y863285D01*
X305774Y863368D01*
X305924Y863485D01*
X306074Y863618D01*
X306091Y863635D01*
X306124Y863701D01*
X306191Y863785D01*
X306257Y863918D01*
X306324Y864068D01*
X306391Y864251D01*
X306424Y864468D01*
X306441Y864718D01*
Y864751D01*
Y864818D01*
X306424Y864918D01*
X306407Y865051D01*
X306374Y865201D01*
X306324Y865368D01*
X306257Y865534D01*
X306157Y865684D01*
X306141Y865701D01*
X306108Y865751D01*
X306041Y865834D01*
X305958Y865918D01*
X305841Y866018D01*
X305691Y866118D01*
X305524Y866201D01*
X305341Y866284D01*
X305308Y866301D01*
X305224Y866318D01*
X305158Y866334D01*
X305074Y866351D01*
X304974Y866367D01*
X304858Y866384D01*
X304708Y866401D01*
X304541Y866417D01*
X304358D01*
X304141Y866434D01*
X303908Y866451D01*
X303641Y866468D01*
D02*
G37*
G36*
X283580Y865318D02*
X283563D01*
X283497Y865285D01*
X283380Y865251D01*
X283213Y865201D01*
X282997Y865151D01*
X282730Y865085D01*
X282430Y865018D01*
X282064Y864934D01*
X282047D01*
X282014Y864918D01*
X281964D01*
X281897Y864901D01*
X281730Y864851D01*
X281514Y864801D01*
X281297Y864735D01*
X281080Y864668D01*
X280881Y864601D01*
X280731Y864518D01*
X280714Y864501D01*
X280664Y864451D01*
X280581Y864385D01*
X280497Y864285D01*
X280414Y864151D01*
X280331Y864001D01*
X280281Y863835D01*
X280264Y863652D01*
Y863635D01*
Y863568D01*
X280281Y863468D01*
X280314Y863352D01*
X280364Y863202D01*
X280431Y863068D01*
X280514Y862918D01*
X280647Y862768D01*
X280664Y862752D01*
X280714Y862718D01*
X280797Y862652D01*
X280914Y862585D01*
X281047Y862518D01*
X281214Y862452D01*
X281397Y862419D01*
X281614Y862402D01*
X281730D01*
X281864Y862419D01*
X282030Y862452D01*
X282214Y862502D01*
X282430Y862585D01*
X282663Y862685D01*
X282897Y862835D01*
X282913Y862852D01*
X282963Y862885D01*
X283047Y862968D01*
X283130Y863052D01*
X283230Y863168D01*
X283330Y863302D01*
X283413Y863468D01*
X283480Y863635D01*
Y863652D01*
X283497Y863701D01*
X283513Y863785D01*
X283530Y863902D01*
X283547Y864068D01*
X283563Y864268D01*
X283580Y864518D01*
Y864818D01*
Y865318D01*
D02*
G37*
G36*
X210215Y871533D02*
X208499D01*
Y867884D01*
X210265D01*
X210415Y867900D01*
X210732Y867917D01*
X211065Y867934D01*
X211398Y867967D01*
X211565Y867984D01*
X211698Y868017D01*
X211832Y868050D01*
X211932Y868084D01*
X211948Y868100D01*
X212015Y868117D01*
X212115Y868167D01*
X212232Y868234D01*
X212365Y868317D01*
X212498Y868434D01*
X212631Y868550D01*
X212748Y868700D01*
X212765Y868717D01*
X212798Y868784D01*
X212848Y868867D01*
X212898Y868984D01*
X212948Y869134D01*
X212998Y869317D01*
X213031Y869500D01*
X213048Y869717D01*
Y869750D01*
Y869833D01*
X213031Y869967D01*
X212998Y870117D01*
X212948Y870300D01*
X212865Y870500D01*
X212765Y870683D01*
X212631Y870866D01*
X212615Y870883D01*
X212565Y870933D01*
X212465Y871016D01*
X212348Y871100D01*
X212198Y871200D01*
X212015Y871300D01*
X211815Y871383D01*
X211598Y871433D01*
X211582D01*
X211498Y871450D01*
X211382Y871466D01*
X211198Y871483D01*
X211065Y871499D01*
X210932D01*
X210782Y871516D01*
X210432D01*
X210215Y871533D01*
D02*
G37*
G36*
X193036Y870716D02*
X191304Y865968D01*
X194803D01*
X193036Y870716D01*
D02*
G37*
G36*
X166477Y871533D02*
X164760D01*
Y867884D01*
X166527D01*
X166677Y867900D01*
X166993Y867917D01*
X167326Y867934D01*
X167660Y867967D01*
X167826Y867984D01*
X167959Y868017D01*
X168093Y868050D01*
X168193Y868084D01*
X168209Y868100D01*
X168276Y868117D01*
X168376Y868167D01*
X168493Y868234D01*
X168626Y868317D01*
X168759Y868434D01*
X168893Y868550D01*
X169009Y868700D01*
X169026Y868717D01*
X169059Y868783D01*
X169109Y868867D01*
X169159Y868984D01*
X169209Y869133D01*
X169259Y869317D01*
X169293Y869500D01*
X169309Y869717D01*
Y869750D01*
Y869833D01*
X169293Y869967D01*
X169259Y870117D01*
X169209Y870300D01*
X169126Y870500D01*
X169026Y870683D01*
X168893Y870866D01*
X168876Y870883D01*
X168826Y870933D01*
X168726Y871016D01*
X168609Y871100D01*
X168459Y871200D01*
X168276Y871300D01*
X168076Y871383D01*
X167859Y871433D01*
X167843D01*
X167760Y871450D01*
X167643Y871466D01*
X167460Y871483D01*
X167326Y871499D01*
X167193D01*
X167043Y871516D01*
X166693D01*
X166477Y871533D01*
D02*
G37*
G36*
X315672Y868384D02*
X315388D01*
X315322Y868367D01*
X315155Y868350D01*
X314922Y868284D01*
X314672Y868200D01*
X314405Y868067D01*
X314122Y867884D01*
X314005Y867767D01*
X313872Y867634D01*
X313839Y867600D01*
X313806Y867551D01*
X313772Y867501D01*
X313722Y867417D01*
X313672Y867334D01*
X313556Y867101D01*
X313422Y866801D01*
X313322Y866434D01*
X313256Y866001D01*
X313222Y865518D01*
Y865501D01*
Y865451D01*
Y865384D01*
X313239Y865285D01*
Y865168D01*
X313256Y865034D01*
X313306Y864735D01*
X313389Y864401D01*
X313489Y864035D01*
X313655Y863701D01*
X313872Y863402D01*
X313906Y863368D01*
X313989Y863285D01*
X314122Y863168D01*
X314322Y863035D01*
X314555Y862902D01*
X314822Y862785D01*
X315138Y862702D01*
X315305Y862685D01*
X315488Y862669D01*
X315588D01*
X315655Y862685D01*
X315822Y862702D01*
X316038Y862768D01*
X316305Y862852D01*
X316572Y862985D01*
X316838Y863168D01*
X316971Y863268D01*
X317088Y863402D01*
Y863418D01*
X317121Y863435D01*
X317155Y863485D01*
X317188Y863535D01*
X317238Y863618D01*
X317305Y863701D01*
X317421Y863951D01*
X317538Y864251D01*
X317654Y864618D01*
X317721Y865034D01*
X317754Y865534D01*
Y865551D01*
Y865601D01*
Y865668D01*
X317738Y865768D01*
Y865868D01*
X317721Y866001D01*
X317671Y866318D01*
X317588Y866651D01*
X317471Y867001D01*
X317305Y867334D01*
X317088Y867634D01*
Y867651D01*
X317055Y867667D01*
X316971Y867750D01*
X316838Y867867D01*
X316638Y868017D01*
X316405Y868150D01*
X316138Y868267D01*
X315838Y868350D01*
X315672Y868384D01*
D02*
G37*
G36*
X254304Y868500D02*
X254271D01*
X254171Y868484D01*
X254021Y868467D01*
X253838Y868434D01*
X253621Y868350D01*
X253404Y868250D01*
X253188Y868100D01*
X252971Y867900D01*
X252954Y867867D01*
X252888Y867801D01*
X252804Y867667D01*
X252721Y867484D01*
X252621Y867251D01*
X252538Y866984D01*
X252471Y866667D01*
X252454Y866318D01*
X256137D01*
Y866334D01*
Y866367D01*
Y866417D01*
X256120Y866501D01*
X256104Y866684D01*
X256054Y866917D01*
X255987Y867184D01*
X255887Y867451D01*
X255754Y867701D01*
X255570Y867934D01*
X255554Y867950D01*
X255470Y868017D01*
X255371Y868117D01*
X255221Y868217D01*
X255037Y868317D01*
X254821Y868417D01*
X254571Y868484D01*
X254304Y868500D01*
D02*
G37*
G36*
X221496D02*
X221462D01*
X221362Y868484D01*
X221213Y868467D01*
X221029Y868434D01*
X220813Y868350D01*
X220596Y868250D01*
X220379Y868100D01*
X220163Y867900D01*
X220146Y867867D01*
X220079Y867801D01*
X219996Y867667D01*
X219913Y867484D01*
X219813Y867251D01*
X219730Y866984D01*
X219663Y866667D01*
X219646Y866318D01*
X223329D01*
Y866334D01*
Y866367D01*
Y866417D01*
X223312Y866501D01*
X223295Y866684D01*
X223245Y866917D01*
X223179Y867184D01*
X223079Y867451D01*
X222945Y867701D01*
X222762Y867934D01*
X222745Y867950D01*
X222662Y868017D01*
X222562Y868117D01*
X222412Y868217D01*
X222229Y868317D01*
X222012Y868417D01*
X221762Y868484D01*
X221496Y868500D01*
D02*
G37*
G36*
X398971Y873594D02*
X395627D01*
Y873176D01*
Y872758D01*
Y872340D01*
Y871922D01*
Y871504D01*
Y871086D01*
Y870668D01*
Y870250D01*
Y869832D01*
Y869414D01*
Y868997D01*
Y868579D01*
Y868161D01*
Y867743D01*
Y867325D01*
Y866907D01*
X398971D01*
Y867325D01*
Y867743D01*
Y868161D01*
Y868579D01*
Y868997D01*
Y869414D01*
Y869832D01*
Y870250D01*
Y870668D01*
Y871086D01*
Y871504D01*
Y871922D01*
Y872340D01*
Y872758D01*
Y873176D01*
Y873594D01*
D02*
G37*
G36*
Y863564D02*
X395627D01*
Y863146D01*
Y862728D01*
Y862310D01*
Y861892D01*
Y861474D01*
Y861056D01*
Y860638D01*
Y860220D01*
X398971D01*
Y860638D01*
Y861056D01*
Y861474D01*
Y861892D01*
Y862310D01*
Y862728D01*
Y863146D01*
Y863564D01*
D02*
G37*
G36*
X220180Y836948D02*
X218463D01*
Y833299D01*
X220229D01*
X220379Y833316D01*
X220696Y833333D01*
X221029Y833349D01*
X221362Y833383D01*
X221529Y833399D01*
X221662Y833433D01*
X221796Y833466D01*
X221896Y833499D01*
X221912Y833516D01*
X221979Y833533D01*
X222079Y833583D01*
X222196Y833649D01*
X222329Y833733D01*
X222462Y833849D01*
X222596Y833966D01*
X222712Y834116D01*
X222729Y834132D01*
X222762Y834199D01*
X222812Y834282D01*
X222862Y834399D01*
X222912Y834549D01*
X222962Y834732D01*
X222995Y834916D01*
X223012Y835132D01*
Y835165D01*
Y835249D01*
X222995Y835382D01*
X222962Y835532D01*
X222912Y835715D01*
X222829Y835915D01*
X222729Y836099D01*
X222596Y836282D01*
X222579Y836299D01*
X222529Y836348D01*
X222429Y836432D01*
X222312Y836515D01*
X222162Y836615D01*
X221979Y836715D01*
X221779Y836798D01*
X221562Y836848D01*
X221546D01*
X221462Y836865D01*
X221346Y836882D01*
X221162Y836898D01*
X221029Y836915D01*
X220896D01*
X220746Y836932D01*
X220396D01*
X220180Y836948D01*
D02*
G37*
G36*
X208499Y836948D02*
X205533D01*
Y833699D01*
X207899D01*
X208066Y833716D01*
X208433D01*
X208832Y833733D01*
X209216Y833766D01*
X209382Y833783D01*
X209532Y833799D01*
X209666Y833816D01*
X209765Y833849D01*
X209782D01*
X209849Y833883D01*
X209932Y833916D01*
X210032Y833966D01*
X210149Y834049D01*
X210265Y834132D01*
X210399Y834249D01*
X210499Y834382D01*
X210515Y834399D01*
X210549Y834449D01*
X210582Y834532D01*
X210632Y834649D01*
X210682Y834799D01*
X210732Y834966D01*
X210749Y835149D01*
X210765Y835349D01*
Y835382D01*
Y835465D01*
X210749Y835582D01*
X210715Y835732D01*
X210682Y835899D01*
X210615Y836065D01*
X210532Y836232D01*
X210415Y836398D01*
X210399Y836415D01*
X210349Y836465D01*
X210265Y836532D01*
X210165Y836615D01*
X210015Y836698D01*
X209849Y836782D01*
X209649Y836848D01*
X209432Y836898D01*
X209416D01*
X209366Y836915D01*
X209166D01*
X209082Y836932D01*
X208682D01*
X208499Y836948D01*
D02*
G37*
G36*
X171175Y836132D02*
X169443Y831383D01*
X172942D01*
X171175Y836132D01*
D02*
G37*
G36*
X313889Y837148D02*
X313806D01*
X313722Y837132D01*
X313622Y837115D01*
X313489Y837082D01*
X313356Y837015D01*
X313222Y836948D01*
X313089Y836848D01*
X313072Y836832D01*
X313039Y836798D01*
X312972Y836715D01*
X312889Y836615D01*
X312806Y836482D01*
X312722Y836299D01*
X312639Y836082D01*
X312556Y835832D01*
Y835815D01*
X312539Y835782D01*
Y835732D01*
X312523Y835649D01*
X312506Y835549D01*
X312472Y835415D01*
X312456Y835249D01*
X312439Y835082D01*
X312406Y834866D01*
X312389Y834632D01*
X312372Y834366D01*
X312339Y834082D01*
X312323Y833749D01*
Y833399D01*
X312306Y833033D01*
Y832616D01*
Y832583D01*
Y832516D01*
Y832400D01*
Y832250D01*
Y832066D01*
X312323Y831850D01*
Y831616D01*
X312339Y831383D01*
X312356Y830867D01*
X312406Y830350D01*
X312423Y830100D01*
X312456Y829883D01*
X312489Y829684D01*
X312523Y829500D01*
Y829484D01*
X312539Y829467D01*
X312572Y829367D01*
X312623Y829217D01*
X312689Y829034D01*
X312756Y828850D01*
X312856Y828667D01*
X312972Y828501D01*
X313089Y828367D01*
X313106Y828351D01*
X313156Y828334D01*
X313222Y828284D01*
X313322Y828234D01*
X313439Y828184D01*
X313572Y828151D01*
X313722Y828117D01*
X313889Y828101D01*
X313972D01*
X314055Y828117D01*
X314155Y828134D01*
X314289Y828167D01*
X314422Y828217D01*
X314555Y828284D01*
X314689Y828384D01*
X314705Y828401D01*
X314739Y828434D01*
X314805Y828517D01*
X314888Y828617D01*
X314972Y828751D01*
X315055Y828934D01*
X315138Y829150D01*
X315222Y829400D01*
Y829417D01*
X315238Y829450D01*
X315255Y829500D01*
X315272Y829584D01*
X315288Y829684D01*
X315305Y829817D01*
X315338Y829984D01*
X315355Y830167D01*
X315388Y830367D01*
X315405Y830600D01*
X315422Y830867D01*
X315455Y831167D01*
X315472Y831483D01*
Y831833D01*
X315488Y832200D01*
Y832616D01*
Y832650D01*
Y832716D01*
Y832833D01*
Y832983D01*
Y833166D01*
X315472Y833383D01*
Y833616D01*
X315455Y833849D01*
X315438Y834366D01*
X315388Y834882D01*
X315372Y835116D01*
X315338Y835349D01*
X315288Y835549D01*
X315255Y835715D01*
Y835732D01*
X315238Y835749D01*
X315222Y835849D01*
X315155Y835999D01*
X315089Y836182D01*
X315005Y836365D01*
X314905Y836548D01*
X314805Y836715D01*
X314672Y836848D01*
X314655Y836865D01*
X314605Y836898D01*
X314539Y836948D01*
X314455Y836998D01*
X314339Y837048D01*
X314205Y837098D01*
X314055Y837132D01*
X313889Y837148D01*
D02*
G37*
G36*
X279081D02*
X278998D01*
X278914Y837132D01*
X278815Y837115D01*
X278681Y837082D01*
X278548Y837015D01*
X278415Y836948D01*
X278281Y836848D01*
X278265Y836832D01*
X278231Y836798D01*
X278165Y836715D01*
X278081Y836615D01*
X277998Y836482D01*
X277915Y836299D01*
X277831Y836082D01*
X277748Y835832D01*
Y835815D01*
X277731Y835782D01*
Y835732D01*
X277715Y835649D01*
X277698Y835549D01*
X277665Y835415D01*
X277648Y835249D01*
X277631Y835082D01*
X277598Y834866D01*
X277581Y834632D01*
X277565Y834366D01*
X277531Y834082D01*
X277515Y833749D01*
Y833399D01*
X277498Y833033D01*
Y832616D01*
Y832583D01*
Y832516D01*
Y832400D01*
Y832250D01*
Y832066D01*
X277515Y831850D01*
Y831616D01*
X277531Y831383D01*
X277548Y830867D01*
X277598Y830350D01*
X277615Y830100D01*
X277648Y829883D01*
X277681Y829684D01*
X277715Y829500D01*
Y829484D01*
X277731Y829467D01*
X277765Y829367D01*
X277815Y829217D01*
X277881Y829034D01*
X277948Y828850D01*
X278048Y828667D01*
X278165Y828501D01*
X278281Y828367D01*
X278298Y828351D01*
X278348Y828334D01*
X278415Y828284D01*
X278514Y828234D01*
X278631Y828184D01*
X278764Y828151D01*
X278914Y828117D01*
X279081Y828101D01*
X279164D01*
X279248Y828117D01*
X279348Y828134D01*
X279481Y828167D01*
X279614Y828217D01*
X279748Y828284D01*
X279881Y828384D01*
X279897Y828401D01*
X279931Y828434D01*
X279998Y828517D01*
X280081Y828617D01*
X280164Y828751D01*
X280247Y828934D01*
X280331Y829150D01*
X280414Y829400D01*
Y829417D01*
X280431Y829450D01*
X280447Y829500D01*
X280464Y829584D01*
X280481Y829684D01*
X280497Y829817D01*
X280531Y829984D01*
X280547Y830167D01*
X280581Y830367D01*
X280597Y830600D01*
X280614Y830867D01*
X280647Y831167D01*
X280664Y831483D01*
Y831833D01*
X280681Y832200D01*
Y832616D01*
Y832650D01*
Y832716D01*
Y832833D01*
Y832983D01*
Y833166D01*
X280664Y833383D01*
Y833616D01*
X280647Y833849D01*
X280631Y834366D01*
X280581Y834882D01*
X280564Y835116D01*
X280531Y835349D01*
X280481Y835549D01*
X280447Y835715D01*
Y835732D01*
X280431Y835749D01*
X280414Y835849D01*
X280347Y835999D01*
X280281Y836182D01*
X280197Y836365D01*
X280098Y836548D01*
X279998Y836715D01*
X279864Y836848D01*
X279848Y836865D01*
X279797Y836898D01*
X279731Y836948D01*
X279648Y836998D01*
X279531Y837048D01*
X279398Y837098D01*
X279248Y837132D01*
X279081Y837148D01*
D02*
G37*
G36*
X439090Y840161D02*
X435747D01*
Y839743D01*
Y839325D01*
Y838907D01*
Y838489D01*
Y838071D01*
Y837653D01*
Y837235D01*
Y836817D01*
X439090D01*
Y837235D01*
Y837653D01*
Y838071D01*
Y838489D01*
Y838907D01*
Y839325D01*
Y839743D01*
Y840161D01*
D02*
G37*
G36*
X432404Y833474D02*
X422374D01*
Y833056D01*
Y832638D01*
Y832220D01*
Y831802D01*
Y831384D01*
Y830966D01*
Y830548D01*
Y830131D01*
Y829713D01*
Y829295D01*
Y828877D01*
Y828459D01*
Y828041D01*
Y827623D01*
Y827205D01*
Y826787D01*
Y826369D01*
Y825952D01*
Y825534D01*
Y825116D01*
Y824698D01*
Y824280D01*
Y823862D01*
Y823444D01*
X432404D01*
Y823862D01*
Y824280D01*
Y824698D01*
Y825116D01*
Y825534D01*
Y825952D01*
Y826369D01*
Y826787D01*
Y827205D01*
Y827623D01*
Y828041D01*
Y828459D01*
Y828877D01*
Y829295D01*
Y829713D01*
Y830131D01*
Y830548D01*
Y830966D01*
Y831384D01*
Y831802D01*
Y832220D01*
Y832638D01*
Y833056D01*
Y833474D01*
D02*
G37*
G36*
X439090Y820101D02*
X432404D01*
Y819683D01*
Y819265D01*
Y818847D01*
Y818429D01*
Y818011D01*
Y817593D01*
Y817175D01*
Y816757D01*
X429060D01*
Y816339D01*
Y815922D01*
Y815504D01*
Y815086D01*
Y814668D01*
Y814250D01*
Y813832D01*
Y813414D01*
X435747D01*
Y813832D01*
Y814250D01*
Y814668D01*
Y815086D01*
Y815504D01*
Y815922D01*
Y816339D01*
Y816757D01*
X439090D01*
Y816339D01*
Y815922D01*
Y815504D01*
Y815086D01*
Y814668D01*
Y814250D01*
Y813832D01*
Y813414D01*
X442434D01*
Y813832D01*
Y814250D01*
Y814668D01*
Y815086D01*
Y815504D01*
Y815922D01*
Y816339D01*
Y816757D01*
X439090D01*
Y817175D01*
Y817593D01*
Y818011D01*
Y818429D01*
Y818847D01*
Y819265D01*
Y819683D01*
Y820101D01*
D02*
G37*
G36*
X409001Y813414D02*
X405657D01*
Y812996D01*
Y812578D01*
Y812160D01*
Y811742D01*
Y811324D01*
Y810907D01*
Y810489D01*
Y810071D01*
X409001D01*
Y810489D01*
Y810907D01*
Y811324D01*
Y811742D01*
Y812160D01*
Y812578D01*
Y812996D01*
Y813414D01*
D02*
G37*
%LPD*%
G36*
X429060Y829713D02*
Y829295D01*
Y828877D01*
Y828459D01*
Y828041D01*
Y827623D01*
Y827205D01*
Y826787D01*
X425717D01*
Y827205D01*
Y827623D01*
Y828041D01*
Y828459D01*
Y828877D01*
Y829295D01*
Y829713D01*
Y830131D01*
X429060D01*
Y829713D01*
D02*
G37*
%LPC*%
G36*
X385597Y826369D02*
X369299D01*
Y825952D01*
Y825534D01*
Y825116D01*
Y824698D01*
Y824280D01*
Y823862D01*
Y823444D01*
Y823026D01*
Y822608D01*
Y822190D01*
Y821772D01*
Y821354D01*
Y820937D01*
Y820519D01*
Y820101D01*
Y819683D01*
Y819265D01*
Y818847D01*
Y818429D01*
Y818011D01*
Y817593D01*
Y817175D01*
Y816757D01*
Y816339D01*
Y815922D01*
Y815504D01*
Y815086D01*
Y814668D01*
Y814250D01*
Y813832D01*
Y813414D01*
Y812996D01*
Y812578D01*
Y812160D01*
Y811742D01*
Y811324D01*
Y810907D01*
Y810489D01*
Y810071D01*
X385179D01*
Y810489D01*
X385597D01*
Y810907D01*
Y811324D01*
Y811742D01*
Y812160D01*
Y812578D01*
Y812996D01*
Y813414D01*
Y813832D01*
Y814250D01*
Y814668D01*
Y815086D01*
Y815504D01*
Y815922D01*
Y816339D01*
Y816757D01*
Y817175D01*
Y817593D01*
Y818011D01*
Y818429D01*
Y818847D01*
Y819265D01*
Y819683D01*
Y820101D01*
Y820519D01*
Y820937D01*
Y821354D01*
Y821772D01*
Y822190D01*
Y822608D01*
Y823026D01*
Y823444D01*
Y823862D01*
Y824280D01*
Y824698D01*
Y825116D01*
Y825534D01*
Y825952D01*
Y826369D01*
D02*
G37*
%LPD*%
G36*
X382254Y823026D02*
Y822608D01*
Y822190D01*
Y821772D01*
Y821354D01*
Y820937D01*
Y820519D01*
Y820101D01*
Y819683D01*
Y819265D01*
Y818847D01*
Y818429D01*
Y818011D01*
Y817593D01*
Y817175D01*
Y816757D01*
Y816339D01*
Y815922D01*
Y815504D01*
Y815086D01*
Y814668D01*
Y814250D01*
Y813832D01*
Y813414D01*
X372224D01*
Y813832D01*
Y814250D01*
Y814668D01*
Y815086D01*
Y815504D01*
Y815922D01*
Y816339D01*
Y816757D01*
Y817175D01*
Y817593D01*
Y818011D01*
Y818429D01*
Y818847D01*
Y819265D01*
Y819683D01*
Y820101D01*
Y820519D01*
Y820937D01*
Y821354D01*
Y821772D01*
Y822190D01*
Y822608D01*
Y823026D01*
Y823444D01*
X382254D01*
Y823026D01*
D02*
G37*
%LPC*%
G36*
X814299Y687766D02*
X814000Y687716D01*
X813733Y687649D01*
X813466Y687566D01*
X813233Y687466D01*
X813000Y687366D01*
X812783Y687250D01*
X812600Y687133D01*
X812433Y687016D01*
X812267Y686899D01*
X812133Y686800D01*
X812017Y686700D01*
X811917Y686616D01*
X811850Y686533D01*
X811800Y686483D01*
X811767Y686450D01*
X811750Y686433D01*
X811583Y686216D01*
X811434Y685983D01*
X811317Y685750D01*
X811200Y685517D01*
X811117Y685267D01*
X811034Y685033D01*
X810917Y684567D01*
X810884Y684367D01*
X810850Y684167D01*
X810834Y684000D01*
X810817Y683850D01*
X810800Y683717D01*
Y683550D01*
X810817Y683150D01*
X810867Y682767D01*
X810950Y682401D01*
X811067Y682067D01*
X811200Y681768D01*
X811334Y681484D01*
X811500Y681218D01*
X811650Y680984D01*
X811817Y680784D01*
X811967Y680601D01*
X812100Y680434D01*
X812233Y680318D01*
X812350Y680218D01*
X812433Y680135D01*
X812483Y680101D01*
X812500Y680085D01*
X812733Y679918D01*
X812983Y679785D01*
X813216Y679651D01*
X813466Y679551D01*
X813933Y679385D01*
X814366Y679285D01*
X814566Y679251D01*
X814749Y679218D01*
X814916Y679202D01*
X815049Y679185D01*
X815166Y679168D01*
X815316D01*
X815666Y679185D01*
X815999Y679218D01*
X816316Y679268D01*
X816599Y679352D01*
X816882Y679435D01*
X817132Y679518D01*
X817365Y679635D01*
X817582Y679735D01*
X817765Y679835D01*
X817932Y679935D01*
X818082Y680035D01*
X818198Y680118D01*
X818298Y680201D01*
X818365Y680251D01*
X818399Y680285D01*
X818415Y680301D01*
X818632Y680518D01*
X818815Y680751D01*
X818965Y680984D01*
X819115Y681218D01*
X819232Y681451D01*
X819315Y681667D01*
X819398Y681901D01*
X819465Y682101D01*
X819515Y682301D01*
X819548Y682484D01*
X819582Y682651D01*
X819598Y682801D01*
X819615Y682901D01*
Y683067D01*
X819598Y683384D01*
X819548Y683684D01*
X819482Y683967D01*
X819415Y684234D01*
X819332Y684434D01*
X819265Y684600D01*
X819232Y684667D01*
X819215Y684717D01*
X819198Y684733D01*
Y684750D01*
X821381Y684350D01*
Y679735D01*
X823680D01*
Y686200D01*
X817016Y687466D01*
X816732Y685483D01*
X816899Y685317D01*
X817049Y685167D01*
X817165Y685000D01*
X817265Y684833D01*
X817432Y684517D01*
X817549Y684234D01*
X817615Y683984D01*
X817632Y683867D01*
X817649Y683784D01*
X817665Y683700D01*
Y683600D01*
X817632Y683300D01*
X817565Y683034D01*
X817482Y682801D01*
X817365Y682601D01*
X817249Y682451D01*
X817165Y682334D01*
X817099Y682251D01*
X817066Y682234D01*
X816815Y682051D01*
X816532Y681917D01*
X816232Y681834D01*
X815949Y681768D01*
X815683Y681734D01*
X815583Y681718D01*
X815482Y681701D01*
X815283D01*
X814833Y681718D01*
X814449Y681784D01*
X814133Y681868D01*
X813866Y681967D01*
X813650Y682067D01*
X813500Y682151D01*
X813416Y682217D01*
X813383Y682234D01*
X813183Y682451D01*
X813033Y682667D01*
X812916Y682884D01*
X812850Y683084D01*
X812800Y683267D01*
X812783Y683400D01*
X812767Y683500D01*
Y683534D01*
X812783Y683784D01*
X812850Y684000D01*
X812916Y684200D01*
X813017Y684367D01*
X813100Y684517D01*
X813183Y684617D01*
X813233Y684700D01*
X813250Y684717D01*
X813450Y684883D01*
X813666Y685017D01*
X813883Y685133D01*
X814083Y685200D01*
X814283Y685250D01*
X814433Y685300D01*
X814533Y685317D01*
X814566D01*
X814299Y687766D01*
D02*
G37*
G36*
X815524Y588615D02*
X813391D01*
Y583383D01*
X810809D01*
Y581000D01*
X813391D01*
Y579417D01*
X815541D01*
Y581000D01*
X823672D01*
Y583083D01*
X815524Y588615D01*
D02*
G37*
%LPD*%
G36*
X819890Y583383D02*
X815541D01*
Y586315D01*
X819890Y583383D01*
D02*
G37*
%LPC*%
G36*
X412665Y566902D02*
X393345D01*
Y563903D01*
X393670Y563778D01*
X393995Y563628D01*
X394570Y563278D01*
X395095Y562903D01*
X395570Y562503D01*
X395919Y562153D01*
X396094Y562003D01*
X396219Y561853D01*
X396319Y561728D01*
X396394Y561654D01*
X396419Y561604D01*
X396444Y561578D01*
X396894Y560954D01*
X397269Y560379D01*
X397594Y559854D01*
X397819Y559404D01*
X397994Y559029D01*
X398069Y558854D01*
X398119Y558729D01*
X398169Y558629D01*
X398194Y558554D01*
X398219Y558504D01*
Y558479D01*
X401568D01*
X401193Y559454D01*
X400743Y560379D01*
X400518Y560779D01*
X400293Y561179D01*
X400068Y561553D01*
X399843Y561878D01*
X399618Y562178D01*
X399444Y562453D01*
X399244Y562678D01*
X399094Y562878D01*
X398969Y563028D01*
X398869Y563128D01*
X398819Y563203D01*
X398794Y563228D01*
X412665D01*
Y558479D01*
D01*
Y566902D01*
D02*
G37*
G36*
X814245Y490281D02*
X813945Y490231D01*
X813662Y490164D01*
X813412Y490098D01*
X813162Y489998D01*
X812929Y489898D01*
X812712Y489781D01*
X812513Y489664D01*
X812329Y489548D01*
X812179Y489448D01*
X812029Y489331D01*
X811913Y489231D01*
X811813Y489148D01*
X811729Y489065D01*
X811679Y489015D01*
X811646Y488981D01*
X811629Y488965D01*
X811463Y488748D01*
X811313Y488515D01*
X811180Y488265D01*
X811063Y488032D01*
X810963Y487782D01*
X810880Y487548D01*
X810763Y487098D01*
X810730Y486882D01*
X810696Y486698D01*
X810680Y486515D01*
X810663Y486365D01*
X810646Y486249D01*
Y486082D01*
X810663Y485749D01*
X810696Y485415D01*
X810763Y485116D01*
X810830Y484816D01*
X810913Y484549D01*
X811013Y484299D01*
X811130Y484066D01*
X811246Y483849D01*
X811346Y483649D01*
X811463Y483483D01*
X811563Y483349D01*
X811646Y483216D01*
X811713Y483133D01*
X811779Y483050D01*
X811813Y483016D01*
X811829Y482999D01*
X812063Y482783D01*
X812296Y482600D01*
X812529Y482433D01*
X812779Y482283D01*
X813029Y482166D01*
X813262Y482066D01*
X813496Y481983D01*
X813712Y481916D01*
X813929Y481866D01*
X814112Y481833D01*
X814279Y481800D01*
X814429Y481783D01*
X814545Y481766D01*
X814712D01*
X815128Y481800D01*
X815512Y481866D01*
X815845Y481983D01*
X816145Y482100D01*
X816378Y482216D01*
X816545Y482333D01*
X816611Y482366D01*
X816662Y482400D01*
X816678Y482433D01*
X816695D01*
X816978Y482700D01*
X817211Y482983D01*
X817395Y483266D01*
X817528Y483549D01*
X817645Y483799D01*
X817678Y483899D01*
X817711Y483999D01*
X817728Y484082D01*
X817745Y484132D01*
X817761Y484166D01*
Y484183D01*
X817961Y483849D01*
X818161Y483566D01*
X818378Y483333D01*
X818611Y483116D01*
X818828Y482933D01*
X819061Y482783D01*
X819277Y482666D01*
X819494Y482566D01*
X819694Y482483D01*
X819877Y482433D01*
X820044Y482383D01*
X820177Y482366D01*
X820294Y482350D01*
X820394Y482333D01*
X820461D01*
X820677Y482350D01*
X820894Y482366D01*
X821294Y482483D01*
X821660Y482616D01*
X821977Y482783D01*
X822227Y482966D01*
X822343Y483033D01*
X822427Y483099D01*
X822493Y483166D01*
X822543Y483216D01*
X822577Y483233D01*
X822593Y483249D01*
X822793Y483466D01*
X822977Y483683D01*
X823127Y483916D01*
X823276Y484166D01*
X823376Y484399D01*
X823476Y484649D01*
X823560Y484882D01*
X823610Y485099D01*
X823660Y485316D01*
X823693Y485516D01*
X823726Y485699D01*
X823743Y485849D01*
X823760Y485965D01*
Y486149D01*
X823743Y486532D01*
X823693Y486898D01*
X823626Y487215D01*
X823560Y487498D01*
X823493Y487732D01*
X823426Y487915D01*
X823393Y487981D01*
X823376Y488032D01*
X823360Y488048D01*
Y488065D01*
X823193Y488365D01*
X823027Y488631D01*
X822843Y488865D01*
X822660Y489048D01*
X822510Y489198D01*
X822377Y489314D01*
X822293Y489381D01*
X822260Y489398D01*
X821977Y489565D01*
X821677Y489698D01*
X821360Y489831D01*
X821060Y489914D01*
X820794Y489998D01*
X820694Y490031D01*
X820594Y490048D01*
X820510Y490064D01*
X820444Y490081D01*
X820411Y490098D01*
X820394D01*
X820011Y487832D01*
X820311Y487782D01*
X820561Y487715D01*
X820777Y487632D01*
X820960Y487532D01*
X821094Y487448D01*
X821194Y487365D01*
X821260Y487315D01*
X821277Y487298D01*
X821427Y487115D01*
X821544Y486932D01*
X821610Y486765D01*
X821677Y486582D01*
X821710Y486432D01*
X821727Y486315D01*
Y486215D01*
X821710Y485982D01*
X821660Y485782D01*
X821593Y485616D01*
X821527Y485466D01*
X821460Y485349D01*
X821394Y485266D01*
X821344Y485216D01*
X821327Y485199D01*
X821177Y485066D01*
X821010Y484966D01*
X820827Y484899D01*
X820660Y484849D01*
X820527Y484816D01*
X820394Y484799D01*
X820294D01*
X820027Y484816D01*
X819777Y484882D01*
X819561Y484966D01*
X819394Y485066D01*
X819244Y485166D01*
X819144Y485249D01*
X819078Y485316D01*
X819061Y485332D01*
X818911Y485549D01*
X818811Y485782D01*
X818728Y486032D01*
X818678Y486282D01*
X818661Y486499D01*
X818644Y486682D01*
Y486848D01*
X816645Y487115D01*
X816711Y486882D01*
X816761Y486665D01*
X816795Y486482D01*
X816828Y486315D01*
Y486182D01*
X816845Y486082D01*
Y485999D01*
X816828Y485732D01*
X816761Y485499D01*
X816678Y485299D01*
X816578Y485116D01*
X816461Y484982D01*
X816378Y484866D01*
X816311Y484799D01*
X816295Y484782D01*
X816078Y484616D01*
X815828Y484499D01*
X815578Y484399D01*
X815345Y484349D01*
X815128Y484316D01*
X814962Y484282D01*
X814812D01*
X814462Y484299D01*
X814145Y484366D01*
X813879Y484449D01*
X813662Y484549D01*
X813479Y484649D01*
X813346Y484732D01*
X813279Y484799D01*
X813246Y484816D01*
X813062Y485016D01*
X812912Y485232D01*
X812812Y485449D01*
X812746Y485649D01*
X812712Y485815D01*
X812696Y485949D01*
X812679Y486049D01*
Y486082D01*
X812696Y486332D01*
X812746Y486582D01*
X812829Y486782D01*
X812912Y486965D01*
X812996Y487098D01*
X813079Y487215D01*
X813129Y487282D01*
X813146Y487298D01*
X813346Y487465D01*
X813562Y487598D01*
X813795Y487715D01*
X814029Y487782D01*
X814229Y487832D01*
X814395Y487882D01*
X814462D01*
X814512Y487898D01*
X814545D01*
X814245Y490281D01*
D02*
G37*
G36*
X811334Y388506D02*
X811284D01*
Y379908D01*
X813567D01*
Y384790D01*
X813800Y384641D01*
X814017Y384474D01*
X814100Y384407D01*
X814167Y384341D01*
X814217Y384307D01*
X814233Y384291D01*
X814300Y384224D01*
X814400Y384141D01*
X814600Y383924D01*
X814833Y383691D01*
X815067Y383441D01*
X815300Y383208D01*
X815483Y383008D01*
X815550Y382924D01*
X815600Y382874D01*
X815633Y382841D01*
X815650Y382824D01*
X815850Y382608D01*
X816033Y382424D01*
X816366Y382074D01*
X816649Y381808D01*
X816883Y381575D01*
X817066Y381408D01*
X817199Y381291D01*
X817266Y381225D01*
X817299Y381208D01*
X817616Y380975D01*
X817916Y380775D01*
X818182Y380608D01*
X818432Y380458D01*
X818632Y380358D01*
X818799Y380292D01*
X818899Y380242D01*
X818916Y380225D01*
X818932D01*
X819232Y380125D01*
X819515Y380042D01*
X819799Y379992D01*
X820049Y379942D01*
X820265Y379925D01*
X820432Y379908D01*
X820582D01*
X820865Y379925D01*
X821132Y379958D01*
X821382Y380008D01*
X821632Y380075D01*
X822065Y380258D01*
X822248Y380342D01*
X822431Y380442D01*
X822598Y380558D01*
X822731Y380642D01*
X822848Y380742D01*
X822948Y380825D01*
X823031Y380891D01*
X823081Y380941D01*
X823114Y380975D01*
X823131Y380991D01*
X823315Y381208D01*
X823464Y381425D01*
X823614Y381674D01*
X823731Y381908D01*
X823831Y382158D01*
X823914Y382408D01*
X824031Y382891D01*
X824081Y383107D01*
X824114Y383307D01*
X824131Y383507D01*
X824148Y383657D01*
X824164Y383791D01*
Y383974D01*
X824148Y384291D01*
X824131Y384590D01*
X824081Y384890D01*
X824031Y385157D01*
X823964Y385407D01*
X823881Y385640D01*
X823798Y385873D01*
X823731Y386057D01*
X823648Y386240D01*
X823564Y386407D01*
X823481Y386540D01*
X823414Y386657D01*
X823364Y386740D01*
X823315Y386807D01*
X823298Y386840D01*
X823281Y386857D01*
X823098Y387057D01*
X822898Y387240D01*
X822681Y387406D01*
X822448Y387556D01*
X822215Y387690D01*
X821965Y387790D01*
X821498Y387973D01*
X821265Y388040D01*
X821048Y388090D01*
X820865Y388140D01*
X820698Y388173D01*
X820565Y388190D01*
X820449Y388206D01*
X820382Y388223D01*
X820365D01*
X820132Y385774D01*
X820499Y385723D01*
X820815Y385657D01*
X821082Y385574D01*
X821298Y385490D01*
X821465Y385407D01*
X821582Y385324D01*
X821648Y385274D01*
X821665Y385257D01*
X821815Y385074D01*
X821932Y384874D01*
X822015Y384674D01*
X822081Y384474D01*
X822115Y384307D01*
X822131Y384174D01*
Y384041D01*
X822115Y383757D01*
X822065Y383524D01*
X821982Y383307D01*
X821915Y383141D01*
X821832Y383008D01*
X821748Y382908D01*
X821698Y382841D01*
X821682Y382824D01*
X821498Y382674D01*
X821298Y382558D01*
X821082Y382491D01*
X820882Y382424D01*
X820698Y382391D01*
X820548Y382374D01*
X820415D01*
X820132Y382391D01*
X819865Y382458D01*
X819615Y382541D01*
X819382Y382624D01*
X819199Y382724D01*
X819049Y382808D01*
X818949Y382874D01*
X818932Y382891D01*
X818916D01*
X818799Y382974D01*
X818666Y383091D01*
X818516Y383208D01*
X818349Y383358D01*
X818016Y383691D01*
X817666Y384041D01*
X817333Y384374D01*
X817199Y384524D01*
X817066Y384657D01*
X816966Y384774D01*
X816883Y384857D01*
X816833Y384907D01*
X816816Y384924D01*
X816466Y385290D01*
X816133Y385624D01*
X815816Y385940D01*
X815533Y386223D01*
X815250Y386473D01*
X815000Y386690D01*
X814767Y386890D01*
X814550Y387073D01*
X814367Y387223D01*
X814200Y387340D01*
X814067Y387440D01*
X813950Y387523D01*
X813850Y387590D01*
X813784Y387640D01*
X813750Y387656D01*
X813734Y387673D01*
X813300Y387906D01*
X812867Y388090D01*
X812451Y388240D01*
X812067Y388356D01*
X811901Y388390D01*
X811751Y388423D01*
X811618Y388456D01*
X811501Y388473D01*
X811417Y388489D01*
X811334Y388506D01*
D02*
G37*
G36*
X820728Y287464D02*
X818495D01*
X818745Y286814D01*
X819045Y286198D01*
X819195Y285931D01*
X819345Y285665D01*
X819495Y285415D01*
X819645Y285198D01*
X819795Y284998D01*
X819912Y284815D01*
X820045Y284665D01*
X820145Y284531D01*
X820228Y284431D01*
X820295Y284365D01*
X820328Y284315D01*
X820345Y284298D01*
X811097D01*
Y281849D01*
X823977D01*
Y283848D01*
X823761Y283932D01*
X823544Y284032D01*
X823161Y284265D01*
X822811Y284515D01*
X822494Y284781D01*
X822261Y285015D01*
X822144Y285115D01*
X822061Y285215D01*
X821994Y285298D01*
X821944Y285348D01*
X821928Y285381D01*
X821911Y285398D01*
X821611Y285814D01*
X821361Y286198D01*
X821145Y286548D01*
X820995Y286847D01*
X820878Y287097D01*
X820828Y287214D01*
X820795Y287297D01*
X820761Y287364D01*
X820745Y287414D01*
X820728Y287447D01*
Y287464D01*
D02*
G37*
G36*
X412693Y269283D02*
X409269D01*
Y261960D01*
X408919Y262185D01*
X408595Y262435D01*
X408470Y262535D01*
X408369Y262635D01*
X408294Y262685D01*
X408270Y262710D01*
X408170Y262810D01*
X408020Y262935D01*
X407720Y263260D01*
X407370Y263610D01*
X407020Y263985D01*
X406670Y264335D01*
X406395Y264634D01*
X406295Y264760D01*
X406220Y264834D01*
X406170Y264884D01*
X406145Y264909D01*
X405845Y265234D01*
X405570Y265509D01*
X405070Y266034D01*
X404646Y266434D01*
X404296Y266784D01*
X404021Y267034D01*
X403821Y267209D01*
X403721Y267309D01*
X403671Y267334D01*
X403196Y267684D01*
X402746Y267984D01*
X402346Y268234D01*
X401971Y268459D01*
X401671Y268608D01*
X401421Y268708D01*
X401271Y268783D01*
X401246Y268808D01*
X401221D01*
X400771Y268958D01*
X400347Y269083D01*
X399922Y269158D01*
X399547Y269233D01*
X399222Y269258D01*
X398972Y269283D01*
X400636D01*
X398747D01*
X398322Y269258D01*
X397922Y269208D01*
X397547Y269133D01*
X397172Y269033D01*
X396522Y268759D01*
X396248Y268633D01*
X395973Y268484D01*
X395723Y268309D01*
X395523Y268184D01*
X395348Y268034D01*
X395198Y267909D01*
X395073Y267809D01*
X394998Y267734D01*
X394948Y267684D01*
X394923Y267659D01*
X394648Y267334D01*
X394423Y267009D01*
X394198Y266634D01*
X394023Y266284D01*
X393873Y265909D01*
X393748Y265534D01*
X393573Y264809D01*
X393498Y264485D01*
X393448Y264185D01*
X393423Y263885D01*
X393398Y263660D01*
X393373Y263460D01*
Y263185D01*
X393398Y262710D01*
X393423Y262260D01*
X393498Y261810D01*
X393573Y261410D01*
X393673Y261035D01*
X393798Y260686D01*
X393923Y260336D01*
X394023Y260061D01*
X394148Y259786D01*
X394273Y259536D01*
X394398Y259336D01*
X394498Y259161D01*
X394573Y259036D01*
X394648Y258936D01*
X394673Y258886D01*
X394698Y258861D01*
X394973Y258561D01*
X395273Y258286D01*
X395598Y258036D01*
X395948Y257811D01*
X396298Y257611D01*
X396673Y257461D01*
X397372Y257187D01*
X397722Y257087D01*
X398047Y257012D01*
X398322Y256936D01*
X398572Y256887D01*
X398772Y256861D01*
X398947Y256836D01*
X399047Y256812D01*
X399072D01*
X399422Y260486D01*
X398872Y260561D01*
X398397Y260661D01*
X397997Y260786D01*
X397672Y260910D01*
X397422Y261035D01*
X397247Y261160D01*
X397147Y261235D01*
X397122Y261260D01*
X396898Y261535D01*
X396722Y261835D01*
X396598Y262135D01*
X396498Y262435D01*
X396448Y262685D01*
X396423Y262885D01*
Y263085D01*
X396448Y263510D01*
X396522Y263860D01*
X396647Y264185D01*
X396748Y264435D01*
X396872Y264634D01*
X396997Y264785D01*
X397072Y264884D01*
X397097Y264909D01*
X397372Y265134D01*
X397672Y265309D01*
X397997Y265409D01*
X398297Y265509D01*
X398572Y265559D01*
X398797Y265584D01*
X398947D01*
X398972D01*
X398997D01*
X399422Y265559D01*
X399822Y265459D01*
X400197Y265334D01*
X400546Y265209D01*
X400821Y265059D01*
X401046Y264935D01*
X401196Y264834D01*
X401221Y264809D01*
X401246D01*
X401421Y264685D01*
X401621Y264510D01*
X401846Y264335D01*
X402096Y264110D01*
X402596Y263610D01*
X403121Y263085D01*
X403621Y262585D01*
X403821Y262360D01*
X404021Y262160D01*
X404171Y261985D01*
X404296Y261860D01*
X404370Y261785D01*
X404395Y261760D01*
X404920Y261210D01*
X405420Y260711D01*
X405895Y260236D01*
X406320Y259811D01*
X406745Y259436D01*
X407120Y259111D01*
X407470Y258811D01*
X407795Y258536D01*
X408070Y258311D01*
X408320Y258136D01*
X408520Y257986D01*
X408694Y257861D01*
X408844Y257761D01*
X408944Y257686D01*
X408994Y257661D01*
X409019Y257636D01*
X409669Y257286D01*
X410319Y257012D01*
X410944Y256787D01*
X411519Y256612D01*
X411769Y256562D01*
X411994Y256512D01*
X412193Y256462D01*
X412369Y256437D01*
X412494Y256412D01*
X412618Y256387D01*
X393373D01*
X412693D01*
Y269283D01*
D02*
G37*
%LPD*%
D15*
X136000Y157737D02*
Y166108D01*
X179000Y723892D02*
X186407D01*
X142466D02*
X151500D01*
X230618Y166098D02*
Y732271D01*
X186407Y732274D02*
X230603D01*
X186407Y723892D02*
Y732274D01*
X142466Y723892D02*
Y732274D01*
X98257Y732271D02*
X142466Y732274D01*
X98270Y166108D02*
Y732271D01*
Y166108D02*
X136000D01*
Y157737D02*
X192885D01*
Y166108D02*
X230603D01*
X192885Y157737D02*
Y166108D01*
X365481Y399500D02*
X371500D01*
Y385000D02*
Y399500D01*
X381500Y255000D02*
Y270000D01*
X306500Y257500D02*
Y272500D01*
X371500Y385000D02*
X381500D01*
X331250Y399500D02*
X352519D01*
X371500Y195000D02*
X381500D01*
X371500Y180500D02*
Y195000D01*
X331250Y180500D02*
X371500D01*
X365481Y699500D02*
X371500D01*
Y685000D02*
Y699500D01*
X381500Y555000D02*
Y570000D01*
X306500Y557500D02*
Y572500D01*
X371500Y685000D02*
X381500D01*
X331250Y699500D02*
X352519D01*
X371500Y495000D02*
X381500D01*
X371500Y480500D02*
Y495000D01*
X331250Y480500D02*
X371500D01*
X89500Y674500D02*
Y679750D01*
Y710250D02*
Y715500D01*
X58500D02*
X63750D01*
X84250D02*
X89500D01*
X58500Y674500D02*
Y679750D01*
Y710250D02*
Y715500D01*
Y674500D02*
X63750D01*
X84250D02*
X89500D01*
X58500Y210250D02*
Y215500D01*
Y174500D02*
Y179750D01*
X84250Y174500D02*
X89500D01*
X58500D02*
X63750D01*
X89500Y210250D02*
Y215500D01*
Y174500D02*
Y179750D01*
X84250Y215500D02*
X89500D01*
X58500D02*
X63750D01*
D30*
X815400Y219600D02*
G03*
X815400Y219600I1250J0D01*
G01*
Y419600D02*
G03*
X815400Y419600I1250J0D01*
G01*
Y519600D02*
G03*
X815400Y519600I1250J0D01*
G01*
Y619600D02*
G03*
X815400Y619600I1250J0D01*
G01*
Y319600D02*
G03*
X815400Y319600I1250J0D01*
G01*
X292750Y197500D02*
G03*
X292750Y197500I-1250J0D01*
G01*
Y497500D02*
G03*
X292750Y497500I-1250J0D01*
G01*
X85250Y670000D02*
G03*
X85250Y670000I-1250J0D01*
G01*
X65250Y220000D02*
G03*
X65250Y220000I-1250J0D01*
G01*
D31*
X1077000Y270400D02*
X1074650D01*
X1077000Y219600D02*
X1074650D01*
X1077000Y270400D02*
Y219600D01*
X823000Y270400D02*
Y219600D01*
X825350D02*
X823000D01*
X825350Y270400D02*
X823000D01*
X1077000Y470400D02*
X1074650D01*
X1077000Y419600D02*
X1074650D01*
X1077000Y470400D02*
Y419600D01*
X823000Y470400D02*
Y419600D01*
X825350D02*
X823000D01*
X825350Y470400D02*
X823000D01*
X1077000Y570400D02*
X1074650D01*
X1077000Y519600D02*
X1074650D01*
X1077000Y570400D02*
Y519600D01*
X823000Y570400D02*
Y519600D01*
X825350D02*
X823000D01*
X825350Y570400D02*
X823000D01*
X1077000Y670400D02*
X1074650D01*
X1077000Y619600D02*
X1074650D01*
X1077000Y670400D02*
Y619600D01*
X823000Y670400D02*
Y619600D01*
X825350D02*
X823000D01*
X825350Y670400D02*
X823000D01*
X1077000Y370400D02*
X1074650D01*
X1077000Y319600D02*
X1074650D01*
X1077000Y370400D02*
Y319600D01*
X823000Y370400D02*
Y319600D01*
X825350D02*
X823000D01*
X825350Y370400D02*
X823000D01*
X246500Y132500D02*
X291500D01*
Y177500D01*
X246500Y132500D02*
Y177500D01*
X291500D01*
X246500Y702500D02*
X291500D01*
Y747500D01*
X246500Y702500D02*
Y747500D01*
X291500D01*
X321500Y132500D02*
X366500D01*
Y177500D01*
X321500Y132500D02*
Y177500D01*
X366500D01*
X321500Y702500D02*
X366500D01*
Y747500D01*
X321500Y702500D02*
Y747500D01*
X366500D01*
X331500Y462500D02*
X376500D01*
X331500Y417500D02*
Y462500D01*
X376500Y417500D02*
Y462500D01*
X331500Y417500D02*
X376500D01*
D32*
X243000Y155000D02*
G03*
X243000Y155000I-1500J0D01*
G01*
Y725000D02*
G03*
X243000Y725000I-1500J0D01*
G01*
X318000Y155000D02*
G03*
X318000Y155000I-1500J0D01*
G01*
Y725000D02*
G03*
X318000Y725000I-1500J0D01*
G01*
X383000Y440000D02*
G03*
X383000Y440000I-1500J0D01*
G01*
M02*
