G04*
G04 #@! TF.GenerationSoftware,Altium Limited,Altium NEXUS,4.1.1 (18)*
G04*
G04 Layer_Color=32896*
%FSLAX44Y44*%
%MOMM*%
G71*
G04*
G04 #@! TF.SameCoordinates,4F3881F6-B343-40B9-83C6-DCB6D38B7AD4*
G04*
G04*
G04 #@! TF.FilePolarity,Positive*
G04*
G01*
G75*
%ADD49C,0.2540*%
%ADD84C,1.6000*%
%ADD102C,1.6000*%
D49*
X1172540Y127618D02*
Y142853D01*
X1180157D01*
X1182697Y140314D01*
Y135236D01*
X1180157Y132697D01*
X1172540D01*
X1177618D02*
X1182697Y127618D01*
X1190314D02*
X1195393D01*
X1197932Y130157D01*
Y135236D01*
X1195393Y137775D01*
X1190314D01*
X1187775Y135236D01*
Y130157D01*
X1190314Y127618D01*
X1203010Y137775D02*
Y130157D01*
X1205549Y127618D01*
X1213167D01*
Y137775D01*
X1220784Y140314D02*
Y137775D01*
X1218245D01*
X1223324D01*
X1220784D01*
Y130157D01*
X1223324Y127618D01*
X1238559D02*
X1233480D01*
X1230941Y130157D01*
Y135236D01*
X1233480Y137775D01*
X1238559D01*
X1241098Y135236D01*
Y132697D01*
X1230941D01*
X1263950Y140314D02*
Y137775D01*
X1261411D01*
X1266490D01*
X1263950D01*
Y130157D01*
X1266490Y127618D01*
X1276646D02*
X1281725D01*
X1284264Y130157D01*
Y135236D01*
X1281725Y137775D01*
X1276646D01*
X1274107Y135236D01*
Y130157D01*
X1276646Y127618D01*
X1291881D02*
X1296960D01*
X1299499Y130157D01*
Y135236D01*
X1296960Y137775D01*
X1291881D01*
X1289342Y135236D01*
Y130157D01*
X1291881Y127618D01*
X1304577D02*
X1309656D01*
X1307117D01*
Y142853D01*
X1304577D01*
X1332508Y122540D02*
Y137775D01*
X1340126D01*
X1342665Y135236D01*
Y130157D01*
X1340126Y127618D01*
X1332508D01*
X1350282Y137775D02*
X1355361D01*
X1357900Y135236D01*
Y127618D01*
X1350282D01*
X1347743Y130157D01*
X1350282Y132697D01*
X1357900D01*
X1365518Y140314D02*
Y137775D01*
X1362978D01*
X1368057D01*
X1365518D01*
Y130157D01*
X1368057Y127618D01*
X1375674Y142853D02*
Y127618D01*
Y135236D01*
X1378213Y137775D01*
X1383292D01*
X1385831Y135236D01*
Y127618D01*
X1406144D02*
X1411223D01*
X1408684D01*
Y142853D01*
X1406144Y140314D01*
X1418840Y127618D02*
Y130157D01*
X1421380D01*
Y127618D01*
X1418840D01*
X1441693Y142853D02*
X1436615Y140314D01*
X1431536Y135236D01*
Y130157D01*
X1434075Y127618D01*
X1439154D01*
X1441693Y130157D01*
Y132697D01*
X1439154Y135236D01*
X1431536D01*
X1446771Y127618D02*
Y137775D01*
X1449310D01*
X1451850Y135236D01*
Y127618D01*
Y135236D01*
X1454389Y137775D01*
X1456928Y135236D01*
Y127618D01*
X1462006D02*
Y137775D01*
X1464545D01*
X1467085Y135236D01*
Y127618D01*
Y135236D01*
X1469624Y137775D01*
X1472163Y135236D01*
Y127618D01*
D84*
X902000Y180000D02*
D03*
X900000Y182000D02*
D03*
X902000Y180000D02*
D03*
Y180000D02*
D03*
D102*
X-657Y94343D02*
G03*
X5000Y92000I5657J5657D01*
G01*
X-8000Y105000D02*
G03*
X-5646Y99332I8000J0D01*
G01*
X564000Y92000D02*
G03*
X569657Y94343I0J8000D01*
G01*
X564000Y92000D02*
G03*
X569668Y94354I0J8000D01*
G01*
X574657Y99343D02*
G03*
X577000Y105000I-5657J5657D01*
G01*
X574646Y99332D02*
G03*
X577000Y105000I-5646J5668D01*
G01*
X-668Y94354D02*
G03*
X5000Y92000I5668J5646D01*
G01*
X-8000Y105000D02*
G03*
X-5657Y99343I8000J0D01*
G01*
X782949Y124950D02*
G03*
X788607Y127294I2J8000D01*
G01*
X793646Y132332D02*
G03*
X796000Y138000I-5646J5668D01*
G01*
X796000Y738000D02*
G03*
X793646Y743668I-8000J0D01*
G01*
X788657Y748657D02*
G03*
X783000Y751000I-5657J-5657D01*
G01*
X5000Y798000D02*
G03*
X-668Y795646I0J-8000D01*
G01*
X-5657Y790657D02*
G03*
X-8000Y785000I5657J-5657D01*
G01*
X-5646Y790668D02*
G03*
X-8000Y785000I5646J-5668D01*
G01*
X5000Y798000D02*
G03*
X-657Y795657I0J-8000D01*
G01*
X617657D02*
G03*
X612000Y798000I-5657J-5657D01*
G01*
X617668Y795646D02*
G03*
X612000Y798000I-5668J-5646D01*
G01*
X625000Y785000D02*
G03*
X622657Y790657I-8000J0D01*
G01*
X625000Y785000D02*
G03*
X622646Y790668I-8000J0D01*
G01*
X725657Y769657D02*
G03*
X720000Y772000I-5657J-5657D01*
G01*
X733000Y759000D02*
G03*
X730657Y764657I-8000J0D01*
G01*
X733000Y759000D02*
G03*
X730646Y764668I-8000J0D01*
G01*
X725668Y769646D02*
G03*
X720000Y772000I-5668J-5646D01*
G01*
X782949Y124950D02*
G03*
X788618Y127304I2J8000D01*
G01*
X793657Y132343D02*
G03*
X796000Y138000I-5657J5657D01*
G01*
X909332Y94354D02*
G03*
X915000Y92000I5668J5646D01*
G01*
X902000Y180000D02*
G03*
X900000Y182000I-1999J0D01*
G01*
X804332Y184354D02*
G03*
X810000Y182000I5668J5646D01*
G01*
X797000Y195000D02*
G03*
X799354Y189332I8000J0D01*
G01*
X797000Y195000D02*
G03*
X799343Y189343I8000J0D01*
G01*
X804343Y184343D02*
G03*
X810000Y182000I5657J5657D01*
G01*
X909343Y94343D02*
G03*
X915000Y92000I5657J5657D01*
G01*
X902000Y105000D02*
G03*
X904354Y99332I8000J0D01*
G01*
X1149000Y92000D02*
G03*
X1154657Y94343I0J8000D01*
G01*
X1149000Y92000D02*
G03*
X1154668Y94354I0J8000D01*
G01*
X1159646Y99332D02*
G03*
X1162000Y105000I-5646J5668D01*
G01*
X1159657Y99343D02*
G03*
X1162000Y105000I-5657J5657D01*
G01*
X902000D02*
G03*
X904343Y99343I8000J0D01*
G01*
X799343Y700657D02*
G03*
X797000Y695000I5657J-5657D01*
G01*
X799354Y700668D02*
G03*
X797000Y695000I5646J-5668D01*
G01*
X810000Y708000D02*
G03*
X804332Y705646I0J-8000D01*
G01*
X788668Y748646D02*
G03*
X783000Y751000I-5668J-5646D01*
G01*
X796000Y738000D02*
G03*
X793657Y743657I-8000J0D01*
G01*
X810000Y708000D02*
G03*
X804343Y705657I0J-8000D01*
G01*
X900000Y708000D02*
G03*
X902000Y710000I0J2000D01*
G01*
X915000Y798000D02*
G03*
X909343Y795657I0J-8000D01*
G01*
X904343Y790657D02*
G03*
X902000Y785000I5657J-5657D01*
G01*
X904343Y790657D02*
G03*
X902000Y785000I5657J-5657D01*
G01*
X915000Y798000D02*
G03*
X909343Y795657I0J-8000D01*
G01*
X1155657Y795657D02*
G03*
X1150000Y798000I-5657J-5657D01*
G01*
X1162000Y786000D02*
G03*
X1159657Y791657I-8000J0D01*
G01*
X1162000Y786000D02*
G03*
X1159646Y791668I-8000J0D01*
G01*
X1155668Y795646D02*
G03*
X1150000Y798000I-5668J-5646D01*
G01*
X-668Y94354D02*
X-657Y94343D01*
X-5646Y99332D02*
X-668Y94354D01*
X-5657Y99343D02*
X-5646Y99332D01*
X569657Y94343D02*
X569668Y94354D01*
X574646Y99332D01*
X574657Y99343D01*
X577000Y124999D02*
X782949Y124950D01*
X577000Y105000D02*
Y124999D01*
X-5657Y790657D02*
X-5646Y790668D01*
X-668Y795646D01*
X-657Y795657D01*
X622646Y790668D02*
X622657Y790657D01*
X617668Y795646D02*
X622646Y790668D01*
X617657Y795657D02*
X617668Y795646D01*
X733000Y751000D02*
Y759000D01*
Y751000D02*
X783000D01*
X625000Y772000D02*
X720000D01*
X625000D02*
Y785000D01*
X730646Y764668D02*
X730657Y764657D01*
X725668Y769646D02*
X730646Y764668D01*
X725657Y769657D02*
X725668Y769646D01*
X788607Y127294D02*
X788618Y127304D01*
X793646Y132332D01*
X793657Y132343D01*
X909332Y94354D02*
X909343Y94343D01*
X904354Y99332D02*
X909332Y94354D01*
X904343Y99343D02*
X904354Y99332D01*
X902000Y105000D02*
Y180000D01*
Y180000D01*
X796000Y738000D02*
X796000Y138000D01*
X804332Y184354D02*
X804343Y184343D01*
X799354Y189332D02*
X804332Y184354D01*
X799343Y189343D02*
X799354Y189332D01*
X810000Y182000D02*
X900000Y182000D01*
X900000D01*
X1154657Y94343D02*
X1154668Y94354D01*
X1159646Y99332D01*
X1159657Y99343D01*
X797000Y195000D02*
Y695000D01*
X799343Y700657D02*
X799354Y700668D01*
X804332Y705646D01*
X804343Y705657D01*
X793646Y743668D02*
X793657Y743657D01*
X788668Y748646D02*
X793646Y743668D01*
X788657Y748657D02*
X788668Y748646D01*
X810000Y708000D02*
X900000D01*
X902000Y710000D02*
Y785000D01*
X904343Y790657D02*
X909343Y795657D01*
X1159646Y791668D02*
X1159657Y791657D01*
X1155668Y795646D02*
X1159646Y791668D01*
X1155657Y795657D02*
X1155668Y795646D01*
M02*
