G04*
G04 #@! TF.GenerationSoftware,Altium Limited,Altium NEXUS,4.1.1 (18)*
G04*
G04 Layer_Physical_Order=3*
G04 Layer_Color=128*
%FSLAX44Y44*%
%MOMM*%
G71*
G04*
G04 #@! TF.SameCoordinates,4F3881F6-B343-40B9-83C6-DCB6D38B7AD4*
G04*
G04*
G04 #@! TF.FilePolarity,Negative*
G04*
G01*
G75*
%ADD16C,0.1500*%
%ADD32C,0.3000*%
%ADD42C,1.0160*%
%ADD43C,4.2160*%
%ADD44C,1.7780*%
%ADD45C,0.7080*%
%ADD47C,1.6080*%
%ADD48C,2.1080*%
%ADD49C,0.2540*%
%ADD50C,3.2080*%
%ADD51C,3.5080*%
%ADD52C,2.7080*%
D16*
X922915Y751500D02*
X923748Y750667D01*
Y749001D01*
X922915Y748168D01*
X922082D01*
X921249Y749001D01*
Y749834D01*
Y749001D01*
X920416Y748168D01*
X919583D01*
X918750Y749001D01*
Y750667D01*
X919583Y751500D01*
X713335Y222500D02*
X712502Y223333D01*
Y224999D01*
X713335Y225832D01*
X714168D01*
X715001Y224999D01*
Y224166D01*
Y224999D01*
X715834Y225832D01*
X716667D01*
X717500Y224999D01*
Y223333D01*
X716667Y222500D01*
D32*
X140705Y687705D02*
X143000Y690000D01*
X395149Y588149D02*
Y594851D01*
X388000Y602000D02*
X395149Y594851D01*
X356000Y207000D02*
Y259000D01*
X382000Y285000D01*
X332000Y254696D02*
X354000Y276696D01*
X332000Y250375D02*
Y254696D01*
X379856Y174000D02*
X385887Y180030D01*
X396410D02*
X411500D01*
X391149Y185292D02*
X396410Y180030D01*
X391149Y185292D02*
Y285553D01*
X385322Y179466D02*
X391149Y185292D01*
X397122Y294529D02*
Y300359D01*
X394536Y302945D02*
X397122Y300359D01*
X395266Y292674D02*
X397122Y294529D01*
X391945Y302945D02*
X394536D01*
X390914Y292674D02*
X395266D01*
X389495Y291255D02*
X390914Y292674D01*
X389495Y287081D02*
Y291255D01*
Y287081D02*
X391024Y285553D01*
X404553D01*
X409000Y290000D01*
Y308000D01*
X404000Y313000D02*
X409000Y308000D01*
X390304Y313000D02*
X404000D01*
X371625Y294321D02*
X390304Y313000D01*
X382000Y293000D02*
X391945Y302945D01*
X382000Y285000D02*
Y293000D01*
X354000Y276696D02*
X371625Y294321D01*
X332000Y220000D02*
Y250375D01*
X309096Y197096D02*
X332000Y220000D01*
X274096Y197096D02*
X309096D01*
X314000Y237000D02*
Y238000D01*
X329000Y157474D02*
Y180000D01*
X356000Y207000D01*
X389701Y287000D02*
X391149Y285553D01*
X389577Y287000D02*
X389701D01*
X411588Y721672D02*
X415024Y718236D01*
X527231Y638000D02*
X552000Y613231D01*
X392000Y653000D02*
X393128Y654128D01*
X393029Y650971D02*
Y655066D01*
X415024Y710024D02*
Y718236D01*
X393128Y688128D02*
X415024Y710024D01*
X393128Y654128D02*
Y688128D01*
X552000Y288890D02*
Y613231D01*
X514110Y251000D02*
X552000Y288890D01*
X422674Y251000D02*
X514110D01*
X412000Y240326D02*
X422674Y251000D01*
X412000Y200172D02*
Y240326D01*
Y200172D02*
X418000Y194172D01*
Y184000D02*
Y194172D01*
X414000Y180000D02*
X418000Y184000D01*
X412000Y180000D02*
X414000D01*
X376000Y602000D02*
X388000D01*
X382000Y575000D02*
X395149Y588149D01*
X345000Y575000D02*
X382000D01*
X309000Y611000D02*
X345000Y575000D01*
X309000Y611000D02*
Y686000D01*
X294430Y700570D02*
X309000Y686000D01*
X131808Y641192D02*
Y656786D01*
Y641192D02*
X138000Y635000D01*
X145890D01*
X131808Y641192D02*
X138000Y635000D01*
X138849D01*
X268904Y197096D02*
X274096D01*
X168226Y700570D02*
X294430D01*
X150300Y682644D02*
X168226Y700570D01*
X150300Y676212D02*
Y682644D01*
Y676212D02*
X165350Y661161D01*
Y625350D02*
Y661161D01*
X156450Y616450D02*
X165350Y625350D01*
X134580Y616450D02*
X156450D01*
X88654Y197096D02*
X268904D01*
X63136Y222614D02*
X88654Y197096D01*
X63136Y635621D02*
X63136Y222614D01*
X63136Y635621D02*
X68137Y640622D01*
X90378D01*
X114550Y616450D01*
X134580D01*
X63714Y667000D02*
X121594D01*
X45000Y648286D02*
X63714Y667000D01*
X71500Y180000D02*
X329000D01*
X45000Y206500D02*
X71500Y180000D01*
X45000Y648286D02*
X45000Y206500D01*
X406000Y638000D02*
X527231D01*
X393029Y650971D02*
X406000Y638000D01*
X329000Y157474D02*
X335474Y151000D01*
X356856D01*
X379856Y174000D01*
X325907Y722289D02*
X327016Y723398D01*
X321289Y722289D02*
X325907D01*
X169489D02*
X321289D01*
X363000Y727000D02*
X368000Y722000D01*
Y623000D02*
Y722000D01*
Y623000D02*
X376000Y615000D01*
Y611000D02*
Y615000D01*
X368328Y721672D02*
X411588D01*
X376000Y602000D02*
Y613000D01*
X361000Y729000D02*
X368328Y721672D01*
X332618Y729000D02*
X361000D01*
X327000Y723382D02*
X332618Y729000D01*
X327016Y625984D02*
Y723398D01*
Y625984D02*
X363000Y590000D01*
X373000D01*
X376000Y593000D01*
Y602000D01*
X121594Y667000D02*
X131808Y656786D01*
X143000Y695800D02*
X169489Y722289D01*
X143000Y690000D02*
Y695800D01*
X140705Y669978D02*
Y687705D01*
Y669978D02*
X150068Y660615D01*
Y639178D02*
Y660615D01*
X145890Y635000D02*
X150068Y639178D01*
D42*
X0Y0D02*
X1153990D01*
X1153990Y900000D02*
X1153990Y0D01*
X0Y900000D02*
X1153990Y900000D01*
X0Y0D02*
Y900000D01*
X910000Y180000D02*
G03*
X900000Y190000I-10000J0D01*
G01*
X900000Y700000D02*
G03*
X910000Y710000I0J10000D01*
G01*
X1154000Y786000D02*
X1150000Y790000D01*
X915000D01*
X910000Y785000D01*
Y710000D01*
X900000Y700000D02*
X810000D01*
X805000Y695000D01*
Y195000D01*
X810000Y190000D02*
X805000Y195000D01*
X900000Y190000D02*
X810000Y190000D01*
X915000Y100000D02*
X910000Y105000D01*
X1149000Y100000D02*
X915000D01*
X1154000Y105000D02*
X1149000Y100000D01*
X1154000Y786000D02*
Y105000D01*
X910000Y180000D02*
Y105000D01*
X617000Y769000D02*
G03*
X622000Y764000I5000J0D01*
G01*
X725000Y748000D02*
G03*
X730000Y743000I5000J0D01*
G01*
X574000Y133000D02*
G03*
X569000Y128000I-0J-5000D01*
G01*
X5000Y100000D02*
X564000D01*
X569000Y105000D01*
Y128000D01*
X782951Y132950D02*
X788000Y138000D01*
X788000Y738000D02*
X788000Y138000D01*
X783000Y743000D02*
X788000Y738000D01*
X730000Y743000D02*
X783000D01*
X725000Y748000D02*
Y759000D01*
X720000Y764000D02*
X725000Y759000D01*
X622000Y764000D02*
X720000D01*
X617000Y769000D02*
Y785000D01*
X612000Y790000D02*
X617000Y785000D01*
X5000Y790000D02*
X612000D01*
X0Y785000D02*
X5000Y790000D01*
X0Y105000D02*
Y785000D01*
Y105000D02*
X5000Y100000D01*
X574000Y133000D02*
X782951Y132950D01*
D43*
X1104000Y850000D02*
D03*
Y50000D02*
D03*
X50000D02*
D03*
Y850000D02*
D03*
D44*
X959500Y173100D02*
D03*
X990000Y716900D02*
D03*
X194500Y716900D02*
D03*
X164000Y173100D02*
D03*
Y716800D02*
D03*
X133500Y173200D02*
D03*
D45*
X1040650Y248150D02*
D03*
X1064000Y241000D02*
D03*
X1002104Y238187D02*
D03*
X1028000Y521000D02*
D03*
X1029000Y496000D02*
D03*
X1014000Y597000D02*
D03*
X951000Y623000D02*
D03*
X950610Y604570D02*
D03*
X924000Y629000D02*
D03*
X942000Y496000D02*
D03*
X1054413Y451350D02*
D03*
X1054350Y438650D02*
D03*
X945550Y699909D02*
D03*
X970950Y700292D02*
D03*
X996350Y700115D02*
D03*
X1021750Y700034D02*
D03*
X1047150Y699850D02*
D03*
X927950Y324487D02*
D03*
X977425Y222915D02*
D03*
X990154Y247892D02*
D03*
X1054277Y235403D02*
D03*
X1054397Y197338D02*
D03*
X939048Y197199D02*
D03*
X925430Y210187D02*
D03*
X963219Y398850D02*
D03*
X1002855Y412994D02*
D03*
X1004000Y426000D02*
D03*
X989000Y398850D02*
D03*
X1002875Y375711D02*
D03*
X1003500Y370750D02*
D03*
X1019538Y345677D02*
D03*
X940000Y298850D02*
D03*
X965000D02*
D03*
X991000D02*
D03*
X1016000D02*
D03*
X1028576Y273444D02*
D03*
X1042000Y298850D02*
D03*
X1028000Y223000D02*
D03*
X951000D02*
D03*
X1142000Y723900D02*
D03*
X1129000D02*
D03*
X1101000D02*
D03*
X1114000D02*
D03*
Y750900D02*
D03*
X1101000D02*
D03*
X1129000D02*
D03*
X1142000D02*
D03*
Y668500D02*
D03*
X1129000D02*
D03*
X1101000D02*
D03*
X1114000D02*
D03*
Y695500D02*
D03*
X1101000D02*
D03*
X1129000D02*
D03*
X1142000D02*
D03*
Y591400D02*
D03*
X1129000D02*
D03*
X1101000D02*
D03*
X1114000D02*
D03*
Y618400D02*
D03*
X1101000D02*
D03*
X1129000D02*
D03*
X1142000D02*
D03*
Y536000D02*
D03*
X1129000D02*
D03*
X1101000D02*
D03*
X1114000D02*
D03*
Y563000D02*
D03*
X1101000D02*
D03*
X1129000D02*
D03*
X1142000D02*
D03*
Y458900D02*
D03*
X1129000D02*
D03*
X1101000D02*
D03*
X1114000D02*
D03*
Y485900D02*
D03*
X1101000D02*
D03*
X1129000D02*
D03*
X1142000D02*
D03*
Y403500D02*
D03*
X1129000D02*
D03*
X1101000D02*
D03*
X1114000D02*
D03*
Y430500D02*
D03*
X1101000D02*
D03*
X1129000D02*
D03*
X1142000D02*
D03*
Y138500D02*
D03*
X1129000D02*
D03*
X1101000D02*
D03*
X1114000D02*
D03*
Y165500D02*
D03*
X1101000D02*
D03*
X1129000D02*
D03*
X1142000D02*
D03*
Y193900D02*
D03*
X1129000D02*
D03*
X1101000D02*
D03*
X1114000D02*
D03*
Y220900D02*
D03*
X1101000D02*
D03*
X1129000D02*
D03*
X1142000D02*
D03*
Y326400D02*
D03*
X1129000D02*
D03*
X1101000D02*
D03*
X1114000D02*
D03*
Y353400D02*
D03*
X1101000D02*
D03*
X1129000D02*
D03*
X1142000D02*
D03*
Y298000D02*
D03*
X1129000D02*
D03*
X1101000D02*
D03*
X1114000D02*
D03*
Y271000D02*
D03*
X1101000D02*
D03*
X1129000D02*
D03*
X1142000D02*
D03*
X1054950Y278060D02*
D03*
X848000Y433250D02*
D03*
X939351Y591150D02*
D03*
X964283Y591269D02*
D03*
X990000Y591150D02*
D03*
X1003328Y513720D02*
D03*
X1004150Y521146D02*
D03*
X1054162Y533701D02*
D03*
X1050169Y483034D02*
D03*
X1054311Y596750D02*
D03*
X1057550Y592941D02*
D03*
X977734Y584857D02*
D03*
X973808Y610204D02*
D03*
X1048511Y609799D02*
D03*
X978750Y561803D02*
D03*
X963651Y491700D02*
D03*
X959905Y495491D02*
D03*
X975720Y557515D02*
D03*
X1038451Y544986D02*
D03*
X1042490Y547934D02*
D03*
X1017411Y545357D02*
D03*
X1012508Y546339D02*
D03*
X1029550Y546974D02*
D03*
X992100Y546152D02*
D03*
X987100Y546189D02*
D03*
X1018305Y495836D02*
D03*
X1026250Y534500D02*
D03*
X998113Y483085D02*
D03*
X1002103Y498126D02*
D03*
X952323Y599873D02*
D03*
X948786Y596338D02*
D03*
X1029468Y467740D02*
D03*
X1027112Y472517D02*
D03*
X1005799Y494730D02*
D03*
X972750Y457500D02*
D03*
X978242Y523623D02*
D03*
X978750Y518649D02*
D03*
X914250Y544250D02*
D03*
X909250D02*
D03*
X927600Y565650D02*
D03*
X952035Y563179D02*
D03*
X953340Y558332D02*
D03*
X952004Y551092D02*
D03*
X954930Y546773D02*
D03*
X949543Y456093D02*
D03*
X960118Y546162D02*
D03*
X965118Y546118D02*
D03*
X896500Y599250D02*
D03*
X902614Y594167D02*
D03*
X906601Y591150D02*
D03*
X892964Y595714D02*
D03*
X853439Y592672D02*
D03*
X849904Y596207D02*
D03*
X882000Y595000D02*
D03*
X878500Y598750D02*
D03*
X870450Y634068D02*
D03*
X872438Y639188D02*
D03*
X952743Y447021D02*
D03*
X1048250Y419352D02*
D03*
X975543Y436485D02*
D03*
X927527Y443141D02*
D03*
X895850Y466500D02*
D03*
X870450Y471611D02*
D03*
X1026382Y421702D02*
D03*
X975750Y395250D02*
D03*
X1028204Y355093D02*
D03*
X875031Y407365D02*
D03*
X902250Y403865D02*
D03*
X877150Y306274D02*
D03*
X1000864Y421700D02*
D03*
X1054950Y356513D02*
D03*
X964750Y349250D02*
D03*
X990175Y349199D02*
D03*
X1015250Y348250D02*
D03*
X1040750Y346250D02*
D03*
X1002449Y281924D02*
D03*
X952000Y304500D02*
D03*
X1051442Y368332D02*
D03*
X1028118Y267618D02*
D03*
X945493Y368950D02*
D03*
X926903Y318114D02*
D03*
X898944Y293187D02*
D03*
X921250Y458000D02*
D03*
X920250Y382000D02*
D03*
X861150Y395400D02*
D03*
X886500Y391250D02*
D03*
X927150Y578350D02*
D03*
X354320Y425634D02*
D03*
X392152Y429337D02*
D03*
X294719Y592433D02*
D03*
X326967Y371863D02*
D03*
X316693Y352547D02*
D03*
X316929Y337606D02*
D03*
X316693Y367589D02*
D03*
X350392Y372293D02*
D03*
X338661Y371080D02*
D03*
X190800Y489450D02*
D03*
X203600D02*
D03*
X216500D02*
D03*
X230897Y226049D02*
D03*
X230336Y213826D02*
D03*
X295469Y210132D02*
D03*
X318674D02*
D03*
X230259Y219649D02*
D03*
X354000Y450269D02*
D03*
X178100Y451350D02*
D03*
X165350D02*
D03*
X216500D02*
D03*
X152740D02*
D03*
X203600D02*
D03*
X190800D02*
D03*
X492724Y690548D02*
D03*
X725000Y500000D02*
D03*
X700000Y450000D02*
D03*
X725000Y400000D02*
D03*
X700000Y350000D02*
D03*
X725000Y300000D02*
D03*
X700000Y250000D02*
D03*
X725000Y200000D02*
D03*
X675000Y600000D02*
D03*
X650000Y550000D02*
D03*
X675000Y500000D02*
D03*
X650000Y450000D02*
D03*
X675000Y400000D02*
D03*
X650000Y350000D02*
D03*
X675000Y300000D02*
D03*
X650000Y250000D02*
D03*
X675000Y200000D02*
D03*
X600000Y550000D02*
D03*
X625000Y500000D02*
D03*
X600000Y450000D02*
D03*
X625000Y400000D02*
D03*
X600000Y350000D02*
D03*
Y250000D02*
D03*
X625000Y200000D02*
D03*
X575000Y700000D02*
D03*
Y600000D02*
D03*
X550000Y550000D02*
D03*
X575000Y500000D02*
D03*
X550000Y450000D02*
D03*
X575000Y400000D02*
D03*
Y300000D02*
D03*
X550000Y250000D02*
D03*
X575000Y200000D02*
D03*
X525000Y600000D02*
D03*
Y500000D02*
D03*
X500000Y450000D02*
D03*
X525000Y200000D02*
D03*
X475000Y600000D02*
D03*
Y500000D02*
D03*
Y400000D02*
D03*
X425000Y600000D02*
D03*
Y500000D02*
D03*
X375000Y400000D02*
D03*
X325000Y200000D02*
D03*
X275000Y700000D02*
D03*
Y200000D02*
D03*
X125000Y700000D02*
D03*
X75000Y600000D02*
D03*
Y500000D02*
D03*
Y400000D02*
D03*
Y300000D02*
D03*
X538000Y250000D02*
D03*
Y230000D02*
D03*
X453750Y413250D02*
D03*
X362584Y440000D02*
D03*
X464160Y294256D02*
D03*
X351193Y619929D02*
D03*
X234064Y630092D02*
D03*
X397312Y612863D02*
D03*
X464481Y378256D02*
D03*
X458343Y438885D02*
D03*
X468000Y162000D02*
D03*
X464924Y172076D02*
D03*
X460134Y167134D02*
D03*
X453569Y243902D02*
D03*
X403635Y580085D02*
D03*
X372000Y574210D02*
D03*
X407310Y574572D02*
D03*
X371000Y589032D02*
D03*
X405689Y604580D02*
D03*
X400416Y598586D02*
D03*
X127350Y311650D02*
D03*
Y362450D02*
D03*
X140050D02*
D03*
Y375150D02*
D03*
X127350D02*
D03*
Y324350D02*
D03*
X140050D02*
D03*
Y337050D02*
D03*
Y629150D02*
D03*
X554000Y420000D02*
D03*
X407832Y489397D02*
D03*
X435714Y373407D02*
D03*
X447880Y298343D02*
D03*
X481073Y362917D02*
D03*
X491000Y382947D02*
D03*
X529024Y329898D02*
D03*
Y311024D02*
D03*
X231000Y238000D02*
D03*
X231270Y251460D02*
D03*
X231237Y232639D02*
D03*
X231369Y258270D02*
D03*
X140050Y400550D02*
D03*
Y413250D02*
D03*
X509000Y375000D02*
D03*
X435387Y384476D02*
D03*
X467425Y701425D02*
D03*
X457118Y696955D02*
D03*
X461425Y706425D02*
D03*
X457059Y651159D02*
D03*
X371738Y675000D02*
D03*
X467546Y628316D02*
D03*
X457382Y631909D02*
D03*
X463000Y636000D02*
D03*
X468000Y656000D02*
D03*
X393029Y655066D02*
D03*
X346000Y640000D02*
D03*
X341000Y645000D02*
D03*
X335000Y650000D02*
D03*
X371303D02*
D03*
X371200Y645000D02*
D03*
X371000Y640000D02*
D03*
X374671Y488710D02*
D03*
X393000Y531000D02*
D03*
X394267Y526102D02*
D03*
X379730Y489498D02*
D03*
X385993Y489575D02*
D03*
X392743Y489297D02*
D03*
X370000Y540305D02*
D03*
X371625Y290000D02*
D03*
X420581Y476146D02*
D03*
X352538Y155000D02*
D03*
X352673Y725000D02*
D03*
X59000Y730000D02*
D03*
X64364Y660000D02*
D03*
X64554Y650000D02*
D03*
X67608Y628609D02*
D03*
X67500Y611500D02*
D03*
Y329500D02*
D03*
Y310500D02*
D03*
X84333Y240000D02*
D03*
X84000Y230000D02*
D03*
X69750Y181750D02*
D03*
X60000Y160000D02*
D03*
X269000Y707000D02*
D03*
X344000Y713000D02*
D03*
X462963Y661510D02*
D03*
X392918Y661581D02*
D03*
X203853Y654584D02*
D03*
X317924Y651441D02*
D03*
X260000Y725000D02*
D03*
X277547D02*
D03*
X474544Y684133D02*
D03*
X473921Y194764D02*
D03*
X496617Y164166D02*
D03*
X418032Y171050D02*
D03*
X418005Y658995D02*
D03*
X269300Y169822D02*
D03*
X437114Y364044D02*
D03*
X433331Y368846D02*
D03*
X429693Y359824D02*
D03*
X392163Y340007D02*
D03*
X392358Y345329D02*
D03*
X392118Y350761D02*
D03*
X460134Y215192D02*
D03*
X464924Y220166D02*
D03*
X468625Y210003D02*
D03*
X418000Y219000D02*
D03*
X371731Y199979D02*
D03*
X371844Y205217D02*
D03*
X343675Y168570D02*
D03*
X260072Y155000D02*
D03*
X278000D02*
D03*
X496143Y734836D02*
D03*
X474520Y729765D02*
D03*
X418322Y705089D02*
D03*
X492880Y521769D02*
D03*
X492650Y534650D02*
D03*
X441577Y542577D02*
D03*
X547561Y459960D02*
D03*
X393483Y243129D02*
D03*
X393394Y520000D02*
D03*
X395303Y515000D02*
D03*
X345393Y581387D02*
D03*
Y550159D02*
D03*
X341135Y574195D02*
D03*
X335078Y569748D02*
D03*
X330000Y566000D02*
D03*
X317924Y197632D02*
D03*
X294719D02*
D03*
Y337632D02*
D03*
X318924Y284632D02*
D03*
Y299632D02*
D03*
Y315632D02*
D03*
X317924Y382632D02*
D03*
Y497632D02*
D03*
Y512632D02*
D03*
X294719Y512433D02*
D03*
Y577632D02*
D03*
X203600Y564219D02*
D03*
X190800D02*
D03*
X216500D02*
D03*
X294690Y619158D02*
D03*
X317896D02*
D03*
X317924Y577632D02*
D03*
Y592632D02*
D03*
X294719Y607433D02*
D03*
X317924Y607632D02*
D03*
X293827Y639219D02*
D03*
X317598Y639451D02*
D03*
X294719Y652433D02*
D03*
Y682433D02*
D03*
X317924Y682632D02*
D03*
Y667632D02*
D03*
X294719Y667433D02*
D03*
X372000Y680000D02*
D03*
X153625Y552282D02*
D03*
X372000Y550000D02*
D03*
X165350Y565650D02*
D03*
X178100D02*
D03*
X140768Y527550D02*
D03*
Y540250D02*
D03*
X166625Y552950D02*
D03*
X153625Y540250D02*
D03*
X140050Y514850D02*
D03*
X203892Y578439D02*
D03*
X216500Y578350D02*
D03*
X246750Y262202D02*
D03*
X231134Y291311D02*
D03*
X227598Y287598D02*
D03*
X241750Y261148D02*
D03*
X190800Y616450D02*
D03*
X203600Y603750D02*
D03*
X331535Y276465D02*
D03*
X328000Y280000D02*
D03*
X229920Y296635D02*
D03*
X235893Y282435D02*
D03*
X235545Y277448D02*
D03*
X230550Y332780D02*
D03*
X234086Y336315D02*
D03*
X140700Y298950D02*
D03*
Y286250D02*
D03*
X153625Y273550D02*
D03*
Y286250D02*
D03*
Y298950D02*
D03*
Y248150D02*
D03*
X231138Y245702D02*
D03*
X190800Y209375D02*
D03*
X203600D02*
D03*
X152740D02*
D03*
X140050D02*
D03*
X165350D02*
D03*
X178100D02*
D03*
X216500D02*
D03*
X127350D02*
D03*
X115625Y248150D02*
D03*
Y235450D02*
D03*
Y222750D02*
D03*
X128363Y223763D02*
D03*
X128000Y248150D02*
D03*
Y235450D02*
D03*
X152740Y222750D02*
D03*
X165350D02*
D03*
X190800D02*
D03*
X140050D02*
D03*
X216500D02*
D03*
X178100D02*
D03*
X203600D02*
D03*
X140700Y235450D02*
D03*
Y273550D02*
D03*
Y260850D02*
D03*
Y248150D02*
D03*
X153625Y235450D02*
D03*
Y260850D02*
D03*
X166100D02*
D03*
Y248150D02*
D03*
Y273550D02*
D03*
X178800Y260850D02*
D03*
Y273550D02*
D03*
Y248150D02*
D03*
X216500D02*
D03*
X203600D02*
D03*
X191625Y260850D02*
D03*
Y273550D02*
D03*
X204200D02*
D03*
Y260850D02*
D03*
X128000Y286250D02*
D03*
Y273550D02*
D03*
Y260850D02*
D03*
Y298950D02*
D03*
X115625Y286250D02*
D03*
Y273550D02*
D03*
Y260850D02*
D03*
Y311650D02*
D03*
Y298950D02*
D03*
X153625Y324350D02*
D03*
Y311650D02*
D03*
X166100Y298950D02*
D03*
Y337050D02*
D03*
Y349750D02*
D03*
Y286250D02*
D03*
Y324350D02*
D03*
Y311650D02*
D03*
X178800Y337050D02*
D03*
Y349750D02*
D03*
Y324350D02*
D03*
Y311650D02*
D03*
Y286250D02*
D03*
Y298950D02*
D03*
X191625Y337050D02*
D03*
Y324350D02*
D03*
Y311650D02*
D03*
Y298950D02*
D03*
Y286250D02*
D03*
Y362450D02*
D03*
Y349750D02*
D03*
X204200Y298950D02*
D03*
Y311650D02*
D03*
Y324350D02*
D03*
Y349750D02*
D03*
Y286250D02*
D03*
Y337050D02*
D03*
Y362450D02*
D03*
X114800Y337050D02*
D03*
X127350D02*
D03*
X140700Y311650D02*
D03*
X114800Y324350D02*
D03*
X153400Y337050D02*
D03*
Y349750D02*
D03*
X152740Y362375D02*
D03*
X178800Y362450D02*
D03*
X165350Y362375D02*
D03*
X57000Y211000D02*
D03*
X296000Y332500D02*
D03*
Y327500D02*
D03*
X232349Y317064D02*
D03*
X216300Y324350D02*
D03*
X296000Y362500D02*
D03*
Y357500D02*
D03*
X60625Y229375D02*
D03*
X78250Y207500D02*
D03*
Y182500D02*
D03*
X102000Y298950D02*
D03*
X57000Y520000D02*
D03*
X60625Y532375D02*
D03*
X114882Y525653D02*
D03*
X102000Y527550D02*
D03*
X203600Y552950D02*
D03*
X166100Y527550D02*
D03*
Y540250D02*
D03*
X153400Y527550D02*
D03*
X152740Y565650D02*
D03*
Y489450D02*
D03*
X265000Y401000D02*
D03*
X190800Y400550D02*
D03*
X165350D02*
D03*
X153208Y400082D02*
D03*
X178100Y400550D02*
D03*
X216200D02*
D03*
X203600D02*
D03*
X268535Y397464D02*
D03*
X216500Y438650D02*
D03*
Y425950D02*
D03*
Y464050D02*
D03*
X203600D02*
D03*
X216500Y413250D02*
D03*
X231122Y348150D02*
D03*
X264941Y345593D02*
D03*
X178100Y413250D02*
D03*
X203600D02*
D03*
X152740D02*
D03*
X165350D02*
D03*
X190800D02*
D03*
X140050Y425950D02*
D03*
X152740D02*
D03*
X165350Y438650D02*
D03*
X152740D02*
D03*
X140050Y476750D02*
D03*
X203600Y502150D02*
D03*
X190800D02*
D03*
X216500D02*
D03*
X235134Y351350D02*
D03*
X296000Y347500D02*
D03*
Y342500D02*
D03*
X268705Y342302D02*
D03*
X267396Y355093D02*
D03*
X216300Y349750D02*
D03*
X217050Y299000D02*
D03*
X216200Y387850D02*
D03*
X178100D02*
D03*
Y375150D02*
D03*
X190800Y387850D02*
D03*
X203500D02*
D03*
Y375150D02*
D03*
X216300Y362450D02*
D03*
Y311650D02*
D03*
Y286250D02*
D03*
Y273550D02*
D03*
X219950Y337050D02*
D03*
X296000Y312000D02*
D03*
Y317000D02*
D03*
X228814Y313528D02*
D03*
X233455Y300171D02*
D03*
X296000Y302500D02*
D03*
Y297500D02*
D03*
Y287500D02*
D03*
Y282500D02*
D03*
X233442Y376750D02*
D03*
X229336Y373897D02*
D03*
X232846Y389450D02*
D03*
X331451Y294099D02*
D03*
X327916Y297635D02*
D03*
X330958Y309210D02*
D03*
X327423Y312745D02*
D03*
X321592Y323585D02*
D03*
X318056Y327121D02*
D03*
X296000Y377500D02*
D03*
Y372500D02*
D03*
X268535Y380465D02*
D03*
X228992Y386250D02*
D03*
X216500Y375150D02*
D03*
X264870Y359408D02*
D03*
X265000Y384000D02*
D03*
X216500Y260850D02*
D03*
X102000Y210050D02*
D03*
Y222750D02*
D03*
Y260850D02*
D03*
Y273550D02*
D03*
Y311650D02*
D03*
Y324350D02*
D03*
Y362450D02*
D03*
Y375150D02*
D03*
Y413250D02*
D03*
Y425950D02*
D03*
Y464050D02*
D03*
Y476750D02*
D03*
Y514850D02*
D03*
Y565650D02*
D03*
Y578350D02*
D03*
Y616450D02*
D03*
Y629150D02*
D03*
Y667250D02*
D03*
Y679950D02*
D03*
X114800Y197350D02*
D03*
Y349750D02*
D03*
Y387850D02*
D03*
Y400550D02*
D03*
Y438650D02*
D03*
Y451350D02*
D03*
Y489450D02*
D03*
Y502150D02*
D03*
Y540250D02*
D03*
Y552950D02*
D03*
Y591050D02*
D03*
Y603750D02*
D03*
Y641850D02*
D03*
Y654550D02*
D03*
Y692650D02*
D03*
X127350Y565650D02*
D03*
Y578350D02*
D03*
Y616450D02*
D03*
X140050Y197350D02*
D03*
Y552950D02*
D03*
Y565650D02*
D03*
Y578350D02*
D03*
Y591050D02*
D03*
Y603750D02*
D03*
Y616450D02*
D03*
X152740Y375150D02*
D03*
Y387850D02*
D03*
Y464050D02*
D03*
Y502150D02*
D03*
Y578350D02*
D03*
Y603750D02*
D03*
Y616450D02*
D03*
Y641850D02*
D03*
Y654550D02*
D03*
X165350Y197350D02*
D03*
Y235450D02*
D03*
Y387850D02*
D03*
Y425950D02*
D03*
Y464050D02*
D03*
Y476750D02*
D03*
Y502150D02*
D03*
Y514850D02*
D03*
Y578350D02*
D03*
Y591050D02*
D03*
Y616450D02*
D03*
Y629150D02*
D03*
Y654550D02*
D03*
Y667250D02*
D03*
X190800Y197350D02*
D03*
Y235450D02*
D03*
Y248150D02*
D03*
X216500Y692650D02*
D03*
Y654550D02*
D03*
Y629150D02*
D03*
Y616450D02*
D03*
Y591050D02*
D03*
Y552950D02*
D03*
Y540250D02*
D03*
Y514850D02*
D03*
Y197350D02*
D03*
X203600Y679950D02*
D03*
Y616450D02*
D03*
Y540250D02*
D03*
Y527550D02*
D03*
X178100Y540250D02*
D03*
X296500Y542500D02*
D03*
X178100Y527550D02*
D03*
X296500Y537500D02*
D03*
X190800Y591050D02*
D03*
X190903Y578247D02*
D03*
X140050Y438650D02*
D03*
Y451350D02*
D03*
Y489450D02*
D03*
X127350Y476750D02*
D03*
Y464050D02*
D03*
X191003Y654347D02*
D03*
X178100Y641850D02*
D03*
X190800Y667250D02*
D03*
X178100Y654550D02*
D03*
X216500Y667250D02*
D03*
Y476750D02*
D03*
Y235450D02*
D03*
X203600Y641850D02*
D03*
Y425950D02*
D03*
X127350Y527550D02*
D03*
Y514850D02*
D03*
X178100Y578350D02*
D03*
X127350Y425950D02*
D03*
Y413250D02*
D03*
X114800Y476750D02*
D03*
X165350Y489450D02*
D03*
X140050Y464050D02*
D03*
X152740Y476750D02*
D03*
X190800Y527550D02*
D03*
X216500D02*
D03*
X190800Y603750D02*
D03*
X216500D02*
D03*
X152740Y629150D02*
D03*
X203600D02*
D03*
X190803Y641853D02*
D03*
X203600Y667250D02*
D03*
X178100Y197350D02*
D03*
X203600D02*
D03*
X102000D02*
D03*
X127350D02*
D03*
X152740D02*
D03*
X114800Y210050D02*
D03*
X178100Y235450D02*
D03*
X203600D02*
D03*
X102000D02*
D03*
Y248150D02*
D03*
Y286250D02*
D03*
Y337050D02*
D03*
Y349750D02*
D03*
X127350D02*
D03*
X140050D02*
D03*
X114800Y362450D02*
D03*
X165350Y375150D02*
D03*
X114800D02*
D03*
X102000Y387850D02*
D03*
X127350D02*
D03*
X140050D02*
D03*
X102000Y400550D02*
D03*
X127350D02*
D03*
X114800Y413250D02*
D03*
Y425950D02*
D03*
X178100Y438650D02*
D03*
X102000D02*
D03*
X127350D02*
D03*
X102000Y451350D02*
D03*
X127350D02*
D03*
X114800Y464050D02*
D03*
X178100Y476750D02*
D03*
X203600D02*
D03*
X102000Y489450D02*
D03*
X127350D02*
D03*
X102000Y502150D02*
D03*
X127350D02*
D03*
X140050D02*
D03*
X178100Y514850D02*
D03*
X203600D02*
D03*
X114800D02*
D03*
X102000Y540250D02*
D03*
X127350D02*
D03*
X178100Y552950D02*
D03*
X102000D02*
D03*
X127350D02*
D03*
X114800Y565650D02*
D03*
Y578350D02*
D03*
X178100Y591050D02*
D03*
X203600D02*
D03*
X102000D02*
D03*
X127350D02*
D03*
X152740D02*
D03*
X165350Y603750D02*
D03*
X102000D02*
D03*
X127350D02*
D03*
X114800Y616450D02*
D03*
X178100Y629150D02*
D03*
X114800D02*
D03*
X165350Y641850D02*
D03*
X102000D02*
D03*
X127350D02*
D03*
X216500D02*
D03*
X102000Y654550D02*
D03*
X140050D02*
D03*
X178100Y667250D02*
D03*
X114800D02*
D03*
X127350D02*
D03*
X152740D02*
D03*
X165350Y679950D02*
D03*
X190800D02*
D03*
X114800D02*
D03*
X140050D02*
D03*
X216500D02*
D03*
X152740Y692650D02*
D03*
X127350D02*
D03*
X102000D02*
D03*
X203600D02*
D03*
X178100D02*
D03*
X203600Y438650D02*
D03*
X152740Y514850D02*
D03*
X190800Y375150D02*
D03*
X178100Y616450D02*
D03*
X190800Y629150D02*
D03*
X178100Y603750D02*
D03*
X190800Y476750D02*
D03*
Y464050D02*
D03*
X178100D02*
D03*
X190800Y438650D02*
D03*
Y425950D02*
D03*
X178100D02*
D03*
X190800Y552950D02*
D03*
X296500Y552500D02*
D03*
X296500Y547500D02*
D03*
X190800Y540250D02*
D03*
Y514850D02*
D03*
X296500Y532500D02*
D03*
Y527500D02*
D03*
X178100Y502150D02*
D03*
X296500Y522500D02*
D03*
X178100Y489450D02*
D03*
X296500Y517500D02*
D03*
D47*
X359000Y190000D02*
D03*
Y490000D02*
D03*
D48*
Y390000D02*
D03*
Y690000D02*
D03*
D49*
X997547Y189250D02*
X903223D01*
X1004356Y196059D02*
X997547Y189250D01*
X1004356Y212110D02*
Y196059D01*
Y212110D02*
X998967Y217500D01*
X924000D01*
X871750D01*
X833500Y255750D01*
Y599500D02*
Y255750D01*
X836000Y602000D02*
X833500Y599500D01*
X851250Y602000D02*
X836000D01*
X856750Y607500D02*
X851250Y602000D01*
X846750Y639750D02*
X804500D01*
X856750Y629750D02*
X846750Y639750D01*
X856750Y629750D02*
Y607500D01*
D50*
X970000Y760000D02*
D03*
Y130000D02*
D03*
X725000Y155000D02*
D03*
Y720500D02*
D03*
X184000Y760000D02*
D03*
Y130000D02*
D03*
D51*
X644000Y290000D02*
D03*
Y590000D02*
D03*
X764000Y590000D02*
D03*
Y290000D02*
D03*
D52*
X763000Y713000D02*
D03*
Y163000D02*
D03*
Y445000D02*
D03*
X564000Y765000D02*
D03*
X384000Y125000D02*
D03*
X25000Y145000D02*
D03*
Y295000D02*
D03*
Y745000D02*
D03*
Y595000D02*
D03*
Y445000D02*
D03*
X384000Y765000D02*
D03*
M02*
