G04*
G04 #@! TF.GenerationSoftware,Altium Limited,Altium NEXUS,4.1.1 (18)*
G04*
G04 Layer_Color=8421504*
%FSLAX44Y44*%
%MOMM*%
G71*
G04*
G04 #@! TF.SameCoordinates,4F3881F6-B343-40B9-83C6-DCB6D38B7AD4*
G04*
G04*
G04 #@! TF.FilePolarity,Positive*
G04*
G01*
G75*
%ADD11C,1.0000*%
%ADD13R,5.0000X1.6000*%
%ADD14R,1.2700X3.6800*%
%ADD21C,0.6400*%
%ADD22R,0.8500X0.9000*%
%ADD23R,1.5500X0.3000*%
%ADD24R,2.7500X1.2000*%
%ADD25R,0.5000X0.4500*%
%ADD26R,0.4000X0.9500*%
%ADD27R,0.3500X2.3000*%
%ADD28R,1.3000X0.3500*%
%ADD29R,0.5600X0.5200*%
G36*
X337750Y733763D02*
X330229D01*
Y743750D01*
X337750D01*
Y733763D01*
D02*
G37*
G36*
X262750D02*
X255229D01*
Y743750D01*
X262750D01*
Y733763D01*
D02*
G37*
G36*
X357750Y733750D02*
X350250D01*
Y743750D01*
X357750D01*
Y733750D01*
D02*
G37*
G36*
X282750D02*
X275250D01*
Y743750D01*
X282750D01*
Y733750D01*
D02*
G37*
G36*
X361000Y721999D02*
X356003D01*
Y728000D01*
X361000D01*
Y721999D01*
D02*
G37*
G36*
X286000D02*
X281003D01*
Y728000D01*
X286000D01*
Y721999D01*
D02*
G37*
G36*
X332000Y721996D02*
X326976D01*
Y728000D01*
X332000D01*
Y721996D01*
D02*
G37*
G36*
X257000D02*
X251976D01*
Y728000D01*
X257000D01*
Y721996D01*
D02*
G37*
G36*
X337750Y706234D02*
X330238D01*
Y716250D01*
X337750D01*
Y706234D01*
D02*
G37*
G36*
X262750D02*
X255238D01*
Y716250D01*
X262750D01*
Y706234D01*
D02*
G37*
G36*
X357750Y706233D02*
X350256D01*
Y716250D01*
X357750D01*
Y706233D01*
D02*
G37*
G36*
X282750D02*
X275256D01*
Y716250D01*
X282750D01*
Y706233D01*
D02*
G37*
G36*
X367762Y448750D02*
X360250D01*
Y458767D01*
X367762D01*
Y448750D01*
D02*
G37*
G36*
X347744D02*
X340250D01*
Y458767D01*
X347744D01*
Y448750D01*
D02*
G37*
G36*
X371024Y437000D02*
X366000D01*
Y443004D01*
X371024D01*
Y437000D01*
D02*
G37*
G36*
X341997D02*
X337000D01*
Y443001D01*
X341997D01*
Y437000D01*
D02*
G37*
G36*
X367771Y421250D02*
X360250D01*
Y431237D01*
X367771D01*
Y421250D01*
D02*
G37*
G36*
X347750D02*
X340250D01*
Y431250D01*
X347750D01*
Y421250D01*
D02*
G37*
G36*
X337750Y163763D02*
X330229D01*
Y173750D01*
X337750D01*
Y163763D01*
D02*
G37*
G36*
X262750D02*
X255229D01*
Y173750D01*
X262750D01*
Y163763D01*
D02*
G37*
G36*
X357750Y163750D02*
X350250D01*
Y173750D01*
X357750D01*
Y163750D01*
D02*
G37*
G36*
X282750D02*
X275250D01*
Y173750D01*
X282750D01*
Y163750D01*
D02*
G37*
G36*
X361000Y151999D02*
X356003D01*
Y158000D01*
X361000D01*
Y151999D01*
D02*
G37*
G36*
X286000D02*
X281003D01*
Y158000D01*
X286000D01*
Y151999D01*
D02*
G37*
G36*
X332000Y151996D02*
X326976D01*
Y158000D01*
X332000D01*
Y151996D01*
D02*
G37*
G36*
X257000D02*
X251976D01*
Y158000D01*
X257000D01*
Y151996D01*
D02*
G37*
G36*
X337750Y136234D02*
X330238D01*
Y146250D01*
X337750D01*
Y136234D01*
D02*
G37*
G36*
X262750D02*
X255238D01*
Y146250D01*
X262750D01*
Y136234D01*
D02*
G37*
G36*
X357750Y136233D02*
X350256D01*
Y146250D01*
X357750D01*
Y136233D01*
D02*
G37*
G36*
X282750D02*
X275256D01*
Y146250D01*
X282750D01*
Y136233D01*
D02*
G37*
D11*
X100000Y50000D02*
D03*
X1054000D02*
D03*
Y850000D02*
D03*
X100000D02*
D03*
D13*
X1122400Y340200D02*
D03*
Y284800D02*
D03*
Y207700D02*
D03*
Y152300D02*
D03*
Y737700D02*
D03*
Y682300D02*
D03*
Y605200D02*
D03*
Y549800D02*
D03*
Y472700D02*
D03*
Y417300D02*
D03*
D14*
X861100Y220250D02*
D03*
X886500D02*
D03*
X911900D02*
D03*
X937300D02*
D03*
X962700D02*
D03*
X988100D02*
D03*
X1013500D02*
D03*
X1038900D02*
D03*
X1064300D02*
D03*
X835700D02*
D03*
Y269750D02*
D03*
X861100D02*
D03*
X886500D02*
D03*
X911900D02*
D03*
X937300D02*
D03*
X962700D02*
D03*
X988100D02*
D03*
X1013500D02*
D03*
X1038900D02*
D03*
X1064300D02*
D03*
X861100Y420250D02*
D03*
X886500D02*
D03*
X911900D02*
D03*
X937300D02*
D03*
X962700D02*
D03*
X988100D02*
D03*
X1013500D02*
D03*
X1038900D02*
D03*
X1064300D02*
D03*
X835700D02*
D03*
Y469750D02*
D03*
X861100D02*
D03*
X886500D02*
D03*
X911900D02*
D03*
X937300D02*
D03*
X962700D02*
D03*
X988100D02*
D03*
X1013500D02*
D03*
X1038900D02*
D03*
X1064300D02*
D03*
X861100Y520250D02*
D03*
X886500D02*
D03*
X911900D02*
D03*
X937300D02*
D03*
X962700D02*
D03*
X988100D02*
D03*
X1013500D02*
D03*
X1038900D02*
D03*
X1064300D02*
D03*
X835700D02*
D03*
Y569750D02*
D03*
X861100D02*
D03*
X886500D02*
D03*
X911900D02*
D03*
X937300D02*
D03*
X962700D02*
D03*
X988100D02*
D03*
X1013500D02*
D03*
X1038900D02*
D03*
X1064300D02*
D03*
X861100Y620250D02*
D03*
X886500D02*
D03*
X911900D02*
D03*
X937300D02*
D03*
X962700D02*
D03*
X988100D02*
D03*
X1013500D02*
D03*
X1038900D02*
D03*
X1064300D02*
D03*
X835700D02*
D03*
Y669750D02*
D03*
X861100D02*
D03*
X886500D02*
D03*
X911900D02*
D03*
X937300D02*
D03*
X962700D02*
D03*
X988100D02*
D03*
X1013500D02*
D03*
X1038900D02*
D03*
X1064300D02*
D03*
X861100Y320250D02*
D03*
X886500D02*
D03*
X911900D02*
D03*
X937300D02*
D03*
X962700D02*
D03*
X988100D02*
D03*
X1013500D02*
D03*
X1038900D02*
D03*
X1064300D02*
D03*
X835700D02*
D03*
Y369750D02*
D03*
X861100D02*
D03*
X886500D02*
D03*
X911900D02*
D03*
X937300D02*
D03*
X962700D02*
D03*
X988100D02*
D03*
X1013500D02*
D03*
X1038900D02*
D03*
X1064300D02*
D03*
D21*
X144950Y324350D02*
D03*
Y337050D02*
D03*
Y375150D02*
D03*
Y400550D02*
D03*
Y413250D02*
D03*
X132250Y311650D02*
D03*
Y324350D02*
D03*
Y362450D02*
D03*
Y375150D02*
D03*
X106850Y210050D02*
D03*
Y222750D02*
D03*
Y260850D02*
D03*
Y273550D02*
D03*
Y311650D02*
D03*
Y324350D02*
D03*
Y362450D02*
D03*
Y375150D02*
D03*
Y413250D02*
D03*
Y425950D02*
D03*
Y464050D02*
D03*
Y476750D02*
D03*
Y514850D02*
D03*
Y527550D02*
D03*
Y565650D02*
D03*
Y578350D02*
D03*
Y616450D02*
D03*
Y629150D02*
D03*
Y667250D02*
D03*
Y679950D02*
D03*
X119550Y197350D02*
D03*
Y235450D02*
D03*
Y248150D02*
D03*
Y286250D02*
D03*
Y298950D02*
D03*
Y337050D02*
D03*
Y349750D02*
D03*
Y387850D02*
D03*
Y400550D02*
D03*
Y438650D02*
D03*
Y451350D02*
D03*
Y489450D02*
D03*
Y502150D02*
D03*
Y540250D02*
D03*
Y552950D02*
D03*
Y591050D02*
D03*
Y603750D02*
D03*
Y641850D02*
D03*
Y654550D02*
D03*
Y692650D02*
D03*
X132250Y210050D02*
D03*
Y222750D02*
D03*
Y260850D02*
D03*
Y273550D02*
D03*
Y565650D02*
D03*
Y578350D02*
D03*
Y616450D02*
D03*
X144950Y197350D02*
D03*
Y235450D02*
D03*
Y248150D02*
D03*
Y552950D02*
D03*
Y565650D02*
D03*
Y578350D02*
D03*
Y591050D02*
D03*
Y603750D02*
D03*
Y616450D02*
D03*
Y629150D02*
D03*
X157650Y210050D02*
D03*
Y222750D02*
D03*
Y260850D02*
D03*
Y273550D02*
D03*
Y298950D02*
D03*
Y311650D02*
D03*
Y337050D02*
D03*
Y349750D02*
D03*
Y375150D02*
D03*
Y387850D02*
D03*
Y413250D02*
D03*
Y425950D02*
D03*
Y451350D02*
D03*
Y464050D02*
D03*
Y489450D02*
D03*
Y502150D02*
D03*
Y527550D02*
D03*
Y540250D02*
D03*
Y565650D02*
D03*
Y578350D02*
D03*
Y603750D02*
D03*
Y616450D02*
D03*
Y641850D02*
D03*
Y654550D02*
D03*
X170350Y197350D02*
D03*
Y235450D02*
D03*
Y248150D02*
D03*
Y273550D02*
D03*
Y286250D02*
D03*
Y311650D02*
D03*
Y324350D02*
D03*
Y349750D02*
D03*
Y362450D02*
D03*
Y387850D02*
D03*
Y400550D02*
D03*
Y425950D02*
D03*
Y438650D02*
D03*
Y464050D02*
D03*
Y476750D02*
D03*
Y502150D02*
D03*
Y514850D02*
D03*
Y540250D02*
D03*
Y552950D02*
D03*
Y578350D02*
D03*
Y591050D02*
D03*
Y616450D02*
D03*
Y629150D02*
D03*
Y654550D02*
D03*
Y667250D02*
D03*
X183050Y210050D02*
D03*
Y222750D02*
D03*
X195750Y197350D02*
D03*
Y210050D02*
D03*
Y235450D02*
D03*
Y248150D02*
D03*
X106850Y235450D02*
D03*
Y248150D02*
D03*
Y286250D02*
D03*
Y298950D02*
D03*
Y337050D02*
D03*
Y349750D02*
D03*
Y387850D02*
D03*
Y400550D02*
D03*
Y438650D02*
D03*
Y451350D02*
D03*
Y489450D02*
D03*
Y502150D02*
D03*
Y540250D02*
D03*
Y552950D02*
D03*
Y591050D02*
D03*
Y603750D02*
D03*
Y641850D02*
D03*
Y654550D02*
D03*
Y692650D02*
D03*
Y197350D02*
D03*
X119550Y210050D02*
D03*
Y222750D02*
D03*
Y260850D02*
D03*
Y273550D02*
D03*
Y311650D02*
D03*
Y324350D02*
D03*
Y362450D02*
D03*
Y375150D02*
D03*
Y413250D02*
D03*
Y425950D02*
D03*
Y464050D02*
D03*
Y476750D02*
D03*
Y514850D02*
D03*
Y527550D02*
D03*
Y565650D02*
D03*
Y578350D02*
D03*
Y616450D02*
D03*
Y629150D02*
D03*
Y667250D02*
D03*
Y679950D02*
D03*
X132250Y197350D02*
D03*
Y235450D02*
D03*
Y248150D02*
D03*
Y286250D02*
D03*
Y298950D02*
D03*
Y337050D02*
D03*
Y349750D02*
D03*
Y387850D02*
D03*
Y400550D02*
D03*
Y413250D02*
D03*
Y425950D02*
D03*
Y438650D02*
D03*
Y451350D02*
D03*
Y464050D02*
D03*
Y476750D02*
D03*
Y489450D02*
D03*
Y502150D02*
D03*
Y514850D02*
D03*
Y527550D02*
D03*
Y540250D02*
D03*
Y552950D02*
D03*
Y591050D02*
D03*
Y603750D02*
D03*
Y629150D02*
D03*
Y641850D02*
D03*
Y654550D02*
D03*
Y667250D02*
D03*
Y679950D02*
D03*
Y692650D02*
D03*
X144950Y210050D02*
D03*
Y222750D02*
D03*
Y260850D02*
D03*
Y273550D02*
D03*
Y286250D02*
D03*
Y298950D02*
D03*
Y311650D02*
D03*
Y349750D02*
D03*
Y362450D02*
D03*
Y387850D02*
D03*
Y425950D02*
D03*
Y438650D02*
D03*
Y451350D02*
D03*
Y464050D02*
D03*
Y476750D02*
D03*
Y489450D02*
D03*
Y502150D02*
D03*
Y514850D02*
D03*
Y527550D02*
D03*
Y540250D02*
D03*
Y641850D02*
D03*
Y654550D02*
D03*
Y667250D02*
D03*
Y679950D02*
D03*
Y692650D02*
D03*
X157650Y197350D02*
D03*
Y235450D02*
D03*
Y248150D02*
D03*
Y286250D02*
D03*
Y324350D02*
D03*
Y362450D02*
D03*
Y400550D02*
D03*
Y438650D02*
D03*
Y476750D02*
D03*
Y514850D02*
D03*
Y552950D02*
D03*
Y591050D02*
D03*
Y629150D02*
D03*
Y667250D02*
D03*
Y679950D02*
D03*
Y692650D02*
D03*
X170350Y210050D02*
D03*
Y222750D02*
D03*
Y260850D02*
D03*
Y298950D02*
D03*
Y337050D02*
D03*
Y375150D02*
D03*
Y413250D02*
D03*
Y451350D02*
D03*
Y489450D02*
D03*
Y527550D02*
D03*
Y565650D02*
D03*
Y603750D02*
D03*
Y641850D02*
D03*
Y679950D02*
D03*
Y692650D02*
D03*
X183050Y197350D02*
D03*
Y235450D02*
D03*
Y248150D02*
D03*
Y260850D02*
D03*
Y273550D02*
D03*
Y286250D02*
D03*
Y298950D02*
D03*
Y311650D02*
D03*
Y324350D02*
D03*
Y337050D02*
D03*
Y349750D02*
D03*
Y362450D02*
D03*
Y375150D02*
D03*
Y387850D02*
D03*
Y400550D02*
D03*
Y413250D02*
D03*
Y425950D02*
D03*
Y438650D02*
D03*
Y451350D02*
D03*
Y464050D02*
D03*
Y476750D02*
D03*
Y489450D02*
D03*
Y502150D02*
D03*
Y514850D02*
D03*
Y527550D02*
D03*
Y540250D02*
D03*
Y552950D02*
D03*
Y565650D02*
D03*
Y578350D02*
D03*
Y591050D02*
D03*
Y603750D02*
D03*
Y616450D02*
D03*
Y629150D02*
D03*
Y641850D02*
D03*
Y654550D02*
D03*
Y667250D02*
D03*
Y679950D02*
D03*
Y692650D02*
D03*
X195750Y222750D02*
D03*
Y260850D02*
D03*
Y273550D02*
D03*
Y286250D02*
D03*
Y298950D02*
D03*
Y311650D02*
D03*
Y324350D02*
D03*
Y337050D02*
D03*
Y349750D02*
D03*
Y362450D02*
D03*
Y375150D02*
D03*
Y387850D02*
D03*
Y400550D02*
D03*
Y413250D02*
D03*
Y425950D02*
D03*
Y438650D02*
D03*
Y451350D02*
D03*
Y464050D02*
D03*
Y476750D02*
D03*
Y489450D02*
D03*
Y502150D02*
D03*
Y514850D02*
D03*
Y527550D02*
D03*
Y540250D02*
D03*
Y552950D02*
D03*
Y565650D02*
D03*
Y578350D02*
D03*
Y591050D02*
D03*
Y603750D02*
D03*
Y616450D02*
D03*
Y629150D02*
D03*
Y641850D02*
D03*
Y654550D02*
D03*
Y667250D02*
D03*
Y679950D02*
D03*
Y692650D02*
D03*
X208450Y197350D02*
D03*
Y210050D02*
D03*
Y222750D02*
D03*
Y235450D02*
D03*
Y248150D02*
D03*
Y260850D02*
D03*
Y273550D02*
D03*
Y286250D02*
D03*
Y298950D02*
D03*
Y311650D02*
D03*
Y324350D02*
D03*
Y337050D02*
D03*
Y349750D02*
D03*
Y362450D02*
D03*
Y375150D02*
D03*
Y387850D02*
D03*
Y400550D02*
D03*
Y413250D02*
D03*
Y425950D02*
D03*
Y438650D02*
D03*
Y451350D02*
D03*
Y464050D02*
D03*
Y476750D02*
D03*
Y489450D02*
D03*
Y502150D02*
D03*
Y514850D02*
D03*
Y527550D02*
D03*
Y540250D02*
D03*
Y552950D02*
D03*
Y565650D02*
D03*
Y578350D02*
D03*
Y591050D02*
D03*
Y603750D02*
D03*
Y616450D02*
D03*
Y629150D02*
D03*
Y641850D02*
D03*
Y654550D02*
D03*
Y667250D02*
D03*
Y679950D02*
D03*
Y692650D02*
D03*
X221150Y197350D02*
D03*
Y210050D02*
D03*
Y222750D02*
D03*
Y235450D02*
D03*
Y248150D02*
D03*
Y260850D02*
D03*
Y273550D02*
D03*
Y286250D02*
D03*
Y298950D02*
D03*
Y311650D02*
D03*
Y324350D02*
D03*
Y337050D02*
D03*
Y349750D02*
D03*
Y362450D02*
D03*
Y375150D02*
D03*
Y387850D02*
D03*
Y400550D02*
D03*
Y413250D02*
D03*
Y425950D02*
D03*
Y438650D02*
D03*
Y451350D02*
D03*
Y464050D02*
D03*
Y476750D02*
D03*
Y489450D02*
D03*
Y502150D02*
D03*
Y514850D02*
D03*
Y527550D02*
D03*
Y540250D02*
D03*
Y552950D02*
D03*
Y565650D02*
D03*
Y578350D02*
D03*
Y591050D02*
D03*
Y603750D02*
D03*
Y616450D02*
D03*
Y629150D02*
D03*
Y641850D02*
D03*
Y654550D02*
D03*
Y667250D02*
D03*
Y679950D02*
D03*
Y692650D02*
D03*
D22*
X80500Y320000D02*
D03*
X67500D02*
D03*
X80500Y620000D02*
D03*
X67500D02*
D03*
X80500Y160000D02*
D03*
X67500D02*
D03*
X80500Y730000D02*
D03*
X67500D02*
D03*
D23*
X381750Y360000D02*
D03*
Y355000D02*
D03*
Y350000D02*
D03*
Y345000D02*
D03*
Y380000D02*
D03*
Y375000D02*
D03*
Y370000D02*
D03*
Y365000D02*
D03*
Y340000D02*
D03*
Y335000D02*
D03*
Y330000D02*
D03*
Y325000D02*
D03*
Y320000D02*
D03*
Y315000D02*
D03*
Y310000D02*
D03*
Y305000D02*
D03*
Y300000D02*
D03*
Y295000D02*
D03*
Y290000D02*
D03*
Y285000D02*
D03*
Y280000D02*
D03*
Y275000D02*
D03*
Y250000D02*
D03*
Y245000D02*
D03*
Y240000D02*
D03*
Y235000D02*
D03*
Y230000D02*
D03*
Y225000D02*
D03*
Y220000D02*
D03*
Y215000D02*
D03*
Y210000D02*
D03*
Y205000D02*
D03*
Y200000D02*
D03*
X306250Y197500D02*
D03*
Y202500D02*
D03*
Y207500D02*
D03*
Y212500D02*
D03*
Y217500D02*
D03*
Y222500D02*
D03*
Y227500D02*
D03*
Y232500D02*
D03*
Y237500D02*
D03*
Y242500D02*
D03*
Y247500D02*
D03*
Y252500D02*
D03*
Y277500D02*
D03*
Y282500D02*
D03*
Y287500D02*
D03*
Y292500D02*
D03*
Y297500D02*
D03*
Y302500D02*
D03*
Y307500D02*
D03*
Y312500D02*
D03*
Y317500D02*
D03*
Y322500D02*
D03*
Y327500D02*
D03*
Y332500D02*
D03*
Y337500D02*
D03*
Y362500D02*
D03*
Y367500D02*
D03*
Y372500D02*
D03*
Y377500D02*
D03*
Y382500D02*
D03*
Y342500D02*
D03*
Y347500D02*
D03*
Y352500D02*
D03*
Y357500D02*
D03*
X381750Y660000D02*
D03*
Y655000D02*
D03*
Y650000D02*
D03*
Y645000D02*
D03*
Y680000D02*
D03*
Y675000D02*
D03*
Y670000D02*
D03*
Y665000D02*
D03*
Y640000D02*
D03*
Y635000D02*
D03*
Y630000D02*
D03*
Y625000D02*
D03*
Y620000D02*
D03*
Y615000D02*
D03*
Y610000D02*
D03*
Y605000D02*
D03*
Y600000D02*
D03*
Y595000D02*
D03*
Y590000D02*
D03*
Y585000D02*
D03*
Y580000D02*
D03*
Y575000D02*
D03*
Y550000D02*
D03*
Y545000D02*
D03*
Y540000D02*
D03*
Y535000D02*
D03*
Y530000D02*
D03*
Y525000D02*
D03*
Y520000D02*
D03*
Y515000D02*
D03*
Y510000D02*
D03*
Y505000D02*
D03*
Y500000D02*
D03*
X306250Y497500D02*
D03*
Y502500D02*
D03*
Y507500D02*
D03*
Y512500D02*
D03*
Y517500D02*
D03*
Y522500D02*
D03*
Y527500D02*
D03*
Y532500D02*
D03*
Y537500D02*
D03*
Y542500D02*
D03*
Y547500D02*
D03*
Y552500D02*
D03*
Y577500D02*
D03*
Y582500D02*
D03*
Y587500D02*
D03*
Y592500D02*
D03*
Y597500D02*
D03*
Y602500D02*
D03*
Y607500D02*
D03*
Y612500D02*
D03*
Y617500D02*
D03*
Y622500D02*
D03*
Y627500D02*
D03*
Y632500D02*
D03*
Y637500D02*
D03*
Y662500D02*
D03*
Y667500D02*
D03*
Y672500D02*
D03*
Y677500D02*
D03*
Y682500D02*
D03*
Y642500D02*
D03*
Y647500D02*
D03*
Y652500D02*
D03*
Y657500D02*
D03*
D24*
X314000Y393500D02*
D03*
Y186500D02*
D03*
Y693500D02*
D03*
Y486500D02*
D03*
D25*
X77750Y640000D02*
D03*
X70250D02*
D03*
Y250000D02*
D03*
X77750D02*
D03*
D26*
X69750Y701750D02*
D03*
X78250D02*
D03*
X69750Y688250D02*
D03*
X78250D02*
D03*
Y188250D02*
D03*
X69750D02*
D03*
X78250Y201750D02*
D03*
X69750D02*
D03*
D27*
X61750Y695000D02*
D03*
X86250D02*
D03*
Y195000D02*
D03*
X61750D02*
D03*
D28*
X74000Y712250D02*
D03*
Y677750D02*
D03*
Y177750D02*
D03*
Y212250D02*
D03*
D29*
X70100Y660000D02*
D03*
X77900D02*
D03*
X77800Y650000D02*
D03*
X70200D02*
D03*
X77900Y230000D02*
D03*
X70100D02*
D03*
X70200Y240000D02*
D03*
X77800D02*
D03*
M02*
