M48
;Layer_Color=9474304
;FILE_FORMAT=4:4
METRIC,LZ
T7F00S00C5.0800
%
G90
G05
T07
G00X00422548Y00015107
M15
G01X00427395Y00016607
G01X00431847Y0001904
G01X0043546Y00022039
G01X0043796Y00024539
G01X00441172Y00028467
G01X00443538Y00032955
G01X00444966Y00037824
G01X004454Y000425
G01X004454Y00135879
G01X00444893Y00140928
G01X00443393Y00145774
G01X00441045Y00150071
G01X00442986Y00153314
G01X00444676Y00158098
G01X004454Y00164121
G01X004454Y00257376
G01X00444893Y00262424
G01X00443393Y00267271
G01X0044096Y00271723
G01X0043796Y00275336
G01X0043546Y00277836
G01X00431533Y00281047
G01X00427045Y00283414
G01X00422176Y00284841
G01X004175Y00285276
G01X000425Y00285276
G01X00037452Y00284769
G01X00032605Y00283269
G01X00028153Y00280835
G01X00023704Y0027696
G01X0002155Y0027459
G01X00000071Y0027465
G01X-00004979Y00274157
G01X-0000983Y00272671
G01X-00014288Y0027025
G01X-00018177Y00266991
G01X-00021341Y00263025
G01X-00023653Y00258508
G01X-00025021Y00253623
G01X-000254Y0024925
G01X-000254Y0012975
G01X-00024893Y00124702
G01X-00024582Y00123695
G01X-00025015Y00122154
G01X-000254Y0011775
G01X-000254Y0005075
G01X-00024893Y00045702
G01X-00023393Y00040855
G01X-0002096Y00036403
G01X-0001769Y00032523
G01X-00013715Y00029371
G01X-00009192Y00027072
G01X-00004303Y00025717
G01X0Y0002535
G01X00021387Y0002535
G01X00022039Y00024539
G01X00024539Y00022039
G01X00028467Y00018828
G01X00032955Y00016462
G01X00037824Y00015034
G01X000425Y000146
G01X004175Y000146
G01X00422548Y00015107
M16
M17
M30
