G04*
G04 #@! TF.GenerationSoftware,Altium Limited,Altium Designer,21.1.0 (24)*
G04*
G04 Layer_Color=16711935*
%FSLAX44Y44*%
%MOMM*%
G71*
G04*
G04 #@! TF.SameCoordinates,BAFAB9C6-4635-4B56-BF62-033A307C6E1E*
G04*
G04*
G04 #@! TF.FilePolarity,Negative*
G04*
G01*
G75*
%ADD12R,5.0000X1.6000*%
%ADD15C,1.1732*%
%ADD16C,5.2032*%
%ADD29R,5.0000X1.2000*%
%ADD31C,0.8432*%
D12*
X-152400Y419800D02*
D03*
Y475200D02*
D03*
Y552300D02*
D03*
Y607700D02*
D03*
Y22300D02*
D03*
Y77700D02*
D03*
Y154800D02*
D03*
Y210200D02*
D03*
Y287300D02*
D03*
Y342700D02*
D03*
D15*
X10500Y586900D02*
D03*
X-20000Y43100D02*
D03*
D16*
X0Y0D02*
D03*
Y630000D02*
D03*
D29*
X-152400Y447500D02*
D03*
Y580000D02*
D03*
Y50000D02*
D03*
Y182500D02*
D03*
Y315000D02*
D03*
D31*
X-77150Y67350D02*
D03*
Y105450D02*
D03*
Y118150D02*
D03*
Y156250D02*
D03*
Y168950D02*
D03*
Y207050D02*
D03*
Y219750D02*
D03*
Y257850D02*
D03*
Y270550D02*
D03*
Y308650D02*
D03*
Y321350D02*
D03*
Y359450D02*
D03*
Y372150D02*
D03*
Y410250D02*
D03*
Y422950D02*
D03*
Y461050D02*
D03*
Y473750D02*
D03*
Y511850D02*
D03*
Y524550D02*
D03*
Y562650D02*
D03*
X-64450Y80050D02*
D03*
Y92750D02*
D03*
Y130850D02*
D03*
Y143550D02*
D03*
Y181650D02*
D03*
Y194350D02*
D03*
Y232450D02*
D03*
Y245150D02*
D03*
Y283250D02*
D03*
Y295950D02*
D03*
Y334050D02*
D03*
Y346750D02*
D03*
Y384850D02*
D03*
Y397550D02*
D03*
Y435650D02*
D03*
Y448350D02*
D03*
Y486450D02*
D03*
Y499150D02*
D03*
Y537250D02*
D03*
Y549950D02*
D03*
X-51750Y67350D02*
D03*
Y105450D02*
D03*
Y118150D02*
D03*
Y156250D02*
D03*
Y168950D02*
D03*
Y181650D02*
D03*
Y194350D02*
D03*
Y207050D02*
D03*
Y219750D02*
D03*
Y232450D02*
D03*
Y245150D02*
D03*
Y257850D02*
D03*
Y270550D02*
D03*
Y283250D02*
D03*
Y295950D02*
D03*
Y308650D02*
D03*
Y321350D02*
D03*
Y334050D02*
D03*
Y346750D02*
D03*
Y359450D02*
D03*
Y372150D02*
D03*
Y384850D02*
D03*
Y397550D02*
D03*
Y410250D02*
D03*
Y422950D02*
D03*
Y461050D02*
D03*
Y473750D02*
D03*
Y499150D02*
D03*
Y511850D02*
D03*
Y524550D02*
D03*
Y537250D02*
D03*
Y549950D02*
D03*
Y562650D02*
D03*
X-39050Y80050D02*
D03*
Y92750D02*
D03*
Y130850D02*
D03*
Y143550D02*
D03*
Y156250D02*
D03*
Y168950D02*
D03*
Y181650D02*
D03*
Y194350D02*
D03*
Y207050D02*
D03*
Y219750D02*
D03*
Y232450D02*
D03*
Y245150D02*
D03*
Y257850D02*
D03*
Y270550D02*
D03*
Y283250D02*
D03*
Y295950D02*
D03*
Y308650D02*
D03*
Y321350D02*
D03*
Y334050D02*
D03*
Y346750D02*
D03*
Y359450D02*
D03*
Y372150D02*
D03*
Y384850D02*
D03*
Y397550D02*
D03*
Y410250D02*
D03*
Y511850D02*
D03*
Y524550D02*
D03*
Y537250D02*
D03*
Y549950D02*
D03*
Y562650D02*
D03*
X-26350Y67350D02*
D03*
Y105450D02*
D03*
Y118150D02*
D03*
Y156250D02*
D03*
Y194350D02*
D03*
Y232450D02*
D03*
Y270550D02*
D03*
Y308650D02*
D03*
Y346750D02*
D03*
Y384850D02*
D03*
Y422950D02*
D03*
Y461050D02*
D03*
Y499150D02*
D03*
Y537250D02*
D03*
Y549950D02*
D03*
Y562650D02*
D03*
X-13650Y80050D02*
D03*
Y92750D02*
D03*
Y130850D02*
D03*
Y168950D02*
D03*
Y207050D02*
D03*
Y245150D02*
D03*
Y283250D02*
D03*
Y321350D02*
D03*
Y359450D02*
D03*
Y397550D02*
D03*
Y435650D02*
D03*
Y473750D02*
D03*
Y511850D02*
D03*
Y549950D02*
D03*
Y562650D02*
D03*
X-950Y67350D02*
D03*
Y105450D02*
D03*
Y118150D02*
D03*
Y130850D02*
D03*
Y143550D02*
D03*
Y156250D02*
D03*
Y168950D02*
D03*
Y181650D02*
D03*
Y194350D02*
D03*
Y207050D02*
D03*
Y219750D02*
D03*
Y232450D02*
D03*
Y245150D02*
D03*
Y257850D02*
D03*
Y270550D02*
D03*
Y283250D02*
D03*
Y295950D02*
D03*
Y308650D02*
D03*
Y321350D02*
D03*
Y334050D02*
D03*
Y346750D02*
D03*
Y359450D02*
D03*
Y372150D02*
D03*
Y384850D02*
D03*
Y397550D02*
D03*
Y410250D02*
D03*
Y422950D02*
D03*
Y435650D02*
D03*
Y448350D02*
D03*
Y461050D02*
D03*
Y473750D02*
D03*
Y486450D02*
D03*
Y499150D02*
D03*
Y537250D02*
D03*
Y549950D02*
D03*
Y562650D02*
D03*
X11750Y92750D02*
D03*
Y130850D02*
D03*
Y143550D02*
D03*
Y156250D02*
D03*
Y168950D02*
D03*
Y181650D02*
D03*
Y194350D02*
D03*
Y207050D02*
D03*
Y219750D02*
D03*
Y232450D02*
D03*
Y245150D02*
D03*
Y257850D02*
D03*
Y270550D02*
D03*
Y283250D02*
D03*
Y295950D02*
D03*
Y308650D02*
D03*
Y321350D02*
D03*
Y334050D02*
D03*
Y346750D02*
D03*
Y359450D02*
D03*
Y372150D02*
D03*
Y384850D02*
D03*
Y397550D02*
D03*
Y410250D02*
D03*
Y422950D02*
D03*
Y435650D02*
D03*
Y448350D02*
D03*
Y461050D02*
D03*
Y473750D02*
D03*
Y486450D02*
D03*
Y499150D02*
D03*
Y511850D02*
D03*
Y549950D02*
D03*
Y562650D02*
D03*
X24450Y67350D02*
D03*
Y105450D02*
D03*
Y118150D02*
D03*
Y130850D02*
D03*
Y143550D02*
D03*
Y156250D02*
D03*
Y168950D02*
D03*
Y181650D02*
D03*
Y194350D02*
D03*
Y207050D02*
D03*
Y219750D02*
D03*
Y232450D02*
D03*
Y245150D02*
D03*
Y257850D02*
D03*
Y270550D02*
D03*
Y308650D02*
D03*
Y346750D02*
D03*
Y384850D02*
D03*
Y422950D02*
D03*
Y461050D02*
D03*
Y499150D02*
D03*
Y537250D02*
D03*
Y562650D02*
D03*
X37150Y80050D02*
D03*
Y92750D02*
D03*
Y130850D02*
D03*
Y143550D02*
D03*
Y156250D02*
D03*
Y168950D02*
D03*
Y181650D02*
D03*
Y194350D02*
D03*
Y207050D02*
D03*
Y219750D02*
D03*
Y232450D02*
D03*
Y245150D02*
D03*
Y257850D02*
D03*
Y270550D02*
D03*
Y283250D02*
D03*
Y321350D02*
D03*
Y359450D02*
D03*
Y397550D02*
D03*
Y435650D02*
D03*
Y473750D02*
D03*
Y511850D02*
D03*
Y549950D02*
D03*
X-77150Y80050D02*
D03*
Y92750D02*
D03*
Y130850D02*
D03*
Y143550D02*
D03*
Y181650D02*
D03*
Y194350D02*
D03*
Y232450D02*
D03*
Y245150D02*
D03*
Y283250D02*
D03*
Y295950D02*
D03*
Y334050D02*
D03*
Y346750D02*
D03*
Y384850D02*
D03*
Y397550D02*
D03*
Y435650D02*
D03*
Y448350D02*
D03*
Y486450D02*
D03*
Y499150D02*
D03*
Y537250D02*
D03*
Y549950D02*
D03*
X-64450Y67350D02*
D03*
Y105450D02*
D03*
Y118150D02*
D03*
Y156250D02*
D03*
Y168950D02*
D03*
Y207050D02*
D03*
Y219750D02*
D03*
Y257850D02*
D03*
Y270550D02*
D03*
Y308650D02*
D03*
Y321350D02*
D03*
Y359450D02*
D03*
Y372150D02*
D03*
Y410250D02*
D03*
Y422950D02*
D03*
Y461050D02*
D03*
Y473750D02*
D03*
Y511850D02*
D03*
Y524550D02*
D03*
Y562650D02*
D03*
X-51750Y80050D02*
D03*
Y92750D02*
D03*
Y130850D02*
D03*
Y143550D02*
D03*
Y435650D02*
D03*
Y448350D02*
D03*
Y486450D02*
D03*
X-39050Y67350D02*
D03*
Y105450D02*
D03*
Y118150D02*
D03*
Y422950D02*
D03*
Y435650D02*
D03*
Y448350D02*
D03*
Y461050D02*
D03*
Y473750D02*
D03*
Y486450D02*
D03*
Y499150D02*
D03*
X-26350Y80050D02*
D03*
Y92750D02*
D03*
Y130850D02*
D03*
Y143550D02*
D03*
Y168950D02*
D03*
Y181650D02*
D03*
Y207050D02*
D03*
Y219750D02*
D03*
Y245150D02*
D03*
Y257850D02*
D03*
Y283250D02*
D03*
Y295950D02*
D03*
Y321350D02*
D03*
Y334050D02*
D03*
Y359450D02*
D03*
Y372150D02*
D03*
Y397550D02*
D03*
Y410250D02*
D03*
Y435650D02*
D03*
Y448350D02*
D03*
Y473750D02*
D03*
Y486450D02*
D03*
Y511850D02*
D03*
Y524550D02*
D03*
X-13650Y67350D02*
D03*
Y105450D02*
D03*
Y118150D02*
D03*
Y143550D02*
D03*
Y156250D02*
D03*
Y181650D02*
D03*
Y194350D02*
D03*
Y219750D02*
D03*
Y232450D02*
D03*
Y257850D02*
D03*
Y270550D02*
D03*
Y295950D02*
D03*
Y308650D02*
D03*
Y334050D02*
D03*
Y346750D02*
D03*
Y372150D02*
D03*
Y384850D02*
D03*
Y410250D02*
D03*
Y422950D02*
D03*
Y448350D02*
D03*
Y461050D02*
D03*
Y486450D02*
D03*
Y499150D02*
D03*
Y524550D02*
D03*
Y537250D02*
D03*
X-950Y80050D02*
D03*
Y92750D02*
D03*
X11750Y67350D02*
D03*
Y80050D02*
D03*
Y105450D02*
D03*
Y118150D02*
D03*
X24450Y80050D02*
D03*
Y92750D02*
D03*
Y283250D02*
D03*
Y295950D02*
D03*
Y321350D02*
D03*
Y334050D02*
D03*
Y359450D02*
D03*
Y372150D02*
D03*
Y397550D02*
D03*
Y410250D02*
D03*
Y435650D02*
D03*
Y448350D02*
D03*
Y473750D02*
D03*
Y486450D02*
D03*
Y511850D02*
D03*
Y524550D02*
D03*
Y549950D02*
D03*
X37150Y67350D02*
D03*
Y105450D02*
D03*
Y118150D02*
D03*
Y295950D02*
D03*
Y308650D02*
D03*
Y334050D02*
D03*
Y346750D02*
D03*
Y372150D02*
D03*
Y384850D02*
D03*
Y410250D02*
D03*
Y422950D02*
D03*
Y448350D02*
D03*
Y461050D02*
D03*
Y486450D02*
D03*
Y499150D02*
D03*
Y524550D02*
D03*
Y537250D02*
D03*
Y562650D02*
D03*
X-950Y524550D02*
D03*
X11750Y537250D02*
D03*
X-950Y511850D02*
D03*
X11750Y524550D02*
D03*
M02*
