G04*
G04 #@! TF.GenerationSoftware,Altium Limited,Altium Designer,21.1.0 (24)*
G04*
G04 Layer_Color=32896*
%FSLAX44Y44*%
%MOMM*%
G71*
G04*
G04 #@! TF.SameCoordinates,BAFAB9C6-4635-4B56-BF62-033A307C6E1E*
G04*
G04*
G04 #@! TF.FilePolarity,Positive*
G04*
G01*
G75*
%ADD10C,0.2500*%
%ADD11C,0.2000*%
%ADD17C,0.1250*%
%ADD20C,0.4000*%
%ADD27C,0.2540*%
D10*
X-115400Y447500D02*
G03*
X-115400Y447500I-1250J0D01*
G01*
Y580000D02*
G03*
X-115400Y580000I-1250J0D01*
G01*
Y50000D02*
G03*
X-115400Y50000I-1250J0D01*
G01*
Y182500D02*
G03*
X-115400Y182500I-1250J0D01*
G01*
Y315000D02*
G03*
X-115400Y315000I-1250J0D01*
G01*
D11*
X-170000Y407500D02*
X-123000D01*
Y487500D01*
X-170000D02*
X-123000D01*
X-170000Y540000D02*
X-123000D01*
Y620000D01*
X-170000D02*
X-123000D01*
X-170000Y10000D02*
X-123000D01*
Y90000D01*
X-170000D02*
X-123000D01*
X-170000Y142500D02*
X-123000D01*
Y222500D01*
X-170000D02*
X-123000D01*
X-170000Y275000D02*
X-123000D01*
Y355000D01*
X-170000D02*
X-123000D01*
D17*
X-85766Y593884D02*
X2500D01*
X17500D02*
X45805D01*
X53425Y78519D02*
Y551466D01*
X-93387Y78519D02*
Y551466D01*
Y43720D02*
Y78519D01*
Y43720D02*
X-85766Y36100D01*
X53425Y551466D02*
Y586264D01*
X45805Y593884D02*
X53425Y586264D01*
X-93387D02*
X-85766Y593884D01*
X-93387Y551466D02*
Y586264D01*
X-85766Y36100D02*
X-27601D01*
Y27210D02*
Y36100D01*
Y27210D02*
X-12361D01*
Y36100D01*
X45805D01*
X53425Y43720D01*
Y78519D01*
D20*
X-33000Y-4004D02*
X-35499Y-1505D01*
X-40498D01*
X-42997Y-4004D01*
Y-14001D01*
X-40498Y-16500D01*
X-35499D01*
X-33000Y-14001D01*
Y-4004D01*
X-57992Y-16500D02*
X-47995D01*
X-57992Y-6503D01*
Y-4004D01*
X-55493Y-1505D01*
X-50494D01*
X-47995Y-4004D01*
X-62990Y-16500D02*
Y-14001D01*
X-65490D01*
Y-16500D01*
X-62990D01*
X-85483D02*
X-75486D01*
X-85483Y-6503D01*
Y-4004D01*
X-82984Y-1505D01*
X-77985D01*
X-75486Y-4004D01*
X-90481D02*
X-92981Y-1505D01*
X-97979D01*
X-100478Y-4004D01*
Y-14001D01*
X-97979Y-16500D01*
X-92981D01*
X-90481Y-14001D01*
Y-4004D01*
X-115473Y-16500D02*
X-105477D01*
X-115473Y-6503D01*
Y-4004D01*
X-112974Y-1505D01*
X-107976D01*
X-105477Y-4004D01*
X-120472Y-16500D02*
X-125470D01*
X-122971D01*
Y-1505D01*
X-120472Y-4004D01*
X-33000Y20995D02*
Y10998D01*
X-37998Y6000D01*
X-42997Y10998D01*
Y20995D01*
X-55493Y6000D02*
X-50494D01*
X-47995Y8499D01*
Y13498D01*
X-50494Y15997D01*
X-55493D01*
X-57992Y13498D01*
Y10998D01*
X-47995D01*
X-62990Y15997D02*
Y6000D01*
Y10998D01*
X-65490Y13498D01*
X-67989Y15997D01*
X-70488D01*
X-77985Y6000D02*
Y8499D01*
X-80485D01*
Y6000D01*
X-77985D01*
X-90481Y15997D02*
X-92981D01*
Y13498D01*
X-90481D01*
Y15997D01*
Y8499D02*
X-92981D01*
Y6000D01*
X-90481D01*
Y8499D01*
X-102977Y6000D02*
Y15997D01*
X-107976Y20995D01*
X-112974Y15997D01*
Y6000D01*
Y13498D01*
X-102977D01*
D27*
X-158461Y110118D02*
X-153383D01*
X-155922D01*
Y97422D01*
X-153383Y94882D01*
X-150843D01*
X-148304Y97422D01*
X-173696Y110118D02*
X-163539D01*
Y102500D01*
X-168618Y105039D01*
X-171157D01*
X-173696Y102500D01*
Y97422D01*
X-171157Y94882D01*
X-166078D01*
X-163539Y97422D01*
X-160961Y243118D02*
X-155883D01*
X-158422D01*
Y230422D01*
X-155883Y227882D01*
X-153343D01*
X-150804Y230422D01*
X-173657Y227882D02*
Y243118D01*
X-166039Y235500D01*
X-176196D01*
X-160211Y375368D02*
X-155133D01*
X-157672D01*
Y362672D01*
X-155133Y360132D01*
X-152593D01*
X-150054Y362672D01*
X-165289Y372828D02*
X-167828Y375368D01*
X-172907D01*
X-175446Y372828D01*
Y370289D01*
X-172907Y367750D01*
X-170368D01*
X-172907D01*
X-175446Y365211D01*
Y362672D01*
X-172907Y360132D01*
X-167828D01*
X-165289Y362672D01*
X-161461Y507368D02*
X-156383D01*
X-158922D01*
Y494672D01*
X-156383Y492132D01*
X-153843D01*
X-151304Y494672D01*
X-176696Y492132D02*
X-166539D01*
X-176696Y502289D01*
Y504828D01*
X-174157Y507368D01*
X-169078D01*
X-166539Y504828D01*
X-166500Y640117D02*
X-161422D01*
X-163961D01*
Y627422D01*
X-161422Y624883D01*
X-158883D01*
X-156343Y627422D01*
X-171578Y624883D02*
X-176657D01*
X-174118D01*
Y640117D01*
X-171578Y637578D01*
M02*
