G04*
G04 #@! TF.GenerationSoftware,Altium Limited,Altium Designer,21.1.0 (24)*
G04*
G04 Layer_Physical_Order=3*
G04 Layer_Color=128*
%FSLAX44Y44*%
%MOMM*%
G71*
G04*
G04 #@! TF.SameCoordinates,BAFAB9C6-4635-4B56-BF62-033A307C6E1E*
G04*
G04*
G04 #@! TF.FilePolarity,Negative*
G04*
G01*
G75*
%ADD18C,0.1500*%
%ADD24C,1.0160*%
%ADD25C,1.7780*%
%ADD26C,0.7080*%
%ADD27C,0.2540*%
%ADD28C,3.2080*%
D18*
X47085Y8500D02*
X46252Y9333D01*
Y10999D01*
X47085Y11832D01*
X47918D01*
X48751Y10999D01*
Y10166D01*
Y10999D01*
X49584Y11832D01*
X50417D01*
X51250Y10999D01*
Y9333D01*
X50417Y8500D01*
D24*
X-184000Y-26000D02*
X-180000Y-30000D01*
X55000D01*
X60000Y-25000D01*
Y50000D01*
X70000Y60000D02*
X160000D01*
X165000Y65000D01*
Y565000D01*
X160000Y570000D02*
X165000Y565000D01*
X70000Y570000D02*
X160000Y570000D01*
X55000Y660000D02*
X60000Y655000D01*
X-179000Y660000D02*
X55000D01*
X-184000Y655000D02*
X-179000Y660000D01*
X-184000Y-26000D02*
Y655000D01*
X60000Y580000D02*
Y655000D01*
Y580000D02*
X60048Y579020D01*
X60430Y577097D01*
X61181Y575286D01*
X62270Y573656D01*
X63656Y572270D01*
X65286Y571181D01*
X67097Y570430D01*
X69020Y570048D01*
X70000Y570000D01*
X70000D01*
X69020Y59952D02*
X70000Y60000D01*
X67097Y59569D02*
X69020Y59952D01*
X65286Y58819D02*
X67097Y59569D01*
X63656Y57730D02*
X65286Y58819D01*
X62270Y56344D02*
X63656Y57730D01*
X61181Y54714D02*
X62270Y56344D01*
X60431Y52903D02*
X61181Y54714D01*
X60048Y50980D02*
X60431Y52903D01*
X60000Y50000D02*
X60048Y50980D01*
D25*
X10500Y586900D02*
D03*
X-20000Y43100D02*
D03*
D26*
X-70650Y511850D02*
D03*
X-94000Y519000D02*
D03*
X-32104Y521813D02*
D03*
X-58000Y239000D02*
D03*
X-59000Y264000D02*
D03*
X-44000Y163000D02*
D03*
X19000Y137000D02*
D03*
X19390Y155430D02*
D03*
X46000Y131000D02*
D03*
X28000Y264000D02*
D03*
X-84412Y308650D02*
D03*
X-84350Y321350D02*
D03*
X24450Y60091D02*
D03*
X-950Y59708D02*
D03*
X-26350Y59885D02*
D03*
X-51750Y59966D02*
D03*
X-77150Y60150D02*
D03*
X42050Y435513D02*
D03*
X-7425Y537085D02*
D03*
X-20154Y512108D02*
D03*
X-84277Y524596D02*
D03*
X-84397Y562662D02*
D03*
X30952Y562801D02*
D03*
X44570Y549813D02*
D03*
X6781Y361150D02*
D03*
X-32855Y347006D02*
D03*
X-34000Y334000D02*
D03*
X-19000Y361150D02*
D03*
X-32875Y384289D02*
D03*
X-33500Y389250D02*
D03*
X-49538Y414323D02*
D03*
X30000Y461150D02*
D03*
X5000D02*
D03*
X-21000D02*
D03*
X-46000D02*
D03*
X-58576Y486556D02*
D03*
X-72000Y461150D02*
D03*
X-58000Y537000D02*
D03*
X19000D02*
D03*
X-172000Y36100D02*
D03*
X-159000D02*
D03*
X-131000D02*
D03*
X-144000D02*
D03*
Y9100D02*
D03*
X-131000D02*
D03*
X-159000D02*
D03*
X-172000D02*
D03*
Y91500D02*
D03*
X-159000D02*
D03*
X-131000D02*
D03*
X-144000D02*
D03*
Y64500D02*
D03*
X-131000D02*
D03*
X-159000D02*
D03*
X-172000D02*
D03*
Y168600D02*
D03*
X-159000D02*
D03*
X-131000D02*
D03*
X-144000D02*
D03*
Y141600D02*
D03*
X-131000D02*
D03*
X-159000D02*
D03*
X-172000D02*
D03*
Y224000D02*
D03*
X-159000D02*
D03*
X-131000D02*
D03*
X-144000D02*
D03*
Y197000D02*
D03*
X-131000D02*
D03*
X-159000D02*
D03*
X-172000D02*
D03*
Y301100D02*
D03*
X-159000D02*
D03*
X-131000D02*
D03*
X-144000D02*
D03*
Y274100D02*
D03*
X-131000D02*
D03*
X-159000D02*
D03*
X-172000D02*
D03*
Y356500D02*
D03*
X-159000D02*
D03*
X-131000D02*
D03*
X-144000D02*
D03*
Y329500D02*
D03*
X-131000D02*
D03*
X-159000D02*
D03*
X-172000D02*
D03*
Y621500D02*
D03*
X-159000D02*
D03*
X-131000D02*
D03*
X-144000D02*
D03*
Y594500D02*
D03*
X-131000D02*
D03*
X-159000D02*
D03*
X-172000D02*
D03*
Y566100D02*
D03*
X-159000D02*
D03*
X-131000D02*
D03*
X-144000D02*
D03*
Y539100D02*
D03*
X-131000D02*
D03*
X-159000D02*
D03*
X-172000D02*
D03*
Y433600D02*
D03*
X-159000D02*
D03*
X-131000D02*
D03*
X-144000D02*
D03*
Y406600D02*
D03*
X-131000D02*
D03*
X-159000D02*
D03*
X-172000D02*
D03*
Y462000D02*
D03*
X-159000D02*
D03*
X-131000D02*
D03*
X-144000D02*
D03*
Y489000D02*
D03*
X-131000D02*
D03*
X-159000D02*
D03*
X-172000D02*
D03*
X-84950Y481940D02*
D03*
X122000Y326750D02*
D03*
X30649Y168850D02*
D03*
X5717Y168731D02*
D03*
X-20000Y168850D02*
D03*
X-33328Y246280D02*
D03*
X-34150Y238854D02*
D03*
X-84162Y226299D02*
D03*
X-80169Y276966D02*
D03*
X-84311Y163250D02*
D03*
X-87550Y167059D02*
D03*
X-7734Y175143D02*
D03*
X-3808Y149796D02*
D03*
X-78511Y150201D02*
D03*
X-8750Y198197D02*
D03*
X6349Y268300D02*
D03*
X10095Y264509D02*
D03*
X-5720Y202485D02*
D03*
X-68451Y215014D02*
D03*
X-72490Y212066D02*
D03*
X-47411Y214643D02*
D03*
X-42508Y213661D02*
D03*
X-59550Y213026D02*
D03*
X-22100Y213848D02*
D03*
X-17100Y213811D02*
D03*
X-48305Y264164D02*
D03*
X-56250Y225500D02*
D03*
X-28113Y276915D02*
D03*
X-32103Y261874D02*
D03*
X17677Y160127D02*
D03*
X21214Y163662D02*
D03*
X-59468Y292260D02*
D03*
X-57112Y287484D02*
D03*
X-35799Y265270D02*
D03*
X-2750Y302500D02*
D03*
X-8242Y236377D02*
D03*
X-8750Y241351D02*
D03*
X55750Y215750D02*
D03*
X60750D02*
D03*
X42400Y194350D02*
D03*
X17965Y196821D02*
D03*
X16660Y201667D02*
D03*
X17996Y208908D02*
D03*
X15070Y213227D02*
D03*
X20457Y303907D02*
D03*
X9882Y213838D02*
D03*
X4882Y213882D02*
D03*
X73500Y160750D02*
D03*
X67386Y165833D02*
D03*
X63399Y168850D02*
D03*
X77035Y164286D02*
D03*
X116561Y167328D02*
D03*
X120096Y163793D02*
D03*
X88000Y165000D02*
D03*
X91500Y161250D02*
D03*
X99550Y125932D02*
D03*
X97562Y120812D02*
D03*
X17257Y312979D02*
D03*
X-78250Y340648D02*
D03*
X-5543Y323515D02*
D03*
X42473Y316859D02*
D03*
X74150Y293500D02*
D03*
X99550Y288389D02*
D03*
X-56382Y338298D02*
D03*
X-5750Y364750D02*
D03*
X-58204Y404907D02*
D03*
X94970Y352635D02*
D03*
X67750Y356135D02*
D03*
X92850Y453726D02*
D03*
X-30864Y338300D02*
D03*
X-84950Y403487D02*
D03*
X5250Y410750D02*
D03*
X-20175Y410801D02*
D03*
X-45250Y411750D02*
D03*
X-70750Y413750D02*
D03*
X-32449Y478076D02*
D03*
X18000Y455500D02*
D03*
X-81442Y391668D02*
D03*
X-58118Y492382D02*
D03*
X24507Y391050D02*
D03*
X43097Y441885D02*
D03*
X71056Y466813D02*
D03*
X48750Y302000D02*
D03*
X49750Y378000D02*
D03*
X108850Y364600D02*
D03*
X83500Y368750D02*
D03*
X42850Y181650D02*
D03*
D27*
X-27547Y570750D02*
X66778D01*
X-34356Y563941D02*
X-27547Y570750D01*
X-34356Y547890D02*
Y563941D01*
Y547890D02*
X-28967Y542500D01*
X46000D01*
X98250D01*
X136500Y504250D01*
Y160500D02*
Y504250D01*
X134000Y158000D02*
X136500Y160500D01*
X118750Y158000D02*
X134000D01*
X113250Y152500D02*
X118750Y158000D01*
X123250Y120250D02*
X165500D01*
X113250Y130250D02*
X123250Y120250D01*
X113250Y130250D02*
Y152500D01*
D28*
X0Y0D02*
D03*
Y630000D02*
D03*
M02*
