G04*
G04 #@! TF.GenerationSoftware,Altium Limited,Altium Designer,21.1.0 (24)*
G04*
G04 Layer_Color=65535*
%FSLAX44Y44*%
%MOMM*%
G71*
G04*
G04 #@! TF.SameCoordinates,BAFAB9C6-4635-4B56-BF62-033A307C6E1E*
G04*
G04*
G04 #@! TF.FilePolarity,Positive*
G04*
G01*
G75*
%ADD10C,0.2500*%
%ADD11C,0.2000*%
G36*
X162463Y465344D02*
X142463D01*
Y485344D01*
X162463D01*
Y465344D01*
D02*
G37*
G36*
X162276Y365793D02*
X142276D01*
Y385793D01*
X162276D01*
Y365793D01*
D02*
G37*
G36*
X162760Y165984D02*
X142760D01*
Y185984D01*
X162760D01*
Y165984D01*
D02*
G37*
G36*
X162760Y86533D02*
Y66533D01*
X142760D01*
Y86533D01*
X162760D01*
D02*
G37*
G36*
X162797Y283976D02*
Y263976D01*
X142797D01*
Y283976D01*
X162797D01*
D02*
G37*
%LPC*%
G36*
X158907Y478158D02*
X146019D01*
Y476158D01*
X146445Y475973D01*
X146834Y475732D01*
X147204Y475473D01*
X147500Y475214D01*
X147741Y474992D01*
X147926Y474788D01*
X148000Y474714D01*
X148056Y474659D01*
X148074Y474622D01*
X148093Y474603D01*
X148389Y474196D01*
X148648Y473807D01*
X148852Y473455D01*
X149000Y473140D01*
X149111Y472881D01*
X149204Y472696D01*
X149222Y472622D01*
X149241Y472566D01*
X149260Y472548D01*
Y472529D01*
X151482D01*
X151222Y473196D01*
X150944Y473788D01*
X150796Y474066D01*
X150630Y474325D01*
X150482Y474566D01*
X150333Y474788D01*
X150185Y474992D01*
X150056Y475177D01*
X149945Y475325D01*
X149833Y475455D01*
X149741Y475566D01*
X149685Y475640D01*
X149648Y475677D01*
X149630Y475695D01*
X158907D01*
Y473140D01*
Y478158D01*
D02*
G37*
G36*
X158720Y380098D02*
X145832D01*
Y371488D01*
Y376024D01*
X145850Y375709D01*
X145869Y375413D01*
X145962Y374839D01*
X146110Y374358D01*
X146184Y374136D01*
X146276Y373932D01*
X146350Y373747D01*
X146443Y373599D01*
X146517Y373450D01*
X146573Y373339D01*
X146647Y373247D01*
X146684Y373191D01*
X146702Y373154D01*
X146721Y373136D01*
X146906Y372932D01*
X147091Y372747D01*
X147313Y372580D01*
X147554Y372432D01*
X148035Y372210D01*
X148498Y372025D01*
X148739Y371969D01*
X148943Y371913D01*
X149128Y371858D01*
X149295Y371839D01*
X149443Y371802D01*
X149535D01*
X149609Y371784D01*
X149628D01*
X149869Y374228D01*
X149498Y374265D01*
X149184Y374339D01*
X148906Y374413D01*
X148702Y374506D01*
X148535Y374580D01*
X148424Y374654D01*
X148350Y374710D01*
X148332Y374728D01*
X148184Y374913D01*
X148073Y375117D01*
X147980Y375321D01*
X147924Y375524D01*
X147887Y375691D01*
X147869Y375839D01*
Y375969D01*
X147887Y376246D01*
X147943Y376487D01*
X148017Y376691D01*
X148091Y376876D01*
X148165Y377006D01*
X148239Y377117D01*
X148295Y377172D01*
X148313Y377191D01*
X148498Y377339D01*
X148702Y377450D01*
X148906Y377524D01*
X149109Y377580D01*
X149295Y377617D01*
X149461Y377635D01*
X149554D01*
X149572D01*
X149591D01*
X149869Y377617D01*
X150128Y377561D01*
X150387Y377468D01*
X150609Y377376D01*
X150813Y377283D01*
X150961Y377191D01*
X151054Y377135D01*
X151091Y377117D01*
X151202Y377043D01*
X151331Y376931D01*
X151498Y376783D01*
X151646Y376635D01*
X151998Y376302D01*
X152350Y375969D01*
X152683Y375635D01*
X152831Y375487D01*
X152942Y375339D01*
X153054Y375228D01*
X153127Y375154D01*
X153183Y375098D01*
X153202Y375080D01*
X153553Y374710D01*
X153887Y374376D01*
X154201Y374062D01*
X154479Y373784D01*
X154757Y373525D01*
X155016Y373302D01*
X155238Y373099D01*
X155461Y372932D01*
X155646Y372784D01*
X155812Y372654D01*
X155942Y372543D01*
X156072Y372469D01*
X156146Y372395D01*
X156220Y372358D01*
X156257Y372321D01*
X156275D01*
X156701Y372080D01*
X157146Y371895D01*
X157553Y371747D01*
X157923Y371636D01*
X158257Y371562D01*
X158386Y371543D01*
X158497Y371525D01*
X158590Y371506D01*
X158664Y371488D01*
X158720D01*
Y380098D01*
D02*
G37*
%LPD*%
G36*
X149146Y380079D02*
X148869Y380042D01*
X148610Y380005D01*
X148369Y379931D01*
X147943Y379746D01*
X147573Y379561D01*
X147406Y379450D01*
X147276Y379357D01*
X147147Y379265D01*
X147054Y379172D01*
X146980Y379098D01*
X146906Y379061D01*
X146887Y379024D01*
X146869Y379005D01*
X146684Y378802D01*
X146517Y378561D01*
X146388Y378339D01*
X146276Y378080D01*
X146091Y377598D01*
X145962Y377117D01*
X145925Y376894D01*
X145887Y376691D01*
X145869Y376506D01*
X145850Y376339D01*
X145832Y376209D01*
Y380098D01*
X149424D01*
X149146Y380079D01*
D02*
G37*
G36*
X156442Y375210D02*
X156201Y375358D01*
X155998Y375524D01*
X155905Y375598D01*
X155831Y375654D01*
X155794Y375691D01*
X155775Y375709D01*
X155701Y375784D01*
X155609Y375858D01*
X155405Y376080D01*
X155164Y376320D01*
X154924Y376561D01*
X154701Y376802D01*
X154516Y377006D01*
X154442Y377080D01*
X154387Y377135D01*
X154368Y377172D01*
X154350Y377191D01*
X153961Y377598D01*
X153646Y377931D01*
X153350Y378209D01*
X153127Y378431D01*
X152942Y378598D01*
X152813Y378709D01*
X152720Y378783D01*
X152702Y378802D01*
X152387Y379042D01*
X152091Y379246D01*
X151813Y379413D01*
X151572Y379542D01*
X151369Y379654D01*
X151202Y379728D01*
X151109Y379765D01*
X151072Y379783D01*
X150776Y379894D01*
X150480Y379968D01*
X150202Y380024D01*
X149943Y380061D01*
X149739Y380079D01*
X149572Y380098D01*
X156442D01*
Y375210D01*
D02*
G37*
%LPC*%
G36*
X159194Y180595D02*
X146325D01*
Y171374D01*
Y176929D01*
X154491Y171374D01*
X146325D01*
X156620D01*
Y176632D01*
X159194D01*
Y179002D01*
X156620D01*
Y180595D01*
X159194D01*
D02*
G37*
%LPD*%
G36*
X154472Y179002D02*
X146325D01*
Y180595D01*
X154472D01*
Y179002D01*
D02*
G37*
G36*
Y173651D02*
X150065Y176632D01*
X154472D01*
Y173651D01*
D02*
G37*
%LPC*%
G36*
X159203Y80847D02*
D01*
Y76440D01*
X159185Y76848D01*
X159129Y77236D01*
X159055Y77588D01*
X158944Y77922D01*
X158814Y78236D01*
X158666Y78514D01*
X158518Y78773D01*
X158352Y79014D01*
X158203Y79218D01*
X158055Y79403D01*
X157907Y79570D01*
X157778Y79699D01*
X157667Y79792D01*
X157592Y79866D01*
X157537Y79903D01*
X157518Y79921D01*
X157278Y80088D01*
X157037Y80236D01*
X156796Y80347D01*
X156537Y80458D01*
X156055Y80625D01*
X155611Y80736D01*
X155426Y80773D01*
X155241Y80792D01*
X155074Y80829D01*
X154926D01*
X154815Y80847D01*
X154667D01*
X154315Y80829D01*
X153982Y80792D01*
X153667Y80736D01*
X153371Y80662D01*
X153111Y80588D01*
X152852Y80477D01*
X152611Y80384D01*
X152408Y80273D01*
X152223Y80162D01*
X152056Y80070D01*
X151908Y79959D01*
X151797Y79884D01*
X151704Y79810D01*
X151630Y79755D01*
X151593Y79718D01*
X151574Y79699D01*
X151371Y79477D01*
X151186Y79255D01*
X151019Y79014D01*
X150871Y78773D01*
X150760Y78551D01*
X150667Y78310D01*
X150519Y77885D01*
X150463Y77681D01*
X150427Y77496D01*
X150408Y77329D01*
X150389Y77200D01*
X150371Y77088D01*
Y76922D01*
X150389Y76607D01*
X150445Y76292D01*
X150500Y76014D01*
X150575Y75755D01*
X150667Y75552D01*
X150723Y75385D01*
X150778Y75274D01*
X150797Y75255D01*
Y75237D01*
X148612Y75626D01*
Y80273D01*
X146316D01*
Y73774D01*
X153000Y72515D01*
X153278Y74496D01*
X153111Y74663D01*
X152963Y74829D01*
X152834Y74996D01*
X152723Y75163D01*
X152556Y75477D01*
X152445Y75774D01*
X152389Y76033D01*
X152352Y76218D01*
X152334Y76292D01*
Y76403D01*
X152352Y76700D01*
X152426Y76977D01*
X152519Y77218D01*
X152630Y77422D01*
X152760Y77570D01*
X152852Y77699D01*
X152926Y77773D01*
X152945Y77792D01*
X153185Y77977D01*
X153463Y78107D01*
X153759Y78199D01*
X154056Y78255D01*
X154315Y78310D01*
X154519Y78329D01*
X154611D01*
X154667D01*
X154704D01*
X154722D01*
X155167Y78310D01*
X155556Y78255D01*
X155870Y78162D01*
X156130Y78070D01*
X156352Y77959D01*
X156500Y77885D01*
X156574Y77811D01*
X156611Y77792D01*
X156815Y77588D01*
X156981Y77366D01*
X157092Y77144D01*
X157167Y76940D01*
X157204Y76755D01*
X157222Y76607D01*
X157241Y76514D01*
Y76477D01*
X157222Y76237D01*
X157167Y75996D01*
X157092Y75792D01*
X157000Y75626D01*
X156907Y75477D01*
X156833Y75366D01*
X156778Y75292D01*
X156759Y75274D01*
X156556Y75107D01*
X156352Y74959D01*
X156130Y74848D01*
X155926Y74774D01*
X155741Y74718D01*
X155574Y74681D01*
X155482Y74663D01*
X155444D01*
X155704Y72218D01*
X156000Y72274D01*
X156278Y72330D01*
X156778Y72515D01*
X157222Y72719D01*
X157407Y72830D01*
X157592Y72959D01*
X157740Y73070D01*
X157870Y73163D01*
X157981Y73274D01*
X158092Y73348D01*
X158166Y73422D01*
X158222Y73478D01*
X158240Y73515D01*
X158259Y73533D01*
X158426Y73755D01*
X158574Y73978D01*
X158703Y74218D01*
X158796Y74459D01*
X158981Y74959D01*
X159092Y75403D01*
X159129Y75626D01*
X159148Y75811D01*
X159166Y75996D01*
X159185Y76144D01*
X159203Y76274D01*
Y72218D01*
X146316D01*
D01*
X159203D01*
Y80847D01*
D02*
G37*
G36*
X155199Y278235D02*
X146233D01*
D01*
X155199D01*
D02*
G37*
G36*
X159361D02*
X155288D01*
X154862Y278198D01*
X154491Y278124D01*
X154139Y278031D01*
X153862Y277902D01*
X153621Y277772D01*
X153454Y277680D01*
X153343Y277605D01*
X153306Y277568D01*
X153028Y277309D01*
X152788Y277013D01*
X152603Y276717D01*
X152454Y276439D01*
X152343Y276198D01*
X152288Y275995D01*
X152251Y275921D01*
Y275865D01*
X152232Y275828D01*
Y275809D01*
X152029Y276143D01*
X151825Y276420D01*
X151603Y276661D01*
X151381Y276883D01*
X151158Y277069D01*
X150936Y277217D01*
X150714Y277328D01*
X150510Y277439D01*
X150307Y277513D01*
X150121Y277568D01*
X149955Y277605D01*
X149807Y277624D01*
X149696Y277643D01*
X149603Y277661D01*
X149547D01*
X149529D01*
X149307Y277643D01*
X149103Y277624D01*
X148696Y277513D01*
X148325Y277383D01*
X148010Y277217D01*
X147751Y277050D01*
X147566Y276902D01*
X147492Y276846D01*
X147436Y276791D01*
X147418Y276772D01*
X147399Y276754D01*
X147196Y276550D01*
X147011Y276309D01*
X146862Y276087D01*
X146733Y275847D01*
X146603Y275587D01*
X146511Y275347D01*
X146381Y274884D01*
X146325Y274680D01*
X146288Y274476D01*
X146270Y274310D01*
X146251Y274143D01*
X146233Y274013D01*
Y274217D01*
Y269718D01*
Y273847D01*
X146251Y273458D01*
X146288Y273106D01*
X146362Y272773D01*
X146437Y272495D01*
X146511Y272273D01*
X146585Y272088D01*
X146622Y271977D01*
X146640Y271958D01*
Y271940D01*
X146807Y271643D01*
X146992Y271365D01*
X147177Y271143D01*
X147344Y270958D01*
X147510Y270810D01*
X147640Y270699D01*
X147714Y270625D01*
X147751Y270606D01*
X148029Y270440D01*
X148325Y270292D01*
X148640Y270180D01*
X148936Y270069D01*
X149214Y269995D01*
X149418Y269940D01*
X149510Y269921D01*
X149566D01*
X149603Y269903D01*
X149621D01*
X149992Y272162D01*
X149696Y272217D01*
X149436Y272291D01*
X149214Y272365D01*
X149047Y272458D01*
X148899Y272551D01*
X148788Y272625D01*
X148733Y272680D01*
X148714Y272699D01*
X148566Y272865D01*
X148455Y273050D01*
X148381Y273236D01*
X148325Y273402D01*
X148288Y273550D01*
X148270Y273661D01*
Y273773D01*
X148288Y273995D01*
X148325Y274217D01*
X148399Y274384D01*
X148455Y274532D01*
X148529Y274661D01*
X148603Y274736D01*
X148640Y274791D01*
X148659Y274809D01*
X148807Y274939D01*
X148992Y275032D01*
X149158Y275106D01*
X149325Y275143D01*
X149473Y275180D01*
X149584Y275198D01*
X149658D01*
X149696D01*
X149973Y275180D01*
X150214Y275124D01*
X150418Y275032D01*
X150584Y274939D01*
X150732Y274828D01*
X150825Y274754D01*
X150899Y274680D01*
X150918Y274661D01*
X151066Y274439D01*
X151177Y274198D01*
X151251Y273939D01*
X151306Y273699D01*
X151325Y273476D01*
X151343Y273291D01*
Y273125D01*
X153325Y272865D01*
X153269Y273106D01*
X153214Y273310D01*
X153177Y273513D01*
X153158Y273680D01*
X153139Y273810D01*
Y273995D01*
X153158Y274254D01*
X153232Y274476D01*
X153306Y274680D01*
X153417Y274865D01*
X153510Y274995D01*
X153603Y275106D01*
X153677Y275180D01*
X153695Y275198D01*
X153917Y275365D01*
X154158Y275495D01*
X154399Y275587D01*
X154639Y275661D01*
X154862Y275698D01*
X155028Y275717D01*
X155139D01*
X155158D01*
X155176D01*
X155528Y275698D01*
X155843Y275643D01*
X156121Y275550D01*
X156343Y275458D01*
X156510Y275347D01*
X156639Y275272D01*
X156732Y275198D01*
X156750Y275180D01*
X156935Y274976D01*
X157084Y274754D01*
X157176Y274550D01*
X157250Y274347D01*
X157287Y274161D01*
X157306Y274032D01*
X157324Y273939D01*
Y273902D01*
X157306Y273643D01*
X157250Y273421D01*
X157176Y273217D01*
X157084Y273032D01*
X157009Y272902D01*
X156935Y272791D01*
X156880Y272717D01*
X156861Y272699D01*
X156658Y272532D01*
X156435Y272384D01*
X156195Y272291D01*
X155973Y272199D01*
X155769Y272143D01*
X155602Y272106D01*
X155491Y272088D01*
X155473D01*
X155454D01*
X155750Y269718D01*
X156047Y269755D01*
X156324Y269829D01*
X156843Y269995D01*
X157287Y270199D01*
X157472Y270329D01*
X157658Y270440D01*
X157824Y270551D01*
X157954Y270662D01*
X158083Y270754D01*
X158176Y270847D01*
X158250Y270921D01*
X158306Y270977D01*
X158343Y271014D01*
X158361Y271032D01*
X158528Y271254D01*
X158694Y271495D01*
X158824Y271717D01*
X158935Y271977D01*
X159120Y272458D01*
X159232Y272902D01*
X159269Y273125D01*
X159306Y273310D01*
X159324Y273476D01*
X159343Y273624D01*
X159361Y273754D01*
Y269718D01*
Y273921D01*
X159343Y274254D01*
X159306Y274587D01*
X159250Y274884D01*
X159176Y275180D01*
X159083Y275439D01*
X158991Y275698D01*
X158880Y275939D01*
X158769Y276143D01*
X158658Y276328D01*
X158546Y276513D01*
X158454Y276643D01*
X158361Y276772D01*
X158287Y276865D01*
X158232Y276939D01*
X158195Y276976D01*
X158176Y276994D01*
X157954Y277217D01*
X157713Y277402D01*
X157472Y277568D01*
X157232Y277717D01*
X156973Y277828D01*
X156732Y277939D01*
X156287Y278087D01*
X156084Y278124D01*
X155880Y278161D01*
X155713Y278198D01*
X155565Y278217D01*
X155454Y278235D01*
X159361D01*
D02*
G37*
%LPD*%
D10*
X154600Y540400D02*
G03*
X154600Y540400I-1250J0D01*
G01*
Y340400D02*
G03*
X154600Y340400I-1250J0D01*
G01*
Y240400D02*
G03*
X154600Y240400I-1250J0D01*
G01*
Y140400D02*
G03*
X154600Y140400I-1250J0D01*
G01*
Y440400D02*
G03*
X154600Y440400I-1250J0D01*
G01*
D11*
X-107000Y489600D02*
X-104650D01*
X-107000Y540400D02*
X-104650D01*
X-107000Y489600D02*
Y540400D01*
X147000Y489600D02*
Y540400D01*
X144650D02*
X147000D01*
X144650Y489600D02*
X147000D01*
X-107000Y289600D02*
X-104650D01*
X-107000Y340400D02*
X-104650D01*
X-107000Y289600D02*
Y340400D01*
X147000Y289600D02*
Y340400D01*
X144650D02*
X147000D01*
X144650Y289600D02*
X147000D01*
X-107000Y189600D02*
X-104650D01*
X-107000Y240400D02*
X-104650D01*
X-107000Y189600D02*
Y240400D01*
X147000Y189600D02*
Y240400D01*
X144650D02*
X147000D01*
X144650Y189600D02*
X147000D01*
X-107000Y89600D02*
X-104650D01*
X-107000Y140400D02*
X-104650D01*
X-107000Y89600D02*
Y140400D01*
X147000Y89600D02*
Y140400D01*
X144650D02*
X147000D01*
X144650Y89600D02*
X147000D01*
X-107000Y389600D02*
X-104650D01*
X-107000Y440400D02*
X-104650D01*
X-107000Y389600D02*
Y440400D01*
X147000Y389600D02*
Y440400D01*
X144650D02*
X147000D01*
X144650Y389600D02*
X147000D01*
M02*
