G04*
G04 #@! TF.GenerationSoftware,Altium Limited,Altium Designer,21.1.0 (24)*
G04*
G04 Layer_Physical_Order=1*
G04 Layer_Color=255*
%FSLAX44Y44*%
%MOMM*%
G71*
G04*
G04 #@! TF.SameCoordinates,BAFAB9C6-4635-4B56-BF62-033A307C6E1E*
G04*
G04*
G04 #@! TF.FilePolarity,Positive*
G04*
G01*
G75*
%ADD12R,5.0000X1.6000*%
%ADD13R,1.2700X3.6800*%
%ADD17C,0.1250*%
%ADD18C,0.1500*%
%ADD19C,0.1000*%
%ADD20C,0.4000*%
%ADD21C,0.9700*%
%ADD22C,0.4000*%
%ADD23C,5.0000*%
G36*
X57961Y654155D02*
Y580000D01*
X57971Y579950D01*
X57963Y579900D01*
X58011Y578920D01*
X58048Y578773D01*
Y578622D01*
X58431Y576699D01*
X58507Y576514D01*
X58547Y576317D01*
X59297Y574506D01*
X59408Y574339D01*
X59485Y574153D01*
X60574Y572523D01*
X60716Y572381D01*
X60828Y572214D01*
X62214Y570828D01*
X62381Y570716D01*
X62523Y570574D01*
X64153Y569485D01*
X64339Y569408D01*
X64506Y569297D01*
X66317Y568547D01*
X66514Y568507D01*
X66699Y568430D01*
X68622Y568048D01*
X68773D01*
X68920Y568011D01*
X69900Y567963D01*
X69950Y567971D01*
X70000Y567961D01*
X159155Y567961D01*
X162961Y564155D01*
Y65845D01*
X159155Y62039D01*
X70000D01*
X69950Y62029D01*
X69900Y62037D01*
X68920Y61989D01*
X68773Y61952D01*
X68622D01*
X66699Y61569D01*
X66514Y61493D01*
X66317Y61453D01*
X64506Y60703D01*
X64339Y60592D01*
X64153Y60515D01*
X62523Y59426D01*
X62381Y59284D01*
X62214Y59172D01*
X60828Y57786D01*
X60716Y57619D01*
X60574Y57477D01*
X59485Y55847D01*
X59408Y55661D01*
X59297Y55494D01*
X58547Y53683D01*
X58507Y53486D01*
X58431Y53301D01*
X58048Y51378D01*
Y51227D01*
X58011Y51080D01*
X57963Y50100D01*
X57971Y50050D01*
X57961Y50000D01*
Y-24155D01*
X54155Y-27961D01*
X-179155D01*
X-181961Y-25155D01*
Y654155D01*
X-178155Y657961D01*
X54155D01*
X57961Y654155D01*
D02*
G37*
%LPC*%
G36*
X-126400Y616700D02*
X-151130D01*
Y608970D01*
X-126400D01*
Y616700D01*
D02*
G37*
G36*
X-153670D02*
X-178400D01*
Y608970D01*
X-153670D01*
Y616700D01*
D02*
G37*
G36*
X-126400Y606430D02*
X-151130D01*
Y598700D01*
X-126400D01*
Y606430D01*
D02*
G37*
G36*
X-153670D02*
X-178400D01*
Y598700D01*
X-153670D01*
Y606430D01*
D02*
G37*
G36*
X11468Y594250D02*
X9532D01*
X7663Y593749D01*
X5987Y592781D01*
X4618Y591413D01*
X3651Y589737D01*
X3150Y587868D01*
Y585932D01*
X3651Y584063D01*
X4618Y582387D01*
X5987Y581018D01*
X7663Y580051D01*
X9532Y579550D01*
X11468D01*
X13337Y580051D01*
X15013Y581018D01*
X16381Y582387D01*
X17349Y584063D01*
X17850Y585932D01*
Y587868D01*
X17349Y589737D01*
X16381Y591413D01*
X15013Y592781D01*
X13337Y593749D01*
X11468Y594250D01*
D02*
G37*
G36*
X-126400Y561300D02*
X-151130D01*
Y553570D01*
X-126400D01*
Y561300D01*
D02*
G37*
G36*
X-153670D02*
X-178400D01*
Y553570D01*
X-153670D01*
Y561300D01*
D02*
G37*
G36*
X-5403Y553000D02*
X-6597D01*
X-7699Y552543D01*
X-8543Y551699D01*
X-9000Y550597D01*
Y549403D01*
X-8543Y548301D01*
X-7699Y547457D01*
X-6597Y547000D01*
X-5403D01*
X-4301Y547457D01*
X-3457Y548301D01*
X-3000Y549403D01*
Y550597D01*
X-3457Y551699D01*
X-4301Y552543D01*
X-5403Y553000D01*
D02*
G37*
G36*
X-56403D02*
X-57597D01*
X-58699Y552543D01*
X-59543Y551699D01*
X-60000Y550597D01*
Y549403D01*
X-59543Y548301D01*
X-58699Y547457D01*
X-57597Y547000D01*
X-56403D01*
X-55301Y547457D01*
X-54457Y548301D01*
X-54000Y549403D01*
Y550597D01*
X-54457Y551699D01*
X-55301Y552543D01*
X-56403Y553000D01*
D02*
G37*
G36*
X-30403Y552750D02*
X-31597D01*
X-32699Y552293D01*
X-33543Y551449D01*
X-34000Y550347D01*
Y549153D01*
X-33543Y548051D01*
X-32699Y547207D01*
X-31597Y546750D01*
X-30403D01*
X-29301Y547207D01*
X-28457Y548051D01*
X-28000Y549153D01*
Y550347D01*
X-28457Y551449D01*
X-29301Y552293D01*
X-30403Y552750D01*
D02*
G37*
G36*
X-126400Y551030D02*
X-151130D01*
Y543300D01*
X-126400D01*
Y551030D01*
D02*
G37*
G36*
X-153670D02*
X-178400D01*
Y543300D01*
X-153670D01*
Y551030D01*
D02*
G37*
G36*
X141650Y559150D02*
X135570D01*
Y541020D01*
X141650D01*
Y559150D01*
D02*
G37*
G36*
X133030D02*
X126950D01*
Y541020D01*
X133030D01*
Y559150D01*
D02*
G37*
G36*
X141650Y538480D02*
X135570D01*
Y520350D01*
X141650D01*
Y538480D01*
D02*
G37*
G36*
X133030D02*
X126950D01*
Y520350D01*
X133030D01*
Y538480D01*
D02*
G37*
G36*
X-43903Y565750D02*
X-45097D01*
X-46199Y565293D01*
X-47043Y564449D01*
X-47500Y563347D01*
Y562153D01*
X-47043Y561051D01*
X-46413Y560420D01*
X-46652Y559414D01*
X-46802Y559150D01*
X-50850D01*
Y523336D01*
X-50857Y523325D01*
X-50850Y523295D01*
Y523200D01*
X-50871Y523148D01*
X-50850Y523097D01*
Y522857D01*
X-50913Y522768D01*
X-51254Y522368D01*
X-51481Y522133D01*
X-51528Y522015D01*
X-59290Y514254D01*
X-59649Y513716D01*
X-59775Y513082D01*
Y495640D01*
X-59833Y495521D01*
X-60280Y495139D01*
X-60977Y495311D01*
X-61550Y495942D01*
Y509650D01*
X-76250D01*
Y473836D01*
X-76257Y473825D01*
X-76250Y473795D01*
Y473700D01*
X-76271Y473648D01*
X-76250Y473596D01*
Y473357D01*
X-76313Y473268D01*
X-76654Y472868D01*
X-76881Y472633D01*
X-76928Y472515D01*
X-82023Y467420D01*
X-83293Y467946D01*
Y468850D01*
X-83419Y469484D01*
X-83778Y470022D01*
X-86263Y472506D01*
X-86305Y472618D01*
X-86744Y473090D01*
X-86878Y473256D01*
X-86950Y473357D01*
Y473596D01*
X-86929Y473648D01*
X-86950Y473700D01*
Y473795D01*
X-86943Y473825D01*
X-86950Y473836D01*
Y478147D01*
X-85680Y478995D01*
X-85547Y478940D01*
X-84353D01*
X-83251Y479397D01*
X-82407Y480241D01*
X-81950Y481343D01*
Y482537D01*
X-82407Y483640D01*
X-82741Y483974D01*
X-82823Y484171D01*
X-82947Y484294D01*
X-83031Y484389D01*
X-83100Y484481D01*
X-83156Y484567D01*
X-83200Y484650D01*
X-83234Y484730D01*
X-83259Y484808D01*
X-83277Y484887D01*
X-83288Y484969D01*
X-83294Y485103D01*
X-83343Y485209D01*
Y510914D01*
X-74594Y519663D01*
X-74482Y519705D01*
X-74010Y520144D01*
X-73844Y520278D01*
X-73743Y520350D01*
X-73503D01*
X-73452Y520329D01*
X-73400Y520350D01*
X-73305D01*
X-73275Y520343D01*
X-73264Y520350D01*
X-61550D01*
Y559150D01*
X-76250D01*
Y523336D01*
X-76257Y523325D01*
X-76250Y523295D01*
Y523200D01*
X-76271Y523148D01*
X-76250Y523097D01*
Y522857D01*
X-76313Y522768D01*
X-76654Y522368D01*
X-76881Y522133D01*
X-76928Y522015D01*
X-86172Y512771D01*
X-86531Y512234D01*
X-86657Y511600D01*
Y510799D01*
X-86950Y509650D01*
X-101650D01*
Y470850D01*
X-89936D01*
X-89925Y470843D01*
X-89895Y470850D01*
X-89800D01*
X-89748Y470829D01*
X-89697Y470850D01*
X-89457D01*
X-89368Y470787D01*
X-88968Y470446D01*
X-88733Y470219D01*
X-88615Y470172D01*
X-86607Y468164D01*
Y460278D01*
X-86950Y459150D01*
X-87877Y459150D01*
X-93030D01*
Y439750D01*
Y420350D01*
X-86950Y420350D01*
X-86607Y419222D01*
Y410778D01*
X-86950Y409650D01*
X-93030D01*
Y391520D01*
X-86950D01*
Y399693D01*
X-85680Y400542D01*
X-85547Y400487D01*
X-84353D01*
X-84252Y400529D01*
X-82982Y399680D01*
Y394968D01*
X-83030Y394869D01*
X-83027Y394859D01*
X-83031Y394850D01*
X-83037Y394716D01*
X-83048Y394637D01*
X-83066Y394562D01*
X-83090Y394488D01*
X-83123Y394414D01*
X-83165Y394337D01*
X-83219Y394257D01*
X-83286Y394172D01*
X-83369Y394084D01*
X-83494Y393967D01*
X-83585Y393767D01*
X-83985Y393367D01*
X-84442Y392265D01*
Y391071D01*
X-83985Y389968D01*
X-83141Y389124D01*
X-82038Y388668D01*
X-80845D01*
X-80507Y388808D01*
X-79237Y387970D01*
Y343487D01*
X-79949Y343192D01*
X-80793Y342348D01*
X-81250Y341245D01*
Y340052D01*
X-80793Y338949D01*
X-79949Y338105D01*
X-78847Y337648D01*
X-77653D01*
X-77520Y337704D01*
X-76250Y336855D01*
Y320350D01*
X-64674D01*
Y313082D01*
X-64198Y311934D01*
X-63193Y310930D01*
X-63223Y310589D01*
X-63710Y309650D01*
X-76250D01*
Y278662D01*
X-77520Y278409D01*
X-77626Y278665D01*
X-78470Y279509D01*
X-79573Y279966D01*
X-80766D01*
X-81869Y279509D01*
X-82713Y278665D01*
X-83169Y277563D01*
Y276369D01*
X-82713Y275266D01*
X-82425Y274979D01*
X-82350Y274788D01*
X-82227Y274660D01*
X-82143Y274560D01*
X-82073Y274464D01*
X-82016Y274372D01*
X-81971Y274284D01*
X-81936Y274201D01*
X-81910Y274119D01*
X-81892Y274037D01*
X-81881Y273953D01*
X-81876Y273820D01*
X-81826Y273713D01*
Y229865D01*
X-83096Y229105D01*
X-83565Y229299D01*
X-84759D01*
X-85680Y228918D01*
X-86423Y229208D01*
X-86950Y229550D01*
Y238480D01*
X-93030D01*
Y220350D01*
X-86950D01*
Y220350D01*
X-85796Y220070D01*
Y209930D01*
X-86950Y209650D01*
X-87066Y209650D01*
X-93030D01*
Y190250D01*
Y170850D01*
X-89556D01*
X-89275Y169706D01*
X-89272Y169580D01*
X-90093Y168758D01*
X-90550Y167656D01*
Y166462D01*
X-90136Y165463D01*
X-90119Y165356D01*
X-89910Y165021D01*
X-89846Y164898D01*
X-89788Y164772D01*
X-89741Y164652D01*
X-89705Y164537D01*
X-89677Y164428D01*
X-89658Y164326D01*
X-89648Y164228D01*
X-89643Y164093D01*
X-89593Y163985D01*
Y160434D01*
X-89590Y160420D01*
X-90381Y159243D01*
X-90534Y159150D01*
X-93030D01*
Y139750D01*
Y120350D01*
X-87157D01*
Y118900D01*
X-87031Y118266D01*
X-86672Y117729D01*
X-76938Y107995D01*
X-76897Y107883D01*
X-76464Y107417D01*
X-76335Y107256D01*
X-76250Y107134D01*
Y106977D01*
X-76302Y106852D01*
X-76268Y106770D01*
X-76289Y106683D01*
X-76250Y106620D01*
Y70850D01*
X-61550D01*
Y109650D01*
X-60442Y110041D01*
X-53606D01*
X-51537Y107973D01*
X-51495Y107860D01*
X-51057Y107390D01*
X-50924Y107225D01*
X-50850Y107120D01*
Y106870D01*
X-50871Y106817D01*
X-50850Y106767D01*
Y106664D01*
X-50855Y106642D01*
X-50850Y106634D01*
Y70850D01*
X-36150D01*
Y109650D01*
X-34950Y109819D01*
X-27962D01*
X-26138Y107995D01*
X-26096Y107883D01*
X-25664Y107417D01*
X-25535Y107256D01*
X-25450Y107134D01*
Y106977D01*
X-25502Y106852D01*
X-25468Y106770D01*
X-25489Y106683D01*
X-25450Y106620D01*
Y70850D01*
X-10750D01*
Y106515D01*
X-9577Y107001D01*
X-9429Y106853D01*
X-8891Y106494D01*
X-8257Y106368D01*
X-410D01*
X-298Y106318D01*
X-89Y106313D01*
X-50Y106309D01*
Y70850D01*
X14650D01*
Y109551D01*
X23106D01*
X24662Y107995D01*
X24704Y107883D01*
X25136Y107417D01*
X25265Y107256D01*
X25318Y107179D01*
Y106900D01*
X25298Y106852D01*
X25318Y106803D01*
Y106712D01*
X25311Y106683D01*
X25318Y106672D01*
Y95975D01*
X25350Y95815D01*
Y70850D01*
X40050D01*
Y109650D01*
X28380D01*
X28317Y109689D01*
X28231Y109668D01*
X28148Y109702D01*
X28023Y109650D01*
X27866D01*
X27757Y109726D01*
X27363Y110059D01*
X27132Y110282D01*
X26828Y110907D01*
X27541Y112177D01*
X45880D01*
X50062Y107995D01*
X50104Y107883D01*
X50536Y107417D01*
X50665Y107256D01*
X50750Y107134D01*
Y106977D01*
X50698Y106852D01*
X50732Y106770D01*
X50711Y106683D01*
X50750Y106620D01*
Y70850D01*
X65450D01*
Y109650D01*
X53780D01*
X53717Y109689D01*
X53630Y109668D01*
X53548Y109702D01*
X53423Y109650D01*
X53266D01*
X53157Y109726D01*
X52763Y110059D01*
X52532Y110282D01*
X52415Y110328D01*
X49196Y113547D01*
X49682Y114720D01*
X68737D01*
X75462Y107995D01*
X75504Y107883D01*
X75936Y107417D01*
X76065Y107256D01*
X76150Y107134D01*
Y106977D01*
X76098Y106852D01*
X76132Y106770D01*
X76111Y106683D01*
X76150Y106620D01*
Y70850D01*
X90850D01*
Y109650D01*
X79180D01*
X79117Y109689D01*
X79030Y109668D01*
X78948Y109702D01*
X78823Y109650D01*
X78666D01*
X78557Y109726D01*
X78163Y110059D01*
X77932Y110282D01*
X77815Y110328D01*
X72131Y116012D01*
X72617Y117186D01*
X91671D01*
X100862Y107995D01*
X100904Y107883D01*
X101336Y107417D01*
X101465Y107256D01*
X101550Y107134D01*
Y106977D01*
X101498Y106852D01*
X101532Y106770D01*
X101511Y106683D01*
X101550Y106620D01*
Y70850D01*
X116250D01*
Y109650D01*
X104580D01*
X104517Y109689D01*
X104431Y109668D01*
X104348Y109702D01*
X104223Y109650D01*
X104066D01*
X103957Y109726D01*
X103563Y110059D01*
X103332Y110282D01*
X103215Y110328D01*
X97001Y116542D01*
X97527Y117812D01*
X98159D01*
X99261Y118268D01*
X100105Y119112D01*
X100428Y119893D01*
X101550Y120350D01*
X101550Y120350D01*
X101550Y120350D01*
X116250D01*
Y131858D01*
X116265Y131886D01*
X116292Y132138D01*
X116325Y132229D01*
X116379Y132310D01*
X116488Y132411D01*
X116684Y132530D01*
X116985Y132652D01*
X117392Y132761D01*
X117905Y132845D01*
X118515Y132899D01*
X119248Y132918D01*
X119340Y132959D01*
X119545Y133000D01*
X119847D01*
X120125Y133115D01*
X120421Y133174D01*
X120671Y133341D01*
X120949Y133457D01*
X121162Y133670D01*
X121413Y133837D01*
X121580Y134088D01*
X121793Y134301D01*
X121909Y134579D01*
X122076Y134830D01*
X122135Y135125D01*
X122250Y135403D01*
Y135704D01*
X122309Y136000D01*
X122250Y136295D01*
Y136597D01*
X122135Y136875D01*
X122076Y137170D01*
X121909Y137421D01*
X121793Y137699D01*
X121580Y137912D01*
X121413Y138163D01*
X121162Y138330D01*
X120949Y138543D01*
X120671Y138659D01*
X120421Y138826D01*
X120125Y138885D01*
X119847Y139000D01*
X119545D01*
X119340Y139041D01*
X119248Y139082D01*
X118515Y139101D01*
X117905Y139155D01*
X117393Y139239D01*
X116985Y139348D01*
X116684Y139470D01*
X116488Y139589D01*
X116379Y139689D01*
X116325Y139771D01*
X116292Y139862D01*
X116265Y140114D01*
X116250Y140142D01*
Y143108D01*
X116265Y143136D01*
X116292Y143388D01*
X116325Y143479D01*
X116379Y143560D01*
X116488Y143661D01*
X116684Y143780D01*
X116985Y143902D01*
X117392Y144011D01*
X117905Y144095D01*
X118515Y144149D01*
X119248Y144168D01*
X119300Y144191D01*
X119500D01*
X119796Y144250D01*
X120097D01*
X120375Y144365D01*
X120670Y144424D01*
X120921Y144591D01*
X121199Y144707D01*
X121412Y144920D01*
X121663Y145087D01*
X121830Y145338D01*
X122043Y145551D01*
X122159Y145829D01*
X122326Y146080D01*
X122385Y146375D01*
X122500Y146653D01*
Y146954D01*
X122559Y147250D01*
X122500Y147545D01*
Y147847D01*
X122385Y148125D01*
X122326Y148420D01*
X122159Y148671D01*
X122043Y148949D01*
X121830Y149162D01*
X121663Y149413D01*
X121412Y149580D01*
X121199Y149793D01*
X120921Y149909D01*
X120670Y150076D01*
X120375Y150135D01*
X120097Y150250D01*
X119796D01*
X119500Y150309D01*
X119300D01*
X119248Y150332D01*
X118515Y150351D01*
X117905Y150405D01*
X117393Y150489D01*
X116985Y150598D01*
X116684Y150720D01*
X116488Y150839D01*
X116379Y150939D01*
X116325Y151021D01*
X116292Y151112D01*
X116265Y151364D01*
X116250Y151392D01*
Y159150D01*
X101685D01*
Y170850D01*
X114157D01*
X114570Y169580D01*
X114017Y169028D01*
X113561Y167925D01*
Y166732D01*
X114017Y165629D01*
X114861Y164785D01*
X115964Y164328D01*
X117096D01*
Y163196D01*
X117553Y162094D01*
X118397Y161250D01*
X119499Y160793D01*
X120693D01*
X121796Y161250D01*
X122640Y162094D01*
X123096Y163196D01*
Y164390D01*
X122640Y165492D01*
X122549Y165583D01*
X122523Y165691D01*
X122523Y165691D01*
X123398Y166566D01*
X123874Y167715D01*
Y305501D01*
X123398Y306649D01*
X122666Y307381D01*
X122666Y307381D01*
X116374Y313674D01*
Y333900D01*
X116250Y334198D01*
Y359150D01*
X101550D01*
X101082Y360226D01*
Y369774D01*
X101550Y370850D01*
X102352Y370850D01*
X107184D01*
X107188Y370813D01*
X107193Y370603D01*
X107243Y370490D01*
Y367869D01*
X107194Y367763D01*
X107188Y367629D01*
X107177Y367547D01*
X107159Y367468D01*
X107134Y367390D01*
X107100Y367310D01*
X107056Y367227D01*
X107000Y367141D01*
X106931Y367049D01*
X106847Y366954D01*
X106723Y366831D01*
X106641Y366633D01*
X106307Y366299D01*
X105850Y365197D01*
Y364003D01*
X106307Y362901D01*
X107151Y362057D01*
X108253Y361600D01*
X109447D01*
X110549Y362057D01*
X111393Y362901D01*
X111850Y364003D01*
Y365197D01*
X111393Y366299D01*
X111149Y366543D01*
X111084Y366723D01*
X110962Y366856D01*
X110877Y366962D01*
X110807Y367063D01*
X110749Y367159D01*
X110703Y367251D01*
X110668Y367339D01*
X110641Y367425D01*
X110623Y367509D01*
X110612Y367595D01*
X110606Y367728D01*
X110557Y367835D01*
Y370490D01*
X110607Y370603D01*
X110612Y370813D01*
X110616Y370850D01*
X116250D01*
Y409650D01*
X102352D01*
X101550Y409650D01*
X101082Y410726D01*
Y417239D01*
X103004Y419161D01*
X103073Y419178D01*
X103117Y419249D01*
X103194Y419279D01*
X103505Y419582D01*
X104044Y420059D01*
X104244Y420213D01*
X104409Y420323D01*
X104458Y420350D01*
X104807D01*
X104832Y420344D01*
X104841Y420350D01*
X116250D01*
Y459150D01*
X101550D01*
Y434185D01*
X101518Y434025D01*
Y422500D01*
X101160Y422082D01*
X100919Y421834D01*
X100872Y421716D01*
X98254Y419097D01*
X97894Y418559D01*
X96626Y418694D01*
Y442003D01*
X99285Y444662D01*
X99644Y445200D01*
X99771Y445834D01*
Y466727D01*
X103206Y470163D01*
X103318Y470205D01*
X103790Y470644D01*
X103956Y470778D01*
X104057Y470850D01*
X104297D01*
X104348Y470829D01*
X104400Y470850D01*
X104495D01*
X104525Y470843D01*
X104536Y470850D01*
X116250D01*
Y509650D01*
X101550D01*
Y473836D01*
X101543Y473825D01*
X101550Y473795D01*
Y473700D01*
X101529Y473648D01*
X101550Y473596D01*
Y473357D01*
X101487Y473268D01*
X101146Y472868D01*
X100919Y472633D01*
X100872Y472515D01*
X96942Y468585D01*
X96583Y468048D01*
X96457Y467414D01*
Y456021D01*
X96283Y455924D01*
X95156Y455906D01*
X94577Y456638D01*
X94573Y456655D01*
X94562Y456739D01*
X94556Y456872D01*
X94507Y456979D01*
Y510964D01*
X103206Y519663D01*
X103318Y519705D01*
X103790Y520144D01*
X103956Y520278D01*
X104057Y520350D01*
X104297D01*
X104348Y520329D01*
X104400Y520350D01*
X104495D01*
X104525Y520343D01*
X104536Y520350D01*
X116250D01*
Y559150D01*
X101550D01*
Y523336D01*
X101543Y523325D01*
X101550Y523295D01*
Y523200D01*
X101529Y523148D01*
X101550Y523097D01*
Y522857D01*
X101487Y522768D01*
X101146Y522368D01*
X100919Y522133D01*
X100872Y522015D01*
X91678Y512822D01*
X91319Y512284D01*
X91193Y511650D01*
Y510778D01*
X90850Y509650D01*
X76150D01*
Y473836D01*
X76143Y473825D01*
X76150Y473795D01*
Y473700D01*
X76129Y473648D01*
X76150Y473596D01*
Y473357D01*
X76087Y473268D01*
X75746Y472868D01*
X75518Y472633D01*
X75472Y472515D01*
X74617Y471660D01*
X74258Y471122D01*
X74196Y470815D01*
X73896Y470537D01*
X73492Y470340D01*
X72882Y470253D01*
X72713Y470602D01*
Y514570D01*
X77806Y519663D01*
X77918Y519705D01*
X78390Y520144D01*
X78556Y520278D01*
X78657Y520350D01*
X78896D01*
X78948Y520329D01*
X79000Y520350D01*
X79095D01*
X79125Y520343D01*
X79136Y520350D01*
X90850D01*
Y559150D01*
X76150D01*
Y523336D01*
X76143Y523325D01*
X76150Y523295D01*
Y523200D01*
X76129Y523148D01*
X76150Y523097D01*
Y522857D01*
X76087Y522768D01*
X75746Y522368D01*
X75518Y522133D01*
X75472Y522015D01*
X69885Y516428D01*
X69525Y515890D01*
X69399Y515256D01*
Y470066D01*
X69350Y469960D01*
X69344Y469826D01*
X69333Y469742D01*
X69315Y469660D01*
X69289Y469578D01*
X69254Y469495D01*
X69209Y469407D01*
X69153Y469316D01*
X69083Y469220D01*
X68998Y469119D01*
X68875Y468991D01*
X68801Y468801D01*
X68513Y468513D01*
X68056Y467410D01*
Y466217D01*
X68513Y465114D01*
X69357Y464270D01*
X69896Y464046D01*
X70286Y462640D01*
X66720Y459074D01*
X65450Y459150D01*
X65450Y459150D01*
X50750D01*
Y423336D01*
X50743Y423325D01*
X50750Y423295D01*
Y423200D01*
X50729Y423148D01*
X50750Y423097D01*
Y422857D01*
X50687Y422768D01*
X50346Y422368D01*
X50118Y422133D01*
X50072Y422015D01*
X45364Y417308D01*
X44095Y417834D01*
Y425934D01*
X48859Y430698D01*
X49218Y431236D01*
X49344Y431870D01*
Y467101D01*
X52406Y470163D01*
X52518Y470205D01*
X52990Y470644D01*
X53156Y470778D01*
X53257Y470850D01*
X53496D01*
X53548Y470829D01*
X53600Y470850D01*
X53695D01*
X53725Y470843D01*
X53736Y470850D01*
X65450D01*
Y509650D01*
X50750D01*
Y473836D01*
X50743Y473825D01*
X50750Y473795D01*
Y473700D01*
X50729Y473648D01*
X50750Y473596D01*
Y473357D01*
X50687Y473268D01*
X50346Y472868D01*
X50118Y472633D01*
X50072Y472515D01*
X46516Y468959D01*
X46157Y468421D01*
X46031Y467787D01*
Y446870D01*
X44760Y446299D01*
X44754Y446305D01*
Y512011D01*
X52406Y519663D01*
X52518Y519705D01*
X52990Y520144D01*
X53156Y520278D01*
X53257Y520350D01*
X53496D01*
X53548Y520329D01*
X53600Y520350D01*
X53695D01*
X53725Y520343D01*
X53736Y520350D01*
X65450D01*
Y559150D01*
X50750D01*
Y523336D01*
X50743Y523325D01*
X50750Y523295D01*
Y523200D01*
X50729Y523148D01*
X50750Y523097D01*
Y522857D01*
X50687Y522768D01*
X50346Y522368D01*
X50118Y522133D01*
X50072Y522015D01*
X41926Y513869D01*
X41567Y513331D01*
X41441Y512697D01*
Y445662D01*
X41397Y445587D01*
X40948Y445448D01*
X40905Y445457D01*
X40050Y446097D01*
Y459150D01*
X25350D01*
X24907Y460236D01*
Y468064D01*
X27006Y470163D01*
X27118Y470205D01*
X27590Y470644D01*
X27756Y470778D01*
X27857Y470850D01*
X28096D01*
X28148Y470829D01*
X28200Y470850D01*
X28295D01*
X28325Y470843D01*
X28336Y470850D01*
X40050D01*
Y509650D01*
X25350D01*
Y473836D01*
X25343Y473825D01*
X25350Y473795D01*
Y473700D01*
X25329Y473648D01*
X25350Y473596D01*
Y473357D01*
X25287Y473268D01*
X24946Y472868D01*
X24718Y472633D01*
X24672Y472515D01*
X22078Y469921D01*
X21719Y469384D01*
X21593Y468750D01*
Y457809D01*
X21434Y457716D01*
X20357Y457683D01*
X19723Y458429D01*
X19712Y458513D01*
X19706Y458646D01*
X19657Y458753D01*
Y512314D01*
X27006Y519663D01*
X27118Y519705D01*
X27590Y520144D01*
X27756Y520278D01*
X27857Y520350D01*
X28096D01*
X28148Y520329D01*
X28200Y520350D01*
X28295D01*
X28325Y520343D01*
X28336Y520350D01*
X40050D01*
Y559150D01*
X25350D01*
Y523336D01*
X25343Y523325D01*
X25350Y523295D01*
Y523200D01*
X25329Y523148D01*
X25350Y523097D01*
Y522857D01*
X25287Y522768D01*
X24946Y522368D01*
X24718Y522133D01*
X24672Y522015D01*
X16828Y514171D01*
X16469Y513634D01*
X16343Y513000D01*
Y458887D01*
X15983Y458420D01*
X15920Y458375D01*
X15038Y458697D01*
X14650Y459148D01*
Y459150D01*
X-50D01*
Y423336D01*
X-57Y423325D01*
X-50Y423295D01*
Y423200D01*
X-71Y423148D01*
X-50Y423097D01*
Y422857D01*
X-113Y422768D01*
X-454Y422368D01*
X-681Y422133D01*
X-728Y422015D01*
X-2573Y420170D01*
X-3843Y420678D01*
Y464714D01*
X1606Y470163D01*
X1718Y470205D01*
X2190Y470644D01*
X2356Y470778D01*
X2457Y470850D01*
X2697D01*
X2748Y470829D01*
X2800Y470850D01*
X2895D01*
X2925Y470843D01*
X2936Y470850D01*
X14650D01*
Y509650D01*
X-50D01*
Y473836D01*
X-57Y473825D01*
X-50Y473795D01*
Y473700D01*
X-71Y473648D01*
X-50Y473596D01*
Y473357D01*
X-113Y473268D01*
X-454Y472868D01*
X-681Y472633D01*
X-728Y472515D01*
X-6448Y466795D01*
X-7318Y467011D01*
X-7718Y467283D01*
Y510339D01*
X1606Y519663D01*
X1718Y519705D01*
X2190Y520144D01*
X2356Y520278D01*
X2457Y520350D01*
X2697D01*
X2748Y520329D01*
X2800Y520350D01*
X2895D01*
X2925Y520343D01*
X2936Y520350D01*
X14650D01*
Y559150D01*
X8939D01*
X8413Y560420D01*
X8793Y560801D01*
X9250Y561903D01*
Y563097D01*
X8793Y564199D01*
X7949Y565043D01*
X6847Y565500D01*
X5653D01*
X4551Y565043D01*
X3707Y564199D01*
X3250Y563097D01*
Y561903D01*
X3707Y560801D01*
X4087Y560420D01*
X3561Y559150D01*
X-50D01*
Y523336D01*
X-57Y523325D01*
X-50Y523295D01*
Y523200D01*
X-71Y523148D01*
X-50Y523097D01*
Y522857D01*
X-113Y522768D01*
X-454Y522368D01*
X-681Y522133D01*
X-728Y522015D01*
X-10547Y512197D01*
X-10906Y511659D01*
X-11032Y511025D01*
Y509650D01*
X-25450D01*
Y473836D01*
X-25457Y473825D01*
X-25450Y473795D01*
Y473700D01*
X-25471Y473648D01*
X-25450Y473596D01*
Y473357D01*
X-25513Y473268D01*
X-25854Y472868D01*
X-26082Y472633D01*
X-26128Y472515D01*
X-34672Y463971D01*
X-35031Y463434D01*
X-35157Y462800D01*
Y459818D01*
X-36150Y459150D01*
X-36427Y459150D01*
X-50850D01*
Y423336D01*
X-50857Y423325D01*
X-50850Y423295D01*
Y423200D01*
X-50871Y423148D01*
X-50850Y423097D01*
Y422857D01*
X-50913Y422768D01*
X-51254Y422368D01*
X-51481Y422133D01*
X-51528Y422015D01*
X-55277Y418266D01*
X-55538Y418283D01*
X-56547Y418681D01*
Y462809D01*
X-49194Y470163D01*
X-49082Y470205D01*
X-48610Y470644D01*
X-48444Y470778D01*
X-48343Y470850D01*
X-48103D01*
X-48052Y470829D01*
X-48000Y470850D01*
X-47905D01*
X-47875Y470843D01*
X-47864Y470850D01*
X-36150D01*
Y475875D01*
X-35402Y476199D01*
X-34880Y476264D01*
X-34148Y475533D01*
X-33046Y475076D01*
X-31852D01*
X-30750Y475533D01*
X-29906Y476376D01*
X-29449Y477479D01*
Y478673D01*
X-29906Y479775D01*
X-30194Y480063D01*
X-30268Y480254D01*
X-30391Y480382D01*
X-30476Y480482D01*
X-30545Y480578D01*
X-30602Y480670D01*
X-30647Y480757D01*
X-30682Y480841D01*
X-30708Y480923D01*
X-30726Y481005D01*
X-30737Y481088D01*
X-30743Y481222D01*
X-30792Y481329D01*
Y512665D01*
X-23794Y519663D01*
X-23682Y519705D01*
X-23210Y520144D01*
X-23044Y520278D01*
X-22943Y520350D01*
X-22703D01*
X-22652Y520329D01*
X-22600Y520350D01*
X-22505D01*
X-22475Y520343D01*
X-22464Y520350D01*
X-10750D01*
Y559150D01*
X-16311D01*
X-16837Y560420D01*
X-16457Y560801D01*
X-16000Y561903D01*
Y563097D01*
X-16457Y564199D01*
X-17301Y565043D01*
X-18403Y565500D01*
X-19597D01*
X-20699Y565043D01*
X-21543Y564199D01*
X-22000Y563097D01*
Y561903D01*
X-21543Y560801D01*
X-21163Y560420D01*
X-21689Y559150D01*
X-25450D01*
Y523336D01*
X-25457Y523325D01*
X-25450Y523295D01*
Y523200D01*
X-25471Y523148D01*
X-25450Y523097D01*
Y522857D01*
X-25513Y522768D01*
X-25854Y522368D01*
X-26082Y522133D01*
X-26128Y522015D01*
X-33621Y514523D01*
X-33980Y513985D01*
X-34106Y513351D01*
Y481329D01*
X-34155Y481222D01*
X-34161Y481088D01*
X-34172Y481005D01*
X-34190Y480923D01*
X-34216Y480841D01*
X-34251Y480757D01*
X-34296Y480670D01*
X-34353Y480578D01*
X-34423Y480482D01*
X-34507Y480382D01*
X-34630Y480254D01*
X-34898Y480233D01*
X-36150Y481338D01*
Y509650D01*
X-41248D01*
X-42097Y510920D01*
X-42000Y511153D01*
Y512347D01*
X-42457Y513449D01*
X-43301Y514293D01*
X-44403Y514750D01*
X-45597D01*
X-46699Y514293D01*
X-47543Y513449D01*
X-48000Y512347D01*
Y511153D01*
X-47903Y510920D01*
X-48752Y509650D01*
X-50850D01*
Y473836D01*
X-50857Y473825D01*
X-50850Y473795D01*
Y473700D01*
X-50871Y473648D01*
X-50850Y473596D01*
Y473357D01*
X-50913Y473268D01*
X-51254Y472868D01*
X-51481Y472633D01*
X-51528Y472515D01*
X-59376Y464667D01*
X-59735Y464130D01*
X-59861Y463496D01*
Y408302D01*
X-60265Y407793D01*
X-60280Y407782D01*
X-61160Y408103D01*
X-61550Y408562D01*
Y409650D01*
X-68235D01*
X-68943Y410610D01*
X-68997Y410745D01*
X-69009Y410903D01*
X-68983Y410985D01*
X-68948Y411069D01*
X-68903Y411156D01*
X-68847Y411248D01*
X-68776Y411344D01*
X-68692Y411444D01*
X-68569Y411572D01*
X-68495Y411763D01*
X-68207Y412051D01*
X-67750Y413153D01*
Y414347D01*
X-68207Y415449D01*
X-69051Y416293D01*
X-70153Y416750D01*
X-71347D01*
X-72449Y416293D01*
X-73293Y415449D01*
X-73750Y414347D01*
Y413153D01*
X-73293Y412051D01*
X-73005Y411763D01*
X-72931Y411572D01*
X-72808Y411444D01*
X-72723Y411344D01*
X-72653Y411248D01*
X-72597Y411156D01*
X-72552Y411069D01*
X-72517Y410985D01*
X-72491Y410903D01*
X-72503Y410745D01*
X-72557Y410609D01*
X-73265Y409650D01*
X-75924D01*
Y418333D01*
X-74594Y419663D01*
X-74482Y419705D01*
X-74010Y420144D01*
X-73844Y420278D01*
X-73743Y420350D01*
X-73503D01*
X-73452Y420329D01*
X-73400Y420350D01*
X-73305D01*
X-73275Y420343D01*
X-73264Y420350D01*
X-61550D01*
Y459150D01*
X-76250D01*
Y423336D01*
X-76257Y423325D01*
X-76250Y423295D01*
Y423200D01*
X-76271Y423148D01*
X-76250Y423097D01*
Y422857D01*
X-76313Y422768D01*
X-76654Y422368D01*
X-76881Y422133D01*
X-76928Y422015D01*
X-78398Y420545D01*
X-79668Y421045D01*
Y465089D01*
X-74594Y470163D01*
X-74482Y470205D01*
X-74010Y470644D01*
X-73844Y470778D01*
X-73743Y470850D01*
X-73503D01*
X-73452Y470829D01*
X-73400Y470850D01*
X-73305D01*
X-73275Y470843D01*
X-73264Y470850D01*
X-61550D01*
Y489775D01*
X-60280Y490301D01*
X-59817Y489839D01*
X-58715Y489382D01*
X-57521D01*
X-56419Y489839D01*
X-55575Y490683D01*
X-55118Y491785D01*
Y492979D01*
X-55575Y494081D01*
X-55863Y494369D01*
X-55937Y494560D01*
X-56060Y494688D01*
X-56145Y494788D01*
X-56215Y494884D01*
X-56271Y494976D01*
X-56316Y495063D01*
X-56351Y495147D01*
X-56377Y495229D01*
X-56395Y495311D01*
X-56406Y495395D01*
X-56412Y495528D01*
X-56461Y495635D01*
Y512396D01*
X-49194Y519663D01*
X-49082Y519705D01*
X-48610Y520144D01*
X-48444Y520278D01*
X-48343Y520350D01*
X-48103D01*
X-48052Y520329D01*
X-48000Y520350D01*
X-47905D01*
X-47875Y520343D01*
X-47864Y520350D01*
X-36150D01*
Y533519D01*
X-34880Y534367D01*
X-34597Y534250D01*
X-33403D01*
X-32301Y534707D01*
X-31457Y535551D01*
X-31000Y536653D01*
Y537847D01*
X-31457Y538949D01*
X-32301Y539793D01*
X-33403Y540250D01*
X-34597D01*
X-34880Y540133D01*
X-36150Y540981D01*
Y559150D01*
X-42198D01*
X-42348Y559414D01*
X-42587Y560420D01*
X-41957Y561051D01*
X-41500Y562153D01*
Y563347D01*
X-41957Y564449D01*
X-42801Y565293D01*
X-43903Y565750D01*
D02*
G37*
G36*
X-86950Y559150D02*
X-101650D01*
Y520350D01*
X-97503D01*
X-97000Y519597D01*
Y518403D01*
X-96543Y517301D01*
X-95699Y516457D01*
X-94597Y516000D01*
X-93403D01*
X-92301Y516457D01*
X-91457Y517301D01*
X-91000Y518403D01*
Y519597D01*
X-90497Y520350D01*
X-86950D01*
Y559150D01*
D02*
G37*
G36*
X-126400Y484200D02*
X-151130D01*
Y476470D01*
X-126400D01*
Y484200D01*
D02*
G37*
G36*
X-153670D02*
X-178400D01*
Y476470D01*
X-153670D01*
Y484200D01*
D02*
G37*
G36*
X141650Y509650D02*
X126950D01*
Y473836D01*
X126943Y473825D01*
X126950Y473795D01*
Y473700D01*
X126929Y473648D01*
X126950Y473596D01*
Y473357D01*
X126887Y473268D01*
X126546Y472868D01*
X126319Y472633D01*
X126272Y472515D01*
X121078Y467322D01*
X120719Y466784D01*
X120593Y466150D01*
Y330128D01*
X120552Y330057D01*
X120565Y330009D01*
X120544Y329963D01*
X120538Y329830D01*
X120527Y329755D01*
X120511Y329687D01*
X120488Y329624D01*
X120459Y329561D01*
X120421Y329497D01*
X120371Y329430D01*
X120309Y329358D01*
X120230Y329283D01*
X120104Y329179D01*
X120008Y329000D01*
X119457Y328449D01*
X119000Y327347D01*
Y326153D01*
X119457Y325051D01*
X120301Y324207D01*
X121403Y323750D01*
X122597D01*
X123699Y324207D01*
X124543Y325051D01*
X125000Y326153D01*
Y327347D01*
X124543Y328449D01*
X124461Y328531D01*
X124432Y328643D01*
X124318Y328794D01*
X124234Y328921D01*
X124162Y329041D01*
X124103Y329156D01*
X124056Y329265D01*
X124019Y329369D01*
X123991Y329468D01*
X123973Y329564D01*
X123962Y329657D01*
X123956Y329791D01*
X123907Y329899D01*
Y465464D01*
X128606Y470163D01*
X128718Y470205D01*
X129190Y470644D01*
X129356Y470778D01*
X129457Y470850D01*
X129697D01*
X129748Y470829D01*
X129800Y470850D01*
X129895D01*
X129925Y470843D01*
X129936Y470850D01*
X141650D01*
Y509650D01*
D02*
G37*
G36*
X-126400Y473930D02*
X-151130D01*
Y466200D01*
X-126400D01*
Y473930D01*
D02*
G37*
G36*
X-153670D02*
X-178400D01*
Y466200D01*
X-153670D01*
Y473930D01*
D02*
G37*
G36*
X141650Y459150D02*
X135570D01*
Y441020D01*
X141650D01*
Y459150D01*
D02*
G37*
G36*
X133030D02*
X126950D01*
Y441020D01*
X133030D01*
Y459150D01*
D02*
G37*
G36*
X-95570D02*
X-101650D01*
Y441020D01*
X-95570D01*
Y459150D01*
D02*
G37*
G36*
X-126400Y428800D02*
X-151130D01*
Y421070D01*
X-126400D01*
Y428800D01*
D02*
G37*
G36*
X-153670D02*
X-178400D01*
Y421070D01*
X-153670D01*
Y428800D01*
D02*
G37*
G36*
X141650Y438480D02*
X135570D01*
Y420350D01*
X141650D01*
Y438480D01*
D02*
G37*
G36*
X133030D02*
X126950D01*
Y420350D01*
X133030D01*
Y438480D01*
D02*
G37*
G36*
X-95570D02*
X-101650D01*
Y420350D01*
X-95570D01*
Y438480D01*
D02*
G37*
G36*
X-126400Y418530D02*
X-151130D01*
Y410800D01*
X-126400D01*
Y418530D01*
D02*
G37*
G36*
X-153670D02*
X-178400D01*
Y410800D01*
X-153670D01*
Y418530D01*
D02*
G37*
G36*
X141650Y409650D02*
X135570D01*
Y391520D01*
X141650D01*
Y409650D01*
D02*
G37*
G36*
X133030D02*
X126950D01*
Y391520D01*
X133030D01*
Y409650D01*
D02*
G37*
G36*
X-95570D02*
X-101650D01*
Y391520D01*
X-95570D01*
Y409650D01*
D02*
G37*
G36*
X141650Y388980D02*
X135570D01*
Y370850D01*
X141650D01*
Y388980D01*
D02*
G37*
G36*
X133030D02*
X126950D01*
Y370850D01*
X133030D01*
Y388980D01*
D02*
G37*
G36*
X-86950D02*
X-93030D01*
Y370850D01*
X-86950D01*
Y388980D01*
D02*
G37*
G36*
X-95570D02*
X-101650D01*
Y370850D01*
X-95570D01*
Y388980D01*
D02*
G37*
G36*
X-126400Y351700D02*
X-151130D01*
Y343970D01*
X-126400D01*
Y351700D01*
D02*
G37*
G36*
X-153670D02*
X-178400D01*
Y343970D01*
X-153670D01*
Y351700D01*
D02*
G37*
G36*
X141650Y359150D02*
X135570D01*
Y341020D01*
X141650D01*
Y359150D01*
D02*
G37*
G36*
X-86950D02*
X-93030D01*
Y341020D01*
X-86950D01*
Y359150D01*
D02*
G37*
G36*
X133030D02*
X126950D01*
Y341020D01*
X133030D01*
Y359150D01*
D02*
G37*
G36*
X-95570D02*
X-101650D01*
Y341020D01*
X-95570D01*
Y359150D01*
D02*
G37*
G36*
X-126400Y341430D02*
X-151130D01*
Y333700D01*
X-126400D01*
Y341430D01*
D02*
G37*
G36*
X-153670D02*
X-178400D01*
Y333700D01*
X-153670D01*
Y341430D01*
D02*
G37*
G36*
X141650Y338480D02*
X135570D01*
Y320350D01*
X141650D01*
Y338480D01*
D02*
G37*
G36*
X133030D02*
X126950D01*
Y320350D01*
X133030D01*
Y338480D01*
D02*
G37*
G36*
X-86950D02*
X-93030D01*
Y320350D01*
X-86950D01*
Y338480D01*
D02*
G37*
G36*
X-95570D02*
X-101650D01*
Y320350D01*
X-95570D01*
Y338480D01*
D02*
G37*
G36*
X141650Y309650D02*
X135570D01*
Y291520D01*
X141650D01*
Y309650D01*
D02*
G37*
G36*
X-86950D02*
X-93030D01*
Y291520D01*
X-86950D01*
Y309650D01*
D02*
G37*
G36*
X133030D02*
X126950D01*
Y291520D01*
X133030D01*
Y309650D01*
D02*
G37*
G36*
X-95570D02*
X-101650D01*
Y291520D01*
X-95570D01*
Y309650D01*
D02*
G37*
G36*
X-126400Y296300D02*
X-151130D01*
Y288570D01*
X-126400D01*
Y296300D01*
D02*
G37*
G36*
X-153670D02*
X-178400D01*
Y288570D01*
X-153670D01*
Y296300D01*
D02*
G37*
G36*
X-126400Y286030D02*
X-151130D01*
Y278300D01*
X-126400D01*
Y286030D01*
D02*
G37*
G36*
X-153670D02*
X-178400D01*
Y278300D01*
X-153670D01*
Y286030D01*
D02*
G37*
G36*
X141650Y288980D02*
X135570D01*
Y270850D01*
X141650D01*
Y288980D01*
D02*
G37*
G36*
X133030D02*
X126950D01*
Y270850D01*
X133030D01*
Y288980D01*
D02*
G37*
G36*
X-86950D02*
X-93030D01*
Y270850D01*
X-86950D01*
Y288980D01*
D02*
G37*
G36*
X-95570D02*
X-101650D01*
Y270850D01*
X-95570D01*
Y288980D01*
D02*
G37*
G36*
X141650Y259150D02*
X135570D01*
Y241020D01*
X141650D01*
Y259150D01*
D02*
G37*
G36*
X-86950D02*
X-93030D01*
Y241020D01*
X-86950D01*
Y259150D01*
D02*
G37*
G36*
X133030D02*
X126950D01*
Y241020D01*
X133030D01*
Y259150D01*
D02*
G37*
G36*
X-95570D02*
X-101650D01*
Y241020D01*
X-95570D01*
Y259150D01*
D02*
G37*
G36*
X141650Y238480D02*
X135570D01*
Y220350D01*
X141650D01*
Y238480D01*
D02*
G37*
G36*
X133030D02*
X126950D01*
Y220350D01*
X133030D01*
Y238480D01*
D02*
G37*
G36*
X-95570D02*
X-101650D01*
Y220350D01*
X-95570D01*
Y238480D01*
D02*
G37*
G36*
X-126400Y219200D02*
X-151130D01*
Y211470D01*
X-126400D01*
Y219200D01*
D02*
G37*
G36*
X-153670D02*
X-178400D01*
Y211470D01*
X-153670D01*
Y219200D01*
D02*
G37*
G36*
X-126400Y208930D02*
X-151130D01*
Y201200D01*
X-126400D01*
Y208930D01*
D02*
G37*
G36*
X-153670D02*
X-178400D01*
Y201200D01*
X-153670D01*
Y208930D01*
D02*
G37*
G36*
X141650Y209650D02*
X135570D01*
Y191520D01*
X141650D01*
Y209650D01*
D02*
G37*
G36*
X133030D02*
X126950D01*
Y191520D01*
X133030D01*
Y209650D01*
D02*
G37*
G36*
X-95570D02*
X-101650D01*
Y191520D01*
X-95570D01*
Y209650D01*
D02*
G37*
G36*
X141650Y188980D02*
X135570D01*
Y170850D01*
X141650D01*
Y188980D01*
D02*
G37*
G36*
X133030D02*
X126950D01*
Y170850D01*
X133030D01*
Y188980D01*
D02*
G37*
G36*
X-95570D02*
X-101650D01*
Y170850D01*
X-95570D01*
Y188980D01*
D02*
G37*
G36*
X-126400Y163800D02*
X-151130D01*
Y156070D01*
X-126400D01*
Y163800D01*
D02*
G37*
G36*
X-153670D02*
X-178400D01*
Y156070D01*
X-153670D01*
Y163800D01*
D02*
G37*
G36*
X-126400Y153530D02*
X-151130D01*
Y145800D01*
X-126400D01*
Y153530D01*
D02*
G37*
G36*
X-153670D02*
X-178400D01*
Y145800D01*
X-153670D01*
Y153530D01*
D02*
G37*
G36*
X141650Y159150D02*
X135570D01*
Y141020D01*
X141650D01*
Y159150D01*
D02*
G37*
G36*
X133030D02*
X126950D01*
Y141020D01*
X133030D01*
Y159150D01*
D02*
G37*
G36*
X-95570D02*
X-101650D01*
Y141020D01*
X-95570D01*
Y159150D01*
D02*
G37*
G36*
X141650Y138480D02*
X135570D01*
Y120350D01*
X141650D01*
Y138480D01*
D02*
G37*
G36*
X133030D02*
X126950D01*
Y120350D01*
X133030D01*
Y138480D01*
D02*
G37*
G36*
X-95570D02*
X-101650D01*
Y120350D01*
X-95570D01*
Y138480D01*
D02*
G37*
G36*
X141650Y109650D02*
X135570D01*
Y91520D01*
X141650D01*
Y109650D01*
D02*
G37*
G36*
X-86950D02*
X-93030D01*
Y91520D01*
X-86950D01*
Y109650D01*
D02*
G37*
G36*
X133030D02*
X126950D01*
Y91520D01*
X133030D01*
Y109650D01*
D02*
G37*
G36*
X-95570D02*
X-101650D01*
Y91520D01*
X-95570D01*
Y109650D01*
D02*
G37*
G36*
X-126400Y86700D02*
X-151130D01*
Y78970D01*
X-126400D01*
Y86700D01*
D02*
G37*
G36*
X-153670D02*
X-178400D01*
Y78970D01*
X-153670D01*
Y86700D01*
D02*
G37*
G36*
X141650Y88980D02*
X135570D01*
Y70850D01*
X141650D01*
Y88980D01*
D02*
G37*
G36*
X133030D02*
X126950D01*
Y70850D01*
X133030D01*
Y88980D01*
D02*
G37*
G36*
X-86950D02*
X-93030D01*
Y70850D01*
X-86950D01*
Y88980D01*
D02*
G37*
G36*
X-95570D02*
X-101650D01*
Y70850D01*
X-95570D01*
Y88980D01*
D02*
G37*
G36*
X-126400Y76430D02*
X-151130D01*
Y68700D01*
X-126400D01*
Y76430D01*
D02*
G37*
G36*
X-153670D02*
X-178400D01*
Y68700D01*
X-153670D01*
Y76430D01*
D02*
G37*
G36*
X-19032Y50450D02*
X-20968D01*
X-22837Y49949D01*
X-24513Y48981D01*
X-25882Y47613D01*
X-26849Y45937D01*
X-27350Y44068D01*
Y42132D01*
X-26849Y40263D01*
X-25882Y38587D01*
X-24513Y37218D01*
X-22837Y36251D01*
X-20968Y35750D01*
X-19032D01*
X-17163Y36251D01*
X-15487Y37218D01*
X-14118Y38587D01*
X-13151Y40263D01*
X-12650Y42132D01*
Y44068D01*
X-13151Y45937D01*
X-14118Y47613D01*
X-15487Y48981D01*
X-17163Y49949D01*
X-19032Y50450D01*
D02*
G37*
G36*
X-126400Y31300D02*
X-151130D01*
Y23570D01*
X-126400D01*
Y31300D01*
D02*
G37*
G36*
X-153670D02*
X-178400D01*
Y23570D01*
X-153670D01*
Y31300D01*
D02*
G37*
G36*
X-126400Y21030D02*
X-151130D01*
Y13300D01*
X-126400D01*
Y21030D01*
D02*
G37*
G36*
X-153670D02*
X-178400D01*
Y13300D01*
X-153670D01*
Y21030D01*
D02*
G37*
G36*
X53750Y-1334D02*
X43752D01*
Y-8000D01*
X43919D01*
Y-24000D01*
X54750D01*
Y-6504D01*
X53750D01*
Y-1334D01*
D02*
G37*
%LPD*%
G36*
X104348Y521411D02*
X104254Y521479D01*
X104141Y521511D01*
X104010Y521508D01*
X103861Y521469D01*
X103693Y521396D01*
X103507Y521287D01*
X103303Y521142D01*
X103080Y520962D01*
X102580Y520497D01*
X101697Y521381D01*
X101947Y521640D01*
X102342Y522103D01*
X102487Y522307D01*
X102596Y522493D01*
X102669Y522661D01*
X102708Y522810D01*
X102711Y522941D01*
X102679Y523054D01*
X102611Y523148D01*
X104348Y521411D01*
D02*
G37*
G36*
X78948D02*
X78854Y521479D01*
X78741Y521511D01*
X78610Y521508D01*
X78461Y521469D01*
X78293Y521396D01*
X78107Y521287D01*
X77903Y521142D01*
X77680Y520962D01*
X77181Y520497D01*
X76297Y521381D01*
X76547Y521640D01*
X76942Y522103D01*
X77087Y522307D01*
X77196Y522493D01*
X77270Y522661D01*
X77308Y522810D01*
X77311Y522941D01*
X77279Y523054D01*
X77211Y523148D01*
X78948Y521411D01*
D02*
G37*
G36*
X53548D02*
X53454Y521479D01*
X53341Y521511D01*
X53210Y521508D01*
X53061Y521469D01*
X52893Y521396D01*
X52707Y521287D01*
X52503Y521142D01*
X52280Y520962D01*
X51781Y520497D01*
X50897Y521381D01*
X51147Y521640D01*
X51542Y522103D01*
X51687Y522307D01*
X51796Y522493D01*
X51870Y522661D01*
X51908Y522810D01*
X51911Y522941D01*
X51879Y523054D01*
X51811Y523148D01*
X53548Y521411D01*
D02*
G37*
G36*
X28148D02*
X28054Y521479D01*
X27941Y521511D01*
X27810Y521508D01*
X27661Y521469D01*
X27493Y521396D01*
X27307Y521287D01*
X27103Y521142D01*
X26880Y520962D01*
X26381Y520497D01*
X25497Y521381D01*
X25747Y521640D01*
X26142Y522103D01*
X26287Y522307D01*
X26396Y522493D01*
X26470Y522661D01*
X26508Y522810D01*
X26511Y522941D01*
X26479Y523054D01*
X26411Y523148D01*
X28148Y521411D01*
D02*
G37*
G36*
X2748D02*
X2654Y521479D01*
X2541Y521511D01*
X2410Y521508D01*
X2261Y521469D01*
X2093Y521396D01*
X1907Y521287D01*
X1703Y521142D01*
X1480Y520962D01*
X980Y520497D01*
X97Y521381D01*
X347Y521640D01*
X742Y522103D01*
X887Y522307D01*
X996Y522493D01*
X1069Y522661D01*
X1108Y522810D01*
X1111Y522941D01*
X1079Y523054D01*
X1011Y523148D01*
X2748Y521411D01*
D02*
G37*
G36*
X-22652D02*
X-22746Y521479D01*
X-22859Y521511D01*
X-22990Y521508D01*
X-23139Y521469D01*
X-23307Y521396D01*
X-23493Y521287D01*
X-23697Y521142D01*
X-23920Y520962D01*
X-24420Y520497D01*
X-25303Y521381D01*
X-25053Y521640D01*
X-24658Y522103D01*
X-24513Y522307D01*
X-24404Y522493D01*
X-24330Y522661D01*
X-24292Y522810D01*
X-24289Y522941D01*
X-24321Y523054D01*
X-24389Y523148D01*
X-22652Y521411D01*
D02*
G37*
G36*
X-48052D02*
X-48146Y521479D01*
X-48259Y521511D01*
X-48390Y521508D01*
X-48539Y521469D01*
X-48707Y521396D01*
X-48893Y521287D01*
X-49097Y521142D01*
X-49320Y520962D01*
X-49819Y520497D01*
X-50703Y521381D01*
X-50453Y521640D01*
X-50058Y522103D01*
X-49913Y522307D01*
X-49804Y522493D01*
X-49731Y522661D01*
X-49692Y522810D01*
X-49689Y522941D01*
X-49721Y523054D01*
X-49789Y523148D01*
X-48052Y521411D01*
D02*
G37*
G36*
X-73452D02*
X-73546Y521479D01*
X-73659Y521511D01*
X-73790Y521508D01*
X-73939Y521469D01*
X-74107Y521396D01*
X-74293Y521287D01*
X-74497Y521142D01*
X-74720Y520962D01*
X-75219Y520497D01*
X-76103Y521381D01*
X-75853Y521640D01*
X-75458Y522103D01*
X-75313Y522307D01*
X-75204Y522493D01*
X-75131Y522661D01*
X-75092Y522810D01*
X-75089Y522941D01*
X-75121Y523054D01*
X-75189Y523148D01*
X-73452Y521411D01*
D02*
G37*
G36*
X-57485Y495301D02*
X-57462Y495123D01*
X-57423Y494948D01*
X-57369Y494777D01*
X-57299Y494608D01*
X-57214Y494442D01*
X-57113Y494280D01*
X-56997Y494120D01*
X-56865Y493964D01*
X-56718Y493810D01*
X-59518D01*
X-59371Y493964D01*
X-59239Y494120D01*
X-59123Y494280D01*
X-59022Y494442D01*
X-58937Y494608D01*
X-58867Y494777D01*
X-58813Y494948D01*
X-58774Y495123D01*
X-58751Y495301D01*
X-58743Y495482D01*
X-57493D01*
X-57485Y495301D01*
D02*
G37*
G36*
X-84367Y484874D02*
X-84343Y484696D01*
X-84304Y484522D01*
X-84249Y484351D01*
X-84178Y484184D01*
X-84091Y484021D01*
X-83989Y483861D01*
X-83870Y483704D01*
X-83736Y483552D01*
X-83586Y483403D01*
X-86385Y483333D01*
X-86241Y483491D01*
X-86112Y483651D01*
X-85997Y483814D01*
X-85899Y483979D01*
X-85815Y484147D01*
X-85747Y484317D01*
X-85693Y484490D01*
X-85655Y484665D01*
X-85633Y484843D01*
X-85625Y485023D01*
X-84375Y485056D01*
X-84367Y484874D01*
D02*
G37*
G36*
X-31816Y480995D02*
X-31793Y480817D01*
X-31754Y480642D01*
X-31700Y480471D01*
X-31630Y480302D01*
X-31545Y480136D01*
X-31444Y479974D01*
X-31328Y479814D01*
X-31196Y479658D01*
X-31049Y479504D01*
X-33849D01*
X-33702Y479658D01*
X-33570Y479814D01*
X-33454Y479974D01*
X-33353Y480136D01*
X-33268Y480302D01*
X-33198Y480471D01*
X-33144Y480642D01*
X-33105Y480817D01*
X-33082Y480995D01*
X-33074Y481176D01*
X-31824D01*
X-31816Y480995D01*
D02*
G37*
G36*
X104348Y471911D02*
X104254Y471979D01*
X104141Y472011D01*
X104010Y472008D01*
X103861Y471969D01*
X103693Y471896D01*
X103507Y471787D01*
X103303Y471642D01*
X103080Y471462D01*
X102580Y470997D01*
X101697Y471880D01*
X101947Y472140D01*
X102342Y472603D01*
X102487Y472807D01*
X102596Y472993D01*
X102669Y473161D01*
X102708Y473310D01*
X102711Y473441D01*
X102679Y473554D01*
X102611Y473648D01*
X104348Y471911D01*
D02*
G37*
G36*
X78948D02*
X78854Y471979D01*
X78741Y472011D01*
X78610Y472008D01*
X78461Y471969D01*
X78293Y471896D01*
X78107Y471787D01*
X77903Y471642D01*
X77680Y471462D01*
X77181Y470997D01*
X76297Y471880D01*
X76547Y472140D01*
X76942Y472603D01*
X77087Y472807D01*
X77196Y472993D01*
X77270Y473161D01*
X77308Y473310D01*
X77311Y473441D01*
X77279Y473554D01*
X77211Y473648D01*
X78948Y471911D01*
D02*
G37*
G36*
X53548D02*
X53454Y471979D01*
X53341Y472011D01*
X53210Y472008D01*
X53061Y471969D01*
X52893Y471896D01*
X52707Y471787D01*
X52503Y471642D01*
X52280Y471462D01*
X51781Y470997D01*
X50897Y471880D01*
X51147Y472140D01*
X51542Y472603D01*
X51687Y472807D01*
X51796Y472993D01*
X51870Y473161D01*
X51908Y473310D01*
X51911Y473441D01*
X51879Y473554D01*
X51811Y473648D01*
X53548Y471911D01*
D02*
G37*
G36*
X28148D02*
X28054Y471979D01*
X27941Y472011D01*
X27810Y472008D01*
X27661Y471969D01*
X27493Y471896D01*
X27307Y471787D01*
X27103Y471642D01*
X26880Y471462D01*
X26381Y470997D01*
X25497Y471880D01*
X25747Y472140D01*
X26142Y472603D01*
X26287Y472807D01*
X26396Y472993D01*
X26470Y473161D01*
X26508Y473310D01*
X26511Y473441D01*
X26479Y473554D01*
X26411Y473648D01*
X28148Y471911D01*
D02*
G37*
G36*
X2748D02*
X2654Y471979D01*
X2541Y472011D01*
X2410Y472008D01*
X2261Y471969D01*
X2093Y471896D01*
X1907Y471787D01*
X1703Y471642D01*
X1480Y471462D01*
X980Y470997D01*
X97Y471880D01*
X347Y472140D01*
X742Y472603D01*
X887Y472807D01*
X996Y472993D01*
X1069Y473161D01*
X1108Y473310D01*
X1111Y473441D01*
X1079Y473554D01*
X1011Y473648D01*
X2748Y471911D01*
D02*
G37*
G36*
X-22652D02*
X-22746Y471979D01*
X-22859Y472011D01*
X-22990Y472008D01*
X-23139Y471969D01*
X-23307Y471896D01*
X-23493Y471787D01*
X-23697Y471642D01*
X-23920Y471462D01*
X-24420Y470997D01*
X-25303Y471880D01*
X-25053Y472140D01*
X-24658Y472603D01*
X-24513Y472807D01*
X-24404Y472993D01*
X-24330Y473161D01*
X-24292Y473310D01*
X-24289Y473441D01*
X-24321Y473554D01*
X-24389Y473648D01*
X-22652Y471911D01*
D02*
G37*
G36*
X-48052D02*
X-48146Y471979D01*
X-48259Y472011D01*
X-48390Y472008D01*
X-48539Y471969D01*
X-48707Y471896D01*
X-48893Y471787D01*
X-49097Y471642D01*
X-49320Y471462D01*
X-49819Y470997D01*
X-50703Y471880D01*
X-50453Y472140D01*
X-50058Y472603D01*
X-49913Y472807D01*
X-49804Y472993D01*
X-49731Y473161D01*
X-49692Y473310D01*
X-49689Y473441D01*
X-49721Y473554D01*
X-49789Y473648D01*
X-48052Y471911D01*
D02*
G37*
G36*
X-73452D02*
X-73546Y471979D01*
X-73659Y472011D01*
X-73790Y472008D01*
X-73939Y471969D01*
X-74107Y471896D01*
X-74293Y471787D01*
X-74497Y471642D01*
X-74720Y471462D01*
X-75219Y470997D01*
X-76103Y471880D01*
X-75853Y472140D01*
X-75458Y472603D01*
X-75313Y472807D01*
X-75204Y472993D01*
X-75131Y473161D01*
X-75092Y473310D01*
X-75089Y473441D01*
X-75121Y473554D01*
X-75189Y473648D01*
X-73452Y471911D01*
D02*
G37*
G36*
X-88079Y473554D02*
X-88111Y473441D01*
X-88108Y473310D01*
X-88069Y473161D01*
X-87996Y472993D01*
X-87887Y472807D01*
X-87742Y472603D01*
X-87562Y472380D01*
X-87097Y471880D01*
X-87980Y470997D01*
X-88239Y471247D01*
X-88703Y471642D01*
X-88907Y471787D01*
X-89093Y471896D01*
X-89261Y471969D01*
X-89410Y472008D01*
X-89541Y472011D01*
X-89654Y471979D01*
X-89748Y471911D01*
X-88011Y473648D01*
X-88079Y473554D01*
D02*
G37*
G36*
X-11032Y459150D02*
X-25450D01*
Y423336D01*
X-25457Y423325D01*
X-25450Y423295D01*
Y423200D01*
X-25471Y423148D01*
X-25450Y423097D01*
Y422857D01*
X-25513Y422768D01*
X-25854Y422368D01*
X-26082Y422133D01*
X-26128Y422015D01*
X-30066Y418077D01*
X-30425Y417540D01*
X-30551Y416906D01*
Y394207D01*
X-31821Y393647D01*
X-31843Y393667D01*
Y462114D01*
X-23794Y470163D01*
X-23682Y470205D01*
X-23210Y470644D01*
X-23044Y470778D01*
X-22943Y470850D01*
X-22703D01*
X-22652Y470829D01*
X-22600Y470850D01*
X-22505D01*
X-22475Y470843D01*
X-22464Y470850D01*
X-11032D01*
Y459150D01*
D02*
G37*
G36*
X71689Y469732D02*
X71712Y469554D01*
X71751Y469380D01*
X71805Y469208D01*
X71875Y469039D01*
X71960Y468874D01*
X72061Y468711D01*
X72177Y468551D01*
X72309Y468395D01*
X72456Y468242D01*
X69656D01*
X69803Y468395D01*
X69935Y468551D01*
X70051Y468711D01*
X70152Y468874D01*
X70237Y469039D01*
X70307Y469208D01*
X70361Y469380D01*
X70400Y469554D01*
X70423Y469732D01*
X70431Y469913D01*
X71681D01*
X71689Y469732D01*
D02*
G37*
G36*
X18633Y458419D02*
X18656Y458241D01*
X18695Y458066D01*
X18749Y457895D01*
X18819Y457726D01*
X18904Y457560D01*
X19005Y457398D01*
X19121Y457238D01*
X19253Y457082D01*
X19400Y456928D01*
X16600D01*
X16747Y457082D01*
X16879Y457238D01*
X16995Y457398D01*
X17096Y457560D01*
X17181Y457726D01*
X17251Y457895D01*
X17305Y458066D01*
X17344Y458241D01*
X17367Y458419D01*
X17375Y458600D01*
X18625D01*
X18633Y458419D01*
D02*
G37*
G36*
X93483Y456645D02*
X93506Y456467D01*
X93545Y456292D01*
X93599Y456121D01*
X93669Y455952D01*
X93754Y455787D01*
X93855Y455624D01*
X93971Y455464D01*
X94103Y455308D01*
X94250Y455154D01*
X91450D01*
X91597Y455308D01*
X91729Y455464D01*
X91845Y455624D01*
X91946Y455787D01*
X92031Y455952D01*
X92101Y456121D01*
X92155Y456292D01*
X92194Y456467D01*
X92217Y456645D01*
X92225Y456826D01*
X93475D01*
X93483Y456645D01*
D02*
G37*
G36*
X43730Y444804D02*
X43753Y444627D01*
X43792Y444452D01*
X43846Y444280D01*
X43916Y444112D01*
X44001Y443946D01*
X44102Y443783D01*
X44218Y443624D01*
X44350Y443467D01*
X44497Y443314D01*
X41697D01*
X41845Y443467D01*
X41976Y443624D01*
X42093Y443783D01*
X42193Y443946D01*
X42279Y444112D01*
X42348Y444280D01*
X42403Y444452D01*
X42441Y444627D01*
X42465Y444804D01*
X42472Y444985D01*
X43722D01*
X43730Y444804D01*
D02*
G37*
G36*
X104648Y421411D02*
X104536Y421461D01*
X104400Y421470D01*
X104239Y421437D01*
X104054Y421363D01*
X103846Y421248D01*
X103613Y421092D01*
X103355Y420895D01*
X102768Y420376D01*
X102439Y420055D01*
X101697Y421081D01*
X101960Y421353D01*
X102373Y421834D01*
X102522Y422042D01*
X102633Y422230D01*
X102705Y422396D01*
X102739Y422541D01*
X102734Y422665D01*
X102692Y422767D01*
X102611Y422848D01*
X104648Y421411D01*
D02*
G37*
G36*
X78948D02*
X78854Y421479D01*
X78741Y421511D01*
X78610Y421508D01*
X78461Y421469D01*
X78293Y421396D01*
X78107Y421287D01*
X77903Y421142D01*
X77680Y420962D01*
X77181Y420497D01*
X76297Y421381D01*
X76547Y421640D01*
X76942Y422103D01*
X77087Y422307D01*
X77196Y422493D01*
X77270Y422661D01*
X77308Y422810D01*
X77311Y422941D01*
X77279Y423054D01*
X77211Y423148D01*
X78948Y421411D01*
D02*
G37*
G36*
X53548D02*
X53454Y421479D01*
X53341Y421511D01*
X53210Y421508D01*
X53061Y421469D01*
X52893Y421396D01*
X52707Y421287D01*
X52503Y421142D01*
X52280Y420962D01*
X51781Y420497D01*
X50897Y421381D01*
X51147Y421640D01*
X51542Y422103D01*
X51687Y422307D01*
X51796Y422493D01*
X51870Y422661D01*
X51908Y422810D01*
X51911Y422941D01*
X51879Y423054D01*
X51811Y423148D01*
X53548Y421411D01*
D02*
G37*
G36*
X28148D02*
X28054Y421479D01*
X27941Y421511D01*
X27810Y421508D01*
X27661Y421469D01*
X27493Y421396D01*
X27307Y421287D01*
X27103Y421142D01*
X26880Y420962D01*
X26381Y420497D01*
X25497Y421381D01*
X25747Y421640D01*
X26142Y422103D01*
X26287Y422307D01*
X26396Y422493D01*
X26470Y422661D01*
X26508Y422810D01*
X26511Y422941D01*
X26479Y423054D01*
X26411Y423148D01*
X28148Y421411D01*
D02*
G37*
G36*
X2748D02*
X2654Y421479D01*
X2541Y421511D01*
X2410Y421508D01*
X2261Y421469D01*
X2093Y421396D01*
X1907Y421287D01*
X1703Y421142D01*
X1480Y420962D01*
X980Y420497D01*
X97Y421381D01*
X347Y421640D01*
X742Y422103D01*
X887Y422307D01*
X996Y422493D01*
X1069Y422661D01*
X1108Y422810D01*
X1111Y422941D01*
X1079Y423054D01*
X1011Y423148D01*
X2748Y421411D01*
D02*
G37*
G36*
X-22652D02*
X-22746Y421479D01*
X-22859Y421511D01*
X-22990Y421508D01*
X-23139Y421469D01*
X-23307Y421396D01*
X-23493Y421287D01*
X-23697Y421142D01*
X-23920Y420962D01*
X-24420Y420497D01*
X-25303Y421381D01*
X-25053Y421640D01*
X-24658Y422103D01*
X-24513Y422307D01*
X-24404Y422493D01*
X-24330Y422661D01*
X-24292Y422810D01*
X-24289Y422941D01*
X-24321Y423054D01*
X-24389Y423148D01*
X-22652Y421411D01*
D02*
G37*
G36*
X-48052D02*
X-48146Y421479D01*
X-48259Y421511D01*
X-48390Y421508D01*
X-48539Y421469D01*
X-48707Y421396D01*
X-48893Y421287D01*
X-49097Y421142D01*
X-49320Y420962D01*
X-49819Y420497D01*
X-50703Y421381D01*
X-50453Y421640D01*
X-50058Y422103D01*
X-49913Y422307D01*
X-49804Y422493D01*
X-49731Y422661D01*
X-49692Y422810D01*
X-49689Y422941D01*
X-49721Y423054D01*
X-49789Y423148D01*
X-48052Y421411D01*
D02*
G37*
G36*
X-73452D02*
X-73546Y421479D01*
X-73659Y421511D01*
X-73790Y421508D01*
X-73939Y421469D01*
X-74107Y421396D01*
X-74293Y421287D01*
X-74497Y421142D01*
X-74720Y420962D01*
X-75219Y420497D01*
X-76103Y421381D01*
X-75853Y421640D01*
X-75458Y422103D01*
X-75313Y422307D01*
X-75204Y422493D01*
X-75131Y422661D01*
X-75092Y422810D01*
X-75089Y422941D01*
X-75121Y423054D01*
X-75189Y423148D01*
X-73452Y421411D01*
D02*
G37*
G36*
X16301Y452957D02*
X17403Y452500D01*
X18111D01*
X18665Y451258D01*
X16579Y449171D01*
X16219Y448634D01*
X16093Y448000D01*
Y317482D01*
X16044Y317427D01*
X14774Y317912D01*
Y333900D01*
X14650Y334198D01*
Y359150D01*
X-50D01*
Y320350D01*
X11526D01*
Y311686D01*
X11844Y310920D01*
X11230Y309650D01*
X-50D01*
X-50Y309650D01*
X-1285Y309733D01*
X-1578Y310172D01*
X-7718Y316311D01*
Y319794D01*
X-6448Y320643D01*
X-6140Y320515D01*
X-4946D01*
X-3843Y320971D01*
X-3000Y321815D01*
X-2543Y322918D01*
Y324111D01*
X-3000Y325214D01*
X-3287Y325502D01*
X-3362Y325692D01*
X-3485Y325820D01*
X-3569Y325921D01*
X-3639Y326017D01*
X-3696Y326109D01*
X-3741Y326196D01*
X-3776Y326280D01*
X-3801Y326362D01*
X-3820Y326443D01*
X-3831Y326527D01*
X-3836Y326661D01*
X-3886Y326767D01*
Y357842D01*
X-589Y361138D01*
X-230Y361676D01*
X-104Y362310D01*
Y369602D01*
X-50Y370850D01*
X1166Y370850D01*
X14650D01*
Y409650D01*
X8586D01*
X8250Y410153D01*
Y411347D01*
X7793Y412449D01*
X6949Y413293D01*
X5847Y413750D01*
X4653D01*
X3551Y413293D01*
X2707Y412449D01*
X2250Y411347D01*
Y410781D01*
X1205Y409668D01*
X-52Y409688D01*
X-104Y410898D01*
Y417953D01*
X1606Y419663D01*
X1718Y419705D01*
X2190Y420144D01*
X2356Y420278D01*
X2457Y420350D01*
X2697D01*
X2748Y420329D01*
X2800Y420350D01*
X2895D01*
X2925Y420343D01*
X2936Y420350D01*
X14650D01*
Y452811D01*
X15920Y453337D01*
X16301Y452957D01*
D02*
G37*
G36*
X-11032Y409650D02*
X-16804D01*
X-17175Y410205D01*
Y411398D01*
X-17631Y412501D01*
X-18475Y413345D01*
X-19578Y413801D01*
X-20771D01*
X-21874Y413345D01*
X-22718Y412501D01*
X-23175Y411398D01*
Y410205D01*
X-23545Y409650D01*
X-25450D01*
Y370850D01*
X-11032D01*
Y359150D01*
X-25450D01*
Y320350D01*
X-13874D01*
Y313669D01*
X-13398Y312521D01*
X-11824Y310947D01*
X-12389Y309716D01*
X-12548Y309650D01*
X-25450D01*
Y280291D01*
X-25778Y280007D01*
X-26720Y279585D01*
X-27516Y279915D01*
X-28709D01*
X-29026Y279784D01*
X-30296Y280633D01*
Y306965D01*
X-30771Y308113D01*
X-34052Y311394D01*
X-34052Y311394D01*
X-36026Y313368D01*
Y333900D01*
X-36150Y334198D01*
Y359150D01*
X-50850D01*
Y320350D01*
X-39274D01*
Y312696D01*
X-38798Y311548D01*
X-38170Y310920D01*
X-38696Y309650D01*
X-50850D01*
Y270850D01*
X-36150D01*
X-36043Y269624D01*
Y268270D01*
X-36396D01*
X-37499Y267814D01*
X-38343Y266970D01*
X-38799Y265867D01*
Y264674D01*
X-38343Y263571D01*
X-37499Y262727D01*
X-36396Y262270D01*
X-35203D01*
X-35103Y262204D01*
Y261278D01*
X-34646Y260175D01*
X-33802Y259331D01*
X-32700Y258874D01*
X-31506D01*
X-30404Y259331D01*
X-29778Y259956D01*
X-28748Y259705D01*
X-28508Y259567D01*
Y246296D01*
X-29110Y245806D01*
X-29778Y245641D01*
X-29889Y245722D01*
X-30240Y246077D01*
X-30243Y246105D01*
X-30246Y246283D01*
X-30328Y246470D01*
Y246877D01*
X-30785Y247980D01*
X-31629Y248824D01*
X-32732Y249280D01*
X-33925D01*
X-34880Y248885D01*
X-35544Y249133D01*
X-36150Y249497D01*
Y259150D01*
X-48327D01*
X-48922Y260420D01*
X-48915Y260434D01*
X-48590Y260925D01*
X-48448Y261040D01*
X-48395Y261052D01*
X-48252Y261073D01*
X-48068Y261091D01*
X-47930Y261164D01*
X-47708D01*
X-46605Y261621D01*
X-45761Y262465D01*
X-45304Y263567D01*
Y264761D01*
X-45761Y265863D01*
X-46605Y266707D01*
X-47708Y267164D01*
X-48901D01*
X-50004Y266707D01*
X-50848Y265863D01*
X-51304Y264761D01*
Y264139D01*
X-51378Y263932D01*
X-51369Y263764D01*
X-51371Y263646D01*
X-51381Y263541D01*
X-51398Y263450D01*
X-51421Y263369D01*
X-51448Y263296D01*
X-51481Y263230D01*
X-51521Y263166D01*
X-51569Y263103D01*
X-51659Y263004D01*
X-51666Y262984D01*
X-51685Y262974D01*
X-51717Y262876D01*
X-53249Y261344D01*
X-53608Y260807D01*
X-53734Y260173D01*
Y228886D01*
X-55004Y228231D01*
X-55653Y228500D01*
X-56847D01*
X-57949Y228043D01*
X-58793Y227199D01*
X-59250Y226097D01*
Y224903D01*
X-58793Y223801D01*
X-58139Y223146D01*
X-58055Y223002D01*
X-57928Y222906D01*
X-57853Y222838D01*
X-57793Y222773D01*
X-57747Y222714D01*
X-57712Y222657D01*
X-57684Y222601D01*
X-57663Y222543D01*
X-57648Y222479D01*
X-57637Y222406D01*
X-57631Y222273D01*
X-57601Y222208D01*
X-57616Y222137D01*
X-57582Y222083D01*
Y216833D01*
X-58852Y215984D01*
X-58953Y216026D01*
X-60147D01*
X-61249Y215569D01*
X-62093Y214726D01*
X-62550Y213623D01*
Y212430D01*
X-62185Y211548D01*
X-62160Y211386D01*
X-62062Y211227D01*
X-61902Y210920D01*
X-62137Y210254D01*
X-62221Y210096D01*
X-62298Y209988D01*
X-62381Y209900D01*
X-62459Y209834D01*
X-62488Y209814D01*
X-62601Y209753D01*
X-62865Y209650D01*
X-68973D01*
X-69025Y209688D01*
X-69717Y210919D01*
X-69048Y212014D01*
X-67854D01*
X-66752Y212471D01*
X-65908Y213314D01*
X-65451Y214417D01*
Y215611D01*
X-65908Y216713D01*
X-66198Y217004D01*
X-66275Y217197D01*
X-66427Y217352D01*
X-66540Y217482D01*
X-66634Y217603D01*
X-66709Y217714D01*
X-66767Y217814D01*
X-66810Y217903D01*
X-66828Y217952D01*
Y220350D01*
X-61550D01*
Y259150D01*
X-76250D01*
Y220350D01*
X-70075D01*
Y217952D01*
X-70093Y217903D01*
X-70135Y217814D01*
X-70193Y217714D01*
X-70259Y217617D01*
X-70487Y217341D01*
X-70627Y217197D01*
X-70704Y217004D01*
X-70995Y216713D01*
X-71223Y216163D01*
X-71893Y215066D01*
X-73086D01*
X-74189Y214609D01*
X-75033Y213765D01*
X-75490Y212663D01*
Y211469D01*
X-75262Y210920D01*
X-75954Y209688D01*
X-76006Y209650D01*
X-76250D01*
Y172128D01*
X-77520Y171602D01*
X-78513Y172595D01*
Y273713D01*
X-78463Y273820D01*
X-78457Y273953D01*
X-78446Y274037D01*
X-78428Y274119D01*
X-78402Y274201D01*
X-78368Y274284D01*
X-78323Y274372D01*
X-78266Y274464D01*
X-78196Y274559D01*
X-78111Y274660D01*
X-77988Y274788D01*
X-77914Y274979D01*
X-77626Y275266D01*
X-77520Y275522D01*
X-76250Y275270D01*
Y270850D01*
X-61550D01*
Y287323D01*
X-60668Y288018D01*
X-60280Y288087D01*
X-60112Y287934D01*
Y286887D01*
X-59655Y285784D01*
X-58811Y284940D01*
X-57709Y284484D01*
X-56515D01*
X-55413Y284940D01*
X-54569Y285784D01*
X-54112Y286887D01*
Y288080D01*
X-54569Y289183D01*
X-54464Y290018D01*
X-53988Y291166D01*
Y305644D01*
X-54464Y306793D01*
X-61426Y313755D01*
Y333900D01*
X-61550Y334198D01*
Y359150D01*
X-75924D01*
Y370850D01*
X-61550D01*
Y402214D01*
X-60280Y402741D01*
X-59904Y402364D01*
X-58801Y401907D01*
X-57607D01*
X-57094Y402120D01*
X-55824Y401386D01*
Y341948D01*
X-55930Y341908D01*
X-56028Y341816D01*
X-56108Y341750D01*
X-56199Y341685D01*
X-56288Y341629D01*
X-56551Y341492D01*
X-56665Y341443D01*
X-56999Y341326D01*
X-57183Y341274D01*
X-57345Y341146D01*
X-58081Y340841D01*
X-58925Y339997D01*
X-59382Y338895D01*
Y337701D01*
X-58925Y336599D01*
X-58081Y335755D01*
X-56978Y335298D01*
X-55785D01*
X-54682Y335755D01*
X-53838Y336599D01*
X-53382Y337701D01*
Y338895D01*
X-53421Y338990D01*
X-53404Y339094D01*
X-53438Y339235D01*
X-53449Y339316D01*
X-53452Y339381D01*
X-53448Y339433D01*
X-53440Y339478D01*
X-53428Y339518D01*
X-53409Y339560D01*
X-53381Y339607D01*
X-53341Y339661D01*
X-53251Y339761D01*
X-53211Y339870D01*
X-53158Y339923D01*
X-53103Y339967D01*
X-53101Y339980D01*
X-52995Y340086D01*
X-52636Y340623D01*
X-52510Y341257D01*
Y416347D01*
X-49194Y419663D01*
X-49082Y419705D01*
X-48610Y420144D01*
X-48444Y420278D01*
X-48343Y420350D01*
X-48103D01*
X-48052Y420329D01*
X-48000Y420350D01*
X-47905D01*
X-47875Y420343D01*
X-47864Y420350D01*
X-36427D01*
X-36150Y420350D01*
X-35157Y419682D01*
Y410318D01*
X-36150Y409650D01*
X-41498D01*
X-42347Y410920D01*
X-42250Y411153D01*
Y412347D01*
X-42707Y413449D01*
X-43551Y414293D01*
X-44653Y414750D01*
X-45847D01*
X-46949Y414293D01*
X-47793Y413449D01*
X-48250Y412347D01*
Y411153D01*
X-48153Y410920D01*
X-49002Y409650D01*
X-50850D01*
Y370850D01*
X-36150D01*
Y385861D01*
X-35836Y386141D01*
X-34880Y386574D01*
X-34097Y386250D01*
X-32903D01*
X-31801Y386707D01*
X-30551Y386160D01*
Y341334D01*
X-30623Y341300D01*
X-31461D01*
X-32564Y340843D01*
X-33407Y339999D01*
X-33864Y338897D01*
Y337703D01*
X-33407Y336601D01*
X-32564Y335757D01*
X-31461Y335300D01*
X-30268D01*
X-29165Y335757D01*
X-28321Y336601D01*
X-27864Y337703D01*
Y338897D01*
X-27872Y338915D01*
X-27867Y338927D01*
X-27885Y338965D01*
X-27872Y338986D01*
X-27829Y339043D01*
X-27767Y339115D01*
X-27669Y339219D01*
X-27579Y339451D01*
X-27364Y339773D01*
X-27238Y340407D01*
Y416219D01*
X-23794Y419663D01*
X-23682Y419705D01*
X-23210Y420144D01*
X-23044Y420278D01*
X-22943Y420350D01*
X-22703D01*
X-22652Y420329D01*
X-22600Y420350D01*
X-22505D01*
X-22475Y420343D01*
X-22464Y420350D01*
X-11032D01*
Y409650D01*
D02*
G37*
G36*
X-69497Y412168D02*
X-69629Y412012D01*
X-69745Y411852D01*
X-69846Y411690D01*
X-69931Y411524D01*
X-70001Y411355D01*
X-70055Y411184D01*
X-70094Y411009D01*
X-70117Y410831D01*
X-70125Y410650D01*
X-71375D01*
X-71383Y410831D01*
X-71406Y411009D01*
X-71445Y411184D01*
X-71499Y411355D01*
X-71569Y411524D01*
X-71654Y411690D01*
X-71755Y411852D01*
X-71871Y412012D01*
X-72003Y412168D01*
X-72150Y412322D01*
X-69350D01*
X-69497Y412168D01*
D02*
G37*
G36*
X-43997Y410168D02*
X-44129Y410012D01*
X-44245Y409852D01*
X-44346Y409690D01*
X-44431Y409524D01*
X-44501Y409355D01*
X-44555Y409184D01*
X-44556Y409183D01*
X-44525Y409070D01*
X-44469Y408932D01*
X-44400Y408820D01*
X-44319Y408732D01*
X-44225Y408670D01*
X-44119Y408632D01*
X-44000Y408619D01*
X-46500D01*
X-46381Y408632D01*
X-46275Y408670D01*
X-46181Y408732D01*
X-46100Y408820D01*
X-46031Y408932D01*
X-45975Y409070D01*
X-45944Y409183D01*
X-45945Y409184D01*
X-45999Y409355D01*
X-46069Y409524D01*
X-46154Y409690D01*
X-46255Y409852D01*
X-46371Y410012D01*
X-46503Y410168D01*
X-46650Y410322D01*
X-43850D01*
X-43997Y410168D01*
D02*
G37*
G36*
X-70119Y409632D02*
X-70100Y409420D01*
X-70069Y409232D01*
X-70025Y409070D01*
X-69969Y408932D01*
X-69900Y408820D01*
X-69819Y408732D01*
X-69725Y408670D01*
X-69619Y408632D01*
X-69500Y408619D01*
X-72000D01*
X-71881Y408632D01*
X-71775Y408670D01*
X-71681Y408732D01*
X-71600Y408820D01*
X-71531Y408932D01*
X-71475Y409070D01*
X-71431Y409232D01*
X-71400Y409420D01*
X-71381Y409632D01*
X-71375Y409869D01*
X-70125D01*
X-70119Y409632D01*
D02*
G37*
G36*
X-19543D02*
X-19525Y409420D01*
X-19517Y409373D01*
X-18775D01*
X-18922Y409220D01*
X-19054Y409063D01*
X-19170Y408904D01*
X-19263Y408753D01*
X-19243Y408732D01*
X-19150Y408670D01*
X-19043Y408632D01*
X-18925Y408619D01*
X-19333D01*
X-19356Y408575D01*
X-19426Y408407D01*
X-19480Y408235D01*
X-19519Y408060D01*
X-19542Y407882D01*
X-19550Y407701D01*
X-20800D01*
X-20807Y407882D01*
X-20831Y408060D01*
X-20869Y408235D01*
X-20924Y408407D01*
X-20993Y408575D01*
X-21016Y408619D01*
X-21425D01*
X-21306Y408632D01*
X-21200Y408670D01*
X-21106Y408732D01*
X-21086Y408753D01*
X-21179Y408904D01*
X-21296Y409063D01*
X-21427Y409220D01*
X-21575Y409373D01*
X-20832D01*
X-20825Y409420D01*
X-20806Y409632D01*
X-20800Y409869D01*
X-19550D01*
X-19543Y409632D01*
D02*
G37*
G36*
X5881D02*
X5900Y409420D01*
X5916Y409322D01*
X6650D01*
X6503Y409168D01*
X6371Y409012D01*
X6255Y408852D01*
X6181Y408733D01*
X6181Y408732D01*
X6275Y408670D01*
X6381Y408632D01*
X6500Y408619D01*
X6118D01*
X6069Y408524D01*
X5999Y408355D01*
X5945Y408184D01*
X5906Y408009D01*
X5883Y407831D01*
X5875Y407650D01*
X4625D01*
X4617Y407831D01*
X4594Y408009D01*
X4555Y408184D01*
X4501Y408355D01*
X4431Y408524D01*
X4382Y408619D01*
X4000D01*
X4119Y408632D01*
X4225Y408670D01*
X4319Y408732D01*
X4319Y408733D01*
X4245Y408852D01*
X4129Y409012D01*
X3997Y409168D01*
X3850Y409322D01*
X4584D01*
X4600Y409420D01*
X4619Y409632D01*
X4625Y409869D01*
X5875D01*
X5881Y409632D01*
D02*
G37*
G36*
X-57572Y407826D02*
X-57548Y407649D01*
X-57509Y407474D01*
X-57455Y407302D01*
X-57386Y407133D01*
X-57300Y406968D01*
X-57200Y406805D01*
X-57083Y406646D01*
X-56951Y406489D01*
X-56804Y406336D01*
X-59604D01*
X-59457Y406489D01*
X-59325Y406646D01*
X-59209Y406805D01*
X-59108Y406968D01*
X-59023Y407133D01*
X-58953Y407302D01*
X-58899Y407474D01*
X-58860Y407649D01*
X-58837Y407826D01*
X-58829Y408007D01*
X-57579D01*
X-57572Y407826D01*
D02*
G37*
G36*
X-84317Y406406D02*
X-84294Y406228D01*
X-84255Y406053D01*
X-84201Y405882D01*
X-84131Y405713D01*
X-84046Y405547D01*
X-83945Y405385D01*
X-83829Y405225D01*
X-83697Y405069D01*
X-83550Y404915D01*
X-86350D01*
X-86203Y405069D01*
X-86071Y405225D01*
X-85955Y405385D01*
X-85854Y405547D01*
X-85769Y405713D01*
X-85699Y405882D01*
X-85645Y406053D01*
X-85606Y406228D01*
X-85583Y406406D01*
X-85575Y406587D01*
X-84325D01*
X-84317Y406406D01*
D02*
G37*
G36*
X-80700Y394725D02*
X-80693Y394546D01*
X-80670Y394369D01*
X-80633Y394194D01*
X-80582Y394020D01*
X-80515Y393848D01*
X-80434Y393677D01*
X-80338Y393508D01*
X-80227Y393341D01*
X-80101Y393176D01*
X-79961Y393012D01*
X-82756Y393175D01*
X-82603Y393318D01*
X-82466Y393465D01*
X-82345Y393617D01*
X-82240Y393773D01*
X-82151Y393933D01*
X-82079Y394098D01*
X-82022Y394268D01*
X-81982Y394441D01*
X-81958Y394619D01*
X-81950Y394802D01*
X-80700Y394725D01*
D02*
G37*
G36*
X-32867Y392169D02*
X-32844Y391991D01*
X-32805Y391816D01*
X-32751Y391645D01*
X-32681Y391476D01*
X-32596Y391310D01*
X-32495Y391148D01*
X-32379Y390988D01*
X-32247Y390832D01*
X-32100Y390678D01*
X-34900D01*
X-34753Y390832D01*
X-34621Y390988D01*
X-34505Y391148D01*
X-34404Y391310D01*
X-34319Y391476D01*
X-34249Y391645D01*
X-34195Y391816D01*
X-34156Y391991D01*
X-34133Y392169D01*
X-34125Y392350D01*
X-32875D01*
X-32867Y392169D01*
D02*
G37*
G36*
X26089Y392303D02*
X26246Y392171D01*
X26363Y392085D01*
X26398Y392181D01*
X26411Y392300D01*
Y392051D01*
X26568Y391954D01*
X26733Y391869D01*
X26902Y391799D01*
X27074Y391745D01*
X27249Y391706D01*
X27426Y391683D01*
X27607Y391675D01*
Y390425D01*
X27426Y390417D01*
X27249Y390394D01*
X27074Y390355D01*
X26902Y390301D01*
X26733Y390231D01*
X26568Y390146D01*
X26411Y390049D01*
Y389800D01*
X26398Y389919D01*
X26363Y390015D01*
X26246Y389929D01*
X26089Y389797D01*
X25936Y389650D01*
Y390329D01*
X25784Y390369D01*
X25591Y390400D01*
X25374Y390419D01*
X25131Y390425D01*
Y391675D01*
X25374Y391681D01*
X25591Y391700D01*
X25784Y391731D01*
X25936Y391771D01*
Y392450D01*
X26089Y392303D01*
D02*
G37*
G36*
X51811Y378653D02*
X51823Y378651D01*
X52003Y378634D01*
X52238Y378626D01*
X52375Y378625D01*
Y377375D01*
X52238Y377374D01*
X51823Y377349D01*
X51811Y377347D01*
Y376750D01*
X51798Y376869D01*
X51760Y376975D01*
X51696Y377069D01*
X51606Y377150D01*
X51491Y377219D01*
X51350Y377275D01*
X51184Y377319D01*
X50992Y377350D01*
X50774Y377369D01*
X50531Y377375D01*
Y378625D01*
X50774Y378631D01*
X50992Y378650D01*
X51184Y378681D01*
X51350Y378725D01*
X51491Y378781D01*
X51606Y378850D01*
X51696Y378931D01*
X51760Y379025D01*
X51798Y379131D01*
X51811Y379250D01*
Y378653D01*
D02*
G37*
G36*
X110031Y371898D02*
X109925Y371860D01*
X109831Y371796D01*
X109750Y371706D01*
X109681Y371591D01*
X109625Y371450D01*
X109581Y371283D01*
X109550Y371091D01*
X109531Y370874D01*
X109525Y370630D01*
X108275D01*
X108269Y370874D01*
X108250Y371091D01*
X108219Y371283D01*
X108175Y371450D01*
X108119Y371591D01*
X108050Y371706D01*
X107969Y371796D01*
X107875Y371860D01*
X107769Y371898D01*
X107650Y371911D01*
X110150D01*
X110031Y371898D01*
D02*
G37*
G36*
X84631D02*
X84525Y371860D01*
X84431Y371796D01*
X84350Y371706D01*
X84281Y371591D01*
X84225Y371450D01*
X84192Y371326D01*
X84195Y371316D01*
X84249Y371145D01*
X84319Y370976D01*
X84404Y370810D01*
X84505Y370648D01*
X84621Y370488D01*
X84753Y370332D01*
X84900Y370178D01*
X82100D01*
X82247Y370332D01*
X82379Y370488D01*
X82495Y370648D01*
X82596Y370810D01*
X82681Y370976D01*
X82751Y371145D01*
X82805Y371316D01*
X82808Y371326D01*
X82775Y371450D01*
X82719Y371591D01*
X82650Y371706D01*
X82569Y371796D01*
X82475Y371860D01*
X82369Y371898D01*
X82250Y371911D01*
X84750D01*
X84631Y371898D01*
D02*
G37*
G36*
X109525Y367683D02*
X109533Y367503D01*
X109555Y367325D01*
X109593Y367150D01*
X109647Y366977D01*
X109715Y366807D01*
X109799Y366639D01*
X109897Y366474D01*
X110012Y366311D01*
X110141Y366151D01*
X110285Y365993D01*
X107486Y366063D01*
X107636Y366212D01*
X107770Y366364D01*
X107888Y366521D01*
X107991Y366680D01*
X108078Y366844D01*
X108149Y367011D01*
X108204Y367182D01*
X108243Y367356D01*
X108267Y367534D01*
X108275Y367715D01*
X109525Y367683D01*
D02*
G37*
G36*
X-4875Y367748D02*
X-4868Y367572D01*
X-4847Y367396D01*
X-4813Y367220D01*
X-4764Y367044D01*
X-4702Y366868D01*
X-4626Y366693D01*
X-4536Y366517D01*
X-4432Y366342D01*
X-4314Y366167D01*
X-4182Y365992D01*
X-6960Y366342D01*
X-6802Y366472D01*
X-6660Y366608D01*
X-6534Y366750D01*
X-6426Y366899D01*
X-6334Y367053D01*
X-6259Y367213D01*
X-6200Y367379D01*
X-6158Y367552D01*
X-6133Y367730D01*
X-6125Y367915D01*
X-4875Y367748D01*
D02*
G37*
G36*
X68383Y359054D02*
X68406Y358876D01*
X68445Y358701D01*
X68499Y358529D01*
X68569Y358361D01*
X68654Y358195D01*
X68755Y358032D01*
X68871Y357873D01*
X69003Y357716D01*
X69150Y357563D01*
X66350D01*
X66497Y357716D01*
X66629Y357873D01*
X66745Y358032D01*
X66846Y358195D01*
X66931Y358361D01*
X67001Y358529D01*
X67055Y358701D01*
X67094Y358876D01*
X67117Y359054D01*
X67125Y359235D01*
X68375D01*
X68383Y359054D01*
D02*
G37*
G36*
X95602Y355554D02*
X95625Y355376D01*
X95664Y355201D01*
X95718Y355029D01*
X95788Y354861D01*
X95873Y354695D01*
X95974Y354533D01*
X96090Y354373D01*
X96222Y354216D01*
X96369Y354063D01*
X93569D01*
X93717Y354216D01*
X93848Y354373D01*
X93965Y354533D01*
X94065Y354695D01*
X94151Y354861D01*
X94221Y355029D01*
X94275Y355201D01*
X94313Y355376D01*
X94337Y355554D01*
X94344Y355735D01*
X95595D01*
X95602Y355554D01*
D02*
G37*
G36*
X-28452Y339965D02*
X-28571Y339840D01*
X-28675Y339719D01*
X-28763Y339601D01*
X-28836Y339487D01*
X-28893Y339376D01*
X-28935Y339269D01*
X-28962Y339165D01*
X-28973Y339064D01*
X-28968Y338968D01*
X-28949Y338875D01*
X-30478Y340262D01*
X-30383Y340252D01*
X-30284Y340257D01*
X-30181Y340277D01*
X-30073Y340312D01*
X-29961Y340364D01*
X-29845Y340430D01*
X-29724Y340512D01*
X-29599Y340609D01*
X-29470Y340721D01*
X-29336Y340849D01*
X-28452Y339965D01*
D02*
G37*
G36*
X-54051Y340489D02*
X-54177Y340350D01*
X-54285Y340206D01*
X-54373Y340055D01*
X-54443Y339899D01*
X-54493Y339738D01*
X-54524Y339570D01*
X-54536Y339397D01*
X-54529Y339218D01*
X-54503Y339034D01*
X-54458Y338844D01*
X-56889Y340233D01*
X-56673Y340294D01*
X-56273Y340434D01*
X-56088Y340513D01*
X-55748Y340690D01*
X-55594Y340788D01*
X-55449Y340891D01*
X-55315Y341001D01*
X-55191Y341117D01*
X-54051Y340489D01*
D02*
G37*
G36*
X-4910Y326434D02*
X-4887Y326256D01*
X-4848Y326081D01*
X-4794Y325909D01*
X-4724Y325741D01*
X-4639Y325575D01*
X-4538Y325412D01*
X-4422Y325253D01*
X-4290Y325096D01*
X-4143Y324943D01*
X-6943D01*
X-6795Y325096D01*
X-6664Y325253D01*
X-6547Y325412D01*
X-6447Y325575D01*
X-6362Y325741D01*
X-6292Y325909D01*
X-6237Y326081D01*
X-6199Y326256D01*
X-6176Y326434D01*
X-6168Y326614D01*
X-4918D01*
X-4910Y326434D01*
D02*
G37*
G36*
X115219Y321381D02*
X115225Y321371D01*
X115231Y321340D01*
X115235Y321291D01*
X115245Y321021D01*
X115250Y320381D01*
X114250D01*
X114245Y320574D01*
X114230Y320748D01*
X114205Y320902D01*
X114170Y321035D01*
X114125Y321148D01*
X114070Y321241D01*
X114005Y321314D01*
X113930Y321366D01*
X113845Y321399D01*
X113750Y321411D01*
X115219Y321381D01*
D02*
G37*
G36*
X89819D02*
X89825Y321371D01*
X89831Y321340D01*
X89835Y321291D01*
X89845Y321021D01*
X89850Y320381D01*
X88850D01*
X88845Y320574D01*
X88830Y320748D01*
X88805Y320902D01*
X88770Y321035D01*
X88725Y321148D01*
X88670Y321241D01*
X88605Y321314D01*
X88530Y321366D01*
X88445Y321399D01*
X88350Y321411D01*
X89819Y321381D01*
D02*
G37*
G36*
X64419D02*
X64425Y321371D01*
X64430Y321340D01*
X64435Y321291D01*
X64445Y321021D01*
X64450Y320381D01*
X63450D01*
X63445Y320574D01*
X63430Y320748D01*
X63405Y320902D01*
X63370Y321035D01*
X63325Y321148D01*
X63270Y321241D01*
X63205Y321314D01*
X63130Y321366D01*
X63045Y321399D01*
X62950Y321411D01*
X64419Y321381D01*
D02*
G37*
G36*
X39019D02*
X39025Y321371D01*
X39030Y321340D01*
X39035Y321291D01*
X39045Y321021D01*
X39050Y320381D01*
X38050D01*
X38045Y320574D01*
X38030Y320748D01*
X38005Y320902D01*
X37970Y321035D01*
X37925Y321148D01*
X37870Y321241D01*
X37805Y321314D01*
X37730Y321366D01*
X37645Y321399D01*
X37550Y321411D01*
X39019Y321381D01*
D02*
G37*
G36*
X13620D02*
X13625Y321371D01*
X13630Y321340D01*
X13635Y321291D01*
X13645Y321021D01*
X13650Y320381D01*
X12650D01*
X12645Y320574D01*
X12630Y320748D01*
X12605Y320902D01*
X12570Y321035D01*
X12525Y321148D01*
X12470Y321241D01*
X12405Y321314D01*
X12330Y321366D01*
X12245Y321399D01*
X12150Y321411D01*
X13620Y321381D01*
D02*
G37*
G36*
X-11781D02*
X-11775Y321371D01*
X-11769Y321340D01*
X-11765Y321291D01*
X-11755Y321021D01*
X-11750Y320381D01*
X-12750D01*
X-12755Y320574D01*
X-12770Y320748D01*
X-12795Y320902D01*
X-12830Y321035D01*
X-12875Y321148D01*
X-12930Y321241D01*
X-12995Y321314D01*
X-13070Y321366D01*
X-13155Y321399D01*
X-13250Y321411D01*
X-11781Y321381D01*
D02*
G37*
G36*
X-37181D02*
X-37175Y321371D01*
X-37169Y321340D01*
X-37165Y321291D01*
X-37155Y321021D01*
X-37150Y320381D01*
X-38150D01*
X-38155Y320574D01*
X-38170Y320748D01*
X-38195Y320902D01*
X-38230Y321035D01*
X-38275Y321148D01*
X-38330Y321241D01*
X-38395Y321314D01*
X-38470Y321366D01*
X-38555Y321399D01*
X-38650Y321411D01*
X-37181Y321381D01*
D02*
G37*
G36*
X-62580D02*
X-62575Y321371D01*
X-62569Y321340D01*
X-62565Y321291D01*
X-62555Y321021D01*
X-62550Y320381D01*
X-63550D01*
X-63555Y320574D01*
X-63570Y320748D01*
X-63595Y320902D01*
X-63630Y321035D01*
X-63675Y321148D01*
X-63730Y321241D01*
X-63795Y321314D01*
X-63870Y321366D01*
X-63955Y321399D01*
X-64050Y321411D01*
X-62580Y321381D01*
D02*
G37*
G36*
X43071Y319788D02*
X43094Y319611D01*
X43133Y319436D01*
X43188Y319265D01*
X43259Y319097D01*
X43345Y318933D01*
X43447Y318773D01*
X43565Y318615D01*
X43698Y318462D01*
X43847Y318311D01*
X41048Y318263D01*
X41193Y318419D01*
X41323Y318578D01*
X41438Y318740D01*
X41537Y318905D01*
X41621Y319072D01*
X41690Y319241D01*
X41744Y319414D01*
X41782Y319589D01*
X41805Y319767D01*
X41813Y319947D01*
X43063Y319970D01*
X43071Y319788D01*
D02*
G37*
G36*
X18375Y315837D02*
X18381Y315666D01*
X18399Y315493D01*
X18428Y315317D01*
X18470Y315139D01*
X18523Y314958D01*
X18588Y314775D01*
X18753Y314401D01*
X18853Y314211D01*
X18966Y314018D01*
X16252Y314708D01*
X16418Y314814D01*
X16566Y314929D01*
X16697Y315053D01*
X16811Y315186D01*
X16907Y315328D01*
X16985Y315479D01*
X17046Y315639D01*
X17090Y315809D01*
X17116Y315987D01*
X17125Y316174D01*
X18375Y315837D01*
D02*
G37*
G36*
X-61636Y307633D02*
X-61819Y307628D01*
X-61984Y307615D01*
X-62129Y307593D01*
X-62255Y307561D01*
X-62362Y307521D01*
X-62450Y307472D01*
X-62519Y307415D01*
X-62569Y307348D01*
X-62600Y307272D01*
X-62611Y307188D01*
X-62580Y308619D01*
X-61636Y308633D01*
Y307633D01*
D02*
G37*
G36*
X-10781Y307650D02*
X-10974Y307645D01*
X-11148Y307630D01*
X-11302Y307605D01*
X-11435Y307570D01*
X-11548Y307525D01*
X-11641Y307470D01*
X-11714Y307405D01*
X-11766Y307330D01*
X-11799Y307245D01*
X-11811Y307150D01*
X-11781Y308619D01*
X-10781Y308650D01*
Y307650D01*
D02*
G37*
G36*
X115229Y308606D02*
X115257Y308595D01*
X115304Y308585D01*
X115371Y308576D01*
X115560Y308562D01*
X116164Y308551D01*
Y307551D01*
X115981Y307547D01*
X115816Y307534D01*
X115671Y307511D01*
X115544Y307480D01*
X115437Y307440D01*
X115349Y307391D01*
X115281Y307333D01*
X115231Y307267D01*
X115200Y307191D01*
X115189Y307107D01*
X115219Y308619D01*
X115229Y308606D01*
D02*
G37*
G36*
X64429Y308612D02*
X64460Y308606D01*
X64510Y308600D01*
X64669Y308590D01*
X65420Y308581D01*
Y307581D01*
X65226Y307576D01*
X65052Y307561D01*
X64898Y307536D01*
X64765Y307501D01*
X64652Y307456D01*
X64559Y307401D01*
X64486Y307336D01*
X64433Y307261D01*
X64401Y307176D01*
X64389Y307081D01*
X64419Y308619D01*
X64429Y308612D01*
D02*
G37*
G36*
X89830Y308611D02*
X89860Y308603D01*
X89909Y308596D01*
X90070Y308585D01*
X90820Y308574D01*
Y307574D01*
X90625Y307569D01*
X90452Y307554D01*
X90298Y307529D01*
X90165Y307494D01*
X90052Y307449D01*
X89959Y307394D01*
X89886Y307329D01*
X89833Y307254D01*
X89801Y307169D01*
X89789Y307074D01*
X89819Y308619D01*
X89830Y308611D01*
D02*
G37*
G36*
X-37171Y308549D02*
X-37143Y308485D01*
X-37095Y308429D01*
X-37029Y308381D01*
X-36944Y308339D01*
X-36840Y308306D01*
X-36718Y308280D01*
X-36576Y308261D01*
X-36415Y308250D01*
X-36236Y308246D01*
Y307246D01*
X-36420Y307242D01*
X-36584Y307228D01*
X-36730Y307206D01*
X-36856Y307175D01*
X-36963Y307135D01*
X-37051Y307086D01*
X-37120Y307028D01*
X-37169Y306961D01*
X-37200Y306886D01*
X-37211Y306801D01*
X-37181Y308619D01*
X-37171Y308549D01*
D02*
G37*
G36*
X21507Y306809D02*
X21514Y306637D01*
X21532Y306462D01*
X21563Y306286D01*
X21607Y306108D01*
X21663Y305929D01*
X21731Y305748D01*
X21812Y305565D01*
X22011Y305193D01*
X22129Y305005D01*
X19393Y305600D01*
X19557Y305713D01*
X19704Y305834D01*
X19834Y305963D01*
X19946Y306101D01*
X20041Y306246D01*
X20119Y306400D01*
X20180Y306562D01*
X20223Y306732D01*
X20249Y306910D01*
X20257Y307097D01*
X21507Y306809D01*
D02*
G37*
G36*
X-2117Y305419D02*
X-2094Y305241D01*
X-2055Y305066D01*
X-2001Y304895D01*
X-1931Y304726D01*
X-1846Y304560D01*
X-1745Y304398D01*
X-1629Y304238D01*
X-1497Y304082D01*
X-1350Y303928D01*
X-4150D01*
X-4003Y304082D01*
X-3871Y304238D01*
X-3755Y304398D01*
X-3654Y304560D01*
X-3569Y304726D01*
X-3499Y304895D01*
X-3445Y305066D01*
X-3406Y305241D01*
X-3383Y305419D01*
X-3375Y305600D01*
X-2125D01*
X-2117Y305419D01*
D02*
G37*
G36*
X49383Y304919D02*
X49406Y304741D01*
X49445Y304566D01*
X49499Y304395D01*
X49569Y304226D01*
X49654Y304060D01*
X49755Y303898D01*
X49871Y303738D01*
X50003Y303582D01*
X50150Y303428D01*
X47350D01*
X47497Y303582D01*
X47629Y303738D01*
X47745Y303898D01*
X47846Y304060D01*
X47931Y304226D01*
X48001Y304395D01*
X48055Y304566D01*
X48094Y304741D01*
X48117Y304919D01*
X48125Y305100D01*
X49375D01*
X49383Y304919D01*
D02*
G37*
G36*
X13599Y302175D02*
X13628Y302099D01*
X13677Y302032D01*
X13745Y301975D01*
X13833Y301926D01*
X13940Y301886D01*
X14067Y301854D01*
X14213Y301832D01*
X14379Y301819D01*
X14564Y301814D01*
Y300814D01*
X14379Y300810D01*
X14213Y300797D01*
X14067Y300774D01*
X13940Y300743D01*
X13833Y300703D01*
X13745Y300654D01*
X13677Y300597D01*
X13628Y300530D01*
X13599Y300454D01*
X13589Y300370D01*
Y302259D01*
X13599Y302175D01*
D02*
G37*
G36*
X74783Y296419D02*
X74806Y296241D01*
X74845Y296066D01*
X74899Y295895D01*
X74969Y295726D01*
X75054Y295560D01*
X75155Y295398D01*
X75271Y295238D01*
X75403Y295082D01*
X75550Y294928D01*
X72750D01*
X72897Y295082D01*
X73029Y295238D01*
X73145Y295398D01*
X73246Y295560D01*
X73331Y295726D01*
X73401Y295895D01*
X73455Y296066D01*
X73494Y296241D01*
X73517Y296419D01*
X73525Y296600D01*
X74775D01*
X74783Y296419D01*
D02*
G37*
G36*
X-57758Y293992D02*
X-57816Y293933D01*
X-57944Y293786D01*
X-57972Y293747D01*
X-57993Y293712D01*
X-58007Y293682D01*
X-58013Y293658D01*
X-58012Y293638D01*
X-58004Y293622D01*
X-59017Y294208D01*
X-59002Y294211D01*
X-58979Y294224D01*
X-58947Y294247D01*
X-58905Y294281D01*
X-58726Y294444D01*
X-58466Y294699D01*
X-57758Y293992D01*
D02*
G37*
G36*
X100058Y291342D02*
X100083Y291164D01*
X100123Y290991D01*
X100179Y290821D01*
X100252Y290657D01*
X100341Y290497D01*
X100446Y290341D01*
X100567Y290190D01*
X100705Y290044D01*
X100858Y289902D01*
X98064Y289727D01*
X98203Y289891D01*
X98329Y290057D01*
X98439Y290225D01*
X98535Y290394D01*
X98616Y290565D01*
X98682Y290737D01*
X98734Y290911D01*
X98771Y291087D01*
X98793Y291264D01*
X98800Y291443D01*
X100050Y291525D01*
X100058Y291342D01*
D02*
G37*
G36*
X-56047Y290039D02*
X-56018Y289697D01*
X-55993Y289546D01*
X-55962Y289406D01*
X-55923Y289279D01*
X-55877Y289165D01*
X-55824Y289063D01*
X-55763Y288973D01*
X-55696Y288896D01*
X-57543Y289437D01*
X-57449Y289464D01*
X-57365Y289503D01*
X-57292Y289553D01*
X-57228Y289615D01*
X-57173Y289689D01*
X-57129Y289774D01*
X-57094Y289870D01*
X-57070Y289978D01*
X-57055Y290097D01*
X-57050Y290228D01*
X-56050D01*
X-56047Y290039D01*
D02*
G37*
G36*
X-78917Y275384D02*
X-79048Y275228D01*
X-79165Y275068D01*
X-79265Y274905D01*
X-79351Y274740D01*
X-79420Y274571D01*
X-79475Y274400D01*
X-79513Y274225D01*
X-79536Y274047D01*
X-79544Y273866D01*
X-80794D01*
X-80802Y274047D01*
X-80825Y274225D01*
X-80864Y274400D01*
X-80918Y274571D01*
X-80988Y274740D01*
X-81073Y274905D01*
X-81174Y275068D01*
X-81290Y275228D01*
X-81422Y275384D01*
X-81569Y275538D01*
X-78769D01*
X-78917Y275384D01*
D02*
G37*
G36*
X4915Y266907D02*
X4907Y266910D01*
X4894Y266906D01*
X4876Y266897D01*
X4854Y266882D01*
X4827Y266861D01*
X4757Y266800D01*
X4617Y266665D01*
X3910Y267372D01*
X4399Y267858D01*
X4915Y266907D01*
D02*
G37*
G36*
X-34066Y267003D02*
X-34125Y266942D01*
X-34257Y266787D01*
X-34286Y266746D01*
X-34307Y266709D01*
X-34320Y266676D01*
X-34325Y266649D01*
X-34323Y266626D01*
X-34313Y266609D01*
X-35346Y267218D01*
X-35328Y267220D01*
X-35302Y267233D01*
X-35266Y267256D01*
X-35222Y267290D01*
X-35108Y267388D01*
X-34773Y267710D01*
X-34066Y267003D01*
D02*
G37*
G36*
X-31419Y264954D02*
X-31411Y264793D01*
X-31386Y264629D01*
X-31343Y264460D01*
X-31284Y264287D01*
X-31209Y264111D01*
X-31116Y263930D01*
X-31007Y263745D01*
X-30881Y263557D01*
X-30578Y263168D01*
X-33366Y263425D01*
X-33186Y263580D01*
X-33025Y263737D01*
X-32883Y263895D01*
X-32760Y264055D01*
X-32656Y264217D01*
X-32571Y264380D01*
X-32504Y264545D01*
X-32457Y264711D01*
X-32429Y264879D01*
X-32419Y265049D01*
X-31419Y264954D01*
D02*
G37*
G36*
X8667Y263109D02*
X8491Y263280D01*
X8142Y263568D01*
X7970Y263685D01*
X7799Y263784D01*
X7628Y263865D01*
X7459Y263928D01*
X7291Y263973D01*
X7124Y264000D01*
X6959Y264009D01*
Y265009D01*
X7124Y265018D01*
X7291Y265045D01*
X7459Y265090D01*
X7628Y265153D01*
X7799Y265234D01*
X7970Y265333D01*
X8142Y265450D01*
X8316Y265585D01*
X8491Y265738D01*
X8667Y265909D01*
Y263109D01*
D02*
G37*
G36*
X-48170Y262168D02*
X-48386Y262148D01*
X-48592Y262116D01*
X-48789Y262074D01*
X-48976Y262020D01*
X-49155Y261955D01*
X-49323Y261878D01*
X-49483Y261791D01*
X-49633Y261692D01*
X-49773Y261583D01*
X-49904Y261462D01*
X-50860Y262274D01*
X-50737Y262409D01*
X-50628Y262552D01*
X-50534Y262704D01*
X-50455Y262863D01*
X-50391Y263031D01*
X-50342Y263206D01*
X-50309Y263390D01*
X-50290Y263582D01*
X-50286Y263782D01*
X-50297Y263990D01*
X-48170Y262168D01*
D02*
G37*
G36*
X-31324Y246048D02*
X-31307Y245844D01*
X-31276Y245649D01*
X-31232Y245463D01*
X-31175Y245285D01*
X-31105Y245117D01*
X-31022Y244957D01*
X-30926Y244806D01*
X-30817Y244664D01*
X-30694Y244530D01*
X-31578Y243646D01*
X-31712Y243769D01*
X-31854Y243878D01*
X-32005Y243974D01*
X-32165Y244057D01*
X-32333Y244127D01*
X-32511Y244184D01*
X-32697Y244228D01*
X-32892Y244258D01*
X-33096Y244276D01*
X-33308Y244280D01*
X-31328Y246260D01*
X-31324Y246048D01*
D02*
G37*
G36*
X-5748Y238361D02*
X-5860Y238235D01*
X-5959Y238097D01*
X-6044Y237946D01*
X-6115Y237782D01*
X-6172Y237606D01*
X-6216Y237417D01*
X-6245Y237216D01*
X-6260Y237002D01*
X-6261Y236775D01*
X-6249Y236536D01*
X-8361Y238374D01*
X-8111Y238394D01*
X-7653Y238464D01*
X-7446Y238514D01*
X-7253Y238573D01*
X-7075Y238642D01*
X-6911Y238722D01*
X-6761Y238810D01*
X-6626Y238909D01*
X-6506Y239018D01*
X-5748Y238361D01*
D02*
G37*
G36*
X-32897Y237272D02*
X-33029Y237116D01*
X-33145Y236956D01*
X-33246Y236793D01*
X-33331Y236628D01*
X-33401Y236459D01*
X-33455Y236287D01*
X-33494Y236113D01*
X-33517Y235935D01*
X-33525Y235754D01*
X-34775D01*
X-34783Y235935D01*
X-34806Y236113D01*
X-34845Y236287D01*
X-34899Y236459D01*
X-34969Y236628D01*
X-35054Y236793D01*
X-35155Y236956D01*
X-35271Y237116D01*
X-35403Y237272D01*
X-35550Y237426D01*
X-32750D01*
X-32897Y237272D01*
D02*
G37*
G36*
X-82892Y224732D02*
X-83022Y224573D01*
X-83138Y224412D01*
X-83238Y224249D01*
X-83322Y224082D01*
X-83391Y223913D01*
X-83445Y223740D01*
X-83483Y223565D01*
X-83506Y223388D01*
X-83514Y223207D01*
X-84764Y223192D01*
X-84772Y223373D01*
X-84796Y223551D01*
X-84835Y223726D01*
X-84889Y223897D01*
X-84960Y224065D01*
X-85045Y224230D01*
X-85147Y224391D01*
X-85264Y224549D01*
X-85397Y224704D01*
X-85546Y224855D01*
X-82746Y224887D01*
X-82892Y224732D01*
D02*
G37*
G36*
X-54763Y224137D02*
X-54975Y223778D01*
X-55061Y223599D01*
X-55134Y223421D01*
X-55194Y223243D01*
X-55240Y223067D01*
X-55273Y222890D01*
X-55293Y222715D01*
X-55300Y222540D01*
X-56550Y222323D01*
X-56558Y222508D01*
X-56584Y222686D01*
X-56626Y222858D01*
X-56686Y223022D01*
X-56762Y223180D01*
X-56856Y223330D01*
X-56966Y223474D01*
X-57094Y223611D01*
X-57238Y223740D01*
X-57399Y223863D01*
X-54637Y224318D01*
X-54763Y224137D01*
D02*
G37*
G36*
X103955Y221399D02*
X103870Y221366D01*
X103795Y221314D01*
X103730Y221241D01*
X103675Y221148D01*
X103630Y221035D01*
X103595Y220902D01*
X103570Y220748D01*
X103555Y220574D01*
X103550Y220380D01*
X102550D01*
X102580Y221381D01*
X104050Y221411D01*
X103955Y221399D01*
D02*
G37*
G36*
X78555D02*
X78470Y221366D01*
X78395Y221314D01*
X78330Y221241D01*
X78275Y221148D01*
X78230Y221035D01*
X78195Y220902D01*
X78170Y220748D01*
X78155Y220574D01*
X78150Y220380D01*
X77150D01*
X77181Y221381D01*
X78650Y221411D01*
X78555Y221399D01*
D02*
G37*
G36*
X59005Y221401D02*
X58920Y221370D01*
X58845Y221318D01*
X58780Y221246D01*
X58725Y221153D01*
X58680Y221040D01*
X58645Y220906D01*
X58620Y220751D01*
X58605Y220576D01*
X58600Y220380D01*
X57600D01*
X57595Y220576D01*
X57580Y220751D01*
X57555Y220906D01*
X57520Y221040D01*
X57475Y221153D01*
X57420Y221246D01*
X57355Y221318D01*
X57280Y221370D01*
X57195Y221401D01*
X57100Y221411D01*
X59100D01*
X59005Y221401D01*
D02*
G37*
G36*
X27755Y221399D02*
X27670Y221366D01*
X27595Y221314D01*
X27530Y221241D01*
X27475Y221148D01*
X27430Y221035D01*
X27395Y220902D01*
X27370Y220748D01*
X27355Y220574D01*
X27350Y220380D01*
X26350D01*
X26381Y221381D01*
X27850Y221411D01*
X27755Y221399D01*
D02*
G37*
G36*
X10787Y221401D02*
X10702Y221370D01*
X10627Y221318D01*
X10562Y221246D01*
X10507Y221153D01*
X10462Y221040D01*
X10427Y220906D01*
X10402Y220751D01*
X10387Y220576D01*
X10382Y220380D01*
X9382D01*
X9377Y220576D01*
X9362Y220751D01*
X9337Y220906D01*
X9302Y221040D01*
X9257Y221153D01*
X9202Y221246D01*
X9137Y221318D01*
X9062Y221370D01*
X8977Y221401D01*
X8882Y221411D01*
X10882D01*
X10787Y221401D01*
D02*
G37*
G36*
X-16195D02*
X-16280Y221370D01*
X-16355Y221318D01*
X-16420Y221246D01*
X-16475Y221153D01*
X-16520Y221040D01*
X-16555Y220906D01*
X-16580Y220751D01*
X-16595Y220576D01*
X-16600Y220380D01*
X-17600D01*
X-17605Y220576D01*
X-17620Y220751D01*
X-17645Y220906D01*
X-17680Y221040D01*
X-17725Y221153D01*
X-17780Y221246D01*
X-17845Y221318D01*
X-17920Y221370D01*
X-18005Y221401D01*
X-18100Y221411D01*
X-16100D01*
X-16195Y221401D01*
D02*
G37*
G36*
X-41603D02*
X-41688Y221370D01*
X-41763Y221318D01*
X-41828Y221246D01*
X-41883Y221153D01*
X-41928Y221040D01*
X-41963Y220906D01*
X-41988Y220751D01*
X-42003Y220576D01*
X-42008Y220380D01*
X-43008D01*
X-43013Y220576D01*
X-43028Y220751D01*
X-43053Y220906D01*
X-43088Y221040D01*
X-43133Y221153D01*
X-43188Y221246D01*
X-43253Y221318D01*
X-43328Y221370D01*
X-43413Y221401D01*
X-43508Y221411D01*
X-41508D01*
X-41603Y221401D01*
D02*
G37*
G36*
X-67546D02*
X-67631Y221370D01*
X-67706Y221318D01*
X-67771Y221246D01*
X-67826Y221153D01*
X-67871Y221040D01*
X-67906Y220906D01*
X-67931Y220751D01*
X-67946Y220576D01*
X-67951Y220380D01*
X-68951D01*
X-68956Y220576D01*
X-68971Y220751D01*
X-68996Y220906D01*
X-69031Y221040D01*
X-69076Y221153D01*
X-69131Y221246D01*
X-69196Y221318D01*
X-69271Y221370D01*
X-69356Y221401D01*
X-69451Y221411D01*
X-67451D01*
X-67546Y221401D01*
D02*
G37*
G36*
X-67942Y217985D02*
X-67915Y217818D01*
X-67870Y217650D01*
X-67807Y217481D01*
X-67726Y217310D01*
X-67627Y217139D01*
X-67510Y216966D01*
X-67375Y216793D01*
X-67222Y216618D01*
X-67051Y216442D01*
X-69851D01*
X-69680Y216618D01*
X-69392Y216966D01*
X-69275Y217139D01*
X-69176Y217310D01*
X-69095Y217481D01*
X-69032Y217650D01*
X-68987Y217818D01*
X-68960Y217985D01*
X-68951Y218150D01*
X-67951D01*
X-67942Y217985D01*
D02*
G37*
G36*
X50750Y298207D02*
Y270850D01*
X64955D01*
Y259150D01*
X50750D01*
Y234198D01*
X50626Y233900D01*
X50750Y233602D01*
Y220350D01*
X56476D01*
Y218837D01*
X56347Y218750D01*
X55153D01*
X54051Y218293D01*
X53207Y217449D01*
X52750Y216347D01*
Y215153D01*
X53207Y214051D01*
X54051Y213207D01*
X55153Y212750D01*
X55342D01*
X55463Y212682D01*
X55914Y212627D01*
X56068Y212597D01*
X56214Y212560D01*
X56340Y212520D01*
X56445Y212478D01*
X56476Y212463D01*
Y209650D01*
X50750D01*
Y170850D01*
X59606D01*
X60454Y169580D01*
X60399Y169447D01*
Y168253D01*
X60856Y167151D01*
X61700Y166307D01*
X62802Y165850D01*
X63996D01*
X64598Y164725D01*
X64843Y164134D01*
X65687Y163290D01*
X66790Y162833D01*
X67983D01*
X69086Y163290D01*
X69916Y164120D01*
X69992Y164142D01*
X70866Y164264D01*
X71254Y164254D01*
X71326Y164164D01*
X71419Y164011D01*
X71574Y163638D01*
X71659Y163312D01*
X71465Y163077D01*
X71324Y162933D01*
X71247Y162740D01*
X70957Y162449D01*
X70500Y161347D01*
Y160153D01*
X70957Y159051D01*
X71801Y158207D01*
X72903Y157750D01*
X74097D01*
X74880Y158074D01*
X75836Y157640D01*
X76150Y157361D01*
Y148892D01*
X76135Y148864D01*
X76108Y148612D01*
X76076Y148521D01*
X76021Y148440D01*
X75912Y148339D01*
X75716Y148220D01*
X75415Y148098D01*
X75008Y147989D01*
X74496Y147905D01*
X73885Y147851D01*
X73152Y147832D01*
X73100Y147809D01*
X72250D01*
X71954Y147750D01*
X71653D01*
X71375Y147635D01*
X71080Y147576D01*
X70829Y147409D01*
X70551Y147293D01*
X70338Y147080D01*
X70087Y146913D01*
X69920Y146662D01*
X69707Y146449D01*
X69591Y146171D01*
X69424Y145920D01*
X69365Y145625D01*
X69250Y145347D01*
Y145045D01*
X69191Y144750D01*
X69250Y144454D01*
Y144153D01*
X69365Y143875D01*
X69424Y143580D01*
X69591Y143329D01*
X69707Y143051D01*
X69920Y142838D01*
X70087Y142587D01*
X70338Y142420D01*
X70551Y142207D01*
X70829Y142091D01*
X71080Y141924D01*
X71375Y141865D01*
X71653Y141750D01*
X71954D01*
X72250Y141691D01*
X73100D01*
X73152Y141668D01*
X73885Y141649D01*
X74496Y141595D01*
X75008Y141511D01*
X75415Y141402D01*
X75716Y141280D01*
X75912Y141161D01*
X76021Y141061D01*
X76076Y140979D01*
X76108Y140888D01*
X76135Y140636D01*
X76150Y140608D01*
Y134893D01*
X76135Y134864D01*
X76108Y134612D01*
X76076Y134521D01*
X76021Y134439D01*
X75912Y134339D01*
X75716Y134220D01*
X75415Y134098D01*
X75008Y133989D01*
X74496Y133905D01*
X73885Y133851D01*
X73152Y133832D01*
X73100Y133809D01*
X72000D01*
X71705Y133750D01*
X71403D01*
X71125Y133635D01*
X70830Y133576D01*
X70579Y133409D01*
X70301Y133293D01*
X70088Y133080D01*
X69837Y132913D01*
X69670Y132662D01*
X69457Y132449D01*
X69341Y132171D01*
X69174Y131920D01*
X69115Y131625D01*
X69000Y131347D01*
Y131046D01*
X68941Y130750D01*
X69000Y130455D01*
Y130153D01*
X69115Y129875D01*
X69174Y129579D01*
X69341Y129329D01*
X69457Y129051D01*
X69670Y128838D01*
X69837Y128587D01*
X70088Y128420D01*
X70301Y128207D01*
X70579Y128091D01*
X70830Y127924D01*
X71125Y127865D01*
X71403Y127750D01*
X71705D01*
X72000Y127691D01*
X73100D01*
X73152Y127668D01*
X73885Y127649D01*
X74496Y127595D01*
X75008Y127511D01*
X75415Y127402D01*
X75716Y127280D01*
X75912Y127161D01*
X76021Y127061D01*
X76076Y126979D01*
X76108Y126888D01*
X76135Y126636D01*
X76150Y126608D01*
Y120499D01*
X65450D01*
Y138480D01*
X58100D01*
X50750D01*
Y120499D01*
X40050D01*
Y159150D01*
X28027D01*
X27964Y159189D01*
X27877Y159168D01*
X27795Y159202D01*
X27669Y159150D01*
X27652D01*
X27633Y159163D01*
X25521Y161275D01*
X24945Y161513D01*
X24227Y162796D01*
X24195Y163020D01*
X24214Y163065D01*
Y164258D01*
X23757Y165361D01*
X22913Y166205D01*
X21810Y166662D01*
X20617D01*
X19514Y166205D01*
X19224Y165915D01*
X19031Y165838D01*
X18875Y165686D01*
X18745Y165573D01*
X18624Y165479D01*
X18513Y165403D01*
X18413Y165346D01*
X18325Y165303D01*
X18276Y165285D01*
X15739D01*
X14591Y164810D01*
X12002Y162220D01*
X11526Y161072D01*
Y159150D01*
X-50D01*
Y151880D01*
X-1037Y151567D01*
X-1320Y151550D01*
X-2109Y152339D01*
X-3212Y152796D01*
X-4405D01*
X-4507Y152754D01*
X-5777Y153602D01*
Y172020D01*
X-5727Y172128D01*
X-5722Y172262D01*
X-5711Y172357D01*
X-5692Y172456D01*
X-5664Y172558D01*
X-5628Y172666D01*
X-5580Y172780D01*
X-5528Y172886D01*
X-5358Y173167D01*
X-5255Y173312D01*
X-5234Y173400D01*
X-5191Y173443D01*
X-4734Y174546D01*
Y175739D01*
X-5191Y176842D01*
X-6035Y177686D01*
X-7137Y178143D01*
X-8331D01*
X-9433Y177686D01*
X-9480Y177639D01*
X-10750Y178165D01*
Y194403D01*
X-9480Y195252D01*
X-9347Y195197D01*
X-8153D01*
X-7051Y195653D01*
X-6207Y196497D01*
X-5750Y197600D01*
Y198793D01*
X-4730Y199649D01*
X-4021Y199942D01*
X-3177Y200786D01*
X-2720Y201889D01*
Y203082D01*
X-3177Y204185D01*
X-4021Y205029D01*
X-5097Y205474D01*
Y227259D01*
X-1223Y231133D01*
X-50Y230646D01*
Y220350D01*
X8259D01*
Y216776D01*
X8240Y216727D01*
X8198Y216639D01*
X8186Y216617D01*
X8094Y216523D01*
X7752Y216416D01*
X6891Y216352D01*
X6680Y216393D01*
X6512Y216455D01*
X5479Y216882D01*
X4286D01*
X3183Y216425D01*
X2339Y215582D01*
X1882Y214479D01*
Y213286D01*
X2339Y212183D01*
X2629Y211893D01*
X2706Y211699D01*
X2858Y211544D01*
X2971Y211414D01*
X3065Y211293D01*
X3140Y211182D01*
X3198Y211082D01*
X3241Y210993D01*
X3259Y210945D01*
Y209650D01*
X-50D01*
Y170850D01*
X14650D01*
Y194097D01*
X15920Y194623D01*
X16266Y194278D01*
X17369Y193821D01*
X18562D01*
X19665Y194278D01*
X20508Y195121D01*
X20965Y196224D01*
Y196334D01*
X21196D01*
X22344Y196810D01*
X24177Y198643D01*
X25350Y198157D01*
Y170850D01*
X40050D01*
Y178411D01*
X40603Y178761D01*
X41320Y179037D01*
X42253Y178650D01*
X43447D01*
X44549Y179107D01*
X45393Y179951D01*
X45850Y181053D01*
Y181464D01*
X45932Y181655D01*
X45935Y181872D01*
X45947Y182044D01*
X45966Y182196D01*
X45991Y182328D01*
X46021Y182439D01*
X46054Y182532D01*
X46075Y182579D01*
X47048Y183552D01*
X47524Y184700D01*
Y297635D01*
X47398Y297938D01*
X47782Y298477D01*
X48333Y299000D01*
X49347D01*
X49480Y299055D01*
X50750Y298207D01*
D02*
G37*
G36*
X59009Y218211D02*
X59146Y218112D01*
X59297Y218025D01*
X59461Y217950D01*
X59639Y217887D01*
X59830Y217835D01*
X60035Y217796D01*
X60253Y217769D01*
X60485Y217753D01*
X60730Y217750D01*
X58750Y215770D01*
X58747Y216015D01*
X58704Y216465D01*
X58665Y216670D01*
X58614Y216861D01*
X58550Y217039D01*
X58475Y217203D01*
X58388Y217354D01*
X58289Y217491D01*
X58179Y217614D01*
X58886Y218321D01*
X59009Y218211D01*
D02*
G37*
G36*
X10391Y216809D02*
X10418Y216642D01*
X10463Y216474D01*
X10526Y216305D01*
X10607Y216134D01*
X10706Y215963D01*
X10823Y215791D01*
X10958Y215617D01*
X11111Y215442D01*
X11282Y215266D01*
X8482D01*
X8653Y215442D01*
X8941Y215791D01*
X9058Y215963D01*
X9157Y216134D01*
X9238Y216305D01*
X9301Y216474D01*
X9346Y216642D01*
X9373Y216809D01*
X9382Y216975D01*
X10382D01*
X10391Y216809D01*
D02*
G37*
G36*
X-16591Y216781D02*
X-16564Y216614D01*
X-16519Y216446D01*
X-16456Y216277D01*
X-16375Y216107D01*
X-16276Y215936D01*
X-16159Y215763D01*
X-16024Y215590D01*
X-15871Y215415D01*
X-15700Y215239D01*
X-18500D01*
X-18329Y215415D01*
X-18041Y215763D01*
X-17924Y215936D01*
X-17825Y216107D01*
X-17744Y216277D01*
X-17681Y216446D01*
X-17636Y216614D01*
X-17609Y216781D01*
X-17600Y216947D01*
X-16600D01*
X-16591Y216781D01*
D02*
G37*
G36*
X-41999Y216632D02*
X-41972Y216465D01*
X-41927Y216297D01*
X-41864Y216127D01*
X-41783Y215957D01*
X-41684Y215786D01*
X-41567Y215613D01*
X-41432Y215440D01*
X-41279Y215265D01*
X-41108Y215089D01*
X-43908D01*
X-43737Y215265D01*
X-43449Y215613D01*
X-43332Y215786D01*
X-43233Y215957D01*
X-43152Y216127D01*
X-43089Y216297D01*
X-43044Y216465D01*
X-43017Y216632D01*
X-43008Y216797D01*
X-42008D01*
X-41999Y216632D01*
D02*
G37*
G36*
X57723Y215316D02*
X57721Y215091D01*
X57733Y214879D01*
X57760Y214679D01*
X57801Y214491D01*
X57856Y214315D01*
X57926Y214151D01*
X58011Y214000D01*
X58109Y213861D01*
X58223Y213735D01*
X57451Y213092D01*
X57331Y213200D01*
X57197Y213299D01*
X57048Y213388D01*
X56884Y213468D01*
X56705Y213539D01*
X56512Y213601D01*
X56305Y213654D01*
X56082Y213697D01*
X55593Y213756D01*
X57740Y215553D01*
X57723Y215316D01*
D02*
G37*
G36*
X-46082Y213148D02*
X-46258Y212983D01*
X-46415Y212818D01*
X-46554Y212653D01*
X-46674Y212487D01*
X-46776Y212320D01*
X-46859Y212154D01*
X-46924Y211987D01*
X-46971Y211820D01*
X-46998Y211652D01*
X-47008Y211484D01*
X-48008Y211534D01*
X-48016Y211697D01*
X-48042Y211863D01*
X-48086Y212032D01*
X-48147Y212203D01*
X-48225Y212376D01*
X-48321Y212553D01*
X-48434Y212732D01*
X-48565Y212913D01*
X-48713Y213097D01*
X-48878Y213284D01*
X-46082Y213148D01*
D02*
G37*
G36*
X6111Y212278D02*
X5823Y211930D01*
X5706Y211757D01*
X5607Y211586D01*
X5526Y211416D01*
X5463Y211246D01*
X5418Y211078D01*
X5391Y210912D01*
X5382Y210746D01*
X4382D01*
X4373Y210912D01*
X4346Y211078D01*
X4301Y211246D01*
X4238Y211416D01*
X4157Y211586D01*
X4058Y211757D01*
X3941Y211930D01*
X3806Y212103D01*
X3653Y212278D01*
X3482Y212454D01*
X6282D01*
X6111Y212278D01*
D02*
G37*
G36*
X-20871Y212244D02*
X-21159Y211895D01*
X-21276Y211723D01*
X-21375Y211551D01*
X-21456Y211381D01*
X-21519Y211212D01*
X-21564Y211044D01*
X-21591Y210877D01*
X-21600Y210711D01*
X-22600D01*
X-22609Y210877D01*
X-22636Y211044D01*
X-22681Y211212D01*
X-22744Y211381D01*
X-22825Y211551D01*
X-22924Y211723D01*
X-23041Y211895D01*
X-23176Y212069D01*
X-23329Y212244D01*
X-23500Y212420D01*
X-20700D01*
X-20871Y212244D01*
D02*
G37*
G36*
X19047Y211531D02*
X19081Y211173D01*
X19111Y211010D01*
X19149Y210858D01*
X19196Y210718D01*
X19251Y210588D01*
X19314Y210469D01*
X19386Y210361D01*
X19467Y210263D01*
X17459Y210835D01*
X17570Y210873D01*
X17670Y210922D01*
X17757Y210983D01*
X17833Y211055D01*
X17897Y211139D01*
X17950Y211233D01*
X17991Y211340D01*
X18020Y211457D01*
X18037Y211586D01*
X18043Y211726D01*
X19043D01*
X19047Y211531D01*
D02*
G37*
G36*
X-58507Y211320D02*
X-58672Y211209D01*
X-58820Y211091D01*
X-58950Y210963D01*
X-59063Y210827D01*
X-59158Y210683D01*
X-59236Y210530D01*
X-59297Y210369D01*
X-59340Y210199D01*
X-59366Y210021D01*
X-59375Y209834D01*
X-60625Y210140D01*
X-60631Y210312D01*
X-60649Y210485D01*
X-60680Y210661D01*
X-60723Y210839D01*
X-60778Y211019D01*
X-60845Y211201D01*
X-60924Y211385D01*
X-61119Y211759D01*
X-61235Y211950D01*
X-58507Y211320D01*
D02*
G37*
G36*
X58605Y209429D02*
X58620Y209259D01*
X58645Y209109D01*
X58680Y208979D01*
X58725Y208869D01*
X58780Y208780D01*
X58845Y208710D01*
X58920Y208659D01*
X59005Y208629D01*
X59100Y208619D01*
X57100D01*
X57195Y208629D01*
X57280Y208659D01*
X57355Y208710D01*
X57420Y208780D01*
X57475Y208869D01*
X57520Y208979D01*
X57555Y209109D01*
X57580Y209259D01*
X57595Y209429D01*
X57600Y209620D01*
X58600D01*
X58605Y209429D01*
D02*
G37*
G36*
X5387D02*
X5402Y209259D01*
X5427Y209109D01*
X5462Y208979D01*
X5507Y208869D01*
X5562Y208780D01*
X5627Y208710D01*
X5702Y208659D01*
X5787Y208629D01*
X5882Y208619D01*
X3882D01*
X3977Y208629D01*
X4062Y208659D01*
X4137Y208710D01*
X4202Y208780D01*
X4257Y208869D01*
X4302Y208979D01*
X4337Y209109D01*
X4362Y209259D01*
X4377Y209429D01*
X4382Y209620D01*
X5382D01*
X5387Y209429D01*
D02*
G37*
G36*
X-21595D02*
X-21580Y209259D01*
X-21555Y209109D01*
X-21520Y208979D01*
X-21475Y208869D01*
X-21420Y208780D01*
X-21355Y208710D01*
X-21280Y208659D01*
X-21195Y208629D01*
X-21100Y208619D01*
X-23100D01*
X-23005Y208629D01*
X-22920Y208659D01*
X-22845Y208710D01*
X-22780Y208780D01*
X-22725Y208869D01*
X-22680Y208979D01*
X-22645Y209109D01*
X-22620Y209259D01*
X-22605Y209429D01*
X-22600Y209620D01*
X-21600D01*
X-21595Y209429D01*
D02*
G37*
G36*
X-47003D02*
X-46988Y209259D01*
X-46963Y209109D01*
X-46928Y208979D01*
X-46883Y208869D01*
X-46828Y208780D01*
X-46763Y208710D01*
X-46688Y208659D01*
X-46603Y208629D01*
X-46508Y208619D01*
X-48508D01*
X-48413Y208629D01*
X-48328Y208659D01*
X-48253Y208710D01*
X-48188Y208780D01*
X-48133Y208869D01*
X-48088Y208979D01*
X-48053Y209109D01*
X-48028Y209259D01*
X-48013Y209429D01*
X-48008Y209620D01*
X-47008D01*
X-47003Y209429D01*
D02*
G37*
G36*
X-71261Y210462D02*
X-71549Y210113D01*
X-71666Y209941D01*
X-71765Y209769D01*
X-71846Y209599D01*
X-71909Y209430D01*
X-71954Y209262D01*
X-71962Y209212D01*
X-71945Y209109D01*
X-71910Y208979D01*
X-71865Y208869D01*
X-71810Y208780D01*
X-71745Y208710D01*
X-71670Y208659D01*
X-71585Y208629D01*
X-71490Y208619D01*
X-73490D01*
X-73395Y208629D01*
X-73310Y208659D01*
X-73235Y208710D01*
X-73170Y208780D01*
X-73115Y208869D01*
X-73070Y208979D01*
X-73035Y209109D01*
X-73018Y209212D01*
X-73026Y209262D01*
X-73071Y209430D01*
X-73134Y209599D01*
X-73215Y209769D01*
X-73314Y209941D01*
X-73431Y210113D01*
X-73566Y210287D01*
X-73719Y210462D01*
X-73890Y210637D01*
X-71090D01*
X-71261Y210462D01*
D02*
G37*
G36*
X77181Y208619D02*
X77211Y207184D01*
X77199Y207272D01*
X77168Y207352D01*
X77117Y207422D01*
X77047Y207482D01*
X76957Y207533D01*
X76848Y207575D01*
X76719Y207608D01*
X76570Y207631D01*
X76402Y207645D01*
X76214Y207650D01*
Y208650D01*
X77181Y208619D01*
D02*
G37*
G36*
X102580D02*
X102611Y207150D01*
X102599Y207245D01*
X102566Y207330D01*
X102514Y207405D01*
X102441Y207470D01*
X102348Y207525D01*
X102235Y207570D01*
X102102Y207605D01*
X101948Y207630D01*
X101774Y207645D01*
X101580Y207650D01*
Y208650D01*
X102580Y208619D01*
D02*
G37*
G36*
X26411Y207055D02*
X26400Y207140D01*
X26369Y207215D01*
X26320Y207282D01*
X26251Y207340D01*
X26163Y207389D01*
X26056Y207429D01*
X25930Y207460D01*
X25784Y207482D01*
X25619Y207495D01*
X25436Y207500D01*
Y208500D01*
X25615Y208501D01*
X26229Y208543D01*
X26295Y208558D01*
X26343Y208576D01*
X26371Y208597D01*
X26381Y208619D01*
X26411Y207055D01*
D02*
G37*
G36*
X-8710Y201222D02*
X-8681Y201053D01*
X-8631Y200890D01*
X-8561Y200733D01*
X-8472Y200582D01*
X-8362Y200436D01*
X-8233Y200297D01*
X-8083Y200163D01*
X-7914Y200036D01*
X-7725Y199914D01*
X-10447Y199256D01*
X-10309Y199484D01*
X-9982Y200117D01*
X-9902Y200310D01*
X-9786Y200670D01*
X-9749Y200837D01*
X-9728Y200996D01*
X-9720Y201145D01*
X-8720Y201396D01*
X-8710Y201222D01*
D02*
G37*
G36*
X23911Y388050D02*
X25104D01*
X25350Y387886D01*
Y370850D01*
X40050D01*
X40781Y369883D01*
Y360117D01*
X40050Y359150D01*
X25350D01*
Y320350D01*
X36926D01*
Y313267D01*
X37402Y312119D01*
X38478Y311043D01*
X38503Y310918D01*
X38510Y310740D01*
X37961Y309650D01*
X25350D01*
Y270850D01*
X40050D01*
Y294878D01*
X41320Y295528D01*
X41776Y295198D01*
Y198356D01*
X41320Y198095D01*
X40050Y198833D01*
Y209650D01*
X27658D01*
X27132Y210920D01*
X27998Y211786D01*
X28474Y212934D01*
Y220350D01*
X40050D01*
Y259150D01*
X25350D01*
Y234198D01*
X25226Y233900D01*
Y213607D01*
X23279Y211659D01*
X23252Y211648D01*
X22741Y211137D01*
X21193Y211384D01*
X20968Y211828D01*
X20998Y211884D01*
X21498Y212384D01*
X21974Y213533D01*
Y299064D01*
X21498Y300212D01*
X22147Y301360D01*
X22156Y301364D01*
X23000Y302208D01*
X23457Y303310D01*
Y304504D01*
X23070Y305439D01*
X23046Y305580D01*
X22947Y305737D01*
X22785Y306039D01*
X22733Y306157D01*
X22687Y306281D01*
X22650Y306398D01*
X22623Y306509D01*
X22605Y306614D01*
X22594Y306714D01*
X22589Y306848D01*
X22539Y306957D01*
Y387243D01*
X23809Y388092D01*
X23911Y388050D01*
D02*
G37*
G36*
X45421Y183514D02*
X45311Y183391D01*
X45212Y183254D01*
X45125Y183103D01*
X45050Y182939D01*
X44987Y182761D01*
X44935Y182570D01*
X44896Y182365D01*
X44869Y182147D01*
X44853Y181915D01*
X44850Y181670D01*
X42870Y183650D01*
X43115Y183653D01*
X43565Y183696D01*
X43770Y183735D01*
X43961Y183786D01*
X44139Y183850D01*
X44303Y183925D01*
X44454Y184012D01*
X44591Y184111D01*
X44714Y184221D01*
X45421Y183514D01*
D02*
G37*
G36*
X-6263Y173762D02*
X-6478Y173405D01*
X-6566Y173228D01*
X-6640Y173050D01*
X-6701Y172873D01*
X-6748Y172697D01*
X-6781Y172521D01*
X-6802Y172345D01*
X-6808Y172170D01*
X-8058Y171969D01*
X-8067Y172154D01*
X-8092Y172333D01*
X-8134Y172505D01*
X-8194Y172670D01*
X-8270Y172828D01*
X-8363Y172980D01*
X-8472Y173125D01*
X-8599Y173263D01*
X-8743Y173395D01*
X-8903Y173520D01*
X-6135Y173941D01*
X-6263Y173762D01*
D02*
G37*
G36*
X119331Y167624D02*
X119214Y167504D01*
X118765Y166987D01*
X118658Y166849D01*
X118251Y166260D01*
X117826Y168877D01*
X117974Y168769D01*
X118120Y168687D01*
X118265Y168631D01*
X118409Y168600D01*
X118552Y168595D01*
X118694Y168616D01*
X118835Y168663D01*
X118974Y168735D01*
X119113Y168834D01*
X119250Y168958D01*
X119331Y167624D01*
D02*
G37*
G36*
X121725Y166483D02*
X121601Y166345D01*
X121503Y166207D01*
X121431Y166067D01*
X121384Y165926D01*
X121363Y165784D01*
X121368Y165641D01*
X121398Y165497D01*
X121455Y165352D01*
X121537Y165206D01*
X121645Y165058D01*
X119028Y165484D01*
X119180Y165582D01*
X119889Y166107D01*
X120021Y166218D01*
X120392Y166563D01*
X121725Y166483D01*
D02*
G37*
G36*
X75873Y166976D02*
X76005Y166871D01*
X76149Y166772D01*
X76307Y166677D01*
X76476Y166589D01*
X76658Y166506D01*
X77060Y166356D01*
X77280Y166289D01*
X77512Y166228D01*
X75151Y164956D01*
X75211Y165146D01*
X75253Y165329D01*
X75276Y165504D01*
X75280Y165671D01*
X75266Y165830D01*
X75234Y165981D01*
X75183Y166124D01*
X75114Y166259D01*
X75026Y166386D01*
X74920Y166505D01*
X75753Y167087D01*
X75873Y166976D01*
D02*
G37*
G36*
X89720Y166033D02*
X89753Y166015D01*
X89799Y166000D01*
X89859Y165986D01*
X89933Y165975D01*
X90119Y165958D01*
X90360Y165950D01*
X90500Y165949D01*
Y164949D01*
X90406Y164948D01*
X90246Y164936D01*
X90181Y164925D01*
X90125Y164911D01*
X90079Y164895D01*
X90042Y164875D01*
X90015Y164853D01*
X89998Y164827D01*
X89990Y164798D01*
X89701Y166052D01*
X89720Y166033D01*
D02*
G37*
G36*
X-86452Y165387D02*
X-86615Y165271D01*
X-86761Y165146D01*
X-86890Y165014D01*
X-87002Y164874D01*
X-87096Y164727D01*
X-87174Y164571D01*
X-87234Y164408D01*
X-87277Y164238D01*
X-87303Y164059D01*
X-87311Y163873D01*
X-88561Y164133D01*
X-88568Y164307D01*
X-88587Y164482D01*
X-88619Y164658D01*
X-88663Y164835D01*
X-88721Y165014D01*
X-88791Y165194D01*
X-88874Y165375D01*
X-88970Y165558D01*
X-89199Y165928D01*
X-86452Y165387D01*
D02*
G37*
G36*
X19785Y162262D02*
X19609Y162433D01*
X19261Y162721D01*
X19088Y162838D01*
X18917Y162937D01*
X18747Y163018D01*
X18578Y163081D01*
X18410Y163126D01*
X18243Y163153D01*
X18077Y163162D01*
Y164162D01*
X18243Y164171D01*
X18410Y164198D01*
X18578Y164243D01*
X18747Y164306D01*
X18917Y164387D01*
X19088Y164486D01*
X19261Y164603D01*
X19435Y164738D01*
X19609Y164891D01*
X19785Y165062D01*
Y162262D01*
D02*
G37*
G36*
X74009Y163721D02*
X74036Y163554D01*
X74081Y163386D01*
X74144Y163217D01*
X74225Y163046D01*
X74324Y162875D01*
X74441Y162703D01*
X74576Y162529D01*
X74729Y162354D01*
X74900Y162178D01*
X72100D01*
X72271Y162354D01*
X72559Y162703D01*
X72676Y162875D01*
X72775Y163046D01*
X72856Y163217D01*
X72919Y163386D01*
X72964Y163554D01*
X72991Y163721D01*
X73000Y163887D01*
X74000D01*
X74009Y163721D01*
D02*
G37*
G36*
X-82694Y162045D02*
X-82878Y161663D01*
X-82953Y161476D01*
X-83068Y161111D01*
X-83108Y160933D01*
X-83137Y160757D01*
X-83154Y160584D01*
X-83160Y160415D01*
X-84410Y160052D01*
X-84419Y160240D01*
X-84445Y160418D01*
X-84489Y160587D01*
X-84550Y160746D01*
X-84629Y160896D01*
X-84725Y161037D01*
X-84839Y161168D01*
X-84971Y161289D01*
X-85120Y161401D01*
X-85286Y161504D01*
X-82585Y162240D01*
X-82694Y162045D01*
D02*
G37*
G36*
X-36150Y170850D02*
X-35807Y169722D01*
Y160278D01*
X-36150Y159150D01*
X-47820D01*
X-47883Y159189D01*
X-47969Y159168D01*
X-48052Y159202D01*
X-48177Y159150D01*
X-48334D01*
X-48443Y159226D01*
X-48837Y159559D01*
X-49068Y159782D01*
X-49185Y159828D01*
X-50420Y161063D01*
Y170850D01*
X-36150D01*
D02*
G37*
G36*
X19281Y161356D02*
X19630Y161068D01*
X19802Y160951D01*
X19974Y160852D01*
X20144Y160771D01*
X20313Y160708D01*
X20481Y160663D01*
X20648Y160636D01*
X20814Y160627D01*
Y159627D01*
X20648Y159618D01*
X20481Y159591D01*
X20313Y159546D01*
X20144Y159483D01*
X19974Y159402D01*
X19802Y159303D01*
X19630Y159186D01*
X19456Y159051D01*
X19281Y158898D01*
X19105Y158727D01*
Y161527D01*
X19281Y161356D01*
D02*
G37*
G36*
X13620Y158119D02*
X12150D01*
X12245Y158130D01*
X12330Y158160D01*
X12405Y158209D01*
X12470Y158279D01*
X12525Y158370D01*
X12570Y158479D01*
X12605Y158610D01*
X12630Y158759D01*
X12645Y158930D01*
X12650Y159120D01*
X13650D01*
X13620Y158119D01*
D02*
G37*
G36*
X-72940Y159132D02*
X-72921Y158919D01*
X-72890Y158732D01*
X-72846Y158569D01*
X-72790Y158432D01*
X-72721Y158320D01*
X-72640Y158232D01*
X-72546Y158169D01*
X-72440Y158132D01*
X-72321Y158119D01*
X-74821D01*
X-74702Y158132D01*
X-74596Y158169D01*
X-74502Y158232D01*
X-74421Y158320D01*
X-74352Y158432D01*
X-74296Y158569D01*
X-74252Y158732D01*
X-74221Y158919D01*
X-74202Y159132D01*
X-74196Y159369D01*
X-72946D01*
X-72940Y159132D01*
D02*
G37*
G36*
X25337Y156867D02*
X25350Y156848D01*
Y156831D01*
X25298Y156705D01*
X25332Y156623D01*
X25311Y156536D01*
X25350Y156473D01*
Y145898D01*
X25226Y145600D01*
X25350Y145302D01*
Y120499D01*
X14650D01*
Y145302D01*
X14774Y145600D01*
Y156992D01*
X15978Y157584D01*
X17081Y157127D01*
X18274D01*
X19377Y157584D01*
X19667Y157874D01*
X19860Y157951D01*
X20016Y158102D01*
X20145Y158216D01*
X20266Y158310D01*
X20378Y158385D01*
X20478Y158443D01*
X20566Y158485D01*
X20615Y158503D01*
X23701D01*
X25337Y156867D01*
D02*
G37*
G36*
X26586Y158629D02*
X26953Y158317D01*
X27116Y158204D01*
X27264Y158119D01*
X27399Y158063D01*
X27519Y158035D01*
X27625D01*
X27717Y158063D01*
X27795Y158119D01*
X26381Y156705D01*
X26437Y156783D01*
X26465Y156875D01*
Y156981D01*
X26437Y157101D01*
X26381Y157236D01*
X26296Y157384D01*
X26182Y157547D01*
X26041Y157724D01*
X25673Y158119D01*
X26381Y158827D01*
X26586Y158629D01*
D02*
G37*
G36*
X-24163Y158756D02*
X-23704Y158367D01*
X-23500Y158226D01*
X-23315Y158119D01*
X-23147Y158049D01*
X-22996Y158013D01*
X-22864D01*
X-22749Y158049D01*
X-22652Y158119D01*
X-24420Y156352D01*
X-24349Y156449D01*
X-24313Y156564D01*
Y156696D01*
X-24349Y156847D01*
X-24420Y157015D01*
X-24526Y157200D01*
X-24667Y157403D01*
X-24844Y157625D01*
X-25303Y158119D01*
X-24420Y159003D01*
X-24163Y158756D01*
D02*
G37*
G36*
X-49563D02*
X-49104Y158367D01*
X-48900Y158226D01*
X-48715Y158119D01*
X-48547Y158049D01*
X-48396Y158013D01*
X-48264D01*
X-48149Y158049D01*
X-48052Y158119D01*
X-49819Y156352D01*
X-49749Y156449D01*
X-49713Y156564D01*
Y156696D01*
X-49749Y156847D01*
X-49819Y157015D01*
X-49926Y157200D01*
X-50067Y157403D01*
X-50244Y157625D01*
X-50703Y158119D01*
X-49819Y159003D01*
X-49563Y158756D01*
D02*
G37*
G36*
X-77878Y153120D02*
X-77855Y152942D01*
X-77816Y152768D01*
X-77762Y152596D01*
X-77692Y152427D01*
X-77607Y152261D01*
X-77506Y152099D01*
X-77390Y151939D01*
X-77258Y151783D01*
X-77111Y151629D01*
X-79911D01*
X-79764Y151783D01*
X-79632Y151939D01*
X-79516Y152099D01*
X-79415Y152261D01*
X-79330Y152427D01*
X-79260Y152596D01*
X-79206Y152768D01*
X-79167Y152942D01*
X-79144Y153120D01*
X-79136Y153301D01*
X-77886D01*
X-77878Y153120D01*
D02*
G37*
G36*
X-2421Y148355D02*
X-2570Y148203D01*
X-2702Y148048D01*
X-2819Y147890D01*
X-2921Y147728D01*
X-3007Y147563D01*
X-3077Y147395D01*
X-3131Y147224D01*
X-3171Y147049D01*
X-3194Y146871D01*
X-3202Y146690D01*
X-4452Y146702D01*
X-4459Y146883D01*
X-4482Y147060D01*
X-4521Y147235D01*
X-4575Y147407D01*
X-4644Y147577D01*
X-4729Y147743D01*
X-4829Y147907D01*
X-4944Y148067D01*
X-5075Y148225D01*
X-5221Y148380D01*
X-2421Y148355D01*
D02*
G37*
G36*
X115229Y150870D02*
X115350Y150530D01*
X115552Y150230D01*
X115834Y149970D01*
X116197Y149750D01*
X116640Y149570D01*
X117164Y149430D01*
X117768Y149330D01*
X118454Y149270D01*
X119220Y149250D01*
Y145250D01*
X118454Y145230D01*
X117768Y145170D01*
X117164Y145070D01*
X116640Y144930D01*
X116197Y144750D01*
X115834Y144530D01*
X115552Y144270D01*
X115350Y143970D01*
X115229Y143630D01*
X115189Y143250D01*
Y151250D01*
X115229Y150870D01*
D02*
G37*
G36*
X77211Y140750D02*
X77171Y141130D01*
X77050Y141470D01*
X76848Y141770D01*
X76566Y142030D01*
X76203Y142250D01*
X75760Y142430D01*
X75236Y142570D01*
X74632Y142670D01*
X73946Y142730D01*
X73180Y142750D01*
Y146750D01*
X73946Y146770D01*
X74632Y146830D01*
X75236Y146930D01*
X75760Y147070D01*
X76203Y147250D01*
X76566Y147470D01*
X76848Y147730D01*
X77050Y148030D01*
X77171Y148370D01*
X77211Y148750D01*
Y140750D01*
D02*
G37*
G36*
X115229Y139620D02*
X115350Y139280D01*
X115552Y138980D01*
X115834Y138720D01*
X116197Y138500D01*
X116640Y138320D01*
X117164Y138180D01*
X117768Y138080D01*
X118454Y138020D01*
X119220Y138000D01*
Y134000D01*
X118454Y133980D01*
X117768Y133920D01*
X117164Y133820D01*
X116640Y133680D01*
X116197Y133500D01*
X115834Y133280D01*
X115552Y133020D01*
X115350Y132720D01*
X115229Y132380D01*
X115189Y132000D01*
Y140000D01*
X115229Y139620D01*
D02*
G37*
G36*
X100562Y128857D02*
X100569Y128710D01*
X100590Y128553D01*
X100625Y128386D01*
X100675Y128210D01*
X100739Y128025D01*
X100908Y127625D01*
X101014Y127411D01*
X101269Y126955D01*
X98562Y127671D01*
X98752Y127788D01*
X98922Y127911D01*
X99072Y128041D01*
X99202Y128177D01*
X99312Y128320D01*
X99402Y128470D01*
X99472Y128625D01*
X99522Y128788D01*
X99552Y128957D01*
X99562Y129132D01*
X100562Y128857D01*
D02*
G37*
G36*
X77211Y126750D02*
X77171Y127130D01*
X77050Y127470D01*
X76848Y127770D01*
X76566Y128030D01*
X76203Y128250D01*
X75760Y128430D01*
X75236Y128570D01*
X74632Y128670D01*
X73946Y128730D01*
X73180Y128750D01*
Y132750D01*
X73946Y132770D01*
X74632Y132830D01*
X75236Y132930D01*
X75760Y133070D01*
X76203Y133250D01*
X76566Y133470D01*
X76848Y133730D01*
X77050Y134030D01*
X77171Y134370D01*
X77211Y134750D01*
Y126750D01*
D02*
G37*
G36*
X-9090Y171454D02*
Y123038D01*
X-10360Y122315D01*
X-10750Y122546D01*
Y159150D01*
X-22420D01*
X-22483Y159189D01*
X-22569Y159168D01*
X-22652Y159202D01*
X-22777Y159150D01*
X-22934D01*
X-23043Y159226D01*
X-23437Y159559D01*
X-23668Y159782D01*
X-23785Y159828D01*
X-25195Y161238D01*
Y170850D01*
X-10750D01*
Y171206D01*
X-10661Y171360D01*
X-9933Y171931D01*
X-9916Y171938D01*
X-9480Y171950D01*
X-9090Y171454D01*
D02*
G37*
G36*
X96533Y123323D02*
X96775Y123114D01*
X96889Y123029D01*
X96997Y122959D01*
X97100Y122902D01*
X97198Y122858D01*
X97290Y122828D01*
X97378Y122812D01*
X97460Y122809D01*
X95914Y121946D01*
X95955Y122015D01*
X95981Y122087D01*
X95994Y122161D01*
X95992Y122237D01*
X95978Y122316D01*
X95949Y122396D01*
X95906Y122479D01*
X95850Y122564D01*
X95780Y122651D01*
X95696Y122741D01*
X96404Y123448D01*
X96533Y123323D01*
D02*
G37*
G36*
X102837Y109256D02*
X103296Y108867D01*
X103500Y108726D01*
X103685Y108619D01*
X103853Y108549D01*
X104004Y108513D01*
X104136D01*
X104251Y108549D01*
X104348Y108619D01*
X102580Y106852D01*
X102651Y106949D01*
X102687Y107064D01*
Y107196D01*
X102651Y107347D01*
X102580Y107515D01*
X102474Y107700D01*
X102333Y107903D01*
X102156Y108125D01*
X101697Y108619D01*
X102580Y109503D01*
X102837Y109256D01*
D02*
G37*
G36*
X77437D02*
X77896Y108867D01*
X78100Y108726D01*
X78285Y108619D01*
X78453Y108549D01*
X78604Y108513D01*
X78736D01*
X78851Y108549D01*
X78948Y108619D01*
X77181Y106852D01*
X77251Y106949D01*
X77287Y107064D01*
Y107196D01*
X77251Y107347D01*
X77181Y107515D01*
X77074Y107700D01*
X76933Y107903D01*
X76756Y108125D01*
X76297Y108619D01*
X77181Y109503D01*
X77437Y109256D01*
D02*
G37*
G36*
X52037D02*
X52496Y108867D01*
X52700Y108726D01*
X52885Y108619D01*
X53053Y108549D01*
X53204Y108513D01*
X53336D01*
X53451Y108549D01*
X53548Y108619D01*
X51781Y106852D01*
X51851Y106949D01*
X51887Y107064D01*
Y107196D01*
X51851Y107347D01*
X51781Y107515D01*
X51674Y107700D01*
X51533Y107903D01*
X51356Y108125D01*
X50897Y108619D01*
X51781Y109503D01*
X52037Y109256D01*
D02*
G37*
G36*
X26637D02*
X27096Y108867D01*
X27300Y108726D01*
X27485Y108619D01*
X27653Y108549D01*
X27804Y108513D01*
X27936D01*
X28051Y108549D01*
X28148Y108619D01*
X26381Y106852D01*
X26451Y106949D01*
X26487Y107064D01*
Y107196D01*
X26451Y107347D01*
X26381Y107515D01*
X26274Y107700D01*
X26133Y107903D01*
X25956Y108125D01*
X25497Y108619D01*
X26381Y109503D01*
X26637Y109256D01*
D02*
G37*
G36*
X-24163D02*
X-23704Y108867D01*
X-23500Y108726D01*
X-23315Y108619D01*
X-23147Y108549D01*
X-22996Y108513D01*
X-22864D01*
X-22749Y108549D01*
X-22652Y108619D01*
X-24420Y106852D01*
X-24349Y106949D01*
X-24313Y107064D01*
Y107196D01*
X-24349Y107347D01*
X-24420Y107515D01*
X-24526Y107700D01*
X-24667Y107903D01*
X-24844Y108125D01*
X-25303Y108619D01*
X-24420Y109503D01*
X-24163Y109256D01*
D02*
G37*
G36*
X-74963D02*
X-74504Y108867D01*
X-74300Y108726D01*
X-74115Y108619D01*
X-73947Y108549D01*
X-73796Y108513D01*
X-73664D01*
X-73549Y108549D01*
X-73452Y108619D01*
X-75219Y106852D01*
X-75149Y106949D01*
X-75113Y107064D01*
Y107196D01*
X-75149Y107347D01*
X-75219Y107515D01*
X-75326Y107700D01*
X-75467Y107903D01*
X-75644Y108125D01*
X-76103Y108619D01*
X-75219Y109503D01*
X-74963Y109256D01*
D02*
G37*
G36*
X-49581Y109252D02*
X-49116Y108856D01*
X-48912Y108711D01*
X-48726Y108602D01*
X-48558Y108528D01*
X-48409Y108490D01*
X-48279Y108487D01*
X-48167Y108520D01*
X-48073Y108589D01*
X-49789Y106830D01*
X-49722Y106926D01*
X-49691Y107039D01*
X-49694Y107171D01*
X-49733Y107320D01*
X-49807Y107488D01*
X-49916Y107674D01*
X-50060Y107878D01*
X-50239Y108100D01*
X-50703Y108598D01*
X-49841Y109503D01*
X-49581Y109252D01*
D02*
G37*
G36*
X980Y108619D02*
X1011Y106775D01*
X996Y106894D01*
X956Y107000D01*
X891Y107094D01*
X801Y107175D01*
X686Y107244D01*
X545Y107300D01*
X379Y107344D01*
X188Y107375D01*
X-28Y107394D01*
X-269Y107400D01*
Y108650D01*
X980Y108619D01*
D02*
G37*
%LPC*%
G36*
X65450Y159150D02*
X59370D01*
Y141020D01*
X65450D01*
Y159150D01*
D02*
G37*
G36*
X56830D02*
X50750D01*
Y141020D01*
X56830D01*
Y159150D01*
D02*
G37*
%LPD*%
G36*
X-93244Y521860D02*
X-93224Y521673D01*
X-93191Y521493D01*
X-93170Y521411D01*
X-92500D01*
X-92642Y521396D01*
X-92770Y521350D01*
X-92882Y521273D01*
X-92980Y521166D01*
X-93045Y521058D01*
X-93016Y520994D01*
X-92931Y520842D01*
X-92834Y520697D01*
X-92724Y520559D01*
X-92600Y520428D01*
X-93220D01*
X-93243Y520171D01*
X-93250Y519880D01*
X-94750D01*
X-94757Y520171D01*
X-94780Y520428D01*
X-95400D01*
X-95276Y520559D01*
X-95166Y520697D01*
X-95069Y520842D01*
X-94984Y520994D01*
X-94955Y521058D01*
X-95020Y521166D01*
X-95118Y521273D01*
X-95230Y521350D01*
X-95358Y521396D01*
X-95500Y521411D01*
X-94830D01*
X-94809Y521493D01*
X-94776Y521673D01*
X-94756Y521860D01*
X-94750Y522054D01*
X-93250D01*
X-93244Y521860D01*
D02*
G37*
G36*
X129748Y471911D02*
X129654Y471979D01*
X129541Y472011D01*
X129410Y472008D01*
X129261Y471969D01*
X129093Y471896D01*
X128907Y471787D01*
X128703Y471642D01*
X128480Y471462D01*
X127980Y470997D01*
X127097Y471880D01*
X127347Y472140D01*
X127742Y472603D01*
X127887Y472807D01*
X127996Y472993D01*
X128069Y473161D01*
X128108Y473310D01*
X128111Y473441D01*
X128079Y473554D01*
X128011Y473648D01*
X129748Y471911D01*
D02*
G37*
G36*
X122875Y329748D02*
X122882Y329572D01*
X122903Y329396D01*
X122937Y329220D01*
X122986Y329044D01*
X123048Y328868D01*
X123124Y328693D01*
X123214Y328517D01*
X123318Y328342D01*
X123436Y328167D01*
X123567Y327992D01*
X120789Y328342D01*
X120948Y328472D01*
X121090Y328608D01*
X121216Y328750D01*
X121324Y328899D01*
X121416Y329053D01*
X121491Y329213D01*
X121550Y329379D01*
X121592Y329552D01*
X121617Y329730D01*
X121625Y329915D01*
X122875Y329748D01*
D02*
G37*
D12*
X-152400Y419800D02*
D03*
Y475200D02*
D03*
Y552300D02*
D03*
Y607700D02*
D03*
Y22300D02*
D03*
Y77700D02*
D03*
Y154800D02*
D03*
Y210200D02*
D03*
Y287300D02*
D03*
Y342700D02*
D03*
D13*
X108900Y539750D02*
D03*
X83500D02*
D03*
X58100D02*
D03*
X32700D02*
D03*
X7300D02*
D03*
X-18100D02*
D03*
X-43500D02*
D03*
X-68900D02*
D03*
X-94300D02*
D03*
X134300D02*
D03*
Y490250D02*
D03*
X108900D02*
D03*
X83500D02*
D03*
X58100D02*
D03*
X32700D02*
D03*
X7300D02*
D03*
X-18100D02*
D03*
X-43500D02*
D03*
X-68900D02*
D03*
X-94300D02*
D03*
X108900Y339750D02*
D03*
X83500D02*
D03*
X58100D02*
D03*
X32700D02*
D03*
X7300D02*
D03*
X-18100D02*
D03*
X-43500D02*
D03*
X-68900D02*
D03*
X-94300D02*
D03*
X134300D02*
D03*
Y290250D02*
D03*
X108900D02*
D03*
X83500D02*
D03*
X58100D02*
D03*
X32700D02*
D03*
X7300D02*
D03*
X-18100D02*
D03*
X-43500D02*
D03*
X-68900D02*
D03*
X-94300D02*
D03*
X108900Y239750D02*
D03*
X83500D02*
D03*
X58100D02*
D03*
X32700D02*
D03*
X7300D02*
D03*
X-18100D02*
D03*
X-43500D02*
D03*
X-68900D02*
D03*
X-94300D02*
D03*
X134300D02*
D03*
Y190250D02*
D03*
X108900D02*
D03*
X83500D02*
D03*
X58100D02*
D03*
X32700D02*
D03*
X7300D02*
D03*
X-18100D02*
D03*
X-43500D02*
D03*
X-68900D02*
D03*
X-94300D02*
D03*
X108900Y139750D02*
D03*
X83500D02*
D03*
X58100D02*
D03*
X32700D02*
D03*
X7300D02*
D03*
X-18100D02*
D03*
X-43500D02*
D03*
X-68900D02*
D03*
X-94300D02*
D03*
X134300D02*
D03*
Y90250D02*
D03*
X108900D02*
D03*
X83500D02*
D03*
X58100D02*
D03*
X32700D02*
D03*
X7300D02*
D03*
X-18100D02*
D03*
X-43500D02*
D03*
X-68900D02*
D03*
X-94300D02*
D03*
X108900Y439750D02*
D03*
X83500D02*
D03*
X58100D02*
D03*
X32700D02*
D03*
X7300D02*
D03*
X-18100D02*
D03*
X-43500D02*
D03*
X-68900D02*
D03*
X-94300D02*
D03*
X134300D02*
D03*
Y390250D02*
D03*
X108900D02*
D03*
X83500D02*
D03*
X58100D02*
D03*
X32700D02*
D03*
X7300D02*
D03*
X-18100D02*
D03*
X-43500D02*
D03*
X-68900D02*
D03*
X-94300D02*
D03*
D17*
X-58118Y492382D02*
Y513082D01*
X-43500Y527700D01*
X-28894Y416906D02*
X-18100Y427700D01*
X-28894Y340407D02*
Y416906D01*
X-30864Y338437D02*
X-28894Y340407D01*
X-30864Y338300D02*
Y338437D01*
X17257Y312979D02*
X17750Y313472D01*
X20457Y303907D02*
X20882Y304333D01*
X17750Y448000D02*
X23250Y453500D01*
X20882Y304333D02*
Y415882D01*
X17750Y313472D02*
Y448000D01*
X20882Y415882D02*
X32700Y427700D01*
X-33500Y462800D02*
X-18100Y478200D01*
X-33500Y389250D02*
Y462800D01*
X-54167Y341257D02*
Y417033D01*
X-43500Y427700D01*
X-56382Y339042D02*
X-54167Y341257D01*
X-85000Y481990D02*
Y511600D01*
X-68900Y527700D01*
X-85000Y481990D02*
X-84950Y481940D01*
X122250Y326591D02*
Y466150D01*
X134300Y478200D01*
X-29102Y123703D02*
Y242054D01*
Y123703D02*
X-25123Y119725D01*
X-33328Y246280D02*
X-29102Y242054D01*
X-84162Y226299D02*
X-84139Y226277D01*
Y169149D02*
Y226277D01*
X-80169Y171908D02*
X-73571Y165310D01*
X-80169Y171908D02*
Y276966D01*
X-84139Y169149D02*
X-78511Y163520D01*
X-73571Y144421D02*
Y165310D01*
Y144421D02*
X-68900Y139750D01*
X-78511Y150201D02*
Y163520D01*
X-83785Y159465D02*
X-82136Y157816D01*
X-87936Y160434D02*
Y166673D01*
X-84311Y163250D02*
X-83785Y162724D01*
X-87936Y166673D02*
X-87550Y167059D01*
X-83785Y159465D02*
Y162724D01*
X-87936Y160434D02*
X-85500Y157998D01*
X-82136Y125886D02*
X-67948Y111698D01*
X-85500Y118900D02*
X-68900Y102300D01*
X-85500Y118900D02*
Y157998D01*
X-82136Y125886D02*
Y157816D01*
X-7433Y121225D02*
Y174842D01*
X-7734Y175143D02*
X-7433Y174842D01*
X-3827Y122436D02*
Y149777D01*
X-3808Y149796D01*
X-7433Y121225D02*
X-2585Y116377D01*
X-3827Y122436D02*
X-233Y118843D01*
X-60000Y122781D02*
Y212576D01*
X-34150Y123186D02*
Y238854D01*
X-60000Y212576D02*
X-59550Y213026D01*
X-60000Y122781D02*
X-48694Y111476D01*
X-55925Y123913D02*
X-46012Y114000D01*
X-56250Y225500D02*
X-55925Y225175D01*
Y123913D02*
Y225175D01*
X-52077Y260173D02*
X-48305Y263946D01*
Y264164D01*
X-52077Y160377D02*
X-43500Y151800D01*
X-52077Y160377D02*
Y260173D01*
X-43500Y139750D02*
Y151800D01*
X-28113Y276349D02*
Y276915D01*
Y276349D02*
X-26851Y275088D01*
X-34150Y123186D02*
X-27965Y117001D01*
X-26851Y160551D02*
Y275088D01*
Y160551D02*
X-18100Y151800D01*
X-67948Y111698D02*
X-52919D01*
X-2750Y302500D02*
Y309000D01*
X-46012Y114000D02*
X-14232D01*
X-27965Y117001D02*
X-12453D01*
X-48694Y111476D02*
X-27276D01*
X-49225Y108025D02*
X-43500Y102300D01*
Y90250D02*
Y102300D01*
X-49246Y108025D02*
X-49225D01*
X-52919Y111698D02*
X-49246Y108025D01*
X-233Y118843D02*
X92357D01*
X108900Y102300D01*
X69423Y116377D02*
X83500Y102300D01*
X-2585Y116377D02*
X69423D01*
X-4822Y113834D02*
X46566D01*
X-10713Y119725D02*
X-4822Y113834D01*
X-25123Y119725D02*
X-10713D01*
X46566Y113834D02*
X58100Y102300D01*
X-12453Y117001D02*
X-6660Y111208D01*
X23793D02*
X26975Y108025D01*
X-6660Y111208D02*
X23793D01*
X-8257Y108025D02*
X1575D01*
X-14232Y114000D02*
X-8257Y108025D01*
X1575D02*
X7300Y102300D01*
Y90250D02*
Y102300D01*
X-27276Y111476D02*
X-18100Y102300D01*
X-68900Y90250D02*
Y102300D01*
X-78250Y340648D02*
X-77724Y341175D01*
Y342612D01*
X-77580Y342756D01*
Y419020D01*
X-5543Y323515D02*
Y358528D01*
X-1761Y362310D01*
X-9375Y315625D02*
X-2750Y309000D01*
X-9375Y511025D02*
X7300Y527700D01*
X-9375Y315625D02*
Y511025D01*
X42438Y316894D02*
X42473Y316859D01*
X42438Y316894D02*
Y426620D01*
X47687Y431870D01*
X46125Y316875D02*
X48750Y314250D01*
X46125Y316875D02*
Y415725D01*
X58100Y427700D01*
X48750Y302000D02*
Y314250D01*
X71884Y310968D02*
Y416084D01*
X74150Y293500D02*
Y308702D01*
X71884Y310968D02*
X74150Y308702D01*
X99425Y288514D02*
X99550Y288389D01*
X99425Y288514D02*
Y417925D01*
X103175Y421675D01*
X67750Y356135D02*
Y457761D01*
X75788Y465799D02*
Y470488D01*
X67750Y457761D02*
X75788Y465799D01*
Y470488D02*
X83500Y478200D01*
X47687Y431870D02*
Y467787D01*
X94970Y352635D02*
Y442689D01*
X98114Y445834D02*
Y467414D01*
X94970Y442689D02*
X98114Y445834D01*
Y467414D02*
X108900Y478200D01*
X-1761Y362310D02*
Y418639D01*
X7300Y427700D01*
X-56382Y338298D02*
Y339042D01*
X-58204Y463496D02*
X-43500Y478200D01*
X-58204Y404907D02*
Y463496D01*
X-5750Y364750D02*
X-5500Y365000D01*
Y465400D01*
X7300Y478200D01*
X71884Y416084D02*
X83500Y427700D01*
X-77580Y419020D02*
X-68900Y427700D01*
X108900Y364600D02*
Y390250D01*
X-84950Y403487D02*
Y468850D01*
X5250Y392300D02*
X7300Y390250D01*
X5250Y392300D02*
Y410750D01*
X-20175Y392325D02*
X-18100Y390250D01*
X-20175Y392325D02*
Y410801D01*
X-45250Y392000D02*
X-43500Y390250D01*
X-45250Y392000D02*
Y411750D01*
X-70750Y392100D02*
X-68900Y390250D01*
X-70750Y392100D02*
Y413750D01*
X-32449Y513351D02*
X-18100Y527700D01*
X-32449Y478076D02*
Y513351D01*
X18000Y455500D02*
Y513000D01*
X32700Y527700D01*
X-81442Y391668D02*
X-81325Y391784D01*
Y465775D01*
X-94300Y478200D02*
X-84950Y468850D01*
X-81325Y465775D02*
X-68900Y478200D01*
X-94300D02*
Y490250D01*
X-68900Y427700D02*
Y439750D01*
Y478200D02*
Y490250D01*
Y527700D02*
Y539750D01*
X-43500Y427700D02*
Y439750D01*
Y478200D02*
Y490250D01*
Y527700D02*
Y539750D01*
X-18100Y427700D02*
Y439750D01*
Y478200D02*
Y490250D01*
Y527700D02*
Y539750D01*
X24507Y391050D02*
X31900D01*
X32700Y390250D01*
X7300Y427700D02*
Y439750D01*
X23250Y453500D02*
Y468750D01*
X32700Y478200D01*
X7300D02*
Y490250D01*
Y527700D02*
Y539750D01*
X32700Y427700D02*
Y439750D01*
Y478200D02*
Y490250D01*
Y527700D02*
Y539750D01*
X43097Y441885D02*
Y512697D01*
X58100Y527700D01*
X47687Y467787D02*
X58100Y478200D01*
Y527700D02*
Y539750D01*
Y478200D02*
Y490250D01*
X83500Y478200D02*
Y490250D01*
X92850Y453726D02*
Y511650D01*
X108900Y527700D01*
X71056Y466813D02*
Y515256D01*
X83500Y527700D01*
X58100Y427700D02*
Y439750D01*
X49750Y378000D02*
X52375D01*
X58100Y383725D02*
Y390250D01*
X52375Y378000D02*
X58100Y383725D01*
X108850Y364600D02*
X108900D01*
X83500Y368750D02*
Y390250D01*
Y427700D02*
Y439750D01*
X103175Y421675D02*
Y434025D01*
X108900Y439750D01*
Y478200D02*
Y490250D01*
X134300Y478200D02*
Y490250D01*
X108900Y527700D02*
Y539750D01*
X83500Y527700D02*
Y539750D01*
X-18100Y139750D02*
Y151800D01*
X26975Y95975D02*
X32700Y90250D01*
X26975Y95975D02*
Y108025D01*
X-18100Y90250D02*
Y102300D01*
X58100Y90250D02*
Y102300D01*
X83500Y90250D02*
Y102300D01*
X108900Y90250D02*
Y102300D01*
D18*
X-94300Y539750D02*
X-94000Y539450D01*
Y519000D02*
Y539450D01*
X51250Y-5500D02*
Y-3834D01*
Y-4667D01*
X46252D01*
X47085Y-5500D01*
X46418Y-20667D02*
X47252D01*
Y-21500D01*
Y-19834D01*
Y-20667D01*
X49751D01*
X50584Y-19834D01*
Y-16502D02*
Y-14835D01*
X49751Y-14002D01*
X48085D01*
X47252Y-14835D01*
Y-16502D01*
X48085Y-17335D01*
X49751D01*
X50584Y-16502D01*
X52250Y-12336D02*
X47252D01*
Y-9837D01*
X48085Y-9004D01*
X49751D01*
X50584Y-9837D01*
Y-12336D01*
D19*
X-9220Y198667D02*
Y228967D01*
X-6720Y227932D02*
X-750Y233902D01*
X-6720Y204297D02*
Y227932D01*
X-9220Y228967D02*
X-3250Y234937D01*
X-5720Y202485D02*
Y203297D01*
X-6720Y204297D02*
X-5720Y203297D01*
X-35200Y310246D02*
X-31919Y306965D01*
Y262058D02*
Y306965D01*
X-34419Y267356D02*
Y305930D01*
X-37650Y312696D02*
X-35200Y310246D01*
X-37650Y312696D02*
Y333900D01*
X-35799Y265976D02*
X-34419Y267356D01*
X-35200Y310246D02*
X-35200D01*
X-43500Y339750D02*
X-37650Y333900D01*
Y307746D02*
X-36236D01*
X-34419Y305930D01*
X-43500Y301896D02*
X-37650Y307746D01*
X-43500Y290250D02*
Y301896D01*
X-35799Y265270D02*
Y265976D01*
X43400Y196162D02*
Y296600D01*
X43151Y308666D02*
Y308666D01*
X39964Y308317D02*
X41383Y306898D01*
X43151Y308666D02*
X43883Y307934D01*
X42850Y181650D02*
X45900Y184700D01*
X43883Y299652D02*
X45900Y297635D01*
Y184700D02*
Y297635D01*
X38550Y313267D02*
X43151Y308666D01*
X43883Y299652D02*
Y307934D01*
X41383Y298617D02*
Y306898D01*
Y298617D02*
X43400Y296600D01*
X42400Y195162D02*
X43400Y196162D01*
X42400Y194350D02*
Y195162D01*
X-9220Y198667D02*
X-8750Y198197D01*
X5545Y268300D02*
X6349D01*
X4264Y267019D02*
X5545Y268300D01*
X1233Y267019D02*
X4264D01*
X-3250Y262535D02*
X1233Y267019D01*
X-3250Y234937D02*
Y262535D01*
X2259Y264509D02*
X10095D01*
X-750Y261500D02*
X2259Y264509D01*
X-750Y233902D02*
Y261500D01*
X-68451Y215014D02*
Y239301D01*
X-68900Y239750D02*
X-68451Y239301D01*
X-72490Y205890D02*
Y212066D01*
Y205890D02*
X-68900Y202300D01*
X-47508Y194258D02*
Y214546D01*
X-47411Y214643D01*
X-42508Y213661D02*
Y238758D01*
X-49350Y233900D02*
X-43500Y239750D01*
X-42508Y238758D01*
X-17100Y213811D02*
Y238750D01*
X-22100Y194250D02*
Y213848D01*
Y194250D02*
X-18100Y190250D01*
Y239750D02*
X-17100Y238750D01*
X-32103Y261874D02*
X-31919Y262058D01*
X15739Y163662D02*
X21214D01*
X24373Y160127D02*
X32700Y151800D01*
X13150Y161072D02*
X15739Y163662D01*
X17677Y160127D02*
X24373D01*
X26850Y145600D02*
X32700Y139750D01*
X7300D02*
X13150Y145600D01*
Y161072D01*
X32700Y139750D02*
Y151800D01*
X-12250Y308150D02*
X-10266D01*
X-9231Y310650D02*
X-7135Y308554D01*
X-12250Y313669D02*
X-9231Y310650D01*
X-7135Y265176D02*
Y308554D01*
X-9231Y310650D02*
X-9231D01*
X-10266Y308150D02*
X-9635Y307519D01*
Y264141D02*
Y307519D01*
X-12250Y313669D02*
Y333900D01*
X-18100Y290250D02*
Y302300D01*
X-12250Y308150D01*
X-9635Y264141D02*
X-7750Y262256D01*
X-63250Y303586D02*
Y307933D01*
X-61636Y308133D02*
X-58112Y304609D01*
X-63050Y308133D02*
X-61636D01*
X-55612Y291166D02*
Y305644D01*
X-63250Y307933D02*
X-63050Y308133D01*
Y313082D02*
Y333900D01*
X-58112Y294345D02*
Y304609D01*
X-63050Y313082D02*
X-55612Y305644D01*
X-59468Y292260D02*
Y292990D01*
X-58112Y294345D01*
X-56550Y288045D02*
Y290228D01*
X-55612Y291166D01*
X-57112Y287484D02*
X-56550Y288045D01*
X-68900Y339750D02*
X-63050Y333900D01*
X-63292Y303465D02*
X-63250Y303586D01*
X-63250Y295900D02*
Y303586D01*
X-67246Y291904D02*
X-63250Y295900D01*
X-67246Y291904D02*
X-63292Y303465D01*
X-68900Y290250D02*
X-67246Y291904D01*
X-7750Y243163D02*
Y262256D01*
X-7135Y265176D02*
X-5250Y263292D01*
Y239566D02*
Y263292D01*
X-8750Y242163D02*
X-7750Y243163D01*
X-8242Y236574D02*
X-5250Y239566D01*
X-8242Y236377D02*
Y236574D01*
X-8750Y241351D02*
Y242163D01*
X-18100Y339750D02*
X-12250Y333900D01*
X-47508Y194258D02*
X-43500Y190250D01*
X24416Y210500D02*
X26850Y212934D01*
X24400Y210500D02*
X24416D01*
X26850Y212934D02*
Y233900D01*
X58100Y218400D02*
X60750Y215750D01*
X58100Y218400D02*
Y239750D01*
X52250Y233900D02*
X58100Y239750D01*
X55750Y215500D02*
X58100Y213150D01*
X55750Y215500D02*
Y215750D01*
X58100Y190250D02*
Y213150D01*
X25436Y208000D02*
X26850D01*
X32700Y202150D01*
X24850Y207414D02*
X25436Y208000D01*
X24850Y201612D02*
Y207414D01*
X32700Y190250D02*
Y202150D01*
X21196Y197958D02*
X24850Y201612D01*
X19914Y197958D02*
X21196D01*
X18777Y196821D02*
X19914Y197958D01*
X17965Y196821D02*
X18777D01*
X26850Y233900D02*
X32700Y239750D01*
X22350Y208449D02*
X24400Y210500D01*
X22350Y202648D02*
Y208449D01*
X20160Y200458D02*
X22350Y202648D01*
X17472Y201667D02*
X18682Y200458D01*
X20160D01*
X16660Y201667D02*
X17472D01*
X17083Y213801D02*
X17850Y214568D01*
Y298029D01*
X15644Y213801D02*
X17083D01*
X14564Y301315D02*
X17850Y298029D01*
X17996Y208908D02*
X18543Y209455D01*
Y211726D02*
X20350Y213533D01*
X15984Y303430D02*
X20350Y299064D01*
Y213533D02*
Y299064D01*
X18543Y209455D02*
Y211726D01*
X7300Y239750D02*
X9882Y237168D01*
Y213838D02*
Y237168D01*
X4882Y192668D02*
X7300Y190250D01*
X4882Y192668D02*
Y213882D01*
X13150Y301315D02*
X14564D01*
X7300Y295464D02*
X13150Y301315D01*
X7300Y290250D02*
Y295464D01*
X15070Y213227D02*
X15644Y213801D01*
X13150Y311686D02*
X15984Y308852D01*
X7300Y339750D02*
X13150Y333900D01*
Y311686D02*
Y333900D01*
X15984Y303430D02*
Y308852D01*
X73500Y160750D02*
Y164508D01*
X69078Y169293D02*
Y307983D01*
X63950Y313111D02*
X69078Y307983D01*
X67771Y167985D02*
X69078Y169293D01*
X63950Y313111D02*
Y333900D01*
X67771Y166218D02*
Y167985D01*
X67386Y165833D02*
X67771Y166218D01*
X58100Y339750D02*
X63950Y333900D01*
X66578Y170329D02*
Y306947D01*
X65445Y308081D02*
X66578Y306947D01*
X63973Y169424D02*
X65674D01*
X63950Y308081D02*
X65445D01*
X58100Y290250D02*
Y302231D01*
X65674Y169424D02*
X66578Y170329D01*
X63399Y168850D02*
X63973Y169424D01*
X58100Y302231D02*
X63950Y308081D01*
X77650Y233900D02*
X83500Y239750D01*
X77650Y213473D02*
Y233900D01*
X72801Y208624D02*
X77650Y213473D01*
X72801Y208272D02*
Y208624D01*
X72774Y208245D02*
X72801Y208272D01*
X72774Y185639D02*
Y208245D01*
X72774Y165234D02*
X73500Y164508D01*
X72774Y165234D02*
Y185639D01*
X72774Y185639D01*
X76214Y208150D02*
X77650D01*
X83500Y190250D02*
Y202300D01*
X77650Y208150D02*
X83500Y202300D01*
X75274Y184603D02*
Y207209D01*
X76214Y208150D01*
X75274Y184603D02*
X75274Y184603D01*
X77035Y164286D02*
Y165097D01*
X75274Y166859D02*
X77035Y165097D01*
X75274Y166859D02*
Y184603D01*
X119750Y168750D02*
Y304466D01*
X116164Y308051D02*
X119750Y304466D01*
X117030Y166859D02*
X117859D01*
X114750Y308051D02*
X116164D01*
X108900Y302201D02*
X114750Y308051D01*
X116561Y167328D02*
X117030Y166859D01*
X117859D02*
X119750Y168750D01*
X108900Y290250D02*
Y302201D01*
X122250Y167715D02*
Y305501D01*
X121518Y306233D02*
X122250Y305501D01*
X119627Y165091D02*
X122250Y167715D01*
X121518Y306233D02*
Y306233D01*
X114750Y313001D02*
X121518Y306233D01*
X119627Y165091D02*
X120096Y164621D01*
Y163793D02*
Y164621D01*
X114750Y313001D02*
Y333900D01*
X108900Y339750D02*
X114750Y333900D01*
X88449Y165449D02*
X90500D01*
X88000Y165000D02*
X88449Y165449D01*
X90500D02*
X92312Y167261D01*
X94812Y166225D02*
Y308230D01*
X92074Y163487D02*
X94812Y166225D01*
X92074Y161824D02*
Y163487D01*
X92312Y167261D02*
Y307194D01*
X91500Y161250D02*
X92074Y161824D01*
X91432Y308074D02*
X92312Y307194D01*
X83500Y302224D02*
X89350Y308074D01*
X91432D01*
X83500Y290250D02*
Y302224D01*
X89350Y313692D02*
X94812Y308230D01*
X89350Y313692D02*
Y333900D01*
X83500Y339750D02*
X89350Y333900D01*
X96050Y123094D02*
Y127550D01*
X97562Y129062D02*
Y207769D01*
X99820Y125932D02*
X100062Y126173D01*
X97562Y120812D02*
Y121583D01*
X100062Y206733D02*
X101478Y208150D01*
X97562Y207769D02*
X100443Y210650D01*
X100062Y126173D02*
Y206733D01*
X99550Y125932D02*
X100303Y125179D01*
X96050Y123094D02*
X97562Y121583D01*
X96050Y127550D02*
X97562Y129062D01*
X99550Y125932D02*
X99820D01*
X38550Y308150D02*
X38969D01*
X39136Y308317D02*
X39964D01*
X38969Y308150D02*
X39136Y308317D01*
X32700Y339750D02*
X38550Y333900D01*
Y313267D02*
Y333900D01*
X32700Y302300D02*
X38550Y308150D01*
X32700Y290250D02*
Y302300D01*
X100443Y210650D02*
X100443D01*
X103050Y213257D01*
X101478Y208150D02*
X103050D01*
Y213257D02*
Y233900D01*
Y208150D02*
X108900Y202300D01*
X103050Y233900D02*
X108900Y239750D01*
Y190250D02*
Y202300D01*
D20*
X72000Y130750D02*
X79150D01*
X83500Y135100D02*
Y139750D01*
X79150Y130750D02*
X83500Y135100D01*
X79150Y144750D02*
X83500Y140400D01*
X72250Y144750D02*
X79150D01*
X83500Y139750D02*
Y140400D01*
X108900Y142900D02*
X113250Y147250D01*
X119500D01*
X108900Y139750D02*
Y142900D01*
Y139750D02*
X112650Y136000D01*
X119250D01*
D21*
X10500Y586900D02*
D03*
X-20000Y43100D02*
D03*
D22*
X-70650Y511850D02*
D03*
X-94000Y519000D02*
D03*
X-32104Y521813D02*
D03*
X-58000Y239000D02*
D03*
X-59000Y264000D02*
D03*
X-44000Y163000D02*
D03*
X19000Y137000D02*
D03*
X19390Y155430D02*
D03*
X46000Y131000D02*
D03*
X28000Y264000D02*
D03*
X-84412Y308650D02*
D03*
X-84350Y321350D02*
D03*
X24450Y60091D02*
D03*
X-950Y59708D02*
D03*
X-26350Y59885D02*
D03*
X-51750Y59966D02*
D03*
X-77150Y60150D02*
D03*
X42050Y435513D02*
D03*
X-7425Y537085D02*
D03*
X-20154Y512108D02*
D03*
X-84277Y524596D02*
D03*
X-84397Y562662D02*
D03*
X30952Y562801D02*
D03*
X44570Y549813D02*
D03*
X6781Y361150D02*
D03*
X-32855Y347006D02*
D03*
X-34000Y334000D02*
D03*
X-19000Y361150D02*
D03*
X-32875Y384289D02*
D03*
X-33500Y389250D02*
D03*
X-49538Y414323D02*
D03*
X30000Y461150D02*
D03*
X5000D02*
D03*
X-21000D02*
D03*
X-46000D02*
D03*
X-58576Y486556D02*
D03*
X-72000Y461150D02*
D03*
X-58000Y537000D02*
D03*
X19000D02*
D03*
X-172000Y36100D02*
D03*
X-159000D02*
D03*
X-131000D02*
D03*
X-144000D02*
D03*
Y9100D02*
D03*
X-131000D02*
D03*
X-159000D02*
D03*
X-172000D02*
D03*
Y91500D02*
D03*
X-159000D02*
D03*
X-131000D02*
D03*
X-144000D02*
D03*
Y64500D02*
D03*
X-131000D02*
D03*
X-159000D02*
D03*
X-172000D02*
D03*
Y168600D02*
D03*
X-159000D02*
D03*
X-131000D02*
D03*
X-144000D02*
D03*
Y141600D02*
D03*
X-131000D02*
D03*
X-159000D02*
D03*
X-172000D02*
D03*
Y224000D02*
D03*
X-159000D02*
D03*
X-131000D02*
D03*
X-144000D02*
D03*
Y197000D02*
D03*
X-131000D02*
D03*
X-159000D02*
D03*
X-172000D02*
D03*
Y301100D02*
D03*
X-159000D02*
D03*
X-131000D02*
D03*
X-144000D02*
D03*
Y274100D02*
D03*
X-131000D02*
D03*
X-159000D02*
D03*
X-172000D02*
D03*
Y356500D02*
D03*
X-159000D02*
D03*
X-131000D02*
D03*
X-144000D02*
D03*
Y329500D02*
D03*
X-131000D02*
D03*
X-159000D02*
D03*
X-172000D02*
D03*
Y621500D02*
D03*
X-159000D02*
D03*
X-131000D02*
D03*
X-144000D02*
D03*
Y594500D02*
D03*
X-131000D02*
D03*
X-159000D02*
D03*
X-172000D02*
D03*
Y566100D02*
D03*
X-159000D02*
D03*
X-131000D02*
D03*
X-144000D02*
D03*
Y539100D02*
D03*
X-131000D02*
D03*
X-159000D02*
D03*
X-172000D02*
D03*
Y433600D02*
D03*
X-159000D02*
D03*
X-131000D02*
D03*
X-144000D02*
D03*
Y406600D02*
D03*
X-131000D02*
D03*
X-159000D02*
D03*
X-172000D02*
D03*
Y462000D02*
D03*
X-159000D02*
D03*
X-131000D02*
D03*
X-144000D02*
D03*
Y489000D02*
D03*
X-131000D02*
D03*
X-159000D02*
D03*
X-172000D02*
D03*
X-84950Y481940D02*
D03*
X122000Y326750D02*
D03*
X30649Y168850D02*
D03*
X5717Y168731D02*
D03*
X-20000Y168850D02*
D03*
X-33328Y246280D02*
D03*
X-34150Y238854D02*
D03*
X-45000Y511750D02*
D03*
X-44500Y562750D02*
D03*
X-57000Y550000D02*
D03*
X-34000Y537250D02*
D03*
X-31000Y549750D02*
D03*
X6250Y562500D02*
D03*
X-6000Y550000D02*
D03*
X-19000Y562500D02*
D03*
X72000Y130750D02*
D03*
X72250Y144750D02*
D03*
X119500Y147250D02*
D03*
X119250Y136000D02*
D03*
X-84162Y226299D02*
D03*
X-80169Y276966D02*
D03*
X-84311Y163250D02*
D03*
X-87550Y167059D02*
D03*
X-7734Y175143D02*
D03*
X-3808Y149796D02*
D03*
X-78511Y150201D02*
D03*
X-8750Y198197D02*
D03*
X6349Y268300D02*
D03*
X10095Y264509D02*
D03*
X-5720Y202485D02*
D03*
X-68451Y215014D02*
D03*
X-72490Y212066D02*
D03*
X-47411Y214643D02*
D03*
X-42508Y213661D02*
D03*
X-59550Y213026D02*
D03*
X-22100Y213848D02*
D03*
X-17100Y213811D02*
D03*
X-48305Y264164D02*
D03*
X-56250Y225500D02*
D03*
X-28113Y276915D02*
D03*
X-32103Y261874D02*
D03*
X17677Y160127D02*
D03*
X21214Y163662D02*
D03*
X-59468Y292260D02*
D03*
X-57112Y287484D02*
D03*
X-35799Y265270D02*
D03*
X-2750Y302500D02*
D03*
X-8242Y236377D02*
D03*
X-8750Y241351D02*
D03*
X55750Y215750D02*
D03*
X60750D02*
D03*
X42400Y194350D02*
D03*
X17965Y196821D02*
D03*
X16660Y201667D02*
D03*
X17996Y208908D02*
D03*
X15070Y213227D02*
D03*
X20457Y303907D02*
D03*
X9882Y213838D02*
D03*
X4882Y213882D02*
D03*
X73500Y160750D02*
D03*
X67386Y165833D02*
D03*
X63399Y168850D02*
D03*
X77035Y164286D02*
D03*
X116561Y167328D02*
D03*
X120096Y163793D02*
D03*
X88000Y165000D02*
D03*
X91500Y161250D02*
D03*
X99550Y125932D02*
D03*
X97562Y120812D02*
D03*
X17257Y312979D02*
D03*
X-78250Y340648D02*
D03*
X-5543Y323515D02*
D03*
X42473Y316859D02*
D03*
X74150Y293500D02*
D03*
X99550Y288389D02*
D03*
X-56382Y338298D02*
D03*
X-5750Y364750D02*
D03*
X-58204Y404907D02*
D03*
X94970Y352635D02*
D03*
X67750Y356135D02*
D03*
X92850Y453726D02*
D03*
X-30864Y338300D02*
D03*
X-84950Y403487D02*
D03*
X5250Y410750D02*
D03*
X-20175Y410801D02*
D03*
X-45250Y411750D02*
D03*
X-70750Y413750D02*
D03*
X-32449Y478076D02*
D03*
X18000Y455500D02*
D03*
X-81442Y391668D02*
D03*
X-58118Y492382D02*
D03*
X24507Y391050D02*
D03*
X43097Y441885D02*
D03*
X71056Y466813D02*
D03*
X48750Y302000D02*
D03*
X49750Y378000D02*
D03*
X108850Y364600D02*
D03*
X83500Y368750D02*
D03*
X42850Y181650D02*
D03*
D23*
X0Y0D02*
D03*
Y630000D02*
D03*
M02*
