G04*
G04 #@! TF.GenerationSoftware,Altium Limited,Altium NEXUS,4.1.1 (18)*
G04*
G04 Layer_Color=8421504*
%FSLAX44Y44*%
%MOMM*%
G71*
G04*
G04 #@! TF.SameCoordinates,414CCE93-DEC9-4F78-9D08-55E8399EB41D*
G04*
G04*
G04 #@! TF.FilePolarity,Positive*
G04*
G01*
G75*
%ADD14C,0.6400*%
%ADD15R,0.8500X0.9000*%
%ADD16R,1.5500X0.3000*%
%ADD17R,2.7500X1.2000*%
%ADD18R,0.5000X0.4500*%
%ADD19R,0.4000X0.9500*%
%ADD20R,0.3500X2.3000*%
%ADD21R,1.3000X0.3500*%
%ADD22R,0.5600X0.5200*%
G36*
X153750Y603763D02*
X146229D01*
Y613750D01*
X153750D01*
Y603763D01*
D02*
G37*
G36*
X78750D02*
X71229D01*
Y613750D01*
X78750D01*
Y603763D01*
D02*
G37*
G36*
X173750Y603750D02*
X166250D01*
Y613750D01*
X173750D01*
Y603750D01*
D02*
G37*
G36*
X98750D02*
X91250D01*
Y613750D01*
X98750D01*
Y603750D01*
D02*
G37*
G36*
X177000Y591999D02*
X172003D01*
Y598000D01*
X177000D01*
Y591999D01*
D02*
G37*
G36*
X102000D02*
X97003D01*
Y598000D01*
X102000D01*
Y591999D01*
D02*
G37*
G36*
X148000Y591996D02*
X142976D01*
Y598000D01*
X148000D01*
Y591996D01*
D02*
G37*
G36*
X73000D02*
X67976D01*
Y598000D01*
X73000D01*
Y591996D01*
D02*
G37*
G36*
X153750Y576233D02*
X146238D01*
Y586250D01*
X153750D01*
Y576233D01*
D02*
G37*
G36*
X78750D02*
X71238D01*
Y586250D01*
X78750D01*
Y576233D01*
D02*
G37*
G36*
X173750Y576233D02*
X166256D01*
Y586250D01*
X173750D01*
Y576233D01*
D02*
G37*
G36*
X98750D02*
X91256D01*
Y586250D01*
X98750D01*
Y576233D01*
D02*
G37*
G36*
X183762Y318750D02*
X176250D01*
Y328767D01*
X183762D01*
Y318750D01*
D02*
G37*
G36*
X163744D02*
X156250D01*
Y328767D01*
X163744D01*
Y318750D01*
D02*
G37*
G36*
X187024Y307000D02*
X182000D01*
Y313004D01*
X187024D01*
Y307000D01*
D02*
G37*
G36*
X157997D02*
X153000D01*
Y313001D01*
X157997D01*
Y307000D01*
D02*
G37*
G36*
X183771Y291250D02*
X176250D01*
Y301237D01*
X183771D01*
Y291250D01*
D02*
G37*
G36*
X163750D02*
X156250D01*
Y301250D01*
X163750D01*
Y291250D01*
D02*
G37*
G36*
X153750Y33763D02*
X146229D01*
Y43750D01*
X153750D01*
Y33763D01*
D02*
G37*
G36*
X78750D02*
X71229D01*
Y43750D01*
X78750D01*
Y33763D01*
D02*
G37*
G36*
X173750Y33750D02*
X166250D01*
Y43750D01*
X173750D01*
Y33750D01*
D02*
G37*
G36*
X98750D02*
X91250D01*
Y43750D01*
X98750D01*
Y33750D01*
D02*
G37*
G36*
X177000Y21999D02*
X172003D01*
Y28000D01*
X177000D01*
Y21999D01*
D02*
G37*
G36*
X102000D02*
X97003D01*
Y28000D01*
X102000D01*
Y21999D01*
D02*
G37*
G36*
X148000Y21996D02*
X142976D01*
Y28000D01*
X148000D01*
Y21996D01*
D02*
G37*
G36*
X73000D02*
X67976D01*
Y28000D01*
X73000D01*
Y21996D01*
D02*
G37*
G36*
X153750Y6234D02*
X146238D01*
Y16250D01*
X153750D01*
Y6234D01*
D02*
G37*
G36*
X78750D02*
X71238D01*
Y16250D01*
X78750D01*
Y6234D01*
D02*
G37*
G36*
X173750Y6233D02*
X166256D01*
Y16250D01*
X173750D01*
Y6233D01*
D02*
G37*
G36*
X98750D02*
X91256D01*
Y16250D01*
X98750D01*
Y6233D01*
D02*
G37*
D14*
X-39050Y194350D02*
D03*
Y207050D02*
D03*
Y245150D02*
D03*
Y270550D02*
D03*
Y283250D02*
D03*
X-51750Y181650D02*
D03*
Y194350D02*
D03*
Y232450D02*
D03*
Y245150D02*
D03*
X-77150Y80050D02*
D03*
Y92750D02*
D03*
Y130850D02*
D03*
Y143550D02*
D03*
Y181650D02*
D03*
Y194350D02*
D03*
Y232450D02*
D03*
Y245150D02*
D03*
Y283250D02*
D03*
Y295950D02*
D03*
Y334050D02*
D03*
Y346750D02*
D03*
Y384850D02*
D03*
Y397550D02*
D03*
Y435650D02*
D03*
Y448350D02*
D03*
Y486450D02*
D03*
Y499150D02*
D03*
Y537250D02*
D03*
Y549950D02*
D03*
X-64450Y67350D02*
D03*
Y105450D02*
D03*
Y118150D02*
D03*
Y156250D02*
D03*
Y168950D02*
D03*
Y207050D02*
D03*
Y219750D02*
D03*
Y257850D02*
D03*
Y270550D02*
D03*
Y308650D02*
D03*
Y321350D02*
D03*
Y359450D02*
D03*
Y372150D02*
D03*
Y410250D02*
D03*
Y422950D02*
D03*
Y461050D02*
D03*
Y473750D02*
D03*
Y511850D02*
D03*
Y524550D02*
D03*
Y562650D02*
D03*
X-51750Y80050D02*
D03*
Y92750D02*
D03*
Y130850D02*
D03*
Y143550D02*
D03*
Y435650D02*
D03*
Y448350D02*
D03*
Y486450D02*
D03*
X-39050Y67350D02*
D03*
Y105450D02*
D03*
Y118150D02*
D03*
Y422950D02*
D03*
Y435650D02*
D03*
Y448350D02*
D03*
Y461050D02*
D03*
Y473750D02*
D03*
Y486450D02*
D03*
Y499150D02*
D03*
X-26350Y80050D02*
D03*
Y92750D02*
D03*
Y130850D02*
D03*
Y143550D02*
D03*
Y168950D02*
D03*
Y181650D02*
D03*
Y207050D02*
D03*
Y219750D02*
D03*
Y245150D02*
D03*
Y257850D02*
D03*
Y283250D02*
D03*
Y295950D02*
D03*
Y321350D02*
D03*
Y334050D02*
D03*
Y359450D02*
D03*
Y372150D02*
D03*
Y397550D02*
D03*
Y410250D02*
D03*
Y435650D02*
D03*
Y448350D02*
D03*
Y473750D02*
D03*
Y486450D02*
D03*
Y511850D02*
D03*
Y524550D02*
D03*
X-13650Y67350D02*
D03*
Y105450D02*
D03*
Y118150D02*
D03*
Y143550D02*
D03*
Y156250D02*
D03*
Y181650D02*
D03*
Y194350D02*
D03*
Y219750D02*
D03*
Y232450D02*
D03*
Y257850D02*
D03*
Y270550D02*
D03*
Y295950D02*
D03*
Y308650D02*
D03*
Y334050D02*
D03*
Y346750D02*
D03*
Y372150D02*
D03*
Y384850D02*
D03*
Y410250D02*
D03*
Y422950D02*
D03*
Y448350D02*
D03*
Y461050D02*
D03*
Y486450D02*
D03*
Y499150D02*
D03*
Y524550D02*
D03*
Y537250D02*
D03*
X-950Y80050D02*
D03*
Y92750D02*
D03*
X11750Y67350D02*
D03*
Y80050D02*
D03*
Y105450D02*
D03*
Y118150D02*
D03*
X-77150Y105450D02*
D03*
Y118150D02*
D03*
Y156250D02*
D03*
Y168950D02*
D03*
Y207050D02*
D03*
Y219750D02*
D03*
Y257850D02*
D03*
Y270550D02*
D03*
Y308650D02*
D03*
Y321350D02*
D03*
Y359450D02*
D03*
Y372150D02*
D03*
Y410250D02*
D03*
Y422950D02*
D03*
Y461050D02*
D03*
Y473750D02*
D03*
Y511850D02*
D03*
Y524550D02*
D03*
Y562650D02*
D03*
Y67350D02*
D03*
X-64450Y80050D02*
D03*
Y92750D02*
D03*
Y130850D02*
D03*
Y143550D02*
D03*
Y181650D02*
D03*
Y194350D02*
D03*
Y232450D02*
D03*
Y245150D02*
D03*
Y283250D02*
D03*
Y295950D02*
D03*
Y334050D02*
D03*
Y346750D02*
D03*
Y384850D02*
D03*
Y397550D02*
D03*
Y435650D02*
D03*
Y448350D02*
D03*
Y486450D02*
D03*
Y499150D02*
D03*
Y537250D02*
D03*
Y549950D02*
D03*
X-51750Y67350D02*
D03*
Y105450D02*
D03*
Y118150D02*
D03*
Y156250D02*
D03*
Y168950D02*
D03*
Y207050D02*
D03*
Y219750D02*
D03*
Y257850D02*
D03*
Y270550D02*
D03*
Y283250D02*
D03*
Y295950D02*
D03*
Y308650D02*
D03*
Y321350D02*
D03*
Y334050D02*
D03*
Y346750D02*
D03*
Y359450D02*
D03*
Y372150D02*
D03*
Y384850D02*
D03*
Y397550D02*
D03*
Y410250D02*
D03*
Y422950D02*
D03*
Y461050D02*
D03*
Y473750D02*
D03*
Y499150D02*
D03*
Y511850D02*
D03*
Y524550D02*
D03*
Y537250D02*
D03*
Y549950D02*
D03*
Y562650D02*
D03*
X-39050Y80050D02*
D03*
Y92750D02*
D03*
Y130850D02*
D03*
Y143550D02*
D03*
Y156250D02*
D03*
Y168950D02*
D03*
Y181650D02*
D03*
Y219750D02*
D03*
Y232450D02*
D03*
Y257850D02*
D03*
Y295950D02*
D03*
Y308650D02*
D03*
Y321350D02*
D03*
Y334050D02*
D03*
Y346750D02*
D03*
Y359450D02*
D03*
Y372150D02*
D03*
Y384850D02*
D03*
Y397550D02*
D03*
Y410250D02*
D03*
Y511850D02*
D03*
Y524550D02*
D03*
Y537250D02*
D03*
Y549950D02*
D03*
Y562650D02*
D03*
X-26350Y67350D02*
D03*
Y105450D02*
D03*
Y118150D02*
D03*
Y156250D02*
D03*
Y194350D02*
D03*
Y232450D02*
D03*
Y270550D02*
D03*
Y308650D02*
D03*
Y346750D02*
D03*
Y384850D02*
D03*
Y422950D02*
D03*
Y461050D02*
D03*
Y499150D02*
D03*
Y537250D02*
D03*
Y549950D02*
D03*
Y562650D02*
D03*
X-13650Y80050D02*
D03*
Y92750D02*
D03*
Y130850D02*
D03*
Y168950D02*
D03*
Y207050D02*
D03*
Y245150D02*
D03*
Y283250D02*
D03*
Y321350D02*
D03*
Y359450D02*
D03*
Y397550D02*
D03*
Y435650D02*
D03*
Y473750D02*
D03*
Y511850D02*
D03*
Y549950D02*
D03*
Y562650D02*
D03*
X-950Y67350D02*
D03*
Y105450D02*
D03*
Y118150D02*
D03*
Y130850D02*
D03*
Y143550D02*
D03*
Y156250D02*
D03*
Y168950D02*
D03*
Y181650D02*
D03*
Y194350D02*
D03*
Y207050D02*
D03*
Y219750D02*
D03*
Y232450D02*
D03*
Y245150D02*
D03*
Y257850D02*
D03*
Y270550D02*
D03*
Y283250D02*
D03*
Y295950D02*
D03*
Y308650D02*
D03*
Y321350D02*
D03*
Y334050D02*
D03*
Y346750D02*
D03*
Y359450D02*
D03*
Y372150D02*
D03*
Y384850D02*
D03*
Y397550D02*
D03*
Y410250D02*
D03*
Y422950D02*
D03*
Y435650D02*
D03*
Y448350D02*
D03*
Y461050D02*
D03*
Y473750D02*
D03*
Y486450D02*
D03*
Y499150D02*
D03*
Y511850D02*
D03*
Y524550D02*
D03*
Y537250D02*
D03*
Y549950D02*
D03*
Y562650D02*
D03*
X11750Y92750D02*
D03*
Y130850D02*
D03*
Y143550D02*
D03*
Y156250D02*
D03*
Y168950D02*
D03*
Y181650D02*
D03*
Y194350D02*
D03*
Y207050D02*
D03*
Y219750D02*
D03*
Y232450D02*
D03*
Y245150D02*
D03*
Y257850D02*
D03*
Y270550D02*
D03*
Y283250D02*
D03*
Y295950D02*
D03*
Y308650D02*
D03*
Y321350D02*
D03*
Y334050D02*
D03*
Y346750D02*
D03*
Y359450D02*
D03*
Y372150D02*
D03*
Y384850D02*
D03*
Y397550D02*
D03*
Y410250D02*
D03*
Y422950D02*
D03*
Y435650D02*
D03*
Y448350D02*
D03*
Y461050D02*
D03*
Y473750D02*
D03*
Y486450D02*
D03*
Y499150D02*
D03*
Y511850D02*
D03*
Y524550D02*
D03*
Y537250D02*
D03*
Y549950D02*
D03*
Y562650D02*
D03*
X24450Y67350D02*
D03*
Y80050D02*
D03*
Y92750D02*
D03*
Y105450D02*
D03*
Y118150D02*
D03*
Y130850D02*
D03*
Y143550D02*
D03*
Y156250D02*
D03*
Y168950D02*
D03*
Y181650D02*
D03*
Y194350D02*
D03*
Y207050D02*
D03*
Y219750D02*
D03*
Y232450D02*
D03*
Y245150D02*
D03*
Y257850D02*
D03*
Y270550D02*
D03*
Y283250D02*
D03*
Y295950D02*
D03*
Y308650D02*
D03*
Y321350D02*
D03*
Y334050D02*
D03*
Y346750D02*
D03*
Y359450D02*
D03*
Y372150D02*
D03*
Y384850D02*
D03*
Y397550D02*
D03*
Y410250D02*
D03*
Y422950D02*
D03*
Y435650D02*
D03*
Y448350D02*
D03*
Y461050D02*
D03*
Y473750D02*
D03*
Y486450D02*
D03*
Y499150D02*
D03*
Y511850D02*
D03*
Y524550D02*
D03*
Y537250D02*
D03*
Y549950D02*
D03*
Y562650D02*
D03*
X37150Y67350D02*
D03*
Y80050D02*
D03*
Y92750D02*
D03*
Y105450D02*
D03*
Y118150D02*
D03*
Y130850D02*
D03*
Y143550D02*
D03*
Y156250D02*
D03*
Y168950D02*
D03*
Y181650D02*
D03*
Y194350D02*
D03*
Y207050D02*
D03*
Y219750D02*
D03*
Y232450D02*
D03*
Y245150D02*
D03*
Y257850D02*
D03*
Y270550D02*
D03*
Y283250D02*
D03*
Y295950D02*
D03*
Y308650D02*
D03*
Y321350D02*
D03*
Y334050D02*
D03*
Y346750D02*
D03*
Y359450D02*
D03*
Y372150D02*
D03*
Y384850D02*
D03*
Y397550D02*
D03*
Y410250D02*
D03*
Y422950D02*
D03*
Y435650D02*
D03*
Y448350D02*
D03*
Y461050D02*
D03*
Y473750D02*
D03*
Y486450D02*
D03*
Y499150D02*
D03*
Y511850D02*
D03*
Y524550D02*
D03*
Y537250D02*
D03*
Y549950D02*
D03*
Y562650D02*
D03*
D15*
X-103500Y190000D02*
D03*
X-116500D02*
D03*
X-103500Y490000D02*
D03*
X-116500D02*
D03*
X-103500Y30000D02*
D03*
X-116500D02*
D03*
X-103500Y600000D02*
D03*
X-116500D02*
D03*
D16*
X197750Y230000D02*
D03*
Y225000D02*
D03*
Y220000D02*
D03*
Y215000D02*
D03*
Y250000D02*
D03*
Y245000D02*
D03*
Y240000D02*
D03*
Y235000D02*
D03*
Y210000D02*
D03*
Y205000D02*
D03*
Y200000D02*
D03*
Y195000D02*
D03*
Y190000D02*
D03*
Y185000D02*
D03*
Y180000D02*
D03*
Y175000D02*
D03*
Y170000D02*
D03*
Y165000D02*
D03*
Y160000D02*
D03*
Y155000D02*
D03*
Y150000D02*
D03*
Y145000D02*
D03*
Y120000D02*
D03*
Y115000D02*
D03*
Y110000D02*
D03*
Y105000D02*
D03*
Y100000D02*
D03*
Y95000D02*
D03*
Y90000D02*
D03*
Y85000D02*
D03*
Y80000D02*
D03*
Y75000D02*
D03*
Y70000D02*
D03*
X122250Y67500D02*
D03*
Y72500D02*
D03*
Y77500D02*
D03*
Y82500D02*
D03*
Y87500D02*
D03*
Y92500D02*
D03*
Y97500D02*
D03*
Y102500D02*
D03*
Y107500D02*
D03*
Y112500D02*
D03*
Y117500D02*
D03*
Y122500D02*
D03*
Y147500D02*
D03*
Y152500D02*
D03*
Y157500D02*
D03*
Y162500D02*
D03*
Y167500D02*
D03*
Y172500D02*
D03*
Y177500D02*
D03*
Y182500D02*
D03*
Y187500D02*
D03*
Y192500D02*
D03*
Y197500D02*
D03*
Y202500D02*
D03*
Y207500D02*
D03*
Y232500D02*
D03*
Y237500D02*
D03*
Y242500D02*
D03*
Y247500D02*
D03*
Y252500D02*
D03*
Y212500D02*
D03*
Y217500D02*
D03*
Y222500D02*
D03*
Y227500D02*
D03*
X197750Y530000D02*
D03*
Y525000D02*
D03*
Y520000D02*
D03*
Y515000D02*
D03*
Y550000D02*
D03*
Y545000D02*
D03*
Y540000D02*
D03*
Y535000D02*
D03*
Y510000D02*
D03*
Y505000D02*
D03*
Y500000D02*
D03*
Y495000D02*
D03*
Y490000D02*
D03*
Y485000D02*
D03*
Y480000D02*
D03*
Y475000D02*
D03*
Y470000D02*
D03*
Y465000D02*
D03*
Y460000D02*
D03*
Y455000D02*
D03*
Y450000D02*
D03*
Y445000D02*
D03*
Y420000D02*
D03*
Y415000D02*
D03*
Y410000D02*
D03*
Y405000D02*
D03*
Y400000D02*
D03*
Y395000D02*
D03*
Y390000D02*
D03*
Y385000D02*
D03*
Y380000D02*
D03*
Y375000D02*
D03*
Y370000D02*
D03*
X122250Y367500D02*
D03*
Y372500D02*
D03*
Y377500D02*
D03*
Y382500D02*
D03*
Y387500D02*
D03*
Y392500D02*
D03*
Y397500D02*
D03*
Y402500D02*
D03*
Y407500D02*
D03*
Y412500D02*
D03*
Y417500D02*
D03*
Y422500D02*
D03*
Y447500D02*
D03*
Y452500D02*
D03*
Y457500D02*
D03*
Y462500D02*
D03*
Y467500D02*
D03*
Y472500D02*
D03*
Y477500D02*
D03*
Y482500D02*
D03*
Y487500D02*
D03*
Y492500D02*
D03*
Y497500D02*
D03*
Y502500D02*
D03*
Y507500D02*
D03*
Y532500D02*
D03*
Y537500D02*
D03*
Y542500D02*
D03*
Y547500D02*
D03*
Y552500D02*
D03*
Y512500D02*
D03*
Y517500D02*
D03*
Y522500D02*
D03*
Y527500D02*
D03*
D17*
X130000Y263500D02*
D03*
Y56500D02*
D03*
Y563500D02*
D03*
Y356500D02*
D03*
D18*
X-106250Y510000D02*
D03*
X-113750D02*
D03*
Y120000D02*
D03*
X-106250D02*
D03*
D19*
X-114250Y571750D02*
D03*
X-105750D02*
D03*
X-114250Y558250D02*
D03*
X-105750D02*
D03*
Y58250D02*
D03*
X-114250D02*
D03*
X-105750Y71750D02*
D03*
X-114250D02*
D03*
D20*
X-122250Y565000D02*
D03*
X-97750D02*
D03*
Y65000D02*
D03*
X-122250D02*
D03*
D21*
X-110000Y582250D02*
D03*
Y547750D02*
D03*
Y47750D02*
D03*
Y82250D02*
D03*
D22*
X-113900Y530000D02*
D03*
X-106100D02*
D03*
X-106200Y520000D02*
D03*
X-113800D02*
D03*
X-106100Y100000D02*
D03*
X-113900D02*
D03*
X-113800Y110000D02*
D03*
X-106200D02*
D03*
M02*
