G04*
G04 #@! TF.GenerationSoftware,Altium Limited,Altium NEXUS,4.1.1 (18)*
G04*
G04 Layer_Physical_Order=2*
G04 Layer_Color=32768*
%FSLAX44Y44*%
%MOMM*%
G71*
G04*
G04 #@! TF.SameCoordinates,414CCE93-DEC9-4F78-9D08-55E8399EB41D*
G04*
G04*
G04 #@! TF.FilePolarity,Negative*
G04*
G01*
G75*
%ADD43C,0.1500*%
%ADD53C,1.0160*%
%ADD54C,1.7780*%
G04:AMPARAMS|DCode=55|XSize=3.5mm|YSize=3.5mm|CornerRadius=0mm|HoleSize=0mm|Usage=FLASHONLY|Rotation=0.000|XOffset=0mm|YOffset=0mm|HoleType=Round|Shape=Relief|Width=0.125mm|Gap=0.125mm|Entries=4|*
%AMTHD55*
7,0,0,3.5000,3.2500,0.1250,45*
%
%ADD55THD55*%
%ADD56C,1.6080*%
%ADD57C,2.1080*%
%ADD58C,0.7080*%
D43*
X533500Y87832D02*
Y84500D01*
X530168Y87832D01*
X529335D01*
X528502Y86999D01*
Y85333D01*
X529335Y84500D01*
D53*
X433000Y639000D02*
G03*
X438000Y634000I5000J0D01*
G01*
X541000Y618000D02*
G03*
X546000Y613000I5000J0D01*
G01*
X390000Y3000D02*
G03*
X385000Y-2000I-0J-5000D01*
G01*
X-179000Y-30000D02*
X380000D01*
X385000Y-25000D01*
Y-2000D01*
X598951Y2950D02*
X604000Y8000D01*
X604000Y608000D02*
X604000Y8000D01*
X599000Y613000D02*
X604000Y608000D01*
X546000Y613000D02*
X599000D01*
X541000Y618000D02*
Y629000D01*
X536000Y634000D02*
X541000Y629000D01*
X438000Y634000D02*
X536000D01*
X433000Y639000D02*
Y655000D01*
X428000Y660000D02*
X433000Y655000D01*
X-179000Y660000D02*
X428000D01*
X-184000Y655000D02*
X-179000Y660000D01*
X-184000Y-25000D02*
Y655000D01*
Y-25000D02*
X-179000Y-30000D01*
X390000Y3000D02*
X598951Y2950D01*
D54*
X10500Y586900D02*
D03*
X-20000Y43100D02*
D03*
Y586800D02*
D03*
X-50500Y43200D02*
D03*
D55*
X460000Y160000D02*
D03*
Y460000D02*
D03*
X580000Y460000D02*
D03*
Y160000D02*
D03*
D56*
X175000Y60000D02*
D03*
Y360000D02*
D03*
D57*
Y260000D02*
D03*
Y560000D02*
D03*
D58*
X208152Y299337D02*
D03*
X-18650Y562650D02*
D03*
X19600Y359450D02*
D03*
X46897Y96049D02*
D03*
X46336Y83826D02*
D03*
X46259Y89649D02*
D03*
X-5900Y321350D02*
D03*
X-31260D02*
D03*
X19600D02*
D03*
X332350Y127341D02*
D03*
X323374Y513177D02*
D03*
X323129Y501065D02*
D03*
X252765Y118653D02*
D03*
X247000Y118760D02*
D03*
X326000Y100000D02*
D03*
X377781Y338907D02*
D03*
X239207Y513541D02*
D03*
X178584Y310000D02*
D03*
X161303D02*
D03*
X280160Y164256D02*
D03*
X167193Y489929D02*
D03*
X213312Y482863D02*
D03*
X238630Y24370D02*
D03*
X284000Y32000D02*
D03*
X280924Y42076D02*
D03*
X276134Y37134D02*
D03*
X208344Y165110D02*
D03*
X208486Y170142D02*
D03*
X269569Y113902D02*
D03*
X318173Y111859D02*
D03*
X-114339Y505560D02*
D03*
X208500Y160000D02*
D03*
X219635Y450085D02*
D03*
X188000Y444210D02*
D03*
X223310Y444572D02*
D03*
X208500Y460000D02*
D03*
X186440Y471282D02*
D03*
X186429Y464032D02*
D03*
X187000Y459032D02*
D03*
X221689Y474580D02*
D03*
X216416Y468586D02*
D03*
X-56650Y181650D02*
D03*
Y232450D02*
D03*
X-43950D02*
D03*
Y245150D02*
D03*
X-56650D02*
D03*
Y194350D02*
D03*
X-43950D02*
D03*
Y207050D02*
D03*
Y499150D02*
D03*
X227558Y345693D02*
D03*
X307000Y252947D02*
D03*
X345024Y199898D02*
D03*
X47000Y108000D02*
D03*
X47270Y121460D02*
D03*
X47237Y102639D02*
D03*
X47369Y128271D02*
D03*
X-43950Y270550D02*
D03*
Y283250D02*
D03*
X283425Y571425D02*
D03*
X273118Y566955D02*
D03*
X277425Y576425D02*
D03*
X273059Y521159D02*
D03*
X187738Y545000D02*
D03*
X208568Y514968D02*
D03*
X187000Y524991D02*
D03*
X283546Y498316D02*
D03*
X273382Y501909D02*
D03*
X279000Y506000D02*
D03*
X209525Y504271D02*
D03*
X284000Y526000D02*
D03*
X209029Y525066D02*
D03*
X162000Y510000D02*
D03*
X157000Y515000D02*
D03*
X151000Y520000D02*
D03*
X187303D02*
D03*
X187200Y515000D02*
D03*
X187000Y510000D02*
D03*
X190671Y358710D02*
D03*
X209000Y401000D02*
D03*
X210267Y396102D02*
D03*
X195730Y359498D02*
D03*
X201993Y359575D02*
D03*
X208743Y359297D02*
D03*
X187625Y160000D02*
D03*
X312617Y68913D02*
D03*
X151490Y25000D02*
D03*
X168538D02*
D03*
X151491Y595000D02*
D03*
X168673Y595000D02*
D03*
X235949Y561460D02*
D03*
X-96000Y600000D02*
D03*
Y490000D02*
D03*
Y190000D02*
D03*
Y30000D02*
D03*
X278963Y531510D02*
D03*
X208918Y531581D02*
D03*
X218000Y541000D02*
D03*
X19853Y524584D02*
D03*
X76000Y595000D02*
D03*
X93547D02*
D03*
X218032Y53050D02*
D03*
X228032D02*
D03*
X229000Y541000D02*
D03*
X290544Y554133D02*
D03*
X289921Y64764D02*
D03*
X312058Y522058D02*
D03*
X253114Y234044D02*
D03*
X249331Y238846D02*
D03*
X245693Y229824D02*
D03*
X208163Y210007D02*
D03*
X208358Y215329D02*
D03*
X208118Y220761D02*
D03*
X276134Y85192D02*
D03*
X280924Y90166D02*
D03*
X284625Y80003D02*
D03*
X311658Y81342D02*
D03*
X187731Y69979D02*
D03*
X187844Y75217D02*
D03*
X237776Y72146D02*
D03*
X76072Y25000D02*
D03*
X94000D02*
D03*
X226958Y587021D02*
D03*
X219958D02*
D03*
X290521Y599765D02*
D03*
X240617Y392617D02*
D03*
X240746Y404254D02*
D03*
X241021Y419979D02*
D03*
X209394Y390000D02*
D03*
X211303Y385000D02*
D03*
X161393Y451387D02*
D03*
Y420159D02*
D03*
X157135Y444196D02*
D03*
X151078Y439748D02*
D03*
X146000Y436000D02*
D03*
X19600Y434220D02*
D03*
X188000Y550000D02*
D03*
Y420000D02*
D03*
X-5900Y435650D02*
D03*
X-43232Y397550D02*
D03*
X-17375Y422950D02*
D03*
X-30375Y410250D02*
D03*
X-43950Y384850D02*
D03*
X19892Y448439D02*
D03*
X32500Y448350D02*
D03*
X62750Y132202D02*
D03*
X47134Y161311D02*
D03*
X43598Y157598D02*
D03*
X57750Y131148D02*
D03*
X6800Y486450D02*
D03*
X19600Y473750D02*
D03*
X147535Y146465D02*
D03*
X144000Y150000D02*
D03*
X45920Y166635D02*
D03*
X51893Y152436D02*
D03*
X51545Y147448D02*
D03*
X46550Y202780D02*
D03*
X50086Y206315D02*
D03*
X-43300Y168950D02*
D03*
Y156250D02*
D03*
X-30375Y143550D02*
D03*
Y168950D02*
D03*
X47138Y115702D02*
D03*
X6800Y79375D02*
D03*
X19600D02*
D03*
X-31260D02*
D03*
X-5900D02*
D03*
X-56650D02*
D03*
X-68375Y118150D02*
D03*
Y105450D02*
D03*
X-55637Y93763D02*
D03*
X-31260Y92750D02*
D03*
X-5900D02*
D03*
X19600D02*
D03*
X-43300Y105450D02*
D03*
Y118150D02*
D03*
X-30375Y130850D02*
D03*
X-17900Y118150D02*
D03*
Y143550D02*
D03*
X-5200Y130850D02*
D03*
Y143550D02*
D03*
X32500Y118150D02*
D03*
X7625Y143550D02*
D03*
X20200D02*
D03*
Y130850D02*
D03*
X-56000Y143550D02*
D03*
Y130850D02*
D03*
X-68375Y156250D02*
D03*
Y168950D02*
D03*
X-30375Y181650D02*
D03*
X-17900Y219750D02*
D03*
Y156250D02*
D03*
Y194350D02*
D03*
Y181650D02*
D03*
X-5200Y207050D02*
D03*
Y219750D02*
D03*
Y181650D02*
D03*
Y168950D02*
D03*
X7625Y194350D02*
D03*
Y181650D02*
D03*
Y156250D02*
D03*
Y232450D02*
D03*
Y219750D02*
D03*
X20200Y168950D02*
D03*
Y181650D02*
D03*
Y219750D02*
D03*
Y207050D02*
D03*
X-69200D02*
D03*
X-30600D02*
D03*
Y219750D02*
D03*
X-18650Y232375D02*
D03*
X-127000Y81000D02*
D03*
X112000Y202500D02*
D03*
Y197500D02*
D03*
X48349Y187064D02*
D03*
X32300Y194350D02*
D03*
X112000Y232500D02*
D03*
Y227500D02*
D03*
X-123375Y99375D02*
D03*
X-105750Y77500D02*
D03*
Y52500D02*
D03*
X-102000Y120000D02*
D03*
X-127000Y390000D02*
D03*
X-123375Y402375D02*
D03*
X-82000Y397550D02*
D03*
X-17900Y410250D02*
D03*
X-30600Y397550D02*
D03*
X-31260Y435650D02*
D03*
Y359450D02*
D03*
X81000Y271000D02*
D03*
X6800Y270550D02*
D03*
X-18650D02*
D03*
X32200D02*
D03*
X84536Y267465D02*
D03*
X32500Y308650D02*
D03*
Y295950D02*
D03*
Y334050D02*
D03*
X19600D02*
D03*
X47122Y218150D02*
D03*
X80941Y215593D02*
D03*
X-5900Y283250D02*
D03*
X19600D02*
D03*
X-31260D02*
D03*
Y295950D02*
D03*
X-18650Y308650D02*
D03*
X-43950Y346750D02*
D03*
X19600Y372150D02*
D03*
X6800D02*
D03*
X32500D02*
D03*
X51134Y221350D02*
D03*
X112000Y217500D02*
D03*
Y212500D02*
D03*
X84705Y212302D02*
D03*
X83396Y225093D02*
D03*
X32300Y219750D02*
D03*
X32200Y257850D02*
D03*
X-5900D02*
D03*
Y245150D02*
D03*
X6800Y257850D02*
D03*
X19500D02*
D03*
Y245150D02*
D03*
X32300Y232450D02*
D03*
Y181650D02*
D03*
Y156250D02*
D03*
Y143550D02*
D03*
X112000Y182000D02*
D03*
Y187000D02*
D03*
X44814Y183528D02*
D03*
X49455Y170171D02*
D03*
X112000Y172500D02*
D03*
Y167500D02*
D03*
Y157500D02*
D03*
Y152500D02*
D03*
X49441Y246750D02*
D03*
X45336Y243897D02*
D03*
X48846Y259450D02*
D03*
X147451Y164099D02*
D03*
X143916Y167635D02*
D03*
X146959Y179210D02*
D03*
X143423Y182745D02*
D03*
X137592Y193585D02*
D03*
X134056Y197121D02*
D03*
X112000Y247500D02*
D03*
Y242500D02*
D03*
X84536Y250464D02*
D03*
X44992Y256250D02*
D03*
X80871Y229408D02*
D03*
X81000Y254000D02*
D03*
X-82000Y80050D02*
D03*
Y92750D02*
D03*
Y130850D02*
D03*
Y143550D02*
D03*
Y181650D02*
D03*
Y194350D02*
D03*
Y232450D02*
D03*
Y245150D02*
D03*
Y283250D02*
D03*
Y295950D02*
D03*
Y334050D02*
D03*
Y346750D02*
D03*
Y384850D02*
D03*
Y435650D02*
D03*
Y448350D02*
D03*
Y486450D02*
D03*
Y499150D02*
D03*
Y537250D02*
D03*
Y549950D02*
D03*
X-69200Y67350D02*
D03*
Y219750D02*
D03*
Y257850D02*
D03*
Y270550D02*
D03*
Y308650D02*
D03*
Y321350D02*
D03*
Y359450D02*
D03*
Y372150D02*
D03*
Y410250D02*
D03*
Y422950D02*
D03*
Y461050D02*
D03*
Y473750D02*
D03*
Y511850D02*
D03*
Y524550D02*
D03*
Y562650D02*
D03*
X-56650Y435650D02*
D03*
Y448350D02*
D03*
Y486450D02*
D03*
X-43950Y67350D02*
D03*
Y422950D02*
D03*
Y435650D02*
D03*
Y448350D02*
D03*
Y461050D02*
D03*
Y473750D02*
D03*
Y486450D02*
D03*
X-31260Y245150D02*
D03*
Y257850D02*
D03*
Y334050D02*
D03*
Y372150D02*
D03*
Y448350D02*
D03*
Y473750D02*
D03*
Y486450D02*
D03*
Y511850D02*
D03*
Y524550D02*
D03*
X-18650Y67350D02*
D03*
Y105450D02*
D03*
Y257850D02*
D03*
Y295950D02*
D03*
Y334050D02*
D03*
Y346750D02*
D03*
Y372150D02*
D03*
Y384850D02*
D03*
Y448350D02*
D03*
Y461050D02*
D03*
Y486450D02*
D03*
Y499150D02*
D03*
Y524550D02*
D03*
Y537250D02*
D03*
X6800Y67350D02*
D03*
Y105450D02*
D03*
Y118150D02*
D03*
X32500Y562650D02*
D03*
Y524550D02*
D03*
Y499150D02*
D03*
Y486450D02*
D03*
Y461050D02*
D03*
Y422950D02*
D03*
Y410250D02*
D03*
Y384850D02*
D03*
Y67350D02*
D03*
X19600Y549950D02*
D03*
Y486450D02*
D03*
Y410250D02*
D03*
Y397550D02*
D03*
X-5900Y410250D02*
D03*
X112500Y412500D02*
D03*
X-5900Y397550D02*
D03*
X112500Y407500D02*
D03*
X6800Y461050D02*
D03*
X6903Y448247D02*
D03*
X-43950Y308650D02*
D03*
Y321350D02*
D03*
Y359450D02*
D03*
X-56650Y346750D02*
D03*
Y334050D02*
D03*
X7003Y524347D02*
D03*
X-5900Y511850D02*
D03*
X6800Y537250D02*
D03*
X-5900Y524550D02*
D03*
X32500Y537250D02*
D03*
Y346750D02*
D03*
Y105450D02*
D03*
X19600Y511850D02*
D03*
Y295950D02*
D03*
X-56650Y397550D02*
D03*
Y384850D02*
D03*
X-5900Y448350D02*
D03*
X-56650Y295950D02*
D03*
Y283250D02*
D03*
X-5900Y549950D02*
D03*
X-31260D02*
D03*
X6800Y562650D02*
D03*
X-56650Y499150D02*
D03*
Y524550D02*
D03*
X-43950Y511850D02*
D03*
Y537250D02*
D03*
X-56650Y549950D02*
D03*
X-43950Y562650D02*
D03*
X-5900Y486450D02*
D03*
X6800Y499150D02*
D03*
X-5900Y473750D02*
D03*
X6800Y346750D02*
D03*
Y334050D02*
D03*
X-5900D02*
D03*
X6800Y308650D02*
D03*
Y295950D02*
D03*
X-5900D02*
D03*
X6800Y422950D02*
D03*
X112500Y422500D02*
D03*
X112500Y417500D02*
D03*
X6800Y410250D02*
D03*
Y384850D02*
D03*
X112500Y402500D02*
D03*
Y397500D02*
D03*
X-5900Y372150D02*
D03*
X112500Y392500D02*
D03*
X-5900Y359450D02*
D03*
X112500Y387500D02*
D03*
M02*
