G04*
G04 #@! TF.GenerationSoftware,Altium Limited,Altium NEXUS,4.1.1 (18)*
G04*
G04 Layer_Color=16711935*
%FSLAX44Y44*%
%MOMM*%
G71*
G04*
G04 #@! TF.SameCoordinates,414CCE93-DEC9-4F78-9D08-55E8399EB41D*
G04*
G04*
G04 #@! TF.FilePolarity,Negative*
G04*
G01*
G75*
%ADD23C,1.9000*%
%ADD26C,0.8432*%
%ADD27R,1.0532X1.1032*%
%ADD30R,0.7032X0.6532*%
%ADD31R,0.7632X0.7232*%
%ADD32C,1.1732*%
%ADD33C,5.5032*%
%ADD34C,4.6032*%
%ADD35C,1.1000*%
%ADD36C,1.6000*%
%ADD37C,3.2032*%
%ADD38C,3.7032*%
%ADD75R,0.7532X0.7032*%
%ADD76R,0.5232X0.5632*%
%ADD77R,0.4532X0.5532*%
%ADD78R,0.5532X0.4532*%
%ADD79R,0.5632X0.5232*%
%ADD80R,0.6532X0.7532*%
%ADD81C,0.5532*%
%ADD82R,0.6532X0.7032*%
%ADD83O,2.4032X0.8032*%
%ADD84R,0.7232X0.7632*%
%ADD85O,2.3032X0.8032*%
%ADD86R,1.9032X1.2532*%
%ADD87O,2.0032X0.5032*%
G36*
X430961Y654155D02*
Y639000D01*
X430981Y638901D01*
X430971Y638800D01*
X431067Y637825D01*
X431154Y637538D01*
X431212Y637244D01*
X431959Y635442D01*
X432401Y634780D01*
X433780Y633401D01*
X433780Y633401D01*
X434442Y632959D01*
X436244Y632212D01*
X436538Y632154D01*
X436825Y632067D01*
X437800Y631971D01*
X437901Y631981D01*
X438000Y631961D01*
X535155D01*
X538961Y628155D01*
Y618000D01*
X538981Y617901D01*
X538971Y617800D01*
X539067Y616825D01*
X539154Y616538D01*
X539212Y616244D01*
X539959Y614442D01*
X540401Y613780D01*
X541181Y613000D01*
X541780Y612401D01*
X541780Y612401D01*
X542442Y611959D01*
X544244Y611212D01*
X544538Y611154D01*
X544825Y611067D01*
X545800Y610971D01*
X545901Y610981D01*
X546000Y610961D01*
X598155D01*
X601961Y607155D01*
Y315000D01*
X601961Y8845D01*
X598106Y4990D01*
X390000Y5039D01*
X389901Y5019D01*
X389800Y5029D01*
X388825Y4933D01*
X388538Y4846D01*
X388244Y4788D01*
X386442Y4041D01*
X386442D01*
X386000Y3746D01*
X385780Y3599D01*
Y3599D01*
X385780D01*
X384401Y2220D01*
Y2220D01*
X384401D01*
X384254Y2000D01*
X383959Y1558D01*
Y1558D01*
X383212Y-244D01*
X383154Y-538D01*
X383067Y-825D01*
X382971Y-1800D01*
X382981Y-1901D01*
X382961Y-2000D01*
Y-24155D01*
X379155Y-27961D01*
X-178155D01*
X-181961Y-24155D01*
Y315000D01*
Y654155D01*
X-178155Y657961D01*
X427155D01*
X430961Y654155D01*
D02*
G37*
%LPC*%
G36*
X206642Y610096D02*
X206394Y610096D01*
X206150Y610047D01*
X206036Y610000D01*
X14000Y610000D01*
X-134000Y610000D01*
Y315000D01*
Y20000D01*
X14000Y20000D01*
X206035Y20000D01*
X554000Y20000D01*
Y315000D01*
Y568000D01*
X524000D01*
Y610000D01*
X207000D01*
X206885Y610047D01*
X206642Y610096D01*
D02*
G37*
%LPD*%
D23*
X469500Y160000D02*
G03*
X469500Y160000I-9500J0D01*
G01*
Y460000D02*
G03*
X469500Y460000I-9500J0D01*
G01*
X589500Y160000D02*
G03*
X589500Y160000I-9500J0D01*
G01*
Y460000D02*
G03*
X589500Y460000I-9500J0D01*
G01*
D26*
X-39050Y194350D02*
D03*
Y207050D02*
D03*
Y245150D02*
D03*
Y270550D02*
D03*
Y283250D02*
D03*
X-51750Y181650D02*
D03*
Y194350D02*
D03*
Y232450D02*
D03*
Y245150D02*
D03*
X-77150Y80050D02*
D03*
Y92750D02*
D03*
Y105450D02*
D03*
Y118150D02*
D03*
Y130850D02*
D03*
Y143550D02*
D03*
Y156250D02*
D03*
Y168950D02*
D03*
Y181650D02*
D03*
Y194350D02*
D03*
Y207050D02*
D03*
Y219750D02*
D03*
Y232450D02*
D03*
Y245150D02*
D03*
Y257850D02*
D03*
Y270550D02*
D03*
Y283250D02*
D03*
Y295950D02*
D03*
Y308650D02*
D03*
Y321350D02*
D03*
Y334050D02*
D03*
Y346750D02*
D03*
Y359450D02*
D03*
Y372150D02*
D03*
Y384850D02*
D03*
Y397550D02*
D03*
Y410250D02*
D03*
Y422950D02*
D03*
Y435650D02*
D03*
Y448350D02*
D03*
Y461050D02*
D03*
Y473750D02*
D03*
Y486450D02*
D03*
Y499150D02*
D03*
Y511850D02*
D03*
Y524550D02*
D03*
Y537250D02*
D03*
Y549950D02*
D03*
Y562650D02*
D03*
Y67350D02*
D03*
X-64450D02*
D03*
Y80050D02*
D03*
Y92750D02*
D03*
Y105450D02*
D03*
Y118150D02*
D03*
Y130850D02*
D03*
Y143550D02*
D03*
Y156250D02*
D03*
Y168950D02*
D03*
Y181650D02*
D03*
Y194350D02*
D03*
Y207050D02*
D03*
Y219750D02*
D03*
Y232450D02*
D03*
Y245150D02*
D03*
Y257850D02*
D03*
Y270550D02*
D03*
Y283250D02*
D03*
Y295950D02*
D03*
Y308650D02*
D03*
Y321350D02*
D03*
Y334050D02*
D03*
Y346750D02*
D03*
Y359450D02*
D03*
Y372150D02*
D03*
Y384850D02*
D03*
Y397550D02*
D03*
Y410250D02*
D03*
Y422950D02*
D03*
Y435650D02*
D03*
Y448350D02*
D03*
Y461050D02*
D03*
Y473750D02*
D03*
Y486450D02*
D03*
Y499150D02*
D03*
Y511850D02*
D03*
Y524550D02*
D03*
Y537250D02*
D03*
Y549950D02*
D03*
Y562650D02*
D03*
X-51750Y67350D02*
D03*
Y80050D02*
D03*
Y92750D02*
D03*
Y105450D02*
D03*
Y118150D02*
D03*
Y130850D02*
D03*
Y143550D02*
D03*
Y156250D02*
D03*
Y168950D02*
D03*
Y207050D02*
D03*
Y219750D02*
D03*
Y257850D02*
D03*
Y270550D02*
D03*
Y283250D02*
D03*
Y295950D02*
D03*
Y308650D02*
D03*
Y321350D02*
D03*
Y334050D02*
D03*
Y346750D02*
D03*
Y359450D02*
D03*
Y372150D02*
D03*
Y384850D02*
D03*
Y397550D02*
D03*
Y410250D02*
D03*
Y422950D02*
D03*
Y435650D02*
D03*
Y448350D02*
D03*
Y461050D02*
D03*
Y473750D02*
D03*
Y486450D02*
D03*
Y499150D02*
D03*
Y511850D02*
D03*
Y524550D02*
D03*
Y537250D02*
D03*
Y549950D02*
D03*
Y562650D02*
D03*
X-39050Y80050D02*
D03*
Y92750D02*
D03*
Y105450D02*
D03*
Y118150D02*
D03*
Y130850D02*
D03*
Y143550D02*
D03*
Y156250D02*
D03*
Y168950D02*
D03*
Y181650D02*
D03*
Y219750D02*
D03*
Y232450D02*
D03*
Y257850D02*
D03*
Y295950D02*
D03*
Y308650D02*
D03*
Y321350D02*
D03*
Y334050D02*
D03*
Y346750D02*
D03*
Y359450D02*
D03*
Y372150D02*
D03*
Y384850D02*
D03*
Y397550D02*
D03*
Y410250D02*
D03*
Y422950D02*
D03*
Y435650D02*
D03*
Y448350D02*
D03*
Y461050D02*
D03*
Y473750D02*
D03*
Y486450D02*
D03*
Y499150D02*
D03*
Y511850D02*
D03*
Y524550D02*
D03*
Y537250D02*
D03*
Y549950D02*
D03*
Y562650D02*
D03*
X-26350Y67350D02*
D03*
Y80050D02*
D03*
Y92750D02*
D03*
Y105450D02*
D03*
Y118150D02*
D03*
Y130850D02*
D03*
Y143550D02*
D03*
Y156250D02*
D03*
Y168950D02*
D03*
Y181650D02*
D03*
Y194350D02*
D03*
Y207050D02*
D03*
Y219750D02*
D03*
Y232450D02*
D03*
Y245150D02*
D03*
Y257850D02*
D03*
Y270550D02*
D03*
Y283250D02*
D03*
Y295950D02*
D03*
Y308650D02*
D03*
Y321350D02*
D03*
Y334050D02*
D03*
Y346750D02*
D03*
Y359450D02*
D03*
Y372150D02*
D03*
Y384850D02*
D03*
Y397550D02*
D03*
Y410250D02*
D03*
Y422950D02*
D03*
Y435650D02*
D03*
Y448350D02*
D03*
Y461050D02*
D03*
Y473750D02*
D03*
Y486450D02*
D03*
Y499150D02*
D03*
Y511850D02*
D03*
Y524550D02*
D03*
Y537250D02*
D03*
Y549950D02*
D03*
Y562650D02*
D03*
X-13650Y67350D02*
D03*
Y80050D02*
D03*
Y92750D02*
D03*
Y105450D02*
D03*
Y118150D02*
D03*
Y130850D02*
D03*
Y143550D02*
D03*
Y156250D02*
D03*
Y168950D02*
D03*
Y181650D02*
D03*
Y194350D02*
D03*
Y207050D02*
D03*
Y219750D02*
D03*
Y232450D02*
D03*
Y245150D02*
D03*
Y257850D02*
D03*
Y270550D02*
D03*
Y283250D02*
D03*
Y295950D02*
D03*
Y308650D02*
D03*
Y321350D02*
D03*
Y334050D02*
D03*
Y346750D02*
D03*
Y359450D02*
D03*
Y372150D02*
D03*
Y384850D02*
D03*
Y397550D02*
D03*
Y410250D02*
D03*
Y422950D02*
D03*
Y435650D02*
D03*
Y448350D02*
D03*
Y461050D02*
D03*
Y473750D02*
D03*
Y486450D02*
D03*
Y499150D02*
D03*
Y511850D02*
D03*
Y524550D02*
D03*
Y537250D02*
D03*
Y549950D02*
D03*
Y562650D02*
D03*
X-39050Y67350D02*
D03*
X-950D02*
D03*
Y80050D02*
D03*
Y92750D02*
D03*
Y105450D02*
D03*
Y118150D02*
D03*
Y130850D02*
D03*
Y143550D02*
D03*
Y156250D02*
D03*
Y168950D02*
D03*
Y181650D02*
D03*
Y194350D02*
D03*
Y207050D02*
D03*
Y219750D02*
D03*
Y232450D02*
D03*
Y245150D02*
D03*
Y257850D02*
D03*
Y270550D02*
D03*
Y283250D02*
D03*
Y295950D02*
D03*
Y308650D02*
D03*
Y321350D02*
D03*
Y334050D02*
D03*
Y346750D02*
D03*
Y359450D02*
D03*
Y372150D02*
D03*
Y384850D02*
D03*
Y397550D02*
D03*
Y410250D02*
D03*
Y422950D02*
D03*
Y435650D02*
D03*
Y448350D02*
D03*
Y461050D02*
D03*
Y473750D02*
D03*
Y486450D02*
D03*
Y499150D02*
D03*
Y511850D02*
D03*
Y524550D02*
D03*
Y537250D02*
D03*
Y549950D02*
D03*
Y562650D02*
D03*
X11750Y67350D02*
D03*
Y80050D02*
D03*
Y92750D02*
D03*
Y105450D02*
D03*
Y118150D02*
D03*
Y130850D02*
D03*
Y143550D02*
D03*
Y156250D02*
D03*
Y168950D02*
D03*
Y181650D02*
D03*
Y194350D02*
D03*
Y207050D02*
D03*
Y219750D02*
D03*
Y232450D02*
D03*
Y245150D02*
D03*
Y257850D02*
D03*
Y270550D02*
D03*
Y283250D02*
D03*
Y295950D02*
D03*
Y308650D02*
D03*
Y321350D02*
D03*
Y334050D02*
D03*
Y346750D02*
D03*
Y359450D02*
D03*
Y372150D02*
D03*
Y384850D02*
D03*
Y397550D02*
D03*
Y410250D02*
D03*
Y422950D02*
D03*
Y435650D02*
D03*
Y448350D02*
D03*
Y461050D02*
D03*
Y473750D02*
D03*
Y486450D02*
D03*
Y499150D02*
D03*
Y511850D02*
D03*
Y524550D02*
D03*
Y537250D02*
D03*
Y549950D02*
D03*
Y562650D02*
D03*
X24450Y67350D02*
D03*
Y80050D02*
D03*
Y92750D02*
D03*
Y105450D02*
D03*
Y118150D02*
D03*
Y130850D02*
D03*
Y143550D02*
D03*
Y156250D02*
D03*
Y168950D02*
D03*
Y181650D02*
D03*
Y194350D02*
D03*
Y207050D02*
D03*
Y219750D02*
D03*
Y232450D02*
D03*
Y245150D02*
D03*
Y257850D02*
D03*
Y270550D02*
D03*
Y283250D02*
D03*
Y295950D02*
D03*
Y308650D02*
D03*
Y321350D02*
D03*
Y334050D02*
D03*
Y346750D02*
D03*
Y359450D02*
D03*
Y372150D02*
D03*
Y384850D02*
D03*
Y397550D02*
D03*
Y410250D02*
D03*
Y422950D02*
D03*
Y435650D02*
D03*
Y448350D02*
D03*
Y461050D02*
D03*
Y473750D02*
D03*
Y486450D02*
D03*
Y499150D02*
D03*
Y511850D02*
D03*
Y524550D02*
D03*
Y537250D02*
D03*
Y549950D02*
D03*
Y562650D02*
D03*
X37150Y67350D02*
D03*
Y80050D02*
D03*
Y92750D02*
D03*
Y105450D02*
D03*
Y118150D02*
D03*
Y130850D02*
D03*
Y143550D02*
D03*
Y156250D02*
D03*
Y168950D02*
D03*
Y181650D02*
D03*
Y194350D02*
D03*
Y207050D02*
D03*
Y219750D02*
D03*
Y232450D02*
D03*
Y245150D02*
D03*
Y257850D02*
D03*
Y270550D02*
D03*
Y283250D02*
D03*
Y295950D02*
D03*
Y308650D02*
D03*
Y321350D02*
D03*
Y334050D02*
D03*
Y346750D02*
D03*
Y359450D02*
D03*
Y372150D02*
D03*
Y384850D02*
D03*
Y397550D02*
D03*
Y410250D02*
D03*
Y422950D02*
D03*
Y435650D02*
D03*
Y448350D02*
D03*
Y461050D02*
D03*
Y473750D02*
D03*
Y486450D02*
D03*
Y499150D02*
D03*
Y511850D02*
D03*
Y524550D02*
D03*
Y537250D02*
D03*
Y549950D02*
D03*
Y562650D02*
D03*
D27*
X332500Y501000D02*
D03*
X345500D02*
D03*
X332500Y120000D02*
D03*
X345500D02*
D03*
X332500Y520686D02*
D03*
X345500D02*
D03*
X332500Y100000D02*
D03*
X345500D02*
D03*
D30*
X156250Y595000D02*
D03*
X163750D02*
D03*
X194099Y506135D02*
D03*
X201599D02*
D03*
X201544Y524942D02*
D03*
X194044D02*
D03*
X256658Y404254D02*
D03*
X249158D02*
D03*
X256571Y392617D02*
D03*
X249071D02*
D03*
X201874Y515154D02*
D03*
X194374D02*
D03*
X201590Y460000D02*
D03*
X194090D02*
D03*
X202052Y160000D02*
D03*
X194552D02*
D03*
X81250Y595000D02*
D03*
X88750D02*
D03*
X81250Y25000D02*
D03*
X88750D02*
D03*
X156250D02*
D03*
X163750D02*
D03*
X301938Y112940D02*
D03*
X294438D02*
D03*
X277575Y112871D02*
D03*
X285075D02*
D03*
X301916Y64722D02*
D03*
X294416D02*
D03*
X277968Y64764D02*
D03*
X285468D02*
D03*
X302339Y554198D02*
D03*
X294839D02*
D03*
X278814Y554133D02*
D03*
X286314D02*
D03*
X302586Y599765D02*
D03*
X295086D02*
D03*
X278402Y599818D02*
D03*
X285902D02*
D03*
X166250Y310000D02*
D03*
X173750D02*
D03*
D31*
X280160Y168806D02*
D03*
X272360D02*
D03*
X307100Y245000D02*
D03*
X314900D02*
D03*
D32*
X10500Y586900D02*
D03*
X-20000Y43100D02*
D03*
Y586800D02*
D03*
X-50500Y43200D02*
D03*
D33*
X460000Y160000D02*
D03*
Y460000D02*
D03*
D34*
X580000Y460000D02*
D03*
Y160000D02*
D03*
D35*
X175000Y60000D02*
D03*
Y360000D02*
D03*
D36*
Y260000D02*
D03*
Y560000D02*
D03*
D37*
X541000Y25000D02*
D03*
D38*
X579000Y583000D02*
D03*
Y33000D02*
D03*
Y315000D02*
D03*
X380000Y635000D02*
D03*
X200000Y-5000D02*
D03*
X-159000Y15000D02*
D03*
Y165000D02*
D03*
Y615000D02*
D03*
Y465000D02*
D03*
Y315000D02*
D03*
X200000Y635000D02*
D03*
D75*
X238387Y113260D02*
D03*
X245887D02*
D03*
X238521Y65244D02*
D03*
X246021D02*
D03*
X239480Y553424D02*
D03*
X246980D02*
D03*
X239351Y598638D02*
D03*
X246851D02*
D03*
D76*
X370113Y285814D02*
D03*
Y280214D02*
D03*
X229974Y359013D02*
D03*
Y364613D02*
D03*
D77*
X363000Y280250D02*
D03*
Y285750D02*
D03*
X237147Y364493D02*
D03*
Y358993D02*
D03*
X307000Y170750D02*
D03*
Y165250D02*
D03*
X298000Y170750D02*
D03*
Y165250D02*
D03*
X289000Y170750D02*
D03*
Y165250D02*
D03*
X316000Y170750D02*
D03*
Y165250D02*
D03*
X296069Y244144D02*
D03*
Y249644D02*
D03*
D78*
X368750Y360000D02*
D03*
X363250D02*
D03*
X233000Y271000D02*
D03*
X238500D02*
D03*
X368752Y270523D02*
D03*
X363252D02*
D03*
X230364Y351620D02*
D03*
X235863D02*
D03*
X344250Y231000D02*
D03*
X349750D02*
D03*
X344205Y214613D02*
D03*
X349705D02*
D03*
X344250Y206000D02*
D03*
X349750D02*
D03*
X344250Y223000D02*
D03*
X349750D02*
D03*
X270250Y243000D02*
D03*
X275750D02*
D03*
X270141Y254326D02*
D03*
X275641D02*
D03*
D79*
X258200Y243000D02*
D03*
X263800D02*
D03*
X257782Y254430D02*
D03*
X263382D02*
D03*
D80*
X251000Y224750D02*
D03*
Y217250D02*
D03*
D81*
X317000Y186000D02*
D03*
Y196000D02*
D03*
Y206000D02*
D03*
Y216000D02*
D03*
Y226000D02*
D03*
X307000Y186000D02*
D03*
Y196000D02*
D03*
Y206000D02*
D03*
Y216000D02*
D03*
Y226000D02*
D03*
X297000Y186000D02*
D03*
Y196000D02*
D03*
Y206000D02*
D03*
Y216000D02*
D03*
Y226000D02*
D03*
X287000Y186000D02*
D03*
Y196000D02*
D03*
Y206000D02*
D03*
Y216000D02*
D03*
Y226000D02*
D03*
X277000Y186000D02*
D03*
Y196000D02*
D03*
Y206000D02*
D03*
Y216000D02*
D03*
D82*
X227796Y341235D02*
D03*
Y333735D02*
D03*
X247572Y419979D02*
D03*
Y427479D02*
D03*
X372347Y338540D02*
D03*
Y346040D02*
D03*
X311658Y112146D02*
D03*
Y104646D02*
D03*
Y87617D02*
D03*
Y95117D02*
D03*
X312617Y63581D02*
D03*
Y56081D02*
D03*
Y39284D02*
D03*
Y46784D02*
D03*
X312143Y598084D02*
D03*
Y590584D02*
D03*
Y573866D02*
D03*
Y581366D02*
D03*
X312151Y551251D02*
D03*
Y543751D02*
D03*
X312058Y527125D02*
D03*
Y534625D02*
D03*
D83*
X324000Y430050D02*
D03*
Y417350D02*
D03*
Y404650D02*
D03*
Y391950D02*
D03*
X276000Y430050D02*
D03*
Y417350D02*
D03*
Y404650D02*
D03*
Y391950D02*
D03*
D84*
X257577Y427467D02*
D03*
Y419667D02*
D03*
X236650Y333450D02*
D03*
Y341250D02*
D03*
X363581Y345950D02*
D03*
Y338150D02*
D03*
X238032Y102693D02*
D03*
Y94893D02*
D03*
X238470Y54361D02*
D03*
Y46561D02*
D03*
X238032Y77340D02*
D03*
Y85140D02*
D03*
X238630Y28990D02*
D03*
Y36790D02*
D03*
X239075Y543646D02*
D03*
Y535845D02*
D03*
X239217Y518786D02*
D03*
Y526586D02*
D03*
X239545Y589963D02*
D03*
Y582163D02*
D03*
X239599Y565110D02*
D03*
Y572910D02*
D03*
X345024Y194728D02*
D03*
Y186928D02*
D03*
D85*
X345750Y359450D02*
D03*
Y346750D02*
D03*
Y334050D02*
D03*
Y321350D02*
D03*
Y308650D02*
D03*
Y295950D02*
D03*
Y283250D02*
D03*
Y270550D02*
D03*
X254250Y359450D02*
D03*
Y346750D02*
D03*
Y334050D02*
D03*
Y321350D02*
D03*
Y308650D02*
D03*
Y295950D02*
D03*
Y283250D02*
D03*
Y270550D02*
D03*
D86*
X222781Y81068D02*
D03*
Y109568D02*
D03*
X223152Y33037D02*
D03*
Y61537D02*
D03*
X223742Y520969D02*
D03*
Y549469D02*
D03*
X223730Y566860D02*
D03*
Y595360D02*
D03*
D87*
X295318Y100003D02*
D03*
Y90003D02*
D03*
Y85003D02*
D03*
Y80003D02*
D03*
X254318Y90003D02*
D03*
Y85003D02*
D03*
Y80003D02*
D03*
Y100003D02*
D03*
Y95003D02*
D03*
X295318D02*
D03*
X296000Y531000D02*
D03*
Y526000D02*
D03*
Y521000D02*
D03*
X255000Y531000D02*
D03*
Y526000D02*
D03*
Y521000D02*
D03*
Y541000D02*
D03*
X296000D02*
D03*
X255000Y536000D02*
D03*
X296000D02*
D03*
X296062Y586425D02*
D03*
Y581425D02*
D03*
Y576425D02*
D03*
Y571425D02*
D03*
Y566425D02*
D03*
X255062Y576425D02*
D03*
Y571425D02*
D03*
Y566425D02*
D03*
Y586425D02*
D03*
Y581425D02*
D03*
X295915Y51967D02*
D03*
Y46967D02*
D03*
Y41967D02*
D03*
Y36967D02*
D03*
Y31967D02*
D03*
X254915Y41967D02*
D03*
Y36967D02*
D03*
Y31967D02*
D03*
Y51967D02*
D03*
Y46967D02*
D03*
M02*
