G04*
G04 #@! TF.GenerationSoftware,Altium Limited,Altium NEXUS,4.1.1 (18)*
G04*
G04 Layer_Color=128*
%FSLAX44Y44*%
%MOMM*%
G71*
G04*
G04 #@! TF.SameCoordinates,414CCE93-DEC9-4F78-9D08-55E8399EB41D*
G04*
G04*
G04 #@! TF.FilePolarity,Positive*
G04*
G01*
G75*
%ADD14C,0.6400*%
%ADD15R,0.8500X0.9000*%
%ADD18R,0.5000X0.4500*%
%ADD22R,0.5600X0.5200*%
%ADD62R,0.5500X0.5000*%
%ADD63R,0.3200X0.3600*%
%ADD64R,0.2500X0.3500*%
%ADD65R,0.3500X0.2500*%
%ADD66R,0.3600X0.3200*%
%ADD67R,0.4500X0.5500*%
%ADD68C,0.3500*%
%ADD69R,0.4500X0.5000*%
%ADD70O,2.2000X0.6000*%
%ADD71R,0.5200X0.5600*%
%ADD72O,2.1000X0.6000*%
%ADD73R,1.7000X1.0500*%
%ADD74O,1.8000X0.3000*%
D14*
X-39050Y194350D02*
D03*
Y207050D02*
D03*
Y245150D02*
D03*
Y270550D02*
D03*
Y283250D02*
D03*
X-51750Y181650D02*
D03*
Y194350D02*
D03*
Y232450D02*
D03*
Y245150D02*
D03*
X-77150Y80050D02*
D03*
Y92750D02*
D03*
Y105450D02*
D03*
Y118150D02*
D03*
Y130850D02*
D03*
Y143550D02*
D03*
Y156250D02*
D03*
Y168950D02*
D03*
Y181650D02*
D03*
Y194350D02*
D03*
Y207050D02*
D03*
Y219750D02*
D03*
Y232450D02*
D03*
Y245150D02*
D03*
Y257850D02*
D03*
Y270550D02*
D03*
Y283250D02*
D03*
Y295950D02*
D03*
Y308650D02*
D03*
Y321350D02*
D03*
Y334050D02*
D03*
Y346750D02*
D03*
Y359450D02*
D03*
Y372150D02*
D03*
Y384850D02*
D03*
Y397550D02*
D03*
Y410250D02*
D03*
Y422950D02*
D03*
Y435650D02*
D03*
Y448350D02*
D03*
Y461050D02*
D03*
Y473750D02*
D03*
Y486450D02*
D03*
Y499150D02*
D03*
Y511850D02*
D03*
Y524550D02*
D03*
Y537250D02*
D03*
Y549950D02*
D03*
Y562650D02*
D03*
Y67350D02*
D03*
X-64450D02*
D03*
Y80050D02*
D03*
Y92750D02*
D03*
Y105450D02*
D03*
Y118150D02*
D03*
Y130850D02*
D03*
Y143550D02*
D03*
Y156250D02*
D03*
Y168950D02*
D03*
Y181650D02*
D03*
Y194350D02*
D03*
Y207050D02*
D03*
Y219750D02*
D03*
Y232450D02*
D03*
Y245150D02*
D03*
Y257850D02*
D03*
Y270550D02*
D03*
Y283250D02*
D03*
Y295950D02*
D03*
Y308650D02*
D03*
Y321350D02*
D03*
Y334050D02*
D03*
Y346750D02*
D03*
Y359450D02*
D03*
Y372150D02*
D03*
Y384850D02*
D03*
Y397550D02*
D03*
Y410250D02*
D03*
Y422950D02*
D03*
Y435650D02*
D03*
Y448350D02*
D03*
Y461050D02*
D03*
Y473750D02*
D03*
Y486450D02*
D03*
Y499150D02*
D03*
Y511850D02*
D03*
Y524550D02*
D03*
Y537250D02*
D03*
Y549950D02*
D03*
Y562650D02*
D03*
X-51750Y67350D02*
D03*
Y80050D02*
D03*
Y92750D02*
D03*
Y105450D02*
D03*
Y118150D02*
D03*
Y130850D02*
D03*
Y143550D02*
D03*
Y156250D02*
D03*
Y168950D02*
D03*
Y207050D02*
D03*
Y219750D02*
D03*
Y257850D02*
D03*
Y270550D02*
D03*
Y283250D02*
D03*
Y295950D02*
D03*
Y308650D02*
D03*
Y321350D02*
D03*
Y334050D02*
D03*
Y346750D02*
D03*
Y359450D02*
D03*
Y372150D02*
D03*
Y384850D02*
D03*
Y397550D02*
D03*
Y410250D02*
D03*
Y422950D02*
D03*
Y435650D02*
D03*
Y448350D02*
D03*
Y461050D02*
D03*
Y473750D02*
D03*
Y486450D02*
D03*
Y499150D02*
D03*
Y511850D02*
D03*
Y524550D02*
D03*
Y537250D02*
D03*
Y549950D02*
D03*
Y562650D02*
D03*
X-39050Y80050D02*
D03*
Y92750D02*
D03*
Y105450D02*
D03*
Y118150D02*
D03*
Y130850D02*
D03*
Y143550D02*
D03*
Y156250D02*
D03*
Y168950D02*
D03*
Y181650D02*
D03*
Y219750D02*
D03*
Y232450D02*
D03*
Y257850D02*
D03*
Y295950D02*
D03*
Y308650D02*
D03*
Y321350D02*
D03*
Y334050D02*
D03*
Y346750D02*
D03*
Y359450D02*
D03*
Y372150D02*
D03*
Y384850D02*
D03*
Y397550D02*
D03*
Y410250D02*
D03*
Y422950D02*
D03*
Y435650D02*
D03*
Y448350D02*
D03*
Y461050D02*
D03*
Y473750D02*
D03*
Y486450D02*
D03*
Y499150D02*
D03*
Y511850D02*
D03*
Y524550D02*
D03*
Y537250D02*
D03*
Y549950D02*
D03*
Y562650D02*
D03*
X-26350Y67350D02*
D03*
Y80050D02*
D03*
Y92750D02*
D03*
Y105450D02*
D03*
Y118150D02*
D03*
Y130850D02*
D03*
Y143550D02*
D03*
Y156250D02*
D03*
Y168950D02*
D03*
Y181650D02*
D03*
Y194350D02*
D03*
Y207050D02*
D03*
Y219750D02*
D03*
Y232450D02*
D03*
Y245150D02*
D03*
Y257850D02*
D03*
Y270550D02*
D03*
Y283250D02*
D03*
Y295950D02*
D03*
Y308650D02*
D03*
Y321350D02*
D03*
Y334050D02*
D03*
Y346750D02*
D03*
Y359450D02*
D03*
Y372150D02*
D03*
Y384850D02*
D03*
Y397550D02*
D03*
Y410250D02*
D03*
Y422950D02*
D03*
Y435650D02*
D03*
Y448350D02*
D03*
Y461050D02*
D03*
Y473750D02*
D03*
Y486450D02*
D03*
Y499150D02*
D03*
Y511850D02*
D03*
Y524550D02*
D03*
Y537250D02*
D03*
Y549950D02*
D03*
Y562650D02*
D03*
X-13650Y67350D02*
D03*
Y80050D02*
D03*
Y92750D02*
D03*
Y105450D02*
D03*
Y118150D02*
D03*
Y130850D02*
D03*
Y143550D02*
D03*
Y156250D02*
D03*
Y168950D02*
D03*
Y181650D02*
D03*
Y194350D02*
D03*
Y207050D02*
D03*
Y219750D02*
D03*
Y232450D02*
D03*
Y245150D02*
D03*
Y257850D02*
D03*
Y270550D02*
D03*
Y283250D02*
D03*
Y295950D02*
D03*
Y308650D02*
D03*
Y321350D02*
D03*
Y334050D02*
D03*
Y346750D02*
D03*
Y359450D02*
D03*
Y372150D02*
D03*
Y384850D02*
D03*
Y397550D02*
D03*
Y410250D02*
D03*
Y422950D02*
D03*
Y435650D02*
D03*
Y448350D02*
D03*
Y461050D02*
D03*
Y473750D02*
D03*
Y486450D02*
D03*
Y499150D02*
D03*
Y511850D02*
D03*
Y524550D02*
D03*
Y537250D02*
D03*
Y549950D02*
D03*
Y562650D02*
D03*
X-39050Y67350D02*
D03*
X-950D02*
D03*
Y80050D02*
D03*
Y92750D02*
D03*
Y105450D02*
D03*
Y118150D02*
D03*
Y130850D02*
D03*
Y143550D02*
D03*
Y156250D02*
D03*
Y168950D02*
D03*
Y181650D02*
D03*
Y194350D02*
D03*
Y207050D02*
D03*
Y219750D02*
D03*
Y232450D02*
D03*
Y245150D02*
D03*
Y257850D02*
D03*
Y270550D02*
D03*
Y283250D02*
D03*
Y295950D02*
D03*
Y308650D02*
D03*
Y321350D02*
D03*
Y334050D02*
D03*
Y346750D02*
D03*
Y359450D02*
D03*
Y372150D02*
D03*
Y384850D02*
D03*
Y397550D02*
D03*
Y410250D02*
D03*
Y422950D02*
D03*
Y435650D02*
D03*
Y448350D02*
D03*
Y461050D02*
D03*
Y473750D02*
D03*
Y486450D02*
D03*
Y499150D02*
D03*
Y511850D02*
D03*
Y524550D02*
D03*
Y537250D02*
D03*
Y549950D02*
D03*
Y562650D02*
D03*
X11750Y67350D02*
D03*
Y80050D02*
D03*
Y92750D02*
D03*
Y105450D02*
D03*
Y118150D02*
D03*
Y130850D02*
D03*
Y143550D02*
D03*
Y156250D02*
D03*
Y168950D02*
D03*
Y181650D02*
D03*
Y194350D02*
D03*
Y207050D02*
D03*
Y219750D02*
D03*
Y232450D02*
D03*
Y245150D02*
D03*
Y257850D02*
D03*
Y270550D02*
D03*
Y283250D02*
D03*
Y295950D02*
D03*
Y308650D02*
D03*
Y321350D02*
D03*
Y334050D02*
D03*
Y346750D02*
D03*
Y359450D02*
D03*
Y372150D02*
D03*
Y384850D02*
D03*
Y397550D02*
D03*
Y410250D02*
D03*
Y422950D02*
D03*
Y435650D02*
D03*
Y448350D02*
D03*
Y461050D02*
D03*
Y473750D02*
D03*
Y486450D02*
D03*
Y499150D02*
D03*
Y511850D02*
D03*
Y524550D02*
D03*
Y537250D02*
D03*
Y549950D02*
D03*
Y562650D02*
D03*
X24450Y67350D02*
D03*
Y80050D02*
D03*
Y92750D02*
D03*
Y105450D02*
D03*
Y118150D02*
D03*
Y130850D02*
D03*
Y143550D02*
D03*
Y156250D02*
D03*
Y168950D02*
D03*
Y181650D02*
D03*
Y194350D02*
D03*
Y207050D02*
D03*
Y219750D02*
D03*
Y232450D02*
D03*
Y245150D02*
D03*
Y257850D02*
D03*
Y270550D02*
D03*
Y283250D02*
D03*
Y295950D02*
D03*
Y308650D02*
D03*
Y321350D02*
D03*
Y334050D02*
D03*
Y346750D02*
D03*
Y359450D02*
D03*
Y372150D02*
D03*
Y384850D02*
D03*
Y397550D02*
D03*
Y410250D02*
D03*
Y422950D02*
D03*
Y435650D02*
D03*
Y448350D02*
D03*
Y461050D02*
D03*
Y473750D02*
D03*
Y486450D02*
D03*
Y499150D02*
D03*
Y511850D02*
D03*
Y524550D02*
D03*
Y537250D02*
D03*
Y549950D02*
D03*
Y562650D02*
D03*
X37150Y67350D02*
D03*
Y80050D02*
D03*
Y92750D02*
D03*
Y105450D02*
D03*
Y118150D02*
D03*
Y130850D02*
D03*
Y143550D02*
D03*
Y156250D02*
D03*
Y168950D02*
D03*
Y181650D02*
D03*
Y194350D02*
D03*
Y207050D02*
D03*
Y219750D02*
D03*
Y232450D02*
D03*
Y245150D02*
D03*
Y257850D02*
D03*
Y270550D02*
D03*
Y283250D02*
D03*
Y295950D02*
D03*
Y308650D02*
D03*
Y321350D02*
D03*
Y334050D02*
D03*
Y346750D02*
D03*
Y359450D02*
D03*
Y372150D02*
D03*
Y384850D02*
D03*
Y397550D02*
D03*
Y410250D02*
D03*
Y422950D02*
D03*
Y435650D02*
D03*
Y448350D02*
D03*
Y461050D02*
D03*
Y473750D02*
D03*
Y486450D02*
D03*
Y499150D02*
D03*
Y511850D02*
D03*
Y524550D02*
D03*
Y537250D02*
D03*
Y549950D02*
D03*
Y562650D02*
D03*
D15*
X332500Y501000D02*
D03*
X345500D02*
D03*
X332500Y120000D02*
D03*
X345500D02*
D03*
X332500Y520686D02*
D03*
X345500D02*
D03*
X332500Y100000D02*
D03*
X345500D02*
D03*
D18*
X156250Y595000D02*
D03*
X163750D02*
D03*
X194099Y506135D02*
D03*
X201599D02*
D03*
X201544Y524942D02*
D03*
X194044D02*
D03*
X256658Y404254D02*
D03*
X249158D02*
D03*
X256571Y392617D02*
D03*
X249071D02*
D03*
X201874Y515154D02*
D03*
X194374D02*
D03*
X201590Y460000D02*
D03*
X194090D02*
D03*
X202052Y160000D02*
D03*
X194552D02*
D03*
X81250Y595000D02*
D03*
X88750D02*
D03*
X81250Y25000D02*
D03*
X88750D02*
D03*
X156250D02*
D03*
X163750D02*
D03*
X301938Y112940D02*
D03*
X294438D02*
D03*
X277575Y112871D02*
D03*
X285075D02*
D03*
X301916Y64722D02*
D03*
X294416D02*
D03*
X277968Y64764D02*
D03*
X285468D02*
D03*
X302339Y554198D02*
D03*
X294839D02*
D03*
X278814Y554133D02*
D03*
X286314D02*
D03*
X302586Y599765D02*
D03*
X295086D02*
D03*
X278402Y599818D02*
D03*
X285902D02*
D03*
X166250Y310000D02*
D03*
X173750D02*
D03*
D22*
X280160Y168806D02*
D03*
X272360D02*
D03*
X307100Y245000D02*
D03*
X314900D02*
D03*
D62*
X238387Y113260D02*
D03*
X245887D02*
D03*
X238521Y65244D02*
D03*
X246021D02*
D03*
X239480Y553424D02*
D03*
X246980D02*
D03*
X239351Y598638D02*
D03*
X246851D02*
D03*
D63*
X370113Y285814D02*
D03*
Y280214D02*
D03*
X229974Y359013D02*
D03*
Y364613D02*
D03*
D64*
X363000Y280250D02*
D03*
Y285750D02*
D03*
X237147Y364493D02*
D03*
Y358993D02*
D03*
X307000Y170750D02*
D03*
Y165250D02*
D03*
X298000Y170750D02*
D03*
Y165250D02*
D03*
X289000Y170750D02*
D03*
Y165250D02*
D03*
X316000Y170750D02*
D03*
Y165250D02*
D03*
X296069Y244144D02*
D03*
Y249644D02*
D03*
D65*
X368750Y360000D02*
D03*
X363250D02*
D03*
X233000Y271000D02*
D03*
X238500D02*
D03*
X368752Y270523D02*
D03*
X363252D02*
D03*
X230364Y351620D02*
D03*
X235863D02*
D03*
X344250Y231000D02*
D03*
X349750D02*
D03*
X344205Y214613D02*
D03*
X349705D02*
D03*
X344250Y206000D02*
D03*
X349750D02*
D03*
X344250Y223000D02*
D03*
X349750D02*
D03*
X270250Y243000D02*
D03*
X275750D02*
D03*
X270141Y254326D02*
D03*
X275641D02*
D03*
D66*
X258200Y243000D02*
D03*
X263800D02*
D03*
X257782Y254430D02*
D03*
X263382D02*
D03*
D67*
X251000Y224750D02*
D03*
Y217250D02*
D03*
D68*
X317000Y186000D02*
D03*
Y196000D02*
D03*
Y206000D02*
D03*
Y216000D02*
D03*
Y226000D02*
D03*
X307000Y186000D02*
D03*
Y196000D02*
D03*
Y206000D02*
D03*
Y216000D02*
D03*
Y226000D02*
D03*
X297000Y186000D02*
D03*
Y196000D02*
D03*
Y206000D02*
D03*
Y216000D02*
D03*
Y226000D02*
D03*
X287000Y186000D02*
D03*
Y196000D02*
D03*
Y206000D02*
D03*
Y216000D02*
D03*
Y226000D02*
D03*
X277000Y186000D02*
D03*
Y196000D02*
D03*
Y206000D02*
D03*
Y216000D02*
D03*
D69*
X227796Y341235D02*
D03*
Y333735D02*
D03*
X247572Y419979D02*
D03*
Y427479D02*
D03*
X372347Y338540D02*
D03*
Y346040D02*
D03*
X311658Y112146D02*
D03*
Y104646D02*
D03*
Y87617D02*
D03*
Y95117D02*
D03*
X312617Y63581D02*
D03*
Y56081D02*
D03*
Y39284D02*
D03*
Y46784D02*
D03*
X312143Y598084D02*
D03*
Y590584D02*
D03*
Y573866D02*
D03*
Y581366D02*
D03*
X312151Y551251D02*
D03*
Y543751D02*
D03*
X312058Y527125D02*
D03*
Y534625D02*
D03*
D70*
X324000Y430050D02*
D03*
Y417350D02*
D03*
Y404650D02*
D03*
Y391950D02*
D03*
X276000Y430050D02*
D03*
Y417350D02*
D03*
Y404650D02*
D03*
Y391950D02*
D03*
D71*
X257577Y427467D02*
D03*
Y419667D02*
D03*
X236650Y333450D02*
D03*
Y341250D02*
D03*
X363581Y345950D02*
D03*
Y338150D02*
D03*
X238032Y102693D02*
D03*
Y94893D02*
D03*
X238470Y54361D02*
D03*
Y46561D02*
D03*
X238032Y77340D02*
D03*
Y85140D02*
D03*
X238630Y28990D02*
D03*
Y36790D02*
D03*
X239075Y543646D02*
D03*
Y535845D02*
D03*
X239217Y518786D02*
D03*
Y526586D02*
D03*
X239545Y589963D02*
D03*
Y582163D02*
D03*
X239599Y565110D02*
D03*
Y572910D02*
D03*
X345024Y194728D02*
D03*
Y186928D02*
D03*
D72*
X345750Y359450D02*
D03*
Y346750D02*
D03*
Y334050D02*
D03*
Y321350D02*
D03*
Y308650D02*
D03*
Y295950D02*
D03*
Y283250D02*
D03*
Y270550D02*
D03*
X254250Y359450D02*
D03*
Y346750D02*
D03*
Y334050D02*
D03*
Y321350D02*
D03*
Y308650D02*
D03*
Y295950D02*
D03*
Y283250D02*
D03*
Y270550D02*
D03*
D73*
X222781Y81068D02*
D03*
Y109568D02*
D03*
X223152Y33037D02*
D03*
Y61537D02*
D03*
X223742Y520969D02*
D03*
Y549469D02*
D03*
X223730Y566860D02*
D03*
Y595360D02*
D03*
D74*
X295318Y100003D02*
D03*
Y90003D02*
D03*
Y85003D02*
D03*
Y80003D02*
D03*
X254318Y90003D02*
D03*
Y85003D02*
D03*
Y80003D02*
D03*
Y100003D02*
D03*
Y95003D02*
D03*
X295318D02*
D03*
X296000Y531000D02*
D03*
Y526000D02*
D03*
Y521000D02*
D03*
X255000Y531000D02*
D03*
Y526000D02*
D03*
Y521000D02*
D03*
Y541000D02*
D03*
X296000D02*
D03*
X255000Y536000D02*
D03*
X296000D02*
D03*
X296062Y586425D02*
D03*
Y581425D02*
D03*
Y576425D02*
D03*
Y571425D02*
D03*
Y566425D02*
D03*
X255062Y576425D02*
D03*
Y571425D02*
D03*
Y566425D02*
D03*
Y586425D02*
D03*
Y581425D02*
D03*
X295915Y51967D02*
D03*
Y46967D02*
D03*
Y41967D02*
D03*
Y36967D02*
D03*
Y31967D02*
D03*
X254915Y41967D02*
D03*
Y36967D02*
D03*
Y31967D02*
D03*
Y51967D02*
D03*
Y46967D02*
D03*
M02*
