G04*
G04 #@! TF.GenerationSoftware,Altium Limited,Altium NEXUS,4.1.1 (18)*
G04*
G04 Layer_Color=32896*
%FSLAX44Y44*%
%MOMM*%
G71*
G04*
G04 #@! TF.SameCoordinates,414CCE93-DEC9-4F78-9D08-55E8399EB41D*
G04*
G04*
G04 #@! TF.FilePolarity,Positive*
G04*
G01*
G75*
%ADD11C,0.2500*%
%ADD13C,0.1250*%
%ADD42C,0.4000*%
%ADD88C,0.6000*%
G36*
X257000Y226000D02*
X267000Y236000D01*
X257000D01*
Y226000D01*
D02*
G37*
D11*
X259750Y242500D02*
G03*
X259750Y242500I-1250J0D01*
G01*
X325250Y438550D02*
G03*
X325250Y438550I-1250J0D01*
G01*
X296568Y107003D02*
G03*
X296568Y107003I-1250J0D01*
G01*
X297250Y548000D02*
G03*
X297250Y548000I-1250J0D01*
G01*
X297312Y593425D02*
G03*
X297312Y593425I-1250J0D01*
G01*
X297165Y58967D02*
G03*
X297165Y58967I-1250J0D01*
G01*
D13*
X337000Y176000D02*
Y236000D01*
X257000Y176000D02*
Y236000D01*
Y176000D02*
X337000D01*
X257000Y236000D02*
X337000D01*
X257000Y226000D02*
X267000Y236000D01*
X-85766Y593884D02*
X2500D01*
X17500D02*
X45805D01*
X53425Y78519D02*
Y551466D01*
X-93387Y78519D02*
Y551466D01*
Y43720D02*
Y78519D01*
Y43720D02*
X-85766Y36100D01*
X53425Y551466D02*
Y586264D01*
X45805Y593884D02*
X53425Y586264D01*
X-93387D02*
X-85766Y593884D01*
X-93387Y551466D02*
Y586264D01*
X-85766Y36100D02*
X-27601D01*
Y27210D02*
Y36100D01*
Y27210D02*
X-12361D01*
Y36100D01*
X45805D01*
X53425Y43720D01*
Y78519D01*
X309000Y386000D02*
Y436000D01*
X291000Y386000D02*
Y436000D01*
X309000D01*
X291000Y386000D02*
X309000D01*
X331250Y263500D02*
Y366500D01*
X268750Y263500D02*
Y366500D01*
X331250D01*
X268750Y263500D02*
X331250D01*
X230281Y90318D02*
Y100318D01*
X215281Y90318D02*
Y100318D01*
X230652Y42287D02*
Y52287D01*
X215652Y42287D02*
Y52287D01*
X282318Y74503D02*
Y105503D01*
X267318Y74503D02*
Y105503D01*
X282318D01*
X267318Y74503D02*
X282318D01*
X231242Y530219D02*
Y540219D01*
X216242Y530219D02*
Y540219D01*
X283000Y515500D02*
Y546500D01*
X268000Y515500D02*
Y546500D01*
X283000D01*
X268000Y515500D02*
X283000D01*
X231230Y576110D02*
Y586110D01*
X216230Y576110D02*
Y586110D01*
X283062Y560925D02*
Y591925D01*
X268062Y560925D02*
Y591925D01*
X283062D01*
X268062Y560925D02*
X283062D01*
X282915Y26467D02*
Y57467D01*
X267915Y26467D02*
Y57467D01*
X282915D01*
X267915Y26467D02*
X282915D01*
D42*
X303000Y428000D02*
G03*
X303000Y428000I-2000J0D01*
G01*
X528504Y549000D02*
X526005Y546501D01*
Y541502D01*
X528504Y539003D01*
X538501D01*
X541000Y541502D01*
Y546501D01*
X538501Y549000D01*
X528504D01*
X541000Y524008D02*
Y534005D01*
X531003Y524008D01*
X528504D01*
X526005Y526507D01*
Y531506D01*
X528504Y534005D01*
X541000Y519010D02*
X538501D01*
Y516511D01*
X541000D01*
Y519010D01*
Y496517D02*
Y506514D01*
X531003Y496517D01*
X528504D01*
X526005Y499016D01*
Y504015D01*
X528504Y506514D01*
Y491519D02*
X526005Y489019D01*
Y484021D01*
X528504Y481522D01*
X538501D01*
X541000Y484021D01*
Y489019D01*
X538501Y491519D01*
X528504D01*
X541000Y466527D02*
Y476524D01*
X531003Y466527D01*
X528504D01*
X526005Y469026D01*
Y474024D01*
X528504Y476524D01*
X541000Y461528D02*
Y456530D01*
Y459029D01*
X526005D01*
X528504Y461528D01*
X503005Y548000D02*
X513002D01*
X518000Y543002D01*
X513002Y538003D01*
X503005D01*
X518000Y525507D02*
Y530506D01*
X515501Y533005D01*
X510502D01*
X508003Y530506D01*
Y525507D01*
X510502Y523008D01*
X513002D01*
Y533005D01*
X508003Y518010D02*
X518000D01*
X513002D01*
X510502Y515510D01*
X508003Y513011D01*
Y510512D01*
X518000Y503014D02*
X515501D01*
Y500515D01*
X518000D01*
Y503014D01*
X508003Y490519D02*
Y488019D01*
X510502D01*
Y490519D01*
X508003D01*
X515501D02*
Y488019D01*
X518000D01*
Y490519D01*
X515501D01*
X518000Y478023D02*
X508003D01*
X503005Y473024D01*
X508003Y468026D01*
X518000D01*
X510502D01*
Y478023D01*
D88*
X324250Y356500D02*
G03*
X324250Y356500I-3000J0D01*
G01*
M02*
