G04*
G04 #@! TF.GenerationSoftware,Altium Limited,Altium NEXUS,4.1.1 (18)*
G04*
G04 Layer_Color=65535*
%FSLAX44Y44*%
%MOMM*%
G71*
G04*
G04 #@! TF.SameCoordinates,414CCE93-DEC9-4F78-9D08-55E8399EB41D*
G04*
G04*
G04 #@! TF.FilePolarity,Positive*
G04*
G01*
G75*
%ADD10C,0.3000*%
%ADD11C,0.2500*%
%ADD12C,0.2000*%
%ADD13C,0.1250*%
G36*
X231505Y421691D02*
X206505D01*
Y443691D01*
X231505D01*
Y421691D01*
D02*
G37*
G36*
X231533Y121835D02*
X206533D01*
Y143835D01*
X231533D01*
Y121835D01*
D02*
G37*
%LPC*%
G36*
X228665Y436902D02*
X209345D01*
Y433903D01*
X209670Y433778D01*
X209995Y433628D01*
X210570Y433278D01*
X211095Y432903D01*
X211570Y432503D01*
X211919Y432153D01*
X212094Y432003D01*
X212219Y431853D01*
X212319Y431728D01*
X212394Y431654D01*
X212419Y431604D01*
X212444Y431578D01*
X212894Y430954D01*
X213269Y430379D01*
X213594Y429854D01*
X213819Y429404D01*
X213994Y429029D01*
X214069Y428854D01*
X214119Y428729D01*
X214169Y428629D01*
X214194Y428554D01*
X214219Y428504D01*
Y428479D01*
X217568D01*
X217193Y429454D01*
X216743Y430379D01*
X216518Y430779D01*
X216293Y431179D01*
X216068Y431553D01*
X215844Y431878D01*
X215618Y432178D01*
X215444Y432453D01*
X215244Y432678D01*
X215094Y432878D01*
X214969Y433028D01*
X214869Y433128D01*
X214819Y433203D01*
X214794Y433228D01*
X228665D01*
Y428479D01*
D01*
Y436902D01*
D02*
G37*
G36*
X228693Y139283D02*
X225269D01*
Y131960D01*
X224919Y132185D01*
X224594Y132435D01*
X224470Y132535D01*
X224370Y132635D01*
X224294Y132685D01*
X224270Y132710D01*
X224170Y132810D01*
X224020Y132935D01*
X223720Y133260D01*
X223370Y133610D01*
X223020Y133985D01*
X222670Y134335D01*
X222395Y134635D01*
X222295Y134760D01*
X222220Y134834D01*
X222170Y134885D01*
X222145Y134909D01*
X221845Y135234D01*
X221570Y135509D01*
X221070Y136034D01*
X220646Y136434D01*
X220296Y136784D01*
X220021Y137034D01*
X219821Y137209D01*
X219721Y137309D01*
X219671Y137334D01*
X219196Y137684D01*
X218746Y137984D01*
X218346Y138234D01*
X217971Y138459D01*
X217671Y138609D01*
X217421Y138708D01*
X217271Y138784D01*
X217246Y138808D01*
X217221D01*
X216772Y138958D01*
X216347Y139083D01*
X215922Y139158D01*
X215547Y139233D01*
X215222Y139258D01*
X214972Y139283D01*
X216637D01*
X214747D01*
X214322Y139258D01*
X213922Y139208D01*
X213547Y139133D01*
X213172Y139033D01*
X212523Y138758D01*
X212248Y138633D01*
X211973Y138484D01*
X211723Y138309D01*
X211523Y138184D01*
X211348Y138034D01*
X211198Y137909D01*
X211073Y137809D01*
X210998Y137734D01*
X210948Y137684D01*
X210923Y137659D01*
X210648Y137334D01*
X210423Y137009D01*
X210198Y136634D01*
X210023Y136284D01*
X209873Y135909D01*
X209748Y135534D01*
X209573Y134810D01*
X209498Y134485D01*
X209448Y134185D01*
X209423Y133885D01*
X209398Y133660D01*
X209373Y133460D01*
Y133185D01*
X209398Y132710D01*
X209423Y132260D01*
X209498Y131810D01*
X209573Y131410D01*
X209673Y131035D01*
X209798Y130686D01*
X209923Y130336D01*
X210023Y130061D01*
X210148Y129786D01*
X210273Y129536D01*
X210398Y129336D01*
X210498Y129161D01*
X210573Y129036D01*
X210648Y128936D01*
X210673Y128886D01*
X210698Y128861D01*
X210973Y128561D01*
X211273Y128286D01*
X211598Y128036D01*
X211948Y127811D01*
X212298Y127611D01*
X212673Y127461D01*
X213372Y127186D01*
X213722Y127086D01*
X214047Y127011D01*
X214322Y126937D01*
X214572Y126887D01*
X214772Y126861D01*
X214947Y126837D01*
X215047Y126812D01*
X215072D01*
X215422Y130486D01*
X214872Y130561D01*
X214397Y130661D01*
X213997Y130786D01*
X213672Y130911D01*
X213422Y131035D01*
X213247Y131160D01*
X213147Y131235D01*
X213122Y131260D01*
X212897Y131535D01*
X212722Y131835D01*
X212598Y132135D01*
X212498Y132435D01*
X212448Y132685D01*
X212423Y132885D01*
Y133085D01*
X212448Y133510D01*
X212523Y133860D01*
X212647Y134185D01*
X212747Y134435D01*
X212873Y134635D01*
X212997Y134784D01*
X213072Y134885D01*
X213097Y134909D01*
X213372Y135134D01*
X213672Y135309D01*
X213997Y135409D01*
X214297Y135509D01*
X214572Y135559D01*
X214797Y135584D01*
X214947D01*
X214972D01*
X214997D01*
X215422Y135559D01*
X215822Y135459D01*
X216197Y135334D01*
X216546Y135209D01*
X216821Y135059D01*
X217046Y134935D01*
X217196Y134834D01*
X217221Y134810D01*
X217246D01*
X217421Y134684D01*
X217621Y134510D01*
X217846Y134335D01*
X218096Y134110D01*
X218596Y133610D01*
X219121Y133085D01*
X219621Y132585D01*
X219821Y132360D01*
X220021Y132160D01*
X220171Y131985D01*
X220296Y131860D01*
X220371Y131785D01*
X220396Y131760D01*
X220920Y131210D01*
X221420Y130711D01*
X221895Y130236D01*
X222320Y129811D01*
X222745Y129436D01*
X223120Y129111D01*
X223470Y128811D01*
X223795Y128536D01*
X224070Y128311D01*
X224319Y128136D01*
X224520Y127986D01*
X224694Y127861D01*
X224844Y127761D01*
X224944Y127686D01*
X224994Y127661D01*
X225019Y127636D01*
X225669Y127286D01*
X226319Y127011D01*
X226944Y126787D01*
X227519Y126612D01*
X227769Y126562D01*
X227994Y126512D01*
X228193Y126462D01*
X228368Y126437D01*
X228493Y126412D01*
X228618Y126387D01*
X209373D01*
X228693D01*
Y139283D01*
D02*
G37*
%LPD*%
D10*
X59000Y25000D02*
G03*
X59000Y25000I-1500J0D01*
G01*
Y595000D02*
G03*
X59000Y595000I-1500J0D01*
G01*
X134000Y25000D02*
G03*
X134000Y25000I-1500J0D01*
G01*
Y595000D02*
G03*
X134000Y595000I-1500J0D01*
G01*
X199000Y310000D02*
G03*
X199000Y310000I-1500J0D01*
G01*
D11*
X108750Y67500D02*
G03*
X108750Y67500I-1250J0D01*
G01*
Y367500D02*
G03*
X108750Y367500I-1250J0D01*
G01*
X-98750Y540000D02*
G03*
X-98750Y540000I-1250J0D01*
G01*
X-118750Y90000D02*
G03*
X-118750Y90000I-1250J0D01*
G01*
D12*
X62500Y2500D02*
X107500D01*
Y47500D01*
X62500Y2500D02*
Y47500D01*
X107500D01*
X62500Y572500D02*
X107500D01*
Y617500D01*
X62500Y572500D02*
Y617500D01*
X107500D01*
X137500Y2500D02*
X182500D01*
Y47500D01*
X137500Y2500D02*
Y47500D01*
X182500D01*
X137500Y572500D02*
X182500D01*
Y617500D01*
X137500Y572500D02*
Y617500D01*
X182500D01*
X147500Y332500D02*
X192500D01*
X147500Y287500D02*
Y332500D01*
X192500Y287500D02*
Y332500D01*
X147500Y287500D02*
X192500D01*
D13*
X-48000Y27737D02*
Y36107D01*
X-5000Y593891D02*
X2407D01*
X-41534D02*
X-32500D01*
X46618Y36098D02*
Y602271D01*
X2407Y602274D02*
X46603D01*
X2407Y593891D02*
Y602274D01*
X-41534Y593891D02*
Y602274D01*
X-85743Y602271D02*
X-41534Y602274D01*
X-85730Y36107D02*
Y602271D01*
Y36107D02*
X-48000D01*
Y27737D02*
X8885D01*
Y36107D02*
X46603D01*
X8885Y27737D02*
Y36107D01*
X181481Y269500D02*
X187500D01*
Y255000D02*
Y269500D01*
X197500Y125000D02*
Y140000D01*
X122500Y127500D02*
Y142500D01*
X187500Y255000D02*
X197500D01*
X147250Y269500D02*
X168519D01*
X187500Y65000D02*
X197500D01*
X187500Y50500D02*
Y65000D01*
X147250Y50500D02*
X187500D01*
X181481Y569500D02*
X187500D01*
Y555000D02*
Y569500D01*
X197500Y425000D02*
Y440000D01*
X122500Y427500D02*
Y442500D01*
X187500Y555000D02*
X197500D01*
X147250Y569500D02*
X168519D01*
X187500Y365000D02*
X197500D01*
X187500Y350500D02*
Y365000D01*
X147250Y350500D02*
X187500D01*
X-94500Y544500D02*
Y549750D01*
Y580250D02*
Y585500D01*
X-125500D02*
X-120250D01*
X-99750D02*
X-94500D01*
X-125500Y544500D02*
Y549750D01*
Y580250D02*
Y585500D01*
Y544500D02*
X-120250D01*
X-99750D02*
X-94500D01*
X-125500Y80250D02*
Y85500D01*
Y44500D02*
Y49750D01*
X-99750Y44500D02*
X-94500D01*
X-125500D02*
X-120250D01*
X-94500Y80250D02*
Y85500D01*
Y44500D02*
Y49750D01*
X-99750Y85500D02*
X-94500D01*
X-125500D02*
X-120250D01*
M02*
