<?xml version="1.0" encoding="UTF-8"?>
<!DOCTYPE svg PUBLIC "-//W3C//DTD SVG 1.0//EN" "http://www.w3.org/TR/2001/REC-SVG-20010904/DTD/svg10.dtd">
<!-- Creator: CorelDRAW X8 -->
<svg xmlns="http://www.w3.org/2000/svg" xml:space="preserve" width="100mm" height="100mm" version="1.0" style="shape-rendering:geometricPrecision; text-rendering:geometricPrecision; image-rendering:optimizeQuality; fill-rule:evenodd; clip-rule:evenodd"
viewBox="0 0 10000 10000"
 xmlns:xlink="http://www.w3.org/1999/xlink">
 <defs>
  <style type="text/css">
   <![CDATA[
    .str0 {stroke:#2B2A29;stroke-width:20}
    .str1 {stroke:#363F44;stroke-width:20}
    .str2 {stroke:#3F51B5;stroke-width:20}
    .str3 {stroke:#8BC34A;stroke-width:20}
    .fil3 {fill:none}
    .fil1 {fill:#FEFEFE}
    .fil0 {fill:#C5C6C6}
    .fil2 {fill:#363F44}
    .fil5 {fill:#FEFEFE;fill-rule:nonzero}
    .fil6 {fill:#2B2A29;fill-rule:nonzero}
    .fil9 {fill:#2B2A29;fill-rule:nonzero}
    .fil4 {fill:#3F51B5;fill-rule:nonzero}
    .fil7 {fill:#3F51B5;fill-rule:nonzero}
    .fil8 {fill:#8BC34A;fill-rule:nonzero}
   ]]>
  </style>
 </defs>
 <g id="Ebene_x0020_1">
  <metadata id="CorelCorpID_0Corel-Layer"/>
  <rect class="fil0 str0" x="378" y="534" width="9210" height="9089" rx="206" ry="198"/>
  <rect class="fil1 str0" x="3259" y="4218" width="5800" height="4900"/>
  <rect class="fil1 str0" x="745" y="829" width="1500" height="8462"/>
  <rect class="fil2 str1" x="2297" y="8518" width="4689" height="233"/>
  <g id="_2337260988208">
   <polygon class="fil2" points="2314,8518 2314,8751 2245,8751 2245,8814 1996,8635 2245,8455 2245,8518 "/>
   <polyline class="fil3 str1" points="2314,8751 2245,8751 2245,8814 1996,8635 2245,8455 2245,8518 2314,8518 "/>
  </g>
  <rect class="fil2 str1" x="2270" y="7938" width="4717" height="233"/>
  <rect class="fil1 str0" x="3419" y="4388" width="5800" height="4900"/>
  <rect class="fil2 str1" transform="matrix(-2.13794E-13 -1.13312 1.02466 -2.93425E-14 5969.31 6335.8)" width="254" height="227"/>
  <polygon class="fil4" points="8050,1293 8050,939 8288,939 8288,981 8097,981 8097,1091 8263,1091 8263,1132 8097,1132 8097,1293 "/>
  <path id="1" class="fil4" d="M8349 1293l0 -354 133 0c24,0 42,1 54,3 18,3 32,9 44,17 12,8 21,19 28,34 7,15 11,31 11,48 0,30 -10,56 -29,76 -19,21 -53,31 -104,31l-90 0 0 145 -47 0zm47 -186l91 0c30,0 52,-6 65,-17 12,-11 19,-27 19,-47 0,-15 -4,-28 -12,-38 -7,-11 -17,-18 -29,-21 -8,-2 -23,-3 -44,-3l-90 0 0 126z"/>
  <path id="2" class="fil4" d="M8844 1154l0 -42 149 0 0 131c-23,19 -46,33 -71,42 -24,9 -49,14 -75,14 -35,0 -66,-8 -95,-23 -28,-15 -49,-36 -64,-64 -14,-28 -22,-60 -22,-94 0,-35 8,-67 22,-97 14,-30 35,-52 62,-66 27,-15 58,-22 93,-22 26,0 49,4 70,13 20,8 37,19 48,34 12,15 21,34 27,58l-42 12c-6,-18 -12,-33 -20,-43 -8,-10 -19,-18 -34,-25 -14,-6 -30,-9 -48,-9 -22,0 -40,3 -56,10 -15,6 -28,15 -37,26 -10,10 -17,22 -23,35 -9,22 -13,45 -13,71 0,32 5,58 16,79 11,22 27,37 47,48 21,10 43,15 66,15 21,0 40,-4 60,-12 19,-8 33,-16 43,-25l0 -66 -103 0z"/>
  <path id="3" class="fil4" d="M9024 1293l135 -354 52 0 144 354 -54 0 -40 -108 -149 0 -39 108 -49 0zm101 -146l121 0 -37 -98c-11,-29 -19,-54 -25,-73 -5,23 -12,45 -20,68l-39 103z"/>
  <path id="4" class="fil4" d="M7141 1844l0 -353 133 0c24,0 42,1 54,3 17,3 32,9 44,17 11,8 21,19 28,34 7,14 11,30 11,48 0,30 -10,55 -29,76 -19,21 -54,31 -104,31l-90 0 0 144 -47 0zm47 -185l91 0c30,0 52,-6 64,-17 13,-11 19,-27 19,-48 0,-14 -3,-27 -11,-38 -7,-10 -17,-17 -29,-21 -8,-2 -23,-3 -44,-3l-90 0 0 127z"/>
  <path id="5" class="fil4" d="M7639 1761l45 6c-7,26 -20,47 -39,61 -19,15 -43,22 -73,22 -37,0 -67,-12 -89,-35 -22,-23 -33,-55 -33,-97 0,-43 11,-76 34,-100 22,-23 50,-35 86,-35 34,0 62,11 83,35 22,23 33,56 33,98 0,2 0,6 0,11l-191 0c1,28 9,50 24,65 14,15 32,22 53,22 16,0 30,-4 41,-12 11,-9 20,-22 26,-41zm-142 -69l143 0c-2,-22 -7,-38 -16,-49 -14,-16 -32,-25 -54,-25 -20,0 -37,7 -50,20 -14,14 -21,31 -23,54z"/>
  <path id="6" class="fil4" d="M7739 1844l0 -256 39 0 0 39c10,-18 19,-30 28,-36 8,-5 17,-8 27,-8 15,0 30,4 45,13l-15 40c-11,-5 -21,-8 -32,-8 -9,0 -18,2 -25,8 -8,6 -13,14 -16,24 -5,15 -8,32 -8,50l0 134 -43 0z"/>
  <path id="7" class="fil4" d="M7904 1540l0 -49 43 0 0 49 -43 0zm0 304l0 -256 43 0 0 256 -43 0z"/>
  <path id="8" class="fil4" d="M8014 1943l0 -355 39 0 0 34c9,-13 20,-23 32,-30 11,-6 26,-9 42,-9 22,0 41,5 58,17 17,11 29,27 38,47 8,21 13,43 13,67 0,26 -5,50 -14,71 -10,21 -23,37 -41,48 -18,11 -37,17 -57,17 -14,0 -27,-3 -39,-9 -11,-6 -21,-14 -28,-23l0 125 -43 0zm39 -225c0,33 7,57 20,73 13,15 29,23 48,23 20,0 36,-8 50,-24 13,-16 20,-42 20,-76 0,-32 -6,-57 -20,-73 -13,-16 -29,-24 -48,-24 -18,0 -34,8 -49,26 -14,17 -21,42 -21,75z"/>
  <path id="9" class="fil4" d="M8288 1844l0 -353 44 0 0 127c20,-24 45,-35 76,-35 19,0 35,3 49,11 14,7 24,18 30,31 6,13 9,32 9,57l0 162 -43 0 0 -162c0,-21 -5,-37 -14,-47 -10,-10 -23,-15 -40,-15 -13,0 -25,3 -36,10 -11,7 -19,16 -24,27 -5,12 -7,27 -7,47l0 140 -44 0z"/>
  <path id="10" class="fil4" d="M8738 1761l45 6c-7,26 -20,47 -40,61 -19,15 -43,22 -73,22 -37,0 -67,-12 -89,-35 -21,-23 -32,-55 -32,-97 0,-43 11,-76 33,-100 22,-23 51,-35 86,-35 34,0 62,11 84,35 21,23 32,56 32,98 0,2 0,6 0,11l-191 0c2,28 10,50 24,65 14,15 32,22 53,22 16,0 30,-4 41,-12 11,-9 20,-22 27,-41zm-143 -69l143 0c-2,-22 -7,-38 -16,-49 -14,-16 -32,-25 -54,-25 -20,0 -36,7 -50,20 -14,14 -21,31 -23,54z"/>
  <path id="11" class="fil4" d="M8837 1844l0 -256 39 0 0 39c10,-18 19,-30 28,-36 8,-5 18,-8 28,-8 14,0 29,4 44,13l-15 40c-11,-5 -21,-8 -32,-8 -9,0 -18,2 -25,8 -8,6 -13,14 -16,24 -5,15 -7,32 -7,50l0 134 -44 0z"/>
  <path id="12" class="fil4" d="M9169 1812c-16,14 -31,24 -46,29 -15,6 -31,9 -48,9 -28,0 -50,-7 -65,-21 -15,-13 -23,-31 -23,-52 0,-13 3,-24 9,-35 6,-10 13,-18 22,-24 10,-7 20,-11 32,-15 8,-2 21,-4 38,-6 35,-4 61,-9 78,-15 0,-6 0,-10 0,-11 0,-18 -4,-30 -12,-38 -11,-9 -28,-14 -50,-14 -20,0 -36,3 -45,10 -10,8 -17,20 -22,39l-42 -6c3,-19 10,-33 19,-44 9,-12 21,-20 38,-26 17,-6 36,-9 59,-9 21,0 39,2 53,7 14,6 24,12 30,20 7,8 11,18 14,29 1,8 2,21 2,40l0 58c0,40 1,66 3,76 1,11 5,22 10,31l-45 0c-5,-9 -7,-19 -9,-32zm-3 -96c-16,6 -40,12 -71,16 -18,3 -31,6 -38,9 -8,3 -13,8 -17,14 -4,6 -6,13 -6,21 0,11 4,21 13,28 9,8 21,12 38,12 17,0 32,-4 45,-11 13,-7 23,-17 29,-30 4,-10 7,-24 7,-43l0 -16z"/>
  <polygon id="13" class="fil4" points="9276,1844 9276,1491 9319,1491 9319,1844 "/>
  <path id="14" class="fil4" d="M8072 2396l0 -353 133 0c27,0 48,3 65,10 16,7 29,18 38,33 9,15 14,31 14,47 0,15 -4,29 -12,43 -9,13 -21,24 -37,32 21,6 37,17 49,32 11,15 17,33 17,54 0,16 -3,32 -10,46 -7,14 -16,25 -26,33 -11,7 -24,13 -39,17 -16,4 -35,6 -57,6l-135 0zm47 -205l76 0c21,0 36,-1 45,-4 12,-3 21,-9 27,-18 6,-8 9,-18 9,-31 0,-11 -3,-22 -9,-31 -5,-9 -13,-15 -24,-18 -10,-3 -28,-5 -53,-5l-71 0 0 107zm0 164l88 0c15,0 26,-1 32,-2 11,-2 20,-5 27,-10 7,-4 13,-11 18,-19 4,-9 7,-19 7,-30 0,-14 -4,-25 -10,-35 -7,-10 -17,-16 -29,-20 -12,-4 -29,-6 -51,-6l-82 0 0 122z"/>
  <path id="15" class="fil4" d="M8382 2268c0,-47 13,-82 39,-105 22,-19 49,-29 81,-29 35,0 64,12 86,35 22,23 34,55 34,95 0,33 -5,59 -15,78 -10,19 -24,33 -43,44 -19,10 -40,16 -62,16 -36,0 -65,-12 -87,-35 -22,-23 -33,-56 -33,-99zm44 0c0,33 7,57 22,74 14,16 32,24 54,24 21,0 39,-8 54,-25 14,-16 21,-41 21,-74 0,-32 -7,-56 -21,-72 -15,-16 -33,-25 -54,-25 -22,0 -40,9 -54,25 -15,16 -22,40 -22,73z"/>
  <path id="16" class="fil4" d="M8840 2364c-16,14 -32,23 -47,29 -14,6 -30,9 -48,9 -28,0 -49,-7 -64,-21 -16,-14 -23,-31 -23,-53 0,-12 3,-23 8,-34 6,-10 14,-18 23,-25 9,-6 19,-11 31,-14 9,-2 22,-4 39,-6 35,-5 61,-10 77,-15 0,-6 1,-10 1,-12 0,-17 -5,-30 -13,-37 -11,-10 -27,-15 -49,-15 -21,0 -36,4 -46,11 -9,7 -17,20 -21,38l-43 -6c4,-18 10,-33 19,-44 9,-11 22,-19 39,-26 17,-6 36,-9 58,-9 22,0 40,3 54,8 13,5 23,12 30,20 6,7 11,17 13,29 2,8 3,21 3,40l0 58c0,40 0,65 2,76 2,11 6,21 11,31l-46 0c-4,-9 -7,-20 -8,-32zm-3 -96c-16,6 -40,12 -72,16 -17,3 -30,5 -38,9 -7,3 -13,8 -17,14 -4,6 -6,13 -6,20 0,12 5,21 13,29 9,8 22,12 39,12 17,0 32,-4 45,-11 13,-8 22,-18 28,-30 5,-10 7,-24 7,-43l1 -16z"/>
  <path id="17" class="fil4" d="M8947 2396l0 -256 39 0 0 39c10,-18 19,-30 27,-36 9,-6 18,-9 28,-9 15,0 30,5 45,14l-15 40c-11,-6 -21,-9 -32,-9 -9,0 -18,3 -25,9 -8,6 -13,13 -17,24 -4,15 -7,32 -7,50l0 134 -43 0z"/>
  <path id="18" class="fil4" d="M9277 2396l0 -32c-16,25 -40,38 -71,38 -21,0 -40,-6 -57,-17 -17,-11 -30,-27 -39,-47 -10,-20 -15,-44 -15,-70 0,-25 5,-48 13,-69 9,-21 22,-37 39,-48 17,-11 36,-17 57,-17 15,0 29,4 41,10 12,7 22,15 29,26l0 -127 44 0 0 353 -41 0zm-137 -128c0,33 7,58 21,74 14,16 30,24 49,24 19,0 35,-8 48,-23 14,-16 20,-39 20,-71 0,-35 -7,-61 -20,-77 -14,-16 -30,-25 -50,-25 -20,0 -36,8 -49,24 -13,16 -19,40 -19,74z"/>
  <rect class="fil1 str0" x="7050" y="4560" width="2000" height="4500"/>
  <g id="_2337260999664">
   <polygon class="fil2" points="2304,8078 2304,8311 2235,8311 2235,8374 1986,8195 2235,8015 2235,8078 "/>
   <polyline class="fil3 str1" points="2304,8311 2235,8311 2235,8374 1986,8195 2235,8015 2235,8078 2304,8078 "/>
  </g>
  <rect class="fil2 str1" x="2304" y="8078" width="4682" height="233"/>
  <g id="_2337261000656">
   <polygon class="fil2" points="6986,8078 6986,8311 7056,8311 7056,8374 7304,8195 7056,8015 7056,8078 "/>
   <polyline class="fil3 str1" points="6986,8311 7056,8311 7056,8374 7304,8195 7056,8015 7056,8078 6986,8078 "/>
  </g>
  <g id="_2337260997520">
   <polygon class="fil2" points="2297,8653 2297,8886 2228,8886 2228,8949 1979,8770 2228,8590 2228,8653 "/>
   <polyline class="fil3 str1" points="2297,8886 2228,8886 2228,8949 1979,8770 2228,8590 2228,8653 2297,8653 "/>
  </g>
  <rect class="fil2 str1" x="2245" y="8653" width="4734" height="233"/>
  <g id="_2337260997104">
   <polygon class="fil2" points="6979,8653 6979,8886 7048,8886 7048,8949 7297,8770 7048,8590 7048,8653 "/>
   <polyline class="fil3 str1" points="6979,8886 7048,8886 7048,8949 7297,8770 7048,8590 7048,8653 6979,8653 "/>
  </g>
  <path class="fil5" d="M4105 8187c-9,-4 -15,-8 -20,-14 -4,-7 -6,-14 -6,-22 0,-13 4,-24 14,-33 9,-9 21,-13 37,-13 15,0 27,4 37,13 9,9 14,20 14,33 0,8 -2,16 -7,22 -4,6 -10,10 -19,14 11,3 19,9 25,17 5,8 8,17 8,28 0,15 -5,28 -16,38 -11,10 -25,15 -42,15 -18,0 -32,-5 -42,-15 -11,-10 -16,-23 -16,-39 0,-11 3,-21 8,-29 6,-7 15,-13 25,-15zm-4 -37c0,8 3,15 8,20 5,6 12,8 21,8 9,0 15,-2 21,-8 5,-5 8,-11 8,-19 0,-8 -3,-15 -9,-20 -5,-6 -12,-8 -20,-8 -9,0 -15,2 -21,8 -5,5 -8,11 -8,19zm-7 82c0,6 1,12 4,17 3,6 7,11 13,14 6,3 12,5 19,5 10,0 19,-4 26,-10 6,-7 10,-15 10,-26 0,-10 -4,-19 -11,-26 -6,-7 -15,-10 -26,-10 -10,0 -18,3 -25,10 -7,7 -10,15 -10,26z"/>
  <path id="1" class="fil5" d="M4200 8283l47 -67 -43 -62 27 0 20 31c4,5 6,10 9,14 3,-6 7,-10 9,-14l22 -31 26 0 -43 62 46 67 -26 0 -27 -40 -6 -10 -34 50 -27 0z"/>
  <path id="2" class="fil5" d="M4493 8213l0 -21 75 0 0 66c-12,9 -24,16 -36,21 -12,4 -25,6 -38,6 -17,0 -33,-3 -47,-11 -14,-7 -25,-18 -32,-32 -7,-14 -11,-30 -11,-47 0,-17 4,-33 11,-48 7,-15 17,-26 31,-33 13,-8 29,-11 47,-11 12,0 24,2 34,6 11,4 19,10 24,17 6,8 11,17 14,29l-21 6c-3,-9 -6,-16 -10,-21 -4,-5 -10,-10 -17,-13 -7,-3 -15,-4 -24,-4 -11,0 -20,1 -28,5 -8,3 -14,7 -19,13 -5,5 -8,11 -11,17 -4,11 -7,23 -7,36 0,15 3,29 8,39 6,11 14,19 24,24 10,5 21,8 33,8 10,0 20,-2 30,-6 9,-4 17,-8 22,-13l0 -33 -52 0z"/>
  <path id="3" class="fil5" d="M4602 8283l0 -177 67 0c12,0 21,0 27,1 8,2 16,5 22,9 5,4 10,9 14,17 3,7 5,15 5,24 0,15 -5,27 -14,38 -10,10 -27,15 -52,15l-45 0 0 73 -24 0zm24 -93l45 0c15,0 26,-3 32,-9 7,-5 10,-13 10,-24 0,-7 -2,-13 -6,-19 -3,-5 -8,-8 -14,-10 -4,-1 -12,-2 -22,-2l-45 0 0 64z"/>
  <polygon id="4" class="fil5" points="4771,8283 4771,8106 4794,8106 4794,8283 "/>
  <path id="5" class="fil5" d="M4828 8196c0,-29 8,-52 24,-68 16,-17 36,-25 61,-25 16,0 31,4 44,11 13,8 23,19 30,33 7,14 10,30 10,47 0,18 -3,34 -10,48 -8,15 -18,25 -31,33 -14,7 -28,10 -43,10 -17,0 -32,-4 -45,-12 -13,-8 -23,-19 -30,-32 -6,-14 -10,-29 -10,-45zm24 1c0,21 6,38 18,50 11,12 25,18 43,18 17,0 32,-6 43,-18 11,-12 17,-30 17,-53 0,-14 -2,-27 -7,-37 -5,-11 -12,-19 -21,-25 -10,-6 -20,-9 -32,-9 -17,0 -31,6 -43,17 -12,11 -18,30 -18,57z"/>
  <path id="6" class="fil5" d="M5096 8283l0 -177 61 0c14,0 24,1 31,2 11,3 19,7 26,13 10,8 17,18 21,30 5,12 7,26 7,42 0,14 -1,25 -4,36 -4,10 -8,19 -12,26 -5,6 -11,12 -17,16 -5,4 -12,6 -21,9 -8,2 -17,3 -28,3l-64 0zm24 -21l37 0c12,0 21,-1 28,-3 6,-3 12,-6 15,-10 6,-5 10,-13 13,-22 3,-9 5,-21 5,-34 0,-19 -3,-33 -9,-43 -6,-10 -13,-17 -22,-20 -6,-2 -16,-4 -30,-4l-37 0 0 136z"/>
  <path id="7" class="fil5" d="M5272 8130l0 -24 21 0 0 24 -21 0zm0 153l0 -129 21 0 0 129 -21 0z"/>
  <path id="8" class="fil5" d="M5395 8283l0 -112 -41 0 0 112 -22 0 0 -112 -19 0 0 -17 19 0 0 -12c0,-13 3,-22 8,-29 5,-7 14,-10 26,-10 8,0 15,1 22,2l-3 19c-5,-1 -9,-1 -12,-1 -8,0 -13,1 -15,4 -3,3 -4,9 -4,19l0 8 41 0 0 -12c0,-13 2,-22 8,-29 5,-7 14,-10 26,-10 7,0 15,1 22,2l-4 19c-4,-1 -8,-1 -11,-1 -8,0 -13,1 -16,4 -2,3 -4,9 -4,19l0 8 25 0 0 17 -25 0 0 112 -21 0z"/>
  <path id="9" class="fil5" d="M5546 8241l22 3c-3,13 -10,23 -19,30 -10,8 -22,11 -37,11 -19,0 -33,-6 -44,-17 -11,-12 -17,-28 -17,-49 0,-21 6,-38 17,-50 11,-11 25,-17 43,-17 17,0 31,5 42,17 11,12 16,28 16,49 0,1 0,3 0,6l-95 0c0,14 4,25 11,32 8,8 17,11 27,11 8,0 15,-2 20,-6 6,-4 11,-11 14,-20zm-71 -35l71 0c-1,-11 -4,-19 -8,-24 -7,-8 -16,-13 -27,-13 -10,0 -18,4 -25,10 -7,7 -11,16 -11,27z"/>
  <path id="10" class="fil5" d="M5596 8283l0 -129 19 0 0 20c5,-9 10,-15 14,-18 4,-3 9,-4 14,-4 7,0 15,2 22,6l-8 21c-5,-3 -10,-5 -15,-5 -5,0 -9,2 -13,4 -4,3 -6,7 -8,12 -3,8 -4,16 -4,26l0 67 -21 0z"/>
  <path id="11" class="fil5" d="M5765 8241l23 3c-4,13 -10,23 -20,30 -9,8 -21,11 -36,11 -19,0 -34,-6 -45,-17 -11,-12 -16,-28 -16,-49 0,-21 5,-38 16,-50 12,-11 26,-17 44,-17 17,0 31,5 41,17 11,12 17,28 17,49 0,1 0,3 0,6l-96 0c1,14 5,25 12,32 7,8 16,11 27,11 8,0 14,-2 20,-6 6,-4 10,-11 13,-20zm-71 -35l72 0c-1,-11 -4,-19 -9,-24 -6,-8 -15,-13 -26,-13 -10,0 -19,4 -25,10 -7,7 -11,16 -12,27z"/>
  <path id="12" class="fil5" d="M5815 8283l0 -129 20 0 0 19c9,-14 23,-21 41,-21 7,0 14,1 21,4 6,3 11,6 14,11 4,4 6,10 7,16 1,4 1,11 1,21l0 79 -21 0 0 -78c0,-9 -1,-16 -3,-20 -2,-5 -5,-8 -9,-11 -4,-2 -9,-4 -15,-4 -9,0 -17,3 -24,9 -7,6 -10,17 -10,34l0 70 -22 0z"/>
  <path id="13" class="fil5" d="M6000 8263l3 19c-6,2 -12,2 -17,2 -7,0 -13,-1 -18,-4 -4,-2 -7,-5 -9,-9 -2,-4 -3,-13 -3,-26l0 -74 -16 0 0 -17 16 0 0 -31 22 -13 0 44 22 0 0 17 -22 0 0 75c0,6 1,10 1,12 1,2 2,3 4,4 2,1 4,2 7,2 3,0 6,0 10,-1z"/>
  <path id="14" class="fil5" d="M6021 8130l0 -24 22 0 0 24 -22 0zm0 153l0 -129 22 0 0 129 -22 0z"/>
  <path id="15" class="fil5" d="M6160 8266c-8,7 -16,12 -23,15 -8,3 -16,4 -24,4 -14,0 -25,-3 -33,-10 -7,-7 -11,-16 -11,-26 0,-7 1,-12 4,-17 3,-6 7,-10 11,-13 5,-3 10,-5 16,-7 4,-1 11,-2 19,-3 18,-2 31,-5 39,-8 0,-3 0,-5 0,-5 0,-9 -2,-15 -6,-19 -6,-5 -14,-7 -25,-7 -10,0 -18,1 -22,5 -5,4 -9,10 -11,19l-22 -3c2,-9 6,-16 10,-22 4,-6 11,-10 19,-13 9,-3 18,-4 29,-4 11,0 20,1 27,3 7,3 12,6 15,10 3,4 6,9 7,15 1,4 1,10 1,20l0 29c0,20 1,33 1,38 1,5 3,11 6,16l-23 0c-2,-5 -3,-10 -4,-17zm-2 -48c-8,4 -20,6 -35,8 -9,2 -16,3 -19,5 -4,1 -7,4 -9,7 -2,3 -3,6 -3,10 0,6 2,11 7,14 4,4 10,6 19,6 8,0 16,-2 22,-5 7,-4 11,-9 15,-15 2,-5 3,-12 3,-22l0 -8z"/>
  <polygon id="16" class="fil5" points="6213,8283 6213,8106 6235,8106 6235,8283 "/>
  <path class="fil5" d="M3958 8757c-9,-4 -16,-8 -20,-15 -5,-6 -7,-13 -7,-22 0,-12 5,-23 14,-32 9,-9 21,-13 37,-13 15,0 28,4 37,13 9,9 14,20 14,33 0,8 -2,15 -6,21 -5,7 -11,11 -20,15 11,3 19,9 25,17 5,8 8,17 8,28 0,15 -5,28 -16,38 -10,10 -24,15 -42,15 -17,0 -31,-5 -42,-15 -11,-10 -16,-23 -16,-39 0,-11 3,-21 9,-29 6,-7 14,-13 25,-15zm-5 -37c0,8 3,15 8,20 6,6 13,8 21,8 9,0 16,-2 21,-8 5,-5 8,-11 8,-19 0,-8 -3,-15 -8,-20 -6,-6 -13,-8 -21,-8 -8,0 -15,2 -21,8 -5,5 -8,11 -8,19zm-7 81c0,7 2,13 5,18 2,6 7,11 13,14 5,3 12,5 18,5 11,0 19,-4 26,-10 7,-7 10,-16 10,-26 0,-10 -3,-19 -10,-26 -7,-7 -16,-10 -26,-10 -11,0 -19,3 -26,10 -6,7 -10,15 -10,25z"/>
  <path id="1" class="fil5" d="M4053 8852l46 -66 -43 -62 27 0 20 31c4,5 7,10 9,13 4,-5 7,-9 10,-14l21 -30 27 0 -44 62 46 66 -26 0 -26 -39 -7 -10 -34 49 -26 0z"/>
  <path id="2" class="fil5" d="M4345 8783l0 -21 75 0 0 66c-12,9 -24,16 -36,20 -12,5 -25,7 -37,7 -18,0 -33,-3 -48,-11 -14,-7 -25,-18 -32,-32 -7,-14 -11,-30 -11,-47 0,-17 4,-33 11,-48 7,-15 18,-26 31,-33 14,-8 29,-11 47,-11 13,0 24,2 34,6 11,4 19,10 25,17 6,8 10,17 13,29l-21 6c-3,-9 -6,-16 -10,-21 -4,-6 -9,-10 -17,-13 -7,-3 -15,-4 -24,-4 -11,0 -20,1 -28,5 -8,3 -14,7 -19,12 -4,6 -8,12 -11,18 -4,11 -6,23 -6,36 0,15 2,29 8,39 5,11 13,19 23,24 11,5 22,8 33,8 10,0 20,-2 30,-6 10,-4 17,-8 22,-13l0 -33 -52 0z"/>
  <path id="3" class="fil5" d="M4454 8852l0 -176 67 0c12,0 21,0 27,1 9,2 16,4 22,9 6,4 11,9 14,17 4,7 5,15 5,24 0,15 -4,27 -14,38 -9,10 -27,15 -52,15l-45 0 0 72 -24 0zm24 -92l46 0c15,0 25,-3 32,-9 6,-6 9,-13 9,-24 0,-7 -2,-13 -5,-19 -4,-5 -9,-8 -15,-10 -4,-1 -11,-2 -22,-2l-45 0 0 64z"/>
  <polygon id="4" class="fil5" points="4623,8852 4623,8676 4646,8676 4646,8852 "/>
  <path id="5" class="fil5" d="M4681 8766c0,-29 7,-52 23,-68 16,-17 36,-25 61,-25 17,0 31,4 44,11 13,8 23,19 30,33 7,14 11,30 11,47 0,18 -4,34 -11,48 -7,15 -18,25 -31,32 -13,8 -28,11 -43,11 -17,0 -31,-4 -45,-12 -13,-8 -23,-19 -29,-33 -7,-13 -10,-28 -10,-44zm24 1c0,21 5,38 17,50 11,12 26,18 43,18 18,0 32,-6 43,-18 12,-12 17,-30 17,-53 0,-14 -2,-27 -7,-37 -5,-11 -12,-19 -21,-25 -10,-6 -20,-9 -32,-9 -16,0 -30,6 -42,17 -12,11 -18,30 -18,57z"/>
  <path id="6" class="fil5" d="M4941 8796l22 -2c1,9 3,16 7,22 4,5 10,10 18,13 8,4 17,6 27,6 9,0 17,-2 24,-4 6,-3 11,-7 15,-11 3,-5 5,-10 5,-15 0,-6 -2,-11 -5,-15 -3,-4 -9,-8 -16,-10 -5,-2 -15,-5 -31,-9 -17,-4 -28,-8 -35,-11 -8,-4 -14,-10 -18,-17 -5,-6 -7,-13 -7,-22 0,-9 3,-17 8,-25 5,-7 12,-13 22,-17 10,-4 21,-6 33,-6 13,0 24,2 34,6 10,4 18,10 23,19 6,8 9,17 9,27l-22 2c-2,-11 -6,-19 -13,-25 -7,-6 -17,-9 -30,-9 -15,0 -25,3 -31,8 -7,5 -10,12 -10,19 0,6 2,11 7,16 4,4 16,8 35,12 19,5 32,8 39,11 10,5 18,11 23,18 5,8 7,16 7,26 0,9 -2,18 -8,26 -5,8 -13,15 -23,19 -10,5 -21,7 -34,7 -16,0 -29,-2 -40,-7 -11,-4 -19,-11 -26,-21 -6,-9 -9,-20 -9,-31z"/>
  <path id="7" class="fil5" d="M5110 8700l0 -24 22 0 0 24 -22 0zm0 152l0 -128 22 0 0 128 -22 0z"/>
  <path id="8" class="fil5" d="M5165 8852l0 -128 20 0 0 18c9,-14 23,-20 40,-20 8,0 15,1 22,4 6,2 11,6 14,11 3,4 6,9 7,16 1,4 1,11 1,21l0 78 -22 0 0 -77c0,-9 0,-16 -2,-20 -2,-5 -5,-8 -9,-11 -4,-2 -9,-4 -15,-4 -9,0 -17,3 -24,9 -7,6 -10,17 -10,33l0 70 -22 0z"/>
  <path id="9" class="fil5" d="M5299 8863l21 3c0,6 3,11 7,14 5,4 13,6 22,6 10,0 18,-2 23,-6 6,-4 10,-9 11,-17 2,-4 2,-13 2,-27 -10,11 -21,16 -35,16 -18,0 -32,-6 -41,-19 -10,-12 -15,-28 -15,-45 0,-13 2,-24 7,-34 4,-10 11,-18 19,-24 8,-6 18,-8 30,-8 15,0 27,6 37,18l0 -16 20 0 0 111c0,20 -2,34 -6,42 -4,9 -11,15 -19,20 -9,5 -20,7 -33,7 -15,0 -27,-3 -37,-10 -9,-7 -14,-17 -13,-31zm17 -77c0,17 4,29 10,37 7,8 15,11 25,11 10,0 19,-3 26,-11 6,-8 10,-20 10,-36 0,-16 -4,-28 -11,-36 -7,-7 -15,-11 -25,-11 -10,0 -18,3 -25,11 -6,8 -10,20 -10,35z"/>
  <polygon id="10" class="fil5" points="5439,8852 5439,8676 5461,8676 5461,8852 "/>
  <path id="11" class="fil5" d="M5582 8811l23 3c-4,13 -10,23 -20,30 -9,8 -22,11 -37,11 -18,0 -33,-6 -44,-17 -11,-12 -16,-28 -16,-49 0,-21 5,-38 16,-50 11,-12 26,-17 43,-17 17,0 31,5 42,17 11,12 16,28 16,49 0,1 0,3 0,6l-95 0c1,14 5,25 12,32 7,8 16,11 26,11 8,0 15,-2 21,-6 5,-4 10,-11 13,-20zm-71 -35l71 0c-1,-11 -3,-19 -8,-24 -7,-8 -16,-13 -27,-13 -10,0 -18,4 -25,10 -6,7 -10,16 -11,27z"/>
  <polygon id="12" class="fil5" points="5704,8852 5704,8676 5832,8676 5832,8696 5727,8696 5727,8751 5825,8751 5825,8771 5727,8771 5727,8832 5836,8832 5836,8852 "/>
  <path id="13" class="fil5" d="M5865 8852l0 -128 20 0 0 18c9,-14 23,-20 41,-20 7,0 14,1 21,4 6,2 11,6 14,11 4,4 6,9 7,16 1,4 1,11 1,21l0 78 -21 0 0 -77c0,-9 -1,-16 -3,-20 -2,-5 -5,-8 -9,-11 -4,-2 -9,-4 -15,-4 -9,0 -17,3 -24,9 -7,6 -10,17 -10,33l0 70 -22 0z"/>
  <path id="14" class="fil5" d="M6085 8852l0 -16c-8,13 -20,19 -35,19 -11,0 -20,-3 -28,-8 -9,-6 -16,-14 -20,-24 -5,-10 -7,-21 -7,-35 0,-12 2,-24 6,-34 4,-11 11,-19 19,-24 9,-6 18,-8 29,-8 7,0 14,1 20,4 6,4 11,8 15,13l0 -63 22 0 0 176 -21 0zm-68 -64c0,17 3,29 10,37 7,8 15,12 25,12 9,0 17,-4 24,-11 7,-8 10,-20 10,-36 0,-17 -3,-30 -10,-38 -7,-8 -15,-12 -25,-12 -10,0 -18,3 -24,11 -7,8 -10,21 -10,37z"/>
  <path id="15" class="fil5" d="M6228 8811l22 3c-4,13 -10,23 -20,30 -9,8 -21,11 -36,11 -19,0 -34,-6 -45,-17 -11,-12 -16,-28 -16,-49 0,-21 5,-38 17,-50 11,-12 25,-17 43,-17 17,0 31,5 41,17 11,12 17,28 17,49 0,1 0,3 0,6l-96 0c1,14 5,25 12,32 7,8 16,11 27,11 8,0 15,-2 20,-6 6,-4 10,-11 14,-20zm-72 -35l72 0c-1,-11 -4,-19 -8,-24 -7,-8 -16,-13 -27,-13 -10,0 -19,4 -25,10 -7,7 -11,16 -12,27z"/>
  <path id="16" class="fil5" d="M6360 8852l0 -16c-8,13 -20,19 -36,19 -10,0 -19,-3 -28,-8 -8,-6 -15,-14 -20,-24 -4,-10 -7,-21 -7,-35 0,-12 2,-24 7,-34 4,-11 10,-19 19,-24 8,-6 18,-8 28,-8 8,0 15,1 21,4 6,4 11,8 15,13l0 -63 21 0 0 176 -20 0zm-68 -64c0,17 3,29 10,37 7,8 15,12 24,12 10,0 18,-4 25,-11 6,-8 10,-20 10,-36 0,-17 -4,-30 -11,-38 -6,-8 -15,-12 -25,-12 -9,0 -17,3 -24,11 -6,8 -9,21 -9,37z"/>
  <g id="_2337142396576">
   <polygon class="fil2" points="2300,6913 2300,7146 2231,7146 2231,7209 1982,7029 2231,6850 2231,6913 "/>
   <polyline class="fil3 str1" points="2300,7146 2231,7146 2231,7209 1982,7029 2231,6850 2231,6913 2300,6913 "/>
  </g>
  <rect class="fil2 str1" x="2300" y="6913" width="4682" height="233"/>
  <g id="_2337142394176">
   <polygon class="fil2" points="6982,6913 6982,7146 7051,7146 7051,7209 7300,7029 7051,6850 7051,6913 "/>
   <polyline class="fil3 str1" points="6982,7146 7051,7146 7051,7209 7300,7029 7051,6850 7051,6913 6982,6913 "/>
  </g>
  <g id="_2337142395712">
   <polygon class="fil2" points="2303,7488 2303,7721 2234,7721 2234,7784 1985,7605 2234,7425 2234,7488 "/>
   <polyline class="fil3 str1" points="2303,7721 2234,7721 2234,7784 1985,7605 2234,7425 2234,7488 2303,7488 "/>
  </g>
  <rect class="fil2 str1" x="2303" y="7488" width="4682" height="233"/>
  <g id="_2337142392320">
   <polygon class="fil2" points="6985,7488 6985,7721 7054,7721 7054,7784 7303,7605 7054,7425 7054,7488 "/>
   <polyline class="fil3 str1" points="6985,7721 7054,7721 7054,7784 7303,7605 7054,7425 7054,7488 6985,7488 "/>
  </g>
  <polygon class="fil5" points="5043,7118 5043,6941 5066,6941 5066,7118 "/>
  <path id="1" class="fil5" d="M5213 7097l0 21 -117 0c0,-5 0,-10 2,-15 3,-8 8,-16 15,-24 6,-8 16,-16 28,-26 19,-16 32,-29 39,-38 7,-9 10,-18 10,-26 0,-9 -3,-16 -9,-22 -6,-6 -14,-9 -24,-9 -11,0 -19,3 -25,10 -7,6 -10,14 -10,26l-22 -3c1,-16 7,-29 17,-38 10,-8 24,-13 40,-13 17,0 31,5 41,14 10,10 15,21 15,35 0,7 -2,14 -5,21 -3,7 -8,14 -14,22 -7,7 -18,18 -34,31 -13,11 -21,18 -25,22 -4,4 -7,8 -9,12l87 0z"/>
  <path id="2" class="fil5" d="M5237 7061l22 -2c1,9 4,16 8,22 3,6 9,10 17,14 8,3 17,5 27,5 9,0 17,-1 24,-4 7,-3 12,-6 15,-11 4,-5 5,-10 5,-15 0,-6 -1,-10 -5,-15 -3,-4 -8,-7 -15,-10 -5,-2 -16,-5 -32,-9 -16,-4 -28,-7 -34,-11 -8,-4 -15,-10 -19,-16 -4,-7 -6,-14 -6,-22 0,-9 2,-18 8,-25 5,-8 12,-14 22,-18 9,-4 20,-6 32,-6 13,0 25,2 35,6 10,5 18,11 23,19 5,8 8,17 9,28l-23 2c-1,-12 -5,-20 -12,-26 -7,-5 -17,-8 -31,-8 -14,0 -24,2 -31,8 -6,5 -10,11 -10,18 0,7 3,12 7,16 5,4 17,8 36,13 19,4 32,8 39,11 10,5 18,11 22,18 5,7 8,15 8,25 0,9 -3,18 -8,26 -6,9 -13,15 -23,20 -11,4 -22,7 -34,7 -16,0 -30,-3 -41,-7 -10,-5 -19,-12 -25,-21 -6,-10 -9,-20 -10,-32z"/>
  <path class="fil5" d="M5027 7521l24 0 0 102c0,18 -2,32 -6,42 -4,11 -12,19 -22,26 -11,6 -24,10 -41,10 -17,0 -30,-3 -41,-9 -11,-6 -18,-14 -22,-25 -5,-11 -7,-25 -7,-44l0 -102 23 0 0 102c0,15 2,27 5,34 2,7 7,13 14,17 7,4 16,6 26,6 17,0 29,-4 36,-12 7,-8 11,-23 11,-45l0 -102z"/>
  <path id="1" class="fil5" d="M5070 7698l68 -177 26 0 72 177 -27 0 -20 -54 -75 0 -19 54 -25 0zm51 -73l60 0 -18 -49c-6,-15 -10,-27 -13,-37 -2,12 -5,23 -10,34l-19 52z"/>
  <path id="2" class="fil5" d="M5255 7698l0 -177 78 0c16,0 28,1 36,5 8,3 15,8 20,16 5,8 7,17 7,27 0,13 -4,23 -12,32 -8,8 -21,14 -38,16 7,3 11,6 14,9 7,6 14,14 20,24l30 48 -29 0 -23 -37c-7,-11 -13,-19 -17,-25 -5,-5 -8,-9 -12,-11 -3,-3 -7,-4 -11,-5 -2,-1 -7,-1 -13,-1l-27 0 0 79 -23 0zm23 -99l50 0c11,0 19,-1 26,-3 6,-3 10,-6 13,-11 3,-5 5,-10 5,-16 0,-8 -3,-15 -9,-21 -6,-5 -16,-8 -29,-8l-56 0 0 59z"/>
  <polygon id="3" class="fil5" points="5473,7698 5473,7542 5415,7542 5415,7521 5555,7521 5555,7542 5497,7542 5497,7698 "/>
  <g id="_2337142390240">
   <polygon class="fil2" points="2297,6320 2297,6553 2227,6553 2227,6616 1979,6436 2227,6257 2227,6320 "/>
   <polyline class="fil3 str1" points="2297,6553 2227,6553 2227,6616 1979,6436 2227,6257 2227,6320 2297,6320 "/>
  </g>
  <rect class="fil2 str1" x="2297" y="6320" width="4682" height="233"/>
  <g id="_2337142390720">
   <polygon class="fil2" points="6979,6320 6979,6553 7048,6553 7048,6616 7297,6436 7048,6257 7048,6320 "/>
   <polyline class="fil3 str1" points="6979,6553 7048,6553 7048,6616 7297,6436 7048,6257 7048,6320 6979,6320 "/>
  </g>
  <polygon class="fil5" points="4567,6530 4567,6353 4590,6353 4590,6530 "/>
  <path id="1" class="fil5" d="M4737 6509l0 21 -117 0c0,-6 1,-11 2,-16 3,-7 8,-15 15,-23 6,-8 16,-17 28,-27 19,-15 32,-28 39,-37 7,-9 10,-18 10,-26 0,-9 -3,-16 -9,-22 -6,-6 -14,-9 -24,-9 -10,0 -19,3 -25,9 -6,7 -10,15 -10,26l-22 -2c2,-16 7,-29 17,-38 10,-9 24,-13 40,-13 17,0 31,5 41,14 10,10 15,21 15,35 0,7 -2,14 -5,21 -3,7 -7,14 -14,22 -7,7 -18,18 -34,31 -13,11 -21,18 -25,22 -3,4 -6,8 -9,12l87 0z"/>
  <path id="2" class="fil5" d="M4895 6468l23 5c-4,20 -13,34 -26,44 -13,10 -28,16 -47,16 -19,0 -34,-4 -46,-12 -12,-8 -21,-19 -27,-34 -7,-14 -10,-30 -10,-47 0,-19 4,-35 11,-48 7,-14 17,-24 30,-32 13,-7 27,-10 43,-10 17,0 32,4 44,13 12,9 21,22 25,38l-23 6c-4,-13 -10,-23 -17,-28 -8,-6 -18,-9 -30,-9 -13,0 -25,3 -34,10 -9,6 -15,15 -19,26 -4,11 -5,22 -5,34 0,15 2,28 6,39 4,11 11,20 20,25 10,6 20,9 30,9 13,0 25,-4 34,-12 9,-7 15,-19 18,-33z"/>
  <polygon id="3" class="fil5" points="4928,6533 4980,6350 4997,6350 4946,6533 "/>
  <path id="4" class="fil5" d="M5077 6473l22 -2c1,9 3,16 7,22 4,5 10,10 18,14 8,3 17,5 27,5 9,0 17,-2 24,-4 7,-3 12,-7 15,-11 3,-5 5,-10 5,-15 0,-6 -2,-11 -5,-15 -3,-4 -8,-7 -16,-10 -5,-2 -15,-5 -31,-9 -17,-4 -28,-7 -34,-11 -9,-4 -15,-10 -19,-16 -4,-7 -6,-14 -6,-22 0,-9 2,-18 7,-25 5,-8 13,-14 22,-18 10,-4 21,-6 33,-6 13,0 24,2 34,6 10,4 18,11 24,19 5,8 8,17 8,28l-22 1c-1,-11 -5,-19 -12,-25 -7,-6 -18,-8 -31,-8 -14,0 -25,2 -31,7 -7,6 -10,12 -10,19 0,6 2,12 7,16 4,4 16,8 35,12 19,5 32,8 39,12 11,4 18,10 23,18 5,7 7,15 7,25 0,9 -2,18 -8,26 -5,9 -13,15 -23,20 -10,4 -21,7 -34,7 -16,0 -29,-3 -40,-7 -11,-5 -19,-12 -25,-21 -7,-10 -10,-20 -10,-32z"/>
  <path id="5" class="fil5" d="M5249 6530l0 -177 35 0 42 125c4,12 6,20 8,26 2,-6 5,-16 10,-28l42 -123 31 0 0 177 -22 0 0 -148 -52 148 -21 0 -51 -151 0 151 -22 0z"/>
  <path id="6" class="fil5" d="M5454 6530l0 -177 66 0c14,0 25,2 33,5 8,4 14,9 19,17 5,7 7,15 7,23 0,8 -2,15 -6,21 -4,7 -10,12 -19,17 11,3 19,8 25,16 6,7 9,16 9,26 0,9 -2,16 -6,23 -3,8 -7,13 -13,17 -5,4 -11,7 -19,9 -8,2 -17,3 -29,3l-67 0zm23 -103l39 0c10,0 18,-1 22,-2 6,-2 10,-5 13,-9 3,-4 5,-9 5,-15 0,-6 -1,-11 -4,-16 -3,-4 -7,-7 -12,-9 -6,-2 -15,-2 -27,-2l-36 0 0 53zm0 82l44 0c8,0 13,0 16,-1 6,-1 10,-3 14,-5 4,-2 7,-5 9,-10 2,-4 3,-9 3,-15 0,-6 -1,-12 -5,-17 -3,-5 -8,-8 -14,-10 -6,-2 -14,-3 -26,-3l-41 0 0 61z"/>
  <path id="7" class="fil5" d="M5701 6530l0 -19c-10,14 -24,21 -41,21 -7,0 -14,-1 -21,-4 -7,-3 -11,-7 -15,-11 -3,-4 -5,-10 -6,-16 -1,-4 -2,-11 -2,-20l0 -80 22 0 0 71c0,12 1,19 2,23 1,6 4,10 8,14 5,3 10,5 17,5 6,0 12,-2 18,-5 6,-4 10,-8 12,-14 2,-6 3,-14 3,-25l0 -69 22 0 0 129 -19 0z"/>
  <path id="8" class="fil5" d="M5746 6491l21 -3c1,8 5,15 10,20 6,4 13,7 23,7 10,0 18,-2 23,-7 4,-4 7,-8 7,-14 0,-5 -2,-9 -7,-11 -3,-2 -10,-5 -22,-8 -16,-4 -27,-7 -33,-10 -6,-3 -11,-7 -14,-12 -3,-5 -5,-11 -5,-17 0,-6 2,-11 4,-16 3,-5 6,-9 11,-12 3,-3 8,-5 14,-7 6,-1 12,-2 18,-2 11,0 19,1 27,4 8,3 13,7 17,12 3,5 6,11 7,20l-21 3c-1,-7 -4,-12 -8,-16 -5,-4 -12,-6 -20,-6 -10,0 -17,2 -21,5 -4,4 -7,8 -7,12 0,3 1,5 3,8 2,2 5,4 8,5 3,1 9,3 19,6 16,4 26,7 33,10 6,3 10,6 14,11 3,5 5,11 5,19 0,7 -2,14 -6,20 -4,7 -11,12 -19,15 -7,4 -16,5 -27,5 -16,0 -29,-3 -38,-10 -8,-7 -14,-17 -16,-31z"/>
  <path class="fil6" d="M8034 7524l-303 0 0 -60 214 -72c20,-7 35,-11 45,-14 -11,-4 -27,-9 -49,-17l-210 -73 0 -53 303 0 0 38 -254 0 254 89 0 36 -259 87 259 0 0 39z"/>
  <path id="1" class="fil6" d="M7924 7189c-41,0 -71,-11 -90,-34 -17,-19 -25,-42 -25,-69 0,-30 10,-55 30,-74 20,-19 47,-29 82,-29 28,0 50,4 66,13 16,8 29,21 38,37 9,16 13,34 13,53 0,31 -9,56 -29,75 -20,19 -48,28 -85,28zm0 -38c28,0 49,-6 63,-19 14,-12 21,-27 21,-46 0,-19 -7,-34 -21,-46 -14,-13 -36,-19 -64,-19 -27,0 -48,7 -62,19 -14,12 -21,28 -21,46 0,19 7,34 21,46 14,13 35,19 63,19z"/>
  <path id="2" class="fil6" d="M8034 6798l-28 0c21,14 32,34 32,61 0,18 -4,34 -14,48 -10,15 -23,26 -40,34 -18,9 -38,13 -60,13 -22,0 -42,-4 -60,-11 -17,-8 -31,-19 -40,-33 -10,-15 -15,-31 -15,-49 0,-13 3,-25 9,-36 5,-10 13,-18 22,-25l-109 0 0 -37 303 0 0 35zm-110 117c28,0 49,-5 63,-17 14,-12 21,-26 21,-42 0,-17 -7,-31 -20,-42 -13,-11 -34,-17 -61,-17 -30,0 -52,6 -66,17 -14,12 -21,26 -21,43 0,17 7,31 20,42 14,11 35,16 64,16z"/>
  <path id="3" class="fil6" d="M8034 6561l-33 0c25,17 37,40 37,69 0,13 -2,25 -7,36 -5,12 -11,20 -19,25 -7,6 -17,10 -27,12 -8,1 -19,2 -35,2l-136 0 0 -37 122 0c19,0 32,-1 39,-3 10,-2 17,-7 23,-14 5,-8 8,-17 8,-28 0,-12 -3,-22 -8,-32 -6,-9 -14,-16 -24,-20 -10,-5 -24,-7 -43,-7l-117 0 0 -37 220 0 0 34z"/>
  <polygon id="4" class="fil6" points="8034,6470 7731,6470 7731,6432 8034,6432 "/>
  <path id="5" class="fil6" d="M7963 6225l5 -39c22,6 39,17 52,34 12,16 18,37 18,63 0,32 -10,57 -29,76 -20,19 -48,28 -83,28 -37,0 -66,-10 -86,-29 -21,-18 -31,-43 -31,-73 0,-30 10,-54 30,-72 20,-19 48,-28 84,-28 3,0 6,0 10,0l0 164c24,-2 43,-8 56,-21 12,-12 19,-27 19,-45 0,-14 -4,-26 -11,-35 -7,-10 -19,-18 -34,-23zm-60 122l0 -123c-19,2 -32,7 -42,14 -14,12 -21,28 -21,46 0,17 5,32 17,43 11,12 27,18 46,20z"/>
  <path id="6" class="fil6" d="M8443 7756l-253 0 0 -50 179 -60c17,-5 29,-9 37,-12 -9,-2 -22,-7 -40,-13l-176 -61 0 -45 253 0 0 32 -212 0 212 74 0 30 -215 73 215 0 0 32z"/>
  <polygon id="7" class="fil6" points="8443,7457 8407,7457 8407,7422 8443,7422 "/>
  <path id="8" class="fil6" d="M8413 7213l30 0 0 168c-8,0 -15,-1 -22,-4 -11,-4 -22,-11 -33,-21 -11,-9 -24,-23 -39,-40 -22,-28 -40,-46 -53,-56 -13,-10 -26,-14 -37,-14 -13,0 -23,4 -32,13 -8,9 -12,20 -12,34 0,15 4,27 13,36 9,9 22,14 37,14l-3 32c-24,-3 -42,-11 -54,-25 -13,-14 -19,-33 -19,-57 0,-25 7,-44 20,-58 14,-14 30,-21 50,-21 10,0 20,2 30,6 10,4 20,11 31,21 11,9 26,25 44,47 16,19 27,31 32,36 6,6 11,10 17,13l0 -124z"/>
  <polygon id="9" class="fil6" points="8443,7071 8190,7071 8190,7037 8315,7037 8190,6912 8190,6867 8293,6973 8443,6862 8443,6906 8315,6996 8355,7037 8443,7037 "/>
  <path id="10" class="fil6" d="M8383 6713l5 -32c18,5 33,14 43,28 10,14 16,31 16,52 0,27 -9,48 -25,64 -16,16 -40,23 -69,23 -31,0 -55,-8 -72,-23 -17,-16 -25,-37 -25,-62 0,-24 8,-44 25,-60 16,-15 40,-23 70,-23 2,0 4,0 8,0l0 137c20,-2 36,-7 46,-17 11,-11 16,-23 16,-39 0,-11 -3,-21 -9,-29 -6,-8 -15,-14 -29,-19zm-49 102l0 -102c-16,1 -27,5 -35,12 -12,9 -18,22 -18,38 0,14 5,26 14,36 10,9 23,15 39,16z"/>
  <path id="11" class="fil6" d="M8513 6643l-29 4c2,-7 3,-13 3,-18 0,-7 -1,-12 -3,-17 -3,-4 -6,-7 -10,-10 -3,-2 -11,-5 -23,-9 -2,-1 -4,-2 -8,-3l-183 70 0 -34 105 -38c14,-5 28,-9 43,-13 -14,-4 -28,-8 -42,-13l-106 -39 0 -31 186 69c20,8 34,14 41,18 10,5 18,12 23,19 4,7 7,15 7,25 0,6 -1,13 -4,20z"/>
  <polygon id="12" class="fil6" points="8367,6380 8336,6380 8336,6284 8367,6284 "/>
  <polygon id="13" class="fil6" points="8443,6147 8190,6147 8190,5965 8220,5965 8220,6114 8297,6114 8297,5975 8327,5975 8327,6114 8413,6114 8413,5959 8443,5959 "/>
  <rect class="fil2 str1" transform="matrix(-2.13794E-13 -1.13312 1.02466 -2.93425E-14 4263.1 6341.09)" width="254" height="227"/>
  <g id="_2337142389312">
   <polygon class="fil2" points="2314,7938 2314,8171 2245,8171 2245,8234 1996,8055 2245,7875 2245,7938 "/>
   <polyline class="fil3 str1" points="2314,8171 2245,8171 2245,8234 1996,8055 2245,7875 2245,7938 2314,7938 "/>
  </g>
  <path class="fil7" d="M7168 5334l22 -3c2,12 6,21 12,27 6,5 14,8 22,8 11,0 19,-4 26,-11 7,-7 11,-16 11,-26 0,-10 -4,-18 -10,-25 -7,-6 -15,-10 -25,-10 -4,0 -9,1 -15,3l2 -19c2,0 3,0 4,0 9,0 17,-2 25,-7 7,-5 11,-12 11,-22 0,-8 -3,-15 -8,-20 -6,-5 -13,-8 -21,-8 -9,0 -16,3 -21,8 -6,5 -10,13 -11,24l-22 -4c3,-14 9,-26 18,-34 10,-8 21,-12 35,-12 10,0 19,2 27,6 8,5 14,10 19,17 4,7 6,15 6,23 0,8 -2,15 -6,21 -4,6 -10,11 -18,15 10,2 18,7 24,15 6,7 9,17 9,28 0,16 -6,29 -17,40 -11,10 -26,16 -43,16 -15,0 -28,-5 -39,-14 -10,-9 -16,-21 -17,-36z"/>
  <polygon id="1" class="fil7" points="7317,5381 7317,5356 7342,5356 7342,5381 "/>
  <path id="2" class="fil7" d="M7374 5334l22 -3c2,12 6,21 12,27 6,5 14,8 22,8 10,0 19,-4 26,-11 7,-7 11,-16 11,-26 0,-10 -4,-18 -10,-25 -7,-6 -15,-10 -25,-10 -4,0 -9,1 -15,3l2 -19c2,0 3,0 4,0 9,0 17,-2 25,-7 7,-5 11,-12 11,-22 0,-8 -3,-15 -8,-20 -6,-5 -13,-8 -21,-8 -9,0 -16,3 -21,8 -6,5 -10,13 -11,24l-22 -4c3,-14 9,-26 18,-34 10,-8 21,-12 35,-12 10,0 19,2 27,6 8,5 14,10 19,17 4,7 6,15 6,23 0,8 -2,15 -6,21 -4,6 -10,11 -18,15 10,2 18,7 24,15 6,7 9,17 9,28 0,16 -6,29 -17,40 -12,10 -26,16 -43,16 -15,0 -28,-5 -39,-14 -10,-9 -16,-21 -17,-36z"/>
  <path id="3" class="fil7" d="M7570 5381l-68 -177 25 0 46 128c4,11 7,20 9,29 3,-9 6,-19 10,-29l48 -128 23 0 -69 177 -24 0z"/>
  <path class="fil8" d="M7212 4959l-69 -177 26 0 46 129c3,10 6,19 9,29 3,-10 6,-20 9,-29l48 -129 24 0 -69 177 -24 0z"/>
  <polygon id="1" class="fil8" points="7327,5058 7327,4881 7447,4881 7447,4902 7351,4902 7351,4957 7434,4957 7434,4977 7351,4977 7351,5058 "/>
  <path id="2" class="fil8" d="M7476 5058l0 -177 35 0 42 125c4,12 7,20 9,26 2,-6 5,-16 9,-28l43 -123 31 0 0 177 -22 0 0 -148 -52 148 -21 0 -51 -151 0 151 -23 0z"/>
  <path id="3" class="fil8" d="M7809 4996l23 6c-5,19 -14,33 -26,43 -13,11 -29,16 -47,16 -19,0 -35,-4 -47,-12 -11,-8 -21,-19 -27,-34 -6,-14 -9,-30 -9,-47 0,-18 3,-34 10,-48 8,-14 18,-24 30,-31 13,-8 28,-11 43,-11 18,0 33,4 45,13 12,9 20,22 25,38l-23 6c-4,-13 -10,-22 -18,-28 -8,-6 -17,-9 -29,-9 -14,0 -25,3 -34,10 -9,6 -16,15 -19,26 -4,11 -6,22 -6,34 0,15 2,28 7,39 4,11 11,20 20,25 9,6 19,9 30,9 13,0 24,-4 33,-12 9,-7 15,-18 19,-33z"/>
  <path class="fil9" d="M7221 5794l-22 0 0 -139c-5,5 -12,10 -20,15 -9,5 -17,9 -23,12l0 -21c12,-6 22,-13 31,-21 10,-8 16,-16 20,-24l14 0 0 178z"/>
  <path id="1" class="fil9" d="M7391 5773l0 21 -118 0c0,-5 1,-10 3,-15 3,-8 8,-16 14,-24 7,-7 17,-16 29,-26 19,-16 32,-29 39,-38 7,-9 10,-18 10,-26 0,-9 -3,-16 -9,-22 -6,-6 -14,-9 -24,-9 -11,0 -19,3 -26,10 -6,6 -9,15 -9,26l-22 -3c1,-16 7,-29 17,-38 10,-8 23,-13 40,-13 17,0 31,5 40,14 10,10 15,22 15,35 0,8 -1,14 -4,21 -3,7 -8,14 -14,22 -7,7 -18,18 -34,31 -13,11 -21,18 -25,22 -4,4 -7,8 -9,12l87 0z"/>
  <path id="2" class="fil9" d="M7473 5794l-68 -177 25 0 46 129c4,10 7,19 9,28 3,-9 6,-19 10,-28l47 -129 24 0 -69 177 -24 0z"/>
  <rect class="fil1 str0" x="3631" y="4560" width="1500" height="1500"/>
  <path class="fil6" d="M3987 5016l25 -2c1,10 4,18 9,25 4,6 11,12 20,16 9,4 19,6 31,6 10,0 19,-2 27,-5 8,-3 13,-7 17,-12 4,-6 6,-12 6,-18 0,-6 -2,-12 -6,-16 -3,-5 -9,-9 -18,-12 -5,-2 -17,-6 -36,-10 -18,-5 -31,-9 -39,-13 -9,-5 -16,-11 -21,-19 -5,-7 -7,-15 -7,-25 0,-10 3,-19 8,-28 6,-9 15,-16 26,-21 11,-4 23,-6 37,-6 15,0 28,2 39,7 12,5 21,12 27,21 6,9 9,20 10,32l-26 2c-1,-13 -6,-22 -14,-29 -8,-7 -20,-10 -35,-10 -16,0 -28,3 -36,9 -7,6 -11,13 -11,22 0,7 3,13 8,17 5,5 19,10 41,15 21,5 36,9 44,13 12,5 21,12 26,20 6,9 9,18 9,29 0,11 -3,21 -10,30 -6,10 -15,17 -26,22 -12,6 -24,8 -39,8 -18,0 -33,-2 -46,-8 -12,-5 -22,-13 -29,-24 -7,-10 -11,-22 -11,-36z"/>
  <path id="1" class="fil6" d="M4277 5081l0 -22c-12,17 -27,25 -47,25 -8,0 -16,-2 -24,-5 -7,-3 -13,-7 -16,-12 -4,-5 -7,-11 -8,-19 -1,-5 -2,-12 -2,-23l0 -90 25 0 0 81c0,12 1,21 2,26 1,6 5,11 10,15 5,4 11,6 18,6 8,0 15,-2 21,-6 7,-4 11,-9 14,-16 3,-6 4,-16 4,-28l0 -78 25 0 0 146 -22 0z"/>
  <path id="2" class="fil6" d="M4338 5137l0 -202 22 0 0 19c6,-8 12,-13 19,-17 6,-4 14,-6 24,-6 12,0 23,4 33,10 10,6 17,16 22,27 4,12 7,25 7,39 0,15 -3,28 -8,40 -5,12 -13,21 -24,28 -10,6 -21,9 -32,9 -8,0 -16,-2 -22,-5 -7,-4 -12,-8 -16,-13l0 71 -25 0zm22 -128c0,18 4,32 12,41 8,9 17,14 28,14 11,0 20,-5 28,-14 8,-10 12,-24 12,-43 0,-19 -4,-33 -12,-42 -8,-10 -17,-14 -27,-14 -11,0 -20,5 -28,15 -8,10 -13,24 -13,43z"/>
  <path id="3" class="fil6" d="M4495 5137l0 -202 22 0 0 19c6,-8 12,-13 19,-17 6,-4 14,-6 24,-6 12,0 23,4 33,10 10,6 17,16 22,27 4,12 7,25 7,39 0,15 -3,28 -8,40 -6,12 -13,21 -24,28 -10,6 -21,9 -32,9 -8,0 -16,-2 -22,-5 -7,-4 -12,-8 -16,-13l0 71 -25 0zm22 -128c0,18 4,32 12,41 7,9 17,14 27,14 12,0 21,-5 29,-14 8,-10 11,-24 11,-43 0,-19 -3,-33 -11,-42 -8,-10 -17,-14 -27,-14 -11,0 -20,5 -28,15 -8,10 -13,24 -13,43z"/>
  <polygon id="4" class="fil6" points="4651,5081 4651,4879 4676,4879 4676,5081 "/>
  <path id="5" class="fil6" d="M4713 5137l-2 -23c5,2 10,3 14,3 5,0 10,-1 13,-3 3,-2 6,-5 8,-8 2,-2 4,-9 8,-18 0,-2 1,-4 2,-7l-56 -146 27 0 31 84c4,11 7,22 10,34 3,-11 6,-22 10,-33l32 -85 24 0 -55 149c-6,16 -11,27 -14,33 -4,8 -9,14 -15,18 -6,3 -13,5 -21,5 -4,0 -10,-1 -16,-3z"/>
  <path id="6" class="fil6" d="M3956 5396l0 -202 40 0 48 143c4,14 8,24 10,30 2,-7 6,-18 11,-32l48 -141 36 0 0 202 -26 0 0 -169 -59 169 -24 0 -58 -172 0 172 -26 0z"/>
  <path id="7" class="fil6" d="M4179 5323c0,-27 8,-47 23,-60 13,-11 28,-16 46,-16 20,0 37,6 49,19 13,14 20,32 20,55 0,19 -3,34 -9,44 -6,11 -14,19 -25,25 -10,6 -22,9 -35,9 -20,0 -37,-6 -50,-19 -12,-13 -19,-32 -19,-57zm26 0c0,19 4,33 12,42 8,9 19,14 31,14 12,0 23,-5 31,-14 8,-9 12,-24 12,-43 0,-18 -4,-31 -12,-41 -8,-9 -19,-14 -31,-14 -12,0 -23,5 -31,14 -8,9 -12,23 -12,42z"/>
  <path id="8" class="fil6" d="M4346 5396l0 -146 22 0 0 21c11,-16 26,-24 47,-24 8,0 16,1 24,4 7,4 13,8 16,13 4,5 7,11 8,18 1,5 2,13 2,24l0 90 -25 0 0 -89c0,-10 -1,-17 -3,-22 -2,-5 -6,-9 -10,-12 -5,-3 -11,-5 -18,-5 -10,0 -19,3 -27,10 -8,7 -11,20 -11,38l0 80 -25 0z"/>
  <path id="9" class="fil6" d="M4503 5222l0 -28 25 0 0 28 -25 0zm0 174l0 -146 25 0 0 146 -25 0z"/>
  <path id="10" class="fil6" d="M4619 5374l4 22c-7,1 -14,2 -19,2 -9,0 -16,-1 -21,-4 -5,-3 -8,-7 -10,-11 -2,-5 -3,-15 -3,-30l0 -84 -19 0 0 -19 19 0 0 -36 24 -15 0 51 25 0 0 19 -25 0 0 86c0,7 1,11 2,13 1,2 2,4 4,5 2,1 5,2 8,2 3,0 7,0 11,-1z"/>
  <path id="11" class="fil6" d="M4634 5323c0,-27 8,-47 23,-60 13,-11 28,-16 46,-16 20,0 37,6 49,19 13,14 20,32 20,55 0,19 -3,34 -9,44 -5,11 -14,19 -25,25 -10,6 -22,9 -35,9 -20,0 -37,-6 -50,-19 -12,-13 -19,-32 -19,-57zm26 0c0,19 4,33 12,42 8,9 19,14 31,14 12,0 23,-5 31,-14 8,-9 12,-24 12,-43 0,-18 -4,-31 -12,-41 -8,-9 -19,-14 -31,-14 -12,0 -23,5 -31,14 -8,9 -12,23 -12,42z"/>
  <path id="12" class="fil6" d="M4800 5396l0 -146 23 0 0 22c5,-10 11,-17 16,-20 4,-4 10,-5 16,-5 8,0 16,2 25,8l-9 22c-6,-3 -12,-5 -18,-5 -5,0 -10,2 -14,5 -5,4 -8,8 -10,14 -2,9 -4,18 -4,29l0 76 -25 0z"/>
  <polygon id="13" class="fil6" points="4017,5680 4017,5503 4040,5503 4040,5680 "/>
  <polygon id="14" class="fil6" points="4081,5680 4081,5503 4105,5503 4198,5642 4198,5503 4220,5503 4220,5680 4196,5680 4104,5541 4104,5680 "/>
  <path id="15" class="fil6" d="M4240 5680l68 -177 26 0 72 177 -27 0 -20 -54 -75 0 -19 54 -25 0zm51 -73l60 0 -18 -49c-6,-15 -10,-27 -13,-37 -2,12 -5,23 -9,34l-20 52z"/>
  <path id="16" class="fil6" d="M4530 5659l0 21 -117 0c-1,-6 0,-11 2,-15 3,-8 8,-16 15,-24 6,-8 16,-17 28,-27 19,-15 32,-28 39,-37 7,-9 10,-18 10,-26 0,-9 -3,-16 -9,-22 -6,-6 -14,-9 -24,-9 -11,0 -19,3 -25,9 -7,7 -10,15 -10,26l-22 -2c1,-16 7,-29 17,-38 10,-9 23,-13 40,-13 17,0 31,5 40,14 10,10 15,21 15,35 0,7 -1,14 -4,21 -3,7 -8,14 -14,22 -7,7 -18,18 -34,31 -13,11 -21,18 -25,22 -4,4 -7,8 -9,12l87 0z"/>
  <path id="17" class="fil6" d="M4553 5633l22 -3c2,12 7,21 12,26 6,6 14,9 22,9 11,0 19,-4 26,-11 7,-7 11,-16 11,-26 0,-10 -3,-19 -10,-25 -6,-7 -15,-10 -25,-10 -4,0 -9,1 -15,3l2 -19c2,0 3,0 4,0 9,0 17,-3 25,-7 7,-5 11,-13 11,-23 0,-8 -3,-14 -8,-19 -5,-6 -12,-8 -21,-8 -8,0 -15,3 -21,8 -6,5 -9,13 -11,24l-22 -4c3,-15 9,-26 18,-34 10,-8 22,-12 36,-12 9,0 18,2 26,6 8,4 15,10 19,17 4,7 6,15 6,23 0,8 -2,14 -6,21 -4,6 -10,11 -18,15 10,2 18,7 24,15 6,7 9,17 9,28 0,16 -6,29 -17,39 -11,11 -25,17 -43,17 -15,0 -28,-5 -38,-14 -11,-10 -16,-22 -18,-36z"/>
  <path id="18" class="fil6" d="M4690 5633l22 -3c3,12 7,21 13,26 6,6 13,9 22,9 10,0 19,-4 26,-11 7,-7 10,-16 10,-26 0,-10 -3,-19 -10,-25 -6,-7 -14,-10 -24,-10 -4,0 -10,1 -16,3l3 -19c1,0 2,0 3,0 9,0 18,-3 25,-7 8,-5 11,-13 11,-23 0,-8 -2,-14 -8,-19 -5,-6 -12,-8 -21,-8 -8,0 -15,3 -21,8 -5,5 -9,13 -11,24l-21 -4c2,-15 8,-26 18,-34 9,-8 21,-12 35,-12 9,0 18,2 26,6 9,4 15,10 19,17 4,7 7,15 7,23 0,8 -2,14 -7,21 -4,6 -10,11 -18,15 11,2 19,7 25,15 5,7 8,17 8,28 0,16 -5,29 -17,39 -11,11 -25,17 -42,17 -16,0 -29,-5 -39,-14 -10,-10 -16,-22 -18,-36z"/>
  <g id="_2337142418048">
   <polygon class="fil2" points="4497,6111 4264,6111 4264,6042 4201,6042 4381,5793 4560,6042 4497,6042 "/>
   <polyline class="fil3 str1" points="4264,6111 4264,6042 4201,6042 4381,5793 4560,6042 4497,6042 4497,6111 "/>
  </g>
  <path class="fil4 str2" d="M5114 4778l-200 -200 200 0 0 200zm-100 -100m0 -100m100 100"/>
  <g>
   <path class="fil8" d="M7041 4911l-1910 -3 0 -20 1910 3 0 20zm91 -10l-92 46 0 -92 92 46z"/>
  </g>
  <g>
   <path class="fil4" d="M7041 5300l-204 -2 0 -20 204 2 0 20zm91 -9l-93 45 1 -92 92 47z"/>
  </g>
  <rect class="fil1 str0" x="5337" y="4561" width="1500" height="1500"/>
  <path class="fil6" d="M5693 5017l25 -3c2,11 4,19 9,25 4,7 11,12 20,16 9,4 20,6 31,6 10,0 19,-1 27,-4 8,-3 14,-8 17,-13 4,-5 6,-11 6,-17 0,-6 -2,-12 -5,-17 -4,-4 -10,-8 -19,-12 -5,-2 -17,-5 -35,-9 -19,-5 -32,-9 -39,-13 -10,-5 -17,-11 -22,-19 -5,-7 -7,-16 -7,-25 0,-10 3,-20 9,-29 5,-9 14,-15 25,-20 11,-5 23,-7 37,-7 15,0 28,3 40,7 11,5 20,12 26,22 6,9 9,20 10,32l-26 1c-1,-12 -6,-22 -14,-28 -8,-7 -19,-10 -35,-10 -16,0 -28,3 -35,9 -8,6 -11,13 -11,21 0,7 2,13 7,18 6,5 19,10 41,14 21,5 36,10 44,13 12,6 21,13 27,21 5,8 8,18 8,29 0,10 -3,20 -9,30 -7,9 -15,17 -27,22 -11,5 -24,8 -39,8 -18,0 -33,-3 -46,-8 -12,-5 -22,-13 -29,-24 -7,-11 -10,-23 -11,-36z"/>
  <path id="1" class="fil6" d="M5983 5082l0 -22c-12,16 -27,25 -46,25 -9,0 -17,-2 -25,-5 -7,-4 -13,-8 -16,-13 -4,-5 -6,-11 -8,-18 -1,-5 -1,-13 -1,-23l0 -91 24 0 0 81c0,13 1,22 2,26 2,7 5,12 10,16 5,3 11,5 19,5 7,0 14,-2 20,-5 7,-4 12,-10 14,-16 3,-7 4,-16 4,-29l0 -78 25 0 0 147 -22 0z"/>
  <path id="2" class="fil6" d="M6044 5138l0 -203 23 0 0 19c5,-7 11,-13 18,-16 6,-4 15,-6 24,-6 13,0 24,3 33,10 10,6 17,15 22,27 5,11 7,24 7,38 0,15 -3,29 -8,41 -5,12 -13,21 -23,27 -11,6 -21,10 -33,10 -8,0 -15,-2 -22,-6 -6,-3 -12,-7 -16,-13l0 72 -25 0zm23 -129c0,19 4,33 11,42 8,9 17,13 28,13 11,0 20,-4 28,-14 8,-9 12,-23 12,-43 0,-18 -4,-32 -12,-42 -7,-9 -17,-14 -27,-14 -11,0 -20,5 -28,15 -8,10 -12,24 -12,43z"/>
  <path id="3" class="fil6" d="M6201 5138l0 -203 23 0 0 19c5,-7 11,-13 18,-16 6,-4 15,-6 24,-6 13,0 24,3 33,10 10,6 17,15 22,27 5,11 7,24 7,38 0,15 -3,29 -8,41 -5,12 -13,21 -23,27 -11,6 -21,10 -33,10 -8,0 -15,-2 -22,-6 -6,-3 -12,-7 -16,-13l0 72 -25 0zm23 -129c0,19 3,33 11,42 8,9 17,13 28,13 11,0 20,-4 28,-14 8,-9 12,-23 12,-43 0,-18 -4,-32 -12,-42 -7,-9 -17,-14 -27,-14 -11,0 -20,5 -28,15 -8,10 -12,24 -12,43z"/>
  <polygon id="4" class="fil6" points="6357,5082 6357,4879 6382,4879 6382,5082 "/>
  <path id="5" class="fil6" d="M6420 5138l-3 -23c5,1 10,2 14,2 6,0 10,-1 13,-3 4,-1 6,-4 8,-7 2,-3 5,-9 8,-19 1,-1 1,-3 2,-6l-55 -147 26 0 31 85c4,10 7,22 10,33 3,-11 7,-22 11,-32l31 -86 25 0 -56 149c-6,16 -10,27 -14,33 -4,8 -9,14 -15,18 -6,4 -12,6 -20,6 -5,0 -10,-1 -16,-3z"/>
  <path id="6" class="fil6" d="M5662 5397l0 -202 40 0 48 143c5,13 8,23 10,30 2,-8 6,-18 11,-33l48 -140 36 0 0 202 -26 0 0 -169 -58 169 -25 0 -58 -172 0 172 -26 0z"/>
  <path id="7" class="fil6" d="M5886 5324c0,-27 7,-47 22,-61 13,-10 28,-16 46,-16 20,0 37,7 50,20 12,13 19,31 19,55 0,18 -3,33 -9,44 -5,11 -14,19 -24,25 -11,6 -23,9 -36,9 -20,0 -37,-7 -49,-20 -13,-13 -19,-32 -19,-56zm25 0c0,18 4,32 12,42 9,9 19,14 31,14 13,0 23,-5 31,-14 8,-10 12,-24 12,-43 0,-18 -4,-32 -12,-41 -8,-9 -18,-14 -31,-14 -12,0 -22,4 -31,14 -8,9 -12,23 -12,42z"/>
  <path id="8" class="fil6" d="M6052 5397l0 -147 22 0 0 21c11,-16 26,-24 47,-24 9,0 17,2 24,5 7,3 13,7 17,12 3,6 6,12 7,19 1,4 2,12 2,24l0 90 -25 0 0 -89c0,-10 -1,-18 -3,-23 -2,-5 -5,-9 -10,-12 -5,-3 -11,-4 -17,-4 -11,0 -20,3 -28,10 -7,6 -11,19 -11,38l0 80 -25 0z"/>
  <path id="9" class="fil6" d="M6209 5223l0 -28 25 0 0 28 -25 0zm0 174l0 -147 25 0 0 147 -25 0z"/>
  <path id="10" class="fil6" d="M6325 5375l4 22c-7,1 -13,2 -19,2 -9,0 -16,-2 -21,-4 -5,-3 -8,-7 -10,-12 -2,-4 -3,-14 -3,-29l0 -84 -19 0 0 -20 19 0 0 -36 25 -15 0 51 24 0 0 20 -24 0 0 85c0,7 0,12 1,14 1,2 2,4 4,5 2,1 5,2 9,2 2,0 6,-1 10,-1z"/>
  <path id="11" class="fil6" d="M6341 5324c0,-27 7,-47 22,-61 13,-10 28,-16 46,-16 20,0 37,7 50,20 12,13 19,31 19,55 0,18 -3,33 -9,44 -5,11 -13,19 -24,25 -11,6 -23,9 -36,9 -20,0 -37,-7 -49,-20 -13,-13 -19,-32 -19,-56zm25 0c0,18 4,32 12,42 9,9 19,14 31,14 13,0 23,-5 31,-14 8,-10 12,-24 12,-43 0,-18 -4,-32 -12,-41 -8,-9 -18,-14 -31,-14 -12,0 -22,4 -31,14 -8,9 -12,23 -12,42z"/>
  <path id="12" class="fil6" d="M6507 5397l0 -147 22 0 0 23c6,-11 11,-17 16,-21 5,-3 10,-5 16,-5 8,0 17,3 25,8l-9 23c-6,-3 -12,-5 -18,-5 -5,0 -10,2 -14,5 -4,3 -8,8 -9,13 -3,9 -4,19 -4,29l0 77 -25 0z"/>
  <polygon id="13" class="fil6" points="5723,5680 5723,5503 5746,5503 5746,5680 "/>
  <polygon id="14" class="fil6" points="5787,5680 5787,5503 5811,5503 5904,5642 5904,5503 5927,5503 5927,5680 5903,5680 5810,5541 5810,5680 "/>
  <path id="15" class="fil6" d="M5947 5680l67 -177 26 0 72 177 -27 0 -20 -53 -74 0 -20 53 -24 0zm50 -72l61 0 -19 -49c-5,-15 -10,-28 -12,-37 -3,11 -6,22 -10,34l-20 52z"/>
  <path id="16" class="fil6" d="M6236 5659l0 21 -117 0c0,-5 0,-10 2,-15 3,-8 8,-16 15,-23 6,-8 16,-17 28,-27 19,-16 32,-28 39,-38 7,-9 10,-17 10,-26 0,-8 -3,-16 -9,-21 -6,-6 -14,-9 -24,-9 -11,0 -19,3 -25,9 -7,6 -10,15 -10,26l-22 -2c1,-17 7,-30 17,-38 10,-9 24,-13 40,-13 17,0 31,4 41,14 10,9 15,21 15,35 0,7 -2,14 -5,21 -3,7 -8,14 -14,21 -7,8 -18,18 -34,31 -13,11 -21,19 -25,23 -4,4 -7,7 -9,11l87 0z"/>
  <path id="17" class="fil6" d="M6259 5633l22 -3c3,13 7,22 13,27 6,5 13,8 22,8 10,0 19,-3 26,-10 7,-8 10,-16 10,-27 0,-10 -3,-18 -10,-24 -6,-7 -14,-10 -24,-10 -5,0 -10,1 -16,2l3 -19c1,0 2,0 3,0 9,0 18,-2 25,-7 8,-5 11,-12 11,-22 0,-8 -2,-15 -8,-20 -5,-5 -12,-8 -21,-8 -8,0 -15,3 -21,8 -6,6 -9,14 -11,25l-21 -4c2,-15 8,-26 18,-34 9,-8 21,-12 35,-12 9,0 18,2 26,6 9,4 15,10 19,17 4,7 6,14 6,22 0,8 -2,15 -6,21 -4,7 -10,12 -18,15 11,3 19,8 24,15 6,8 9,17 9,29 0,15 -6,28 -17,39 -11,11 -25,16 -42,16 -16,0 -29,-5 -39,-14 -10,-9 -16,-21 -18,-36z"/>
  <path id="18" class="fil6" d="M6397 5633l21 -3c3,13 7,22 13,27 6,5 13,8 22,8 10,0 19,-3 26,-10 7,-8 10,-16 10,-27 0,-10 -3,-18 -9,-24 -7,-7 -15,-10 -25,-10 -4,0 -9,1 -16,2l3 -19c1,0 3,0 3,0 10,0 18,-2 25,-7 8,-5 12,-12 12,-22 0,-8 -3,-15 -9,-20 -5,-5 -12,-8 -20,-8 -9,0 -16,3 -22,8 -5,6 -9,14 -10,25l-22 -4c3,-15 9,-26 18,-34 9,-8 21,-12 35,-12 10,0 19,2 27,6 8,4 14,10 18,17 5,7 7,14 7,22 0,8 -2,15 -6,21 -4,7 -11,12 -19,15 11,3 19,8 25,15 6,8 8,17 8,29 0,15 -5,28 -16,39 -12,11 -26,16 -43,16 -16,0 -29,-5 -39,-14 -10,-9 -16,-21 -17,-36z"/>
  <g>
   <polygon class="fil2" points="6203,6122 5971,6122 5971,6053 5907,6053 6087,5804 6266,6053 6203,6053 "/>
   <polyline class="fil3 str1" points="5971,6122 5971,6053 5907,6053 6087,5804 6266,6053 6203,6053 6203,6122 "/>
  </g>
  <path class="fil4 str2" d="M6817 4774l-200 -200 200 0 0 200zm-100 -100m0 -100m100 100"/>
  <polygon class="fil6" points="1633,5901 1330,5901 1330,5696 1365,5696 1365,5861 1460,5861 1460,5718 1495,5718 1495,5861 1633,5861 "/>
  <path id="1" class="fil6" d="M1633 5645l-303 0 0 -60 214 -71c20,-7 35,-12 45,-15 -11,-3 -27,-9 -48,-16l-211 -73 0 -54 303 0 0 39 -254 0 254 88 0 36 -258 88 258 0 0 38z"/>
  <path id="2" class="fil6" d="M1527 5076l10 -40c33,8 58,23 75,45 17,22 26,48 26,80 0,33 -7,59 -20,80 -13,20 -32,36 -58,46 -25,11 -52,16 -81,16 -31,0 -59,-6 -82,-18 -24,-12 -42,-29 -54,-51 -12,-22 -18,-47 -18,-74 0,-30 7,-55 23,-76 15,-21 37,-35 65,-43l9 39c-22,7 -38,17 -48,31 -10,13 -15,30 -15,50 0,23 6,43 17,58 11,16 26,27 45,33 19,7 38,10 58,10 26,0 48,-4 67,-11 20,-8 34,-20 43,-35 10,-16 15,-33 15,-52 0,-22 -7,-41 -20,-57 -13,-15 -32,-26 -57,-31z"/>
  <polygon id="3" class="fil6" points="1633,4867 1330,4867 1330,4827 1455,4827 1455,4670 1330,4670 1330,4630 1633,4630 1633,4670 1490,4670 1490,4827 1633,4827 "/>
  <path id="4" class="fil6" d="M1633 4563l-303 0 0 -115c0,-20 1,-35 3,-46 2,-15 7,-27 14,-37 7,-10 17,-18 29,-25 13,-6 26,-9 41,-9 26,0 48,8 66,25 17,16 26,46 26,89l0 78 124 0 0 40zm-159 -40l0 -79c0,-26 -5,-44 -15,-55 -9,-11 -23,-16 -40,-16 -13,0 -24,3 -33,9 -9,7 -15,15 -18,26 -2,6 -3,19 -3,37l0 78 109 0z"/>
  <path id="5" class="fil6" d="M1527 4065l10 -41c33,9 58,24 75,46 17,21 26,48 26,80 0,32 -7,59 -20,79 -13,21 -32,36 -58,47 -25,10 -52,16 -81,16 -31,0 -59,-6 -82,-18 -24,-12 -42,-29 -54,-52 -12,-22 -18,-46 -18,-73 0,-30 7,-56 23,-76 15,-21 37,-35 65,-44l9 40c-22,7 -38,17 -48,30 -10,14 -15,30 -15,51 0,23 6,42 17,58 11,16 26,27 45,33 19,6 38,9 58,9 26,0 48,-3 67,-11 20,-7 34,-19 43,-35 10,-16 15,-33 15,-51 0,-23 -7,-41 -20,-57 -13,-15 -32,-26 -57,-31z"/>
  <rect class="fil1 str0" x="5403" y="2577" width="1500" height="1500"/>
  <path class="fil6" d="M5717 3307l0 -18c-10,14 -23,21 -41,21 -12,0 -23,-3 -32,-9 -10,-7 -18,-16 -23,-27 -5,-12 -8,-25 -8,-40 0,-14 2,-27 7,-39 5,-12 12,-21 22,-28 10,-6 21,-9 33,-9 9,0 16,2 23,5 7,4 13,9 17,15l0 -73 25 0 0 202 -23 0zm-79 -73c0,19 4,33 12,42 8,10 17,14 28,14 11,0 20,-4 28,-13 8,-9 11,-22 11,-41 0,-20 -4,-34 -11,-44 -8,-9 -18,-14 -29,-14 -11,0 -20,5 -28,14 -7,9 -11,23 -11,42z"/>
  <path id="1" class="fil6" d="M5875 3307l0 -21c-12,16 -27,24 -46,24 -9,0 -17,-1 -25,-4 -7,-4 -13,-8 -16,-13 -4,-5 -6,-11 -8,-18 -1,-5 -1,-13 -1,-23l0 -91 24 0 0 81c0,13 1,22 2,26 1,7 5,12 10,15 5,4 11,6 19,6 7,0 14,-2 20,-6 7,-3 12,-9 14,-15 3,-7 4,-16 4,-29l0 -78 25 0 0 146 -22 0z"/>
  <path id="2" class="fil6" d="M6032 3289c-9,8 -18,13 -27,17 -8,3 -17,4 -27,4 -16,0 -29,-3 -37,-11 -9,-8 -13,-18 -13,-30 0,-7 1,-14 5,-20 3,-6 7,-11 12,-14 6,-4 12,-6 18,-8 5,-1 13,-3 22,-4 20,-2 35,-5 45,-8 0,-4 0,-6 0,-7 0,-10 -3,-17 -7,-21 -7,-6 -16,-9 -29,-9 -11,0 -20,2 -25,7 -6,4 -10,11 -13,21l-24 -3c2,-10 6,-19 11,-25 5,-7 12,-12 22,-15 9,-3 21,-5 33,-5 13,0 23,1 31,4 8,3 13,7 17,11 4,5 6,10 8,17 1,5 1,12 1,23l0 33c0,23 0,38 1,44 1,6 4,12 7,17l-26 0c-3,-5 -4,-11 -5,-18zm-2 -55c-9,4 -23,7 -41,9 -10,2 -17,3 -22,5 -4,2 -7,5 -9,8 -3,4 -4,8 -4,12 0,7 3,12 8,16 5,5 12,7 22,7 9,0 18,-2 25,-6 8,-4 13,-10 17,-17 2,-6 4,-14 4,-25l0 -9z"/>
  <polygon id="3" class="fil6" points="6093,3307 6093,3105 6117,3105 6117,3307 "/>
  <path id="4" class="fil6" d="M6237 3307l0 -202 40 0 48 143c4,14 7,24 9,30 3,-7 6,-18 11,-32l49 -141 35 0 0 202 -25 0 0 -169 -59 169 -24 0 -59 -172 0 172 -25 0z"/>
  <polygon id="5" class="fil6" points="6477,3307 6477,3105 6504,3105 6504,3307 "/>
  <path id="6" class="fil6" d="M6695 3237l27 6c-6,22 -16,39 -31,50 -14,12 -32,18 -53,18 -22,0 -39,-5 -53,-14 -14,-8 -24,-21 -31,-38 -7,-17 -11,-35 -11,-54 0,-21 4,-40 12,-55 8,-16 20,-28 35,-36 14,-8 31,-12 48,-12 21,0 38,5 51,15 14,11 24,25 29,44l-26 6c-5,-15 -12,-25 -20,-32 -9,-7 -21,-10 -34,-10 -16,0 -28,4 -39,11 -10,7 -18,17 -22,30 -4,12 -6,25 -6,39 0,17 2,32 7,45 5,13 13,22 24,28 10,7 22,10 34,10 15,0 27,-4 38,-13 10,-9 17,-21 21,-38z"/>
  <path id="7" class="fil6" d="M5508 3559l0 -152 30 0 36 108c3,10 5,17 7,22 2,-6 4,-14 8,-24l36 -106 27 0 0 152 -19 0 0 -127 -44 127 -18 0 -44 -129 0 129 -19 0z"/>
  <path id="8" class="fil6" d="M5685 3559l0 -152 57 0c10,0 17,1 23,2 7,1 13,3 19,7 5,3 9,8 12,14 3,7 4,13 4,21 0,13 -4,24 -12,33 -8,9 -23,13 -45,13l-38 0 0 62 -20 0zm20 -80l39 0c13,0 22,-2 27,-7 6,-5 9,-12 9,-20 0,-7 -2,-12 -5,-17 -3,-4 -8,-7 -13,-9 -3,-1 -10,-1 -19,-1l-38 0 0 54z"/>
  <path id="9" class="fil6" d="M5818 3519l19 -3c2,11 6,18 11,23 5,5 11,7 19,7 8,0 16,-3 22,-9 6,-6 9,-14 9,-23 0,-8 -3,-15 -9,-21 -5,-5 -12,-8 -21,-8 -3,0 -8,0 -13,2l2 -16c1,0 2,0 3,0 8,0 15,-2 22,-6 6,-5 9,-11 9,-20 0,-6 -2,-12 -7,-16 -4,-5 -10,-7 -18,-7 -7,0 -13,2 -18,7 -5,4 -8,11 -9,20l-19 -3c2,-13 8,-22 16,-29 8,-7 18,-10 30,-10 8,0 16,1 23,5 7,3 12,8 16,14 3,7 5,13 5,20 0,6 -2,12 -5,18 -4,5 -9,9 -16,13 9,2 16,6 21,12 5,7 8,15 8,25 0,13 -5,24 -15,34 -10,9 -22,13 -37,13 -13,0 -24,-4 -33,-12 -8,-8 -13,-18 -15,-30z"/>
  <path id="10" class="fil6" d="M5995 3559l0 -36 -65 0 0 -18 69 -98 15 0 0 98 21 0 0 18 -21 0 0 36 -19 0zm0 -54l0 -68 -47 68 47 0z"/>
  <path id="11" class="fil6" d="M6061 3559l0 -152 52 0c12,0 21,1 27,2 9,2 16,6 23,11 8,7 14,16 17,26 4,11 6,23 6,36 0,12 -1,22 -4,31 -2,9 -6,16 -10,22 -4,6 -9,10 -14,14 -5,3 -11,6 -18,7 -7,2 -15,3 -24,3l-55 0zm20 -18l33 0c10,0 17,-1 23,-3 6,-2 10,-4 14,-8 4,-4 8,-11 11,-19 2,-8 4,-18 4,-29 0,-16 -3,-28 -8,-37 -5,-8 -12,-14 -19,-17 -5,-2 -14,-3 -26,-3l-32 0 0 116z"/>
  <polygon id="12" class="fil6" points="6253,3559 6253,3425 6203,3425 6203,3407 6323,3407 6323,3425 6273,3425 6273,3559 "/>
  <path id="13" class="fil6" d="M6336 3484c0,-18 2,-32 5,-43 4,-11 10,-20 17,-26 7,-5 16,-8 27,-8 8,0 15,1 22,5 6,3 11,8 15,14 4,6 7,13 9,22 2,9 4,21 4,36 0,18 -2,32 -6,43 -4,11 -9,20 -16,25 -8,6 -17,9 -28,9 -14,0 -26,-5 -34,-15 -10,-13 -15,-34 -15,-62zm19 0c0,25 3,42 9,50 5,8 13,12 21,12 9,0 16,-4 22,-12 6,-8 8,-25 8,-50 0,-25 -2,-41 -8,-50 -6,-8 -13,-12 -22,-12 -9,0 -15,4 -21,11 -6,9 -9,26 -9,51z"/>
  <path id="14" class="fil6" d="M6454 3519l19 -1c2,9 5,16 10,21 5,5 12,7 19,7 9,0 17,-3 23,-10 6,-7 9,-16 9,-27 0,-11 -3,-19 -9,-25 -5,-6 -13,-9 -23,-9 -6,0 -11,1 -16,4 -5,3 -9,6 -11,11l-18 -3 15 -78 75 0 0 18 -61 0 -8 41c9,-7 19,-10 29,-10 13,0 24,5 33,14 9,9 14,21 14,35 0,14 -4,26 -12,36 -10,12 -23,18 -40,18 -14,0 -25,-4 -33,-11 -9,-8 -14,-18 -15,-31z"/>
  <polygon id="15" class="fil6" points="6617,3559 6617,3425 6567,3425 6567,3407 6687,3407 6687,3425 6637,3425 6637,3559 "/>
  <path id="16" class="fil6" d="M6708 3559l0 -152 68 0c13,0 23,2 30,4 7,3 13,8 17,15 4,7 7,14 7,23 0,10 -4,19 -11,27 -7,7 -18,12 -32,14 5,2 9,5 12,7 6,6 11,12 17,21l26 41 -25 0 -20 -32c-6,-9 -11,-16 -15,-21 -4,-4 -7,-8 -10,-10 -3,-2 -6,-3 -9,-4 -2,0 -6,-1 -11,-1l-23 0 0 68 -21 0zm21 -85l43 0c9,0 16,-1 21,-3 5,-2 9,-5 12,-9 2,-4 4,-9 4,-13 0,-8 -3,-13 -8,-18 -5,-5 -13,-7 -25,-7l-47 0 0 50z"/>
  <path class="fil8 str3" d="M6887 2794l-200 -200 200 0 0 200zm-100 -100m0 -100m100 100"/>
  <rect class="fil1 str0" x="5403" y="887" width="1500" height="1500"/>
  <polygon class="fil6" points="5846,1617 5846,1415 5983,1415 5983,1439 5873,1439 5873,1502 5968,1502 5968,1526 5873,1526 5873,1617 "/>
  <polygon id="1" class="fil6" points="6014,1617 6014,1415 6038,1415 6038,1617 "/>
  <path id="2" class="fil6" d="M6173 1599c-10,8 -19,13 -27,17 -9,3 -18,4 -27,4 -17,0 -29,-3 -38,-11 -8,-8 -13,-18 -13,-30 0,-7 2,-14 5,-20 4,-6 8,-11 13,-14 5,-4 11,-6 18,-8 5,-1 12,-3 22,-4 20,-2 35,-5 44,-8 1,-4 1,-6 1,-7 0,-10 -3,-17 -7,-21 -7,-6 -16,-9 -29,-9 -11,0 -20,2 -26,7 -5,4 -9,11 -12,21l-24 -3c2,-10 5,-19 11,-25 5,-7 12,-12 22,-15 9,-3 20,-5 33,-5 12,0 23,1 30,4 8,3 14,7 18,11 3,5 6,10 7,17 1,5 2,12 2,23l0 33c0,23 0,38 1,44 1,6 3,12 6,17l-26 0c-2,-5 -4,-11 -4,-18zm-2 -55c-9,4 -23,7 -41,9 -10,2 -18,3 -22,5 -4,2 -7,5 -10,8 -2,4 -3,8 -3,12 0,7 2,12 7,16 6,5 13,7 22,7 10,0 19,-2 26,-6 7,-4 13,-10 16,-17 3,-6 4,-14 4,-25l1 -9z"/>
  <path id="3" class="fil6" d="M6224 1574l25 -4c1,10 5,17 11,22 6,6 15,8 26,8 12,0 20,-2 26,-7 5,-4 8,-10 8,-16 0,-6 -2,-10 -7,-13 -4,-3 -12,-5 -26,-9 -18,-4 -30,-8 -37,-12 -7,-3 -13,-8 -16,-14 -4,-5 -6,-12 -6,-19 0,-7 2,-13 5,-18 3,-6 7,-10 12,-14 4,-3 9,-5 16,-7 6,-2 13,-3 21,-3 11,0 22,1 30,5 9,3 15,8 19,13 5,6 7,14 9,23l-24 3c-1,-7 -5,-13 -10,-17 -5,-5 -13,-7 -22,-7 -12,0 -20,2 -25,6 -4,4 -7,8 -7,13 0,3 1,6 3,9 2,2 5,5 10,6 2,1 9,3 22,7 17,4 29,8 36,11 7,3 13,7 17,13 4,6 6,13 6,21 0,9 -3,16 -8,24 -4,7 -11,13 -21,17 -9,4 -19,5 -30,5 -19,0 -34,-3 -44,-11 -10,-8 -16,-20 -19,-35z"/>
  <path id="4" class="fil6" d="M6375 1617l0 -202 25 0 0 73c11,-13 26,-20 43,-20 11,0 21,2 29,6 8,4 13,10 17,18 3,7 5,18 5,33l0 92 -25 0 0 -92c0,-13 -3,-22 -8,-27 -5,-6 -13,-9 -23,-9 -7,0 -14,2 -20,6 -7,4 -11,9 -14,15 -3,7 -4,16 -4,27l0 80 -25 0z"/>
  <path id="5" class="fil6" d="M5527 1844l22 -2c1,9 4,16 8,22 4,6 9,10 17,14 9,3 18,5 28,5 9,0 16,-1 23,-4 7,-3 12,-6 15,-11 4,-5 5,-10 5,-15 0,-6 -1,-11 -4,-15 -4,-4 -9,-7 -16,-10 -5,-2 -15,-5 -32,-9 -16,-4 -27,-7 -34,-11 -8,-4 -15,-10 -19,-16 -4,-7 -6,-14 -6,-22 0,-9 3,-18 8,-25 5,-8 12,-14 22,-18 10,-4 20,-6 32,-6 13,0 25,2 35,6 10,4 18,11 23,19 5,8 8,17 9,28l-23 2c-1,-12 -5,-20 -12,-26 -7,-5 -17,-8 -31,-8 -14,0 -24,2 -31,7 -6,6 -9,12 -9,19 0,7 2,12 6,16 5,4 17,8 36,13 19,4 32,8 39,11 10,5 18,11 23,18 5,7 7,15 7,25 0,9 -3,18 -8,26 -6,9 -13,15 -23,20 -10,4 -22,7 -34,7 -16,0 -30,-3 -40,-7 -11,-5 -20,-12 -26,-21 -6,-10 -9,-20 -10,-32z"/>
  <path id="6" class="fil6" d="M5805 1880l0 21 -117 0c0,-5 1,-11 3,-15 3,-8 7,-16 14,-24 7,-8 16,-16 28,-27 19,-15 32,-28 39,-37 7,-9 11,-18 11,-26 0,-9 -4,-16 -10,-22 -6,-6 -14,-9 -24,-9 -10,0 -19,3 -25,10 -6,6 -10,14 -10,26l-22 -3c2,-16 7,-29 17,-38 10,-8 24,-13 41,-13 17,0 30,5 40,14 10,10 15,21 15,35 0,7 -2,14 -5,21 -2,7 -7,14 -14,22 -7,7 -18,18 -33,31 -14,11 -22,18 -26,22 -3,4 -6,8 -9,12l87 0z"/>
  <path id="7" class="fil6" d="M5829 1854l22 -1c2,11 6,19 12,25 6,5 13,8 22,8 11,0 20,-4 27,-12 7,-8 11,-18 11,-31 0,-13 -4,-22 -11,-30 -7,-7 -16,-10 -27,-10 -7,0 -13,1 -19,5 -5,3 -10,7 -13,12l-21 -3 17 -91 88 0 0 21 -70 0 -10 48c11,-8 22,-12 34,-12 15,0 28,6 39,16 10,11 16,25 16,42 0,16 -5,30 -14,41 -12,15 -27,22 -47,22 -16,0 -29,-5 -39,-14 -10,-9 -16,-21 -17,-36z"/>
  <polygon id="8" class="fil6" points="5976,1901 5976,1724 6095,1724 6095,1745 5999,1745 5999,1800 6082,1800 6082,1820 5999,1820 5999,1901 "/>
  <polygon id="9" class="fil6" points="6124,1901 6124,1724 6148,1724 6148,1880 6235,1880 6235,1901 "/>
  <path id="10" class="fil6" d="M6368 1880l0 21 -117 0c0,-5 1,-11 2,-15 3,-8 8,-16 15,-24 6,-8 16,-16 28,-27 19,-15 32,-28 39,-37 7,-9 10,-18 10,-26 0,-9 -3,-16 -9,-22 -6,-6 -14,-9 -24,-9 -11,0 -19,3 -25,10 -7,6 -10,14 -10,26l-22 -3c2,-16 7,-29 17,-38 10,-8 24,-13 40,-13 17,0 31,5 41,14 10,10 15,21 15,35 0,7 -2,14 -5,21 -3,7 -7,14 -14,22 -7,7 -18,18 -34,31 -13,11 -21,18 -25,22 -3,4 -7,8 -9,12l87 0z"/>
  <path id="11" class="fil6" d="M6391 1854l23 -1c2,11 6,19 12,25 6,5 13,8 22,8 11,0 20,-4 27,-12 7,-8 10,-18 10,-31 0,-13 -3,-22 -10,-30 -7,-7 -16,-10 -27,-10 -7,0 -13,1 -19,5 -6,3 -10,7 -13,12l-21 -3 17 -91 88 0 0 21 -70 0 -10 48c11,-8 22,-12 34,-12 15,0 28,6 39,16 10,11 15,25 15,42 0,16 -4,30 -14,41 -11,15 -26,22 -46,22 -16,0 -29,-5 -39,-14 -10,-9 -16,-21 -18,-36z"/>
  <path id="12" class="fil6" d="M6642 1767l-22 2c-2,-9 -5,-15 -8,-19 -6,-6 -13,-9 -22,-9 -7,0 -13,2 -18,6 -7,5 -13,12 -17,22 -4,9 -6,23 -6,40 5,-8 12,-13 19,-17 8,-4 16,-6 24,-6 15,0 27,5 37,16 10,11 16,24 16,41 0,11 -3,22 -8,31 -4,10 -11,17 -19,22 -9,5 -18,8 -29,8 -18,0 -33,-7 -44,-20 -12,-14 -17,-35 -17,-66 0,-34 6,-59 19,-75 11,-13 26,-20 44,-20 14,0 26,4 35,12 8,8 14,18 16,32zm-89 76c0,8 1,15 4,22 4,7 8,12 14,16 5,3 11,5 18,5 9,0 17,-4 23,-11 7,-8 10,-18 10,-30 0,-13 -3,-22 -9,-29 -7,-7 -15,-11 -25,-11 -10,0 -18,4 -25,11 -7,7 -10,16 -10,27z"/>
  <path id="13" class="fil6" d="M6667 1844l22 -2c1,9 3,16 7,22 4,6 10,10 18,14 8,3 17,5 27,5 9,0 17,-1 24,-4 7,-3 12,-6 15,-11 3,-5 5,-10 5,-15 0,-6 -2,-11 -5,-15 -3,-4 -8,-7 -16,-10 -4,-2 -15,-5 -31,-9 -16,-4 -28,-7 -34,-11 -9,-4 -15,-10 -19,-16 -4,-7 -6,-14 -6,-22 0,-9 2,-18 7,-25 5,-8 13,-14 22,-18 10,-4 21,-6 33,-6 13,0 25,2 35,6 10,4 17,11 23,19 5,8 8,17 8,28l-22 2c-1,-12 -5,-20 -12,-26 -7,-5 -18,-8 -31,-8 -14,0 -25,2 -31,7 -7,6 -10,12 -10,19 0,7 2,12 7,16 5,4 16,8 35,13 19,4 32,8 39,11 11,5 18,11 23,18 5,7 8,15 8,25 0,9 -3,18 -9,26 -5,9 -13,15 -23,20 -10,4 -21,7 -34,7 -16,0 -29,-3 -40,-7 -11,-5 -19,-12 -25,-21 -6,-10 -10,-20 -10,-32z"/>
  <path class="fil4 str2" d="M6887 1104l-200 -200 200 0 0 200zm-100 -100m0 -100m100 100"/>
  <g>
   <polygon class="fil2" points="2335,2866 2335,3099 2265,3099 2265,3162 2017,2983 2265,2803 2265,2866 "/>
   <polyline class="fil3 str1" points="2335,3099 2265,3099 2265,3162 2017,2983 2265,2803 2265,2866 2335,2866 "/>
  </g>
  <rect class="fil2 str1" x="2335" y="2866" width="1242" height="233"/>
  <g>
   <polygon class="fil2" points="2327,3622 2327,3854 2258,3854 2258,3918 2010,3738 2258,3558 2258,3622 "/>
   <polyline class="fil3 str1" points="2327,3854 2258,3854 2258,3918 2010,3738 2258,3558 2258,3622 2327,3622 "/>
  </g>
  <rect class="fil2 str1" x="2245" y="3622" width="3095" height="233"/>
  <g>
   <polygon class="fil2" points="5340,3622 5340,3854 5409,3854 5409,3918 5657,3738 5409,3558 5409,3622 "/>
   <polyline class="fil3 str1" points="5340,3854 5409,3854 5409,3918 5657,3738 5409,3558 5409,3622 5340,3622 "/>
  </g>
  <polygon class="fil5" points="2784,3822 2784,3645 2808,3645 2808,3822 "/>
  <path id="1" class="fil5" d="M2954 3801l0 21 -117 0c0,-6 1,-11 3,-15 3,-8 8,-16 14,-24 7,-8 16,-17 29,-27 19,-15 32,-28 39,-37 6,-9 10,-18 10,-26 0,-9 -3,-16 -9,-22 -7,-6 -15,-9 -25,-9 -10,0 -19,3 -25,9 -6,7 -9,15 -9,26l-23 -2c2,-16 8,-29 18,-38 10,-9 23,-13 40,-13 17,0 30,5 40,14 10,10 15,21 15,35 0,7 -1,14 -4,21 -3,7 -8,14 -15,22 -7,7 -18,18 -33,31 -13,11 -22,18 -25,22 -4,4 -7,8 -10,12l87 0z"/>
  <path id="2" class="fil5" d="M2979 3765l22 -2c1,9 3,16 7,22 4,5 10,10 18,14 8,3 17,5 27,5 9,0 17,-1 24,-4 6,-3 11,-6 15,-11 3,-5 5,-10 5,-15 0,-6 -2,-11 -5,-15 -3,-4 -9,-7 -16,-10 -5,-2 -15,-5 -31,-9 -17,-4 -28,-7 -35,-11 -8,-4 -14,-10 -18,-16 -5,-7 -7,-14 -7,-22 0,-9 3,-18 8,-25 5,-8 12,-14 22,-18 10,-4 21,-6 33,-6 13,0 24,2 34,6 10,4 18,11 23,19 6,8 9,17 9,28l-22 1c-2,-11 -6,-19 -13,-25 -7,-6 -17,-8 -30,-8 -15,0 -25,2 -31,7 -7,6 -10,12 -10,19 0,6 2,12 7,16 4,4 16,8 35,12 19,5 32,8 39,12 10,4 18,10 23,18 5,7 7,15 7,25 0,9 -2,18 -8,26 -5,9 -13,15 -23,20 -10,4 -21,7 -34,7 -16,0 -29,-3 -40,-7 -11,-5 -19,-12 -26,-21 -6,-10 -9,-20 -9,-32z"/>
  <g>
   <polygon class="fil2" points="2312,1905 2312,2138 2242,2138 2242,2201 1994,2021 2242,1842 2242,1905 "/>
   <polyline class="fil3 str1" points="2312,2138 2242,2138 2242,2201 1994,2021 2242,1842 2242,1905 2312,1905 "/>
  </g>
  <rect class="fil2 str1" x="2245" y="1905" width="3124" height="233"/>
  <g>
   <polygon class="fil2" points="5334,1905 5334,2138 5403,2138 5403,2201 5652,2021 5403,1842 5403,1905 "/>
   <polyline class="fil3 str1" points="5334,2138 5403,2138 5403,2201 5652,2021 5403,1842 5403,1905 5334,1905 "/>
  </g>
  <path class="fil5" d="M2808 2096c11,7 21,13 31,16l-7 17c-13,-5 -26,-12 -38,-22 -13,7 -28,11 -44,11 -16,0 -30,-4 -43,-12 -13,-7 -23,-18 -30,-32 -7,-14 -11,-30 -11,-48 0,-17 4,-33 11,-47 7,-14 17,-25 30,-33 13,-7 28,-11 44,-11 16,0 31,4 44,12 13,7 23,18 30,32 7,14 10,30 10,47 0,15 -2,28 -7,40 -4,11 -11,21 -20,30zm-51 -30c14,4 25,9 33,17 14,-13 21,-31 21,-57 0,-14 -3,-26 -7,-37 -5,-11 -12,-19 -22,-25 -9,-6 -19,-9 -31,-9 -17,0 -32,6 -43,18 -12,12 -18,30 -18,54 0,22 6,40 17,52 12,13 26,19 44,19 8,0 16,-2 23,-5 -7,-5 -15,-8 -23,-10l6 -17z"/>
  <path id="1" class="fil5" d="M2859 2058l22 -2c1,9 3,16 7,22 4,6 10,10 18,14 8,3 17,5 27,5 9,0 17,-1 24,-4 7,-3 12,-6 15,-11 3,-5 5,-10 5,-15 0,-6 -2,-10 -5,-15 -3,-4 -8,-7 -16,-10 -4,-2 -15,-5 -31,-9 -16,-3 -28,-7 -34,-11 -9,-4 -15,-10 -19,-16 -4,-7 -6,-14 -6,-22 0,-9 2,-17 7,-25 5,-8 13,-14 22,-18 10,-4 21,-6 33,-6 13,0 25,2 35,6 10,5 17,11 23,19 5,8 8,18 8,28l-22 2c-1,-12 -5,-20 -12,-26 -7,-5 -18,-8 -31,-8 -14,0 -25,2 -31,8 -7,5 -10,11 -10,18 0,7 2,12 7,16 5,4 16,8 35,13 19,4 32,8 39,11 11,5 18,11 23,18 5,7 8,15 8,25 0,9 -3,18 -9,26 -5,9 -13,15 -23,20 -10,4 -21,7 -34,7 -16,0 -29,-3 -40,-7 -11,-5 -19,-12 -25,-21 -6,-10 -10,-20 -10,-32z"/>
  <path id="2" class="fil5" d="M3031 2115l0 -177 67 0c12,0 21,1 27,2 9,1 16,4 22,8 6,4 11,10 14,17 4,7 5,15 5,24 0,15 -4,28 -14,38 -9,11 -27,16 -52,16l-45 0 0 72 -24 0zm24 -93l46 0c15,0 25,-3 32,-8 6,-6 9,-14 9,-24 0,-8 -2,-14 -5,-19 -4,-5 -9,-9 -15,-11 -4,-1 -11,-1 -22,-1l-45 0 0 63z"/>
  <polygon id="3" class="fil5" points="3200,2115 3200,1938 3224,1938 3224,2115 "/>
  <rect class="fil1 str0" x="3631" y="902" width="1500" height="1500"/>
  <polygon class="fil6" points="3721,1632 3721,1430 3857,1430 3857,1454 3748,1454 3748,1517 3843,1517 3843,1541 3748,1541 3748,1632 "/>
  <polygon id="1" class="fil6" points="3888,1632 3888,1430 3913,1430 3913,1632 "/>
  <path id="2" class="fil6" d="M4047 1614c-9,8 -18,13 -26,17 -9,3 -18,5 -28,5 -16,0 -28,-4 -37,-12 -9,-8 -13,-18 -13,-30 0,-7 2,-14 5,-20 3,-6 7,-10 13,-14 5,-4 11,-6 18,-8 4,-1 12,-3 22,-4 20,-2 35,-5 44,-8 0,-4 0,-6 0,-7 0,-10 -2,-17 -7,-21 -6,-6 -16,-8 -28,-8 -12,0 -21,2 -26,6 -6,4 -10,11 -13,21l-24 -3c2,-10 6,-19 11,-25 5,-7 13,-11 22,-15 10,-3 21,-5 33,-5 13,0 23,1 31,4 8,3 14,7 17,11 4,5 7,11 8,17 1,5 1,12 1,23l0 33c0,23 1,38 2,44 1,6 3,12 6,17l-26 0c-3,-5 -4,-11 -5,-18zm-2 -55c-9,4 -22,7 -40,9 -11,2 -18,4 -22,5 -4,2 -8,5 -10,8 -2,4 -3,8 -3,12 0,7 2,12 7,17 5,4 12,6 22,6 10,0 18,-2 26,-6 7,-4 13,-10 16,-17 3,-6 4,-14 4,-25l0 -9z"/>
  <path id="3" class="fil6" d="M4099 1589l24 -4c1,10 5,17 12,22 6,6 15,8 26,8 11,0 20,-2 25,-7 6,-4 9,-10 9,-16 0,-6 -3,-10 -8,-13 -3,-2 -12,-5 -25,-9 -18,-4 -31,-8 -38,-12 -7,-3 -12,-7 -16,-13 -3,-6 -5,-13 -5,-20 0,-7 1,-13 4,-18 3,-6 7,-10 12,-14 4,-3 10,-5 16,-7 7,-2 14,-3 22,-3 11,0 21,2 30,5 8,3 15,8 19,13 4,6 7,14 9,23l-25 3c-1,-7 -4,-13 -9,-17 -6,-5 -13,-7 -23,-7 -11,0 -19,2 -24,6 -5,4 -7,8 -7,13 0,3 1,6 3,9 2,2 5,5 9,6 3,1 10,3 22,7 18,4 30,8 37,11 7,3 12,8 16,13 4,6 6,13 6,21 0,9 -2,16 -7,24 -5,7 -12,13 -21,17 -9,4 -19,6 -31,6 -19,0 -33,-4 -43,-12 -10,-8 -17,-20 -19,-35z"/>
  <path id="4" class="fil6" d="M4250 1632l0 -202 24 0 0 73c12,-13 26,-20 44,-20 11,0 20,2 28,6 8,5 14,10 17,18 4,8 5,18 5,33l0 92 -24 0 0 -92c0,-13 -3,-22 -8,-27 -6,-6 -13,-9 -23,-9 -7,0 -14,2 -21,6 -6,4 -11,9 -14,16 -2,6 -4,15 -4,27l0 79 -24 0z"/>
  <polygon id="5" class="fil6" points="4388,1636 4447,1427 4467,1427 4408,1636 "/>
  <path id="6" class="fil6" d="M4489 1632l0 -202 89 0c18,0 32,2 41,6 10,3 17,10 23,19 5,9 8,19 8,30 0,15 -5,27 -14,37 -9,10 -23,16 -43,18 7,4 13,7 16,11 8,7 15,16 22,26l35 55 -33 0 -27 -42c-8,-12 -14,-21 -19,-27 -5,-7 -10,-11 -14,-14 -4,-2 -8,-4 -12,-5 -3,-1 -8,-1 -15,-1l-31 0 0 89 -26 0zm26 -112l58 0c12,0 21,-2 28,-4 7,-3 12,-7 16,-12 4,-6 5,-12 5,-18 0,-10 -3,-18 -10,-24 -7,-6 -18,-9 -33,-9l-64 0 0 67z"/>
  <path id="7" class="fil6" d="M4670 1632l77 -202 30 0 82 202 -31 0 -23 -61 -85 0 -22 61 -28 0zm58 -82l69 0 -21 -57c-7,-17 -12,-31 -15,-42 -3,13 -6,26 -11,39l-22 60z"/>
  <path id="8" class="fil6" d="M4879 1632l0 -202 41 0 47 143c5,14 8,24 10,30 2,-7 6,-18 11,-32l48 -141 36 0 0 202 -25 0 0 -169 -59 169 -25 0 -58 -172 0 172 -26 0z"/>
  <path id="9" class="fil6" d="M3693 1835l19 -1c1,7 3,13 6,18 4,5 9,9 16,12 7,3 14,5 23,5 8,0 14,-1 20,-4 6,-2 10,-5 13,-9 3,-4 5,-9 5,-13 0,-5 -2,-9 -5,-13 -2,-3 -7,-6 -13,-9 -4,-1 -13,-4 -27,-7 -14,-3 -24,-6 -29,-9 -8,-4 -13,-9 -17,-14 -3,-6 -5,-12 -5,-19 0,-8 2,-15 7,-22 4,-7 10,-12 19,-15 8,-3 17,-5 27,-5 12,0 22,2 30,5 9,4 15,9 20,16 5,7 7,15 7,24l-19 2c-1,-10 -4,-17 -10,-22 -6,-5 -15,-7 -27,-7 -12,0 -21,2 -26,6 -6,5 -9,10 -9,16 0,6 2,10 6,14 4,3 14,7 30,11 17,3 28,6 34,9 9,4 15,9 20,16 4,6 6,13 6,21 0,8 -2,16 -7,23 -5,7 -11,13 -20,17 -9,3 -18,5 -29,5 -14,0 -25,-2 -35,-6 -9,-4 -16,-10 -21,-18 -6,-8 -8,-17 -9,-27z"/>
  <path id="10" class="fil6" d="M3835 1752l0 -18 98 0 0 15c-10,10 -19,24 -29,41 -9,17 -17,34 -22,52 -4,13 -6,27 -7,42l-19 0c0,-12 2,-26 7,-43 4,-17 11,-34 19,-49 9,-16 17,-29 27,-40l-74 0z"/>
  <path id="11" class="fil6" d="M4021 1884l-18 0 0 -119c-5,5 -11,9 -18,13 -7,4 -14,8 -20,10l0 -18c11,-5 20,-11 28,-18 7,-7 13,-14 16,-20l12 0 0 152z"/>
  <polygon id="12" class="fil6" points="4076,1884 4076,1732 4096,1732 4096,1807 4171,1732 4198,1732 4135,1794 4201,1884 4175,1884 4121,1807 4096,1831 4096,1884 "/>
  <path id="13" class="fil6" d="M4211 1835l19 -1c1,7 3,13 6,18 4,5 9,9 15,12 7,3 15,5 24,5 7,0 14,-1 20,-4 6,-2 10,-5 13,-9 3,-4 4,-9 4,-13 0,-5 -1,-9 -4,-13 -3,-3 -7,-6 -13,-9 -4,-1 -13,-4 -27,-7 -14,-3 -24,-6 -30,-9 -7,-4 -12,-9 -16,-14 -3,-6 -5,-12 -5,-19 0,-8 2,-15 6,-22 5,-7 11,-12 19,-15 9,-3 18,-5 28,-5 11,0 21,2 30,5 8,4 15,9 20,16 4,7 7,15 7,24l-19 2c-1,-10 -5,-17 -11,-22 -6,-5 -14,-7 -26,-7 -12,0 -21,2 -27,6 -5,5 -8,10 -8,16 0,6 2,10 6,14 4,3 14,7 30,11 17,3 28,6 34,9 9,4 15,9 19,16 5,6 7,13 7,21 0,8 -3,16 -7,23 -5,7 -12,13 -20,17 -9,3 -19,5 -29,5 -14,0 -26,-2 -35,-6 -9,-4 -16,-10 -22,-18 -5,-8 -8,-17 -8,-27z"/>
  <path id="14" class="fil6" d="M4351 1844l20 -1c1,9 5,16 10,21 5,5 12,7 19,7 9,0 17,-3 23,-10 6,-7 9,-16 9,-27 0,-10 -3,-19 -9,-25 -6,-6 -13,-9 -23,-9 -6,0 -11,1 -16,4 -5,3 -9,6 -12,11l-17 -3 14 -78 76 0 0 18 -61 0 -8 41c9,-6 19,-10 29,-10 13,0 24,5 33,14 9,9 14,21 14,35 0,14 -4,26 -12,36 -10,12 -23,18 -40,18 -14,0 -25,-3 -34,-11 -8,-8 -13,-18 -15,-31z"/>
  <path id="15" class="fil6" d="M4539 1884l-19 0 0 -119c-4,5 -10,9 -17,13 -7,4 -14,8 -20,10l0 -18c11,-5 20,-11 27,-18 8,-7 14,-14 17,-20l12 0 0 152z"/>
  <path id="16" class="fil6" d="M4685 1866l0 18 -101 0c0,-5 1,-9 2,-13 3,-7 7,-14 13,-20 5,-7 14,-14 24,-23 16,-14 28,-24 33,-32 6,-8 9,-16 9,-23 0,-7 -2,-13 -8,-18 -5,-5 -12,-8 -20,-8 -9,0 -17,3 -22,8 -5,6 -8,13 -8,22l-19 -1c1,-15 6,-26 15,-33 8,-8 20,-11 34,-11 15,0 26,4 35,12 8,8 12,18 12,30 0,6 -1,12 -3,18 -3,6 -7,12 -13,18 -6,7 -15,16 -28,27 -12,9 -19,16 -22,19 -3,3 -6,7 -8,10l75 0z"/>
  <path id="17" class="fil6" d="M4706 1835l18 -1c1,7 3,13 7,18 3,5 8,9 15,12 7,3 14,5 23,5 8,0 14,-1 20,-4 6,-2 11,-5 13,-9 3,-4 5,-9 5,-13 0,-5 -2,-9 -4,-13 -3,-3 -8,-6 -14,-9 -4,-1 -13,-4 -27,-7 -14,-3 -24,-6 -29,-9 -8,-4 -13,-9 -16,-14 -4,-6 -6,-12 -6,-19 0,-8 2,-15 7,-22 4,-7 10,-12 19,-15 8,-3 17,-5 28,-5 11,0 21,2 29,5 9,4 15,9 20,16 5,7 7,15 7,24l-19 2c-1,-10 -4,-17 -10,-22 -6,-5 -15,-7 -27,-7 -12,0 -21,2 -26,6 -6,5 -9,10 -9,16 0,6 2,10 6,14 4,3 14,7 31,11 16,3 27,6 33,9 9,4 15,9 20,16 4,6 6,13 6,21 0,8 -2,16 -7,23 -5,7 -11,13 -20,17 -8,3 -18,5 -29,5 -14,0 -25,-2 -34,-6 -10,-4 -17,-10 -22,-18 -5,-8 -8,-17 -8,-27z"/>
  <path id="18" class="fil6" d="M4961 1831l20 5c-4,16 -11,29 -22,37 -11,9 -25,13 -40,13 -17,0 -30,-3 -40,-10 -10,-6 -18,-16 -23,-28 -6,-13 -8,-27 -8,-41 0,-16 3,-30 9,-41 6,-12 14,-21 25,-27 11,-6 24,-9 37,-9 15,0 28,4 38,11 11,8 18,19 22,33l-20 5c-3,-11 -9,-19 -15,-25 -7,-5 -15,-7 -25,-7 -12,0 -22,3 -30,8 -7,6 -13,13 -16,23 -3,9 -5,19 -5,29 0,13 2,24 6,34 4,9 9,16 17,21 8,5 17,7 26,7 11,0 21,-3 28,-9 8,-7 13,-16 16,-29z"/>
  <path id="19" class="fil6" d="M4999 1809c0,-18 2,-32 5,-43 4,-11 9,-20 17,-25 7,-6 16,-9 27,-9 8,0 15,1 21,5 7,3 12,8 16,14 4,6 7,13 9,22 2,9 3,21 3,36 0,18 -2,32 -5,43 -4,11 -9,20 -17,26 -7,5 -16,8 -27,8 -15,0 -26,-5 -34,-15 -10,-13 -15,-33 -15,-62zm19 0c0,25 3,42 8,50 6,8 13,12 22,12 9,0 16,-4 22,-12 5,-8 8,-25 8,-50 0,-25 -3,-41 -8,-50 -6,-8 -13,-12 -22,-12 -9,0 -16,4 -21,11 -6,9 -9,26 -9,51z"/>
  <path class="fil8 str3" d="M5114 1119l-200 -200 200 0 0 200zm-100 -100m0 -100m100 100"/>
  <g>
   <polygon class="fil2" points="2319,1150 2319,1382 2250,1382 2250,1446 2001,1266 2250,1086 2250,1150 "/>
   <polyline class="fil3 str1" points="2319,1382 2250,1382 2250,1446 2001,1266 2250,1086 2250,1150 2319,1150 "/>
  </g>
  <rect class="fil2 str1" x="2319" y="1149" width="1242" height="233"/>
  <g>
   <polygon class="fil2" points="3561,1150 3561,1382 3630,1382 3630,1446 3879,1266 3630,1086 3630,1150 "/>
   <polyline class="fil3 str1" points="3561,1382 3630,1382 3630,1446 3879,1266 3630,1086 3630,1150 3561,1150 "/>
  </g>
  <polygon class="fil5" points="2374,1359 2374,1182 2398,1182 2398,1255 2489,1255 2489,1182 2513,1182 2513,1359 2489,1359 2489,1275 2398,1275 2398,1359 "/>
  <path id="1" class="fil5" d="M2548 1408l-3 -20c5,1 9,2 13,2 5,0 9,-1 12,-3 2,-1 5,-4 7,-7 1,-2 3,-7 6,-16 1,-1 1,-3 2,-5l-48 -129 23 0 27 74c3,10 6,20 9,30 2,-10 5,-19 9,-29l27 -75 22 0 -49 131c-5,14 -9,23 -12,29 -4,7 -8,12 -13,15 -5,4 -11,5 -18,5 -4,0 -9,0 -14,-2z"/>
  <path id="2" class="fil5" d="M2672 1408l0 -178 20 0 0 17c5,-6 10,-11 16,-14 6,-4 13,-5 21,-5 11,0 21,2 29,8 9,6 15,14 19,24 4,10 7,21 7,34 0,13 -3,24 -7,35 -5,10 -12,18 -21,24 -9,5 -18,8 -28,8 -7,0 -14,-1 -20,-4 -5,-3 -10,-7 -14,-12l0 63 -22 0zm20 -113c0,17 4,29 10,37 7,8 15,11 24,11 10,0 18,-4 25,-12 7,-8 10,-20 10,-38 0,-16 -3,-28 -10,-36 -6,-8 -14,-12 -24,-12 -9,0 -17,4 -24,13 -7,8 -11,21 -11,37z"/>
  <path id="3" class="fil5" d="M2897 1317l23 3c-4,13 -10,23 -20,30 -9,8 -22,11 -37,11 -18,0 -33,-6 -44,-17 -11,-12 -16,-28 -16,-48 0,-22 5,-39 16,-51 11,-11 26,-17 43,-17 17,0 31,5 42,17 11,12 16,28 16,49 0,2 0,3 0,6l-95 0c1,14 5,25 12,32 7,8 16,11 26,11 8,0 15,-2 21,-6 5,-4 10,-11 13,-20zm-71 -35l71 0c-1,-11 -3,-19 -8,-24 -7,-8 -16,-13 -27,-13 -10,0 -18,4 -25,10 -6,7 -10,16 -11,27z"/>
  <path id="4" class="fil5" d="M2947 1359l0 -129 19 0 0 20c5,-9 10,-15 14,-18 4,-3 9,-4 14,-4 7,0 15,2 22,7l-7 20c-6,-3 -11,-5 -16,-5 -5,0 -9,2 -13,4 -4,3 -6,7 -8,12 -2,8 -3,16 -3,26l0 67 -22 0z"/>
  <path id="5" class="fil5" d="M3031 1359l0 -177 66 0c14,0 25,1 33,5 8,4 14,9 19,17 5,7 7,15 7,23 0,7 -2,15 -6,21 -4,7 -10,12 -19,16 11,4 19,9 25,17 6,7 9,16 9,26 0,9 -2,16 -6,23 -3,8 -7,13 -13,17 -5,4 -11,7 -19,9 -8,2 -17,3 -28,3l-68 0zm24 -103l38 0c10,0 18,-1 22,-2 6,-2 11,-5 14,-9 3,-4 4,-9 4,-15 0,-6 -1,-11 -4,-16 -3,-4 -7,-7 -12,-9 -5,-2 -14,-3 -27,-3l-35 0 0 54zm0 82l44 0c7,0 12,0 16,-1 5,-1 9,-3 13,-5 4,-2 7,-5 9,-10 2,-4 3,-9 3,-15 0,-6 -1,-12 -5,-17 -3,-5 -8,-8 -14,-10 -6,-2 -14,-3 -26,-3l-40 0 0 61z"/>
  <path id="6" class="fil5" d="M3313 1182l23 0 0 102c0,18 -2,32 -6,42 -4,11 -11,19 -22,26 -10,6 -24,9 -41,9 -16,0 -30,-2 -40,-8 -11,-6 -19,-14 -23,-25 -4,-11 -7,-25 -7,-44l0 -102 24 0 0 102c0,15 1,27 4,34 3,7 8,13 15,17 7,4 15,6 25,6 17,0 29,-4 37,-12 7,-8 11,-23 11,-45l0 -102z"/>
  <path id="7" class="fil5" d="M3367 1302l22 -2c1,9 4,16 8,22 4,5 9,10 17,13 9,4 18,6 28,6 9,0 16,-2 23,-4 7,-3 12,-7 15,-11 4,-5 5,-10 5,-15 0,-6 -1,-11 -4,-15 -4,-4 -9,-7 -16,-10 -5,-2 -15,-5 -32,-9 -16,-4 -27,-7 -34,-11 -8,-4 -15,-10 -19,-16 -4,-7 -6,-14 -6,-22 0,-9 3,-18 8,-25 5,-8 12,-14 22,-18 10,-4 20,-6 32,-6 13,0 25,2 35,6 10,4 18,11 23,19 5,8 8,17 9,28l-23 1c-1,-11 -5,-19 -12,-25 -7,-6 -17,-8 -31,-8 -14,0 -24,2 -31,7 -6,5 -9,12 -9,19 0,6 2,12 6,16 5,4 17,8 36,12 19,5 32,8 39,12 10,4 18,10 23,18 5,7 7,15 7,25 0,9 -3,18 -8,26 -6,9 -13,15 -23,20 -10,4 -22,6 -34,6 -16,0 -30,-2 -40,-6 -11,-5 -20,-12 -26,-22 -6,-9 -9,-19 -10,-31z"/>
  <rect class="fil1 str0" x="3631" y="2592" width="1500" height="1500"/>
  <polygon class="fil6" points="3806,3322 3806,3120 3952,3120 3952,3144 3833,3144 3833,3206 3945,3206 3945,3230 3833,3230 3833,3299 3957,3299 3957,3322 "/>
  <polygon id="1" class="fil6" points="3995,3322 3995,3120 4140,3120 4140,3144 4021,3144 4021,3206 4133,3206 4133,3230 4021,3230 4021,3299 4145,3299 4145,3322 "/>
  <path id="2" class="fil6" d="M4182 3322l0 -202 77 0c13,0 23,1 30,2 10,2 19,5 25,10 7,4 12,11 16,19 5,9 7,18 7,28 0,17 -6,31 -17,43 -11,12 -31,18 -59,18l-52 0 0 82 -27 0zm27 -106l52 0c18,0 30,-3 37,-9 7,-7 11,-16 11,-27 0,-9 -2,-16 -6,-22 -5,-6 -10,-10 -17,-12 -5,-1 -13,-2 -25,-2l-52 0 0 72z"/>
  <path id="3" class="fil6" d="M4371 3322l0 -202 90 0c18,0 31,2 41,6 9,3 16,10 22,19 6,9 8,19 8,30 0,15 -4,27 -13,37 -10,10 -24,16 -43,18 7,4 12,7 16,11 8,7 15,16 22,26l35 55 -34 0 -26 -42c-8,-12 -15,-21 -20,-27 -5,-7 -9,-11 -13,-14 -4,-2 -8,-4 -12,-5 -3,-1 -8,-1 -15,-1l-31 0 0 89 -27 0zm27 -112l57 0c12,0 22,-2 29,-4 7,-3 12,-7 15,-12 4,-6 6,-12 6,-18 0,-10 -4,-18 -11,-24 -6,-6 -17,-9 -32,-9l-64 0 0 67z"/>
  <path id="4" class="fil6" d="M4566 3224c0,-33 9,-60 27,-79 18,-19 41,-28 70,-28 19,0 35,4 50,13 15,9 27,22 35,38 7,16 11,34 11,54 0,20 -4,39 -12,55 -8,16 -20,28 -35,36 -15,9 -32,13 -49,13 -19,0 -36,-5 -51,-14 -15,-9 -27,-22 -34,-37 -8,-16 -12,-33 -12,-51zm28 1c0,24 6,43 19,57 13,14 30,21 50,21 20,0 36,-7 49,-21 13,-14 20,-34 20,-60 0,-17 -3,-31 -9,-43 -5,-12 -13,-22 -24,-29 -11,-6 -23,-10 -36,-10 -19,0 -35,7 -49,20 -13,13 -20,34 -20,65z"/>
  <path id="5" class="fil6" d="M4793 3322l0 -202 40 0 48 143c5,14 8,24 10,30 2,-7 6,-18 11,-32l48 -141 36 0 0 202 -26 0 0 -169 -59 169 -24 0 -58 -172 0 172 -26 0z"/>
  <path id="6" class="fil6" d="M3812 3574l0 -152 30 0 35 108c4,10 6,17 8,22 1,-5 4,-14 8,-24l36 -106 27 0 0 152 -19 0 0 -127 -44 127 -18 0 -44 -129 0 129 -19 0z"/>
  <path id="7" class="fil6" d="M4078 3556l0 18 -100 0c0,-5 1,-9 2,-13 3,-7 7,-14 13,-20 5,-7 14,-14 24,-23 16,-14 28,-24 33,-32 6,-8 9,-16 9,-23 0,-7 -2,-13 -8,-18 -5,-5 -12,-8 -20,-8 -9,0 -17,3 -22,8 -5,6 -8,13 -8,22l-19 -1c1,-15 6,-26 15,-33 8,-8 20,-11 34,-11 15,0 26,4 35,12 8,8 12,18 12,30 0,6 -1,12 -3,18 -3,6 -7,12 -13,18 -6,7 -15,16 -28,27 -12,9 -19,16 -22,19 -3,3 -6,7 -8,10l74 0z"/>
  <path id="8" class="fil6" d="M4158 3574l0 -36 -66 0 0 -17 70 -99 15 0 0 99 20 0 0 17 -20 0 0 36 -19 0zm0 -53l0 -69 -47 69 47 0z"/>
  <path id="9" class="fil6" d="M4223 3574l0 -152 30 0 36 108c4,10 6,17 7,22 2,-5 5,-14 9,-24l36 -106 27 0 0 152 -19 0 0 -127 -45 127 -18 0 -43 -129 0 129 -20 0z"/>
  <path id="10" class="fil6" d="M4393 3499c0,-18 2,-32 5,-43 4,-11 9,-20 17,-25 7,-6 16,-9 27,-9 8,0 15,1 21,5 7,3 12,8 16,14 4,6 7,13 9,22 2,9 3,21 3,36 0,18 -2,32 -5,43 -4,11 -9,20 -17,26 -7,5 -16,8 -27,8 -15,0 -26,-5 -34,-15 -10,-13 -15,-33 -15,-62zm19 0c0,25 3,42 8,50 6,8 13,12 22,12 9,0 16,-4 22,-12 5,-8 8,-25 8,-50 0,-25 -3,-41 -8,-50 -6,-8 -14,-12 -22,-12 -9,0 -16,4 -21,11 -6,9 -9,26 -9,51z"/>
  <path id="11" class="fil6" d="M4608 3556l0 18 -100 0c0,-5 0,-9 2,-13 2,-7 7,-14 12,-20 6,-7 14,-14 25,-23 16,-14 27,-24 33,-32 6,-8 9,-16 9,-23 0,-7 -3,-13 -8,-18 -6,-5 -12,-8 -21,-8 -9,0 -16,3 -22,8 -5,6 -8,13 -8,22l-19 -1c2,-15 6,-26 15,-33 9,-8 20,-11 34,-11 15,0 27,4 35,12 9,8 13,18 13,30 0,6 -1,12 -4,18 -2,6 -7,12 -12,18 -6,7 -16,16 -29,27 -11,9 -18,16 -22,19 -3,3 -5,7 -7,10l74 0z"/>
  <polygon id="12" class="fil6" points="4626,3528 4626,3510 4683,3510 4683,3528 "/>
  <path id="13" class="fil6" d="M4706 3574l0 -152 52 0c12,0 21,1 27,2 9,3 16,6 22,11 8,7 14,16 18,26 4,11 6,23 6,36 0,12 -1,22 -4,31 -2,9 -6,16 -10,22 -4,6 -9,10 -14,14 -5,3 -11,6 -18,7 -7,2 -15,3 -24,3l-55 0zm20 -18l32 0c10,0 18,-1 24,-3 6,-2 10,-4 14,-8 4,-4 8,-11 11,-19 2,-8 4,-18 4,-29 0,-16 -3,-28 -8,-37 -5,-8 -12,-14 -19,-17 -6,-2 -14,-3 -26,-3l-32 0 0 116z"/>
  <path id="14" class="fil6" d="M4859 3574l0 -152 67 0c14,0 24,2 31,4 7,3 13,8 17,15 4,7 6,14 6,23 0,10 -3,19 -10,27 -7,7 -18,12 -32,14 5,2 9,5 12,7 6,6 11,13 16,21l27 41 -25 0 -20 -32c-6,-9 -11,-16 -15,-21 -4,-4 -7,-8 -10,-10 -3,-2 -6,-3 -9,-4 -2,0 -6,0 -11,0l-24 0 0 67 -20 0zm20 -85l43 0c10,0 17,-1 22,-3 5,-2 9,-5 12,-9 2,-4 4,-8 4,-13 0,-7 -3,-13 -8,-18 -5,-5 -14,-7 -25,-7l-48 0 0 50z"/>
  <path class="fil8 str3" d="M5114 2809l-200 -200 200 0 0 200zm-100 -100m0 -100m100 100"/>
  <g>
   <polygon class="fil2" points="3577,2866 3577,3099 3646,3099 3646,3162 3895,2983 3646,2803 3646,2866 "/>
   <polyline class="fil3 str1" points="3577,3099 3646,3099 3646,3162 3895,2983 3646,2803 3646,2866 3577,2866 "/>
  </g>
  <polygon class="fil5" points="2805,3078 2805,2901 2828,2901 2828,3078 "/>
  <path id="1" class="fil5" d="M2974 3057l0 21 -117 0c0,-5 1,-10 3,-15 3,-8 8,-16 14,-24 7,-7 16,-16 29,-26 19,-16 32,-29 39,-38 7,-9 10,-18 10,-26 0,-9 -3,-16 -9,-22 -6,-6 -15,-9 -24,-9 -11,0 -19,3 -26,10 -6,6 -9,15 -9,26l-22 -3c1,-16 7,-29 17,-38 10,-8 23,-13 40,-13 17,0 30,5 40,14 10,10 15,22 15,35 0,8 -1,14 -4,21 -3,7 -8,14 -15,22 -6,7 -18,18 -33,31 -13,11 -22,18 -25,22 -4,4 -7,8 -9,12l86 0z"/>
  <path id="2" class="fil5" d="M3132 3016l24 6c-5,19 -14,34 -26,44 -13,10 -29,15 -47,15 -19,0 -35,-4 -47,-12 -12,-8 -21,-19 -27,-33 -6,-15 -9,-31 -9,-48 0,-18 3,-34 10,-48 7,-14 17,-24 30,-31 13,-7 28,-11 43,-11 18,0 33,5 45,14 12,9 20,21 25,38l-23 5c-4,-13 -10,-22 -18,-28 -8,-6 -17,-9 -29,-9 -14,0 -25,3 -34,10 -9,6 -16,15 -19,26 -4,11 -6,22 -6,34 0,15 2,28 7,39 4,12 11,20 20,26 9,5 19,8 30,8 13,0 24,-4 33,-12 9,-7 15,-18 18,-33z"/>
 </g>
</svg>
