M48
;Layer_Color=9474304
;FILE_FORMAT=4:4
METRIC,LZ
T2F00S00C2.4000
%
G90
G05
T02
G00X00420946Y00028505
M15
G01X00424101Y00029979
G01X00425985Y00031515
G01X00428485Y00034015
G01X00430564Y00036808
G01X00431754Y00040081
G01X00432Y000425
G01X00432Y00135879
G01X00431494Y00139325
G01X00430021Y0014248
G01X00427704Y0014508
G01X00424738Y00146904
G01X00421566Y00147777
G01X00419478Y00148051
G01X00418991Y00148253
G01X00418573Y00148573
G01X00418253Y00148991
G01X00418051Y00149478
G01X00417983Y0015
G01X00418052Y00150522
G01X00418253Y00151009
G01X00418574Y00151426
G01X00418991Y00151747
G01X00419478Y00151949
G01X00421566Y00152223
G01X00424916Y00153174
G01X00427853Y00155047
G01X00430127Y00157684
G01X00431549Y00160863
G01X00432Y00164121
G01X00432Y00257376
G01X00431495Y00260821
G01X00430021Y00263977
G01X00428485Y00265861
G01X00425985Y00268361
G01X00423192Y0027044
G01X00419919Y00271629
G01X004175Y00271875
G01X000425Y00271875
G01X00039054Y0027137
G01X00035899Y00269897
G01X0003362Y00267947
G01X0003112Y00265196
G01X00029176Y00262307
G01X00028824Y00261169
G01X00000034Y0026125
G01X-00003413Y00260754
G01X-00006573Y0025929
G01X-00009179Y0025698
G01X-00011012Y00254019
G01X-00012Y0024925
G01X-00012Y0012975
G01X-00011495Y00126304
G01X-0001028Y00123702
G01X-00011006Y00122532
G01X-00012Y0011775
G01X-00012Y0005075
G01X-00011495Y00047304
G01X-00010021Y00044149
G01X-00007704Y00041549
G01X-00004738Y00039725
G01X0Y0003875
G01X00028688Y0003875
G01X00029784Y00036204
G01X00031515Y00034015
G01X00034015Y00031515
G01X00036808Y00029436
G01X00040081Y00028246
G01X000425Y00028
G01X004175Y00028
G01X00420946Y00028505
M16
M17
M30
