M48
;Layer_Color=9474304
;FILE_FORMAT=4:4
METRIC,LZ
;TYPE=PLATED
T1F00S00C0.2000
;TYPE=NON_PLATED
%
T01
X00045109Y00060002
X00045364Y00065191
X00044491Y000775
X00057571Y0009736
X00066271Y00102476
X00082543Y00101664
X000825Y001125
X00091Y0012
X00096388Y00095857
X00116Y0007
X00166
X00191Y0012
X00141
X0009979Y00141306
X00100122Y00158509
X00116Y0017
X0011Y001775
X00102949Y00186392
X00096857Y00192903
X0007Y00192
X00073958Y00153451
X00074229Y00146835
X000625Y00145
X00062582Y00123639
X00051358Y001075
X00035926Y00155366
Y00160015
X00041Y0022
X00045427Y00234753
X00045255Y00239521
X00091Y0022
X00141
X00191
X00166Y0017
X00241Y0022
X00291
X00341
X00391
X00366Y0017
X0035Y00149
X00341Y0012
X00391
X00366Y0007
X00316
X00266
X00216
X00275Y00112
Y00146
X00316Y0017
M30
